<?xml version="1.0" encoding="utf-8"?>
<!-- Generator: Adobe Illustrator 24.0.1, SVG Export Plug-In . SVG Version: 6.00 Build 0)  -->
<svg version="1.1" id="Capa_1" xmlns="http://www.w3.org/2000/svg" xmlns:xlink="http://www.w3.org/1999/xlink" x="0px" y="0px"
	 viewBox="0 0 612 612" style="enable-background:new 0 0 612 612;" xml:space="preserve">
<path d="M101.4,69.3h409.2c25,0,49.1,10,66.8,27.7c17.7,17.8,27.7,41.8,27.7,67v284c0,25.1-9.9,49.2-27.7,67
	c-17.7,17.8-41.7,27.7-66.8,27.7H101.4c-25,0-49.1-10-66.8-27.7C16.9,497.2,7,473.1,7,448V164c0-25.1,9.9-49.2,27.7-67
	C52.4,79.3,76.4,69.3,101.4,69.3z M101.4,100.9c-15.4,0-29.5,5.5-40.4,14.7l245,159.5l245-159.5c-11.3-9.5-25.6-14.7-40.4-14.7
	H101.4z M306,312.7L42.7,141.3c-2.8,7.2-4.2,15-4.2,22.7v284c0,16.7,6.6,32.8,18.4,44.6c11.8,11.8,27.8,18.5,44.5,18.5h409.2
	c16.7,0,32.7-6.6,44.5-18.5c11.8-11.8,18.4-27.9,18.4-44.6V164c0-8-1.5-15.7-4.2-22.7L306,312.7L306,312.7z"/>
</svg>
