<?xml version="1.0" encoding="UTF-8"?>
<svg id="Capa_1" xmlns="http://www.w3.org/2000/svg" version="1.1" viewBox="0 0 238 238">
  <!-- Generator: Adobe Illustrator 29.5.1, SVG Export Plug-In . SVG Version: 2.1.0 Build 141)  -->
  <path d="M229.6,238c-2.2,0-4.3-.8-6-2.5l-47.7-47.7c-18.7,15.9-42.8,25.6-69.2,25.6C47.9,213.4,0,165.6,0,106.7S47.9,0,106.7,0s106.7,47.9,106.7,106.7-9.6,50.6-25.6,69.2l47.7,47.7c3.3,3.3,3.3,8.6,0,11.9s-3.8,2.5-6,2.5ZM106.7,16.8c-49.5,0-89.9,40.3-89.9,89.9s40.3,89.9,89.9,89.9,46.5-9.8,62.7-25.6c.2-.3.5-.6.7-.8s.5-.5.8-.7c15.8-16.2,25.6-38.4,25.6-62.7,0-49.5-40.3-89.9-89.9-89.9Z"/>
</svg>