<?xml version="1.0" encoding="UTF-8"?>
<svg id="Capa_1" xmlns="http://www.w3.org/2000/svg" version="1.1" viewBox="0 0 238 238">
  <!-- Generator: Adobe Illustrator 29.5.1, SVG Export Plug-In . SVG Version: 2.1.0 Build 141)  -->
  <path d="M217.3,238c-4.7,0-8.4-3.8-8.4-8.4v-24.6c0-10.9-4.2-21.1-11.9-28.8-7.7-7.7-17.9-11.9-28.8-11.9h-98.3c-10.9,0-21.1,4.2-28.8,11.9-7.7,7.7-11.9,17.9-11.9,28.8v24.6c0,4.7-3.8,8.4-8.4,8.4s-8.4-3.8-8.4-8.4v-24.6c0-15.4,6-29.8,16.9-40.7,10.9-10.9,25.3-16.9,40.7-16.9h98.3c15.4,0,29.8,6,40.7,16.9,10.9,10.9,16.9,25.3,16.9,40.7v24.6c0,4.7-3.8,8.4-8.4,8.4ZM119,115.1c-31.7,0-57.6-25.8-57.6-57.6S87.3,0,119,0s57.6,25.8,57.6,57.6-25.8,57.6-57.6,57.6ZM119,16.8c-22.5,0-40.7,18.3-40.7,40.7s18.3,40.7,40.7,40.7,40.7-18.3,40.7-40.7-18.3-40.7-40.7-40.7Z"/>
</svg>