<?xml version="1.0" encoding="UTF-8"?>
<svg id="Capa_1" xmlns="http://www.w3.org/2000/svg" version="1.1" viewBox="0 0 238 238">
  <!-- Generator: Adobe Illustrator 29.6.1, SVG Export Plug-In . SVG Version: 2.1.1 Build 9)  -->
  <path d="M119,238C53.4,238,0,184.6,0,119S53.4,0,119,0s119,53.4,119,119-53.4,119-119,119ZM119,11.3C59.6,11.3,11.3,59.6,11.3,119s48.3,107.7,107.7,107.7,107.7-48.3,107.7-107.7S178.4,11.3,119,11.3ZM119,170c-3.1,0-5.7-2.5-5.7-5.7v-39.7h-39.7c-3.1,0-5.7-2.5-5.7-5.7s2.5-5.7,5.7-5.7h39.7v-39.7c0-3.1,2.5-5.7,5.7-5.7s5.7,2.5,5.7,5.7v39.7h39.7c3.1,0,5.7,2.5,5.7,5.7s-2.5,5.7-5.7,5.7h-39.7v39.7c0,3.1-2.5,5.7-5.7,5.7Z"/>
</svg>