<?xml version="1.0" encoding="UTF-8"?>
<svg id="Capa_1" xmlns="http://www.w3.org/2000/svg" version="1.1" viewBox="0 0 238 238">
  <!-- Generator: Adobe Illustrator 29.6.1, SVG Export Plug-In . SVG Version: 2.1.1 Build 9)  -->
  <defs>
    <style>
      .st0 {
        fill: #1e1e1e;
      }
    </style>
  </defs>
  <path class="st0" d="M231.7,238c-1.6,0-3.2-.6-4.4-1.8l-50.1-50.1c-18.8,16.7-43.6,26.9-70.7,26.9C47.8,212.9,0,165.2,0,106.5S47.8,0,106.5,0s106.5,47.8,106.5,106.5-10.2,51.9-26.9,70.7l50.1,50.1c2.4,2.4,2.4,6.4,0,8.9s-2.8,1.8-4.4,1.8ZM106.5,12.5C54.7,12.5,12.5,54.7,12.5,106.5s42.1,93.9,93.9,93.9,48.8-10.3,65.7-26.9c.2-.3.4-.5.6-.7s.5-.4.7-.6c16.6-17,26.9-40.2,26.9-65.7,0-51.8-42.1-93.9-93.9-93.9ZM106.5,150.3c-3.5,0-6.3-2.8-6.3-6.3v-31.3h-31.3c-3.5,0-6.3-2.8-6.3-6.3s2.8-6.3,6.3-6.3h31.3v-31.3c0-3.5,2.8-6.3,6.3-6.3s6.3,2.8,6.3,6.3v31.3h31.3c3.5,0,6.3,2.8,6.3,6.3s-2.8,6.3-6.3,6.3h-31.3v31.3c0,3.5-2.8,6.3-6.3,6.3Z"/>
</svg>