<?xml version="1.0" encoding="UTF-8"?>
<svg id="Capa_1" xmlns="http://www.w3.org/2000/svg" version="1.1" viewBox="0 0 238 238">
  <!-- Generator: Adobe Illustrator 29.6.1, SVG Export Plug-In . SVG Version: 2.1.1 Build 9)  -->
  <path d="M108,13.6c3.5-10.6,18.5-10.6,21.9,0l20.1,61.9c1.5,4.8,6,8,11,8h65.1c11.2,0,15.8,14.3,6.8,20.9l-52.6,38.2c-4,2.9-5.7,8.1-4.2,12.9l20.1,61.9c3.5,10.6-8.7,19.5-17.7,12.9l-52.6-38.2c-4-2.9-9.5-2.9-13.6,0l-52.6,38.2c-9,6.6-21.2-2.3-17.7-12.9l20.1-61.9c1.5-4.8-.1-10-4.2-12.9L5.1,104.3c-9-6.6-4.4-20.9,6.8-20.9h65.1c5,0,9.4-3.2,11-8l20.1-61.9Z"/>
</svg>