<?xml version="1.0" encoding="UTF-8"?>
<svg id="Capa_1" xmlns="http://www.w3.org/2000/svg" version="1.1" viewBox="0 0 238 238">
  <!-- Generator: Adobe Illustrator 29.5.1, SVG Export Plug-In . SVG Version: 2.1.0 Build 141)  -->
  <path d="M197,238H41c-7.9,0-15.6-3.2-21.1-8.8-5.6-5.6-8.8-13.2-8.8-21.1V52.3c0-.8.1-1.7.4-2.5t0,0s0,0,0,0c.3-.8.7-1.6,1.2-2.2L46.1,3.1c1.4-1.9,3.7-3.1,6.1-3.1h133.6c2.4,0,4.7,1.1,6.1,3.1l33.4,44.5c.5.7.9,1.4,1.2,2.2,0,0,0,0,0,0t0,0c.3.8.4,1.6.4,2.5v155.8c0,8-3.1,15.5-8.8,21.1-5.6,5.7-13.2,8.8-21.1,8.8ZM26.4,59.8v148.3c0,3.9,1.5,7.6,4.3,10.3,2.7,2.7,6.5,4.3,10.4,4.3h155.9c3.9,0,7.6-1.5,10.4-4.3s4.3-6.4,4.3-10.3V59.8H26.4ZM34,44.5h169.9l-22-29.3H56l-22,29.3ZM119,148.9c-13.9,0-27-5.4-36.9-15.3-9.7-9.7-15.3-23.2-15.3-36.9s3.4-7.6,7.6-7.6,7.6,3.4,7.6,7.6c0,9.7,3.9,19.2,10.8,26.1,7,7,16.2,10.8,26.1,10.8s19.2-3.9,26.1-10.8c6.9-6.9,10.8-16.4,10.8-26.1s3.4-7.6,7.6-7.6,7.6,3.4,7.6,7.6c0,13.9-5.4,27-15.3,36.9-9.9,9.9-23,15.3-36.9,15.3Z"/>
</svg>