<?xml version="1.0" encoding="UTF-8"?>
<svg id="Capa_1" xmlns="http://www.w3.org/2000/svg" version="1.1" viewBox="0 0 238 238">
  <!-- Generator: Adobe Illustrator 29.6.1, SVG Export Plug-In . SVG Version: 2.1.1 Build 9)  -->
  <defs>
    <style>
      .st0 {
        fill-rule: evenodd;
      }
    </style>
  </defs>
  <path class="st0" d="M119,11.9C59.8,11.9,11.9,59.8,11.9,119s47.9,107.1,107.1,107.1,107.1-47.9,107.1-107.1,2.7-5.9,5.9-5.9,6,2.7,6,5.9c0,65.7-53.3,119-119,119S0,184.7,0,119,53.3,0,119,0s53.3,9.5,73.6,25.5c9.8,7.7,18.4,17,25.4,27.4l2.3-12.3c.6-3.2,3.7-5.4,6.9-4.8,3.2.6,5.4,3.7,4.8,6.9l-5.2,28.3c-.3,1.6-1.2,3-2.6,3.9-1.4.9-3.1,1.2-4.6.8l-30.5-7.4c-3.2-.8-5.1-4-4.4-7.2.8-3.2,4-5.1,7.2-4.4l17.2,4.2c-6.4-9.9-14.5-18.7-23.8-26.1-18.2-14.4-41.2-22.9-66.2-22.9h0Z"/>
</svg>