<?xml version="1.0" encoding="UTF-8"?>
<svg id="Capa_1" xmlns="http://www.w3.org/2000/svg" version="1.1" viewBox="0 0 444.8 444.8">
  <!-- Generator: Adobe Illustrator 29.7.1, SVG Export Plug-In . SVG Version: 2.1.1 Build 8)  -->
  <path d="M79.28,352.46H12.4c-3.39,0-6.14,2.75-6.14,6.13v78.01c0,1.61.65,3.16,1.79,4.32,1.15,1.14,2.72,1.79,4.35,1.79h66.88c1.64,0,3.2-.65,4.35-1.79,1.17-1.16,1.82-2.71,1.82-4.32v-78.01c0-1.64-.65-3.18-1.82-4.35-1.15-1.14-2.7-1.79-4.35-1.79ZM73.14,430.48H18.56v-65.77h54.58v65.77ZM197,313.29h-66.88c-3.4,0-6.16,2.73-6.16,6.11v117.21c0,1.61.65,3.16,1.82,4.32,1.15,1.14,2.7,1.79,4.35,1.79h66.88c1.62,0,3.2-.65,4.35-1.79,1.15-1.16,1.79-2.71,1.79-4.32v-117.23c0-3.36-2.77-6.09-6.14-6.09ZM190.86,430.48h-54.58v-104.97h54.58v104.97ZM314.7,236.09h-66.88c-1.62,0-3.2.65-4.35,1.81-1.17,1.14-1.82,2.71-1.79,4.35v194.36c0,1.61.65,3.16,1.79,4.32,1.15,1.14,2.73,1.79,4.35,1.79h66.88c3.39,0,6.16-2.73,6.16-6.11v-194.36c0-1.64-.65-3.21-1.79-4.35-1.17-1.16-2.73-1.81-4.37-1.81ZM308.56,430.48h-54.6v-182.14h54.58l.02,182.14ZM432.42,181.53h-66.88c-1.64,0-3.2.65-4.35,1.79-1.17,1.16-1.82,2.71-1.82,4.32v248.97c0,1.61.65,3.16,1.82,4.32,1.15,1.14,2.7,1.79,4.35,1.79h66.88c3.4,0,6.14-2.73,6.14-6.11v-248.97c0-1.61-.65-3.18-1.79-4.32-1.15-1.14-2.72-1.79-4.35-1.79ZM426.26,430.48h-54.58v-236.71h54.58v236.71ZM177.71,269.66v-12.61c-.02-18.2-5.9-35.91-16.74-50.56-10.86-14.65-26.12-25.47-43.59-30.9,14.66-10.89,20.67-29.91,14.9-47.18-5.77-17.25-22.01-28.92-40.31-28.92s-34.53,11.66-40.28,28.92c-5.77,17.28.22,36.3,14.88,47.18-17.45,5.42-32.74,16.24-43.59,30.9-10.86,14.65-16.72,32.38-16.74,50.58v12.61c0,2.09,1.08,4.04,2.88,5.16,24.78,15.6,53.52,23.86,82.84,23.86s58.08-8.26,82.86-23.86c1.79-1.12,2.89-3.08,2.89-5.19ZM61.81,141.75c0-12.13,7.33-23.09,18.62-27.75,11.27-4.65,24.24-2.09,32.87,6.5,8.65,8.58,11.22,21.49,6.55,32.72-4.67,11.21-15.68,18.52-27.87,18.52-16.63-.02-30.12-13.43-30.17-29.99ZM165.39,266.23c-22.21,13.15-47.57,20.09-73.41,20.09s-51.21-6.95-73.44-20.09v-9.19c-.17-19.47,7.5-38.23,21.28-52.07,13.8-13.83,32.57-21.62,52.16-21.62s38.36,7.79,52.14,21.62c13.8,13.83,21.45,32.59,21.28,52.07v9.19ZM279.47,59.87c-15.68,0-29.82,9.38-35.81,23.8-5.99,14.41-2.68,30.98,8.39,42.02,11.09,11.02,27.76,14.33,42.23,8.35,14.49-5.96,23.94-20.03,23.94-35.61-.02-21.3-17.36-38.55-38.75-38.55ZM279.47,124.69c-10.7,0-20.33-6.41-24.44-16.22-4.09-9.83-1.82-21.15,5.73-28.66,7.57-7.53,18.94-9.77,28.8-5.7,9.88,4.07,16.33,13.66,16.33,24.29-.02,14.52-11.85,26.27-26.42,26.29ZM346.16,135.06h-.02c2.77-4.95,4.97-10.22,6.55-15.68l18.27-2.5c3.03-.41,5.3-3.01,5.3-6.07v-24.85.02c0-3.05-2.27-5.64-5.3-6.07l-18.27-2.5c-1.58-5.46-3.78-10.71-6.55-15.68l11.14-14.61c1.86-2.45,1.62-5.87-.54-8.02l-17.67-17.58c-2.16-2.15-5.6-2.39-8.07-.54l-14.68,11.08v-.02c-5-2.75-10.29-4.93-15.76-6.5l-2.51-18.18h-.02c-.41-3.03-3.01-5.29-6.08-5.29h-24.98c-3.07.02-5.67,2.28-6.08,5.29l-2.51,18.18h-.02c-5.47,1.57-10.77,3.74-15.76,6.5l-14.66-11.08c-2.44-1.85-5.88-1.61-8.07.56l-17.65,17.56c-2.18,2.17-2.42,5.59-.56,8.02l11.14,14.61c-2.77,4.97-4.97,10.24-6.53,15.71l-18.27,2.5c-3.05.41-5.32,2.99-5.32,6.05v24.85c0,3.06,2.27,5.64,5.32,6.07l18.27,2.5c1.56,5.44,3.76,10.71,6.53,15.68l-11.16,14.65c-1.86,2.43-1.62,5.85.54,8.02l17.65,17.56h.02c2.16,2.17,5.6,2.41,8.07.56l14.68-11.08c5,2.75,10.29,4.93,15.79,6.48l2.51,18.18c.43,3.03,3.03,5.29,6.1,5.29h24.98-.02c3.07-.02,5.69-2.26,6.1-5.29l2.51-18.18c5.49-1.57,10.79-3.74,15.76-6.5l14.68,11.08v-.02c2.47,1.85,5.9,1.61,8.07-.54l17.65-17.56h.02c2.16-2.17,2.4-5.59.54-8.02l-11.11-14.63ZM334.18,162.84l-13.71-10.33c-2.05-1.53-4.84-1.66-7.01-.3-6.08,3.83-12.78,6.58-19.81,8.18-2.49.56-4.39,2.6-4.74,5.14l-2.36,16.93h-14.23l-2.31-16.93c-.37-2.54-2.25-4.58-4.74-5.14-7.03-1.59-13.73-4.35-19.81-8.18-2.16-1.36-4.95-1.23-7.01.3l-13.71,10.33-10.08-10.03,10.38-13.64.02.02c1.54-2.04,1.67-4.8.3-6.95-3.85-6.07-6.62-12.74-8.22-19.71-.56-2.5-2.62-4.37-5.15-4.71l-17.02-2.35-.02-14.16,17.02-2.32h.02c2.53-.34,4.58-2.24,5.15-4.71,1.6-6.99,4.37-13.64,8.22-19.71,1.36-2.15,1.25-4.93-.3-6.97l-10.4-13.64,10.08-10.03,13.69,10.33c2.05,1.55,4.84,1.68,7.01.32,6.1-3.83,12.78-6.6,19.81-8.18,2.51-.56,4.39-2.6,4.76-5.12l2.34-16.93h14.25l2.36,16.93h-.02c.35,2.52,2.23,4.56,4.74,5.12,7.03,1.59,13.71,4.35,19.81,8.18,2.16,1.36,4.95,1.25,6.98-.3l13.71-10.33,10.08,10.03-10.38,13.64v-.02c-1.56,2.04-1.67,4.8-.3,6.97,3.83,6.05,6.62,12.72,8.2,19.71.58,2.47,2.64,4.35,5.17,4.71l17.02,2.32v14.16l-17.02,2.35c-2.53.34-4.58,2.22-5.17,4.71-1.58,6.97-4.37,13.64-8.2,19.71-1.36,2.15-1.25,4.91.3,6.95l10.38,13.64-10.08,10Z"/>
  <path d="M432.42,444.8h-66.89c-2.19,0-4.25-.85-5.81-2.39-1.58-1.56-2.44-3.62-2.44-5.81v-248.97c0-2.18.86-4.24,2.44-5.8,1.54-1.54,3.6-2.39,5.81-2.39h66.89c2.16,0,4.28.87,5.81,2.39,1.53,1.53,2.41,3.64,2.41,5.8v248.97c0,4.51-3.69,8.19-8.22,8.19ZM365.53,183.61c-1.09,0-2.11.42-2.87,1.18-.78.77-1.21,1.79-1.21,2.85v248.97c0,1.07.43,2.08,1.2,2.85.77.76,1.79,1.19,2.88,1.19h66.89c2.24,0,4.07-1.81,4.07-4.04v-248.97c0-1.06-.43-2.1-1.19-2.85-.76-.75-1.81-1.18-2.88-1.18h-66.89ZM197,444.8h-66.89c-2.19,0-4.25-.85-5.81-2.39-1.57-1.56-2.43-3.62-2.43-5.81v-117.21c0-4.51,3.7-8.19,8.24-8.19h66.89c4.53,0,8.22,3.66,8.22,8.17v117.23c0,2.17-.85,4.22-2.4,5.79-1.54,1.53-3.66,2.4-5.82,2.4ZM130.12,315.37c-2.25,0-4.08,1.81-4.08,4.04v117.21c0,1.07.43,2.08,1.21,2.85.77.76,1.79,1.19,2.88,1.19h66.89c1.07,0,2.12-.43,2.88-1.19.76-.76,1.19-1.79,1.19-2.85v-117.23c0-2.21-1.82-4.01-4.06-4.01h-66.89ZM314.7,444.79h-66.89c-2.17,0-4.29-.87-5.81-2.38-1.57-1.6-2.41-3.65-2.41-5.81v-194.36c-.03-2.17.85-4.3,2.43-5.84,1.49-1.51,3.61-2.4,5.79-2.4h66.89c2.21,0,4.28.86,5.84,2.42,1.53,1.52,2.4,3.64,2.4,5.81v194.36c0,4.51-3.69,8.18-8.24,8.18ZM247.81,238.17c-1.07,0-2.12.43-2.87,1.19-.79.76-1.21,1.79-1.19,2.85v194.4c0,1.06.43,2.08,1.2,2.87.73.72,1.78,1.15,2.86,1.15h66.89c2.25,0,4.08-1.81,4.08-4.03v-194.36c0-1.08-.43-2.13-1.18-2.87-.78-.78-1.81-1.21-2.91-1.21h-66.89ZM79.28,444.79H12.4c-2.17,0-4.29-.87-5.81-2.38-1.56-1.6-2.41-3.65-2.41-5.81v-78.01c0-4.53,3.69-8.22,8.22-8.22h66.88c2.2,0,4.26.85,5.81,2.39,1.57,1.56,2.43,3.63,2.43,5.83v78.01c0,2.18-.86,4.24-2.42,5.8-1.55,1.54-3.62,2.39-5.82,2.39ZM12.4,354.54c-2.24,0-4.06,1.82-4.06,4.06v78.01c0,1.06.43,2.08,1.2,2.87.73.72,1.78,1.15,2.86,1.15h66.88c1.1,0,2.12-.41,2.88-1.18.78-.77,1.2-1.79,1.2-2.85v-78.01c0-1.09-.43-2.11-1.2-2.87-.77-.76-1.79-1.19-2.88-1.19H12.4ZM428.33,432.56h-58.73v-240.86h58.73v240.86ZM373.76,428.4h50.42v-232.55h-50.42v232.55ZM310.64,432.56h-58.77v-186.3h58.74l.02,186.3ZM256.03,428.4h50.45l-.02-177.99h-50.43v177.99ZM192.94,432.56h-58.74v-109.13h58.74v109.13ZM138.36,428.4h50.42v-100.81h-50.42v100.81ZM75.22,432.56H16.48v-69.93h58.73v69.93ZM20.64,428.4h50.42v-61.62H20.64v61.62ZM91.95,300.78c-29.79,0-58.82-8.36-83.95-24.17-2.41-1.51-3.85-4.09-3.85-6.93v-12.61c.02-18.8,5.96-36.71,17.15-51.82,10.27-13.86,24.73-24.56,41.02-30.43-13.2-11.69-18.27-30.13-12.61-47.07,6.05-18.15,23.03-30.34,42.26-30.34s36.21,12.19,42.28,30.34c5.66,16.93.58,35.37-12.62,47.07,16.46,5.88,30.58,16.35,41.01,30.43,11.19,15.13,17.12,33.04,17.15,51.8v12.61c0,2.84-1.45,5.44-3.87,6.95-25.12,15.81-54.16,24.17-83.97,24.17ZM91.97,101.57c-17.43,0-32.83,11.05-38.31,27.5-5.5,16.47.18,34.49,14.14,44.85l3.29,2.44-3.91,1.21c-16.92,5.26-32.03,15.97-42.54,30.15-10.66,14.38-16.3,31.45-16.33,49.34v12.61c0,1.36.73,2.67,1.9,3.4,24.47,15.4,52.73,23.54,81.74,23.54s57.3-8.14,81.76-23.54c1.21-.75,1.92-2.03,1.92-3.43v-12.61c-.02-17.85-5.67-34.91-16.33-49.32-10.66-14.39-25.38-24.82-42.54-30.15l-3.91-1.21,3.29-2.44c13.97-10.37,19.67-28.4,14.16-44.85-5.5-16.45-20.91-27.5-38.33-27.5ZM91.97,288.41c-26.18,0-51.94-7.05-74.5-20.39l-1.02-.6v-10.38c-.17-19.87,7.8-39.39,21.89-53.53,14.09-14.13,33.64-22.23,53.63-22.23s39.54,8.1,53.61,22.23c14.08,14.12,22.06,33.65,21.88,53.55v10.36s-1.01.6-1.01.6c-22.53,13.34-48.29,20.39-74.48,20.39ZM20.61,265.04c21.67,12.57,46.32,19.21,71.36,19.21s49.69-6.64,71.34-19.21v-8c.17-18.82-7.37-37.25-20.68-50.59-13.29-13.36-31.76-21.01-50.66-21.01s-37.37,7.66-50.68,21.01c-13.3,13.36-20.84,31.8-20.68,50.58v8.01ZM291.97,196.8h-24.98c-4.08,0-7.58-3.04-8.15-7.08l-2.33-16.86c-4.75-1.43-9.35-3.32-13.72-5.63l-13.62,10.27c-3.04,2.27-7.22,2.17-10.11-.14h-.06l-.63-.6-17.65-17.56c-2.89-2.91-3.2-7.53-.73-10.76l10.34-13.58c-2.34-4.37-4.24-8.94-5.68-13.62l-16.94-2.32c-4.06-.57-7.12-4.07-7.12-8.13v-24.85c0-4.08,3.06-7.56,7.12-8.11l16.94-2.31c1.43-4.68,3.33-9.26,5.67-13.64l-10.32-13.53c-2.48-3.24-2.16-7.87.75-10.76l17.65-17.56c2.89-2.89,7.52-3.21,10.79-.74l13.59,10.27c4.34-2.3,8.95-4.19,13.72-5.65l2.32-16.85c.55-4.01,4.05-7.06,8.13-7.09h24.99c3.46,0,6.5,2.18,7.68,5.29h.2l.28,1.79,2.32,16.85c4.76,1.45,9.36,3.35,13.72,5.65l13.6-10.26c3.27-2.46,7.89-2.15,10.78.72l17.67,17.58c2.89,2.87,3.21,7.49.73,10.75l-10.33,13.54c2.35,4.39,4.25,8.96,5.69,13.62l16.95,2.32c4.04.57,7.08,4.06,7.09,8.1h0v24.85c0,4.09-3.05,7.58-7.1,8.13l-16.94,2.32c-1.45,4.69-3.35,9.25-5.68,13.6l10.31,13.58c2.47,3.24,2.16,7.86-.73,10.75l-17.67,17.56c-1.99,1.97-4.8,2.74-7.45,2.21v1.03l-16.94-12.77c-4.34,2.3-8.94,4.2-13.71,5.65l-2.32,16.85c-.55,4.01-4.04,7.05-8.14,7.08h0ZM242.42,162.3l1.19.65c4.84,2.67,9.99,4.79,15.34,6.29l1.32.37,2.7,19.53c.28,1.99,2.01,3.5,4.04,3.5h24.96c2.03-.02,3.77-1.52,4.04-3.49l2.7-19.53,1.31-.37c5.37-1.53,10.52-3.66,15.33-6.32l1.19-.65,15.75,11.87c1.62,1.22,3.93,1.07,5.34-.35l17.86-17.76c1.24-1.43,1.32-3.57.17-5.08l-10.5-13.81h-2.54l1.74-3.09c2.7-4.83,4.84-9.96,6.37-15.24l.37-1.3,19.62-2.68c2-.27,3.5-1.99,3.5-4.01v-24.83c0-2-1.51-3.72-3.51-4.01l-19.61-2.68-.37-1.3c-1.51-5.24-3.65-10.37-6.37-15.25l-.66-1.19,11.96-15.69c1.22-1.61,1.07-3.88-.35-5.29l-17.68-17.58c-1.41-1.42-3.73-1.57-5.34-.35l-18.01,13.59v-2.96c-4.51-2.39-9.3-4.32-14.27-5.74l-1.3-.37-2.72-19.53c-.27-1.99-1.99-3.49-4.01-3.49h-24.97c-2.01.01-3.75,1.52-4.02,3.5l-2.76,19.97h-1.53c-5.27,1.53-10.34,3.63-15.05,6.24l-1.19.65-15.74-11.9c-1.61-1.21-3.91-1.05-5.34.38l-17.65,17.56c-1.43,1.42-1.59,3.7-.37,5.29l11.96,15.69-.66,1.19c-2.71,4.87-4.85,10-6.35,15.26l-.37,1.31-19.62,2.68c-2.01.27-3.52,1.98-3.52,3.99v24.85c0,2,1.52,3.73,3.53,4.01l19.6,2.68.37,1.3c1.51,5.26,3.64,10.38,6.35,15.24l.66,1.19-11.98,15.73c-1.22,1.6-1.06,3.87.36,5.3l17.67,17.56c1.43,1.42,3.73,1.58,5.35.36l15.75-11.89ZM288.38,184.54h-17.85l-2.57-18.73c-.24-1.66-1.49-3.03-3.13-3.4-7.31-1.65-14.18-4.49-20.46-8.44-1.43-.89-3.3-.8-4.66.21l-15.13,11.4-12.65-12.58,11.78-15.48c.75-1.3.73-2.89-.07-4.17-3.97-6.26-6.83-13.11-8.49-20.36-.37-1.64-1.73-2.89-3.4-3.11l-18.82-2.59-.03-17.78,18.82-2.57c1.68-.23,3.05-1.47,3.42-3.11,1.66-7.24,4.51-14.09,8.49-20.36.91-1.44.83-3.24-.2-4.6l-11.5-15.09,12.65-12.58,15.13,11.41c1.36,1.03,3.24,1.13,4.65.22,6.34-3.98,13.23-6.82,20.45-8.44,1.67-.37,2.91-1.71,3.16-3.39l2.58-18.71h17.87l2.65,19.09c.35,1.48,1.53,2.67,3.06,3.01,7.29,1.65,14.18,4.49,20.46,8.44,1.44.9,3.3.82,4.62-.19l15.15-11.42,12.64,12.58-11.66,15.33c-.85,1.32-.86,2.99,0,4.34,3.99,6.32,6.84,13.17,8.46,20.36.38,1.61,1.76,2.87,3.44,3.11l18.8,2.57v17.78l-18.81,2.59c-1.7.23-3.04,1.45-3.43,3.13-1.62,7.15-4.46,14-8.45,20.34-.92,1.44-.84,3.23.19,4.58l11.48,15.09-12.65,12.56-15.14-11.41c-1.37-1.02-3.23-1.1-4.65-.2-6.28,3.95-13.15,6.79-20.45,8.44-1.65.37-2.91,1.74-3.13,3.4l-2.61,18.73ZM274.15,180.38h10.61l2.1-15.14c.46-3.37,3.01-6.13,6.34-6.88,6.84-1.55,13.28-4.21,19.16-7.91,2.87-1.8,6.62-1.64,9.35.39l12.28,9.25,7.5-7.45-9.27-12.19c-2.09-2.74-2.25-6.41-.4-9.32,3.73-5.94,6.41-12.35,7.92-19.06.78-3.33,3.56-5.86,6.93-6.31l15.22-2.1v-10.53l-15.22-2.08c-3.42-.49-6.12-2.96-6.91-6.29-1.52-6.75-4.19-13.16-7.92-19.08-1.84-2.94-1.69-6.6.4-9.34l3.73-4.9h0s5.55-7.27,5.55-7.27l-7.51-7.47-12.27,9.24c-2.69,2.05-6.44,2.22-9.34.4-5.89-3.7-12.34-6.37-19.17-7.91-3.33-.74-5.88-3.5-6.33-6.87l-.32-2.36h0l-1.78-12.77h-10.63l-2.09,15.13c-.5,3.37-3.04,6.13-6.37,6.87-6.77,1.51-13.21,4.17-19.15,7.9-2.87,1.8-6.65,1.63-9.36-.42l-12.25-9.24-7.51,7.47,9.3,12.19c2.07,2.72,2.23,6.47.4,9.35-3.72,5.87-6.39,12.28-7.94,19.06-.75,3.32-3.52,5.85-6.9,6.3l-15.23,2.08v10.53s15.24,2.1,15.24,2.1c3.37.45,6.15,2.99,6.89,6.31,1.55,6.78,4.23,13.19,7.94,19.05,1.83,2.89,1.68,6.55-.39,9.31l-1.44,1.92-.04-.03-7.83,10.3,7.51,7.47,12.27-9.24c2.74-2.05,6.51-2.2,9.36-.4,5.88,3.7,12.32,6.36,19.17,7.91,3.3.74,5.85,3.51,6.32,6.87l2.07,15.15ZM91.97,173.82c-17.73-.02-32.2-14.4-32.24-32.06h0c0-13.03,7.81-24.68,19.9-29.68,12.09-4.99,25.88-2.27,35.13,6.94,9.27,9.2,12.02,22.94,7.01,35-5.02,12.03-16.71,19.8-29.79,19.8ZM63.89,141.75c.04,15.37,12.64,27.89,28.09,27.91,11.4,0,21.58-6.77,25.95-17.24,4.36-10.49,1.97-22.44-6.1-30.45-8.05-8.02-20.08-10.39-30.61-6.05-10.53,4.36-17.33,14.49-17.33,25.83h0ZM279.41,139.07c-10.59,0-20.98-4.12-28.82-11.91-11.71-11.66-15.18-29.05-8.85-44.29,6.33-15.24,21.14-25.08,37.73-25.08,22.49,0,40.81,18.23,40.83,40.63,0,16.5-9.91,31.23-25.23,37.53-5.07,2.1-10.38,3.12-15.65,3.12ZM279.47,61.94c-14.91,0-28.21,8.84-33.9,22.51-5.68,13.68-2.56,29.28,7.95,39.75,10.55,10.48,26.23,13.58,39.96,7.9,13.77-5.66,22.66-18.89,22.66-33.69-.02-20.11-16.47-36.48-36.67-36.48ZM279.47,126.77h0c-11.56,0-21.91-6.87-26.35-17.5-4.42-10.65-2-22.79,6.18-30.94,8.19-8.14,20.39-10.56,31.07-6.15,10.69,4.4,17.61,14.69,17.61,26.21-.02,15.62-12.81,28.35-28.51,28.37ZM279.43,74.17c-6.33,0-12.53,2.46-17.2,7.11-6.98,6.95-9.05,17.31-5.29,26.39,3.8,9.07,12.64,14.94,22.52,14.94,13.4-.02,24.32-10.89,24.35-24.22,0-9.82-5.9-18.6-15.04-22.36-3.04-1.25-6.21-1.86-9.35-1.86Z"/>
</svg>