<?xml version="1.0" encoding="UTF-8"?>
<svg id="Capa_1" xmlns="http://www.w3.org/2000/svg" version="1.1" viewBox="0 0 444.8 444.8">
  <!-- Generator: Adobe Illustrator 29.7.1, SVG Export Plug-In . SVG Version: 2.1.1 Build 8)  -->
  <path d="M222.65,70.12s-.02,0-.03,0c0,0-.02,0-.02,0-.06,0-.13,0-.19,0-.02,0-.04,0-.07,0,0,0,0,0,0,0,0,0,0,0-.01,0-71.96.05-130.49,58.6-130.49,130.57,0,3.51.17,6.98.44,10.43,0,.01,0,.02,0,.03,0,.04.02.07.02.11,3.78,47.21,32.67,88.61,76.13,108.33v30.94c-.06.37-.22.7-.22,1.08s.16.72.22,1.08v63.81c0,15.6,12.69,28.29,28.29,28.29h51.55c15.6,0,28.29-12.69,28.29-28.29v-31.96h-.14v-64.95c46.67-21.18,76.58-67.36,76.58-118.9,0-71.92-58.44-130.44-130.33-130.57ZM215.59,83.8v32.05c-14.86-.38-27.3,11.61-27.3,26.49s12.47,26.85,27.3,26.49v35.51h-43.83c-2.25,0-4.35,1.12-5.6,2.99-.64.96-1,2.05-1.1,3.16-.11,1.09.04,2.21.48,3.25.65,1.58.98,3.24.99,4.92-.03,7.16-5.86,12.98-13.02,12.98s-12.99-5.82-13.02-12.98c0-1.69.34-3.34.99-4.91.43-1.04.59-2.16.48-3.25-.1-1.12-.46-2.21-1.1-3.17-1.25-1.87-3.35-2.99-5.6-2.99h-29.81c-.04-1.21-.14-2.41-.14-3.63,0-62.28,48.88-113.35,110.29-116.89ZM106.56,217.89h20.45c0,.24-.01.47-.01.71,0,0,0,0,0,.01,0,.03,0,.05,0,.08,0,14.61,11.89,26.5,26.5,26.5s26.5-11.89,26.5-26.5c0-.03,0-.05,0-.08,0,0,0,0,0-.01,0-.24,0-.47-.01-.71h35.6v43.74c0,2.25,1.12,4.35,2.99,5.6,1.01.68,2.17,1.03,3.34,1.1,1.1.11,2.22-.04,3.27-.47,1.54-.64,3.17-.96,4.82-.98,7.11.08,12.88,5.88,12.88,13.01s-5.77,12.93-12.88,13.01c-1.64-.02-3.27-.34-4.83-.99-1.05-.43-2.17-.58-3.26-.47-1.18.07-2.33.42-3.34,1.1-1.87,1.25-2.99,3.35-2.99,5.6v46.74h-33.71v-34.21l-4.16-1.72c-38.61-15.96-65.21-50.64-71.15-91.06ZM263.06,416.51c0,8.17-6.65,14.82-14.82,14.82h-51.55c-8.17,0-14.82-6.65-14.82-14.82v-18.49h81.19v18.49ZM181.88,384.55v-26.2h81.05v26.2h-81.05ZM267.09,308.95l-4.16,1.72v34.21h-33.57v-38.51c.17,0,.34,0,.51,0,.01,0,.02,0,.03,0,.09,0,.17,0,.26,0,14.61,0,26.5-11.89,26.5-26.5s-12.42-26.67-27.3-26.49v-35.51h43.83c2.25,0,4.35-1.12,5.6-2.99.64-.96,1.01-2.05,1.1-3.17.11-1.09-.04-2.21-.48-3.25-.65-1.58-.98-3.24-.99-4.92.03-7.16,5.86-12.98,13.02-12.98s12.99,5.82,13.02,12.98c0,1.68-.34,3.34-.99,4.92-.43,1.04-.58,2.16-.48,3.25.1,1.12.46,2.21,1.1,3.17,1.25,1.87,3.35,2.99,5.6,2.99h28.54c-5.94,40.41-32.54,75.1-71.15,91.06ZM339.37,204.32h-21.44c0-.24.01-.47.01-.71,0,0,0,0,0-.01,0-.03,0-.05,0-.08,0-14.61-11.88-26.5-26.5-26.5s-26.5,11.89-26.5,26.5c0,.03,0,.05,0,.08,0,0,0,0,0,.01,0,.24,0,.47.01.71h-35.6v-43.74c0-2.25-1.12-4.35-2.99-5.6-1.01-.68-2.17-1.03-3.34-1.1-1.09-.11-2.22.04-3.27.47-1.55.64-3.17.96-4.82.98-7.11-.08-12.88-5.88-12.88-13.01s5.77-12.93,12.88-13.01c1.65.02,3.27.34,4.82.98,1.05.43,2.17.59,3.26.48,1.18-.07,2.34-.42,3.35-1.1,1.87-1.25,2.99-3.35,2.99-5.6v-40.27c61.34,3.61,110.15,54.65,110.15,116.88,0,1.22-.1,2.42-.14,3.63ZM215.66,40.44V6.74c0-3.72,3.02-6.74,6.74-6.74s6.74,3.02,6.74,6.74v33.71c0,3.72-3.01,6.74-6.74,6.74s-6.74-3.02-6.74-6.74ZM63,202.1c0,3.72-3.02,6.74-6.74,6.74H22.56c-3.72,0-6.74-3.02-6.74-6.74s3.02-6.74,6.74-6.74h33.71c3.72,0,6.74,3.02,6.74,6.74ZM428.98,202.1c0,3.72-3.02,6.74-6.74,6.74h-33.71c-3.72,0-6.74-3.02-6.74-6.74s3.02-6.74,6.74-6.74h33.71c3.72,0,6.74,3.02,6.74,6.74ZM368.47,56.03c2.63,2.63,2.63,6.89,0,9.53l-23.84,23.83c-1.32,1.32-3.04,1.97-4.76,1.97s-3.45-.66-4.76-1.97c-2.63-2.63-2.63-6.89,0-9.52l23.84-23.83c2.63-2.63,6.89-2.63,9.52,0ZM100.16,89.39l-23.84-23.83c-2.63-2.63-2.63-6.89,0-9.53,2.63-2.63,6.89-2.63,9.52,0l23.84,23.83c2.63,2.63,2.63,6.89,0,9.52-1.32,1.32-3.04,1.97-4.76,1.97s-3.45-.66-4.76-1.97Z"/>
</svg>