<?xml version="1.0" encoding="UTF-8"?>
<svg id="Capa_1" xmlns="http://www.w3.org/2000/svg" version="1.1" viewBox="0 0 444.8 444.8">
  <!-- Generator: Adobe Illustrator 29.7.1, SVG Export Plug-In . SVG Version: 2.1.1 Build 8)  -->
  <path d="M222.4,311.36l88.96-88.96-31.14-31.13-35.58,35.58v-93.41h-44.48v93.41l-35.58-35.58-31.14,31.13,88.96,88.96ZM222.4,444.8c-30.77,0-59.68-5.84-86.74-17.51-27.06-11.67-50.6-27.52-70.61-47.54-20.02-20.02-35.86-43.55-47.54-70.61C5.84,282.08,0,253.17,0,222.4s5.84-59.68,17.51-86.74c11.68-27.06,27.52-50.6,47.54-70.61,20.02-20.02,43.55-35.86,70.61-47.54C162.72,5.84,191.63,0,222.4,0s59.68,5.84,86.74,17.51c27.06,11.68,50.6,27.52,70.61,47.54,20.02,20.02,35.86,43.55,47.54,70.61,11.67,27.06,17.51,55.97,17.51,86.74s-5.84,59.68-17.51,86.74c-11.68,27.06-27.52,50.6-47.54,70.61-20.02,20.02-43.55,35.86-70.61,47.54-27.06,11.68-55.97,17.51-86.74,17.51Z"/>
</svg>