<?xml version="1.0" encoding="UTF-8"?>
<svg id="Capa_1" xmlns="http://www.w3.org/2000/svg" version="1.1" viewBox="0 0 444.8 444.8">
  <!-- Generator: Adobe Illustrator 29.8.1, SVG Export Plug-In . SVG Version: 2.1.1 Build 2)  -->
  <path d="M106.99,119.1c13.7,0,24.24-10.54,24.24-24.24V24.24c0-12.65-10.54-24.24-24.24-24.24s-24.24,10.54-24.24,24.24v70.62c0,13.7,10.54,24.24,24.24,24.24ZM306.19,258.23h50.59c6.32,0,11.59-5.27,11.59-11.59v-32.67c0-6.32-5.27-11.59-11.59-11.59h-50.59c-6.32,0-11.59,5.27-11.59,11.59v32.67c-1.05,6.32,4.22,11.59,11.59,11.59ZM306.19,356.26h50.59c6.32,0,11.59-5.27,11.59-11.6v-32.67c0-6.32-5.27-11.59-11.59-11.59h-50.59c-6.32,0-11.59,5.27-11.59,11.59v32.67c-1.05,6.33,4.22,11.6,11.59,11.6ZM362.05,94.86c0,2.11-1.05,3.16,0,4.22v-4.22ZM336.76,119.1c13.7,0,24.24-10.54,24.24-24.24V24.24c0-12.65-10.54-24.24-24.24-24.24s-24.24,10.54-24.24,24.24v70.62c1.05,13.7,11.59,24.24,24.24,24.24ZM196.58,258.23h50.59c6.32,0,11.6-5.27,11.6-11.59v-32.67c0-6.32-5.27-11.59-11.6-11.59h-50.59c-6.32,0-11.59,5.27-11.59,11.59v32.67c0,6.32,5.27,11.59,11.59,11.59ZM88.01,258.23h50.6c6.32,0,11.59-5.27,11.59-11.59v-32.67c0-6.32-5.27-11.59-11.59-11.59h-50.6c-6.32,0-11.59,5.27-11.59,11.59v32.67c-1.05,6.32,5.27,11.59,11.59,11.59ZM88.01,356.26h50.6c6.32,0,11.59-5.27,11.59-11.6v-32.67c0-6.32-5.27-11.59-11.59-11.59h-50.6c-6.32,0-11.59,5.27-11.59,11.59v32.67c-1.05,6.33,5.27,11.6,11.59,11.6ZM196.58,356.26h50.59c6.32,0,11.6-5.27,11.6-11.6v-32.67c0-6.32-5.27-11.59-11.6-11.59h-50.59c-6.32,0-11.59,5.27-11.59,11.59v32.67c0,6.33,5.27,11.6,11.59,11.6Z"/>
  <path d="M402.11,43.22h-25.3v51.65c0,21.08-17.92,37.94-39,37.94s-39-16.86-39-37.94v-51.65h-152.84v51.65c0,21.08-17.92,37.94-39,37.94s-39-16.86-39-37.94v-51.65h-25.3C19.5,43.22,1.59,62.19,1.59,84.33v320.42c0,22.13,17.92,40.05,41.1,40.05h359.42c22.13,0,41.1-17.92,41.1-40.05V84.33c0-22.14-18.97-41.11-41.1-41.11ZM407.38,404.74c0,3.16-2.11,5.27-5.27,5.27H42.69c-3.16,0-5.27-2.11-5.27-5.27v-254.01h369.96v254.01Z"/>
</svg>