<?xml version="1.0" encoding="UTF-8"?>
<svg id="Capa_1" xmlns="http://www.w3.org/2000/svg" version="1.1" viewBox="0 0 444.8 444.8">
  <!-- Generator: Adobe Illustrator 29.7.1, SVG Export Plug-In . SVG Version: 2.1.1 Build 8)  -->
  <path d="M222.4,0c-43.99,0-86.98,13.04-123.56,37.48-36.57,24.44-65.08,59.17-81.91,99.81C.1,177.93-4.31,222.65,4.27,265.79c8.58,43.14,29.76,82.77,60.87,113.87,31.1,31.1,70.73,52.28,113.87,60.87,43.14,8.58,87.86,4.18,128.5-12.66,40.64-16.83,75.37-45.34,99.81-81.91,24.44-36.57,37.48-79.57,37.48-123.56,0-29.21-5.75-58.12-16.93-85.11-11.18-26.98-27.56-51.5-48.21-72.15-20.65-20.65-45.17-37.03-72.15-48.21C280.53,5.75,251.61,0,222.4,0ZM327.15,171.47l-111.2,111.2c-2.07,2.08-4.53,3.74-7.24,4.87-2.71,1.13-5.62,1.71-8.55,1.71s-5.84-.58-8.55-1.71c-2.71-1.13-5.17-2.78-7.24-4.87l-44.48-44.48c-4.19-4.19-6.54-9.87-6.54-15.79s2.35-11.6,6.54-15.79c4.19-4.19,9.87-6.54,15.79-6.54s11.6,2.35,15.79,6.54l28.69,28.91,95.41-95.63c4.19-4.19,9.87-6.54,15.79-6.54s11.6,2.35,15.79,6.54c4.19,4.19,6.54,9.87,6.54,15.79s-2.35,11.6-6.54,15.79Z"/>
</svg>