<?xml version="1.0" encoding="UTF-8"?>
<svg id="Capa_1" xmlns="http://www.w3.org/2000/svg" version="1.1" viewBox="0 0 444.8 444.8">
  <!-- Generator: Adobe Illustrator 29.7.1, SVG Export Plug-In . SVG Version: 2.1.1 Build 8)  -->
  <path d="M425.19,91.2l-48.97,113c14.23,4.19,25.53,8.79,33.9,13.81,8.37,4.19,14.65,10.04,18.83,17.58,5.02,6.7,8.37,15.48,10.04,26.37,1.67,10.04,2.51,23.02,2.51,38.92,0,31.81-8.79,56.08-26.37,72.82-16.74,16.74-40.6,25.11-71.56,25.11s-56.92-8.79-75.33-26.37c-17.58-18.41-25.95-43.52-25.11-75.33,0-17.58.84-33.06,2.51-46.45,2.51-14.23,5.86-27.2,10.04-38.92,4.19-11.72,9.63-23.44,16.32-35.15,7.53-12.56,16.74-25.95,27.62-40.18l70.31-90.4,55.24,45.2ZM185.39,91.2l-48.97,113c14.23,4.19,25.53,8.79,33.9,13.81,8.37,4.19,14.65,10.04,18.83,17.58,4.19,6.7,7.11,15.48,8.79,26.37,1.67,10.04,2.51,23.02,2.51,38.92,0,31.81-8.37,56.08-25.11,72.82-16.74,16.74-41.01,25.11-72.82,25.11s-55.66-8.79-74.08-26.37c-17.58-18.41-25.95-43.52-25.11-75.33,0-17.58.84-33.06,2.51-46.45,2.51-14.23,5.86-27.2,10.04-38.92s9.63-23.44,16.32-35.15c7.53-12.56,16.74-25.95,27.62-40.18l70.31-90.4,55.24,45.2Z"/>
</svg>