<?xml version="1.0" encoding="UTF-8"?>
<svg id="Capa_1" xmlns="http://www.w3.org/2000/svg" version="1.1" viewBox="0 0 444.8 444.8">
  <!-- Generator: Adobe Illustrator 29.7.1, SVG Export Plug-In . SVG Version: 2.1.1 Build 8)  -->
  <path d="M276.77,0v109.2c-.18,8.63,7.24,15.71,15.78,15.67,4.46,0,8.9-2.01,11.9-5.58l17.12-20.34,17.12,20.34c8.78,11.17,28.22,4.06,27.69-10.1V0h9.91c18.45,0,33.36,15.01,33.36,33.36l.02,378.08c0,18.35-14.91,33.36-33.36,33.36H68.49c-18.45,0-33.36-15.01-33.36-33.36V33.36C35.13,15.01,50.04,0,68.49,0h208.28ZM233.52,56.49c-.3-14.69-21.98-14.48-22.24,0v331.85c.3,14.69,21.98,14.48,22.24,0V56.49ZM275.54,326.5c-14.64.29-14.58,21.97,0,22.24h92.08c14.63-.3,14.56-21.96,0-22.24h-92.08ZM275.54,275.69c-6.11,0-11.12,4.99-11.12,11.1,0,6.11,5.01,11.12,11.12,11.12h92.08c6.1,0,11.1-5.01,11.1-11.12,0-6.1-5-11.1-11.1-11.1h-92.08ZM275.54,224.85c-14.64.29-14.58,22.05,0,22.24h92.08c14.63-.22,14.59-21.96,0-22.24h-92.08ZM77.18,197.69c-14.64.21-14.6,21.99,0,22.26h92.06c6.11,0,11.12-5.01,11.12-11.12,0-6.21-5.01-11.12-11.12-11.12h-92.06v-.02ZM77.18,146.91c-6.11,0-11.12,5.01-11.12,11.12,0,6.11,5.01,11.1,11.12,11.1h92.06c6.11,0,11.12-4.99,11.12-11.1,0-6.11-5.01-11.12-11.12-11.12h-92.06ZM77.18,96.07c-14.64.29-14.57,21.99,0,22.26h92.06c14.64-.29,14.57-21.99,0-22.26h-92.06ZM344.16.02v91.17l-10.57-12.56h.02c-6.01-7.11-18.01-7.11-24.01,0l-10.57,12.56V.02h45.14Z"/>
</svg>