<?xml version="1.0" encoding="UTF-8"?>
<svg id="Layer_1" xmlns="http://www.w3.org/2000/svg" version="1.1" xmlns:v="https://vecta.io/nano" viewBox="0 0 329.7 281.6">
  <!-- Generator: Adobe Illustrator 29.7.0, SVG Export Plug-In . SVG Version: 2.1.1 Build 138)  -->
  <defs>
    <style>
      .st0 {
        fill: #f7e6dc;
      }

      .st1 {
        fill: #3a6320;
      }
    </style>
  </defs>
  <path class="st0" d="M329.7,173.1c-47-25.2-94.9-52.2-140.7-80.1,30.5,18.7,72.3,49.7,140.7,93.8v-13.7Z"/>
  <path class="st1" d="M115.1,231.1c-18.5-.6-37.7-1.2-56.2-3,19.4,18.2,39.4,36,59.9,53.4h47.2c-13.7-11.5-25.1-21.7-25.1-21.7l49.1-.6h0c-15.5-10.3-23.9-20.9-26.9-20.9,0-2.3-.5.1-3.6-3-6-5.4-12-10.2-18.5-14.9-1.8-1.2-2.4-3-4.2-4.2l-14.4-10.8c-.6-.6-1.2-1.8-1.8-2.4-6.6-5.4-12.6-9-18.5-14.9-4.8-4.2-9.6-7.2-14.4-10.8-1.8-1.2-2.4-3-4.2-4.2-7.2-6-13.8-10.8-20.9-16.7C-23,90-.9,104.6,14.6,125.9c15.5,15.5,24.8,32.2,100.5,105.2Z"/>
  <path class="st1" d="M329.7,64.4L177,0c53.7,38,105.9,69,152.7,94.3v-29.9Z"/>
  <path class="st1" d="M329.7,281.6c-61.2-40.7-109.5-74.9-121.7-84.1,35.1,28.7,72.6,57.6,108.2,84.1h13.5Z"/>
</svg>