<?xml version="1.0" encoding="UTF-8"?>
<svg xmlns="http://www.w3.org/2000/svg" width="1441" height="526" viewBox="0 0 1441 526" fill="none">
  <mask id="mask0_86_4118" style="mask-type:alpha" maskUnits="userSpaceOnUse" x="0" y="0" width="1441" height="526">
    <path d="M0 0H1441V526H0V0Z" fill="#65A23F"></path>
  </mask>
  <g mask="url(#mask0_86_4118)">
    <path d="M0 0H1441V526H0V0Z" fill="#65A23F"></path>
    <path opacity="0.7" d="M348.262 105.244C348.308 105.244 348.308 105.314 348.262 105.314C348.216 105.314 348.216 105.244 348.262 105.244ZM360.806 105.349C360.898 105.349 360.898 105.209 360.806 105.209C360.714 105.209 360.714 105.349 360.806 105.349ZM373.35 105.418C373.534 105.418 373.534 105.14 373.35 105.14C373.166 105.14 373.166 105.418 373.35 105.418ZM385.894 105.488C386.17 105.488 386.17 105.07 385.894 105.07C385.618 105.07 385.618 105.488 385.894 105.488ZM398.439 105.523C398.761 105.523 398.761 105.035 398.439 105.035C398.116 105.035 398.116 105.523 398.439 105.523ZM410.983 105.558C411.351 105.558 411.351 105 410.983 105C410.615 105 410.615 105.558 410.983 105.558ZM423.527 105.558C423.895 105.558 423.895 105 423.527 105C423.159 105 423.159 105.558 423.527 105.558ZM436.071 105.488C436.347 105.488 436.347 105.07 436.071 105.07C435.795 105.07 435.795 105.488 436.071 105.488ZM448.615 105.453C448.845 105.453 448.845 105.105 448.615 105.105C448.385 105.105 448.385 105.453 448.615 105.453ZM461.159 105.384C461.298 105.384 461.298 105.174 461.159 105.174C461.021 105.174 461.021 105.384 461.159 105.384ZM473.703 105.314C473.75 105.314 473.75 105.244 473.703 105.244C473.658 105.244 473.658 105.314 473.703 105.314ZM323.173 117.924C323.266 117.924 323.266 117.784 323.173 117.784C323.082 117.784 323.082 117.924 323.173 117.924ZM335.718 118.063C335.994 118.063 335.994 117.645 335.718 117.645C335.442 117.645 335.442 118.063 335.718 118.063ZM348.262 118.203C348.722 118.203 348.722 117.506 348.262 117.506C347.802 117.506 347.802 118.203 348.262 118.203ZM360.806 118.342C361.45 118.342 361.45 117.366 360.806 117.366C360.162 117.366 360.162 118.342 360.806 118.342ZM373.35 118.447C374.133 118.447 374.133 117.261 373.35 117.261C372.568 117.261 372.568 118.447 373.35 118.447ZM385.894 118.517C386.769 118.517 386.769 117.192 385.894 117.192C385.02 117.192 385.02 118.517 385.894 118.517ZM398.439 118.586C399.405 118.586 399.405 117.122 398.439 117.122C397.472 117.122 397.472 118.586 398.439 118.586ZM410.983 118.586C411.949 118.586 411.949 117.122 410.983 117.122C410.016 117.122 410.016 118.586 410.983 118.586ZM423.527 118.586C424.493 118.586 424.493 117.122 423.527 117.122C422.56 117.122 422.56 118.586 423.527 118.586ZM436.071 118.552C436.991 118.552 436.991 117.157 436.071 117.157C435.151 117.157 435.151 118.552 436.071 118.552ZM448.615 118.447C449.398 118.447 449.398 117.261 448.615 117.261C447.833 117.261 447.833 118.447 448.615 118.447ZM461.159 118.342C461.804 118.342 461.804 117.366 461.159 117.366C460.515 117.366 460.515 118.342 461.159 118.342ZM473.703 118.238C474.21 118.238 474.21 117.471 473.703 117.471C473.197 117.471 473.197 118.238 473.703 118.238ZM486.248 118.063C486.524 118.063 486.524 117.645 486.248 117.645C485.972 117.645 485.972 118.063 486.248 118.063ZM498.792 117.924C498.884 117.924 498.884 117.784 498.792 117.784C498.7 117.784 498.7 117.924 498.792 117.924ZM298.085 130.464C298.131 130.464 298.131 130.395 298.085 130.395C298.039 130.395 298.039 130.464 298.085 130.464ZM310.63 130.639C310.906 130.639 310.906 130.22 310.63 130.22C310.353 130.22 310.353 130.639 310.63 130.639ZM323.173 130.848C323.726 130.848 323.726 130.011 323.173 130.011C322.621 130.011 322.621 130.848 323.173 130.848ZM335.718 131.057C336.546 131.057 336.546 129.802 335.718 129.802C334.889 129.802 334.889 131.057 335.718 131.057ZM348.262 131.231C349.32 131.231 349.32 129.627 348.262 129.627C347.203 129.627 347.203 131.231 348.262 131.231ZM360.806 131.371C362.049 131.371 362.049 129.488 360.806 129.488C359.564 129.488 359.564 131.371 360.806 131.371ZM373.35 131.476C374.731 131.476 374.731 129.383 373.35 129.383C371.969 129.383 371.969 131.476 373.35 131.476ZM385.894 131.58C387.413 131.58 387.413 129.279 385.894 129.279C384.376 129.279 384.376 131.58 385.894 131.58ZM398.439 131.615C400.003 131.615 400.003 129.244 398.439 129.244C396.874 129.244 396.874 131.615 398.439 131.615ZM410.983 131.65C412.593 131.65 412.593 129.209 410.983 129.209C409.372 129.209 409.372 131.65 410.983 131.65ZM423.527 131.615C425.092 131.615 425.092 129.244 423.527 129.244C421.962 129.244 421.962 131.615 423.527 131.615ZM436.071 131.58C437.59 131.58 437.59 129.279 436.071 129.279C434.552 129.279 434.552 131.58 436.071 131.58ZM448.615 131.51C450.042 131.51 450.042 129.348 448.615 129.348C447.189 129.348 447.189 131.51 448.615 131.51ZM461.159 131.371C462.402 131.371 462.402 129.488 461.159 129.488C459.917 129.488 459.917 131.371 461.159 131.371ZM473.703 131.231C474.762 131.231 474.762 129.627 473.703 129.627C472.645 129.627 472.645 131.231 473.703 131.231ZM486.248 131.057C487.076 131.057 487.076 129.802 486.248 129.802C485.419 129.802 485.419 131.057 486.248 131.057ZM498.792 130.883C499.39 130.883 499.39 129.976 498.792 129.976C498.193 129.976 498.193 130.883 498.792 130.883ZM511.336 130.674C511.658 130.674 511.658 130.185 511.336 130.185C511.014 130.185 511.014 130.674 511.336 130.674ZM523.88 130.499C523.972 130.499 523.972 130.36 523.88 130.36C523.788 130.36 523.788 130.499 523.88 130.499ZM285.541 143.109C285.679 143.109 285.679 142.9 285.541 142.9C285.403 142.9 285.403 143.109 285.541 143.109ZM298.085 143.353C298.546 143.353 298.546 142.656 298.085 142.656C297.625 142.656 297.625 143.353 298.085 143.353ZM310.63 143.632C311.458 143.632 311.458 142.377 310.63 142.377C309.801 142.377 309.801 143.632 310.63 143.632ZM323.173 143.841C324.278 143.841 324.278 142.168 323.173 142.168C322.069 142.168 322.069 143.841 323.173 143.841ZM335.718 144.051C337.098 144.051 337.098 141.959 335.718 141.959C334.337 141.959 334.337 144.051 335.718 144.051ZM348.262 144.26C349.919 144.26 349.919 141.749 348.262 141.749C346.605 141.749 346.605 144.26 348.262 144.26ZM360.806 144.399C362.647 144.399 362.647 141.61 360.806 141.61C358.965 141.61 358.965 144.399 360.806 144.399ZM373.35 144.539C375.375 144.539 375.375 141.47 373.35 141.47C371.325 141.47 371.325 144.539 373.35 144.539ZM385.894 144.609C388.011 144.609 388.011 141.401 385.894 141.401C383.777 141.401 383.777 144.609 385.894 144.609ZM398.439 144.678C400.647 144.678 400.647 141.331 398.439 141.331C396.229 141.331 396.229 144.678 398.439 144.678ZM410.983 144.678C413.192 144.678 413.192 141.331 410.983 141.331C408.774 141.331 408.774 144.678 410.983 144.678ZM423.527 144.678C425.736 144.678 425.736 141.331 423.527 141.331C421.318 141.331 421.318 144.678 423.527 144.678ZM436.071 144.609C438.188 144.609 438.188 141.401 436.071 141.401C433.954 141.401 433.954 144.609 436.071 144.609ZM448.615 144.539C450.64 144.539 450.64 141.47 448.615 141.47C446.59 141.47 446.59 144.539 448.615 144.539ZM461.159 144.399C463 144.399 463 141.61 461.159 141.61C459.318 141.61 459.318 144.399 461.159 144.399ZM473.703 144.26C475.36 144.26 475.36 141.749 473.703 141.749C472.047 141.749 472.047 144.26 473.703 144.26ZM486.248 144.086C487.674 144.086 487.674 141.924 486.248 141.924C484.821 141.924 484.821 144.086 486.248 144.086ZM498.792 143.876C499.942 143.876 499.942 142.133 498.792 142.133C497.641 142.133 497.641 143.876 498.792 143.876ZM511.336 143.632C512.164 143.632 512.164 142.377 511.336 142.377C510.508 142.377 510.508 143.632 511.336 143.632ZM523.88 143.388C524.386 143.388 524.386 142.621 523.88 142.621C523.374 142.621 523.374 143.388 523.88 143.388ZM536.424 143.144C536.608 143.144 536.608 142.865 536.424 142.865C536.24 142.865 536.24 143.144 536.424 143.144ZM272.997 155.719C273.181 155.719 273.181 155.44 272.997 155.44C272.813 155.44 272.813 155.719 272.997 155.719ZM285.541 156.033C286.139 156.033 286.139 155.127 285.541 155.127C284.943 155.127 284.943 156.033 285.541 156.033ZM298.085 156.312C299.052 156.312 299.052 154.848 298.085 154.848C297.119 154.848 297.119 156.312 298.085 156.312ZM310.63 156.591C311.964 156.591 311.964 154.569 310.63 154.569C309.295 154.569 309.295 156.591 310.63 156.591ZM323.173 156.835C324.83 156.835 324.83 154.325 323.173 154.325C321.517 154.325 321.517 156.835 323.173 156.835ZM335.718 157.079C337.697 157.079 337.697 154.08 335.718 154.08C333.739 154.08 333.739 157.079 335.718 157.079ZM348.262 157.254C350.471 157.254 350.471 153.906 348.262 153.906C346.053 153.906 346.053 157.254 348.262 157.254ZM360.806 157.428C363.245 157.428 363.245 153.732 360.806 153.732C358.367 153.732 358.367 157.428 360.806 157.428ZM373.35 157.567C375.973 157.567 375.973 153.592 373.35 153.592C370.727 153.592 370.727 157.567 373.35 157.567ZM385.894 157.637C388.61 157.637 388.61 153.523 385.894 153.523C383.179 153.523 383.179 157.637 385.894 157.637ZM398.439 157.707C401.246 157.707 401.246 153.453 398.439 153.453C395.631 153.453 395.631 157.707 398.439 157.707ZM410.983 157.742C413.836 157.742 413.836 153.418 410.983 153.418C408.129 153.418 408.129 157.742 410.983 157.742ZM423.527 157.707C426.334 157.707 426.334 153.453 423.527 153.453C420.719 153.453 420.719 157.707 423.527 157.707ZM436.071 157.672C438.832 157.672 438.832 153.488 436.071 153.488C433.31 153.488 433.31 157.672 436.071 157.672ZM448.615 157.567C451.239 157.567 451.239 153.592 448.615 153.592C445.992 153.592 445.992 157.567 448.615 157.567ZM461.159 157.428C463.599 157.428 463.599 153.732 461.159 153.732C458.72 153.732 458.72 157.428 461.159 157.428ZM473.703 157.289C475.958 157.289 475.958 153.871 473.703 153.871C471.448 153.871 471.448 157.289 473.703 157.289ZM486.248 157.079C488.227 157.079 488.227 154.08 486.248 154.08C484.269 154.08 484.269 157.079 486.248 157.079ZM498.792 156.87C500.495 156.87 500.495 154.29 498.792 154.29C497.089 154.29 497.089 156.87 498.792 156.87ZM511.336 156.591C512.671 156.591 512.671 154.569 511.336 154.569C510.001 154.569 510.001 156.591 511.336 156.591ZM523.88 156.347C524.893 156.347 524.893 154.813 523.88 154.813C522.868 154.813 522.868 156.347 523.88 156.347ZM536.424 156.033C537.023 156.033 537.023 155.127 536.424 155.127C535.826 155.127 535.826 156.033 536.424 156.033ZM548.969 155.754C549.199 155.754 549.199 155.405 548.969 155.405C548.738 155.405 548.738 155.754 548.969 155.754ZM260.453 168.295C260.637 168.295 260.637 168.016 260.453 168.016C260.269 168.016 260.269 168.295 260.453 168.295ZM272.997 168.608C273.595 168.608 273.595 167.702 272.997 167.702C272.399 167.702 272.399 168.608 272.997 168.608ZM285.541 168.957C286.6 168.957 286.6 167.353 285.541 167.353C284.483 167.353 284.483 168.957 285.541 168.957ZM298.085 169.271C299.558 169.271 299.558 167.039 298.085 167.039C296.612 167.039 296.612 169.271 298.085 169.271ZM310.63 169.55C312.47 169.55 312.47 166.76 310.63 166.76C308.789 166.76 308.789 169.55 310.63 169.55ZM323.173 169.794C325.337 169.794 325.337 166.516 323.173 166.516C321.011 166.516 321.011 169.794 323.173 169.794ZM335.718 170.038C338.203 170.038 338.203 166.272 335.718 166.272C333.232 166.272 333.232 170.038 335.718 170.038ZM348.262 170.247C351.023 170.247 351.023 166.063 348.262 166.063C345.501 166.063 345.501 170.247 348.262 170.247ZM360.806 170.422C363.797 170.422 363.797 165.888 360.806 165.888C357.815 165.888 357.815 170.422 360.806 170.422ZM373.35 170.561C376.526 170.561 376.526 165.749 373.35 165.749C370.175 165.749 370.175 170.561 373.35 170.561ZM385.894 170.666C389.208 170.666 389.208 165.644 385.894 165.644C382.581 165.644 382.581 170.666 385.894 170.666ZM398.439 170.736C401.844 170.736 401.844 165.575 398.439 165.575C395.033 165.575 395.033 170.736 398.439 170.736ZM410.983 170.77C414.434 170.77 414.434 165.54 410.983 165.54C407.531 165.54 407.531 170.77 410.983 170.77ZM423.527 170.736C426.932 170.736 426.932 165.575 423.527 165.575C420.121 165.575 420.121 170.736 423.527 170.736ZM436.071 170.701C439.431 170.701 439.431 165.61 436.071 165.61C432.711 165.61 432.711 170.701 436.071 170.701ZM448.615 170.596C451.837 170.596 451.837 165.714 448.615 165.714C445.394 165.714 445.394 170.596 448.615 170.596ZM461.159 170.457C464.197 170.457 464.197 165.854 461.159 165.854C458.122 165.854 458.122 170.457 461.159 170.457ZM473.703 170.282C476.511 170.282 476.511 166.028 473.703 166.028C470.896 166.028 470.896 170.282 473.703 170.282ZM486.248 170.073C488.779 170.073 488.779 166.237 486.248 166.237C483.716 166.237 483.716 170.073 486.248 170.073ZM498.792 169.829C501.001 169.829 501.001 166.481 498.792 166.481C496.583 166.481 496.583 169.829 498.792 169.829ZM511.336 169.585C513.223 169.585 513.223 166.725 511.336 166.725C509.449 166.725 509.449 169.585 511.336 169.585ZM523.88 169.271C525.353 169.271 525.353 167.039 523.88 167.039C522.408 167.039 522.408 169.271 523.88 169.271ZM536.424 168.992C537.529 168.992 537.529 167.318 536.424 167.318C535.32 167.318 535.32 168.992 536.424 168.992ZM548.969 168.643C549.613 168.643 549.613 167.667 548.969 167.667C548.324 167.667 548.324 168.643 548.969 168.643ZM561.513 168.329C561.743 168.329 561.743 167.981 561.513 167.981C561.283 167.981 561.283 168.329 561.513 168.329ZM247.909 180.835C248.047 180.835 248.047 180.626 247.909 180.626C247.771 180.626 247.771 180.835 247.909 180.835ZM260.453 181.184C261.051 181.184 261.051 180.277 260.453 180.277C259.854 180.277 259.854 181.184 260.453 181.184ZM272.997 181.532C274.055 181.532 274.055 179.928 272.997 179.928C271.938 179.928 271.938 181.532 272.997 181.532ZM285.541 181.881C287.06 181.881 287.06 179.58 285.541 179.58C284.022 179.58 284.022 181.881 285.541 181.881ZM298.085 182.195C300.018 182.195 300.018 179.266 298.085 179.266C296.153 179.266 296.153 182.195 298.085 182.195ZM310.63 182.509C312.976 182.509 312.976 178.952 310.63 178.952C308.282 178.952 308.282 182.509 310.63 182.509ZM323.173 182.788C325.889 182.788 325.889 178.673 323.173 178.673C320.458 178.673 320.458 182.788 323.173 182.788ZM335.718 183.032C338.755 183.032 338.755 178.429 335.718 178.429C332.68 178.429 332.68 183.032 335.718 183.032ZM348.262 183.241C351.575 183.241 351.575 178.22 348.262 178.22C344.949 178.22 344.949 183.241 348.262 183.241ZM360.806 183.45C364.396 183.45 364.396 178.01 360.806 178.01C357.216 178.01 357.216 183.45 360.806 183.45ZM373.35 183.59C377.124 183.59 377.124 177.871 373.35 177.871C369.576 177.871 369.576 183.59 373.35 183.59ZM385.894 183.694C389.806 183.694 389.806 177.766 385.894 177.766C381.983 177.766 381.983 183.694 385.894 183.694ZM398.439 183.764C402.443 183.764 402.443 177.697 398.439 177.697C394.435 177.697 394.435 183.764 398.439 183.764ZM410.983 183.799C415.033 183.799 415.033 177.662 410.983 177.662C406.933 177.662 406.933 183.799 410.983 183.799ZM423.527 183.764C427.531 183.764 427.531 177.697 423.527 177.697C419.523 177.697 419.523 183.764 423.527 183.764ZM436.071 183.729C440.029 183.729 440.029 177.731 436.071 177.731C432.113 177.731 432.113 183.729 436.071 183.729ZM448.615 183.59C452.389 183.59 452.389 177.871 448.615 177.871C444.841 177.871 444.841 183.59 448.615 183.59ZM461.159 183.45C464.749 183.45 464.749 178.01 461.159 178.01C457.57 178.01 457.57 183.45 461.159 183.45ZM473.703 183.276C477.063 183.276 477.063 178.185 473.703 178.185C470.344 178.185 470.344 183.276 473.703 183.276ZM486.248 183.032C489.285 183.032 489.285 178.429 486.248 178.429C483.21 178.429 483.21 183.032 486.248 183.032ZM498.792 182.788C501.507 182.788 501.507 178.673 498.792 178.673C496.076 178.673 496.076 182.788 498.792 182.788ZM511.336 182.509C513.683 182.509 513.683 178.952 511.336 178.952C508.989 178.952 508.989 182.509 511.336 182.509ZM523.88 182.23C525.859 182.23 525.859 179.231 523.88 179.231C521.901 179.231 521.901 182.23 523.88 182.23ZM536.424 181.881C537.943 181.881 537.943 179.58 536.424 179.58C534.906 179.58 534.906 181.881 536.424 181.881ZM548.969 181.567C550.073 181.567 550.073 179.893 548.969 179.893C547.864 179.893 547.864 181.567 548.969 181.567ZM561.513 181.184C562.111 181.184 562.111 180.277 561.513 180.277C560.914 180.277 560.914 181.184 561.513 181.184ZM574.057 180.87C574.241 180.87 574.241 180.591 574.057 180.591C573.873 180.591 573.873 180.87 574.057 180.87ZM235.365 193.34C235.411 193.34 235.411 193.271 235.365 193.271C235.319 193.271 235.319 193.34 235.365 193.34ZM247.909 193.654C248.369 193.654 248.369 192.957 247.909 192.957C247.448 192.957 247.448 193.654 247.909 193.654ZM260.453 194.038C261.419 194.038 261.419 192.573 260.453 192.573C259.486 192.573 259.486 194.038 260.453 194.038ZM272.997 194.421C274.47 194.421 274.47 192.19 272.997 192.19C271.524 192.19 271.524 194.421 272.997 194.421ZM285.541 194.77C287.474 194.77 287.474 191.841 285.541 191.841C283.608 191.841 283.608 194.77 285.541 194.77ZM298.085 195.119C300.479 195.119 300.479 191.492 298.085 191.492C295.692 191.492 295.692 195.119 298.085 195.119ZM310.63 195.433C313.437 195.433 313.437 191.178 310.63 191.178C307.822 191.178 307.822 195.433 310.63 195.433ZM323.173 195.712C326.349 195.712 326.349 190.9 323.173 190.9C319.998 190.9 319.998 195.712 323.173 195.712ZM335.718 195.991C339.261 195.991 339.261 190.62 335.718 190.62C332.174 190.62 332.174 195.991 335.718 195.991ZM348.262 196.235C352.128 196.235 352.128 190.376 348.262 190.376C344.396 190.376 344.396 196.235 348.262 196.235ZM360.806 196.444C364.948 196.444 364.948 190.167 360.806 190.167C356.664 190.167 356.664 196.444 360.806 196.444ZM373.35 196.618C377.722 196.618 377.722 189.993 373.35 189.993C368.978 189.993 368.978 196.618 373.35 196.618ZM385.894 196.723C390.405 196.723 390.405 189.888 385.894 189.888C381.384 189.888 381.384 196.723 385.894 196.723ZM398.439 196.793C403.041 196.793 403.041 189.818 398.439 189.818C393.836 189.818 393.836 196.793 398.439 196.793ZM410.983 196.828C415.631 196.828 415.631 189.784 410.983 189.784C406.335 189.784 406.335 196.828 410.983 196.828ZM423.527 196.828C428.175 196.828 428.175 189.784 423.527 189.784C418.879 189.784 418.879 196.828 423.527 196.828ZM436.071 196.758C440.627 196.758 440.627 189.853 436.071 189.853C431.515 189.853 431.515 196.758 436.071 196.758ZM448.615 196.618C452.987 196.618 452.987 189.993 448.615 189.993C444.243 189.993 444.243 196.618 448.615 196.618ZM461.159 196.444C465.301 196.444 465.301 190.167 461.159 190.167C457.018 190.167 457.018 196.444 461.159 196.444ZM473.703 196.235C477.569 196.235 477.569 190.376 473.703 190.376C469.838 190.376 469.838 196.235 473.703 196.235ZM486.248 196.026C489.837 196.026 489.837 190.586 486.248 190.586C482.658 190.586 482.658 196.026 486.248 196.026ZM498.792 195.746C502.013 195.746 502.013 190.865 498.792 190.865C495.57 190.865 495.57 195.746 498.792 195.746ZM511.336 195.433C514.143 195.433 514.143 191.178 511.336 191.178C508.529 191.178 508.529 195.433 511.336 195.433ZM523.88 195.119C526.273 195.119 526.273 191.492 523.88 191.492C521.487 191.492 521.487 195.119 523.88 195.119ZM536.424 194.805C538.403 194.805 538.403 191.806 536.424 191.806C534.445 191.806 534.445 194.805 536.424 194.805ZM548.969 194.456C550.487 194.456 550.487 192.155 548.969 192.155C547.45 192.155 547.45 194.456 548.969 194.456ZM561.513 194.073C562.525 194.073 562.525 192.538 561.513 192.538C560.5 192.538 560.5 194.073 561.513 194.073ZM574.057 193.689C574.563 193.689 574.563 192.922 574.057 192.922C573.55 192.922 573.55 193.689 574.057 193.689ZM586.601 193.375C586.693 193.375 586.693 193.236 586.601 193.236C586.509 193.236 586.509 193.375 586.601 193.375ZM235.365 206.09C235.64 206.09 235.64 205.672 235.365 205.672C235.088 205.672 235.088 206.09 235.365 206.09ZM247.909 206.508C248.737 206.508 248.737 205.253 247.909 205.253C247.08 205.253 247.08 206.508 247.909 206.508ZM260.453 206.892C261.787 206.892 261.787 204.87 260.453 204.87C259.118 204.87 259.118 206.892 260.453 206.892ZM272.997 207.276C274.838 207.276 274.838 204.486 272.997 204.486C271.156 204.486 271.156 207.276 272.997 207.276ZM285.541 207.659C287.888 207.659 287.888 204.102 285.541 204.102C283.194 204.102 283.194 207.659 285.541 207.659ZM298.085 208.008C300.893 208.008 300.893 203.754 298.085 203.754C295.278 203.754 295.278 208.008 298.085 208.008ZM310.63 208.357C313.897 208.357 313.897 203.405 310.63 203.405C307.362 203.405 307.362 208.357 310.63 208.357ZM323.173 208.67C326.855 208.67 326.855 203.091 323.173 203.091C319.492 203.091 319.492 208.67 323.173 208.67ZM335.718 208.949C339.768 208.949 339.768 202.812 335.718 202.812C331.668 202.812 331.668 208.949 335.718 208.949ZM348.262 209.194C352.634 209.194 352.634 202.568 348.262 202.568C343.89 202.568 343.89 209.194 348.262 209.194ZM360.806 209.438C365.5 209.438 365.5 202.324 360.806 202.324C356.112 202.324 356.112 209.438 360.806 209.438ZM373.35 209.612C378.274 209.612 378.274 202.15 373.35 202.15C368.426 202.15 368.426 209.612 373.35 209.612ZM385.894 209.751C391.003 209.751 391.003 202.01 385.894 202.01C380.786 202.01 380.786 209.751 385.894 209.751ZM398.439 209.856C403.685 209.856 403.685 201.906 398.439 201.906C393.192 201.906 393.192 209.856 398.439 209.856ZM410.983 209.891C416.275 209.891 416.275 201.871 410.983 201.871C405.69 201.871 405.69 209.891 410.983 209.891ZM423.527 209.856C428.773 209.856 428.773 201.906 423.527 201.906C418.28 201.906 418.28 209.856 423.527 209.856ZM436.071 209.751C441.18 209.751 441.18 202.01 436.071 202.01C430.963 202.01 430.963 209.751 436.071 209.751ZM448.615 209.647C453.585 209.647 453.585 202.115 448.615 202.115C443.645 202.115 443.645 209.647 448.615 209.647ZM461.159 209.438C465.854 209.438 465.854 202.324 461.159 202.324C456.465 202.324 456.465 209.438 461.159 209.438ZM473.703 209.228C478.122 209.228 478.122 202.533 473.703 202.533C469.285 202.533 469.285 209.228 473.703 209.228ZM486.248 208.949C490.298 208.949 490.298 202.812 486.248 202.812C482.198 202.812 482.198 208.949 486.248 208.949ZM498.792 208.67C502.474 208.67 502.474 203.091 498.792 203.091C495.11 203.091 495.11 208.67 498.792 208.67ZM511.336 208.357C514.603 208.357 514.603 203.405 511.336 203.405C508.069 203.405 508.069 208.357 511.336 208.357ZM523.88 208.043C526.734 208.043 526.734 203.719 523.88 203.719C521.027 203.719 521.027 208.043 523.88 208.043ZM536.424 207.659C538.772 207.659 538.772 204.102 536.424 204.102C534.077 204.102 534.077 207.659 536.424 207.659ZM548.969 207.31C550.856 207.31 550.856 204.451 548.969 204.451C547.082 204.451 547.082 207.31 548.969 207.31ZM561.513 206.927C562.893 206.927 562.893 204.835 561.513 204.835C560.132 204.835 560.132 206.927 561.513 206.927ZM574.057 206.508C574.885 206.508 574.885 205.253 574.057 205.253C573.229 205.253 573.229 206.508 574.057 206.508ZM586.601 206.125C586.923 206.125 586.923 205.637 586.601 205.637C586.279 205.637 586.279 206.125 586.601 206.125ZM222.82 218.526C222.912 218.526 222.912 218.386 222.82 218.386C222.728 218.386 222.728 218.526 222.82 218.526ZM235.365 218.874C235.917 218.874 235.917 218.038 235.365 218.038C234.812 218.038 234.812 218.874 235.365 218.874ZM247.909 219.293C249.013 219.293 249.013 217.619 247.909 217.619C246.804 217.619 246.804 219.293 247.909 219.293ZM260.453 219.711C262.11 219.711 262.11 217.201 260.453 217.201C258.796 217.201 258.796 219.711 260.453 219.711ZM272.997 220.095C275.16 220.095 275.16 216.817 272.997 216.817C270.834 216.817 270.834 220.095 272.997 220.095ZM285.541 220.513C288.256 220.513 288.256 216.399 285.541 216.399C282.826 216.399 282.826 220.513 285.541 220.513ZM298.085 220.862C301.261 220.862 301.261 216.05 298.085 216.05C294.91 216.05 294.91 220.862 298.085 220.862ZM310.63 221.246C314.311 221.246 314.311 215.666 310.63 215.666C306.948 215.666 306.948 221.246 310.63 221.246ZM323.173 221.56C327.27 221.56 327.27 215.353 323.173 215.353C319.078 215.353 319.078 221.56 323.173 221.56ZM335.718 221.873C340.228 221.873 340.228 215.039 335.718 215.039C331.207 215.039 331.207 221.873 335.718 221.873ZM348.262 222.152C353.14 222.152 353.14 214.76 348.262 214.76C343.384 214.76 343.384 222.152 348.262 222.152ZM360.806 222.431C366.052 222.431 366.052 214.481 360.806 214.481C355.56 214.481 355.56 222.431 360.806 222.431ZM373.35 222.64C378.873 222.64 378.873 214.271 373.35 214.271C367.828 214.271 367.828 222.64 373.35 222.64ZM385.894 222.78C391.601 222.78 391.601 214.132 385.894 214.132C380.188 214.132 380.188 222.78 385.894 222.78ZM398.439 222.885C404.283 222.885 404.283 214.027 398.439 214.027C392.594 214.027 392.594 222.885 398.439 222.885ZM410.983 222.919C416.873 222.919 416.873 213.993 410.983 213.993C405.092 213.993 405.092 222.919 410.983 222.919ZM423.527 222.885C429.372 222.885 429.372 214.027 423.527 214.027C417.682 214.027 417.682 222.885 423.527 222.885ZM436.071 222.78C441.778 222.78 441.778 214.132 436.071 214.132C430.364 214.132 430.364 222.78 436.071 222.78ZM448.615 222.64C454.138 222.64 454.138 214.271 448.615 214.271C443.093 214.271 443.093 222.64 448.615 222.64ZM461.159 222.431C466.406 222.431 466.406 214.481 461.159 214.481C455.913 214.481 455.913 222.431 461.159 222.431ZM473.703 222.187C478.628 222.187 478.628 214.725 473.703 214.725C468.779 214.725 468.779 222.187 473.703 222.187ZM486.248 221.908C490.804 221.908 490.804 215.004 486.248 215.004C481.692 215.004 481.692 221.908 486.248 221.908ZM498.792 221.594C502.934 221.594 502.934 215.318 498.792 215.318C494.65 215.318 494.65 221.594 498.792 221.594ZM511.336 221.246C515.018 221.246 515.018 215.666 511.336 215.666C507.654 215.666 507.654 221.246 511.336 221.246ZM523.88 220.897C527.102 220.897 527.102 216.015 523.88 216.015C520.659 216.015 520.659 220.897 523.88 220.897ZM536.424 220.548C539.186 220.548 539.186 216.364 536.424 216.364C533.663 216.364 533.663 220.548 536.424 220.548ZM548.969 220.13C551.177 220.13 551.177 216.782 548.969 216.782C546.759 216.782 546.759 220.13 548.969 220.13ZM561.513 219.746C563.215 219.746 563.215 217.166 561.513 217.166C559.81 217.166 559.81 219.746 561.513 219.746ZM574.057 219.328C575.207 219.328 575.207 217.584 574.057 217.584C572.906 217.584 572.906 219.328 574.057 219.328ZM586.601 218.909C587.199 218.909 587.199 218.003 586.601 218.003C586.003 218.003 586.003 218.909 586.601 218.909ZM599.145 218.526C599.237 218.526 599.237 218.386 599.145 218.386C599.053 218.386 599.053 218.526 599.145 218.526ZM222.82 231.24C223.097 231.24 223.097 230.822 222.82 230.822C222.544 230.822 222.544 231.24 222.82 231.24ZM235.365 231.659C236.193 231.659 236.193 230.404 235.365 230.404C234.536 230.404 234.536 231.659 235.365 231.659ZM247.909 232.077C249.289 232.077 249.289 229.985 247.909 229.985C246.528 229.985 246.528 232.077 247.909 232.077ZM260.453 232.531C262.432 232.531 262.432 229.532 260.453 229.532C258.474 229.532 258.474 232.531 260.453 232.531ZM272.997 232.914C275.482 232.914 275.482 229.148 272.997 229.148C270.512 229.148 270.512 232.914 272.997 232.914ZM285.541 233.333C288.578 233.333 288.578 228.73 285.541 228.73C282.504 228.73 282.504 233.333 285.541 233.333ZM298.085 233.716C301.629 233.716 301.629 228.346 298.085 228.346C294.542 228.346 294.542 233.716 298.085 233.716ZM310.63 234.1C314.679 234.1 314.679 227.963 310.63 227.963C306.58 227.963 306.58 234.1 310.63 234.1ZM323.173 234.449C327.684 234.449 327.684 227.614 323.173 227.614C318.664 227.614 318.664 234.449 323.173 234.449ZM335.718 234.797C340.688 234.797 340.688 227.265 335.718 227.265C330.748 227.265 330.748 234.797 335.718 234.797ZM348.262 235.111C353.647 235.111 353.647 226.951 348.262 226.951C342.877 226.951 342.877 235.111 348.262 235.111ZM360.806 235.39C366.559 235.39 366.559 226.672 360.806 226.672C355.053 226.672 355.053 235.39 360.806 235.39ZM373.35 235.634C379.425 235.634 379.425 226.428 373.35 226.428C367.275 226.428 367.275 235.634 373.35 235.634ZM385.894 235.809C392.199 235.809 392.199 226.254 385.894 226.254C379.589 226.254 379.589 235.809 385.894 235.809ZM398.439 235.913C404.882 235.913 404.882 226.149 398.439 226.149C391.995 226.149 391.995 235.913 398.439 235.913ZM410.983 235.948C417.472 235.948 417.472 226.115 410.983 226.115C404.494 226.115 404.494 235.948 410.983 235.948ZM423.527 235.913C429.97 235.913 429.97 226.149 423.527 226.149C417.084 226.149 417.084 235.913 423.527 235.913ZM436.071 235.809C442.376 235.809 442.376 226.254 436.071 226.254C429.766 226.254 429.766 235.809 436.071 235.809ZM448.615 235.634C454.69 235.634 454.69 226.428 448.615 226.428C442.54 226.428 442.54 235.634 448.615 235.634ZM461.159 235.425C466.958 235.425 466.958 226.637 461.159 226.637C455.361 226.637 455.361 235.425 461.159 235.425ZM473.703 235.146C479.134 235.146 479.134 226.917 473.703 226.917C468.273 226.917 468.273 235.146 473.703 235.146ZM486.248 234.832C491.264 234.832 491.264 227.23 486.248 227.23C481.231 227.23 481.231 234.832 486.248 234.832ZM498.792 234.483C503.348 234.483 503.348 227.579 498.792 227.579C494.236 227.579 494.236 234.483 498.792 234.483ZM511.336 234.135C515.432 234.135 515.432 227.928 511.336 227.928C507.24 227.928 507.24 234.135 511.336 234.135ZM523.88 233.751C527.47 233.751 527.47 228.311 523.88 228.311C520.291 228.311 520.291 233.751 523.88 233.751ZM536.424 233.368C539.508 233.368 539.508 228.695 536.424 228.695C533.341 228.695 533.341 233.368 536.424 233.368ZM548.969 232.949C551.5 232.949 551.5 229.113 548.969 229.113C546.437 229.113 546.437 232.949 548.969 232.949ZM561.513 232.531C563.491 232.531 563.491 229.532 561.513 229.532C559.534 229.532 559.534 232.531 561.513 232.531ZM574.057 232.112C575.484 232.112 575.484 229.95 574.057 229.95C572.63 229.95 572.63 232.112 574.057 232.112ZM586.601 231.694C587.475 231.694 587.475 230.369 586.601 230.369C585.727 230.369 585.727 231.694 586.601 231.694ZM599.145 231.275C599.467 231.275 599.467 230.787 599.145 230.787C598.823 230.787 598.823 231.275 599.145 231.275ZM210.276 243.641C210.322 243.641 210.322 243.572 210.276 243.572C210.23 243.572 210.23 243.641 210.276 243.641ZM222.82 243.955C223.281 243.955 223.281 243.258 222.82 243.258C222.36 243.258 222.36 243.955 222.82 243.955ZM235.365 244.409C236.423 244.409 236.423 242.804 235.365 242.804C234.306 242.804 234.306 244.409 235.365 244.409ZM247.909 244.862C249.565 244.862 249.565 242.351 247.909 242.351C246.252 242.351 246.252 244.862 247.909 244.862ZM260.453 245.28C262.662 245.28 262.662 241.933 260.453 241.933C258.244 241.933 258.244 245.28 260.453 245.28ZM272.997 245.699C275.758 245.699 275.758 241.514 272.997 241.514C270.236 241.514 270.236 245.699 272.997 245.699ZM285.541 246.117C288.855 246.117 288.855 241.096 285.541 241.096C282.228 241.096 282.228 246.117 285.541 246.117ZM298.085 246.536C301.951 246.536 301.951 240.677 298.085 240.677C294.219 240.677 294.219 246.536 298.085 246.536ZM310.63 246.919C315.001 246.919 315.001 240.294 310.63 240.294C306.257 240.294 306.257 246.919 310.63 246.919ZM323.173 247.303C328.052 247.303 328.052 239.91 323.173 239.91C318.295 239.91 318.295 247.303 323.173 247.303ZM335.718 247.686C341.102 247.686 341.102 239.527 335.718 239.527C330.333 239.527 330.333 247.686 335.718 247.686ZM348.262 248.035C354.107 248.035 354.107 239.178 348.262 239.178C342.417 239.178 342.417 248.035 348.262 248.035ZM360.806 248.349C367.065 248.349 367.065 238.864 360.806 238.864C354.547 238.864 354.547 248.349 360.806 248.349ZM373.35 248.628C379.977 248.628 379.977 238.585 373.35 238.585C366.723 238.585 366.723 248.628 373.35 248.628ZM385.894 248.837C392.798 248.837 392.798 238.376 385.894 238.376C378.991 238.376 378.991 248.837 385.894 248.837ZM398.439 248.977C405.526 248.977 405.526 238.236 398.439 238.236C391.351 238.236 391.351 248.977 398.439 248.977ZM410.983 249.011C418.116 249.011 418.116 238.201 410.983 238.201C403.849 238.201 403.849 249.011 410.983 249.011ZM423.527 248.977C430.614 248.977 430.614 238.236 423.527 238.236C416.439 238.236 416.439 248.977 423.527 248.977ZM436.071 248.837C442.974 248.837 442.974 238.376 436.071 238.376C429.168 238.376 429.168 248.837 436.071 248.837ZM448.615 248.628C455.242 248.628 455.242 238.585 448.615 238.585C441.988 238.585 441.988 248.628 448.615 248.628ZM461.159 248.384C467.465 248.384 467.465 238.829 461.159 238.829C454.855 238.829 454.855 248.384 461.159 248.384ZM473.703 248.07C479.594 248.07 479.594 239.143 473.703 239.143C467.813 239.143 467.813 248.07 473.703 248.07ZM486.248 247.721C491.678 247.721 491.678 239.492 486.248 239.492C480.817 239.492 480.817 247.721 486.248 247.721ZM498.792 247.338C503.716 247.338 503.716 239.875 498.792 239.875C493.868 239.875 493.868 247.338 498.792 247.338ZM511.336 246.954C515.754 246.954 515.754 240.259 511.336 240.259C506.918 240.259 506.918 246.954 511.336 246.954ZM523.88 246.571C527.792 246.571 527.792 240.643 523.88 240.643C519.968 240.643 519.968 246.571 523.88 246.571ZM536.424 246.152C539.784 246.152 539.784 241.061 536.424 241.061C533.065 241.061 533.065 246.152 536.424 246.152ZM548.969 245.734C551.776 245.734 551.776 241.479 548.969 241.479C546.161 241.479 546.161 245.734 548.969 245.734ZM561.513 245.315C563.768 245.315 563.768 241.898 561.513 241.898C559.258 241.898 559.258 245.315 561.513 245.315ZM574.057 244.897C575.76 244.897 575.76 242.316 574.057 242.316C572.354 242.316 572.354 244.897 574.057 244.897ZM586.601 244.443C587.706 244.443 587.706 242.77 586.601 242.77C585.496 242.77 585.496 244.443 586.601 244.443ZM599.145 243.99C599.651 243.99 599.651 243.223 599.145 243.223C598.639 243.223 598.639 243.99 599.145 243.99ZM611.689 243.641C611.735 243.641 611.735 243.572 611.689 243.572C611.643 243.572 611.643 243.641 611.689 243.641ZM210.276 256.251C210.368 256.251 210.368 256.112 210.276 256.112C210.184 256.112 210.184 256.251 210.276 256.251ZM222.82 256.67C223.465 256.67 223.465 255.693 222.82 255.693C222.176 255.693 222.176 256.67 222.82 256.67ZM235.365 257.123C236.607 257.123 236.607 255.24 235.365 255.24C234.122 255.24 234.122 257.123 235.365 257.123ZM247.909 257.577C249.75 257.577 249.75 254.787 247.909 254.787C246.068 254.787 246.068 257.577 247.909 257.577ZM260.453 258.03C262.892 258.03 262.892 254.334 260.453 254.334C258.013 254.334 258.013 258.03 260.453 258.03ZM272.997 258.448C275.988 258.448 275.988 253.915 272.997 253.915C270.006 253.915 270.006 258.448 272.997 258.448ZM285.541 258.902C289.131 258.902 289.131 253.462 285.541 253.462C281.952 253.462 281.952 258.902 285.541 258.902ZM298.085 259.32C302.227 259.32 302.227 253.043 298.085 253.043C293.943 253.043 293.943 259.32 298.085 259.32ZM310.63 259.739C315.324 259.739 315.324 252.625 310.63 252.625C305.935 252.625 305.935 259.739 310.63 259.739ZM323.173 260.157C328.42 260.157 328.42 252.206 323.173 252.206C317.927 252.206 317.927 260.157 323.173 260.157ZM335.718 260.541C341.471 260.541 341.471 251.823 335.718 251.823C329.965 251.823 329.965 260.541 335.718 260.541ZM348.262 260.924C354.521 260.924 354.521 251.439 348.262 251.439C342.003 251.439 342.003 260.924 348.262 260.924ZM360.806 261.273C367.525 261.273 367.525 251.09 360.806 251.09C354.087 251.09 354.087 261.273 360.806 261.273ZM373.35 261.587C380.484 261.587 380.484 250.777 373.35 250.777C366.217 250.777 366.217 261.587 373.35 261.587ZM385.894 261.831C393.35 261.831 393.35 250.533 385.894 250.533C378.439 250.533 378.439 261.831 385.894 261.831ZM398.439 262.005C406.124 262.005 406.124 250.358 398.439 250.358C390.753 250.358 390.753 262.005 398.439 262.005ZM410.983 262.075C418.76 262.075 418.76 250.288 410.983 250.288C403.205 250.288 403.205 262.075 410.983 262.075ZM423.527 262.005C431.212 262.005 431.212 250.358 423.527 250.358C415.841 250.358 415.841 262.005 423.527 262.005ZM436.071 261.831C443.526 261.831 443.526 250.533 436.071 250.533C428.616 250.533 428.616 261.831 436.071 261.831ZM448.615 261.587C455.748 261.587 455.748 250.777 448.615 250.777C441.482 250.777 441.482 261.587 448.615 261.587ZM461.159 261.308C467.924 261.308 467.924 251.056 461.159 251.056C454.394 251.056 454.394 261.308 461.159 261.308ZM473.703 260.959C480.008 260.959 480.008 251.404 473.703 251.404C467.398 251.404 467.398 260.959 473.703 260.959ZM486.248 260.575C492.046 260.575 492.046 251.788 486.248 251.788C480.449 251.788 480.449 260.575 486.248 260.575ZM498.792 260.192C504.084 260.192 504.084 252.172 498.792 252.172C493.499 252.172 493.499 260.192 498.792 260.192ZM511.336 259.773C516.076 259.773 516.076 252.59 511.336 252.59C506.596 252.59 506.596 259.773 511.336 259.773ZM523.88 259.355C528.068 259.355 528.068 253.008 523.88 253.008C519.692 253.008 519.692 259.355 523.88 259.355ZM536.424 258.937C540.06 258.937 540.06 253.427 536.424 253.427C532.788 253.427 532.788 258.937 536.424 258.937ZM548.969 258.483C552.006 258.483 552.006 253.88 548.969 253.88C545.931 253.88 545.931 258.483 548.969 258.483ZM561.513 258.065C563.998 258.065 563.998 254.299 561.513 254.299C559.027 254.299 559.027 258.065 561.513 258.065ZM574.057 257.611C575.944 257.611 575.944 254.752 574.057 254.752C572.17 254.752 572.17 257.611 574.057 257.611ZM586.601 257.158C587.89 257.158 587.89 255.205 586.601 255.205C585.312 255.205 585.312 257.158 586.601 257.158ZM599.145 256.705C599.835 256.705 599.835 255.659 599.145 255.659C598.455 255.659 598.455 256.705 599.145 256.705ZM611.689 256.286C611.827 256.286 611.827 256.077 611.689 256.077C611.551 256.077 611.551 256.286 611.689 256.286ZM210.276 268.896C210.46 268.896 210.46 268.617 210.276 268.617C210.092 268.617 210.092 268.896 210.276 268.896ZM222.82 269.35C223.603 269.35 223.603 268.164 222.82 268.164C222.038 268.164 222.038 269.35 222.82 269.35ZM235.365 269.803C236.745 269.803 236.745 267.711 235.365 267.711C233.984 267.711 233.984 269.803 235.365 269.803ZM247.909 270.291C249.934 270.291 249.934 267.223 247.909 267.223C245.884 267.223 245.884 270.291 247.909 270.291ZM260.453 270.744C263.076 270.744 263.076 266.769 260.453 266.769C257.83 266.769 257.83 270.744 260.453 270.744ZM272.997 271.163C276.173 271.163 276.173 266.351 272.997 266.351C269.821 266.351 269.821 271.163 272.997 271.163ZM285.541 271.616C289.315 271.616 289.315 265.898 285.541 265.898C281.767 265.898 281.767 271.616 285.541 271.616ZM298.085 272.07C302.457 272.07 302.457 265.444 298.085 265.444C293.713 265.444 293.713 272.07 298.085 272.07ZM310.63 272.488C315.554 272.488 315.554 265.026 310.63 265.026C305.705 265.026 305.705 272.488 310.63 272.488ZM323.173 272.941C328.696 272.941 328.696 264.572 323.173 264.572C317.651 264.572 317.651 272.941 323.173 272.941ZM335.718 273.36C341.793 273.36 341.793 264.154 335.718 264.154C329.643 264.154 329.643 273.36 335.718 273.36ZM348.262 273.778C354.889 273.778 354.889 263.736 348.262 263.736C341.635 263.736 341.635 273.778 348.262 273.778ZM360.806 274.162C367.939 274.162 367.939 263.352 360.806 263.352C353.673 263.352 353.673 274.162 360.806 274.162ZM373.35 274.511C380.944 274.511 380.944 263.003 373.35 263.003C365.757 263.003 365.757 274.511 373.35 274.511ZM385.894 274.824C393.902 274.824 393.902 262.689 385.894 262.689C377.887 262.689 377.887 274.824 385.894 274.824ZM398.439 274.999C406.676 274.999 406.676 262.515 398.439 262.515C390.201 262.515 390.201 274.999 398.439 274.999ZM410.983 275.103C419.359 275.103 419.359 262.41 410.983 262.41C402.607 262.41 402.607 275.103 410.983 275.103ZM423.527 275.034C431.811 275.034 431.811 262.48 423.527 262.48C415.243 262.48 415.243 275.034 423.527 275.034ZM436.071 274.824C444.079 274.824 444.079 262.689 436.071 262.689C428.063 262.689 428.063 274.824 436.071 274.824ZM448.615 274.545C456.255 274.545 456.255 262.968 448.615 262.968C440.976 262.968 440.976 274.545 448.615 274.545ZM461.159 274.197C468.339 274.197 468.339 263.317 461.159 263.317C453.98 263.317 453.98 274.197 461.159 274.197ZM473.703 273.778C480.331 273.778 480.331 263.736 473.703 263.736C467.076 263.736 467.076 273.778 473.703 273.778ZM486.248 273.395C492.369 273.395 492.369 264.119 486.248 264.119C480.127 264.119 480.127 273.395 486.248 273.395ZM498.792 272.976C504.36 272.976 504.36 264.538 498.792 264.538C493.223 264.538 493.223 272.976 498.792 272.976ZM511.336 272.523C516.306 272.523 516.306 264.991 511.336 264.991C506.366 264.991 506.366 272.523 511.336 272.523ZM523.88 272.104C528.298 272.104 528.298 265.409 523.88 265.409C519.462 265.409 519.462 272.104 523.88 272.104ZM536.424 271.651C540.244 271.651 540.244 265.863 536.424 265.863C532.605 265.863 532.605 271.651 536.424 271.651ZM548.969 271.198C552.19 271.198 552.19 266.316 548.969 266.316C545.747 266.316 545.747 271.198 548.969 271.198ZM561.513 270.779C564.182 270.779 564.182 266.734 561.513 266.734C558.843 266.734 558.843 270.779 561.513 270.779ZM574.057 270.326C576.128 270.326 576.128 267.188 574.057 267.188C571.986 267.188 571.986 270.326 574.057 270.326ZM586.601 269.838C588.027 269.838 588.027 267.676 586.601 267.676C585.174 267.676 585.174 269.838 586.601 269.838ZM599.145 269.385C599.973 269.385 599.973 268.129 599.145 268.129C598.317 268.129 598.317 269.385 599.145 269.385ZM611.689 268.931C611.919 268.931 611.919 268.583 611.689 268.583C611.459 268.583 611.459 268.931 611.689 268.931ZM210.276 281.541C210.552 281.541 210.552 281.123 210.276 281.123C210 281.123 210 281.541 210.276 281.541ZM222.82 281.995C223.695 281.995 223.695 280.67 222.82 280.67C221.946 280.67 221.946 281.995 222.82 281.995ZM235.365 282.483C236.883 282.483 236.883 280.181 235.365 280.181C233.846 280.181 233.846 282.483 235.365 282.483ZM247.909 282.936C250.026 282.936 250.026 279.728 247.909 279.728C245.792 279.728 245.792 282.936 247.909 282.936ZM260.453 283.39C263.168 283.39 263.168 279.275 260.453 279.275C257.737 279.275 257.737 283.39 260.453 283.39ZM272.997 283.843C276.311 283.843 276.311 278.822 272.997 278.822C269.683 278.822 269.683 283.843 272.997 283.843ZM285.541 284.296C289.453 284.296 289.453 278.368 285.541 278.368C281.629 278.368 281.629 284.296 285.541 284.296ZM298.085 284.75C302.596 284.75 302.596 277.915 298.085 277.915C293.575 277.915 293.575 284.75 298.085 284.75ZM310.63 285.203C315.738 285.203 315.738 277.462 310.63 277.462C305.521 277.462 305.521 285.203 310.63 285.203ZM323.173 285.656C328.88 285.656 328.88 277.008 323.173 277.008C317.467 277.008 317.467 285.656 323.173 285.656ZM335.718 286.109C342.023 286.109 342.023 276.555 335.718 276.555C329.413 276.555 329.413 286.109 335.718 286.109ZM348.262 286.563C355.165 286.563 355.165 276.102 348.262 276.102C341.359 276.102 341.359 286.563 348.262 286.563ZM360.806 286.981C368.262 286.981 368.262 275.683 360.806 275.683C353.351 275.683 353.351 286.981 360.806 286.981ZM373.35 287.4C381.358 287.4 381.358 275.265 373.35 275.265C365.342 275.265 365.342 287.4 373.35 287.4ZM385.894 287.748C394.362 287.748 394.362 274.916 385.894 274.916C377.426 274.916 377.426 287.748 385.894 287.748ZM398.439 288.027C407.275 288.027 407.275 274.637 398.439 274.637C389.602 274.637 389.602 288.027 398.439 288.027ZM410.983 288.132C419.957 288.132 419.957 274.532 410.983 274.532C402.008 274.532 402.008 288.132 410.983 288.132ZM423.527 288.027C432.363 288.027 432.363 274.637 423.527 274.637C414.691 274.637 414.691 288.027 423.527 288.027ZM436.071 287.783C444.585 287.783 444.585 274.881 436.071 274.881C427.557 274.881 427.557 287.783 436.071 287.783ZM448.615 287.4C456.623 287.4 456.623 275.265 448.615 275.265C440.607 275.265 440.607 287.4 448.615 287.4ZM461.159 287.016C468.661 287.016 468.661 275.648 461.159 275.648C453.658 275.648 453.658 287.016 461.159 287.016ZM473.703 286.598C480.653 286.598 480.653 276.067 473.703 276.067C466.754 276.067 466.754 286.598 473.703 286.598ZM486.248 286.144C492.599 286.144 492.599 276.52 486.248 276.52C479.897 276.52 479.897 286.144 486.248 286.144ZM498.792 285.691C504.544 285.691 504.544 276.973 498.792 276.973C493.039 276.973 493.039 285.691 498.792 285.691ZM511.336 285.238C516.49 285.238 516.49 277.427 511.336 277.427C506.182 277.427 506.182 285.238 511.336 285.238ZM523.88 284.784C528.436 284.784 528.436 277.88 523.88 277.88C519.324 277.88 519.324 284.784 523.88 284.784ZM536.424 284.331C540.382 284.331 540.382 278.333 536.424 278.333C532.467 278.333 532.467 284.331 536.424 284.331ZM548.969 283.878C552.328 283.878 552.328 278.787 548.969 278.787C545.609 278.787 545.609 283.878 548.969 283.878ZM561.513 283.424C564.274 283.424 564.274 279.24 561.513 279.24C558.751 279.24 558.751 283.424 561.513 283.424ZM574.057 282.971C576.22 282.971 576.22 279.693 574.057 279.693C571.894 279.693 571.894 282.971 574.057 282.971ZM586.601 282.518C588.166 282.518 588.166 280.146 586.601 280.146C585.036 280.146 585.036 282.518 586.601 282.518ZM599.145 282.03C600.065 282.03 600.065 280.635 599.145 280.635C598.225 280.635 598.225 282.03 599.145 282.03ZM611.689 281.576C612.012 281.576 612.012 281.088 611.689 281.088C611.367 281.088 611.367 281.576 611.689 281.576ZM210.276 294.152C210.598 294.152 210.598 293.663 210.276 293.663C209.954 293.663 209.954 294.152 210.276 294.152ZM222.82 294.64C223.787 294.64 223.787 293.175 222.82 293.175C221.854 293.175 221.854 294.64 222.82 294.64ZM235.365 295.093C236.929 295.093 236.929 292.722 235.365 292.722C233.8 292.722 233.8 295.093 235.365 295.093ZM247.909 295.581C250.118 295.581 250.118 292.233 247.909 292.233C245.699 292.233 245.699 295.581 247.909 295.581ZM260.453 296.034C263.26 296.034 263.26 291.78 260.453 291.78C257.645 291.78 257.645 296.034 260.453 296.034ZM272.997 296.488C276.402 296.488 276.402 291.327 272.997 291.327C269.591 291.327 269.591 296.488 272.997 296.488ZM285.541 296.941C289.545 296.941 289.545 290.874 285.541 290.874C281.537 290.874 281.537 296.941 285.541 296.941ZM298.085 297.394C302.687 297.394 302.687 290.42 298.085 290.42C293.483 290.42 293.483 297.394 298.085 297.394ZM310.63 297.883C315.876 297.883 315.876 289.932 310.63 289.932C305.383 289.932 305.383 297.883 310.63 297.883ZM323.173 298.336C329.018 298.336 329.018 289.479 323.173 289.479C317.329 289.479 317.329 298.336 323.173 298.336ZM335.718 298.789C342.161 298.789 342.161 289.025 335.718 289.025C329.275 289.025 329.275 298.789 335.718 298.789ZM348.262 299.278C355.349 299.278 355.349 288.537 348.262 288.537C341.175 288.537 341.175 299.278 348.262 299.278ZM360.806 299.731C368.492 299.731 368.492 288.084 360.806 288.084C353.12 288.084 353.12 299.731 360.806 299.731ZM373.35 300.149C381.588 300.149 381.588 287.666 373.35 287.666C365.112 287.666 365.112 300.149 373.35 300.149ZM385.894 300.603C394.73 300.603 394.73 287.212 385.894 287.212C377.058 287.212 377.058 300.603 385.894 300.603ZM398.439 300.986C407.781 300.986 407.781 286.829 398.439 286.829C389.096 286.829 389.096 300.986 398.439 300.986ZM410.983 301.16C420.555 301.16 420.555 286.654 410.983 286.654C401.41 286.654 401.41 301.16 410.983 301.16ZM423.527 301.021C432.915 301.021 432.915 286.794 423.527 286.794C414.138 286.794 414.138 301.021 423.527 301.021ZM436.071 300.637C444.953 300.637 444.953 287.177 436.071 287.177C427.189 287.177 427.189 300.637 436.071 300.637ZM448.615 300.184C456.899 300.184 456.899 287.631 448.615 287.631C440.331 287.631 440.331 300.184 448.615 300.184ZM461.159 299.766C468.891 299.766 468.891 288.049 461.159 288.049C453.428 288.049 453.428 299.766 461.159 299.766ZM473.703 299.312C480.837 299.312 480.837 288.502 473.703 288.502C466.57 288.502 466.57 299.312 473.703 299.312ZM486.248 298.824C492.737 298.824 492.737 288.991 486.248 288.991C479.759 288.991 479.759 298.824 486.248 298.824ZM498.792 298.371C504.683 298.371 504.683 289.444 498.792 289.444C492.901 289.444 492.901 298.371 498.792 298.371ZM511.336 297.918C516.629 297.918 516.629 289.897 511.336 289.897C506.044 289.897 506.044 297.918 511.336 297.918ZM523.88 297.429C528.528 297.429 528.528 290.385 523.88 290.385C519.232 290.385 519.232 297.429 523.88 297.429ZM536.424 296.976C540.474 296.976 540.474 290.839 536.424 290.839C532.374 290.839 532.374 296.976 536.424 296.976ZM548.969 296.523C552.42 296.523 552.42 291.292 548.969 291.292C545.517 291.292 545.517 296.523 548.969 296.523ZM561.513 296.069C564.366 296.069 564.366 291.745 561.513 291.745C558.659 291.745 558.659 296.069 561.513 296.069ZM574.057 295.616C576.312 295.616 576.312 292.199 574.057 292.199C571.802 292.199 571.802 295.616 574.057 295.616ZM586.601 295.128C588.212 295.128 588.212 292.687 586.601 292.687C584.99 292.687 584.99 295.128 586.601 295.128ZM599.145 294.675C600.158 294.675 600.158 293.14 599.145 293.14C598.133 293.14 598.133 294.675 599.145 294.675ZM611.689 294.186C612.057 294.186 612.057 293.628 611.689 293.628C611.321 293.628 611.321 294.186 611.689 294.186ZM210.276 306.761C210.644 306.761 210.644 306.204 210.276 306.204C209.908 306.204 209.908 306.761 210.276 306.761ZM222.82 307.215C223.787 307.215 223.787 305.75 222.82 305.75C221.854 305.75 221.854 307.215 222.82 307.215ZM235.365 307.703C236.975 307.703 236.975 305.262 235.365 305.262C233.754 305.262 233.754 307.703 235.365 307.703ZM247.909 308.156C250.118 308.156 250.118 304.809 247.909 304.809C245.699 304.809 245.699 308.156 247.909 308.156ZM260.453 308.645C263.306 308.645 263.306 304.321 260.453 304.321C257.599 304.321 257.599 308.645 260.453 308.645ZM272.997 309.098C276.449 309.098 276.449 303.867 272.997 303.867C269.545 303.867 269.545 309.098 272.997 309.098ZM285.541 309.551C289.591 309.551 289.591 303.414 285.541 303.414C281.491 303.414 281.491 309.551 285.541 309.551ZM298.085 310.005C302.734 310.005 302.734 302.961 298.085 302.961C293.437 302.961 293.437 310.005 298.085 310.005ZM310.63 310.493C315.922 310.493 315.922 302.472 310.63 302.472C305.337 302.472 305.337 310.493 310.63 310.493ZM323.173 310.946C329.064 310.946 329.064 302.019 323.173 302.019C317.283 302.019 317.283 310.946 323.173 310.946ZM335.718 311.399C342.207 311.399 342.207 301.566 335.718 301.566C329.229 301.566 329.229 311.399 335.718 311.399ZM348.262 311.887C355.395 311.887 355.395 301.078 348.262 301.078C341.128 301.078 341.128 311.887 348.262 311.887ZM360.806 312.376C368.584 312.376 368.584 300.589 360.806 300.589C353.028 300.589 353.028 312.376 360.806 312.376ZM373.35 312.829C381.726 312.829 381.726 300.136 373.35 300.136C364.974 300.136 364.974 312.829 373.35 312.829ZM385.894 313.282C394.869 313.282 394.869 299.683 385.894 299.683C376.92 299.683 376.92 313.282 385.894 313.282ZM398.439 313.736C408.011 313.736 408.011 299.229 398.439 299.229C388.866 299.229 388.866 313.736 398.439 313.736ZM410.983 314.084C421.015 314.084 421.015 298.881 410.983 298.881C400.95 298.881 400.95 314.084 410.983 314.084ZM423.527 313.771C433.146 313.771 433.146 299.195 423.527 299.195C413.908 299.195 413.908 313.771 423.527 313.771ZM436.071 313.317C445.091 313.317 445.091 299.648 436.071 299.648C427.051 299.648 427.051 313.317 436.071 313.317ZM448.615 312.864C457.037 312.864 457.037 300.101 448.615 300.101C440.193 300.101 440.193 312.864 448.615 312.864ZM461.159 312.376C468.937 312.376 468.937 300.589 461.159 300.589C453.382 300.589 453.382 312.376 461.159 312.376ZM473.703 311.922C480.883 311.922 480.883 301.043 473.703 301.043C466.524 301.043 466.524 311.922 473.703 311.922ZM486.248 311.434C492.783 311.434 492.783 301.531 486.248 301.531C479.713 301.531 479.713 311.434 486.248 311.434ZM498.792 310.981C504.729 310.981 504.729 301.984 498.792 301.984C492.855 301.984 492.855 310.981 498.792 310.981ZM511.336 310.528C516.675 310.528 516.675 302.438 511.336 302.438C505.997 302.438 505.997 310.528 511.336 310.528ZM523.88 310.039C528.574 310.039 528.574 302.926 523.88 302.926C519.186 302.926 519.186 310.039 523.88 310.039ZM536.424 309.586C540.52 309.586 540.52 303.379 536.424 303.379C532.329 303.379 532.329 309.586 536.424 309.586ZM548.969 309.133C552.466 309.133 552.466 303.832 548.969 303.832C545.471 303.832 545.471 309.133 548.969 309.133ZM561.513 308.679C564.412 308.679 564.412 304.286 561.513 304.286C558.613 304.286 558.613 308.679 561.513 308.679ZM574.057 308.191C576.312 308.191 576.312 304.774 574.057 304.774C571.802 304.774 571.802 308.191 574.057 308.191ZM586.601 307.738C588.258 307.738 588.258 305.227 586.601 305.227C584.944 305.227 584.944 307.738 586.601 307.738ZM599.145 307.25C600.158 307.25 600.158 305.715 599.145 305.715C598.133 305.715 598.133 307.25 599.145 307.25ZM611.689 306.796C612.104 306.796 612.104 306.169 611.689 306.169C611.275 306.169 611.275 306.796 611.689 306.796ZM210.276 319.337C210.644 319.337 210.644 318.779 210.276 318.779C209.908 318.779 209.908 319.337 210.276 319.337ZM222.82 319.79C223.787 319.79 223.787 318.325 222.82 318.325C221.854 318.325 221.854 319.79 222.82 319.79ZM235.365 320.243C236.929 320.243 236.929 317.872 235.365 317.872C233.8 317.872 233.8 320.243 235.365 320.243ZM247.909 320.732C250.118 320.732 250.118 317.384 247.909 317.384C245.699 317.384 245.699 320.732 247.909 320.732ZM260.453 321.185C263.26 321.185 263.26 316.931 260.453 316.931C257.645 316.931 257.645 321.185 260.453 321.185ZM272.997 321.638C276.402 321.638 276.402 316.477 272.997 316.477C269.591 316.477 269.591 321.638 272.997 321.638ZM285.541 322.092C289.545 322.092 289.545 316.024 285.541 316.024C281.537 316.024 281.537 322.092 285.541 322.092ZM298.085 322.58C302.734 322.58 302.734 315.536 298.085 315.536C293.437 315.536 293.437 322.58 298.085 322.58ZM310.63 323.033C315.876 323.033 315.876 315.083 310.63 315.083C305.383 315.083 305.383 323.033 310.63 323.033ZM323.173 323.486C329.018 323.486 329.018 314.629 323.173 314.629C317.329 314.629 317.329 323.486 323.173 323.486ZM335.718 323.94C342.161 323.94 342.161 314.176 335.718 314.176C329.275 314.176 329.275 323.94 335.718 323.94ZM348.262 324.428C355.349 324.428 355.349 313.688 348.262 313.688C341.175 313.688 341.175 324.428 348.262 324.428ZM360.806 324.881C368.492 324.881 368.492 313.234 360.806 313.234C353.12 313.234 353.12 324.881 360.806 324.881ZM373.35 325.335C381.634 325.335 381.634 312.781 373.35 312.781C365.066 312.781 365.066 325.335 373.35 325.335ZM385.894 325.753C394.73 325.753 394.73 312.363 385.894 312.363C377.058 312.363 377.058 325.753 385.894 325.753ZM398.439 326.171C407.827 326.171 407.827 311.944 398.439 311.944C389.05 311.944 389.05 326.171 398.439 326.171ZM410.983 326.346C420.601 326.346 420.601 311.77 410.983 311.77C401.364 311.77 401.364 326.346 410.983 326.346ZM423.527 326.171C432.915 326.171 432.915 311.944 423.527 311.944C414.138 311.944 414.138 326.171 423.527 326.171ZM436.071 325.788C444.953 325.788 444.953 312.328 436.071 312.328C427.189 312.328 427.189 325.788 436.071 325.788ZM448.615 325.369C456.945 325.369 456.945 312.746 448.615 312.746C440.285 312.746 440.285 325.369 448.615 325.369ZM461.159 324.916C468.891 324.916 468.891 313.2 461.159 313.2C453.428 313.2 453.428 324.916 461.159 324.916ZM473.703 324.463C480.837 324.463 480.837 313.653 473.703 313.653C466.57 313.653 466.57 324.463 473.703 324.463ZM486.248 324.009C492.783 324.009 492.783 314.106 486.248 314.106C479.713 314.106 479.713 324.009 486.248 324.009ZM498.792 323.521C504.683 323.521 504.683 314.594 498.792 314.594C492.901 314.594 492.901 323.521 498.792 323.521ZM511.336 323.068C516.629 323.068 516.629 315.048 511.336 315.048C506.044 315.048 506.044 323.068 511.336 323.068ZM523.88 322.615C528.574 322.615 528.574 315.501 523.88 315.501C519.186 315.501 519.186 322.615 523.88 322.615ZM536.424 322.126C540.474 322.126 540.474 315.989 536.424 315.989C532.374 315.989 532.374 322.126 536.424 322.126ZM548.969 321.673C552.42 321.673 552.42 316.443 548.969 316.443C545.517 316.443 545.517 321.673 548.969 321.673ZM561.513 321.22C564.366 321.22 564.366 316.896 561.513 316.896C558.659 316.896 558.659 321.22 561.513 321.22ZM574.057 320.767C576.312 320.767 576.312 317.349 574.057 317.349C571.802 317.349 571.802 320.767 574.057 320.767ZM586.601 320.278C588.212 320.278 588.212 317.837 586.601 317.837C584.99 317.837 584.99 320.278 586.601 320.278ZM599.145 319.825C600.158 319.825 600.158 318.291 599.145 318.291C598.133 318.291 598.133 319.825 599.145 319.825ZM611.689 319.337C612.057 319.337 612.057 318.779 611.689 318.779C611.321 318.779 611.321 319.337 611.689 319.337ZM210.276 331.842C210.552 331.842 210.552 331.424 210.276 331.424C210 331.424 210 331.842 210.276 331.842ZM222.82 332.331C223.741 332.331 223.741 330.936 222.82 330.936C221.9 330.936 221.9 332.331 222.82 332.331ZM235.365 332.784C236.883 332.784 236.883 330.482 235.365 330.482C233.846 330.482 233.846 332.784 235.365 332.784ZM247.909 333.237C250.026 333.237 250.026 330.029 247.909 330.029C245.792 330.029 245.792 333.237 247.909 333.237ZM260.453 333.725C263.214 333.725 263.214 329.541 260.453 329.541C257.692 329.541 257.692 333.725 260.453 333.725ZM272.997 334.179C276.357 334.179 276.357 329.087 272.997 329.087C269.637 329.087 269.637 334.179 272.997 334.179ZM285.541 334.632C289.499 334.632 289.499 328.634 285.541 328.634C281.583 328.634 281.583 334.632 285.541 334.632ZM298.085 335.085C302.641 335.085 302.641 328.181 298.085 328.181C293.529 328.181 293.529 335.085 298.085 335.085ZM310.63 335.504C315.738 335.504 315.738 327.762 310.63 327.762C305.521 327.762 305.521 335.504 310.63 335.504ZM323.173 335.957C328.88 335.957 328.88 327.309 323.173 327.309C317.467 327.309 317.467 335.957 323.173 335.957ZM335.718 336.41C342.023 336.41 342.023 326.856 335.718 326.856C329.413 326.856 329.413 336.41 335.718 336.41ZM348.262 336.864C355.165 336.864 355.165 326.402 348.262 326.402C341.359 326.402 341.359 336.864 348.262 336.864ZM360.806 337.282C368.262 337.282 368.262 325.984 360.806 325.984C353.351 325.984 353.351 337.282 360.806 337.282ZM373.35 337.701C381.358 337.701 381.358 325.566 373.35 325.566C365.342 325.566 365.342 337.701 373.35 337.701ZM385.894 338.084C394.408 338.084 394.408 325.182 385.894 325.182C377.381 325.182 377.381 338.084 385.894 338.084ZM398.439 338.363C407.321 338.363 407.321 324.903 398.439 324.903C389.556 324.903 389.556 338.363 398.439 338.363ZM410.983 338.468C420.003 338.468 420.003 324.798 410.983 324.798C401.962 324.798 401.962 338.468 410.983 338.468ZM423.527 338.363C432.409 338.363 432.409 324.903 423.527 324.903C414.645 324.903 414.645 338.363 423.527 338.363ZM436.071 338.084C444.585 338.084 444.585 325.182 436.071 325.182C427.557 325.182 427.557 338.084 436.071 338.084ZM448.615 337.735C456.669 337.735 456.669 325.531 448.615 325.531C440.561 325.531 440.561 337.735 448.615 337.735ZM461.159 337.317C468.661 337.317 468.661 325.949 461.159 325.949C453.658 325.949 453.658 337.317 461.159 337.317ZM473.703 336.899C480.653 336.899 480.653 326.368 473.703 326.368C466.754 326.368 466.754 336.899 473.703 336.899ZM486.248 336.445C492.599 336.445 492.599 326.821 486.248 326.821C479.897 326.821 479.897 336.445 486.248 336.445ZM498.792 335.992C504.544 335.992 504.544 327.274 498.792 327.274C493.039 327.274 493.039 335.992 498.792 335.992ZM511.336 335.539C516.49 335.539 516.49 327.728 511.336 327.728C506.182 327.728 506.182 335.539 511.336 335.539ZM523.88 335.085C528.436 335.085 528.436 328.181 523.88 328.181C519.324 328.181 519.324 335.085 523.88 335.085ZM536.424 334.667C540.428 334.667 540.428 328.599 536.424 328.599C532.42 328.599 532.42 334.667 536.424 334.667ZM548.969 334.213C552.374 334.213 552.374 329.053 548.969 329.053C545.563 329.053 545.563 334.213 548.969 334.213ZM561.513 333.76C564.32 333.76 564.32 329.506 561.513 329.506C558.705 329.506 558.705 333.76 561.513 333.76ZM574.057 333.272C576.22 333.272 576.22 329.994 574.057 329.994C571.894 329.994 571.894 333.272 574.057 333.272ZM586.601 332.819C588.166 332.819 588.166 330.447 586.601 330.447C585.036 330.447 585.036 332.819 586.601 332.819ZM599.145 332.365C600.112 332.365 600.112 330.901 599.145 330.901C598.179 330.901 598.179 332.365 599.145 332.365ZM611.689 331.877C612.012 331.877 612.012 331.389 611.689 331.389C611.367 331.389 611.367 331.877 611.689 331.877ZM210.276 344.383C210.506 344.383 210.506 344.034 210.276 344.034C210.046 344.034 210.046 344.383 210.276 344.383ZM222.82 344.801C223.603 344.801 223.603 343.615 222.82 343.615C222.038 343.615 222.038 344.801 222.82 344.801ZM235.365 345.289C236.791 345.289 236.791 343.127 235.365 343.127C233.938 343.127 233.938 345.289 235.365 345.289ZM247.909 345.743C249.934 345.743 249.934 342.674 247.909 342.674C245.884 342.674 245.884 345.743 247.909 345.743ZM260.453 346.196C263.076 346.196 263.076 342.221 260.453 342.221C257.83 342.221 257.83 346.196 260.453 346.196ZM272.997 346.649C276.218 346.649 276.218 341.767 272.997 341.767C269.775 341.767 269.775 346.649 272.997 346.649ZM285.541 347.068C289.315 347.068 289.315 341.349 285.541 341.349C281.767 341.349 281.767 347.068 285.541 347.068ZM298.085 347.521C302.457 347.521 302.457 340.896 298.085 340.896C293.713 340.896 293.713 347.521 298.085 347.521ZM310.63 347.974C315.6 347.974 315.6 340.442 310.63 340.442C305.659 340.442 305.659 347.974 310.63 347.974ZM323.173 348.393C328.696 348.393 328.696 340.024 323.173 340.024C317.651 340.024 317.651 348.393 323.173 348.393ZM335.718 348.811C341.793 348.811 341.793 339.605 335.718 339.605C329.643 339.605 329.643 348.811 335.718 348.811ZM348.262 349.23C354.889 349.23 354.889 339.187 348.262 339.187C341.635 339.187 341.635 349.23 348.262 349.23ZM360.806 349.613C367.939 349.613 367.939 338.803 360.806 338.803C353.673 338.803 353.673 349.613 360.806 349.613ZM373.35 349.997C380.99 349.997 380.99 338.42 373.35 338.42C365.711 338.42 365.711 349.997 373.35 349.997ZM385.894 350.276C393.902 350.276 393.902 338.141 385.894 338.141C377.887 338.141 377.887 350.276 385.894 350.276ZM398.439 350.485C406.723 350.485 406.723 337.932 398.439 337.932C390.155 337.932 390.155 350.485 398.439 350.485ZM410.983 350.59C419.404 350.59 419.404 337.827 410.983 337.827C402.561 337.827 402.561 350.59 410.983 350.59ZM423.527 350.52C431.857 350.52 431.857 337.897 423.527 337.897C415.197 337.897 415.197 350.52 423.527 350.52ZM436.071 350.311C444.125 350.311 444.125 338.106 436.071 338.106C428.017 338.106 428.017 350.311 436.071 350.311ZM448.615 350.032C456.301 350.032 456.301 338.385 448.615 338.385C440.93 338.385 440.93 350.032 448.615 350.032ZM461.159 349.648C468.339 349.648 468.339 338.768 461.159 338.768C453.98 338.768 453.98 349.648 461.159 349.648ZM473.703 349.265C480.377 349.265 480.377 339.152 473.703 339.152C467.03 339.152 467.03 349.265 473.703 349.265ZM486.248 348.846C492.369 348.846 492.369 339.57 486.248 339.57C480.127 339.57 480.127 348.846 486.248 348.846ZM498.792 348.428C504.36 348.428 504.36 339.989 498.792 339.989C493.223 339.989 493.223 348.428 498.792 348.428ZM511.336 347.974C516.306 347.974 516.306 340.442 511.336 340.442C506.366 340.442 506.366 347.974 511.336 347.974ZM523.88 347.556C528.298 347.556 528.298 340.861 523.88 340.861C519.462 340.861 519.462 347.556 523.88 347.556ZM536.424 347.103C540.244 347.103 540.244 341.314 536.424 341.314C532.605 341.314 532.605 347.103 536.424 347.103ZM548.969 346.684C552.236 346.684 552.236 341.732 548.969 341.732C545.701 341.732 545.701 346.684 548.969 346.684ZM561.513 346.231C564.182 346.231 564.182 342.186 561.513 342.186C558.843 342.186 558.843 346.231 561.513 346.231ZM574.057 345.777C576.128 345.777 576.128 342.639 574.057 342.639C571.986 342.639 571.986 345.777 574.057 345.777ZM586.601 345.324C588.074 345.324 588.074 343.092 586.601 343.092C585.128 343.092 585.128 345.324 586.601 345.324ZM599.145 344.836C599.973 344.836 599.973 343.581 599.145 343.581C598.317 343.581 598.317 344.836 599.145 344.836ZM611.689 344.383C611.919 344.383 611.919 344.034 611.689 344.034C611.459 344.034 611.459 344.383 611.689 344.383ZM210.276 356.888C210.414 356.888 210.414 356.679 210.276 356.679C210.138 356.679 210.138 356.888 210.276 356.888ZM222.82 357.272C223.465 357.272 223.465 356.295 222.82 356.295C222.176 356.295 222.176 357.272 222.82 357.272ZM235.365 357.725C236.607 357.725 236.607 355.842 235.365 355.842C234.122 355.842 234.122 357.725 235.365 357.725ZM247.909 358.178C249.75 358.178 249.75 355.389 247.909 355.389C246.068 355.389 246.068 358.178 247.909 358.178ZM260.453 358.632C262.892 358.632 262.892 354.935 260.453 354.935C258.013 354.935 258.013 358.632 260.453 358.632ZM272.997 359.085C276.034 359.085 276.034 354.482 272.997 354.482C269.959 354.482 269.959 359.085 272.997 359.085ZM285.541 359.503C289.131 359.503 289.131 354.064 285.541 354.064C281.952 354.064 281.952 359.503 285.541 359.503ZM298.085 359.922C302.227 359.922 302.227 353.645 298.085 353.645C293.943 353.645 293.943 359.922 298.085 359.922ZM310.63 360.34C315.324 360.34 315.324 353.227 310.63 353.227C305.935 353.227 305.935 360.34 310.63 360.34ZM323.173 360.759C328.42 360.759 328.42 352.808 323.173 352.808C317.927 352.808 317.927 360.759 323.173 360.759ZM335.718 361.177C341.516 361.177 341.516 352.39 335.718 352.39C329.919 352.39 329.919 361.177 335.718 361.177ZM348.262 361.561C354.567 361.561 354.567 352.006 348.262 352.006C341.957 352.006 341.957 361.561 348.262 361.561ZM360.806 361.91C367.571 361.91 367.571 351.658 360.806 351.658C354.041 351.658 354.041 361.91 360.806 361.91ZM373.35 362.223C380.529 362.223 380.529 351.344 373.35 351.344C366.171 351.344 366.171 362.223 373.35 362.223ZM385.894 362.467C393.396 362.467 393.396 351.1 385.894 351.1C378.393 351.1 378.393 362.467 385.894 362.467ZM398.439 362.642C406.17 362.642 406.17 350.925 398.439 350.925C390.707 350.925 390.707 362.642 398.439 362.642ZM410.983 362.677C418.76 362.677 418.76 350.89 410.983 350.89C403.205 350.89 403.205 362.677 410.983 362.677ZM423.527 362.642C431.259 362.642 431.259 350.925 423.527 350.925C415.795 350.925 415.795 362.642 423.527 362.642ZM436.071 362.467C443.573 362.467 443.573 351.1 436.071 351.1C428.57 351.1 428.57 362.467 436.071 362.467ZM448.615 362.223C455.795 362.223 455.795 351.344 448.615 351.344C441.436 351.344 441.436 362.223 448.615 362.223ZM461.159 361.91C467.924 361.91 467.924 351.658 461.159 351.658C454.394 351.658 454.394 361.91 461.159 361.91ZM473.703 361.561C480.008 361.561 480.008 352.006 473.703 352.006C467.398 352.006 467.398 361.561 473.703 361.561ZM486.248 361.177C492.046 361.177 492.046 352.39 486.248 352.39C480.449 352.39 480.449 361.177 486.248 361.177ZM498.792 360.794C504.084 360.794 504.084 352.773 498.792 352.773C493.499 352.773 493.499 360.794 498.792 360.794ZM511.336 360.375C516.076 360.375 516.076 353.192 511.336 353.192C506.596 353.192 506.596 360.375 511.336 360.375ZM523.88 359.957C528.068 359.957 528.068 353.61 523.88 353.61C519.692 353.61 519.692 359.957 523.88 359.957ZM536.424 359.538C540.06 359.538 540.06 354.029 536.424 354.029C532.788 354.029 532.788 359.538 536.424 359.538ZM548.969 359.12C552.052 359.12 552.052 354.447 548.969 354.447C545.885 354.447 545.885 359.12 548.969 359.12ZM561.513 358.666C563.998 358.666 563.998 354.9 561.513 354.9C559.027 354.9 559.027 358.666 561.513 358.666ZM574.057 358.213C575.944 358.213 575.944 355.354 574.057 355.354C572.17 355.354 572.17 358.213 574.057 358.213ZM586.601 357.76C587.89 357.76 587.89 355.807 586.601 355.807C585.312 355.807 585.312 357.76 586.601 357.76ZM599.145 357.307C599.835 357.307 599.835 356.26 599.145 356.26C598.455 356.26 598.455 357.307 599.145 357.307ZM611.689 356.888C611.827 356.888 611.827 356.679 611.689 356.679C611.551 356.679 611.551 356.888 611.689 356.888ZM210.276 369.394C210.322 369.394 210.322 369.324 210.276 369.324C210.23 369.324 210.23 369.394 210.276 369.394ZM222.82 369.742C223.326 369.742 223.326 368.975 222.82 368.975C222.314 368.975 222.314 369.742 222.82 369.742ZM235.365 370.161C236.423 370.161 236.423 368.557 235.365 368.557C234.306 368.557 234.306 370.161 235.365 370.161ZM247.909 370.614C249.565 370.614 249.565 368.103 247.909 368.103C246.252 368.103 246.252 370.614 247.909 370.614ZM260.453 371.067C262.708 371.067 262.708 367.65 260.453 367.65C258.198 367.65 258.198 371.067 260.453 371.067ZM272.997 371.486C275.804 371.486 275.804 367.232 272.997 367.232C270.19 367.232 270.19 371.486 272.997 371.486ZM285.541 371.904C288.901 371.904 288.901 366.813 285.541 366.813C282.182 366.813 282.182 371.904 285.541 371.904ZM298.085 372.288C301.951 372.288 301.951 366.43 298.085 366.43C294.219 366.43 294.219 372.288 298.085 372.288ZM310.63 372.706C315.048 372.706 315.048 366.011 310.63 366.011C306.211 366.011 306.211 372.706 310.63 372.706ZM323.173 373.09C328.098 373.09 328.098 365.628 323.173 365.628C318.249 365.628 318.249 373.09 323.173 373.09ZM335.718 373.474C341.148 373.474 341.148 365.244 335.718 365.244C330.287 365.244 330.287 373.474 335.718 373.474ZM348.262 373.822C354.153 373.822 354.153 364.895 348.262 364.895C342.371 364.895 342.371 373.822 348.262 373.822ZM360.806 374.136C367.111 374.136 367.111 364.581 360.806 364.581C354.501 364.581 354.501 374.136 360.806 374.136ZM373.35 374.38C379.977 374.38 379.977 364.337 373.35 364.337C366.723 364.337 366.723 374.38 373.35 374.38ZM385.894 374.624C392.844 374.624 392.844 364.093 385.894 364.093C378.945 364.093 378.945 374.624 385.894 374.624ZM398.439 374.764C405.572 374.764 405.572 363.954 398.439 363.954C391.305 363.954 391.305 374.764 398.439 374.764ZM410.983 374.799C418.162 374.799 418.162 363.919 410.983 363.919C403.803 363.919 403.803 374.799 410.983 374.799ZM423.527 374.764C430.66 374.764 430.66 363.954 423.527 363.954C416.393 363.954 416.393 374.764 423.527 374.764ZM436.071 374.624C443.02 374.624 443.02 364.093 436.071 364.093C429.122 364.093 429.122 374.624 436.071 374.624ZM448.615 374.415C455.288 374.415 455.288 364.302 448.615 364.302C441.942 364.302 441.942 374.415 448.615 374.415ZM461.159 374.136C467.465 374.136 467.465 364.581 461.159 364.581C454.855 364.581 454.855 374.136 461.159 374.136ZM473.703 373.822C479.594 373.822 479.594 364.895 473.703 364.895C467.813 364.895 467.813 373.822 473.703 373.822ZM486.248 373.474C491.678 373.474 491.678 365.244 486.248 365.244C480.817 365.244 480.817 373.474 486.248 373.474ZM498.792 373.125C503.762 373.125 503.762 365.593 498.792 365.593C493.821 365.593 493.821 373.125 498.792 373.125ZM511.336 372.741C515.8 372.741 515.8 365.976 511.336 365.976C506.872 365.976 506.872 372.741 511.336 372.741ZM523.88 372.323C527.792 372.323 527.792 366.395 523.88 366.395C519.968 366.395 519.968 372.323 523.88 372.323ZM536.424 371.939C539.83 371.939 539.83 366.778 536.424 366.778C533.019 366.778 533.019 371.939 536.424 371.939ZM548.969 371.521C551.822 371.521 551.822 367.197 548.969 367.197C546.115 367.197 546.115 371.521 548.969 371.521ZM561.513 371.067C563.768 371.067 563.768 367.65 561.513 367.65C559.258 367.65 559.258 371.067 561.513 371.067ZM574.057 370.649C575.76 370.649 575.76 368.068 574.057 368.068C572.354 368.068 572.354 370.649 574.057 370.649ZM586.601 370.196C587.706 370.196 587.706 368.522 586.601 368.522C585.496 368.522 585.496 370.196 586.601 370.196ZM599.145 369.777C599.697 369.777 599.697 368.94 599.145 368.94C598.593 368.94 598.593 369.777 599.145 369.777ZM611.689 369.394C611.735 369.394 611.735 369.324 611.689 369.324C611.643 369.324 611.643 369.394 611.689 369.394ZM222.82 382.143C223.097 382.143 223.097 381.725 222.82 381.725C222.544 381.725 222.544 382.143 222.82 382.143ZM235.365 382.562C236.193 382.562 236.193 381.306 235.365 381.306C234.536 381.306 234.536 382.562 235.365 382.562ZM247.909 383.015C249.335 383.015 249.335 380.853 247.909 380.853C246.482 380.853 246.482 383.015 247.909 383.015ZM260.453 383.433C262.432 383.433 262.432 380.435 260.453 380.435C258.474 380.435 258.474 383.433 260.453 383.433ZM272.997 383.852C275.528 383.852 275.528 380.016 272.997 380.016C270.466 380.016 270.466 383.852 272.997 383.852ZM285.541 384.235C288.578 384.235 288.578 379.632 285.541 379.632C282.504 379.632 282.504 384.235 285.541 384.235ZM298.085 384.654C301.675 384.654 301.675 379.214 298.085 379.214C294.495 379.214 294.495 384.654 298.085 384.654ZM310.63 385.003C314.679 385.003 314.679 378.865 310.63 378.865C306.58 378.865 306.58 385.003 310.63 385.003ZM323.173 385.386C327.73 385.386 327.73 378.482 323.173 378.482C318.617 378.482 318.617 385.386 323.173 385.386ZM335.718 385.735C340.734 385.735 340.734 378.133 335.718 378.133C330.701 378.133 330.701 385.735 335.718 385.735ZM348.262 386.049C353.692 386.049 353.692 377.819 348.262 377.819C342.831 377.819 342.831 386.049 348.262 386.049ZM360.806 386.328C366.605 386.328 366.605 377.54 360.806 377.54C355.007 377.54 355.007 386.328 360.806 386.328ZM373.35 386.572C379.471 386.572 379.471 377.296 373.35 377.296C367.229 377.296 367.229 386.572 373.35 386.572ZM385.894 386.746C392.245 386.746 392.245 377.122 385.894 377.122C379.544 377.122 379.544 386.746 385.894 386.746ZM398.439 386.851C404.927 386.851 404.927 377.017 398.439 377.017C391.949 377.017 391.949 386.851 398.439 386.851ZM410.983 386.886C417.518 386.886 417.518 376.982 410.983 376.982C404.448 376.982 404.448 386.886 410.983 386.886ZM423.527 386.886C430.062 386.886 430.062 376.982 423.527 376.982C416.992 376.982 416.992 386.886 423.527 386.886ZM436.071 386.746C442.422 386.746 442.422 377.122 436.071 377.122C429.72 377.122 429.72 386.746 436.071 386.746ZM448.615 386.572C454.736 386.572 454.736 377.296 448.615 377.296C442.494 377.296 442.494 386.572 448.615 386.572ZM461.159 386.328C466.958 386.328 466.958 377.54 461.159 377.54C455.361 377.54 455.361 386.328 461.159 386.328ZM473.703 386.049C479.134 386.049 479.134 377.819 473.703 377.819C468.273 377.819 468.273 386.049 473.703 386.049ZM486.248 385.735C491.264 385.735 491.264 378.133 486.248 378.133C481.231 378.133 481.231 385.735 486.248 385.735ZM498.792 385.421C503.394 385.421 503.394 378.447 498.792 378.447C494.19 378.447 494.19 385.421 498.792 385.421ZM511.336 385.038C515.432 385.038 515.432 378.83 511.336 378.83C507.24 378.83 507.24 385.038 511.336 385.038ZM523.88 384.689C527.516 384.689 527.516 379.179 523.88 379.179C520.244 379.179 520.244 384.689 523.88 384.689ZM536.424 384.27C539.508 384.27 539.508 379.598 536.424 379.598C533.341 379.598 533.341 384.27 536.424 384.27ZM548.969 383.887C551.546 383.887 551.546 379.981 548.969 379.981C546.391 379.981 546.391 383.887 548.969 383.887ZM561.513 383.468C563.538 383.468 563.538 380.4 561.513 380.4C559.488 380.4 559.488 383.468 561.513 383.468ZM574.057 383.05C575.53 383.05 575.53 380.818 574.057 380.818C572.584 380.818 572.584 383.05 574.057 383.05ZM586.601 382.596C587.475 382.596 587.475 381.271 586.601 381.271C585.727 381.271 585.727 382.596 586.601 382.596ZM599.145 382.178C599.467 382.178 599.467 381.69 599.145 381.69C598.823 381.69 598.823 382.178 599.145 382.178ZM222.82 394.579C222.912 394.579 222.912 394.439 222.82 394.439C222.728 394.439 222.728 394.579 222.82 394.579ZM235.365 394.963C235.963 394.963 235.963 394.056 235.365 394.056C234.766 394.056 234.766 394.963 235.365 394.963ZM247.909 395.381C249.059 395.381 249.059 393.637 247.909 393.637C246.758 393.637 246.758 395.381 247.909 395.381ZM260.453 395.799C262.156 395.799 262.156 393.219 260.453 393.219C258.75 393.219 258.75 395.799 260.453 395.799ZM272.997 396.183C275.206 396.183 275.206 392.835 272.997 392.835C270.788 392.835 270.788 396.183 272.997 396.183ZM285.541 396.567C288.256 396.567 288.256 392.452 285.541 392.452C282.826 392.452 282.826 396.567 285.541 396.567ZM298.085 396.95C301.307 396.95 301.307 392.068 298.085 392.068C294.864 392.068 294.864 396.95 298.085 396.95ZM310.63 397.299C314.311 397.299 314.311 391.719 310.63 391.719C306.948 391.719 306.948 397.299 310.63 397.299ZM323.173 397.647C327.316 397.647 327.316 391.371 323.173 391.371C319.032 391.371 319.032 397.647 323.173 397.647ZM335.718 397.961C340.274 397.961 340.274 391.057 335.718 391.057C331.162 391.057 331.162 397.961 335.718 397.961ZM348.262 398.24C353.186 398.24 353.186 390.778 348.262 390.778C343.338 390.778 343.338 398.24 348.262 398.24ZM360.806 398.519C366.099 398.519 366.099 390.499 360.806 390.499C355.514 390.499 355.514 398.519 360.806 398.519ZM373.35 398.729C378.919 398.729 378.919 390.29 373.35 390.29C367.782 390.29 367.782 398.729 373.35 398.729ZM385.894 398.868C391.647 398.868 391.647 390.15 385.894 390.15C380.142 390.15 380.142 398.868 385.894 398.868ZM398.439 398.973C404.329 398.973 404.329 390.046 398.439 390.046C392.548 390.046 392.548 398.973 398.439 398.973ZM410.983 399.007C416.92 399.007 416.92 390.011 410.983 390.011C405.046 390.011 405.046 399.007 410.983 399.007ZM423.527 398.973C429.418 398.973 429.418 390.046 423.527 390.046C417.636 390.046 417.636 398.973 423.527 398.973ZM436.071 398.868C441.824 398.868 441.824 390.15 436.071 390.15C430.318 390.15 430.318 398.868 436.071 398.868ZM448.615 398.729C454.184 398.729 454.184 390.29 448.615 390.29C443.047 390.29 443.047 398.729 448.615 398.729ZM461.159 398.519C466.452 398.519 466.452 390.499 461.159 390.499C455.867 390.499 455.867 398.519 461.159 398.519ZM473.703 398.275C478.674 398.275 478.674 390.743 473.703 390.743C468.733 390.743 468.733 398.275 473.703 398.275ZM486.248 397.996C490.85 397.996 490.85 391.022 486.248 391.022C481.646 391.022 481.646 397.996 486.248 397.996ZM498.792 397.682C502.98 397.682 502.98 391.336 498.792 391.336C494.604 391.336 494.604 397.682 498.792 397.682ZM511.336 397.334C515.064 397.334 515.064 391.685 511.336 391.685C507.608 391.685 507.608 397.334 511.336 397.334ZM523.88 396.985C527.148 396.985 527.148 392.033 523.88 392.033C520.612 392.033 520.612 396.985 523.88 396.985ZM536.424 396.601C539.186 396.601 539.186 392.417 536.424 392.417C533.663 392.417 533.663 396.601 536.424 396.601ZM548.969 396.218C551.224 396.218 551.224 392.801 548.969 392.801C546.713 392.801 546.713 396.218 548.969 396.218ZM561.513 395.799C563.215 395.799 563.215 393.219 561.513 393.219C559.81 393.219 559.81 395.799 561.513 395.799ZM574.057 395.416C575.253 395.416 575.253 393.603 574.057 393.603C572.86 393.603 572.86 395.416 574.057 395.416ZM586.601 394.997C587.245 394.997 587.245 394.021 586.601 394.021C585.957 394.021 585.957 394.997 586.601 394.997ZM599.145 394.614C599.283 394.614 599.283 394.405 599.145 394.405C599.007 394.405 599.007 394.614 599.145 394.614ZM235.365 407.329C235.687 407.329 235.687 406.84 235.365 406.84C235.042 406.84 235.042 407.329 235.365 407.329ZM247.909 407.712C248.737 407.712 248.737 406.457 247.909 406.457C247.08 406.457 247.08 407.712 247.909 407.712ZM260.453 408.096C261.787 408.096 261.787 406.073 260.453 406.073C259.118 406.073 259.118 408.096 260.453 408.096ZM272.997 408.514C274.884 408.514 274.884 405.655 272.997 405.655C271.11 405.655 271.11 408.514 272.997 408.514ZM285.541 408.863C287.888 408.863 287.888 405.306 285.541 405.306C283.194 405.306 283.194 408.863 285.541 408.863ZM298.085 409.211C300.893 409.211 300.893 404.957 298.085 404.957C295.278 404.957 295.278 409.211 298.085 409.211ZM310.63 409.56C313.897 409.56 313.897 404.609 310.63 404.609C307.362 404.609 307.362 409.56 310.63 409.56ZM323.173 409.874C326.855 409.874 326.855 404.295 323.173 404.295C319.492 404.295 319.492 409.874 323.173 409.874ZM335.718 410.188C339.814 410.188 339.814 403.981 335.718 403.981C331.622 403.981 331.622 410.188 335.718 410.188ZM348.262 410.432C352.68 410.432 352.68 403.737 348.262 403.737C343.844 403.737 343.844 410.432 348.262 410.432ZM360.806 410.676C365.546 410.676 365.546 403.493 360.806 403.493C356.066 403.493 356.066 410.676 360.806 410.676ZM373.35 410.85C378.321 410.85 378.321 403.318 373.35 403.318C368.38 403.318 368.38 410.85 373.35 410.85ZM385.894 410.99C391.049 410.99 391.049 403.179 385.894 403.179C380.74 403.179 380.74 410.99 385.894 410.99ZM398.439 411.095C403.731 411.095 403.731 403.074 398.439 403.074C393.146 403.074 393.146 411.095 398.439 411.095ZM410.983 411.129C416.321 411.129 416.321 403.039 410.983 403.039C405.644 403.039 405.644 411.129 410.983 411.129ZM423.527 411.095C428.819 411.095 428.819 403.074 423.527 403.074C418.234 403.074 418.234 411.095 423.527 411.095ZM436.071 410.99C441.226 410.99 441.226 403.179 436.071 403.179C430.916 403.179 430.916 410.99 436.071 410.99ZM448.615 410.85C453.585 410.85 453.585 403.318 448.615 403.318C443.645 403.318 443.645 410.85 448.615 410.85ZM461.159 410.676C465.9 410.676 465.9 403.493 461.159 403.493C456.419 403.493 456.419 410.676 461.159 410.676ZM473.703 410.467C478.168 410.467 478.168 403.702 473.703 403.702C469.239 403.702 469.239 410.467 473.703 410.467ZM486.248 410.188C490.344 410.188 490.344 403.981 486.248 403.981C482.152 403.981 482.152 410.188 486.248 410.188ZM498.792 409.909C502.519 409.909 502.519 404.26 498.792 404.26C495.064 404.26 495.064 409.909 498.792 409.909ZM511.336 409.595C514.65 409.595 514.65 404.574 511.336 404.574C508.022 404.574 508.022 409.595 511.336 409.595ZM523.88 409.246C526.734 409.246 526.734 404.922 523.88 404.922C521.027 404.922 521.027 409.246 523.88 409.246ZM536.424 408.898C538.817 408.898 538.817 405.271 536.424 405.271C534.031 405.271 534.031 408.898 536.424 408.898ZM548.969 408.514C550.856 408.514 550.856 405.655 548.969 405.655C547.082 405.655 547.082 408.514 548.969 408.514ZM561.513 408.131C562.893 408.131 562.893 406.038 561.513 406.038C560.132 406.038 560.132 408.131 561.513 408.131ZM574.057 407.747C574.931 407.747 574.931 406.422 574.057 406.422C573.182 406.422 573.182 407.747 574.057 407.747ZM586.601 407.329C586.923 407.329 586.923 406.84 586.601 406.84C586.279 406.84 586.279 407.329 586.601 407.329ZM235.365 419.729C235.456 419.729 235.456 419.59 235.365 419.59C235.272 419.59 235.272 419.729 235.365 419.729ZM247.909 420.043C248.415 420.043 248.415 419.276 247.909 419.276C247.402 419.276 247.402 420.043 247.909 420.043ZM260.453 420.427C261.465 420.427 261.465 418.892 260.453 418.892C259.44 418.892 259.44 420.427 260.453 420.427ZM272.997 420.775C274.47 420.775 274.47 418.544 272.997 418.544C271.524 418.544 271.524 420.775 272.997 420.775ZM285.541 421.159C287.52 421.159 287.52 418.16 285.541 418.16C283.562 418.16 283.562 421.159 285.541 421.159ZM298.085 421.473C300.479 421.473 300.479 417.846 298.085 417.846C295.692 417.846 295.692 421.473 298.085 421.473ZM310.63 421.822C313.483 421.822 313.483 417.498 310.63 417.498C307.776 417.498 307.776 421.822 310.63 421.822ZM323.173 422.101C326.395 422.101 326.395 417.219 323.173 417.219C319.952 417.219 319.952 422.101 323.173 422.101ZM335.718 422.38C339.308 422.38 339.308 416.94 335.718 416.94C332.128 416.94 332.128 422.38 335.718 422.38ZM348.262 422.624C352.174 422.624 352.174 416.696 348.262 416.696C344.35 416.696 344.35 422.624 348.262 422.624ZM360.806 422.833C364.994 422.833 364.994 416.486 360.806 416.486C356.618 416.486 356.618 422.833 360.806 422.833ZM373.35 423.007C377.768 423.007 377.768 416.312 373.35 416.312C368.932 416.312 368.932 423.007 373.35 423.007ZM385.894 423.112C390.45 423.112 390.45 416.207 385.894 416.207C381.338 416.207 381.338 423.112 385.894 423.112ZM398.439 423.182C403.087 423.182 403.087 416.138 398.439 416.138C393.79 416.138 393.79 423.182 398.439 423.182ZM410.983 423.216C415.677 423.216 415.677 416.103 410.983 416.103C406.288 416.103 406.288 423.216 410.983 423.216ZM423.527 423.216C428.221 423.216 428.221 416.103 423.527 416.103C418.833 416.103 418.833 423.216 423.527 423.216ZM436.071 423.112C440.627 423.112 440.627 416.207 436.071 416.207C431.515 416.207 431.515 423.112 436.071 423.112ZM448.615 423.007C453.033 423.007 453.033 416.312 448.615 416.312C444.197 416.312 444.197 423.007 448.615 423.007ZM461.159 422.833C465.347 422.833 465.347 416.486 461.159 416.486C456.971 416.486 456.971 422.833 461.159 422.833ZM473.703 422.624C477.615 422.624 477.615 416.696 473.703 416.696C469.792 416.696 469.792 422.624 473.703 422.624ZM486.248 422.414C489.883 422.414 489.883 416.905 486.248 416.905C482.612 416.905 482.612 422.414 486.248 422.414ZM498.792 422.135C502.06 422.135 502.06 417.184 498.792 417.184C495.524 417.184 495.524 422.135 498.792 422.135ZM511.336 421.822C514.189 421.822 514.189 417.498 511.336 417.498C508.483 417.498 508.483 421.822 511.336 421.822ZM523.88 421.508C526.319 421.508 526.319 417.811 523.88 417.811C521.441 417.811 521.441 421.508 523.88 421.508ZM536.424 421.159C538.403 421.159 538.403 418.16 536.424 418.16C534.445 418.16 534.445 421.159 536.424 421.159ZM548.969 420.81C550.487 420.81 550.487 418.509 548.969 418.509C547.45 418.509 547.45 420.81 548.969 420.81ZM561.513 420.462C562.571 420.462 562.571 418.858 561.513 418.858C560.454 418.858 560.454 420.462 561.513 420.462ZM574.057 420.078C574.609 420.078 574.609 419.241 574.057 419.241C573.504 419.241 573.504 420.078 574.057 420.078ZM586.601 419.729C586.693 419.729 586.693 419.59 586.601 419.59C586.509 419.59 586.509 419.729 586.601 419.729ZM247.909 432.374C248.093 432.374 248.093 432.095 247.909 432.095C247.724 432.095 247.724 432.374 247.909 432.374ZM260.453 432.688C261.051 432.688 261.051 431.782 260.453 431.782C259.854 431.782 259.854 432.688 260.453 432.688ZM272.997 433.072C274.101 433.072 274.101 431.398 272.997 431.398C271.893 431.398 271.893 433.072 272.997 433.072ZM285.541 433.386C287.06 433.386 287.06 431.084 285.541 431.084C284.022 431.084 284.022 433.386 285.541 433.386ZM298.085 433.734C300.064 433.734 300.064 430.735 298.085 430.735C296.106 430.735 296.106 433.734 298.085 433.734ZM310.63 434.013C312.976 434.013 312.976 430.456 310.63 430.456C308.282 430.456 308.282 434.013 310.63 434.013ZM323.173 434.327C325.935 434.327 325.935 430.143 323.173 430.143C320.412 430.143 320.412 434.327 323.173 434.327ZM335.718 434.571C338.801 434.571 338.801 429.898 335.718 429.898C332.634 429.898 332.634 434.571 335.718 434.571ZM348.262 434.78C351.622 434.78 351.622 429.689 348.262 429.689C344.902 429.689 344.902 434.78 348.262 434.78ZM360.806 434.99C364.442 434.99 364.442 429.48 360.806 429.48C357.17 429.48 357.17 434.99 360.806 434.99ZM373.35 435.129C377.17 435.129 377.17 429.341 373.35 429.341C369.53 429.341 369.53 435.129 373.35 435.129ZM385.894 435.234C389.852 435.234 389.852 429.236 385.894 429.236C381.937 429.236 381.937 435.234 385.894 435.234ZM398.439 435.303C402.488 435.303 402.488 429.166 398.439 429.166C394.389 429.166 394.389 435.303 398.439 435.303ZM410.983 435.338C415.079 435.338 415.079 429.131 410.983 429.131C406.887 429.131 406.887 435.338 410.983 435.338ZM423.527 435.303C427.577 435.303 427.577 429.166 423.527 429.166C419.477 429.166 419.477 435.303 423.527 435.303ZM436.071 435.269C440.075 435.269 440.075 429.201 436.071 429.201C432.067 429.201 432.067 435.269 436.071 435.269ZM448.615 435.129C452.435 435.129 452.435 429.341 448.615 429.341C444.796 429.341 444.796 435.129 448.615 435.129ZM461.159 434.99C464.795 434.99 464.795 429.48 461.159 429.48C457.524 429.48 457.524 434.99 461.159 434.99ZM473.703 434.815C477.109 434.815 477.109 429.654 473.703 429.654C470.298 429.654 470.298 434.815 473.703 434.815ZM486.248 434.571C489.331 434.571 489.331 429.898 486.248 429.898C483.164 429.898 483.164 434.571 486.248 434.571ZM498.792 434.327C501.553 434.327 501.553 430.143 498.792 430.143C496.03 430.143 496.03 434.327 498.792 434.327ZM511.336 434.048C513.729 434.048 513.729 430.422 511.336 430.422C508.943 430.422 508.943 434.048 511.336 434.048ZM523.88 433.734C525.859 433.734 525.859 430.735 523.88 430.735C521.901 430.735 521.901 433.734 523.88 433.734ZM536.424 433.42C537.989 433.42 537.989 431.049 536.424 431.049C534.86 431.049 534.86 433.42 536.424 433.42ZM548.969 433.072C550.073 433.072 550.073 431.398 548.969 431.398C547.864 431.398 547.864 433.072 548.969 433.072ZM561.513 432.723C562.157 432.723 562.157 431.747 561.513 431.747C560.868 431.747 560.868 432.723 561.513 432.723ZM574.057 432.374C574.241 432.374 574.241 432.095 574.057 432.095C573.873 432.095 573.873 432.374 574.057 432.374ZM260.453 444.984C260.683 444.984 260.683 444.636 260.453 444.636C260.223 444.636 260.223 444.984 260.453 444.984ZM272.997 445.298C273.641 445.298 273.641 444.322 272.997 444.322C272.353 444.322 272.353 445.298 272.997 445.298ZM285.541 445.647C286.646 445.647 286.646 443.973 285.541 443.973C284.436 443.973 284.436 445.647 285.541 445.647ZM298.085 445.961C299.604 445.961 299.604 443.659 298.085 443.659C296.567 443.659 296.567 445.961 298.085 445.961ZM310.63 446.24C312.517 446.24 312.517 443.38 310.63 443.38C308.743 443.38 308.743 446.24 310.63 446.24ZM323.173 446.484C325.383 446.484 325.383 443.136 323.173 443.136C320.965 443.136 320.965 446.484 323.173 446.484ZM335.718 446.728C338.249 446.728 338.249 442.892 335.718 442.892C333.187 442.892 333.187 446.728 335.718 446.728ZM348.262 446.937C351.069 446.937 351.069 442.683 348.262 442.683C345.455 442.683 345.455 446.937 348.262 446.937ZM360.806 447.112C363.844 447.112 363.844 442.509 360.806 442.509C357.769 442.509 357.769 447.112 360.806 447.112ZM373.35 447.251C376.572 447.251 376.572 442.369 373.35 442.369C370.129 442.369 370.129 447.251 373.35 447.251ZM385.894 447.356C389.254 447.356 389.254 442.264 385.894 442.264C382.535 442.264 382.535 447.356 385.894 447.356ZM398.439 447.425C401.89 447.425 401.89 442.195 398.439 442.195C394.987 442.195 394.987 447.425 398.439 447.425ZM410.983 447.46C414.48 447.46 414.48 442.16 410.983 442.16C407.485 442.16 407.485 447.46 410.983 447.46ZM423.527 447.425C426.979 447.425 426.979 442.195 423.527 442.195C420.075 442.195 420.075 447.425 423.527 447.425ZM436.071 447.39C439.477 447.39 439.477 442.23 436.071 442.23C432.665 442.23 432.665 447.39 436.071 447.39ZM448.615 447.286C451.883 447.286 451.883 442.334 448.615 442.334C445.348 442.334 445.348 447.286 448.615 447.286ZM461.159 447.146C464.243 447.146 464.243 442.474 461.159 442.474C458.076 442.474 458.076 447.146 461.159 447.146ZM473.703 446.972C476.557 446.972 476.557 442.648 473.703 442.648C470.85 442.648 470.85 446.972 473.703 446.972ZM486.248 446.763C488.825 446.763 488.825 442.857 486.248 442.857C483.671 442.857 483.671 446.763 486.248 446.763ZM498.792 446.519C501.047 446.519 501.047 443.101 498.792 443.101C496.537 443.101 496.537 446.519 498.792 446.519ZM511.336 446.24C513.223 446.24 513.223 443.38 511.336 443.38C509.449 443.38 509.449 446.24 511.336 446.24ZM523.88 445.961C525.399 445.961 525.399 443.659 523.88 443.659C522.361 443.659 522.361 445.961 523.88 445.961ZM536.424 445.647C537.529 445.647 537.529 443.973 536.424 443.973C535.32 443.973 535.32 445.647 536.424 445.647ZM548.969 445.333C549.659 445.333 549.659 444.287 548.969 444.287C548.278 444.287 548.278 445.333 548.969 445.333ZM561.513 445.019C561.789 445.019 561.789 444.601 561.513 444.601C561.236 444.601 561.236 445.019 561.513 445.019ZM272.997 457.56C273.227 457.56 273.227 457.211 272.997 457.211C272.767 457.211 272.767 457.56 272.997 457.56ZM285.541 457.839C286.139 457.839 286.139 456.932 285.541 456.932C284.943 456.932 284.943 457.839 285.541 457.839ZM298.085 458.152C299.098 458.152 299.098 456.618 298.085 456.618C297.073 456.618 297.073 458.152 298.085 458.152ZM310.63 458.431C312.01 458.431 312.01 456.339 310.63 456.339C309.249 456.339 309.249 458.431 310.63 458.431ZM323.173 458.676C324.877 458.676 324.877 456.095 323.173 456.095C321.471 456.095 321.471 458.676 323.173 458.676ZM335.718 458.885C337.697 458.885 337.697 455.886 335.718 455.886C333.739 455.886 333.739 458.885 335.718 458.885ZM348.262 459.094C350.517 459.094 350.517 455.677 348.262 455.677C346.007 455.677 346.007 459.094 348.262 459.094ZM360.806 459.268C363.291 459.268 363.291 455.502 360.806 455.502C358.321 455.502 358.321 459.268 360.806 459.268ZM373.35 459.408C376.02 459.408 376.02 455.363 373.35 455.363C370.681 455.363 370.681 459.408 373.35 459.408ZM385.894 459.478C388.656 459.478 388.656 455.293 385.894 455.293C383.133 455.293 383.133 459.478 385.894 459.478ZM398.439 459.547C401.292 459.547 401.292 455.223 398.439 455.223C395.585 455.223 395.585 459.547 398.439 459.547ZM410.983 459.582C413.882 459.582 413.882 455.188 410.983 455.188C408.083 455.188 408.083 459.582 410.983 459.582ZM423.527 459.547C426.38 459.547 426.38 455.223 423.527 455.223C420.674 455.223 420.674 459.547 423.527 459.547ZM436.071 459.512C438.878 459.512 438.878 455.258 436.071 455.258C433.264 455.258 433.264 459.512 436.071 459.512ZM448.615 459.408C451.284 459.408 451.284 455.363 448.615 455.363C445.946 455.363 445.946 459.408 448.615 459.408ZM461.159 459.268C463.644 459.268 463.644 455.502 461.159 455.502C458.674 455.502 458.674 459.268 461.159 459.268ZM473.703 459.094C475.958 459.094 475.958 455.677 473.703 455.677C471.448 455.677 471.448 459.094 473.703 459.094ZM486.248 458.92C488.273 458.92 488.273 455.851 486.248 455.851C484.223 455.851 484.223 458.92 486.248 458.92ZM498.792 458.676C500.495 458.676 500.495 456.095 498.792 456.095C497.089 456.095 497.089 458.676 498.792 458.676ZM511.336 458.431C512.717 458.431 512.717 456.339 511.336 456.339C509.955 456.339 509.955 458.431 511.336 458.431ZM523.88 458.187C524.939 458.187 524.939 456.583 523.88 456.583C522.822 456.583 522.822 458.187 523.88 458.187ZM536.424 457.874C537.069 457.874 537.069 456.897 536.424 456.897C535.78 456.897 535.78 457.874 536.424 457.874ZM548.969 457.595C549.245 457.595 549.245 457.176 548.969 457.176C548.692 457.176 548.692 457.595 548.969 457.595ZM285.541 470.1C285.725 470.1 285.725 469.821 285.541 469.821C285.357 469.821 285.357 470.1 285.541 470.1ZM298.085 470.344C298.592 470.344 298.592 469.577 298.085 469.577C297.579 469.577 297.579 470.344 298.085 470.344ZM310.63 470.588C311.458 470.588 311.458 469.333 310.63 469.333C309.801 469.333 309.801 470.588 310.63 470.588ZM323.173 470.832C324.324 470.832 324.324 469.089 323.173 469.089C322.023 469.089 322.023 470.832 323.173 470.832ZM335.718 471.042C337.144 471.042 337.144 468.879 335.718 468.879C334.291 468.879 334.291 471.042 335.718 471.042ZM348.262 471.251C349.964 471.251 349.964 468.67 348.262 468.67C346.559 468.67 346.559 471.251 348.262 471.251ZM360.806 471.39C362.693 471.39 362.693 468.531 360.806 468.531C358.919 468.531 358.919 471.39 360.806 471.39ZM373.35 471.53C375.421 471.53 375.421 468.391 373.35 468.391C371.279 468.391 371.279 471.53 373.35 471.53ZM385.894 471.6C388.057 471.6 388.057 468.322 385.894 468.322C383.731 468.322 383.731 471.6 385.894 471.6ZM398.439 471.669C400.694 471.669 400.694 468.252 398.439 468.252C396.184 468.252 396.184 471.669 398.439 471.669ZM410.983 471.669C413.238 471.669 413.238 468.252 410.983 468.252C408.728 468.252 408.728 471.669 410.983 471.669ZM423.527 471.669C425.782 471.669 425.782 468.252 423.527 468.252C421.272 468.252 421.272 471.669 423.527 471.669ZM436.071 471.6C438.234 471.6 438.234 468.322 436.071 468.322C433.908 468.322 433.908 471.6 436.071 471.6ZM448.615 471.53C450.686 471.53 450.686 468.391 448.615 468.391C446.544 468.391 446.544 471.53 448.615 471.53ZM461.159 471.39C463.046 471.39 463.046 468.531 461.159 468.531C459.273 468.531 459.273 471.39 461.159 471.39ZM473.703 471.251C475.406 471.251 475.406 468.67 473.703 468.67C472.001 468.67 472.001 471.251 473.703 471.251ZM486.248 471.076C487.72 471.076 487.72 468.845 486.248 468.845C484.775 468.845 484.775 471.076 486.248 471.076ZM498.792 470.867C499.988 470.867 499.988 469.054 498.792 469.054C497.595 469.054 497.595 470.867 498.792 470.867ZM511.336 470.623C512.21 470.623 512.21 469.298 511.336 469.298C510.462 469.298 510.462 470.623 511.336 470.623ZM523.88 470.379C524.432 470.379 524.432 469.542 523.88 469.542C523.328 469.542 523.328 470.379 523.88 470.379ZM536.424 470.1C536.608 470.1 536.608 469.821 536.424 469.821C536.24 469.821 536.24 470.1 536.424 470.1ZM298.085 482.605C298.177 482.605 298.177 482.466 298.085 482.466C297.993 482.466 297.993 482.605 298.085 482.605ZM310.63 482.78C310.952 482.78 310.952 482.292 310.63 482.292C310.307 482.292 310.307 482.78 310.63 482.78ZM323.173 482.989C323.772 482.989 323.772 482.082 323.173 482.082C322.575 482.082 322.575 482.989 323.173 482.989ZM335.718 483.198C336.592 483.198 336.592 481.873 335.718 481.873C334.843 481.873 334.843 483.198 335.718 483.198ZM348.262 483.373C349.366 483.373 349.366 481.699 348.262 481.699C347.157 481.699 347.157 483.373 348.262 483.373ZM360.806 483.512C362.095 483.512 362.095 481.559 360.806 481.559C359.517 481.559 359.517 483.512 360.806 483.512ZM373.35 483.617C374.777 483.617 374.777 481.455 373.35 481.455C371.923 481.455 371.923 483.617 373.35 483.617ZM385.894 483.721C387.459 483.721 387.459 481.35 385.894 481.35C384.33 481.35 384.33 483.721 385.894 483.721ZM398.439 483.756C400.049 483.756 400.049 481.315 398.439 481.315C396.828 481.315 396.828 483.756 398.439 483.756ZM410.983 483.791C412.64 483.791 412.64 481.28 410.983 481.28C409.326 481.28 409.326 483.791 410.983 483.791ZM423.527 483.756C425.138 483.756 425.138 481.315 423.527 481.315C421.916 481.315 421.916 483.756 423.527 483.756ZM436.071 483.721C437.636 483.721 437.636 481.35 436.071 481.35C434.506 481.35 434.506 483.721 436.071 483.721ZM448.615 483.652C450.088 483.652 450.088 481.42 448.615 481.42C447.143 481.42 447.143 483.652 448.615 483.652ZM461.159 483.512C462.448 483.512 462.448 481.559 461.159 481.559C459.871 481.559 459.871 483.512 461.159 483.512ZM473.703 483.373C474.808 483.373 474.808 481.699 473.703 481.699C472.599 481.699 472.599 483.373 473.703 483.373ZM486.248 483.198C487.122 483.198 487.122 481.873 486.248 481.873C485.373 481.873 485.373 483.198 486.248 483.198ZM498.792 483.024C499.436 483.024 499.436 482.048 498.792 482.048C498.148 482.048 498.148 483.024 498.792 483.024ZM511.336 482.78C511.658 482.78 511.658 482.292 511.336 482.292C511.014 482.292 511.014 482.78 511.336 482.78ZM523.88 482.605C523.972 482.605 523.972 482.466 523.88 482.466C523.788 482.466 523.788 482.605 523.88 482.605ZM323.173 495.181C323.266 495.181 323.266 495.041 323.173 495.041C323.082 495.041 323.082 495.181 323.173 495.181ZM335.718 495.355C336.04 495.355 336.04 494.867 335.718 494.867C335.396 494.867 335.396 495.355 335.718 495.355ZM348.262 495.495C348.768 495.495 348.768 494.727 348.262 494.727C347.756 494.727 347.756 495.495 348.262 495.495ZM360.806 495.634C361.496 495.634 361.496 494.588 360.806 494.588C360.116 494.588 360.116 495.634 360.806 495.634ZM373.35 495.739C374.179 495.739 374.179 494.483 373.35 494.483C372.522 494.483 372.522 495.739 373.35 495.739ZM385.894 495.808C386.815 495.808 386.815 494.414 385.894 494.414C384.974 494.414 384.974 495.808 385.894 495.808ZM398.439 495.878C399.451 495.878 399.451 494.344 398.439 494.344C397.426 494.344 397.426 495.878 398.439 495.878ZM410.983 495.878C411.995 495.878 411.995 494.344 410.983 494.344C409.97 494.344 409.97 495.878 410.983 495.878ZM423.527 495.878C424.539 495.878 424.539 494.344 423.527 494.344C422.514 494.344 422.514 495.878 423.527 495.878ZM436.071 495.843C437.037 495.843 437.037 494.379 436.071 494.379C435.105 494.379 435.105 495.843 436.071 495.843ZM448.615 495.739C449.443 495.739 449.443 494.483 448.615 494.483C447.787 494.483 447.787 495.739 448.615 495.739ZM461.159 495.634C461.85 495.634 461.85 494.588 461.159 494.588C460.469 494.588 460.469 495.634 461.159 495.634ZM473.703 495.529C474.256 495.529 474.256 494.693 473.703 494.693C473.151 494.693 473.151 495.529 473.703 495.529ZM486.248 495.355C486.57 495.355 486.57 494.867 486.248 494.867C485.926 494.867 485.926 495.355 486.248 495.355ZM498.792 495.216C498.93 495.216 498.93 495.006 498.792 495.006C498.654 495.006 498.654 495.216 498.792 495.216ZM348.262 507.721C348.308 507.721 348.308 507.651 348.262 507.651C348.216 507.651 348.216 507.721 348.262 507.721ZM360.806 507.791C360.944 507.791 360.944 507.582 360.806 507.582C360.668 507.582 360.668 507.791 360.806 507.791ZM373.35 507.86C373.58 507.86 373.58 507.512 373.35 507.512C373.12 507.512 373.12 507.86 373.35 507.86ZM385.894 507.93C386.217 507.93 386.217 507.442 385.894 507.442C385.572 507.442 385.572 507.93 385.894 507.93ZM398.439 507.965C398.807 507.965 398.807 507.407 398.439 507.407C398.07 507.407 398.07 507.965 398.439 507.965ZM410.983 508C411.397 508 411.397 507.372 410.983 507.372C410.568 507.372 410.568 508 410.983 508ZM423.527 507.965C423.895 507.965 423.895 507.407 423.527 507.407C423.159 507.407 423.159 507.965 423.527 507.965ZM436.071 507.93C436.393 507.93 436.393 507.442 436.071 507.442C435.749 507.442 435.749 507.93 436.071 507.93ZM448.615 507.86C448.845 507.86 448.845 507.512 448.615 507.512C448.385 507.512 448.385 507.86 448.615 507.86ZM461.159 507.791C461.298 507.791 461.298 507.582 461.159 507.582C461.021 507.582 461.021 507.791 461.159 507.791ZM473.703 507.721C473.75 507.721 473.75 507.651 473.703 507.651C473.658 507.651 473.658 507.721 473.703 507.721Z" fill="#6FB543"></path>
    <path d="M1387 399L1266 590.954L1285.09 627L1367.61 546.116L1380.24 590.954L1478.62 482.522L1503 474.316L1497.13 440.614L1450.72 399L1397.57 457.319L1387 399Z" fill="#6DB242"></path>
  </g>
</svg>
