<svg xmlns="http://www.w3.org/2000/svg" width="577" height="579" fill="none" xmlns:v="https://vecta.io/nano"><path opacity=".7" d="M198.451.351c.066 0 .066.1 0 .1s-.067-.1 0-.1zm18.005.15c.132 0 .132-.2 0-.2s-.133.2 0 .2zm18.004.1c.265 0 .265-.401 0-.401s-.264.401 0 .401zm18.005.1c.397 0 .397-.601 0-.601s-.396.601 0 .601zm18.005.05c.462 0 .462-.702 0-.702s-.462.702 0 .702zm18.005.05c.529 0 .529-.802 0-.802s-.528.802 0 .802zm18.005 0c.529 0 .529-.802 0-.802s-.528.802 0 .802zm18.005-.1c.396 0 .396-.601 0-.601s-.396.601 0 .601zm18.005-.05c.33 0 .33-.501 0-.501s-.33.501 0 .501zm18.005-.1c.198 0 .198-.301 0-.301s-.198.301 0 .301zm18.005-.1c.066 0 .066-.1 0-.1s-.066.1 0 .1zM162.441 18.568c.132 0 .132-.201 0-.201s-.132.201 0 .201zm18.005.2c.396 0 .396-.601 0-.601s-.397.601 0 .601zm18.005.2c.66 0 .66-1.002 0-1.002s-.661 1.002 0 1.002zm18.005.2c.924 0 .924-1.403 0-1.403s-.925 1.403 0 1.403zm18.004.15c1.123 0 1.123-1.703 0-1.703s-1.123 1.703 0 1.703zm18.005.1c1.255 0 1.255-1.904 0-1.904s-1.255 1.904 0 1.904zm18.005.1c1.387 0 1.387-2.104 0-2.104s-1.387 2.104 0 2.104zm18.005 0c1.388 0 1.388-2.104 0-2.104s-1.387 2.104 0 2.104zm18.005 0c1.387 0 1.387-2.104 0-2.104s-1.387 2.104 0 2.104zm18.005-.05c1.321 0 1.321-2.004 0-2.004s-1.321 2.004 0 2.004zm18.005-.15c1.123 0 1.123-1.703 0-1.703s-1.123 1.703 0 1.703zm18.005-.15c.925 0 .925-1.403 0-1.403s-.925 1.403 0 1.403zm18.005-.15c.727 0 .727-1.102 0-1.102s-.727 1.102 0 1.102zm18.005-.251c.396 0 .396-.601 0-.601s-.396.601 0 .601zm18.005-.2c.132 0 .132-.201 0-.201s-.133.201 0 .201zM126.431 36.585c.066 0 .066-.1 0-.1s-.066.1 0 .1zm18.005.251c.396 0 .396-.601 0-.601s-.396.601 0 .601zm18.005.301c.792 0 .792-1.203 0-1.203s-.793 1.203 0 1.203zm18.005.3c1.189 0 1.189-1.803 0-1.803s-1.19 1.803 0 1.803zm18.005.251c1.519 0 1.519-2.305 0-2.305s-1.52 2.305 0 2.305zm18.005.2c1.783 0 1.783-2.706 0-2.706s-1.784 2.706 0 2.706zm18.004.151c1.982 0 1.982-3.006 0-3.006s-1.981 3.006 0 3.006zm18.005.15c2.18 0 2.18-3.307 0-3.307s-2.179 3.307 0 3.307zm18.005.05c2.246 0 2.246-3.407 0-3.407s-2.246 3.407 0 3.407zm18.005.05c2.312 0 2.312-3.507 0-3.507s-2.312 3.507 0 3.507zm18.005-.05c2.246 0 2.246-3.407 0-3.407s-2.246 3.407 0 3.407zm18.005-.05c2.18 0 2.18-3.307 0-3.307s-2.18 3.307 0 3.307zm18.005-.1c2.048 0 2.048-3.106 0-3.106s-2.048 3.106 0 3.106zm18.005-.2c1.783 0 1.783-2.706 0-2.706s-1.783 2.706 0 2.706zm18.005-.2c1.519 0 1.519-2.305 0-2.305s-1.52 2.305 0 2.305zm18.005-.251c1.189 0 1.189-1.803 0-1.803s-1.189 1.803 0 1.803zm18.005-.25c.858 0 .858-1.303 0-1.303s-.859 1.303 0 1.303zm18.005-.3c.462 0 .462-.702 0-.702s-.463.702 0 .702zm18.004-.251c.133 0 .133-.2 0-.2s-.131.2 0 .2zM108.426 54.753c.198 0 .198-.3 0-.3s-.198.3 0 .3zm18.005.351c.66 0 .66-1.002 0-1.002s-.661 1.002 0 1.002zm18.005.401c1.189 0 1.189-1.804 0-1.804s-1.189 1.804 0 1.804zm18.005.3c1.585 0 1.585-2.405 0-2.405s-1.585 2.405 0 2.405zm18.005.301c1.981 0 1.981-3.006 0-3.006s-1.982 3.006 0 3.006zm18.005.3c2.378 0 2.378-3.607 0-3.607s-2.378 3.607 0 3.607zm18.005.2c2.641 0 2.641-4.008 0-4.008s-2.643 4.008 0 4.008zm18.004.201c2.907 0 2.907-4.409 0-4.409s-2.906 4.409 0 4.409zm18.005.1c3.039 0 3.039-4.609 0-4.609s-3.038 4.609 0 4.609zm18.005.1c3.171 0 3.171-4.81 0-4.81s-3.171 4.81 0 4.81zm18.005 0c3.171 0 3.171-4.81 0-4.81s-3.17 4.81 0 4.81zm18.005 0c3.171 0 3.171-4.81 0-4.81s-3.171 4.81 0 4.81zm18.005-.1c3.039 0 3.039-4.609 0-4.609s-3.038 4.609 0 4.609zm18.005-.1c2.906 0 2.906-4.409 0-4.409s-2.906 4.409 0 4.409zm18.005-.201c2.642 0 2.642-4.008 0-4.008s-2.643 4.008 0 4.008zm18.005-.2c2.378 0 2.378-3.607 0-3.607s-2.378 3.607 0 3.607zm18.005-.251c2.047 0 2.047-3.106 0-3.106s-2.048 3.106 0 3.106zm18.005-.3c1.651 0 1.651-2.505 0-2.505s-1.652 2.505 0 2.505zm18.005-.351c1.189 0 1.189-1.804 0-1.804s-1.189 1.804 0 1.804zm18.004-.351c.727 0 .727-1.102 0-1.102s-.726 1.102 0 1.102zm18.006-.351c.264 0 .264-.401 0-.401s-.265.401 0 .401zM90.421 72.87c.264 0 .264-.401 0-.401s-.264.401 0 .401zm18.005.451c.859 0 .859-1.302 0-1.302s-.859 1.302 0 1.302zm18.005.401c1.387 0 1.387-2.104 0-2.104s-1.387 2.104 0 2.104zm18.005.401c1.915 0 1.915-2.906 0-2.906s-1.916 2.906 0 2.906zm18.005.351c2.378 0 2.378-3.607 0-3.607s-2.378 3.607 0 3.607zm18.005.351c2.84 0 2.84-4.308 0-4.308s-2.841 4.308 0 4.308zm18.005.251c3.17 0 3.17-4.81 0-4.81s-3.171 4.81 0 4.81zm18.005.25c3.501 0 3.501-5.311 0-5.311s-3.502 5.311 0 5.311zm18.004.201c3.766 0 3.766-5.711 0-5.711s-3.765 5.711 0 5.711zm18.005.1c3.897 0 3.897-5.912 0-5.912s-3.897 5.912 0 5.912zm18.005.1c4.029 0 4.029-6.112 0-6.112s-4.029 6.112 0 6.112zm18.005.05c4.096 0 4.096-6.212 0-6.212s-4.095 6.212 0 6.212zm18.005-.05c4.03 0 4.03-6.112 0-6.112s-4.03 6.112 0 6.112zm18.005-.05c3.963 0 3.963-6.012 0-6.012s-3.963 6.012 0 6.012zm18.005-.15c3.765 0 3.765-5.711 0-5.711s-3.765 5.711 0 5.711zm18.005-.201c3.501 0 3.501-5.311 0-5.311s-3.501 5.311 0 5.311zm18.005-.2c3.236 0 3.236-4.91 0-4.91s-3.237 4.91 0 4.91zm18.005-.301c2.84 0 2.84-4.308 0-4.308s-2.841 4.308 0 4.308zm18.005-.301c2.444 0 2.444-3.707 0-3.707s-2.444 3.707 0 3.707zm18.005-.401c1.915 0 1.915-2.906 0-2.906s-1.916 2.906 0 2.906zm18.004-.351c1.454 0 1.454-2.204 0-2.204s-1.453 2.204 0 2.204zm18.006-.451c.858 0 .858-1.302 0-1.302s-.859 1.302 0 1.302zm18.005-.401c.33 0 .33-.501 0-.501s-.331.501 0 .501zM72.416 90.937c.265 0 .265-.401 0-.401s-.264.401 0 .401zm18.005.451c.859 0 .859-1.303 0-1.303s-.859 1.303 0 1.303zm18.005.501c1.519 0 1.519-2.305 0-2.305s-1.519 2.305 0 2.305zm18.005.451c2.114 0 2.114-3.206 0-3.206s-2.114 3.206 0 3.206zm18.005.401c2.642 0 2.642-4.008 0-4.008s-2.642 4.008 0 4.008zm18.005.351c3.104 0 3.104-4.709 0-4.709s-3.105 4.709 0 4.709zm18.005.351c3.567 0 3.567-5.411 0-5.411s-3.568 5.411 0 5.411zm18.005.301c3.963 0 3.963-6.012 0-6.012s-3.964 6.012 0 6.012zm18.005.25c4.293 0 4.293-6.513 0-6.513s-4.294 6.513 0 6.513zm18.004.2c4.558 0 4.558-6.914 0-6.914s-4.557 6.914 0 6.914zm18.005.15c4.757 0 4.757-7.214 0-7.214s-4.756 7.214 0 7.214zm18.005.1c4.888 0 4.888-7.415 0-7.415s-4.888 7.415 0 7.415zm18.005.05c4.954 0 4.954-7.515 0-7.515s-4.954 7.515 0 7.515zm18.005-.05c4.888 0 4.888-7.415 0-7.415s-4.888 7.415 0 7.415zm18.005-.05c4.822 0 4.822-7.315 0-7.315s-4.822 7.315 0 7.315zm18.005-.15c4.624 0 4.624-7.014 0-7.014s-4.624 7.014 0 7.014zm18.005-.2c4.36 0 4.36-6.613 0-6.613s-4.36 6.613 0 6.613zm18.005-.251c4.029 0 4.029-6.112 0-6.112s-4.029 6.112 0 6.112zm18.005-.3c3.633 0 3.633-5.511 0-5.511s-3.633 5.511 0 5.511zm18.005-.351c3.17 0 3.17-4.81 0-4.81s-3.171 4.81 0 4.81zm18.005-.351c2.708 0 2.708-4.108 0-4.108s-2.709 4.108 0 4.108zm18.004-.451c2.114 0 2.114-3.206 0-3.206s-2.113 3.206 0 3.206zm18.006-.401c1.585 0 1.585-2.405 0-2.405s-1.586 2.405 0 2.405zm18.005-.501c.924 0 .924-1.403 0-1.403s-.925 1.403 0 1.403zm18.004-.451c.331 0 .331-.501 0-.501s-.33.501 0 .501zM54.411 108.954c.198 0 .198-.301 0-.301s-.198.301 0 .301zm18.005.501c.859 0 .859-1.303 0-1.303s-.859 1.303 0 1.303zm18.005.501c1.519 0 1.519-2.305 0-2.305s-1.52 2.305 0 2.305zm18.005.501c2.18 0 2.18-3.307 0-3.307s-2.18 3.307 0 3.307zm18.005.451c2.774 0 2.774-4.209 0-4.209s-2.774 4.209 0 4.209zm18.005.451c3.368 0 3.368-5.11 0-5.11s-3.369 5.11 0 5.11zm18.005.4c3.897 0 3.897-5.911 0-5.911s-3.898 5.911 0 5.911zm18.005.351c4.359 0 4.359-6.613 0-6.613s-4.36 6.613 0 6.613zm18.005.301c4.755 0 4.755-7.215 0-7.215s-4.756 7.215 0 7.215zm18.005.3c5.152 0 5.152-7.815 0-7.815s-5.153 7.815 0 7.815zm18.004.201c5.417 0 5.417-8.217 0-8.217s-5.416 8.217 0 8.217zm18.005.15c5.615 0 5.615-8.517 0-8.517s-5.614 8.517 0 8.517zm18.005.1c5.747 0 5.747-8.717 0-8.717s-5.747 8.717 0 8.717zm18.005.05c5.813 0 5.813-8.817 0-8.817s-5.813 8.817 0 8.817zm18.005-.05c5.747 0 5.747-8.717 0-8.717s-5.747 8.717 0 8.717zm18.005-.05c5.681 0 5.681-8.617 0-8.617s-5.681 8.617 0 8.617zm18.005-.2c5.416 0 5.416-8.217 0-8.217s-5.417 8.217 0 8.217zm18.005-.201c5.152 0 5.152-7.815 0-7.815s-5.152 7.815 0 7.815zm18.005-.25c4.822 0 4.822-7.315 0-7.315s-4.822 7.315 0 7.315zm18.005-.351c4.359 0 4.359-6.613 0-6.613s-4.36 6.613 0 6.613zm18.005-.351c3.897 0 3.897-5.911 0-5.911s-3.898 5.911 0 5.911zm18.005-.4c3.368 0 3.368-5.11 0-5.11s-3.37 5.11 0 5.11zm18.004-.401c2.841 0 2.841-4.309 0-4.309s-2.84 4.309 0 4.309zm18.006-.501c2.179 0 2.179-3.307 0-3.307s-2.18 3.307 0 3.307zm18.005-.451c1.585 0 1.585-2.405 0-2.405s-1.586 2.405 0 2.405zm18.004-.551c.859 0 .859-1.303 0-1.303s-.858 1.303 0 1.303zm18.005-.451c.264 0 .264-.401 0-.401s-.264.401 0 .401zM36.407 126.921c.066 0 .066-.1 0-.1s-.066.1 0 .1zm18.005.451c.66 0 .66-1.002 0-1.002s-.661 1.002 0 1.002zm18.005.551c1.387 0 1.387-2.104 0-2.104s-1.387 2.104 0 2.104zm18.005.551c2.114 0 2.114-3.206 0-3.206s-2.114 3.206 0 3.206zm18.005.501c2.774 0 2.774-4.209 0-4.209s-2.775 4.209 0 4.209zm18.005.501c3.435 0 3.435-5.21 0-5.21s-3.435 5.21 0 5.21zm18.005.451c4.029 0 4.029-6.112 0-6.112s-4.03 6.112 0 6.112zm18.005.401c4.558 0 4.558-6.914 0-6.914s-4.558 6.914 0 6.914zm18.005.4c5.086 0 5.086-7.715 0-7.715s-5.087 7.715 0 7.715zm18.005.351c5.548 0 5.548-8.417 0-8.417s-5.549 8.417 0 8.417zm18.005.301c5.945 0 5.945-9.018 0-9.018s-5.945 9.018 0 9.018zm18.004.25c6.276 0 6.276-9.519 0-9.519s-6.275 9.519 0 9.519zm18.005.15c6.474 0 6.474-9.819 0-9.819s-6.473 9.819 0 9.819zm18.005.101c6.606 0 6.606-10.02 0-10.02s-6.606 10.02 0 10.02zm18.005.05c6.672 0 6.672-10.12 0-10.12s-6.671 10.12 0 10.12zm18.005 0c6.672 0 6.672-10.12 0-10.12s-6.672 10.12 0 10.12zm18.005-.1c6.54 0 6.54-9.92 0-9.92s-6.54 9.92 0 9.92zm18.005-.201c6.275 0 6.275-9.519 0-9.519s-6.275 9.519 0 9.519zm18.005-.25c5.945 0 5.945-9.018 0-9.018s-5.945 9.018 0 9.018zm18.005-.301c5.549 0 5.549-8.417 0-8.417s-5.549 8.417 0 8.417zm18.005-.3c5.152 0 5.152-7.816 0-7.816s-5.152 7.816 0 7.816zm18.005-.401c4.624 0 4.624-7.014 0-7.014s-4.624 7.014 0 7.014zm18.005-.451c4.029 0 4.029-6.112 0-6.112s-4.03 6.112 0 6.112zm18.004-.451c3.435 0 3.435-5.21 0-5.21s-3.434 5.21 0 5.21zm18.006-.451c2.84 0 2.84-4.309 0-4.309s-2.841 4.309 0 4.309zm18.005-.501c2.179 0 2.179-3.307 0-3.307s-2.181 3.307 0 3.307zm18.004-.551c1.454 0 1.454-2.204 0-2.204s-1.453 2.204 0 2.204zm18.005-.551c.727 0 .727-1.102 0-1.102s-.727 1.102 0 1.102zm18.005-.451c.133 0 .133-.2 0-.2s-.132.2 0 .2zM36.407 145.239c.396 0 .396-.602 0-.602s-.397.602 0 .602zm18.005.601c1.189 0 1.189-1.804 0-1.804s-1.189 1.804 0 1.804zm18.005.551c1.916 0 1.916-2.906 0-2.906s-1.915 2.906 0 2.906zm18.005.551c2.642 0 2.642-4.008 0-4.008s-2.642 4.008 0 4.008zm18.005.551c3.369 0 3.369-5.11 0-5.11s-3.369 5.11 0 5.11zm18.005.501c4.029 0 4.029-6.112 0-6.112s-4.03 6.112 0 6.112zm18.005.501c4.69 0 4.69-7.114 0-7.114s-4.69 7.114 0 7.114zm18.005.451c5.284 0 5.284-8.016 0-8.016s-5.285 8.016 0 8.016zm18.005.401c5.813 0 5.813-8.818 0-8.818s-5.813 8.818 0 8.818zm18.005.35c6.275 0 6.275-9.519 0-9.519s-6.276 9.519 0 9.519zm18.005.351c6.737 0 6.737-10.22 0-10.22s-6.738 10.22 0 10.22zm18.004.251c7.068 0 7.068-10.722 0-10.722s-7.068 10.722 0 10.722zm18.005.2c7.333 0 7.333-11.122 0-11.122s-7.332 11.122 0 11.122zm18.005.15c7.531 0 7.531-11.422 0-11.422s-7.53 11.422 0 11.422zm18.005.05c7.597 0 7.597-11.523 0-11.523s-7.596 11.523 0 11.523zm18.005-.05c7.53 0 7.53-11.422 0-11.422s-7.53 11.422 0 11.422zm18.005-.15c7.332 0 7.332-11.122 0-11.122s-7.332 11.122 0 11.122zm18.005-.15c7.134 0 7.134-10.822 0-10.822s-7.134 10.822 0 10.822zm18.005-.301c6.738 0 6.738-10.22 0-10.22s-6.738 10.22 0 10.22zm18.005-.301c6.341 0 6.341-9.619 0-9.619s-6.342 9.619 0 9.619zm18.005-.4c5.813 0 5.813-8.818 0-8.818s-5.813 8.818 0 8.818zm18.005-.401c5.284 0 5.284-8.016 0-8.016s-5.285 8.016 0 8.016zm18.005-.451c4.69 0 4.69-7.114 0-7.114s-4.69 7.114 0 7.114zm18.004-.451c4.096 0 4.096-6.212 0-6.212s-4.095 6.212 0 6.212zm18.006-.551c3.368 0 3.368-5.11 0-5.11s-3.369 5.11 0 5.11zm18.005-.501c2.708 0 2.708-4.108 0-4.108s-2.709 4.108 0 4.108zm18.004-.551c1.982 0 1.982-3.006 0-3.006s-1.982 3.006 0 3.006zm18.005-.601c1.189 0 1.189-1.804 0-1.804s-1.189 1.804 0 1.804zm18.005-.551c.463 0 .463-.702 0-.702s-.462.702 0 .702zM18.401 163.105c.132 0 .132-.2 0-.2s-.132.2 0 .2zm18.005.501c.792 0 .792-1.202 0-1.202s-.793 1.202 0 1.202zm18.005.601c1.585 0 1.585-2.404 0-2.404s-1.586 2.404 0 2.404zm18.005.602c2.378 0 2.378-3.608 0-3.608s-2.378 3.608 0 3.608zm18.005.551c3.104 0 3.104-4.71 0-4.71s-3.105 4.71 0 4.71zm18.005.601c3.897 0 3.897-5.912 0-5.912s-3.897 5.912 0 5.912zm18.005.501c4.558 0 4.558-6.914 0-6.914s-4.558 6.914 0 6.914zm18.005.551c5.284 0 5.284-8.016 0-8.016s-5.285 8.016 0 8.016zm18.005.451c5.879 0 5.879-8.918 0-8.918s-5.879 8.918 0 8.918zm18.005.451c6.473 0 6.473-9.82 0-9.82s-6.474 9.82 0 9.82zm18.005.401c7.001 0 7.001-10.621 0-10.621s-7.002 10.621 0 10.621zm18.005.4c7.53 0 7.53-11.422 0-11.422s-7.531 11.422 0 11.422zm18.004.301c7.927 0 7.927-12.024 0-12.024s-7.926 12.024 0 12.024zm18.005.2c8.191 0 8.191-12.424 0-12.424s-8.191 12.424 0 12.424zm18.005.151c8.389 0 8.389-12.726 0-12.726s-8.389 12.726 0 12.726zm18.005.05c8.455 0 8.455-12.826 0-12.826s-8.455 12.826 0 12.826zm18.005-.05c8.389 0 8.389-12.726 0-12.726s-8.389 12.726 0 12.726zm18.005-.151c8.191 0 8.191-12.424 0-12.424s-8.191 12.424 0 12.424zm18.005-.2c7.927 0 7.927-12.024 0-12.024s-7.927 12.024 0 12.024zm18.005-.301c7.53 0 7.53-11.422 0-11.422s-7.531 11.422 0 11.422zm18.005-.35c7.068 0 7.068-10.722 0-10.722s-7.068 10.722 0 10.722zm18.005-.401c6.539 0 6.539-9.92 0-9.92s-6.54 9.92 0 9.92zm18.005-.451c5.945 0 5.945-9.018 0-9.018s-5.945 9.018 0 9.018zm18.005-.501c5.284 0 5.284-8.016 0-8.016s-5.285 8.016 0 8.016zm18.004-.501c4.624 0 4.624-7.014 0-7.014s-4.623 7.014 0 7.014zm18.006-.501c3.963 0 3.963-6.012 0-6.012s-3.964 6.012 0 6.012zm18.005-.601c3.17 0 3.17-4.81 0-4.81s-3.171 4.81 0 4.81zm18.004-.551c2.444 0 2.444-3.708 0-3.708s-2.444 3.708 0 3.708zm18.005-.601c1.652 0 1.652-2.505 0-2.505s-1.651 2.505 0 2.505zm18.005-.602c.859 0 .859-1.302 0-1.302s-.858 1.302 0 1.302zm18.005-.551c.132 0 .132-.2 0-.2s-.132.2 0 .2zM18.401 181.373c.397 0 .397-.601 0-.601s-.396.601 0 .601zm18.005.601c1.189 0 1.189-1.804 0-1.804s-1.189 1.804 0 1.804zm18.005.601c1.982 0 1.982-3.006 0-3.006s-1.982 3.006 0 3.006zm18.005.651c2.841 0 2.841-4.308 0-4.308s-2.84 4.308 0 4.308zm18.005.552c3.567 0 3.567-5.411 0-5.411s-3.567 5.411 0 5.411zm18.005.601c4.359 0 4.359-6.613 0-6.613s-4.36 6.613 0 6.613zm18.005.551c5.086 0 5.086-7.715 0-7.715s-5.086 7.715 0 7.715zm18.005.551c5.813 0 5.813-8.818 0-8.818s-5.813 8.818 0 8.818zm18.005.501c6.473 0 6.473-9.82 0-9.82s-6.474 9.82 0 9.82zm18.005.501c7.134 0 7.134-10.822 0-10.822s-7.134 10.822 0 10.822zm18.005.451c7.728 0 7.728-11.724 0-11.724s-7.729 11.724 0 11.724zm18.005.401c8.256 0 8.256-12.525 0-12.525s-8.258 12.525 0 12.525zm18.004.35c8.72 0 8.72-13.226 0-13.226s-8.719 13.226 0 13.226zm18.005.251c9.05 0 9.05-13.728 0-13.728s-9.049 13.728 0 13.728zm18.005.15c9.248 0 9.248-14.028 0-14.028s-9.248 14.028 0 14.028zm18.005.05c9.314 0 9.314-14.128 0-14.128s-9.314 14.128 0 14.128zm18.005-.05c9.248 0 9.248-14.028 0-14.028s-9.248 14.028 0 14.028zm18.005-.15c9.05 0 9.05-13.728 0-13.728s-9.05 13.728 0 13.728zm18.005-.251c8.719 0 8.719-13.226 0-13.226s-8.72 13.226 0 13.226zm18.005-.3c8.323 0 8.323-12.625 0-12.625s-8.323 12.625 0 12.625zm18.005-.401c7.795 0 7.795-11.824 0-11.824s-7.795 11.824 0 11.824zm18.005-.451c7.2 0 7.2-10.922 0-10.922s-7.2 10.922 0 10.922zm18.005-.501c6.539 0 6.539-9.92 0-9.92s-6.54 9.92 0 9.92zm18.005-.501c5.879 0 5.879-8.918 0-8.918s-5.879 8.918 0 8.918zm18.004-.551c5.153 0 5.153-7.816 0-7.816s-5.152 7.816 0 7.816zm18.006-.551c4.425 0 4.425-6.714 0-6.714s-4.426 6.714 0 6.714zm18.005-.601c3.632 0 3.632-5.511 0-5.511s-3.634 5.511 0 5.511zm18.004-.602c2.841 0 2.841-4.308 0-4.308s-2.84 4.308 0 4.308zm18.005-.601c2.048 0 2.048-3.106 0-3.106s-2.048 3.106 0 3.106zm18.005-.601c1.255 0 1.255-1.904 0-1.904s-1.255 1.904 0 1.904zm18.005-.601c.462 0 .462-.702 0-.702s-.462.702 0 .702zM.396 199.189c.066 0 .066-.1 0-.1s-.066.1 0 .1zm18.005.451c.661 0 .661-1.002 0-1.002s-.66 1.002 0 1.002zm18.005.652c1.519 0 1.519-2.305 0-2.305s-1.52 2.305 0 2.305zm18.005.651c2.378 0 2.378-3.607 0-3.607s-2.378 3.607 0 3.607zm18.005.601c3.171 0 3.171-4.809 0-4.809s-3.171 4.809 0 4.809zm18.005.601c3.963 0 3.963-6.012 0-6.012s-3.963 6.012 0 6.012zm18.005.601c4.756 0 4.756-7.214 0-7.214s-4.756 7.214 0 7.214zm18.005.602c5.549 0 5.549-8.417 0-8.417s-5.549 8.417 0 8.417zm18.005.551c6.275 0 6.275-9.519 0-9.519s-6.276 9.519 0 9.519zm18.005.551c7.001 0 7.001-10.621 0-10.621s-7.002 10.621 0 10.621zm18.005.551c7.728 0 7.728-11.723 0-11.723s-7.729 11.723 0 11.723zm18.005.501c8.389 0 8.389-12.725 0-12.725s-8.39 12.725 0 12.725zm18.005.451c8.983 0 8.983-13.627 0-13.627s-8.984 13.627 0 13.627zm18.004.401c9.512 0 9.512-14.429 0-14.429s-9.512 14.429 0 14.429zm18.005.3c9.909 0 9.909-15.03 0-15.03s-9.908 15.03 0 15.03zm18.005.201c10.173 0 10.173-15.431 0-15.431s-10.172 15.431 0 15.431zm18.005.05c10.239 0 10.239-15.531 0-15.531s-10.238 15.531 0 15.531zm18.005-.05c10.173 0 10.173-15.431 0-15.431s-10.173 15.431 0 15.431zm18.005-.201c9.908 0 9.908-15.03 0-15.03s-9.908 15.03 0 15.03zm18.005-.3c9.512 0 9.512-14.429 0-14.429s-9.512 14.429 0 14.429zm18.005-.351c9.05 0 9.05-13.727 0-13.727s-9.05 13.727 0 13.727zm18.005-.451c8.455 0 8.455-12.825 0-12.825s-8.455 12.825 0 12.825zm18.005-.501c7.794 0 7.794-11.823 0-11.823s-7.795 11.823 0 11.823zm18.005-.551c7.067 0 7.067-10.721 0-10.721s-7.068 10.721 0 10.721zm18.005-.551c6.341 0 6.341-9.619 0-9.619s-6.342 9.619 0 9.619zm18.004-.551c5.615 0 5.615-8.517 0-8.517s-5.614 8.517 0 8.517zm18.006-.602c4.822 0 4.822-7.314 0-7.314s-4.823 7.314 0 7.314zm18.005-.601c4.029 0 4.029-6.112 0-6.112s-4.03 6.112 0 6.112zm18.004-.601c3.237 0 3.237-4.91 0-4.91s-3.236 4.91 0 4.91zm18.005-.601c2.444 0 2.444-3.707 0-3.707s-2.444 3.707 0 3.707zm18.005-.651c1.586 0 1.586-2.405 0-2.405s-1.585 2.405 0 2.405zm18.005-.652c.727 0 .727-1.102 0-1.102s-.726 1.102 0 1.102zm18.005-.501c.066 0 .066-.1 0-.1s-.066.1 0 .1zM.396 217.307c.132 0 .132-.201 0-.201s-.132.201 0 .201zm18.005.601c.925 0 .925-1.403 0-1.403s-.924 1.403 0 1.403zm18.005.651c1.783 0 1.783-2.705 0-2.705s-1.784 2.705 0 2.705zm18.005.652c2.642 0 2.642-4.008 0-4.008s-2.642 4.008 0 4.008zm18.005.651c3.501 0 3.501-5.311 0-5.311s-3.501 5.311 0 5.311zm18.005.601c4.293 0 4.293-6.513 0-6.513s-4.294 6.513 0 6.513zm18.005.651c5.152 0 5.152-7.815 0-7.815s-5.152 7.815 0 7.815zm18.005.601c5.945 0 5.945-9.018 0-9.018s-5.945 9.018 0 9.018zm18.005.602c6.737 0 6.737-10.221 0-10.221s-6.738 10.221 0 10.221zm18.005.601c7.53 0 7.53-11.423 0-11.423s-7.53 11.423 0 11.423zm18.005.551c8.257 0 8.257-12.525 0-12.525s-8.258 12.525 0 12.525zm18.005.551c8.983 0 8.983-13.627 0-13.627s-8.984 13.627 0 13.627zm18.005.501c9.644 0 9.644-14.629 0-14.629s-9.645 14.629 0 14.629zm18.004.451c10.239 0 10.239-15.531 0-15.531s-10.238 15.531 0 15.531zm18.005.351c10.701 0 10.701-16.233 0-16.233s-10.701 16.233 0 16.233zm18.005.25c11.032 0 11.032-16.733 0-16.733s-11.031 16.733 0 16.733zm18.005.1c11.164 0 11.164-16.933 0-16.933s-11.163 16.933 0 16.933zm18.005-.1c11.031 0 11.031-16.733 0-16.733s-11.031 16.733 0 16.733zm18.005-.25c10.701 0 10.701-16.233 0-16.233s-10.701 16.233 0 16.233zm18.005-.351c10.239 0 10.239-15.531 0-15.531s-10.239 15.531 0 15.531zm18.005-.401c9.71 0 9.71-14.729 0-14.729s-9.71 14.729 0 14.729zm18.005-.501c9.049 0 9.049-13.727 0-13.727s-9.05 13.727 0 13.727zm18.005-.551c8.323 0 8.323-12.625 0-12.625s-8.323 12.625 0 12.625zm18.005-.551c7.596 0 7.596-11.523 0-11.523s-7.597 11.523 0 11.523zm18.005-.601c6.803 0 6.803-10.321 0-10.321s-6.804 10.321 0 10.321zm18.004-.601c6.012 0 6.012-9.119 0-9.119s-6.011 9.119 0 9.119zm18.006-.602c5.218 0 5.218-7.915 0-7.915s-5.219 7.915 0 7.915zm18.005-.651c4.359 0 4.359-6.613 0-6.613s-4.36 6.613 0 6.613zm18.004-.601c3.567 0 3.567-5.411 0-5.411s-3.567 5.411 0 5.411zm18.005-.651c2.709 0 2.709-4.109 0-4.109s-2.708 4.109 0 4.109zm18.005-.652c1.85 0 1.85-2.805 0-2.805s-1.849 2.805 0 2.805zm18.005-.651c.991 0 .991-1.503 0-1.503s-.991 1.503 0 1.503zm18.005-.601c.198 0 .198-.301 0-.301s-.198.301 0 .301zM.396 235.474c.264 0 .264-.401 0-.401s-.264.401 0 .401zm18.005.651c1.123 0 1.123-1.703 0-1.703s-1.123 1.703 0 1.703zm18.005.652c1.981 0 1.981-3.007 0-3.007s-1.982 3.007 0 3.007zm18.005.701c2.907 0 2.907-4.409 0-4.409s-2.907 4.409 0 4.409zm18.005.651c3.766 0 3.766-5.711 0-5.711s-3.765 5.711 0 5.711zm18.005.602c4.558 0 4.558-6.914 0-6.914s-4.558 6.914 0 6.914zm18.005.651c5.417 0 5.417-8.217 0-8.217s-5.417 8.217 0 8.217zm18.005.651c6.275 0 6.275-9.519 0-9.519s-6.276 9.519 0 9.519zm18.005.601c7.068 0 7.068-10.721 0-10.721s-7.068 10.721 0 10.721zm18.005.652c7.926 0 7.926-12.024 0-12.024s-7.927 12.024 0 12.024zm18.005.601c8.719 0 8.719-13.227 0-13.227s-8.72 13.227 0 13.227zm18.005.601c9.511 0 9.511-14.429 0-14.429s-9.513 14.429 0 14.429zm18.005.551c10.238 0 10.238-15.531 0-15.531s-10.239 15.531 0 15.531zm18.004.501c10.9 0 10.9-16.533 0-16.533s-10.899 16.533 0 16.533zm18.005.451c11.494 0 11.494-17.435 0-17.435s-11.493 17.435 0 17.435zm18.005.251c11.824 0 11.824-17.936 0-17.936s-11.824 17.936 0 17.936zm18.005.15c12.022 0 12.022-18.237 0-18.237s-12.022 18.237 0 18.237zm18.005-.1c11.89 0 11.89-18.036 0-18.036s-11.89 18.036 0 18.036zm18.005-.301c11.494 0 11.494-17.435 0-17.435s-11.493 17.435 0 17.435zm18.005-.401c10.965 0 10.965-16.633 0-16.633s-10.965 16.633 0 16.633zm18.005-.501c10.305 0 10.305-15.631 0-15.631s-10.305 15.631 0 15.631zm18.005-.601c9.512 0 9.512-14.429 0-14.429s-9.512 14.429 0 14.429zm18.005-.551c8.785 0 8.785-13.327 0-13.327s-8.786 13.327 0 13.327zm18.005-.601c7.992 0 7.992-12.124 0-12.124s-7.993 12.124 0 12.124zm18.005-.652c7.134 0 7.134-10.821 0-10.821s-7.134 10.821 0 10.821zm18.004-.601c6.342 0 6.342-9.619 0-9.619s-6.341 9.619 0 9.619zm18.006-.651c5.482 0 5.482-8.317 0-8.317s-5.483 8.317 0 8.317zm18.005-.651c4.623 0 4.623-7.014 0-7.014s-4.625 7.014 0 7.014zm18.004-.602c3.832 0 3.832-5.811 0-5.811s-3.831 5.811 0 5.811zm18.005-.651c2.973 0 2.973-4.509 0-4.509s-2.972 4.509 0 4.509zm18.005-.701c2.048 0 2.048-3.107 0-3.107s-2.048 3.107 0 3.107zm18.005-.652c1.189 0 1.189-1.803 0-1.803s-1.189 1.803 0 1.803zm18.005-.651c.33 0 .33-.501 0-.501s-.33.501 0 .501zM.396 253.641c.396 0 .396-.601 0-.601s-.396.601 0 .601zm18.005.652c1.255 0 1.255-1.904 0-1.904s-1.255 1.904 0 1.904zm18.005.701c2.179 0 2.179-3.306 0-3.306s-2.18 3.306 0 3.306zm18.005.651c3.038 0 3.038-4.609 0-4.609s-3.038 4.609 0 4.609zm18.005.652c3.898 0 3.898-5.912 0-5.912s-3.897 5.912 0 5.912zm18.005.651c4.756 0 4.756-7.214 0-7.214s-4.756 7.214 0 7.214zm18.005.651c5.615 0 5.615-8.517 0-8.517s-5.615 8.517 0 8.517zm18.005.652c6.474 0 6.474-9.82 0-9.82s-6.474 9.82 0 9.82zm18.005.651c7.332 0 7.332-11.122 0-11.122s-7.332 11.122 0 11.122zm18.005.651c8.191 0 8.191-12.425 0-12.425s-8.191 12.425 0 12.425zm18.005.651c9.049 0 9.049-13.727 0-13.727s-9.05 13.727 0 13.727zm18.005.652c9.908 0 9.908-15.03 0-15.03s-9.909 15.03 0 15.03zm18.005.601c10.701 0 10.701-16.233 0-16.233s-10.702 16.233 0 16.233zm18.004.601c11.494 0 11.494-17.435 0-17.435s-11.494 17.435 0 17.435zm18.005.501c12.155 0 12.155-18.437 0-18.437s-12.154 18.437 0 18.437zm18.005.401c12.683 0 12.683-19.238 0-19.238s-12.683 19.238 0 19.238zm18.005.15c12.881 0 12.881-19.539 0-19.539s-12.881 19.539 0 19.539zm18.005-.15c12.683 0 12.683-19.238 0-19.238s-12.683 19.238 0 19.238zm18.005-.351c12.221 0 12.221-18.537 0-18.537s-12.221 18.537 0 18.537zm18.005-.551c11.494 0 11.494-17.435 0-17.435s-11.494 17.435 0 17.435zm18.005-.551c10.767 0 10.767-16.333 0-16.333s-10.767 16.333 0 16.333zm18.005-.601c9.974 0 9.974-15.13 0-15.13s-9.975 15.13 0 15.13zm18.005-.652c9.115 0 9.115-13.827 0-13.827s-9.116 13.827 0 13.827zm18.005-.651c8.257 0 8.257-12.525 0-12.525s-8.257 12.525 0 12.525zm18.005-.651c7.398 0 7.398-11.222 0-11.222s-7.399 11.222 0 11.222zm18.004-.651c6.54 0 6.54-9.92 0-9.92s-6.539 9.92 0 9.92zm18.006-.652c5.68 0 5.68-8.617 0-8.617s-5.681 8.617 0 8.617zm18.005-.651c4.822 0 4.822-7.315 0-7.315s-4.823 7.315 0 7.315zm18.004-.651c3.964 0 3.964-6.012 0-6.012s-3.963 6.012 0 6.012zm18.005-.652c3.105 0 3.105-4.709 0-4.709s-3.104 4.709 0 4.709zm18.005-.651c2.246 0 2.246-3.407 0-3.407s-2.246 3.407 0 3.407zm18.005-.701c1.321 0 1.321-2.004 0-2.004s-1.321 2.004 0 2.004zm18.005-.652c.463 0 .463-.701 0-.701s-.463.701 0 .701zM.396 271.759c.462 0 .462-.702 0-.702s-.462.702 0 .702zm18.005.701c1.387 0 1.387-2.104 0-2.104s-1.387 2.104 0 2.104zm18.005.651c2.246 0 2.246-3.406 0-3.406s-2.246 3.406 0 3.406zm18.005.702c3.171 0 3.171-4.81 0-4.81s-3.171 4.81 0 4.81zm18.005.651c4.029 0 4.029-6.112 0-6.112s-4.029 6.112 0 6.112zm18.005.651c4.888 0 4.888-7.415 0-7.415s-4.888 7.415 0 7.415zm18.005.651c5.747 0 5.747-8.717 0-8.717s-5.747 8.717 0 8.717zm18.005.652c6.605 0 6.605-10.02 0-10.02s-6.606 10.02 0 10.02zm18.005.701c7.53 0 7.53-11.422 0-11.422s-7.531 11.422 0 11.422zm18.005.652c8.389 0 8.389-12.726 0-12.726s-8.39 12.726 0 12.726zm18.005.651c9.247 0 9.247-14.028 0-14.028s-9.248 14.028 0 14.028zm18.005.701c10.172 0 10.172-15.431 0-15.431s-10.173 15.431 0 15.431zm18.005.651c11.031 0 11.031-16.733 0-16.733s-11.032 16.733 0 16.733zm18.004.602c11.825 0 11.825-17.936 0-17.936s-11.824 17.936 0 17.936zm18.005.651c12.683 0 12.683-19.238 0-19.238s-12.682 19.238 0 19.238zm18.005.551c13.41 0 13.41-20.34 0-20.34s-13.409 20.34 0 20.34zm18.005.251c13.74 0 13.74-20.842 0-20.842s-13.739 20.842 0 20.842zm18.005-.201c13.476 0 13.476-20.44 0-20.44s-13.475 20.44 0 20.44zm18.005-.551c12.749 0 12.749-19.338 0-19.338s-12.749 19.338 0 19.338zm18.005-.651c11.89 0 11.89-18.036 0-18.036s-11.89 18.036 0 18.036zm18.005-.601c11.097 0 11.097-16.834 0-16.834s-11.097 16.834 0 16.834zm18.005-.652c10.239 0 10.239-15.531 0-15.531s-10.239 15.531 0 15.531zm18.005-.701c9.314 0 9.314-14.128 0-14.128s-9.314 14.128 0 14.128zm18.005-.651c8.455 0 8.455-12.826 0-12.826s-8.455 12.826 0 12.826zm18.005-.652c7.596 0 7.596-11.523 0-11.523s-7.597 11.523 0 11.523zm18.004-.701c6.672 0 6.672-10.12 0-10.12s-6.671 10.12 0 10.12zm18.006-.651c5.812 0 5.812-8.818 0-8.818s-5.814 8.818 0 8.818zm18.005-.652c4.954 0 4.954-7.515 0-7.515s-4.955 7.515 0 7.515zm18.004-.651c4.096 0 4.096-6.212 0-6.212s-4.095 6.212 0 6.212zm18.005-.651c3.237 0 3.237-4.91 0-4.91s-3.236 4.91 0 4.91zm18.005-.702c2.312 0 2.312-3.507 0-3.507s-2.312 3.507 0 3.507zm18.005-.651c1.453 0 1.453-2.204 0-2.204s-1.453 2.204 0 2.204zm18.005-.701c.529 0 .529-.802 0-.802s-.528.802 0 .802zM.396 289.876c.528 0 .528-.802 0-.802s-.529.802 0 .802zm18.005.651c1.387 0 1.387-2.104 0-2.104s-1.387 2.104 0 2.104zm18.005.701c2.312 0 2.312-3.506 0-3.506s-2.312 3.506 0 3.506zm18.005.652c3.171 0 3.171-4.81 0-4.81s-3.171 4.81 0 4.81zm18.005.701c4.096 0 4.096-6.212 0-6.212s-4.095 6.212 0 6.212zm18.005.652c4.954 0 4.954-7.516 0-7.516s-4.954 7.516 0 7.516zm18.005.651c5.813 0 5.813-8.818 0-8.818s-5.813 8.818 0 8.818zm18.005.651c6.672 0 6.672-10.12 0-10.12s-6.672 10.12 0 10.12zm18.005.701c7.596 0 7.596-11.522 0-11.522s-7.597 11.522 0 11.522zm18.005.652c8.455 0 8.455-12.826 0-12.826s-8.455 12.826 0 12.826zm18.005.651c9.314 0 9.314-14.128 0-14.128s-9.314 14.128 0 14.128zm18.005.701c10.238 0 10.238-15.53 0-15.53s-10.239 15.53 0 15.53zm18.005.702c11.163 0 11.163-16.934 0-16.934s-11.164 16.934 0 16.934zm18.004.651c12.023 0 12.023-18.236 0-18.236s-12.022 18.236 0 18.236zm18.005.651c12.881 0 12.881-19.538 0-19.538s-12.881 19.538 0 19.538zm18.005.652c13.74 0 13.74-20.842 0-20.842s-13.739 20.842 0 20.842zm18.005.501c14.4 0 14.4-21.844 0-21.844s-14.4 21.844 0 21.844zm18.005-.451c13.806 0 13.806-20.942 0-20.942s-13.806 20.942 0 20.942zm18.005-.652c12.947 0 12.947-19.638 0-19.638s-12.947 19.638 0 19.638zm18.005-.651c12.088 0 12.088-18.336 0-18.336s-12.089 18.336 0 18.336zm18.005-.701c11.163 0 11.163-16.934 0-16.934s-11.164 16.934 0 16.934zm18.005-.651c10.304 0 10.304-15.632 0-15.632s-10.305 15.632 0 15.632zm18.005-.702c9.38 0 9.38-14.228 0-14.228s-9.38 14.228 0 14.228zm18.005-.651c8.521 0 8.521-12.926 0-12.926s-8.522 12.926 0 12.926zm18.005-.652c7.662 0 7.662-11.623 0-11.623s-7.663 11.623 0 11.623zm18.004-.701c6.738 0 6.738-10.22 0-10.22s-6.737 10.22 0 10.22zm18.006-.651c5.878 0 5.878-8.918 0-8.918s-5.879 8.918 0 8.918zm18.005-.651c5.02 0 5.02-7.616 0-7.616s-5.021 7.616 0 7.616zm18.004-.652c4.162 0 4.162-6.312 0-6.312s-4.161 6.312 0 6.312zm18.005-.701c3.237 0 3.237-4.91 0-4.91s-3.236 4.91 0 4.91zm18.005-.651c2.378 0 2.378-3.608 0-3.608s-2.378 3.608 0 3.608zm18.005-.702c1.453 0 1.453-2.204 0-2.204s-1.453 2.204 0 2.204zm18.005-.651c.595 0 .595-.902 0-.902s-.594.902 0 .902zM.396 307.943c.528 0 .528-.802 0-.802s-.529.802 0 .802zm18.005.651c1.387 0 1.387-2.104 0-2.104s-1.387 2.104 0 2.104zm18.005.651c2.246 0 2.246-3.406 0-3.406s-2.246 3.406 0 3.406zm18.005.702c3.171 0 3.171-4.81 0-4.81s-3.171 4.81 0 4.81zm18.005.651c4.029 0 4.029-6.112 0-6.112s-4.029 6.112 0 6.112zm18.005.652c4.888 0 4.888-7.415 0-7.415s-4.888 7.415 0 7.415zm18.005.651c5.747 0 5.747-8.718 0-8.718s-5.747 8.718 0 8.718zm18.005.701c6.672 0 6.672-10.12 0-10.12s-6.672 10.12 0 10.12zm18.005.651c7.53 0 7.53-11.422 0-11.422s-7.531 11.422 0 11.422zm18.005.652c8.389 0 8.389-12.726 0-12.726s-8.39 12.726 0 12.726zm18.005.651c9.247 0 9.247-14.028 0-14.028s-9.248 14.028 0 14.028zm18.005.702c10.172 0 10.172-15.431 0-15.431s-10.173 15.431 0 15.431zm18.005.651c11.031 0 11.031-16.733 0-16.733s-11.032 16.733 0 16.733zm18.004.651c11.891 0 11.891-18.036 0-18.036s-11.89 18.036 0 18.036zm18.005.601c12.683 0 12.683-19.238 0-19.238s-12.682 19.238 0 19.238zm18.005.601c13.476 0 13.476-20.44 0-20.44s-13.475 20.44 0 20.44zm18.005.251c13.806 0 13.806-20.942 0-20.942s-13.806 20.942 0 20.942zm18.005-.251c13.476 0 13.476-20.44 0-20.44s-13.475 20.44 0 20.44zm18.005-.551c12.749 0 12.749-19.338 0-19.338s-12.749 19.338 0 19.338zm18.005-.601c11.956 0 11.956-18.136 0-18.136s-11.956 18.136 0 18.136zm18.005-.651c11.097 0 11.097-16.834 0-16.834s-11.097 16.834 0 16.834zm18.005-.651c10.239 0 10.239-15.531 0-15.531s-10.239 15.531 0 15.531zm18.005-.652c9.38 0 9.38-14.228 0-14.228s-9.38 14.228 0 14.228zm18.005-.701c8.455 0 8.455-12.826 0-12.826s-8.455 12.826 0 12.826zm18.005-.652c7.596 0 7.596-11.522 0-11.522s-7.597 11.522 0 11.522zm18.004-.651c6.738 0 6.738-10.22 0-10.22s-6.737 10.22 0 10.22zm18.006-.701c5.812 0 5.812-8.818 0-8.818s-5.814 8.818 0 8.818zm18.005-.651c4.954 0 4.954-7.515 0-7.515s-4.955 7.515 0 7.515zm18.004-.652c4.096 0 4.096-6.212 0-6.212s-4.095 6.212 0 6.212zm18.005-.651c3.237 0 3.237-4.91 0-4.91s-3.236 4.91 0 4.91zm18.005-.701c2.312 0 2.312-3.507 0-3.507s-2.312 3.507 0 3.507zm18.005-.652c1.453 0 1.453-2.204 0-2.204s-1.453 2.204 0 2.204zm18.005-.701c.529 0 .529-.802 0-.802s-.528.802 0 .802zM.396 325.91c.396 0 .396-.601 0-.601s-.396.601 0 .601zm18.005.701c1.321 0 1.321-2.004 0-2.004s-1.321 2.004 0 2.004zm18.005.651c2.179 0 2.179-3.306 0-3.306s-2.18 3.306 0 3.306zm18.005.652c3.038 0 3.038-4.609 0-4.609s-3.038 4.609 0 4.609zm18.005.701c3.964 0 3.964-6.012 0-6.012s-3.963 6.012 0 6.012zm18.005.652c4.822 0 4.822-7.315 0-7.315s-4.822 7.315 0 7.315zm18.005.651c5.681 0 5.681-8.617 0-8.617s-5.681 8.617 0 8.617zm18.005.651c6.539 0 6.539-9.92 0-9.92s-6.54 9.92 0 9.92zm18.005.601c7.332 0 7.332-11.122 0-11.122s-7.332 11.122 0 11.122zm18.005.652c8.191 0 8.191-12.425 0-12.425s-8.191 12.425 0 12.425zm18.005.651c9.049 0 9.049-13.727 0-13.727s-9.05 13.727 0 13.727zm18.005.651c9.908 0 9.908-15.03 0-15.03s-9.909 15.03 0 15.03zm18.005.601c10.701 0 10.701-16.232 0-16.232s-10.702 16.232 0 16.232zm18.004.602c11.494 0 11.494-17.435 0-17.435s-11.494 17.435 0 17.435zm18.005.551c12.22 0 12.22-18.537 0-18.537s-12.22 18.537 0 18.537zm18.005.4c12.749 0 12.749-19.338 0-19.338s-12.749 19.338 0 19.338zm18.005.151c12.947 0 12.947-19.639 0-19.639s-12.947 19.639 0 19.639zm18.005-.151c12.749 0 12.749-19.338 0-19.338s-12.749 19.338 0 19.338zm18.005-.4c12.221 0 12.221-18.537 0-18.537s-12.221 18.537 0 18.537zm18.005-.501c11.56 0 11.56-17.535 0-17.535s-11.56 17.535 0 17.535zm18.005-.601c10.767 0 10.767-16.333 0-16.333s-10.767 16.333 0 16.333zm18.005-.602c9.974 0 9.974-15.13 0-15.13s-9.975 15.13 0 15.13zm18.005-.651c9.115 0 9.115-13.827 0-13.827s-9.116 13.827 0 13.827zm18.005-.651c8.257 0 8.257-12.525 0-12.525s-8.257 12.525 0 12.525zm18.005-.652c7.398 0 7.398-11.222 0-11.222s-7.399 11.222 0 11.222zm18.004-.651c6.54 0 6.54-9.92 0-9.92s-6.539 9.92 0 9.92zm18.006-.601c5.746 0 5.746-8.717 0-8.717s-5.747 8.717 0 8.717zm18.005-.651c4.887 0 4.887-7.415 0-7.415s-4.889 7.415 0 7.415zm18.004-.652c4.03 0 4.03-6.112 0-6.112s-4.029 6.112 0 6.112zm18.005-.701c3.105 0 3.105-4.71 0-4.71s-3.104 4.71 0 4.71zm18.005-.651c2.246 0 2.246-3.407 0-3.407s-2.246 3.407 0 3.407zm18.005-.652c1.387 0 1.387-2.104 0-2.104s-1.387 2.104 0 2.104zm18.005-.701c.463 0 .463-.701 0-.701s-.463.701 0 .701zM.396 343.927c.33 0 .33-.501 0-.501s-.33.501 0 .501zm18.005.601c1.123 0 1.123-1.703 0-1.703s-1.123 1.703 0 1.703zm18.005.702c2.047 0 2.047-3.107 0-3.107s-2.048 3.107 0 3.107zm18.005.651c2.907 0 2.907-4.409 0-4.409s-2.907 4.409 0 4.409zm18.005.651c3.766 0 3.766-5.711 0-5.711s-3.765 5.711 0 5.711zm18.005.651c4.624 0 4.624-7.014 0-7.014s-4.624 7.014 0 7.014zm18.005.602c5.417 0 5.417-8.217 0-8.217s-5.417 8.217 0 8.217zm18.005.651c6.275 0 6.275-9.519 0-9.519s-6.276 9.519 0 9.519zm18.005.651c7.134 0 7.134-10.821 0-10.821s-7.134 10.821 0 10.821zm18.005.601c7.926 0 7.926-12.024 0-12.024s-7.927 12.024 0 12.024zm18.005.602c8.719 0 8.719-13.227 0-13.227s-8.72 13.227 0 13.227zm18.005.601c9.511 0 9.511-14.429 0-14.429s-9.513 14.429 0 14.429zm18.005.551c10.238 0 10.238-15.531 0-15.531s-10.239 15.531 0 15.531zm18.004.551c10.966 0 10.966-16.633 0-16.633s-10.965 16.633 0 16.633zm18.005.401c11.494 0 11.494-17.435 0-17.435s-11.493 17.435 0 17.435zm18.005.3c11.89 0 11.89-18.036 0-18.036s-11.89 18.036 0 18.036zm18.005.151c12.088 0 12.088-18.337 0-18.337s-12.088 18.337 0 18.337zm18.005-.101c11.956 0 11.956-18.136 0-18.136s-11.956 18.136 0 18.136zm18.005-.3c11.56 0 11.56-17.535 0-17.535s-11.56 17.535 0 17.535zm18.005-.401c11.031 0 11.031-16.733 0-16.733s-11.031 16.733 0 16.733zm18.005-.551c10.305 0 10.305-15.631 0-15.631s-10.305 15.631 0 15.631zm18.005-.551c9.578 0 9.578-14.529 0-14.529s-9.578 14.529 0 14.529zm18.005-.601c8.785 0 8.785-13.327 0-13.327s-8.786 13.327 0 13.327zm18.005-.602c7.992 0 7.992-12.124 0-12.124s-7.993 12.124 0 12.124zm18.005-.651c7.134 0 7.134-10.821 0-10.821s-7.134 10.821 0 10.821zm18.004-.601c6.342 0 6.342-9.619 0-9.619s-6.341 9.619 0 9.619zm18.006-.651c5.482 0 5.482-8.317 0-8.317s-5.483 8.317 0 8.317zm18.005-.602c4.689 0 4.689-7.114 0-7.114s-4.691 7.114 0 7.114zm18.004-.651c3.832 0 3.832-5.811 0-5.811s-3.831 5.811 0 5.811zm18.005-.651c2.973 0 2.973-4.509 0-4.509s-2.972 4.509 0 4.509zm18.005-.651c2.114 0 2.114-3.207 0-3.207s-2.113 3.207 0 3.207zm18.005-.702c1.189 0 1.189-1.803 0-1.803s-1.189 1.803 0 1.803zm18.005-.651c.33 0 .33-.501 0-.501s-.33.501 0 .501zM.396 361.894c.198 0 .198-.301 0-.301s-.198.301 0 .301zm18.005.551c.925 0 .925-1.403 0-1.403s-.924 1.403 0 1.403zm18.005.651c1.783 0 1.783-2.705 0-2.705s-1.784 2.705 0 2.705zm18.005.651c2.642 0 2.642-4.008 0-4.008s-2.642 4.008 0 4.008zm18.005.652c3.501 0 3.501-5.311 0-5.311s-3.501 5.311 0 5.311zm18.005.651c4.36 0 4.36-6.613 0-6.613s-4.36 6.613 0 6.613zm18.005.601c5.152 0 5.152-7.815 0-7.815s-5.152 7.815 0 7.815zm18.005.601c5.945 0 5.945-9.017 0-9.017s-5.945 9.017 0 9.017zm18.005.602c6.737 0 6.737-10.221 0-10.221s-6.738 10.221 0 10.221zm18.005.601c7.53 0 7.53-11.423 0-11.423s-7.53 11.423 0 11.423zm18.005.601c8.323 0 8.323-12.625 0-12.625s-8.323 12.625 0 12.625zm18.005.551c9.049 0 9.049-13.727 0-13.727s-9.05 13.727 0 13.727zm18.005.501c9.71 0 9.71-14.729 0-14.729s-9.711 14.729 0 14.729zm18.004.451c10.305 0 10.305-15.631 0-15.631s-10.304 15.631 0 15.631zm18.005.351c10.767 0 10.767-16.333 0-16.333s-10.767 16.333 0 16.333zm18.005.25c11.097 0 11.097-16.833 0-16.833s-11.097 16.833 0 16.833zm18.005.05c11.164 0 11.164-16.933 0-16.933s-11.163 16.933 0 16.933zm18.005-.05c11.098 0 11.098-16.833 0-16.833s-11.098 16.833 0 16.833zm18.005-.25c10.767 0 10.767-16.333 0-16.333s-10.767 16.333 0 16.333zm18.005-.351c10.305 0 10.305-15.631 0-15.631s-10.305 15.631 0 15.631zm18.005-.451c9.71 0 9.71-14.729 0-14.729s-9.71 14.729 0 14.729zm18.005-.501c9.049 0 9.049-13.727 0-13.727s-9.05 13.727 0 13.727zm18.005-.551c8.323 0 8.323-12.625 0-12.625s-8.323 12.625 0 12.625zm18.005-.551c7.596 0 7.596-11.523 0-11.523s-7.597 11.523 0 11.523zm18.005-.601c6.803 0 6.803-10.321 0-10.321s-6.804 10.321 0 10.321zm18.004-.602c6.012 0 6.012-9.118 0-9.118s-6.011 9.118 0 9.118zm18.006-.601c5.218 0 5.218-7.915 0-7.915s-5.219 7.915 0 7.915zm18.005-.601c4.425 0 4.425-6.713 0-6.713s-4.426 6.713 0 6.713zm18.004-.651c3.567 0 3.567-5.411 0-5.411s-3.567 5.411 0 5.411zm18.005-.651c2.709 0 2.709-4.109 0-4.109s-2.708 4.109 0 4.109zm18.005-.652c1.85 0 1.85-2.805 0-2.805s-1.849 2.805 0 2.805zm18.005-.651c.991 0 .991-1.503 0-1.503s-.991 1.503 0 1.503zm18.005-.601c.198 0 .198-.301 0-.301s-.198.301 0 .301zM.396 379.861c.066 0 .066-.1 0-.1s-.066.1 0 .1zm18.005.501c.727 0 .727-1.103 0-1.103s-.726 1.103 0 1.103zm18.005.601c1.519 0 1.519-2.305 0-2.305s-1.52 2.305 0 2.305zm18.005.651c2.378 0 2.378-3.607 0-3.607s-2.378 3.607 0 3.607zm18.005.652c3.237 0 3.237-4.91 0-4.91s-3.237 4.91 0 4.91zm18.005.601c4.029 0 4.029-6.112 0-6.112s-4.029 6.112 0 6.112zm18.005.601c4.822 0 4.822-7.315 0-7.315s-4.822 7.315 0 7.315zm18.005.551c5.549 0 5.549-8.417 0-8.417s-5.549 8.417 0 8.417zm18.005.601c6.341 0 6.341-9.619 0-9.619s-6.342 9.619 0 9.619zm18.005.551c7.068 0 7.068-10.721 0-10.721s-7.068 10.721 0 10.721zm18.005.551c7.794 0 7.794-11.823 0-11.823s-7.795 11.823 0 11.823zm18.005.501c8.455 0 8.455-12.825 0-12.825s-8.456 12.825 0 12.825zm18.005.451c9.049 0 9.049-13.727 0-13.727s-9.05 13.727 0 13.727zm18.004.351c9.512 0 9.512-14.429 0-14.429s-9.512 14.429 0 14.429zm18.005.351c9.975 0 9.975-15.13 0-15.13s-9.974 15.13 0 15.13zm18.005.2c10.239 0 10.239-15.531 0-15.531s-10.238 15.531 0 15.531zm18.005.05c10.305 0 10.305-15.631 0-15.631s-10.305 15.631 0 15.631zm18.005-.05c10.239 0 10.239-15.531 0-15.531s-10.239 15.531 0 15.531zm18.005-.2c9.975 0 9.975-15.13 0-15.13s-9.975 15.13 0 15.13zm18.005-.301c9.578 0 9.578-14.529 0-14.529s-9.578 14.529 0 14.529zm18.005-.401c9.05 0 9.05-13.727 0-13.727s-9.05 13.727 0 13.727zm18.005-.451c8.455 0 8.455-12.825 0-12.825s-8.455 12.825 0 12.825zm18.005-.501c7.794 0 7.794-11.823 0-11.823s-7.795 11.823 0 11.823zm18.005-.501c7.134 0 7.134-10.821 0-10.821s-7.134 10.821 0 10.821zm18.005-.551c6.407 0 6.407-9.719 0-9.719s-6.408 9.719 0 9.719zm18.004-.601c5.615 0 5.615-8.517 0-8.517s-5.614 8.517 0 8.517zm18.006-.551c4.888 0 4.888-7.415 0-7.415s-4.889 7.415 0 7.415zm18.005-.601c4.095 0 4.095-6.213 0-6.213s-4.096 6.213 0 6.213zm18.004-.651c3.237 0 3.237-4.91 0-4.91s-3.236 4.91 0 4.91zm18.005-.602c2.444 0 2.444-3.707 0-3.707s-2.444 3.707 0 3.707zm18.005-.651c1.586 0 1.586-2.405 0-2.405s-1.585 2.405 0 2.405zm18.005-.601c.793 0 .793-1.203 0-1.203s-.793 1.203 0 1.203zm18.005-.551c.066 0 .066-.1 0-.1s-.066.1 0 .1zM18.401 398.178c.397 0 .397-.601 0-.601s-.396.601 0 .601zm18.005.602c1.189 0 1.189-1.804 0-1.804s-1.189 1.804 0 1.804zm18.005.651c2.048 0 2.048-3.106 0-3.106s-2.048 3.106 0 3.106zm18.005.601c2.841 0 2.841-4.308 0-4.308s-2.84 4.308 0 4.308zm18.005.601c3.633 0 3.633-5.511 0-5.511s-3.633 5.511 0 5.511zm18.005.551c4.359 0 4.359-6.613 0-6.613s-4.36 6.613 0 6.613zm18.005.602c5.152 0 5.152-7.816 0-7.816s-5.153 7.816 0 7.816zm18.005.501c5.813 0 5.813-8.818 0-8.818s-5.813 8.818 0 8.818zm18.005.551c6.539 0 6.539-9.92 0-9.92s-6.54 9.92 0 9.92zm18.005.501c7.2 0 7.2-10.922 0-10.922s-7.2 10.922 0 10.922zm18.005.451c7.794 0 7.794-11.824 0-11.824s-7.795 11.824 0 11.824zm18.005.4c8.323 0 8.323-12.625 0-12.625s-8.324 12.625 0 12.625zm18.004.351c8.786 0 8.786-13.326 0-13.326s-8.785 13.326 0 13.326zm18.005.251c9.116 0 9.116-13.828 0-13.828s-9.115 13.828 0 13.828zm18.005.15c9.314 0 9.314-14.128 0-14.128s-9.314 14.128 0 14.128zm18.005.05c9.38 0 9.38-14.228 0-14.228s-9.38 14.228 0 14.228zm18.005 0c9.38 0 9.38-14.228 0-14.228s-9.38 14.228 0 14.228zm18.005-.2c9.116 0 9.116-13.828 0-13.828s-9.116 13.828 0 13.828zm18.005-.251c8.785 0 8.785-13.326 0-13.326s-8.785 13.326 0 13.326zm18.005-.351c8.323 0 8.323-12.625 0-12.625s-8.323 12.625 0 12.625zm18.005-.4c7.795 0 7.795-11.824 0-11.824s-7.795 11.824 0 11.824zm18.005-.451c7.2 0 7.2-10.922 0-10.922s-7.2 10.922 0 10.922zm18.005-.451c6.605 0 6.605-10.02 0-10.02s-6.606 10.02 0 10.02zm18.005-.551c5.879 0 5.879-8.918 0-8.918s-5.879 8.918 0 8.918zm18.004-.501c5.219 0 5.219-7.916 0-7.916s-5.218 7.916 0 7.916zm18.006-.602c4.425 0 4.425-6.713 0-6.713s-4.426 6.713 0 6.713zm18.005-.551c3.699 0 3.699-5.611 0-5.611s-3.7 5.611 0 5.611zm18.004-.601c2.907 0 2.907-4.409 0-4.409s-2.906 4.409 0 4.409zm18.005-.601c2.114 0 2.114-3.206 0-3.206s-2.113 3.206 0 3.206zm18.005-.651c1.255 0 1.255-1.904 0-1.904s-1.255 1.904 0 1.904zm18.005-.601c.462 0 .462-.702 0-.702s-.462.702 0 .702zM18.401 416.045c.132 0 .132-.2 0-.2s-.132.2 0 .2zm18.005.551c.859 0 .859-1.302 0-1.302s-.859 1.302 0 1.302zm18.005.601c1.651 0 1.651-2.505 0-2.505s-1.651 2.505 0 2.505zm18.005.602c2.444 0 2.444-3.708 0-3.708s-2.444 3.708 0 3.708zm18.005.551c3.171 0 3.171-4.81 0-4.81s-3.171 4.81 0 4.81zm18.005.551c3.897 0 3.897-5.912 0-5.912s-3.897 5.912 0 5.912zm18.005.551c4.624 0 4.624-7.014 0-7.014s-4.624 7.014 0 7.014zm18.005.501c5.284 0 5.284-8.016 0-8.016s-5.285 8.016 0 8.016zm18.005.501c5.945 0 5.945-9.018 0-9.018s-5.945 9.018 0 9.018zm18.005.451c6.539 0 6.539-9.92 0-9.92s-6.54 9.92 0 9.92zm18.005.401c7.068 0 7.068-10.722 0-10.722s-7.068 10.722 0 10.722zm18.005.4c7.596 0 7.596-11.523 0-11.523s-7.597 11.523 0 11.523zm18.004.301c7.993 0 7.993-12.124 0-12.124s-7.992 12.124 0 12.124zm18.005.2c8.257 0 8.257-12.524 0-12.524s-8.256 12.524 0 12.524zm18.005.151c8.455 0 8.455-12.826 0-12.826s-8.455 12.826 0 12.826zm18.005.05c8.521 0 8.521-12.926 0-12.926s-8.521 12.926 0 12.926zm18.005-.05c8.455 0 8.455-12.826 0-12.826s-8.455 12.826 0 12.826zm18.005-.151c8.257 0 8.257-12.524 0-12.524s-8.257 12.524 0 12.524zm18.005-.2c7.993 0 7.993-12.124 0-12.124s-7.993 12.124 0 12.124zm18.005-.301c7.596 0 7.596-11.523 0-11.523s-7.597 11.523 0 11.523zm18.005-.35c7.134 0 7.134-10.822 0-10.822s-7.134 10.822 0 10.822zm18.005-.401c6.605 0 6.605-10.02 0-10.02s-6.606 10.02 0 10.02zm18.005-.451c6.011 0 6.011-9.118 0-9.118s-6.011 9.118 0 9.118zm18.005-.501c5.35 0 5.35-8.116 0-8.116s-5.351 8.116 0 8.116zm18.004-.501c4.691 0 4.691-7.114 0-7.114s-4.69 7.114 0 7.114zm18.006-.551c3.963 0 3.963-6.012 0-6.012s-3.964 6.012 0 6.012zm18.005-.551c3.236 0 3.236-4.91 0-4.91s-3.237 4.91 0 4.91zm18.004-.601c2.444 0 2.444-3.708 0-3.708s-2.444 3.708 0 3.708zm18.005-.552c1.718 0 1.718-2.605 0-2.605s-1.717 2.605 0 2.605zm18.005-.601c.925 0 .925-1.402 0-1.402s-.925 1.402 0 1.402zm18.005-.551c.198 0 .198-.3 0-.3s-.198.3 0 .3zM36.407 434.363c.462 0 .462-.702 0-.702s-.463.702 0 .702zm18.005.551c1.189 0 1.189-1.804 0-1.804s-1.189 1.804 0 1.804zm18.005.551c1.916 0 1.916-2.906 0-2.906s-1.915 2.906 0 2.906zm18.005.601c2.708 0 2.708-4.108 0-4.108s-2.708 4.108 0 4.108zm18.005.501c3.369 0 3.369-5.11 0-5.11s-3.369 5.11 0 5.11zm18.005.501c4.029 0 4.029-6.112 0-6.112s-4.03 6.112 0 6.112zm18.005.501c4.69 0 4.69-7.114 0-7.114s-4.69 7.114 0 7.114zm18.005.451c5.284 0 5.284-8.016 0-8.016s-5.285 8.016 0 8.016zm18.005.451c5.878 0 5.878-8.918 0-8.918s-5.879 8.918 0 8.918zm18.005.351c6.341 0 6.341-9.619 0-9.619s-6.342 9.619 0 9.619zm18.005.35c6.803 0 6.803-10.32 0-10.32s-6.804 10.32 0 10.32zm18.004.251c7.134 0 7.134-10.822 0-10.822s-7.134 10.822 0 10.822zm18.005.2c7.398 0 7.398-11.222 0-11.222s-7.398 11.222 0 11.222zm18.005.151c7.597 0 7.597-11.523 0-11.523s-7.596 11.523 0 11.523zm18.005.05c7.663 0 7.663-11.623 0-11.623s-7.662 11.623 0 11.623zm18.005-.05c7.597 0 7.597-11.523 0-11.523s-7.597 11.523 0 11.523zm18.005-.151c7.399 0 7.399-11.222 0-11.222s-7.398 11.222 0 11.222zm18.005-.2c7.134 0 7.134-10.822 0-10.822s-7.134 10.822 0 10.822zm18.005-.251c6.804 0 6.804-10.32 0-10.32s-6.804 10.32 0 10.32zm18.005-.3c6.407 0 6.407-9.72 0-9.72s-6.408 9.72 0 9.72zm18.005-.401c5.879 0 5.879-8.918 0-8.918s-5.879 8.918 0 8.918zm18.005-.401c5.35 0 5.35-8.116 0-8.116s-5.351 8.116 0 8.116zm18.005-.451c4.756 0 4.756-7.214 0-7.214s-4.756 7.214 0 7.214zm18.004-.501c4.096 0 4.096-6.212 0-6.212s-4.095 6.212 0 6.212zm18.006-.501c3.434 0 3.434-5.21 0-5.21s-3.436 5.21 0 5.21zm18.005-.551c2.708 0 2.708-4.108 0-4.108s-2.709 4.108 0 4.108zm18.004-.551c1.982 0 1.982-3.006 0-3.006s-1.982 3.006 0 3.006zm18.005-.551c1.255 0 1.255-1.904 0-1.904s-1.255 1.904 0 1.904zm18.005-.601c.463 0 .463-.702 0-.702s-.462.702 0 .702zM36.407 452.179c.132 0 .132-.2 0-.2s-.132.2 0 .2zm18.005.451c.727 0 .727-1.102 0-1.102s-.727 1.102 0 1.102zm18.005.551c1.453 0 1.453-2.204 0-2.204s-1.453 2.204 0 2.204zm18.005.501c2.114 0 2.114-3.206 0-3.206s-2.114 3.206 0 3.206zm18.005.552c2.84 0 2.84-4.309 0-4.309s-2.841 4.309 0 4.309zm18.005.45c3.435 0 3.435-5.21 0-5.21s-3.435 5.21 0 5.21zm18.005.501c4.095 0 4.095-6.212 0-6.212s-4.096 6.212 0 6.212zm18.005.401c4.623 0 4.623-7.014 0-7.014s-4.624 7.014 0 7.014zm18.005.401c5.152 0 5.152-7.816 0-7.816s-5.153 7.816 0 7.816zm18.005.351c5.614 0 5.614-8.517 0-8.517s-5.615 8.517 0 8.517zm18.005.3c6.01 0 6.01-9.118 0-9.118s-6.012 9.118 0 9.118zm18.004.251c6.342 0 6.342-9.619 0-9.619s-6.341 9.619 0 9.619zm18.005.15c6.54 0 6.54-9.92 0-9.92s-6.539 9.92 0 9.92zm18.005.1c6.672 0 6.672-10.12 0-10.12s-6.671 10.12 0 10.12zm18.005.05c6.738 0 6.738-10.22 0-10.22s-6.738 10.22 0 10.22zm18.005 0c6.738 0 6.738-10.22 0-10.22s-6.738 10.22 0 10.22zm18.005-.15c6.54 0 6.54-9.92 0-9.92s-6.54 9.92 0 9.92zm18.005-.15c6.341 0 6.341-9.619 0-9.619s-6.342 9.619 0 9.619zm18.005-.251c6.011 0 6.011-9.118 0-9.118s-6.011 9.118 0 9.118zm18.005-.3c5.615 0 5.615-8.517 0-8.517s-5.615 8.517 0 8.517zm18.005-.301c5.218 0 5.218-7.916 0-7.916s-5.219 7.916 0 7.916zm18.005-.401c4.69 0 4.69-7.114 0-7.114s-4.69 7.114 0 7.114zm18.005-.451c4.095 0 4.095-6.212 0-6.212s-4.096 6.212 0 6.212zm18.004-.451c3.501 0 3.501-5.31 0-5.31s-3.5 5.31 0 5.31zm18.006-.5c2.84 0 2.84-4.309 0-4.309s-2.841 4.309 0 4.309zm18.005-.502c2.179 0 2.179-3.306 0-3.306s-2.181 3.306 0 3.306zm18.004-.501c1.52 0 1.52-2.304 0-2.304s-1.519 2.304 0 2.304zm18.005-.551c.793 0 .793-1.202 0-1.202s-.793 1.202 0 1.202zm18.005-.501c.133 0 .133-.2 0-.2s-.132.2 0 .2zM54.411 470.347c.264 0 .264-.401 0-.401s-.264.401 0 .401zm18.005.451c.859 0 .859-1.303 0-1.303s-.859 1.303 0 1.303zm18.005.551c1.585 0 1.585-2.405 0-2.405s-1.585 2.405 0 2.405zm18.005.451c2.18 0 2.18-3.307 0-3.307s-2.18 3.307 0 3.307zm18.005.501c2.84 0 2.84-4.309 0-4.309s-2.84 4.309 0 4.309zm18.005.4c3.368 0 3.368-5.11 0-5.11s-3.369 5.11 0 5.11zm18.005.451c3.963 0 3.963-6.012 0-6.012s-3.964 6.012 0 6.012zm18.005.351c4.425 0 4.425-6.713 0-6.713s-4.426 6.713 0 6.713zm18.005.301c4.822 0 4.822-7.315 0-7.315s-4.822 7.315 0 7.315zm18.005.3c5.218 0 5.218-7.916 0-7.916s-5.219 7.916 0 7.916zm18.004.201c5.483 0 5.483-8.317 0-8.317s-5.482 8.317 0 8.317zm18.005.15c5.681 0 5.681-8.617 0-8.617s-5.68 8.617 0 8.617zm18.005.1c5.813 0 5.813-8.817 0-8.817s-5.813 8.817 0 8.817zm18.005.05c5.879 0 5.879-8.917 0-8.917s-5.879 8.917 0 8.917zm18.005-.05c5.813 0 5.813-8.817 0-8.817s-5.813 8.817 0 8.817zm18.005-.05c5.747 0 5.747-8.717 0-8.717s-5.747 8.717 0 8.717zm18.005-.2c5.483 0 5.483-8.317 0-8.317s-5.483 8.317 0 8.317zm18.005-.201c5.218 0 5.218-7.916 0-7.916s-5.219 7.916 0 7.916zm18.005-.25c4.888 0 4.888-7.415 0-7.415s-4.888 7.415 0 7.415zm18.005-.351c4.426 0 4.426-6.713 0-6.713s-4.426 6.713 0 6.713zm18.005-.351c3.963 0 3.963-6.012 0-6.012s-3.964 6.012 0 6.012zm18.005-.401c3.435 0 3.435-5.21 0-5.21s-3.435 5.21 0 5.21zm18.004-.45c2.841 0 2.841-4.309 0-4.309s-2.84 4.309 0 4.309zm18.006-.451c2.245 0 2.245-3.407 0-3.407s-2.246 3.407 0 3.407zm18.005-.501c1.585 0 1.585-2.405 0-2.405s-1.586 2.405 0 2.405zm18.004-.501c.925 0 .925-1.403 0-1.403s-.925 1.403 0 1.403zm18.005-.501c.264 0 .264-.401 0-.401s-.264.401 0 .401zM72.416 488.464c.331 0 .331-.501 0-.501s-.33.501 0 .501zm18.005.451c.924 0 .924-1.403 0-1.403s-.925 1.403 0 1.403zm18.005.501c1.585 0 1.585-2.405 0-2.405s-1.586 2.405 0 2.405zm18.005.451c2.18 0 2.18-3.307 0-3.307s-2.18 3.307 0 3.307zm18.005.401c2.708 0 2.708-4.109 0-4.109s-2.708 4.109 0 4.109zm18.005.35c3.17 0 3.17-4.809 0-4.809s-3.171 4.809 0 4.809zm18.005.351c3.633 0 3.633-5.511 0-5.511s-3.633 5.511 0 5.511zm18.005.301c4.029 0 4.029-6.113 0-6.113s-4.03 6.113 0 6.113zm18.005.25c4.359 0 4.359-6.613 0-6.613s-4.36 6.613 0 6.613zm18.004.201c4.624 0 4.624-7.014 0-7.014s-4.624 7.014 0 7.014zm18.005.15c4.822 0 4.822-7.315 0-7.315s-4.822 7.315 0 7.315zm18.005.1c4.954 0 4.954-7.515 0-7.515s-4.954 7.515 0 7.515zm18.005.05c5.021 0 5.021-7.615 0-7.615s-5.02 7.615 0 7.615zm18.005-.05c4.954 0 4.954-7.515 0-7.515s-4.954 7.515 0 7.515zm18.005-.05c4.888 0 4.888-7.415 0-7.415s-4.888 7.415 0 7.415zm18.005-.15c4.69 0 4.69-7.115 0-7.115s-4.69 7.115 0 7.115zm18.005-.201c4.426 0 4.426-6.713 0-6.713s-4.426 6.713 0 6.713zm18.005-.25c4.095 0 4.095-6.213 0-6.213s-4.096 6.213 0 6.213zm18.005-.301c3.699 0 3.699-5.611 0-5.611s-3.699 5.611 0 5.611zm18.005-.351c3.236 0 3.236-4.909 0-4.909s-3.237 4.909 0 4.909zm18.005-.4c2.708 0 2.708-4.109 0-4.109s-2.709 4.109 0 4.109zm18.004-.401c2.18 0 2.18-3.307 0-3.307s-2.179 3.307 0 3.307zm18.006-.451c1.585 0 1.585-2.405 0-2.405s-1.586 2.405 0 2.405zm18.005-.451c.99 0 .99-1.503 0-1.503s-.991 1.503 0 1.503zm18.004-.451c.396 0 .396-.601 0-.601s-.396.601 0 .601zM90.421 506.531c.33 0 .33-.501 0-.501s-.331.501 0 .501zm18.005.401c.859 0 .859-1.303 0-1.303s-.859 1.303 0 1.303zm18.005.451c1.453 0 1.453-2.205 0-2.205s-1.453 2.205 0 2.205zm18.005.401c1.982 0 1.982-3.006 0-3.006s-1.982 3.006 0 3.006zm18.005.35c2.444 0 2.444-3.707 0-3.707s-2.444 3.707 0 3.707zm18.005.301c2.84 0 2.84-4.309 0-4.309s-2.841 4.309 0 4.309zm18.005.301c3.236 0 3.236-4.91 0-4.91s-3.237 4.91 0 4.91zm18.005.25c3.566 0 3.566-5.411 0-5.411s-3.567 5.411 0 5.411zm18.004.2c3.832 0 3.832-5.811 0-5.811s-3.831 5.811 0 5.811zm18.005.101c3.964 0 3.964-6.012 0-6.012s-3.963 6.012 0 6.012zm18.005.1c4.096 0 4.096-6.212 0-6.212s-4.095 6.212 0 6.212zm18.005.05c4.161 0 4.161-6.313 0-6.313s-4.162 6.313 0 6.313zm18.005-.05c4.096 0 4.096-6.212 0-6.212s-4.095 6.212 0 6.212zm18.005-.05c4.029 0 4.029-6.112 0-6.112s-4.029 6.112 0 6.112zm18.005-.151c3.831 0 3.831-5.811 0-5.811s-3.831 5.811 0 5.811zm18.005-.2c3.567 0 3.567-5.411 0-5.411s-3.567 5.411 0 5.411zm18.005-.25c3.236 0 3.236-4.91 0-4.91s-3.237 4.91 0 4.91zm18.005-.251c2.906 0 2.906-4.409 0-4.409s-2.907 4.409 0 4.409zm18.005-.351c2.444 0 2.444-3.707 0-3.707s-2.444 3.707 0 3.707zm18.005-.35c1.981 0 1.981-3.006 0-3.006s-1.982 3.006 0 3.006zm18.004-.351c1.52 0 1.52-2.305 0-2.305s-1.519 2.305 0 2.305zm18.006-.451c.924 0 .924-1.403 0-1.403s-.925 1.403 0 1.403zm18.005-.401c.396 0 .396-.601 0-.601s-.397.601 0 .601zm-378.104 17.967c.264 0 .264-.401 0-.401s-.264.401 0 .401zm18.005.351c.727 0 .727-1.102 0-1.102s-.727 1.102 0 1.102zm18.005.351c1.189 0 1.189-1.804 0-1.804s-1.189 1.804 0 1.804zm18.005.35c1.651 0 1.651-2.505 0-2.505s-1.652 2.505 0 2.505zm18.005.301c2.047 0 2.047-3.106 0-3.106s-2.048 3.106 0 3.106zm18.005.3c2.443 0 2.443-3.707 0-3.707s-2.444 3.707 0 3.707zm18.005.201c2.708 0 2.708-4.108 0-4.108s-2.709 4.108 0 4.108zm18.004.2c2.973 0 2.973-4.509 0-4.509s-2.972 4.509 0 4.509zm18.005.101c3.105 0 3.105-4.71 0-4.71s-3.104 4.71 0 4.71zm18.005.1c3.237 0 3.237-4.91 0-4.91s-3.236 4.91 0 4.91zm18.005 0c3.237 0 3.237-4.91 0-4.91s-3.237 4.91 0 4.91zm18.005 0c3.237 0 3.237-4.91 0-4.91s-3.237 4.91 0 4.91zm18.005-.1c3.105 0 3.105-4.71 0-4.71s-3.105 4.71 0 4.71zm18.005-.101c2.972 0 2.972-4.509 0-4.509s-2.973 4.509 0 4.509zm18.005-.2c2.708 0 2.708-4.108 0-4.108s-2.708 4.108 0 4.108zm18.005-.201c2.444 0 2.444-3.707 0-3.707s-2.444 3.707 0 3.707zm18.005-.25c2.113 0 2.113-3.206 0-3.206s-2.114 3.206 0 3.206zm18.005-.301c1.717 0 1.717-2.605 0-2.605s-1.718 2.605 0 2.605zm18.005-.35c1.255 0 1.255-1.904 0-1.904s-1.255 1.904 0 1.904zm18.004-.351c.793 0 .793-1.202 0-1.202s-.792 1.202 0 1.202zm18.006-.401c.264 0 .264-.401 0-.401s-.265.401 0 .401zm-342.094 17.967c.132 0 .132-.2 0-.2s-.132.2 0 .2zm18.005.251c.462 0 .462-.702 0-.702s-.463.702 0 .702zm18.005.3c.858 0 .858-1.302 0-1.302s-.859 1.302 0 1.302zm18.005.301c1.255 0 1.255-1.904 0-1.904s-1.255 1.904 0 1.904zm18.005.25c1.585 0 1.585-2.404 0-2.404s-1.586 2.404 0 2.404zm18.005.201c1.849 0 1.849-2.806 0-2.806s-1.85 2.806 0 2.806zm18.004.15c2.048 0 2.048-3.106 0-3.106s-2.048 3.106 0 3.106zm18.005.15c2.246 0 2.246-3.406 0-3.406s-2.246 3.406 0 3.406zm18.005.05c2.312 0 2.312-3.507 0-3.507s-2.312 3.507 0 3.507zm18.005.05c2.378 0 2.378-3.607 0-3.607s-2.378 3.607 0 3.607zm18.005-.05c2.312 0 2.312-3.507 0-3.507s-2.312 3.507 0 3.507zm18.005-.05c2.246 0 2.246-3.406 0-3.406s-2.246 3.406 0 3.406zm18.005-.1c2.114 0 2.114-3.206 0-3.206s-2.114 3.206 0 3.206zm18.005-.2c1.849 0 1.849-2.806 0-2.806s-1.85 2.806 0 2.806zm18.005-.201c1.585 0 1.585-2.404 0-2.404s-1.586 2.404 0 2.404zm18.005-.25c1.255 0 1.255-1.904 0-1.904s-1.255 1.904 0 1.904zm18.005-.251c.924 0 .924-1.403 0-1.403s-.925 1.403 0 1.403zm18.005-.35c.462 0 .462-.702 0-.702s-.463.702 0 .702zm18.004-.251c.133 0 .133-.2 0-.2s-.131.2 0 .2zm-288.078 18.067c.132 0 .132-.2 0-.2s-.132.2 0 .2zm18.005.251c.462 0 .462-.702 0-.702s-.463.702 0 .702zm18.005.2c.726 0 .726-1.102 0-1.102s-.727 1.102 0 1.102zm18.005.2c.99 0 .99-1.503 0-1.503s-.991 1.503 0 1.503zm18.004.151c1.189 0 1.189-1.804 0-1.804s-1.189 1.804 0 1.804zm18.005.1c1.321 0 1.321-2.004 0-2.004s-1.321 2.004 0 2.004zm18.005.1c1.453 0 1.453-2.204 0-2.204s-1.453 2.204 0 2.204zm18.005 0c1.453 0 1.453-2.204 0-2.204s-1.453 2.204 0 2.204zm18.005 0c1.453 0 1.453-2.204 0-2.204s-1.453 2.204 0 2.204zm18.005-.05c1.387 0 1.387-2.104 0-2.104s-1.387 2.104 0 2.104zm18.005-.15c1.189 0 1.189-1.804 0-1.804s-1.189 1.804 0 1.804zm18.005-.151c.991 0 .991-1.503 0-1.503s-.991 1.503 0 1.503zm18.005-.15c.793 0 .793-1.202 0-1.202s-.793 1.202 0 1.202zm18.005-.25c.462 0 .462-.702 0-.702s-.463.702 0 .702zm18.005-.201c.198 0 .198-.3 0-.3s-.198.3 0 .3zm-216.059 17.967c.066 0 .066-.1 0-.1s-.067.1 0 .1zm18.005.101c.198 0 .198-.301 0-.301s-.198.301 0 .301zm18.004.1c.331 0 .331-.501 0-.501s-.33.501 0 .501zm18.005.1c.463 0 .463-.702 0-.702s-.462.702 0 .702zm18.005.05c.529 0 .529-.802 0-.802s-.528.802 0 .802zm18.005.05c.595 0 .595-.902 0-.902s-.594.902 0 .902zm18.005-.05c.529 0 .529-.802 0-.802s-.528.802 0 .802zm18.005-.05c.462 0 .462-.702 0-.702s-.462.702 0 .702zm18.005-.1c.33 0 .33-.501 0-.501s-.33.501 0 .501zm18.005-.1c.198 0 .198-.301 0-.301s-.198.301 0 .301zm18.005-.101c.066 0 .066-.1 0-.1s-.066.1 0 .1z" fill="#4d822c"/></svg>