<svg width="372" height="373" viewBox="0 0 372 373" fill="none" xmlns="http://www.w3.org/2000/svg">
<path opacity="0.7" d="M127.944 0.225918C127.987 0.225918 127.987 0.290484 127.944 0.290484C127.901 0.290484 127.901 0.225918 127.944 0.225918ZM139.552 0.322702C139.637 0.322702 139.637 0.1937 139.552 0.1937C139.467 0.1937 139.467 0.322702 139.552 0.322702ZM151.16 0.387268C151.33 0.387268 151.33 0.129133 151.16 0.129133C150.989 0.129133 150.989 0.387268 151.16 0.387268ZM162.768 0.451835C163.023 0.451835 163.023 0.0645667 162.768 0.0645667C162.512 0.0645667 162.512 0.451835 162.768 0.451835ZM174.376 0.484184C174.674 0.484184 174.674 0.0322173 174.376 0.0322173C174.078 0.0322173 174.078 0.484184 174.376 0.484184ZM185.984 0.516402C186.325 0.516402 186.325 0 185.984 0C185.643 2.70414e-08 185.643 0.516402 185.984 0.516402ZM197.592 0.516402C197.933 0.516402 197.933 0 197.592 0C197.251 2.70414e-08 197.251 0.516402 197.592 0.516402ZM209.2 0.451835C209.456 0.451835 209.456 0.0645667 209.2 0.0645667C208.945 0.0645667 208.945 0.451835 209.2 0.451835ZM220.808 0.419618C221.021 0.419618 221.021 0.0967841 220.808 0.0967841C220.595 0.0967841 220.595 0.419618 220.808 0.419618ZM232.416 0.355051C232.544 0.355051 232.544 0.161351 232.416 0.161351C232.288 0.161351 232.288 0.355051 232.416 0.355051ZM244.024 0.290484C244.067 0.290484 244.067 0.225918 244.024 0.225918C243.982 0.225918 243.982 0.290484 244.024 0.290484ZM104.728 11.9619C104.813 11.9619 104.813 11.8327 104.728 11.8327C104.643 11.8327 104.643 11.9619 104.728 11.9619ZM116.336 12.091C116.592 12.091 116.592 11.7036 116.336 11.7036C116.08 11.7036 116.08 12.091 116.336 12.091ZM127.944 12.22C128.37 12.22 128.37 11.5746 127.944 11.5746C127.518 11.5746 127.518 12.22 127.944 12.22ZM139.552 12.3491C140.148 12.3491 140.148 11.4455 139.552 11.4455C138.956 11.4455 138.956 12.3491 139.552 12.3491ZM151.16 12.4459C151.884 12.4459 151.884 11.3487 151.16 11.3487C150.436 11.3487 150.436 12.4459 151.16 12.4459ZM162.768 12.5105C163.577 12.5105 163.577 11.2841 162.768 11.2841C161.959 11.2841 161.959 12.5105 162.768 12.5105ZM174.376 12.5751C175.27 12.5751 175.27 11.2196 174.376 11.2196C173.482 11.2196 173.482 12.5751 174.376 12.5751ZM185.984 12.5751C186.879 12.5751 186.879 11.2196 185.984 11.2196C185.09 11.2196 185.09 12.5751 185.984 12.5751ZM197.592 12.5751C198.486 12.5751 198.486 11.2196 197.592 11.2196C196.698 11.2196 196.698 12.5751 197.592 12.5751ZM209.2 12.5428C210.052 12.5428 210.052 11.2518 209.2 11.2518C208.348 11.2518 208.348 12.5428 209.2 12.5428ZM220.808 12.4459C221.532 12.4459 221.532 11.3487 220.808 11.3487C220.084 11.3487 220.084 12.4459 220.808 12.4459ZM232.416 12.3491C233.012 12.3491 233.012 11.4455 232.416 11.4455C231.82 11.4455 231.82 12.3491 232.416 12.3491ZM244.024 12.2524C244.493 12.2524 244.493 11.5423 244.024 11.5423C243.556 11.5423 243.556 12.2524 244.024 12.2524ZM255.632 12.091C255.888 12.091 255.888 11.7036 255.632 11.7036C255.377 11.7036 255.377 12.091 255.632 12.091ZM267.24 11.9619C267.325 11.9619 267.325 11.8327 267.24 11.8327C267.155 11.8327 267.155 11.9619 267.24 11.9619ZM81.5118 23.5687C81.5542 23.5687 81.5542 23.5041 81.5118 23.5041C81.4691 23.5041 81.4691 23.5687 81.5118 23.5687ZM93.1199 23.7301C93.3753 23.7301 93.3753 23.3428 93.1199 23.3428C92.8644 23.3428 92.8644 23.7301 93.1199 23.7301ZM104.728 23.9238C105.239 23.9238 105.239 23.1491 104.728 23.1491C104.217 23.1491 104.217 23.9238 104.728 23.9238ZM116.336 24.1173C117.102 24.1173 117.102 22.9555 116.336 22.9555C115.569 22.9555 115.569 24.1173 116.336 24.1173ZM127.944 24.2787C128.923 24.2787 128.923 22.794 127.944 22.794C126.964 22.794 126.964 24.2787 127.944 24.2787ZM139.552 24.4078C140.702 24.4078 140.702 22.6649 139.552 22.6649C138.402 22.6649 138.402 24.4078 139.552 24.4078ZM151.16 24.5047C152.437 24.5047 152.437 22.5681 151.16 22.5681C149.882 22.5681 149.882 24.5047 151.16 24.5047ZM162.768 24.6015C164.173 24.6015 164.173 22.4713 162.768 22.4713C161.363 22.4713 161.363 24.6015 162.768 24.6015ZM174.376 24.6337C175.824 24.6337 175.824 22.4391 174.376 22.4391C172.928 22.4391 172.928 24.6337 174.376 24.6337ZM185.984 24.6661C187.475 24.6661 187.475 22.4068 185.984 22.4068C184.493 22.4068 184.493 24.6661 185.984 24.6661ZM197.592 24.6337C199.04 24.6337 199.04 22.4391 197.592 22.4391C196.144 22.4391 196.144 24.6337 197.592 24.6337ZM209.2 24.6015C210.605 24.6015 210.605 22.4713 209.2 22.4713C207.795 22.4713 207.795 24.6015 209.2 24.6015ZM220.808 24.5369C222.128 24.5369 222.128 22.5359 220.808 22.5359C219.488 22.5359 219.488 24.5369 220.808 24.5369ZM232.416 24.4078C233.566 24.4078 233.566 22.6649 232.416 22.6649C231.266 22.6649 231.266 24.4078 232.416 24.4078ZM244.024 24.2787C245.004 24.2787 245.004 22.794 244.024 22.794C243.045 22.794 243.045 24.2787 244.024 24.2787ZM255.632 24.1173C256.399 24.1173 256.399 22.9555 255.632 22.9555C254.866 22.9555 254.866 24.1173 255.632 24.1173ZM267.24 23.956C267.794 23.956 267.794 23.1169 267.24 23.1169C266.686 23.1169 266.686 23.956 267.24 23.956ZM278.848 23.7624C279.146 23.7624 279.146 23.3104 278.848 23.3104C278.55 23.3104 278.55 23.7624 278.848 23.7624ZM290.456 23.6009C290.542 23.6009 290.542 23.4719 290.456 23.4719C290.371 23.4719 290.371 23.6009 290.456 23.6009ZM69.9037 35.2723C70.0314 35.2723 70.0314 35.0787 69.9037 35.0787C69.7759 35.0787 69.7759 35.2723 69.9037 35.2723ZM81.5118 35.4982C81.9376 35.4982 81.9376 34.8528 81.5118 34.8528C81.0859 34.8528 81.0859 35.4982 81.5118 35.4982ZM93.1199 35.7565C93.8863 35.7565 93.8863 34.5946 93.1199 34.5946C92.3532 34.5946 92.3532 35.7565 93.1199 35.7565ZM104.728 35.9501C105.75 35.9501 105.75 34.4009 104.728 34.4009C103.706 34.4009 103.706 35.9501 104.728 35.9501ZM116.336 36.1438C117.613 36.1438 117.613 34.2073 116.336 34.2073C115.058 34.2073 115.058 36.1438 116.336 36.1438ZM127.944 36.3373C129.477 36.3373 129.477 34.0136 127.944 34.0136C126.411 34.0136 126.411 36.3373 127.944 36.3373ZM139.552 36.4665C141.255 36.4665 141.255 33.8845 139.552 33.8845C137.848 33.8845 137.848 36.4665 139.552 36.4665ZM151.16 36.5956C153.034 36.5956 153.034 33.7555 151.16 33.7555C149.286 33.7555 149.286 36.5956 151.16 36.5956ZM162.768 36.6602C164.727 36.6602 164.727 33.6909 162.768 33.6909C160.809 33.6909 160.809 36.6602 162.768 36.6602ZM174.376 36.7247C176.42 36.7247 176.42 33.6263 174.376 33.6263C172.332 33.6263 172.332 36.7247 174.376 36.7247ZM185.984 36.7247C188.028 36.7247 188.028 33.6263 185.984 33.6263C183.94 33.6263 183.94 36.7247 185.984 36.7247ZM197.592 36.7247C199.636 36.7247 199.636 33.6263 197.592 33.6263C195.548 33.6263 195.548 36.7247 197.592 36.7247ZM209.2 36.6602C211.159 36.6602 211.159 33.6909 209.2 33.6909C207.241 33.6909 207.241 36.6602 209.2 36.6602ZM220.808 36.5956C222.682 36.5956 222.682 33.7555 220.808 33.7555C218.934 33.7555 218.934 36.5956 220.808 36.5956ZM232.416 36.4665C234.119 36.4665 234.119 33.8845 232.416 33.8845C230.713 33.8845 230.713 36.4665 232.416 36.4665ZM244.024 36.3373C245.557 36.3373 245.557 34.0136 244.024 34.0136C242.491 34.0136 242.491 36.3373 244.024 36.3373ZM255.632 36.176C256.952 36.176 256.952 34.1749 255.632 34.1749C254.312 34.1749 254.312 36.176 255.632 36.176ZM267.24 35.9824C268.305 35.9824 268.305 34.3686 267.24 34.3686C266.175 34.3686 266.175 35.9824 267.24 35.9824ZM278.848 35.7565C279.615 35.7565 279.615 34.5946 278.848 34.5946C278.082 34.5946 278.082 35.7565 278.848 35.7565ZM290.456 35.5306C290.925 35.5306 290.925 34.8205 290.456 34.8205C289.988 34.8205 289.988 35.5306 290.456 35.5306ZM302.064 35.3047C302.235 35.3047 302.235 35.0464 302.064 35.0464C301.894 35.0464 301.894 35.3047 302.064 35.3047ZM58.2958 46.9437C58.466 46.9437 58.466 46.6856 58.2958 46.6856C58.1254 46.6856 58.1254 46.9437 58.2958 46.9437ZM69.9037 47.2342C70.4573 47.2342 70.4573 46.3951 69.9037 46.3951C69.3501 46.3951 69.3501 47.2342 69.9037 47.2342ZM81.5118 47.4925C82.4059 47.4925 82.4059 46.1368 81.5118 46.1368C80.6174 46.1368 80.6174 47.4925 81.5118 47.4925ZM93.1199 47.7506C94.3548 47.7506 94.3548 45.8787 93.1199 45.8787C91.8847 45.8787 91.8847 47.7506 93.1199 47.7506ZM104.728 47.9765C106.261 47.9765 106.261 45.6528 104.728 45.6528C103.195 45.6528 103.195 47.9765 104.728 47.9765ZM116.336 48.2024C118.167 48.2024 118.167 45.4269 116.336 45.4269C114.505 45.4269 114.505 48.2024 116.336 48.2024ZM127.944 48.3638C129.988 48.3638 129.988 45.2654 127.944 45.2654C125.9 45.2654 125.9 48.3638 127.944 48.3638ZM139.552 48.5251C141.809 48.5251 141.809 45.104 139.552 45.104C137.295 45.104 137.295 48.5251 139.552 48.5251ZM151.16 48.6543C153.587 48.6543 153.587 44.9749 151.16 44.9749C148.732 44.9749 148.732 48.6543 151.16 48.6543ZM162.768 48.7188C165.281 48.7188 165.281 44.9104 162.768 44.9104C160.255 44.9104 160.255 48.7188 162.768 48.7188ZM174.376 48.7834C176.974 48.7834 176.974 44.8459 174.376 44.8459C171.778 44.8459 171.778 48.7834 174.376 48.7834ZM185.984 48.8156C188.624 48.8156 188.624 44.8135 185.984 44.8135C183.344 44.8135 183.344 48.8156 185.984 48.8156ZM197.592 48.7834C200.19 48.7834 200.19 44.8459 197.592 44.8459C194.994 44.8459 194.994 48.7834 197.592 48.7834ZM209.2 48.751C211.755 48.751 211.755 44.8781 209.2 44.8781C206.645 44.8781 206.645 48.751 209.2 48.751ZM220.808 48.6543C223.236 48.6543 223.236 44.9749 220.808 44.9749C218.381 44.9749 218.381 48.6543 220.808 48.6543ZM232.416 48.5251C234.673 48.5251 234.673 45.104 232.416 45.104C230.159 45.104 230.159 48.5251 232.416 48.5251ZM244.024 48.3961C246.111 48.3961 246.111 45.2332 244.024 45.2332C241.937 45.2332 241.937 48.3961 244.024 48.3961ZM255.632 48.2024C257.463 48.2024 257.463 45.4269 255.632 45.4269C253.801 45.4269 253.801 48.2024 255.632 48.2024ZM267.24 48.0087C268.816 48.0087 268.816 45.6204 267.24 45.6204C265.665 45.6204 265.665 48.0087 267.24 48.0087ZM278.848 47.7506C280.083 47.7506 280.083 45.8787 278.848 45.8787C277.613 45.8787 277.613 47.7506 278.848 47.7506ZM290.456 47.5247C291.393 47.5247 291.393 46.1046 290.456 46.1046C289.519 46.1046 289.519 47.5247 290.456 47.5247ZM302.064 47.2342C302.618 47.2342 302.618 46.3951 302.064 46.3951C301.511 46.3951 301.511 47.2342 302.064 47.2342ZM313.672 46.9761C313.885 46.9761 313.885 46.6532 313.672 46.6532C313.459 46.6532 313.459 46.9761 313.672 46.9761ZM46.6875 58.5829C46.8581 58.5829 46.8581 58.3246 46.6875 58.3246C46.5173 58.3246 46.5173 58.5829 46.6875 58.5829ZM58.2958 58.8734C58.8494 58.8734 58.8494 58.0341 58.2958 58.0341C57.7422 58.0341 57.7422 58.8734 58.2958 58.8734ZM69.9037 59.1961C70.8831 59.1961 70.8831 57.7114 69.9037 57.7114C68.9242 57.7114 68.9242 59.1961 69.9037 59.1961ZM81.5118 59.4866C82.8745 59.4866 82.8745 57.4209 81.5118 57.4209C80.1488 57.4209 80.1488 59.4866 81.5118 59.4866ZM93.1199 59.7447C94.8234 59.7447 94.8234 57.1627 93.1199 57.1627C91.4164 57.1627 91.4164 59.7447 93.1199 59.7447ZM104.728 59.9706C106.729 59.9706 106.729 56.9368 104.728 56.9368C102.726 56.9368 102.726 59.9706 104.728 59.9706ZM116.336 60.1965C118.636 60.1965 118.636 56.7108 116.336 56.7108C114.036 56.7108 114.036 60.1965 116.336 60.1965ZM127.944 60.3902C130.499 60.3902 130.499 56.5173 127.944 56.5173C125.389 56.5173 125.389 60.3902 127.944 60.3902ZM139.552 60.5516C142.32 60.5516 142.32 56.3558 139.552 56.3558C136.784 56.3558 136.784 60.5516 139.552 60.5516ZM151.16 60.6807C154.099 60.6807 154.099 56.2268 151.16 56.2268C148.221 56.2268 148.221 60.6807 151.16 60.6807ZM162.768 60.7775C165.834 60.7775 165.834 56.1299 162.768 56.1299C159.702 56.1299 159.702 60.7775 162.768 60.7775ZM174.376 60.8421C177.527 60.8421 177.527 56.0653 174.376 56.0653C171.225 56.0653 171.225 60.8421 174.376 60.8421ZM185.984 60.8744C189.178 60.8744 189.178 56.0331 185.984 56.0331C182.79 56.0331 182.79 60.8744 185.984 60.8744ZM197.592 60.8421C200.743 60.8421 200.743 56.0653 197.592 56.0653C194.44 56.0653 194.44 60.8421 197.592 60.8421ZM209.2 60.8098C212.309 60.8098 212.309 56.0977 209.2 56.0977C206.091 56.0977 206.091 60.8098 209.2 60.8098ZM220.808 60.7129C223.789 60.7129 223.789 56.1944 220.808 56.1944C217.827 56.1944 217.827 60.7129 220.808 60.7129ZM232.416 60.5839C235.227 60.5839 235.227 56.3236 232.416 56.3236C229.605 56.3236 229.605 60.5839 232.416 60.5839ZM244.024 60.4224C246.622 60.4224 246.622 56.4849 244.024 56.4849C241.426 56.4849 241.426 60.4224 244.024 60.4224ZM255.632 60.2289C257.975 60.2289 257.975 56.6786 255.632 56.6786C253.29 56.6786 253.29 60.2289 255.632 60.2289ZM267.24 60.003C269.284 60.003 269.284 56.9045 267.24 56.9045C265.196 56.9045 265.196 60.003 267.24 60.003ZM278.848 59.777C280.594 59.777 280.594 57.1305 278.848 57.1305C277.102 57.1305 277.102 59.777 278.848 59.777ZM290.456 59.4866C291.819 59.4866 291.819 57.4209 290.456 57.4209C289.094 57.4209 289.094 59.4866 290.456 59.4866ZM302.064 59.2283C303.086 59.2283 303.086 57.6791 302.064 57.6791C301.042 57.6791 301.042 59.2283 302.064 59.2283ZM313.672 58.9056C314.269 58.9056 314.269 58.0019 313.672 58.0019C313.076 58.0019 313.076 58.9056 313.672 58.9056ZM325.28 58.6151C325.493 58.6151 325.493 58.2924 325.28 58.2924C325.067 58.2924 325.067 58.6151 325.28 58.6151ZM35.0796 70.1897C35.2074 70.1897 35.2074 69.996 35.0796 69.996C34.9519 69.996 34.9519 70.1897 35.0796 70.1897ZM46.6875 70.5124C47.2413 70.5124 47.2413 69.6733 46.6875 69.6733C46.1339 69.6733 46.1339 70.5124 46.6875 70.5124ZM58.2958 70.8351C59.2751 70.8351 59.2751 69.3505 58.2958 69.3505C57.3161 69.3505 57.3161 70.8351 58.2958 70.8351ZM69.9037 71.158C71.309 71.158 71.309 69.0278 69.9037 69.0278C68.4983 69.0278 68.4983 71.158 69.9037 71.158ZM81.5118 71.4484C83.3003 71.4484 83.3003 68.7373 81.5118 68.7373C79.7232 68.7373 79.7232 71.4484 81.5118 71.4484ZM93.1199 71.7388C95.2916 71.7388 95.2916 68.4468 93.1199 68.4468C90.9478 68.4468 90.9478 71.7388 93.1199 71.7388ZM104.728 71.9971C107.241 71.9971 107.241 68.1887 104.728 68.1887C102.215 68.1887 102.215 71.9971 104.728 71.9971ZM116.336 72.223C119.146 72.223 119.146 67.9628 116.336 67.9628C113.525 67.9628 113.525 72.223 116.336 72.223ZM127.944 72.4167C131.01 72.4167 131.01 67.7691 127.944 67.7691C124.878 67.7691 124.878 72.4167 127.944 72.4167ZM139.552 72.6102C142.874 72.6102 142.874 67.5754 139.552 67.5754C136.23 67.5754 136.23 72.6102 139.552 72.6102ZM151.16 72.7394C154.652 72.7394 154.652 67.4462 151.16 67.4462C147.668 67.4462 147.668 72.7394 151.16 72.7394ZM162.768 72.8362C166.388 72.8362 166.388 67.3494 162.768 67.3494C159.148 67.3494 159.148 72.8362 162.768 72.8362ZM174.376 72.9007C178.081 72.9007 178.081 67.2849 174.376 67.2849C170.671 67.2849 170.671 72.9007 174.376 72.9007ZM185.984 72.9331C189.732 72.9331 189.732 67.2527 185.984 67.2527C182.236 67.2527 182.236 72.9331 185.984 72.9331ZM197.592 72.9007C201.297 72.9007 201.297 67.2849 197.592 67.2849C193.887 67.2849 193.887 72.9007 197.592 72.9007ZM209.2 72.8685C212.863 72.8685 212.863 67.3172 209.2 67.3172C205.538 67.3172 205.538 72.8685 209.2 72.8685ZM220.808 72.7394C224.3 72.7394 224.3 67.4462 220.808 67.4462C217.316 67.4462 217.316 72.7394 220.808 72.7394ZM232.416 72.6102C235.738 72.6102 235.738 67.5754 232.416 67.5754C229.094 67.5754 229.094 72.6102 232.416 72.6102ZM244.024 72.4489C247.133 72.4489 247.133 67.7367 244.024 67.7367C240.915 67.7367 240.915 72.4489 244.024 72.4489ZM255.632 72.223C258.443 72.223 258.443 67.9628 255.632 67.9628C252.822 67.9628 252.822 72.223 255.632 72.223ZM267.24 71.9971C269.753 71.9971 269.753 68.1887 267.24 68.1887C264.727 68.1887 264.727 71.9971 267.24 71.9971ZM278.848 71.7388C281.02 71.7388 281.02 68.4468 278.848 68.4468C276.676 68.4468 276.676 71.7388 278.848 71.7388ZM290.456 71.4807C292.287 71.4807 292.287 68.7051 290.456 68.7051C288.625 68.7051 288.625 71.4807 290.456 71.4807ZM302.064 71.158C303.47 71.158 303.47 69.0278 302.064 69.0278C300.659 69.0278 300.659 71.158 302.064 71.158ZM313.672 70.8675C314.694 70.8675 314.694 69.3183 313.672 69.3183C312.65 69.3183 312.65 70.8675 313.672 70.8675ZM325.28 70.5124C325.834 70.5124 325.834 69.6733 325.28 69.6733C324.727 69.6733 324.727 70.5124 325.28 70.5124ZM336.888 70.2219C337.059 70.2219 337.059 69.9638 336.888 69.9638C336.718 69.9638 336.718 70.2219 336.888 70.2219ZM23.4718 81.7642C23.5142 81.7642 23.5142 81.6996 23.4718 81.6996C23.4291 81.6996 23.4291 81.7642 23.4718 81.7642ZM35.0796 82.0547C35.5055 82.0547 35.5055 81.4091 35.0796 81.4091C34.6538 81.4091 34.6538 82.0547 35.0796 82.0547ZM46.6875 82.4097C47.5819 82.4097 47.5819 81.0542 46.6875 81.0542C45.7933 81.0542 45.7933 82.4097 46.6875 82.4097ZM58.2958 82.7648C59.6585 82.7648 59.6585 80.6992 58.2958 80.6992C56.9329 80.6992 56.9329 82.7648 58.2958 82.7648ZM69.9037 83.0875C71.6925 83.0875 71.6925 80.3763 69.9037 80.3763C68.1149 80.3763 68.1149 83.0875 69.9037 83.0875ZM81.5118 83.4102C83.7265 83.4102 83.7265 80.0536 81.5118 80.0536C79.2973 80.0536 79.2973 83.4102 81.5118 83.4102ZM93.1199 83.7007C95.7178 83.7007 95.7178 79.7632 93.1199 79.7632C90.522 79.7632 90.522 83.7007 93.1199 83.7007ZM104.728 83.9589C107.666 83.9589 107.666 79.505 104.728 79.505C101.789 79.505 101.789 83.9589 104.728 83.9589ZM116.336 84.2171C119.615 84.2171 119.615 79.2467 116.336 79.2467C113.057 79.2467 113.057 84.2171 116.336 84.2171ZM127.944 84.443C131.521 84.443 131.521 79.0208 127.944 79.0208C124.367 79.0208 124.367 84.443 127.944 84.443ZM139.552 84.6367C143.385 84.6367 143.385 78.8271 139.552 78.8271C135.719 78.8271 135.719 84.6367 139.552 84.6367ZM151.16 84.798C155.206 84.798 155.206 78.6658 151.16 78.6658C147.114 78.6658 147.114 84.798 151.16 84.798ZM162.768 84.8948C166.942 84.8948 166.942 78.569 162.768 78.569C158.595 78.569 158.595 84.8948 162.768 84.8948ZM174.376 84.9594C178.635 84.9594 178.635 78.5044 174.376 78.5044C170.117 78.5044 170.117 84.9594 174.376 84.9594ZM185.984 84.9917C190.286 84.9917 190.286 78.4722 185.984 78.4722C181.683 78.4722 181.683 84.9917 185.984 84.9917ZM197.592 84.9917C201.893 84.9917 201.893 78.4722 197.592 78.4722C193.291 78.4722 193.291 84.9917 197.592 84.9917ZM209.2 84.9272C213.416 84.9272 213.416 78.5368 209.2 78.5368C204.984 78.5368 204.984 84.9272 209.2 84.9272ZM220.808 84.798C224.854 84.798 224.854 78.6658 220.808 78.6658C216.762 78.6658 216.762 84.798 220.808 84.798ZM232.416 84.6367C236.249 84.6367 236.249 78.8271 232.416 78.8271C228.583 78.8271 228.583 84.6367 232.416 84.6367ZM244.024 84.443C247.601 84.443 247.601 79.0208 244.024 79.0208C240.447 79.0208 240.447 84.443 244.024 84.443ZM255.632 84.2494C258.954 84.2494 258.954 79.2145 255.632 79.2145C252.311 79.2145 252.311 84.2494 255.632 84.2494ZM267.24 83.9911C270.221 83.9911 270.221 79.4727 267.24 79.4727C264.259 79.4727 264.259 83.9911 267.24 83.9911ZM278.848 83.7007C281.446 83.7007 281.446 79.7632 278.848 79.7632C276.25 79.7632 276.25 83.7007 278.848 83.7007ZM290.456 83.4102C292.671 83.4102 292.671 80.0536 290.456 80.0536C288.242 80.0536 288.242 83.4102 290.456 83.4102ZM302.064 83.1197C303.896 83.1197 303.896 80.3441 302.064 80.3441C300.233 80.3441 300.233 83.1197 302.064 83.1197ZM313.672 82.797C315.078 82.797 315.078 80.6668 313.672 80.6668C312.267 80.6668 312.267 82.797 313.672 82.797ZM325.28 82.4419C326.217 82.4419 326.217 81.0219 325.28 81.0219C324.343 81.0219 324.343 82.4419 325.28 82.4419ZM336.888 82.0869C337.357 82.0869 337.357 81.3769 336.888 81.3769C336.42 81.3769 336.42 82.0869 336.888 82.0869ZM348.496 81.7965C348.582 81.7965 348.582 81.6674 348.496 81.6674C348.411 81.6674 348.411 81.7965 348.496 81.7965ZM23.4718 93.5647C23.727 93.5647 23.727 93.1775 23.4718 93.1775C23.2161 93.1775 23.2161 93.5647 23.4718 93.5647ZM35.0796 93.952C35.846 93.952 35.846 92.79 35.0796 92.79C34.3132 92.79 34.3132 93.952 35.0796 93.952ZM46.6875 94.307C47.9227 94.307 47.9227 92.4351 46.6875 92.4351C45.4528 92.4351 45.4528 94.307 46.6875 94.307ZM58.2958 94.6621C59.9993 94.6621 59.9993 92.0801 58.2958 92.0801C56.5923 92.0801 56.5923 94.6621 58.2958 94.6621ZM69.9037 95.017C72.0757 95.017 72.0757 91.725 69.9037 91.725C67.7319 91.725 67.7319 95.017 69.9037 95.017ZM81.5118 95.3398C84.1097 95.3398 84.1097 91.4023 81.5118 91.4023C78.9139 91.4023 78.9139 95.3398 81.5118 95.3398ZM93.1199 95.6625C96.1434 95.6625 96.1434 91.0795 93.1199 91.0795C90.0961 91.0795 90.0961 95.6625 93.1199 95.6625ZM104.728 95.953C108.135 95.953 108.135 90.789 104.728 90.789C101.321 90.789 101.321 95.953 104.728 95.953ZM116.336 96.2113C120.084 96.2113 120.084 90.5309 116.336 90.5309C112.588 90.5309 112.588 96.2113 116.336 96.2113ZM127.944 96.4372C131.99 96.4372 131.99 90.305 127.944 90.305C123.898 90.305 123.898 96.4372 127.944 96.4372ZM139.552 96.6631C143.896 96.6631 143.896 90.079 139.552 90.079C135.208 90.079 135.208 96.6631 139.552 96.6631ZM151.16 96.8245C155.717 96.8245 155.717 89.9177 151.16 89.9177C146.603 89.9177 146.603 96.8245 151.16 96.8245ZM162.768 96.9536C167.495 96.9536 167.495 89.7886 162.768 89.7886C158.041 89.7886 158.041 96.9536 162.768 96.9536ZM174.376 97.0504C179.231 97.0504 179.231 89.6918 174.376 89.6918C169.521 89.6918 169.521 97.0504 174.376 97.0504ZM185.984 97.0826C190.882 97.0826 190.882 89.6594 185.984 89.6594C181.086 89.6594 181.086 97.0826 185.984 97.0826ZM197.592 97.0504C202.447 97.0504 202.447 89.6918 197.592 89.6918C192.737 89.6918 192.737 97.0504 197.592 97.0504ZM209.2 96.9536C213.927 96.9536 213.927 89.7886 209.2 89.7886C204.473 89.7886 204.473 96.9536 209.2 96.9536ZM220.808 96.8567C225.407 96.8567 225.407 89.8853 220.808 89.8853C216.209 89.8853 216.209 96.8567 220.808 96.8567ZM232.416 96.6631C236.76 96.6631 236.76 90.079 232.416 90.079C228.072 90.079 228.072 96.6631 232.416 96.6631ZM244.024 96.4694C248.113 96.4694 248.113 90.2727 244.024 90.2727C239.936 90.2727 239.936 96.4694 244.024 96.4694ZM255.632 96.2113C259.38 96.2113 259.38 90.5309 255.632 90.5309C251.884 90.5309 251.884 96.2113 255.632 96.2113ZM267.24 95.953C270.647 95.953 270.647 90.789 267.24 90.789C263.833 90.789 263.833 95.953 267.24 95.953ZM278.848 95.6625C281.872 95.6625 281.872 91.0795 278.848 91.0795C275.825 91.0795 275.825 95.6625 278.848 95.6625ZM290.456 95.3721C293.097 95.3721 293.097 91.37 290.456 91.37C287.816 91.37 287.816 95.3721 290.456 95.3721ZM302.064 95.017C304.236 95.017 304.236 91.725 302.064 91.725C299.892 91.725 299.892 95.017 302.064 95.017ZM313.672 94.6943C315.419 94.6943 315.419 92.0477 313.672 92.0477C311.926 92.0477 311.926 94.6943 313.672 94.6943ZM325.28 94.3393C326.558 94.3393 326.558 92.4028 325.28 92.4028C324.003 92.4028 324.003 94.3393 325.28 94.3393ZM336.888 93.952C337.655 93.952 337.655 92.79 336.888 92.79C336.122 92.79 336.122 93.952 336.888 93.952ZM348.496 93.5969C348.795 93.5969 348.795 93.1451 348.496 93.1451C348.198 93.1451 348.198 93.5969 348.496 93.5969ZM11.8634 105.075C11.9488 105.075 11.9488 104.946 11.8634 104.946C11.7784 104.946 11.7784 105.075 11.8634 105.075ZM23.4718 105.397C23.9827 105.397 23.9827 104.623 23.4718 104.623C22.9606 104.623 22.9606 105.397 23.4718 105.397ZM35.0796 105.785C36.1018 105.785 36.1018 104.236 35.0796 104.236C34.0575 104.236 34.0575 105.785 35.0796 105.785ZM46.6875 106.172C48.2208 106.172 48.2208 103.848 46.6875 103.848C45.1544 103.848 45.1544 106.172 46.6875 106.172ZM58.2958 106.527C60.2972 106.527 60.2972 103.493 58.2958 103.493C56.2942 103.493 56.2942 106.527 58.2958 106.527ZM69.9037 106.914C72.4162 106.914 72.4162 103.106 69.9037 103.106C67.3911 103.106 67.3911 106.914 69.9037 106.914ZM81.5118 107.237C84.4502 107.237 84.4502 102.783 81.5118 102.783C78.5733 102.783 78.5733 107.237 81.5118 107.237ZM93.1199 107.592C96.5268 107.592 96.5268 102.428 93.1199 102.428C89.7129 102.428 89.7129 107.592 93.1199 107.592ZM104.728 107.883C108.518 107.883 108.518 102.138 104.728 102.138C100.938 102.138 100.938 107.883 104.728 107.883ZM116.336 108.173C120.509 108.173 120.509 101.847 116.336 101.847C112.162 101.847 112.162 108.173 116.336 108.173ZM127.944 108.431C132.458 108.431 132.458 101.589 127.944 101.589C123.43 101.589 123.43 108.431 127.944 108.431ZM139.552 108.689C144.407 108.689 144.407 101.331 139.552 101.331C134.697 101.331 134.697 108.689 139.552 108.689ZM151.16 108.883C156.271 108.883 156.271 101.137 151.16 101.137C146.049 101.137 146.049 108.883 151.16 108.883ZM162.768 109.012C168.049 109.012 168.049 101.008 162.768 101.008C157.487 101.008 157.487 109.012 162.768 109.012ZM174.376 109.109C179.785 109.109 179.785 100.911 174.376 100.911C168.967 100.911 168.967 109.109 174.376 109.109ZM185.984 109.141C191.435 109.141 191.435 100.879 185.984 100.879C180.533 100.879 180.533 109.141 185.984 109.141ZM197.592 109.109C203.001 109.109 203.001 100.911 197.592 100.911C192.183 100.911 192.183 109.109 197.592 109.109ZM209.2 109.012C214.481 109.012 214.481 101.008 209.2 101.008C203.919 101.008 203.919 109.012 209.2 109.012ZM220.808 108.883C225.919 108.883 225.919 101.137 220.808 101.137C215.698 101.137 215.698 108.883 220.808 108.883ZM232.416 108.689C237.271 108.689 237.271 101.331 232.416 101.331C227.561 101.331 227.561 108.689 232.416 108.689ZM244.024 108.464C248.581 108.464 248.581 101.557 244.024 101.557C239.467 101.557 239.467 108.464 244.024 108.464ZM255.632 108.205C259.848 108.205 259.848 101.815 255.632 101.815C251.416 101.815 251.416 108.205 255.632 108.205ZM267.24 107.915C271.073 107.915 271.073 102.105 267.24 102.105C263.407 102.105 263.407 107.915 267.24 107.915ZM278.848 107.592C282.255 107.592 282.255 102.428 278.848 102.428C275.441 102.428 275.441 107.592 278.848 107.592ZM290.456 107.269C293.437 107.269 293.437 102.751 290.456 102.751C287.475 102.751 287.475 107.269 290.456 107.269ZM302.064 106.947C304.62 106.947 304.62 103.074 302.064 103.074C299.509 103.074 299.509 106.947 302.064 106.947ZM313.672 106.559C315.716 106.559 315.716 103.461 313.672 103.461C311.628 103.461 311.628 106.559 313.672 106.559ZM325.28 106.204C326.856 106.204 326.856 103.816 325.28 103.816C323.705 103.816 323.705 106.204 325.28 106.204ZM336.888 105.817C337.953 105.817 337.953 104.203 336.888 104.203C335.824 104.203 335.824 105.817 336.888 105.817ZM348.496 105.43C349.05 105.43 349.05 104.591 348.496 104.591C347.943 104.591 347.943 105.43 348.496 105.43ZM360.104 105.075C360.19 105.075 360.19 104.946 360.104 104.946C360.019 104.946 360.019 105.075 360.104 105.075ZM11.8634 116.843C12.1192 116.843 12.1192 116.456 11.8634 116.456C11.608 116.456 11.608 116.843 11.8634 116.843ZM23.4718 117.23C24.2382 117.23 24.2382 116.068 23.4718 116.068C22.7051 116.068 22.7051 117.23 23.4718 117.23ZM35.0796 117.617C36.3573 117.617 36.3573 115.681 35.0796 115.681C33.802 115.681 33.802 117.617 35.0796 117.617ZM46.6875 118.037C48.519 118.037 48.519 115.261 46.6875 115.261C44.8565 115.261 44.8565 118.037 46.6875 118.037ZM58.2958 118.392C60.5956 118.392 60.5956 114.906 58.2958 114.906C55.9961 114.906 55.9961 118.392 58.2958 118.392ZM69.9037 118.779C72.7144 118.779 72.7144 114.519 69.9037 114.519C67.093 114.519 67.093 118.779 69.9037 118.779ZM81.5118 119.134C84.791 119.134 84.791 114.164 81.5118 114.164C78.2325 114.164 78.2325 119.134 81.5118 119.134ZM93.1199 119.489C96.8674 119.489 96.8674 113.809 93.1199 113.809C89.3721 113.809 89.3721 119.489 93.1199 119.489ZM104.728 119.812C108.901 119.812 108.901 113.486 104.728 113.486C100.554 113.486 100.554 119.812 104.728 119.812ZM116.336 120.135C120.935 120.135 120.935 113.164 116.336 113.164C111.737 113.164 111.737 120.135 116.336 120.135ZM127.944 120.425C132.927 120.425 132.927 112.873 127.944 112.873C122.961 112.873 122.961 120.425 127.944 120.425ZM139.552 120.684C144.875 120.684 144.875 112.615 139.552 112.615C134.228 112.615 134.228 120.684 139.552 120.684ZM151.16 120.91C156.781 120.91 156.781 112.389 151.16 112.389C145.538 112.389 145.538 120.91 151.16 120.91ZM162.768 121.071C168.602 121.071 168.602 112.228 162.768 112.228C156.933 112.228 156.933 121.071 162.768 121.071ZM174.376 121.168C180.338 121.168 180.338 112.131 174.376 112.131C168.414 112.131 168.414 121.168 174.376 121.168ZM185.984 121.2C191.989 121.2 191.989 112.099 185.984 112.099C179.979 112.099 179.979 121.2 185.984 121.2ZM197.592 121.168C203.554 121.168 203.554 112.131 197.592 112.131C191.63 112.131 191.63 121.168 197.592 121.168ZM209.2 121.071C215.035 121.071 215.035 112.228 209.2 112.228C203.366 112.228 203.366 121.071 209.2 121.071ZM220.808 120.91C226.43 120.91 226.43 112.389 220.808 112.389C215.187 112.389 215.187 120.91 220.808 120.91ZM232.416 120.716C237.782 120.716 237.782 112.583 232.416 112.583C227.05 112.583 227.05 120.716 232.416 120.716ZM244.024 120.458C249.049 120.458 249.049 112.841 244.024 112.841C238.999 112.841 238.999 120.458 244.024 120.458ZM255.632 120.167C260.274 120.167 260.274 113.131 255.632 113.131C250.99 113.131 250.99 120.167 255.632 120.167ZM267.24 119.844C271.456 119.844 271.456 113.454 267.24 113.454C263.024 113.454 263.024 119.844 267.24 119.844ZM278.848 119.522C282.639 119.522 282.639 113.777 278.848 113.777C275.058 113.777 275.058 119.522 278.848 119.522ZM290.456 119.167C293.778 119.167 293.778 114.132 290.456 114.132C287.135 114.132 287.135 119.167 290.456 119.167ZM302.064 118.812C304.918 118.812 304.918 114.487 302.064 114.487C299.211 114.487 299.211 118.812 302.064 118.812ZM313.672 118.424C316.015 118.424 316.015 114.874 313.672 114.874C311.33 114.874 311.33 118.424 313.672 118.424ZM325.28 118.037C327.111 118.037 327.111 115.261 325.28 115.261C323.449 115.261 323.449 118.037 325.28 118.037ZM336.888 117.65C338.209 117.65 338.209 115.649 336.888 115.649C335.568 115.649 335.568 117.65 336.888 117.65ZM348.496 117.263C349.306 117.263 349.306 116.036 348.496 116.036C347.687 116.036 347.687 117.263 348.496 117.263ZM360.104 116.875C360.402 116.875 360.402 116.423 360.104 116.423C359.806 116.423 359.806 116.875 360.104 116.875ZM0.255602 128.321C0.298268 128.321 0.298268 128.256 0.255602 128.256C0.212936 128.256 0.212936 128.321 0.255602 128.321ZM11.8634 128.611C12.2896 128.611 12.2896 127.966 11.8634 127.966C11.4378 127.966 11.4378 128.611 11.8634 128.611ZM23.4718 129.031C24.451 129.031 24.451 127.546 23.4718 127.546C22.4921 127.546 22.4921 129.031 23.4718 129.031ZM35.0796 129.45C36.6127 129.45 36.6127 127.126 35.0796 127.126C33.5466 127.126 33.5466 129.45 35.0796 129.45ZM46.6875 129.837C48.7318 129.837 48.7318 126.739 46.6875 126.739C44.6434 126.739 44.6434 129.837 46.6875 129.837ZM58.2958 130.225C60.8511 130.225 60.8511 126.352 58.2958 126.352C55.7406 126.352 55.7406 130.225 58.2958 130.225ZM69.9037 130.612C72.9701 130.612 72.9701 125.965 69.9037 125.965C66.8375 125.965 66.8375 130.612 69.9037 130.612ZM81.5118 130.999C85.0891 130.999 85.0891 125.577 81.5118 125.577C77.9344 125.577 77.9344 130.999 81.5118 130.999ZM93.1199 131.354C97.1655 131.354 97.1655 125.222 93.1199 125.222C89.074 125.222 89.074 131.354 93.1199 131.354ZM104.728 131.71C109.242 131.71 109.242 124.867 104.728 124.867C100.214 124.867 100.214 131.71 104.728 131.71ZM116.336 132.065C121.319 132.065 121.319 124.512 116.336 124.512C111.353 124.512 111.353 132.065 116.336 132.065ZM127.944 132.387C133.352 132.387 133.352 124.189 127.944 124.189C122.535 124.189 122.535 132.387 127.944 132.387ZM139.552 132.678C145.344 132.678 145.344 123.899 139.552 123.899C133.76 123.899 133.76 132.678 139.552 132.678ZM151.16 132.936C157.292 132.936 157.292 123.641 151.16 123.641C145.027 123.641 145.027 132.936 151.16 132.936ZM162.768 133.13C169.156 133.13 169.156 123.447 162.768 123.447C156.38 123.447 156.38 133.13 162.768 133.13ZM174.376 133.259C180.935 133.259 180.935 123.318 174.376 123.318C167.818 123.318 167.818 133.259 174.376 133.259ZM185.984 133.291C192.585 133.291 192.585 123.286 185.984 123.286C179.383 123.286 179.383 133.291 185.984 133.291ZM197.592 133.259C204.15 133.259 204.15 123.318 197.592 123.318C191.033 123.318 191.033 133.259 197.592 133.259ZM209.2 133.13C215.588 133.13 215.588 123.447 209.2 123.447C202.812 123.447 202.812 133.13 209.2 133.13ZM220.808 132.936C226.941 132.936 226.941 123.641 220.808 123.641C214.676 123.641 214.676 132.936 220.808 132.936ZM232.416 132.71C238.251 132.71 238.251 123.867 232.416 123.867C226.582 123.867 226.582 132.71 232.416 132.71ZM244.024 132.419C249.475 132.419 249.475 124.157 244.024 124.157C238.573 124.157 238.573 132.419 244.024 132.419ZM255.632 132.097C260.657 132.097 260.657 124.48 255.632 124.48C250.607 124.48 250.607 132.097 255.632 132.097ZM267.24 131.742C271.797 131.742 271.797 124.835 267.24 124.835C262.683 124.835 262.683 131.742 267.24 131.742ZM278.848 131.387C282.937 131.387 282.937 125.19 278.848 125.19C274.76 125.19 274.76 131.387 278.848 131.387ZM290.456 131.032C294.076 131.032 294.076 125.545 290.456 125.545C286.836 125.545 286.836 131.032 290.456 131.032ZM302.064 130.644C305.173 130.644 305.173 125.932 302.064 125.932C298.956 125.932 298.956 130.644 302.064 130.644ZM313.672 130.257C316.27 130.257 316.27 126.32 313.672 126.32C311.075 126.32 311.075 130.257 313.672 130.257ZM325.28 129.87C327.367 129.87 327.367 126.707 325.28 126.707C323.194 126.707 323.194 129.87 325.28 129.87ZM336.888 129.483C338.464 129.483 338.464 127.094 336.888 127.094C335.313 127.094 335.313 129.483 336.888 129.483ZM348.496 129.063C349.519 129.063 349.519 127.514 348.496 127.514C347.474 127.514 347.474 129.063 348.496 129.063ZM360.104 128.643C360.573 128.643 360.573 127.933 360.104 127.933C359.636 127.933 359.636 128.643 360.104 128.643ZM371.712 128.321C371.755 128.321 371.755 128.256 371.712 128.256C371.67 128.256 371.67 128.321 371.712 128.321ZM0.255602 139.992C0.340671 139.992 0.340671 139.863 0.255602 139.863C0.17027 139.863 0.17027 139.992 0.255602 139.992ZM11.8634 140.379C12.4597 140.379 12.4597 139.476 11.8634 139.476C11.2674 139.476 11.2674 140.379 11.8634 140.379ZM23.4718 140.799C24.6214 140.799 24.6214 139.056 23.4718 139.056C22.3219 139.056 22.3219 140.799 23.4718 140.799ZM35.0796 141.219C36.7831 141.219 36.7831 138.637 35.0796 138.637C33.3761 138.637 33.3761 141.219 35.0796 141.219ZM46.6875 141.638C48.9448 141.638 48.9448 138.217 46.6875 138.217C44.4304 138.217 44.4304 141.638 46.6875 141.638ZM58.2958 142.025C61.0639 142.025 61.0639 137.83 58.2958 137.83C55.5275 137.83 55.5275 142.025 58.2958 142.025ZM69.9037 142.445C73.2256 142.445 73.2256 137.41 69.9037 137.41C66.582 137.41 66.582 142.445 69.9037 142.445ZM81.5118 142.832C85.3446 142.832 85.3446 137.023 81.5118 137.023C77.6789 137.023 77.6789 142.832 81.5118 142.832ZM93.1199 143.22C97.4637 143.22 97.4637 136.635 93.1199 136.635C88.7758 136.635 88.7758 143.22 93.1199 143.22ZM104.728 143.607C109.583 143.607 109.583 136.248 104.728 136.248C99.873 136.248 99.873 143.607 104.728 143.607ZM116.336 143.962C121.659 143.962 121.659 135.893 116.336 135.893C111.012 135.893 111.012 143.962 116.336 143.962ZM127.944 144.317C133.736 144.317 133.736 135.538 127.944 135.538C122.152 135.538 122.152 144.317 127.944 144.317ZM139.552 144.64C145.77 144.64 145.77 135.215 139.552 135.215C133.334 135.215 133.334 144.64 139.552 144.64ZM151.16 144.93C157.761 144.93 157.761 134.925 151.16 134.925C144.559 134.925 144.559 144.93 151.16 144.93ZM162.768 145.156C169.667 145.156 169.667 134.699 162.768 134.699C155.869 134.699 155.869 145.156 162.768 145.156ZM174.376 145.317C181.488 145.317 181.488 134.538 174.376 134.538C167.264 134.538 167.264 145.317 174.376 145.317ZM185.984 145.382C193.181 145.382 193.181 134.473 185.984 134.473C178.787 134.473 178.787 145.382 185.984 145.382ZM197.592 145.317C204.704 145.317 204.704 134.538 197.592 134.538C190.48 134.538 190.48 145.317 197.592 145.317ZM209.2 145.156C216.099 145.156 216.099 134.699 209.2 134.699C202.301 134.699 202.301 145.156 209.2 145.156ZM220.808 144.93C227.409 144.93 227.409 134.925 220.808 134.925C214.207 134.925 214.207 144.93 220.808 144.93ZM232.416 144.672C238.676 144.672 238.676 135.183 232.416 135.183C226.156 135.183 226.156 144.672 232.416 144.672ZM244.024 144.349C249.859 144.349 249.859 135.506 244.024 135.506C238.19 135.506 238.19 144.349 244.024 144.349ZM255.632 143.994C260.998 143.994 260.998 135.861 255.632 135.861C250.266 135.861 250.266 143.994 255.632 143.994ZM267.24 143.639C272.138 143.639 272.138 136.216 267.24 136.216C262.343 136.216 262.343 143.639 267.24 143.639ZM278.848 143.252C283.235 143.252 283.235 136.603 278.848 136.603C274.462 136.603 274.462 143.252 278.848 143.252ZM290.456 142.865C294.332 142.865 294.332 136.99 290.456 136.99C286.581 136.99 286.581 142.865 290.456 142.865ZM302.064 142.477C305.429 142.477 305.429 137.378 302.064 137.378C298.7 137.378 298.7 142.477 302.064 142.477ZM313.672 142.058C316.483 142.058 316.483 137.797 313.672 137.797C310.862 137.797 310.862 142.058 313.672 142.058ZM325.28 141.67C327.58 141.67 327.58 138.185 325.28 138.185C322.98 138.185 322.98 141.67 325.28 141.67ZM336.888 141.251C338.635 141.251 338.635 138.604 336.888 138.604C335.142 138.604 335.142 141.251 336.888 141.251ZM348.496 140.831C349.689 140.831 349.689 139.024 348.496 139.024C347.304 139.024 347.304 140.831 348.496 140.831ZM360.104 140.412C360.743 140.412 360.743 139.443 360.104 139.443C359.466 139.443 359.466 140.412 360.104 140.412ZM371.712 140.024C371.84 140.024 371.84 139.831 371.712 139.831C371.585 139.831 371.585 140.024 371.712 140.024ZM0.255602 151.696C0.42574 151.696 0.42574 151.438 0.255602 151.438C0.0852007 151.438 0.0852007 151.696 0.255602 151.696ZM11.8634 152.115C12.5877 152.115 12.5877 151.018 11.8634 151.018C11.1397 151.018 11.1397 152.115 11.8634 152.115ZM23.4718 152.535C24.7492 152.535 24.7492 150.598 23.4718 150.598C22.1939 150.598 22.1939 152.535 23.4718 152.535ZM35.0796 152.987C36.9535 152.987 36.9535 150.146 35.0796 150.146C33.2057 150.146 33.2057 152.987 35.0796 152.987ZM46.6875 153.406C49.1152 153.406 49.1152 149.727 46.6875 149.727C44.2602 149.727 44.2602 153.406 46.6875 153.406ZM58.2958 153.794C61.2343 153.794 61.2343 149.34 58.2958 149.34C55.3571 149.34 55.3571 153.794 58.2958 153.794ZM69.9037 154.213C73.396 154.213 73.396 148.92 69.9037 148.92C66.4116 148.92 66.4116 154.213 69.9037 154.213ZM81.5118 154.633C85.5574 154.633 85.5574 148.5 81.5118 148.5C77.4659 148.5 77.4659 154.633 81.5118 154.633ZM93.1199 155.02C97.6767 155.02 97.6767 148.113 93.1199 148.113C88.563 148.113 88.563 155.02 93.1199 155.02ZM104.728 155.44C109.838 155.44 109.838 147.694 104.728 147.694C99.6172 147.694 99.6172 155.44 104.728 155.44ZM116.336 155.827C121.957 155.827 121.957 147.306 116.336 147.306C110.714 147.306 110.714 155.827 116.336 155.827ZM127.944 156.214C134.076 156.214 134.076 146.919 127.944 146.919C121.811 146.919 121.811 156.214 127.944 156.214ZM139.552 156.569C146.153 156.569 146.153 146.564 139.552 146.564C132.951 146.564 132.951 156.569 139.552 156.569ZM151.16 156.892C158.187 156.892 158.187 146.241 151.16 146.241C144.133 146.241 144.133 156.892 151.16 156.892ZM162.768 157.182C170.178 157.182 170.178 145.951 162.768 145.951C155.358 145.951 155.358 157.182 162.768 157.182ZM174.376 157.344C181.999 157.344 181.999 145.789 174.376 145.789C166.753 145.789 166.753 157.344 174.376 157.344ZM185.984 157.441C193.735 157.441 193.735 145.693 185.984 145.693C178.233 145.693 178.233 157.441 185.984 157.441ZM197.592 157.376C205.258 157.376 205.258 145.757 197.592 145.757C189.926 145.757 189.926 157.376 197.592 157.376ZM209.2 157.182C216.61 157.182 216.61 145.951 209.2 145.951C201.79 145.951 201.79 157.182 209.2 157.182ZM220.808 156.924C227.878 156.924 227.878 146.209 220.808 146.209C213.739 146.209 213.739 156.924 220.808 156.924ZM232.416 156.602C239.06 156.602 239.06 146.532 232.416 146.532C225.772 146.532 225.772 156.602 232.416 156.602ZM244.024 156.214C250.157 156.214 250.157 146.919 244.024 146.919C237.891 146.919 237.891 156.214 244.024 156.214ZM255.632 155.859C261.296 155.859 261.296 147.274 255.632 147.274C249.968 147.274 249.968 155.859 255.632 155.859ZM267.24 155.472C272.393 155.472 272.393 147.661 267.24 147.661C262.087 147.661 262.087 155.472 267.24 155.472ZM278.848 155.052C283.448 155.052 283.448 148.081 278.848 148.081C274.249 148.081 274.249 155.052 278.848 155.052ZM290.456 154.665C294.545 154.665 294.545 148.468 290.456 148.468C286.368 148.468 286.368 154.665 290.456 154.665ZM302.064 154.245C305.599 154.245 305.599 148.888 302.064 148.888C298.53 148.888 298.53 154.245 302.064 154.245ZM313.672 153.826C316.653 153.826 316.653 149.307 313.672 149.307C310.691 149.307 310.691 153.826 313.672 153.826ZM325.28 153.439C327.75 153.439 327.75 149.695 325.28 149.695C322.81 149.695 322.81 153.439 325.28 153.439ZM336.888 153.019C338.805 153.019 338.805 150.114 336.888 150.114C334.972 150.114 334.972 153.019 336.888 153.019ZM348.496 152.567C349.816 152.567 349.816 150.566 348.496 150.566C347.176 150.566 347.176 152.567 348.496 152.567ZM360.104 152.147C360.871 152.147 360.871 150.986 360.104 150.986C359.338 150.986 359.338 152.147 360.104 152.147ZM371.712 151.728C371.925 151.728 371.925 151.405 371.712 151.405C371.5 151.405 371.5 151.728 371.712 151.728ZM0.255602 163.399C0.511072 163.399 0.511072 163.012 0.255602 163.012C0.000131686 163.012 0.00013167 163.399 0.255602 163.399ZM11.8634 163.819C12.6728 163.819 12.6728 162.592 11.8634 162.592C11.0544 162.592 11.0544 163.819 11.8634 163.819ZM23.4718 164.271C24.8769 164.271 24.8769 162.141 23.4718 162.141C22.0662 162.141 22.0662 164.271 23.4718 164.271ZM35.0796 164.69C37.0386 164.69 37.0386 161.721 35.0796 161.721C33.1207 161.721 33.1207 164.69 35.0796 164.69ZM46.6875 165.11C49.2003 165.11 49.2003 161.301 46.6875 161.301C44.1749 161.301 44.1749 165.11 46.6875 165.11ZM58.2958 165.529C61.362 165.529 61.362 160.882 58.2958 160.882C55.2294 160.882 55.2294 165.529 58.2958 165.529ZM69.9037 165.949C73.5237 165.949 73.5237 160.462 69.9037 160.462C66.2839 160.462 66.2839 165.949 69.9037 165.949ZM81.5118 166.369C85.6854 166.369 85.6854 160.043 81.5118 160.043C77.3381 160.043 77.3381 166.369 81.5118 166.369ZM93.1199 166.788C97.8469 166.788 97.8469 159.623 93.1199 159.623C88.3926 159.623 88.3926 166.788 93.1199 166.788ZM104.728 167.208C110.009 167.208 110.009 159.204 104.728 159.204C99.4471 159.204 99.4471 167.208 104.728 167.208ZM116.336 167.627C122.17 167.627 122.17 158.784 116.336 158.784C110.501 158.784 110.501 167.627 116.336 167.627ZM127.944 168.047C134.332 168.047 134.332 158.365 127.944 158.365C121.556 158.365 121.556 168.047 127.944 168.047ZM139.552 168.434C146.451 168.434 146.451 157.977 139.552 157.977C132.653 157.977 132.653 168.434 139.552 168.434ZM151.16 168.822C158.57 168.822 158.57 157.59 151.16 157.59C143.75 157.59 143.75 168.822 151.16 168.822ZM162.768 169.144C170.604 169.144 170.604 157.267 162.768 157.267C154.932 157.267 154.932 169.144 162.768 169.144ZM174.376 169.402C182.553 169.402 182.553 157.009 174.376 157.009C166.199 157.009 166.199 169.402 174.376 169.402ZM185.984 169.499C194.288 169.499 194.288 156.912 185.984 156.912C177.68 156.912 177.68 169.499 185.984 169.499ZM197.592 169.402C205.769 169.402 205.769 157.009 197.592 157.009C189.415 157.009 189.415 169.402 197.592 169.402ZM209.2 169.177C217.079 169.177 217.079 157.235 209.2 157.235C201.321 157.235 201.321 169.177 209.2 169.177ZM220.808 168.822C228.218 168.822 228.218 157.59 220.808 157.59C213.398 157.59 213.398 168.822 220.808 168.822ZM232.416 168.466C239.358 168.466 239.358 157.945 232.416 157.945C225.474 157.945 225.474 168.466 232.416 168.466ZM244.024 168.079C250.455 168.079 250.455 158.332 244.024 158.332C237.593 158.332 237.593 168.079 244.024 168.079ZM255.632 167.66C261.509 167.66 261.509 158.752 255.632 158.752C249.755 158.752 249.755 167.66 255.632 167.66ZM267.24 167.24C272.564 167.24 272.564 159.171 267.24 159.171C261.917 159.171 261.917 167.24 267.24 167.24ZM278.848 166.82C283.618 166.82 283.618 159.591 278.848 159.591C274.078 159.591 274.078 166.82 278.848 166.82ZM290.456 166.401C294.672 166.401 294.672 160.01 290.456 160.01C286.24 160.01 286.24 166.401 290.456 166.401ZM302.064 165.981C305.727 165.981 305.727 160.43 302.064 160.43C298.402 160.43 298.402 165.981 302.064 165.981ZM313.672 165.562C316.781 165.562 316.781 160.85 313.672 160.85C310.563 160.85 310.563 165.562 313.672 165.562ZM325.28 165.142C327.836 165.142 327.836 161.269 325.28 161.269C322.725 161.269 322.725 165.142 325.28 165.142ZM336.888 164.723C338.89 164.723 338.89 161.689 336.888 161.689C334.887 161.689 334.887 164.723 336.888 164.723ZM348.496 164.303C349.944 164.303 349.944 162.108 348.496 162.108C347.048 162.108 347.048 164.303 348.496 164.303ZM360.104 163.851C360.956 163.851 360.956 162.56 360.104 162.56C359.253 162.56 359.253 163.851 360.104 163.851ZM371.712 163.432C372.011 163.432 372.011 162.98 371.712 162.98C371.414 162.98 371.414 163.432 371.712 163.432ZM0.255602 175.071C0.553739 175.071 0.553739 174.619 0.255602 174.619C-0.0425345 174.619 -0.0425345 175.071 0.255602 175.071ZM11.8634 175.523C12.7578 175.523 12.7578 174.167 11.8634 174.167C10.9693 174.167 10.9693 175.523 11.8634 175.523ZM23.4718 175.942C24.9196 175.942 24.9196 173.747 23.4718 173.747C22.0235 173.747 22.0235 175.942 23.4718 175.942ZM35.0796 176.394C37.1239 176.394 37.1239 173.296 35.0796 173.296C33.0353 173.296 33.0353 176.394 35.0796 176.394ZM46.6875 176.814C49.2854 176.814 49.2854 172.876 46.6875 172.876C44.0898 172.876 44.0898 176.814 46.6875 176.814ZM58.2958 177.233C61.4471 177.233 61.4471 172.456 58.2958 172.456C55.1443 172.456 55.1443 177.233 58.2958 177.233ZM69.9037 177.653C73.6088 177.653 73.6088 172.037 69.9037 172.037C66.1986 172.037 66.1986 177.653 69.9037 177.653ZM81.5118 178.072C85.7705 178.072 85.7705 171.617 81.5118 171.617C77.2531 171.617 77.2531 178.072 81.5118 178.072ZM93.1199 178.524C97.9749 178.524 97.9749 171.165 93.1199 171.165C88.2649 171.165 88.2649 178.524 93.1199 178.524ZM104.728 178.944C110.136 178.944 110.136 170.746 104.728 170.746C99.3191 170.746 99.3191 178.944 104.728 178.944ZM116.336 179.363C122.298 179.363 122.298 170.326 116.336 170.326C110.374 170.326 110.374 179.363 116.336 179.363ZM127.944 179.815C134.502 179.815 134.502 169.874 127.944 169.874C121.385 169.874 121.385 179.815 127.944 179.815ZM139.552 180.235C146.664 180.235 146.664 169.455 139.552 169.455C132.44 169.455 132.44 180.235 139.552 180.235ZM151.16 180.622C158.783 180.622 158.783 169.068 151.16 169.068C143.537 169.068 143.537 180.622 151.16 180.622ZM162.768 181.042C170.945 181.042 170.945 168.648 162.768 168.648C154.591 168.648 154.591 181.042 162.768 181.042ZM174.376 181.397C183.021 181.397 183.021 168.293 174.376 168.293C165.731 168.293 165.731 181.397 174.376 181.397ZM185.984 181.558C194.842 181.558 194.842 168.132 185.984 168.132C177.126 168.132 177.126 181.558 185.984 181.558ZM197.592 181.429C206.28 181.429 206.28 168.261 197.592 168.261C188.904 168.261 188.904 181.429 197.592 181.429ZM209.2 181.074C217.419 181.074 217.419 168.616 209.2 168.616C200.981 168.616 200.981 181.074 209.2 181.074ZM220.808 180.654C228.474 180.654 228.474 169.035 220.808 169.035C213.142 169.035 213.142 180.654 220.808 180.654ZM232.416 180.267C239.571 180.267 239.571 169.423 232.416 169.423C225.262 169.423 225.262 180.267 232.416 180.267ZM244.024 179.847C250.625 179.847 250.625 169.842 244.024 169.842C237.423 169.842 237.423 179.847 244.024 179.847ZM255.632 179.396C261.637 179.396 261.637 170.294 255.632 170.294C249.627 170.294 249.627 179.396 255.632 179.396ZM267.24 178.976C272.691 178.976 272.691 170.714 267.24 170.714C261.789 170.714 261.789 178.976 267.24 178.976ZM278.848 178.556C283.746 178.556 283.746 171.133 278.848 171.133C273.951 171.133 273.951 178.556 278.848 178.556ZM290.456 178.105C294.758 178.105 294.758 171.585 290.456 171.585C286.155 171.585 286.155 178.105 290.456 178.105ZM302.064 177.685C305.812 177.685 305.812 172.005 302.064 172.005C298.317 172.005 298.317 177.685 302.064 177.685ZM313.672 177.265C316.866 177.265 316.866 172.424 313.672 172.424C310.478 172.424 310.478 177.265 313.672 177.265ZM325.28 176.846C327.921 176.846 327.921 172.844 325.28 172.844C322.64 172.844 322.64 176.846 325.28 176.846ZM336.888 176.426C338.975 176.426 338.975 173.263 336.888 173.263C334.802 173.263 334.802 176.426 336.888 176.426ZM348.496 175.974C349.987 175.974 349.987 173.715 348.496 173.715C347.006 173.715 347.006 175.974 348.496 175.974ZM360.104 175.555C361.041 175.555 361.041 174.135 360.104 174.135C359.167 174.135 359.167 175.555 360.104 175.555ZM371.712 175.103C372.053 175.103 372.053 174.587 371.712 174.587C371.372 174.587 371.372 175.103 371.712 175.103ZM0.255602 186.742C0.596141 186.742 0.596141 186.226 0.255602 186.226C-0.0852007 186.226 -0.0852007 186.742 0.255602 186.742ZM11.8634 187.162C12.7578 187.162 12.7578 185.806 11.8634 185.806C10.9693 185.806 10.9693 187.162 11.8634 187.162ZM23.4718 187.613C24.9622 187.613 24.9622 185.354 23.4718 185.354C21.9811 185.354 21.9811 187.613 23.4718 187.613ZM35.0796 188.033C37.1239 188.033 37.1239 184.935 35.0796 184.935C33.0353 184.935 33.0353 188.033 35.0796 188.033ZM46.6875 188.485C49.328 188.485 49.328 184.483 46.6875 184.483C44.0472 184.483 44.0472 188.485 46.6875 188.485ZM58.2958 188.905C61.4897 188.905 61.4897 184.063 58.2958 184.063C55.1017 184.063 55.1017 188.905 58.2958 188.905ZM69.9037 189.324C73.6514 189.324 73.6514 183.644 69.9037 183.644C66.1562 183.644 66.1562 189.324 69.9037 189.324ZM81.5118 189.744C85.8131 189.744 85.8131 183.224 81.5118 183.224C77.2104 183.224 77.2104 189.744 81.5118 189.744ZM93.1199 190.195C98.0173 190.195 98.0173 182.772 93.1199 182.772C88.2222 182.772 88.2222 190.195 93.1199 190.195ZM104.728 190.615C110.179 190.615 110.179 182.353 104.728 182.353C99.2767 182.353 99.2767 190.615 104.728 190.615ZM116.336 191.035C122.341 191.035 122.341 181.933 116.336 181.933C110.331 181.933 110.331 191.035 116.336 191.035ZM127.944 191.486C134.545 191.486 134.545 181.481 127.944 181.481C121.343 181.481 121.343 191.486 127.944 191.486ZM139.552 191.938C146.749 191.938 146.749 181.029 139.552 181.029C132.355 181.029 132.355 191.938 139.552 191.938ZM151.16 192.358C158.911 192.358 158.911 180.61 151.16 180.61C143.409 180.61 143.409 192.358 151.16 192.358ZM162.768 192.778C171.073 192.778 171.073 180.19 162.768 180.19C154.463 180.19 154.463 192.778 162.768 192.778ZM174.376 193.197C183.234 193.197 183.234 179.771 174.376 179.771C165.518 179.771 165.518 193.197 174.376 193.197ZM185.984 193.52C195.268 193.52 195.268 179.448 185.984 179.448C176.7 179.448 176.7 193.52 185.984 193.52ZM197.592 193.229C206.493 193.229 206.493 179.738 197.592 179.738C188.691 179.738 188.691 193.229 197.592 193.229ZM209.2 192.81C217.547 192.81 217.547 180.158 209.2 180.158C200.853 180.158 200.853 192.81 209.2 192.81ZM220.808 192.39C228.602 192.39 228.602 180.578 220.808 180.578C213.014 180.578 213.014 192.39 220.808 192.39ZM232.416 191.938C239.613 191.938 239.613 181.029 232.416 181.029C225.219 181.029 225.219 191.938 232.416 191.938ZM244.024 191.519C250.668 191.519 250.668 181.449 244.024 181.449C237.381 181.449 237.381 191.519 244.024 191.519ZM255.632 191.067C261.679 191.067 261.679 181.901 255.632 181.901C249.585 181.901 249.585 191.067 255.632 191.067ZM267.24 190.647C272.734 190.647 272.734 182.32 267.24 182.32C261.746 182.32 261.746 190.647 267.24 190.647ZM278.848 190.228C283.788 190.228 283.788 182.74 278.848 182.74C273.908 182.74 273.908 190.228 278.848 190.228ZM290.456 189.776C294.8 189.776 294.8 183.192 290.456 183.192C286.112 183.192 286.112 189.776 290.456 189.776ZM302.064 189.356C305.855 189.356 305.855 183.611 302.064 183.611C298.274 183.611 298.274 189.356 302.064 189.356ZM313.672 188.937C316.909 188.937 316.909 184.031 313.672 184.031C310.436 184.031 310.436 188.937 313.672 188.937ZM325.28 188.517C327.964 188.517 327.964 184.451 325.28 184.451C322.597 184.451 322.597 188.517 325.28 188.517ZM336.888 188.065C338.975 188.065 338.975 184.902 336.888 184.902C334.802 184.902 334.802 188.065 336.888 188.065ZM348.496 187.646C350.03 187.646 350.03 185.322 348.496 185.322C346.963 185.322 346.963 187.646 348.496 187.646ZM360.104 187.194C361.041 187.194 361.041 185.774 360.104 185.774C359.167 185.774 359.167 187.194 360.104 187.194ZM371.712 186.774C372.096 186.774 372.096 186.193 371.712 186.193C371.329 186.193 371.329 186.774 371.712 186.774ZM0.255602 198.381C0.596141 198.381 0.596141 197.865 0.255602 197.865C-0.0852007 197.865 -0.0852007 198.381 0.255602 198.381ZM11.8634 198.801C12.7578 198.801 12.7578 197.445 11.8634 197.445C10.9693 197.445 10.9693 198.801 11.8634 198.801ZM23.4718 199.22C24.9196 199.22 24.9196 197.026 23.4718 197.026C22.0235 197.026 22.0235 199.22 23.4718 199.22ZM35.0796 199.672C37.1239 199.672 37.1239 196.574 35.0796 196.574C33.0353 196.574 33.0353 199.672 35.0796 199.672ZM46.6875 200.092C49.2854 200.092 49.2854 196.154 46.6875 196.154C44.0898 196.154 44.0898 200.092 46.6875 200.092ZM58.2958 200.511C61.4471 200.511 61.4471 195.735 58.2958 195.735C55.1443 195.735 55.1443 200.511 58.2958 200.511ZM69.9037 200.931C73.6088 200.931 73.6088 195.315 69.9037 195.315C66.1986 195.315 66.1986 200.931 69.9037 200.931ZM81.5118 201.383C85.8131 201.383 85.8131 194.863 81.5118 194.863C77.2104 194.863 77.2104 201.383 81.5118 201.383ZM93.1199 201.802C97.9749 201.802 97.9749 194.444 93.1199 194.444C88.2649 194.444 88.2649 201.802 93.1199 201.802ZM104.728 202.222C110.136 202.222 110.136 194.024 104.728 194.024C99.3191 194.024 99.3191 202.222 104.728 202.222ZM116.336 202.641C122.298 202.641 122.298 193.604 116.336 193.604C110.374 193.604 110.374 202.641 116.336 202.641ZM127.944 203.093C134.502 203.093 134.502 193.153 127.944 193.153C121.385 193.153 121.385 203.093 127.944 203.093ZM139.552 203.513C146.664 203.513 146.664 192.733 139.552 192.733C132.44 192.733 132.44 203.513 139.552 203.513ZM151.16 203.932C158.826 203.932 158.826 192.314 151.16 192.314C143.494 192.314 143.494 203.932 151.16 203.932ZM162.768 204.32C170.945 204.32 170.945 191.926 162.768 191.926C154.591 191.926 154.591 204.32 162.768 204.32ZM174.376 204.707C183.064 204.707 183.064 191.539 174.376 191.539C165.688 191.539 165.688 204.707 174.376 204.707ZM185.984 204.868C194.885 204.868 194.885 191.378 185.984 191.378C177.083 191.378 177.083 204.868 185.984 204.868ZM197.592 204.707C206.28 204.707 206.28 191.539 197.592 191.539C188.904 191.539 188.904 204.707 197.592 204.707ZM209.2 204.352C217.419 204.352 217.419 191.894 209.2 191.894C200.981 191.894 200.981 204.352 209.2 204.352ZM220.808 203.965C228.517 203.965 228.517 192.281 220.808 192.281C213.1 192.281 213.1 203.965 220.808 203.965ZM232.416 203.545C239.571 203.545 239.571 192.701 232.416 192.701C225.262 192.701 225.262 203.545 232.416 203.545ZM244.024 203.126C250.625 203.126 250.625 193.12 244.024 193.12C237.423 193.12 237.423 203.126 244.024 203.126ZM255.632 202.706C261.679 202.706 261.679 193.54 255.632 193.54C249.585 193.54 249.585 202.706 255.632 202.706ZM267.24 202.254C272.691 202.254 272.691 193.992 267.24 193.992C261.789 193.992 261.789 202.254 267.24 202.254ZM278.848 201.835C283.746 201.835 283.746 194.411 278.848 194.411C273.951 194.411 273.951 201.835 278.848 201.835ZM290.456 201.415C294.8 201.415 294.8 194.831 290.456 194.831C286.112 194.831 286.112 201.415 290.456 201.415ZM302.064 200.963C305.812 200.963 305.812 195.283 302.064 195.283C298.317 195.283 298.317 200.963 302.064 200.963ZM313.672 200.544C316.866 200.544 316.866 195.702 313.672 195.702C310.478 195.702 310.478 200.544 313.672 200.544ZM325.28 200.124C327.921 200.124 327.921 196.122 325.28 196.122C322.64 196.122 322.64 200.124 325.28 200.124ZM336.888 199.704C338.975 199.704 338.975 196.542 336.888 196.542C334.802 196.542 334.802 199.704 336.888 199.704ZM348.496 199.253C349.987 199.253 349.987 196.993 348.496 196.993C347.006 196.993 347.006 199.253 348.496 199.253ZM360.104 198.833C361.041 198.833 361.041 197.413 360.104 197.413C359.167 197.413 359.167 198.833 360.104 198.833ZM371.712 198.381C372.053 198.381 372.053 197.865 371.712 197.865C371.372 197.865 371.372 198.381 371.712 198.381ZM0.255602 209.956C0.511072 209.956 0.511072 209.568 0.255602 209.568C0.000131686 209.568 0.00013167 209.956 0.255602 209.956ZM11.8634 210.408C12.7152 210.408 12.7152 209.117 11.8634 209.117C11.0117 209.117 11.0117 210.408 11.8634 210.408ZM23.4718 210.827C24.8769 210.827 24.8769 208.697 23.4718 208.697C22.0662 208.697 22.0662 210.827 23.4718 210.827ZM35.0796 211.247C37.0386 211.247 37.0386 208.277 35.0796 208.277C33.1207 208.277 33.1207 211.247 35.0796 211.247ZM46.6875 211.699C49.243 211.699 49.243 207.826 46.6875 207.826C44.1325 207.826 44.1325 211.699 46.6875 211.699ZM58.2958 212.118C61.4047 212.118 61.4047 207.406 58.2958 207.406C55.1867 207.406 55.1867 212.118 58.2958 212.118ZM69.9037 212.538C73.5661 212.538 73.5661 206.986 69.9037 206.986C66.2412 206.986 66.2412 212.538 69.9037 212.538ZM81.5118 212.957C85.7278 212.957 85.7278 206.567 81.5118 206.567C77.2955 206.567 77.2955 212.957 81.5118 212.957ZM93.1199 213.345C97.8469 213.345 97.8469 206.18 93.1199 206.18C88.3926 206.18 88.3926 213.345 93.1199 213.345ZM104.728 213.764C110.009 213.764 110.009 205.76 104.728 205.76C99.4471 205.76 99.4471 213.764 104.728 213.764ZM116.336 214.184C122.17 214.184 122.17 205.34 116.336 205.34C110.501 205.34 110.501 214.184 116.336 214.184ZM127.944 214.603C134.332 214.603 134.332 204.921 127.944 204.921C121.556 204.921 121.556 214.603 127.944 214.603ZM139.552 214.991C146.451 214.991 146.451 204.534 139.552 204.534C132.653 204.534 132.653 214.991 139.552 214.991ZM151.16 215.378C158.57 215.378 158.57 204.146 151.16 204.146C143.75 204.146 143.75 215.378 151.16 215.378ZM162.768 215.733C170.646 215.733 170.646 203.791 162.768 203.791C154.889 203.791 154.889 215.733 162.768 215.733ZM174.376 215.991C182.595 215.991 182.595 203.533 174.376 203.533C166.156 203.533 166.156 215.991 174.376 215.991ZM185.984 216.088C194.331 216.088 194.331 203.436 185.984 203.436C177.637 203.436 177.637 216.088 185.984 216.088ZM197.592 215.991C205.811 215.991 205.811 203.533 197.592 203.533C189.373 203.533 189.373 215.991 197.592 215.991ZM209.2 215.733C217.079 215.733 217.079 203.791 209.2 203.791C201.321 203.791 201.321 215.733 209.2 215.733ZM220.808 215.41C228.261 215.41 228.261 204.114 220.808 204.114C213.355 204.114 213.355 215.41 220.808 215.41ZM232.416 215.023C239.358 215.023 239.358 204.501 232.416 204.501C225.474 204.501 225.474 215.023 232.416 215.023ZM244.024 214.636C250.455 214.636 250.455 204.889 244.024 204.889C237.593 204.889 237.593 214.636 244.024 214.636ZM255.632 214.216C261.509 214.216 261.509 205.308 255.632 205.308C249.755 205.308 249.755 214.216 255.632 214.216ZM267.24 213.796C272.564 213.796 272.564 205.728 267.24 205.728C261.917 205.728 261.917 213.796 267.24 213.796ZM278.848 213.377C283.618 213.377 283.618 206.147 278.848 206.147C274.078 206.147 274.078 213.377 278.848 213.377ZM290.456 212.957C294.672 212.957 294.672 206.567 290.456 206.567C286.24 206.567 286.24 212.957 290.456 212.957ZM302.064 212.57C305.769 212.57 305.769 206.954 302.064 206.954C298.359 206.954 298.359 212.57 302.064 212.57ZM313.672 212.15C316.824 212.15 316.824 207.374 313.672 207.374C310.521 207.374 310.521 212.15 313.672 212.15ZM325.28 211.731C327.878 211.731 327.878 207.793 325.28 207.793C322.683 207.793 322.683 211.731 325.28 211.731ZM336.888 211.279C338.89 211.279 338.89 208.245 336.888 208.245C334.887 208.245 334.887 211.279 336.888 211.279ZM348.496 210.859C349.944 210.859 349.944 208.665 348.496 208.665C347.048 208.665 347.048 210.859 348.496 210.859ZM360.104 210.44C360.999 210.44 360.999 209.084 360.104 209.084C359.21 209.084 359.21 210.44 360.104 210.44ZM371.712 209.988C372.011 209.988 372.011 209.536 371.712 209.536C371.414 209.536 371.414 209.988 371.712 209.988ZM0.255602 221.563C0.468406 221.563 0.468406 221.24 0.255602 221.24C0.0425345 221.24 0.0425345 221.563 0.255602 221.563ZM11.8634 221.95C12.5877 221.95 12.5877 220.853 11.8634 220.853C11.1397 220.853 11.1397 221.95 11.8634 221.95ZM23.4718 222.402C24.7918 222.402 24.7918 220.401 23.4718 220.401C22.1513 220.401 22.1513 222.402 23.4718 222.402ZM35.0796 222.821C36.9535 222.821 36.9535 219.981 35.0796 219.981C33.2057 219.981 33.2057 222.821 35.0796 222.821ZM46.6875 223.241C49.1152 223.241 49.1152 219.562 46.6875 219.562C44.2602 219.562 44.2602 223.241 46.6875 223.241ZM58.2958 223.66C61.2767 223.66 61.2767 219.142 58.2958 219.142C55.3145 219.142 55.3145 223.66 58.2958 223.66ZM69.9037 224.048C73.396 224.048 73.396 218.755 69.9037 218.755C66.4116 218.755 66.4116 224.048 69.9037 224.048ZM81.5118 224.467C85.5574 224.467 85.5574 218.335 81.5118 218.335C77.4659 218.335 77.4659 224.467 81.5118 224.467ZM93.1199 224.887C97.7191 224.887 97.7191 217.915 93.1199 217.915C88.5203 217.915 88.5203 224.887 93.1199 224.887ZM104.728 225.274C109.838 225.274 109.838 217.528 104.728 217.528C99.6172 217.528 99.6172 225.274 104.728 225.274ZM116.336 225.662C121.957 225.662 121.957 217.141 116.336 217.141C110.714 217.141 110.714 225.662 116.336 225.662ZM127.944 226.049C134.076 226.049 134.076 216.754 127.944 216.754C121.811 216.754 121.811 226.049 127.944 226.049ZM139.552 226.404C146.153 226.404 146.153 216.399 139.552 216.399C132.951 216.399 132.951 226.404 139.552 226.404ZM151.16 226.759C158.23 226.759 158.23 216.044 151.16 216.044C144.09 216.044 144.09 226.759 151.16 226.759ZM162.768 227.017C170.178 227.017 170.178 215.785 162.768 215.785C155.358 215.785 155.358 227.017 162.768 227.017ZM174.376 227.211C182.042 227.211 182.042 215.592 174.376 215.592C166.71 215.592 166.71 227.211 174.376 227.211ZM185.984 227.307C193.777 227.307 193.777 215.495 185.984 215.495C178.19 215.495 178.19 227.307 185.984 227.307ZM197.592 227.243C205.3 227.243 205.3 215.56 197.592 215.56C189.884 215.56 189.884 227.243 197.592 227.243ZM209.2 227.049C216.653 227.049 216.653 215.753 209.2 215.753C201.747 215.753 201.747 227.049 209.2 227.049ZM220.808 226.791C227.92 226.791 227.92 216.011 220.808 216.011C213.696 216.011 213.696 226.791 220.808 226.791ZM232.416 226.436C239.06 226.436 239.06 216.366 232.416 216.366C225.772 216.366 225.772 226.436 232.416 226.436ZM244.024 226.081C250.199 226.081 250.199 216.721 244.024 216.721C237.849 216.721 237.849 226.081 244.024 226.081ZM255.632 225.694C261.296 225.694 261.296 217.109 255.632 217.109C249.968 217.109 249.968 225.694 255.632 225.694ZM267.24 225.306C272.393 225.306 272.393 217.496 267.24 217.496C262.087 217.496 262.087 225.306 267.24 225.306ZM278.848 224.887C283.448 224.887 283.448 217.915 278.848 217.915C274.249 217.915 274.249 224.887 278.848 224.887ZM290.456 224.5C294.545 224.5 294.545 218.303 290.456 218.303C286.368 218.303 286.368 224.5 290.456 224.5ZM302.064 224.08C305.599 224.08 305.599 218.722 302.064 218.722C298.53 218.722 298.53 224.08 302.064 224.08ZM313.672 223.693C316.696 223.693 316.696 219.11 313.672 219.11C310.649 219.11 310.649 223.693 313.672 223.693ZM325.28 223.273C327.75 223.273 327.75 219.529 325.28 219.529C322.81 219.529 322.81 223.273 325.28 223.273ZM336.888 222.854C338.805 222.854 338.805 219.949 336.888 219.949C334.972 219.949 334.972 222.854 336.888 222.854ZM348.496 222.434C349.859 222.434 349.859 220.368 348.496 220.368C347.134 220.368 347.134 222.434 348.496 222.434ZM360.104 221.982C360.871 221.982 360.871 220.82 360.104 220.82C359.338 220.82 359.338 221.982 360.104 221.982ZM371.712 221.563C371.925 221.563 371.925 221.24 371.712 221.24C371.5 221.24 371.5 221.563 371.712 221.563ZM0.255602 233.137C0.383337 233.137 0.383337 232.944 0.255602 232.944C0.127867 232.944 0.127867 233.137 0.255602 233.137ZM11.8634 233.492C12.4597 233.492 12.4597 232.589 11.8634 232.589C11.2674 232.589 11.2674 233.492 11.8634 233.492ZM23.4718 233.912C24.6214 233.912 24.6214 232.169 23.4718 232.169C22.3219 232.169 22.3219 233.912 23.4718 233.912ZM35.0796 234.331C36.7831 234.331 36.7831 231.749 35.0796 231.749C33.3761 231.749 33.3761 234.331 35.0796 234.331ZM46.6875 234.751C48.9448 234.751 48.9448 231.33 46.6875 231.33C44.4304 231.33 44.4304 234.751 46.6875 234.751ZM58.2958 235.171C61.1065 235.171 61.1065 230.91 58.2958 230.91C55.4849 230.91 55.4849 235.171 58.2958 235.171ZM69.9037 235.558C73.2256 235.558 73.2256 230.523 69.9037 230.523C66.582 230.523 66.582 235.558 69.9037 235.558ZM81.5118 235.945C85.3446 235.945 85.3446 230.136 81.5118 230.136C77.6789 230.136 77.6789 235.945 81.5118 235.945ZM93.1199 236.332C97.4637 236.332 97.4637 229.748 93.1199 229.748C88.7758 229.748 88.7758 236.332 93.1199 236.332ZM104.728 236.72C109.583 236.72 109.583 229.361 104.728 229.361C99.873 229.361 99.873 236.72 104.728 236.72ZM116.336 237.107C121.702 237.107 121.702 228.974 116.336 228.974C110.97 228.974 110.97 237.107 116.336 237.107ZM127.944 237.462C133.778 237.462 133.778 228.619 127.944 228.619C122.109 228.619 122.109 237.462 127.944 237.462ZM139.552 237.785C145.812 237.785 145.812 228.296 139.552 228.296C133.292 228.296 133.292 237.785 139.552 237.785ZM151.16 238.075C157.803 238.075 157.803 228.005 151.16 228.005C144.516 228.005 144.516 238.075 151.16 238.075ZM162.768 238.301C169.71 238.301 169.71 227.78 162.768 227.78C155.826 227.78 155.826 238.301 162.768 238.301ZM174.376 238.462C181.531 238.462 181.531 227.618 174.376 227.618C167.221 227.618 167.221 238.462 174.376 238.462ZM185.984 238.495C193.181 238.495 193.181 227.586 185.984 227.586C178.787 227.586 178.787 238.495 185.984 238.495ZM197.592 238.462C204.747 238.462 204.747 227.618 197.592 227.618C190.437 227.618 190.437 238.462 197.592 238.462ZM209.2 238.301C216.142 238.301 216.142 227.78 209.2 227.78C202.258 227.78 202.258 238.301 209.2 238.301ZM220.808 238.075C227.452 238.075 227.452 228.005 220.808 228.005C214.164 228.005 214.164 238.075 220.808 238.075ZM232.416 237.785C238.676 237.785 238.676 228.296 232.416 228.296C226.156 228.296 226.156 237.785 232.416 237.785ZM244.024 237.462C249.859 237.462 249.859 228.619 244.024 228.619C238.19 228.619 238.19 237.462 244.024 237.462ZM255.632 237.107C260.998 237.107 260.998 228.974 255.632 228.974C250.266 228.974 250.266 237.107 255.632 237.107ZM267.24 236.752C272.138 236.752 272.138 229.329 267.24 229.329C262.343 229.329 262.343 236.752 267.24 236.752ZM278.848 236.365C283.235 236.365 283.235 229.716 278.848 229.716C274.462 229.716 274.462 236.365 278.848 236.365ZM290.456 235.977C294.332 235.977 294.332 230.103 290.456 230.103C286.581 230.103 286.581 235.977 290.456 235.977ZM302.064 235.59C305.429 235.59 305.429 230.491 302.064 230.491C298.7 230.491 298.7 235.59 302.064 235.59ZM313.672 235.203C316.526 235.203 316.526 230.878 313.672 230.878C310.819 230.878 310.819 235.203 313.672 235.203ZM325.28 234.783C327.58 234.783 327.58 231.297 325.28 231.297C322.98 231.297 322.98 234.783 325.28 234.783ZM336.888 234.364C338.635 234.364 338.635 231.717 336.888 231.717C335.142 231.717 335.142 234.364 336.888 234.364ZM348.496 233.944C349.689 233.944 349.689 232.137 348.496 232.137C347.304 232.137 347.304 233.944 348.496 233.944ZM360.104 233.524C360.743 233.524 360.743 232.556 360.104 232.556C359.466 232.556 359.466 233.524 360.104 233.524ZM371.712 233.137C371.84 233.137 371.84 232.944 371.712 232.944C371.585 232.944 371.585 233.137 371.712 233.137ZM0.255602 244.712C0.298268 244.712 0.298268 244.647 0.255602 244.647C0.212936 244.647 0.212936 244.712 0.255602 244.712ZM11.8634 245.034C12.332 245.034 12.332 244.324 11.8634 244.324C11.3952 244.324 11.3952 245.034 11.8634 245.034ZM23.4718 245.422C24.451 245.422 24.451 243.937 23.4718 243.937C22.4921 243.937 22.4921 245.422 23.4718 245.422ZM35.0796 245.841C36.6127 245.841 36.6127 243.518 35.0796 243.518C33.5466 243.518 33.5466 245.841 35.0796 245.841ZM46.6875 246.261C48.7744 246.261 48.7744 243.098 46.6875 243.098C44.6008 243.098 44.6008 246.261 46.6875 246.261ZM58.2958 246.648C60.8935 246.648 60.8935 242.711 58.2958 242.711C55.6979 242.711 55.6979 246.648 58.2958 246.648ZM69.9037 247.035C73.0125 247.035 73.0125 242.323 69.9037 242.323C66.7948 242.323 66.7948 247.035 69.9037 247.035ZM81.5118 247.391C85.0891 247.391 85.0891 241.968 81.5118 241.968C77.9344 241.968 77.9344 247.391 81.5118 247.391ZM93.1199 247.778C97.2082 247.778 97.2082 241.581 93.1199 241.581C89.0313 241.581 89.0313 247.778 93.1199 247.778ZM104.728 248.133C109.285 248.133 109.285 241.226 104.728 241.226C100.171 241.226 100.171 248.133 104.728 248.133ZM116.336 248.488C121.361 248.488 121.361 240.871 116.336 240.871C111.31 240.871 111.31 248.488 116.336 248.488ZM127.944 248.811C133.395 248.811 133.395 240.548 127.944 240.548C122.493 240.548 122.493 248.811 127.944 248.811ZM139.552 249.101C145.386 249.101 145.386 240.258 139.552 240.258C133.718 240.258 133.718 249.101 139.552 249.101ZM151.16 249.327C157.292 249.327 157.292 240.032 151.16 240.032C145.027 240.032 145.027 249.327 151.16 249.327ZM162.768 249.553C169.199 249.553 169.199 239.806 162.768 239.806C156.337 239.806 156.337 249.553 162.768 249.553ZM174.376 249.682C180.977 249.682 180.977 239.677 174.376 239.677C167.775 239.677 167.775 249.682 174.376 249.682ZM185.984 249.714C192.627 249.714 192.627 239.645 185.984 239.645C179.34 239.645 179.34 249.714 185.984 249.714ZM197.592 249.682C204.193 249.682 204.193 239.677 197.592 239.677C190.991 239.677 190.991 249.682 197.592 249.682ZM209.2 249.553C215.631 249.553 215.631 239.806 209.2 239.806C202.769 239.806 202.769 249.553 209.2 249.553ZM220.808 249.359C226.983 249.359 226.983 240 220.808 240C214.633 240 214.633 249.359 220.808 249.359ZM232.416 249.101C238.251 249.101 238.251 240.258 232.416 240.258C226.582 240.258 226.582 249.101 232.416 249.101ZM244.024 248.811C249.475 248.811 249.475 240.548 244.024 240.548C238.573 240.548 238.573 248.811 244.024 248.811ZM255.632 248.488C260.657 248.488 260.657 240.871 255.632 240.871C250.607 240.871 250.607 248.488 255.632 248.488ZM267.24 248.165C271.84 248.165 271.84 241.194 267.24 241.194C262.641 241.194 262.641 248.165 267.24 248.165ZM278.848 247.81C282.979 247.81 282.979 241.549 278.848 241.549C274.717 241.549 274.717 247.81 278.848 247.81ZM290.456 247.423C294.076 247.423 294.076 241.936 290.456 241.936C286.836 241.936 286.836 247.423 290.456 247.423ZM302.064 247.068C305.216 247.068 305.216 242.291 302.064 242.291C298.913 242.291 298.913 247.068 302.064 247.068ZM313.672 246.68C316.313 246.68 316.313 242.678 313.672 242.678C311.032 242.678 311.032 246.68 313.672 246.68ZM325.28 246.261C327.367 246.261 327.367 243.098 325.28 243.098C323.194 243.098 323.194 246.261 325.28 246.261ZM336.888 245.874C338.464 245.874 338.464 243.485 336.888 243.485C335.313 243.485 335.313 245.874 336.888 245.874ZM348.496 245.454C349.519 245.454 349.519 243.905 348.496 243.905C347.474 243.905 347.474 245.454 348.496 245.454ZM360.104 245.067C360.616 245.067 360.616 244.292 360.104 244.292C359.593 244.292 359.593 245.067 360.104 245.067ZM371.712 244.712C371.755 244.712 371.755 244.647 371.712 244.647C371.67 244.647 371.67 244.712 371.712 244.712ZM11.8634 256.512C12.1192 256.512 12.1192 256.125 11.8634 256.125C11.608 256.125 11.608 256.512 11.8634 256.512ZM23.4718 256.9C24.2382 256.9 24.2382 255.738 23.4718 255.738C22.7051 255.738 22.7051 256.9 23.4718 256.9ZM35.0796 257.319C36.3999 257.319 36.3999 255.318 35.0796 255.318C33.7594 255.318 33.7594 257.319 35.0796 257.319ZM46.6875 257.706C48.519 257.706 48.519 254.931 46.6875 254.931C44.8565 254.931 44.8565 257.706 46.6875 257.706ZM58.2958 258.094C60.638 258.094 60.638 254.543 58.2958 254.543C55.9534 254.543 55.9534 258.094 58.2958 258.094ZM69.9037 258.449C72.7144 258.449 72.7144 254.188 69.9037 254.188C67.093 254.188 67.093 258.449 69.9037 258.449ZM81.5118 258.836C84.8337 258.836 84.8337 253.801 81.5118 253.801C78.1899 253.801 78.1899 258.836 81.5118 258.836ZM93.1199 259.159C96.8674 259.159 96.8674 253.478 93.1199 253.478C89.3721 253.478 89.3721 259.159 93.1199 259.159ZM104.728 259.514C108.944 259.514 108.944 253.123 104.728 253.123C100.512 253.123 100.512 259.514 104.728 259.514ZM116.336 259.836C120.978 259.836 120.978 252.801 116.336 252.801C111.694 252.801 111.694 259.836 116.336 259.836ZM127.944 260.127C132.969 260.127 132.969 252.51 127.944 252.51C122.919 252.51 122.919 260.127 127.944 260.127ZM139.552 260.385C144.918 260.385 144.918 252.252 139.552 252.252C134.186 252.252 134.186 260.385 139.552 260.385ZM151.16 260.611C156.824 260.611 156.824 252.026 151.16 252.026C145.496 252.026 145.496 260.611 151.16 260.611ZM162.768 260.772C168.645 260.772 168.645 251.865 162.768 251.865C156.891 251.865 156.891 260.772 162.768 260.772ZM174.376 260.869C180.381 260.869 180.381 251.768 174.376 251.768C168.371 251.768 168.371 260.869 174.376 260.869ZM185.984 260.902C192.031 260.902 192.031 251.736 185.984 251.736C179.937 251.736 179.937 260.902 185.984 260.902ZM197.592 260.902C203.64 260.902 203.64 251.736 197.592 251.736C191.545 251.736 191.545 260.902 197.592 260.902ZM209.2 260.772C215.077 260.772 215.077 251.865 209.2 251.865C203.323 251.865 203.323 260.772 209.2 260.772ZM220.808 260.611C226.472 260.611 226.472 252.026 220.808 252.026C215.144 252.026 215.144 260.611 220.808 260.611ZM232.416 260.385C237.782 260.385 237.782 252.252 232.416 252.252C227.05 252.252 227.05 260.385 232.416 260.385ZM244.024 260.127C249.049 260.127 249.049 252.51 244.024 252.51C238.999 252.51 238.999 260.127 244.024 260.127ZM255.632 259.836C260.274 259.836 260.274 252.801 255.632 252.801C250.99 252.801 250.99 259.836 255.632 259.836ZM267.24 259.546C271.499 259.546 271.499 253.091 267.24 253.091C262.982 253.091 262.982 259.546 267.24 259.546ZM278.848 259.191C282.639 259.191 282.639 253.446 278.848 253.446C275.058 253.446 275.058 259.191 278.848 259.191ZM290.456 258.868C293.821 258.868 293.821 253.769 290.456 253.769C287.092 253.769 287.092 258.868 290.456 258.868ZM302.064 258.481C304.918 258.481 304.918 254.156 302.064 254.156C299.211 254.156 299.211 258.481 302.064 258.481ZM313.672 258.126C316.057 258.126 316.057 254.511 313.672 254.511C311.287 254.511 311.287 258.126 313.672 258.126ZM325.28 257.739C327.154 257.739 327.154 254.898 325.28 254.898C323.407 254.898 323.407 257.739 325.28 257.739ZM336.888 257.351C338.251 257.351 338.251 255.286 336.888 255.286C335.526 255.286 335.526 257.351 336.888 257.351ZM348.496 256.932C349.306 256.932 349.306 255.705 348.496 255.705C347.687 255.705 347.687 256.932 348.496 256.932ZM360.104 256.544C360.402 256.544 360.402 256.093 360.104 256.093C359.806 256.093 359.806 256.544 360.104 256.544ZM11.8634 268.022C11.9488 268.022 11.9488 267.893 11.8634 267.893C11.7784 267.893 11.7784 268.022 11.8634 268.022ZM23.4718 268.377C24.0254 268.377 24.0254 267.538 23.4718 267.538C22.9179 267.538 22.9179 268.377 23.4718 268.377ZM35.0796 268.764C36.1442 268.764 36.1442 267.151 35.0796 267.151C34.0151 267.151 34.0151 268.764 35.0796 268.764ZM46.6875 269.152C48.2635 269.152 48.2635 266.763 46.6875 266.763C45.112 266.763 45.112 269.152 46.6875 269.152ZM58.2958 269.507C60.3399 269.507 60.3399 266.408 58.2958 266.408C56.2515 266.408 56.2515 269.507 58.2958 269.507ZM69.9037 269.862C72.4162 269.862 72.4162 266.053 69.9037 266.053C67.3911 266.053 67.3911 269.862 69.9037 269.862ZM81.5118 270.217C84.4929 270.217 84.4929 265.698 81.5118 265.698C78.5307 265.698 78.5307 270.217 81.5118 270.217ZM93.1199 270.54C96.5268 270.54 96.5268 265.376 93.1199 265.376C89.7129 265.376 89.7129 270.54 93.1199 270.54ZM104.728 270.862C108.561 270.862 108.561 265.053 104.728 265.053C100.895 265.053 100.895 270.862 104.728 270.862ZM116.336 271.153C120.552 271.153 120.552 264.762 116.336 264.762C112.12 264.762 112.12 271.153 116.336 271.153ZM127.944 271.411C132.501 271.411 132.501 264.504 127.944 264.504C123.387 264.504 123.387 271.411 127.944 271.411ZM139.552 271.669C144.449 271.669 144.449 264.246 139.552 264.246C134.654 264.246 134.654 271.669 139.552 271.669ZM151.16 271.863C156.313 271.863 156.313 264.052 151.16 264.052C146.007 264.052 146.007 271.863 151.16 271.863ZM162.768 271.992C168.091 271.992 168.091 263.923 162.768 263.923C157.445 263.923 157.445 271.992 162.768 271.992ZM174.376 272.089C179.827 272.089 179.827 263.826 174.376 263.826C168.925 263.826 168.925 272.089 174.376 272.089ZM185.984 272.121C191.478 272.121 191.478 263.794 185.984 263.794C180.49 263.794 180.49 272.121 185.984 272.121ZM197.592 272.089C203.043 272.089 203.043 263.826 197.592 263.826C192.141 263.826 192.141 272.089 197.592 272.089ZM209.2 271.992C214.524 271.992 214.524 263.923 209.2 263.923C203.877 263.923 203.877 271.992 209.2 271.992ZM220.808 271.863C225.961 271.863 225.961 264.052 220.808 264.052C215.655 264.052 215.655 271.863 220.808 271.863ZM232.416 271.669C237.314 271.669 237.314 264.246 232.416 264.246C227.519 264.246 227.519 271.669 232.416 271.669ZM244.024 271.443C248.624 271.443 248.624 264.472 244.024 264.472C239.425 264.472 239.425 271.443 244.024 271.443ZM255.632 271.185C259.891 271.185 259.891 264.73 255.632 264.73C251.373 264.73 251.373 271.185 255.632 271.185ZM267.24 270.895C271.116 270.895 271.116 265.021 267.24 265.021C263.365 265.021 263.365 270.895 267.24 270.895ZM278.848 270.572C282.298 270.572 282.298 265.343 278.848 265.343C275.399 265.343 275.399 270.572 278.848 270.572ZM290.456 270.249C293.48 270.249 293.48 265.666 290.456 265.666C287.432 265.666 287.432 270.249 290.456 270.249ZM302.064 269.894C304.62 269.894 304.62 266.021 302.064 266.021C299.509 266.021 299.509 269.894 302.064 269.894ZM313.672 269.539C315.759 269.539 315.759 266.376 313.672 266.376C311.585 266.376 311.585 269.539 313.672 269.539ZM325.28 269.152C326.856 269.152 326.856 266.763 325.28 266.763C323.705 266.763 323.705 269.152 325.28 269.152ZM336.888 268.797C337.996 268.797 337.996 267.118 336.888 267.118C335.781 267.118 335.781 268.797 336.888 268.797ZM348.496 268.409C349.093 268.409 349.093 267.506 348.496 267.506C347.9 267.506 347.9 268.409 348.496 268.409ZM360.104 268.055C360.232 268.055 360.232 267.861 360.104 267.861C359.977 267.861 359.977 268.055 360.104 268.055ZM23.4718 279.823C23.7697 279.823 23.7697 279.371 23.4718 279.371C23.1734 279.371 23.1734 279.823 23.4718 279.823ZM35.0796 280.178C35.846 280.178 35.846 279.016 35.0796 279.016C34.3132 279.016 34.3132 280.178 35.0796 280.178ZM46.6875 280.533C47.9227 280.533 47.9227 278.661 46.6875 278.661C45.4528 278.661 45.4528 280.533 46.6875 280.533ZM58.2958 280.92C60.0417 280.92 60.0417 278.273 58.2958 278.273C56.5497 278.273 56.5497 280.92 58.2958 280.92ZM69.9037 281.243C72.0757 281.243 72.0757 277.951 69.9037 277.951C67.7319 277.951 67.7319 281.243 69.9037 281.243ZM81.5118 281.565C84.1097 281.565 84.1097 277.628 81.5118 277.628C78.9139 277.628 78.9139 281.565 81.5118 281.565ZM93.1199 281.888C96.1434 281.888 96.1434 277.305 93.1199 277.305C90.0961 277.305 90.0961 281.888 93.1199 281.888ZM104.728 282.179C108.135 282.179 108.135 277.015 104.728 277.015C101.321 277.015 101.321 282.179 104.728 282.179ZM116.336 282.469C120.126 282.469 120.126 276.724 116.336 276.724C112.546 276.724 112.546 282.469 116.336 282.469ZM127.944 282.695C132.032 282.695 132.032 276.498 127.944 276.498C123.855 276.498 123.855 282.695 127.944 282.695ZM139.552 282.921C143.938 282.921 143.938 276.272 139.552 276.272C135.166 276.272 135.166 282.921 139.552 282.921ZM151.16 283.082C155.759 283.082 155.759 276.111 151.16 276.111C146.561 276.111 146.561 283.082 151.16 283.082ZM162.768 283.212C167.538 283.212 167.538 275.982 162.768 275.982C157.998 275.982 157.998 283.212 162.768 283.212ZM174.376 283.308C179.273 283.308 179.273 275.885 174.376 275.885C169.479 275.885 169.479 283.308 174.376 283.308ZM185.984 283.341C190.924 283.341 190.924 275.853 185.984 275.853C181.044 275.853 181.044 283.341 185.984 283.341ZM197.592 283.308C202.49 283.308 202.49 275.885 197.592 275.885C192.694 275.885 192.694 283.308 197.592 283.308ZM209.2 283.212C213.97 283.212 213.97 275.982 209.2 275.982C204.43 275.982 204.43 283.212 209.2 283.212ZM220.808 283.082C225.407 283.082 225.407 276.111 220.808 276.111C216.209 276.111 216.209 283.082 220.808 283.082ZM232.416 282.921C236.803 282.921 236.803 276.272 232.416 276.272C228.03 276.272 228.03 282.921 232.416 282.921ZM244.024 282.727C248.155 282.727 248.155 276.466 244.024 276.466C239.893 276.466 239.893 282.727 244.024 282.727ZM255.632 282.469C259.422 282.469 259.422 276.724 255.632 276.724C251.842 276.724 251.842 282.469 255.632 282.469ZM267.24 282.211C270.69 282.211 270.69 276.982 267.24 276.982C263.791 276.982 263.791 282.211 267.24 282.211ZM278.848 281.921C281.915 281.921 281.915 277.273 278.848 277.273C275.782 277.273 275.782 281.921 278.848 281.921ZM290.456 281.598C293.097 281.598 293.097 277.596 290.456 277.596C287.816 277.596 287.816 281.598 290.456 281.598ZM302.064 281.275C304.279 281.275 304.279 277.918 302.064 277.918C299.85 277.918 299.85 281.275 302.064 281.275ZM313.672 280.92C315.419 280.92 315.419 278.273 313.672 278.273C311.926 278.273 311.926 280.92 313.672 280.92ZM325.28 280.565C326.558 280.565 326.558 278.629 325.28 278.629C324.003 278.629 324.003 280.565 325.28 280.565ZM336.888 280.21C337.697 280.21 337.697 278.983 336.888 278.983C336.079 278.983 336.079 280.21 336.888 280.21ZM348.496 279.823C348.795 279.823 348.795 279.371 348.496 279.371C348.198 279.371 348.198 279.823 348.496 279.823ZM23.4718 291.3C23.5566 291.3 23.5566 291.171 23.4718 291.171C23.3865 291.171 23.3865 291.3 23.4718 291.3ZM35.0796 291.591C35.5482 291.591 35.5482 290.881 35.0796 290.881C34.6111 290.881 34.6111 291.591 35.0796 291.591ZM46.6875 291.946C47.6245 291.946 47.6245 290.526 46.6875 290.526C45.7507 290.526 45.7507 291.946 46.6875 291.946ZM58.2958 292.269C59.6585 292.269 59.6585 290.203 58.2958 290.203C56.9329 290.203 56.9329 292.269 58.2958 292.269ZM69.9037 292.624C71.7349 292.624 71.7349 289.848 69.9037 289.848C68.0724 289.848 68.0724 292.624 69.9037 292.624ZM81.5118 292.914C83.7265 292.914 83.7265 289.558 81.5118 289.558C79.2973 289.558 79.2973 292.914 81.5118 292.914ZM93.1199 293.237C95.7602 293.237 95.7602 289.235 93.1199 289.235C90.4793 289.235 90.4793 293.237 93.1199 293.237ZM104.728 293.495C107.709 293.495 107.709 288.977 104.728 288.977C101.747 288.977 101.747 293.495 104.728 293.495ZM116.336 293.753C119.658 293.753 119.658 288.718 116.336 288.718C113.014 288.718 113.014 293.753 116.336 293.753ZM127.944 293.979C131.564 293.979 131.564 288.492 127.944 288.492C124.324 288.492 124.324 293.979 127.944 293.979ZM139.552 294.173C143.427 294.173 143.427 288.299 139.552 288.299C135.676 288.299 135.676 294.173 139.552 294.173ZM151.16 294.334C155.248 294.334 155.248 288.137 151.16 288.137C147.072 288.137 147.072 294.334 151.16 294.334ZM162.768 294.431C166.984 294.431 166.984 288.041 162.768 288.041C158.552 288.041 158.552 294.431 162.768 294.431ZM174.376 294.496C178.677 294.496 178.677 287.976 174.376 287.976C170.075 287.976 170.075 294.496 174.376 294.496ZM185.984 294.528C190.328 294.528 190.328 287.944 185.984 287.944C181.64 287.944 181.64 294.528 185.984 294.528ZM197.592 294.528C201.936 294.528 201.936 287.944 197.592 287.944C193.248 287.944 193.248 294.528 197.592 294.528ZM209.2 294.431C213.416 294.431 213.416 288.041 209.2 288.041C204.984 288.041 204.984 294.431 209.2 294.431ZM220.808 294.334C224.896 294.334 224.896 288.137 220.808 288.137C216.72 288.137 216.72 294.334 220.808 294.334ZM232.416 294.173C236.292 294.173 236.292 288.299 232.416 288.299C228.541 288.299 228.541 294.173 232.416 294.173ZM244.024 293.979C247.644 293.979 247.644 288.492 244.024 288.492C240.404 288.492 240.404 293.979 244.024 293.979ZM255.632 293.785C258.997 293.785 258.997 288.686 255.632 288.686C252.268 288.686 252.268 293.785 255.632 293.785ZM267.24 293.527C270.264 293.527 270.264 288.944 267.24 288.944C264.217 288.944 264.217 293.527 267.24 293.527ZM278.848 293.237C281.489 293.237 281.489 289.235 278.848 289.235C276.208 289.235 276.208 293.237 278.848 293.237ZM290.456 292.946C292.713 292.946 292.713 289.525 290.456 289.525C288.199 289.525 288.199 292.946 290.456 292.946ZM302.064 292.624C303.896 292.624 303.896 289.848 302.064 289.848C300.233 289.848 300.233 292.624 302.064 292.624ZM313.672 292.301C315.078 292.301 315.078 290.171 313.672 290.171C312.267 290.171 312.267 292.301 313.672 292.301ZM325.28 291.978C326.26 291.978 326.26 290.493 325.28 290.493C324.301 290.493 324.301 291.978 325.28 291.978ZM336.888 291.623C337.4 291.623 337.4 290.849 336.888 290.849C336.377 290.849 336.377 291.623 336.888 291.623ZM348.496 291.3C348.582 291.3 348.582 291.171 348.496 291.171C348.411 291.171 348.411 291.3 348.496 291.3ZM35.0796 303.004C35.25 303.004 35.25 302.746 35.0796 302.746C34.9092 302.746 34.9092 303.004 35.0796 303.004ZM46.6875 303.294C47.2413 303.294 47.2413 302.455 46.6875 302.455C46.1339 302.455 46.1339 303.294 46.6875 303.294ZM58.2958 303.65C59.3177 303.65 59.3177 302.1 58.2958 302.1C57.2737 302.1 57.2737 303.65 58.2958 303.65ZM69.9037 303.94C71.309 303.94 71.309 301.81 69.9037 301.81C68.4983 301.81 68.4983 303.94 69.9037 303.94ZM81.5118 304.263C83.343 304.263 83.343 301.487 81.5118 301.487C79.6805 301.487 79.6805 304.263 81.5118 304.263ZM93.1199 304.521C95.2916 304.521 95.2916 301.229 93.1199 301.229C90.9478 301.229 90.9478 304.521 93.1199 304.521ZM104.728 304.811C107.283 304.811 107.283 300.939 104.728 300.939C102.172 300.939 102.172 304.811 104.728 304.811ZM116.336 305.037C119.189 305.037 119.189 300.712 116.336 300.712C113.482 300.712 113.482 305.037 116.336 305.037ZM127.944 305.231C131.053 305.231 131.053 300.519 127.944 300.519C124.835 300.519 124.835 305.231 127.944 305.231ZM139.552 305.425C142.916 305.425 142.916 300.325 139.552 300.325C136.187 300.325 136.187 305.425 139.552 305.425ZM151.16 305.554C154.695 305.554 154.695 300.196 151.16 300.196C147.625 300.196 147.625 305.554 151.16 305.554ZM162.768 305.651C166.43 305.651 166.43 300.099 162.768 300.099C159.105 300.099 159.105 305.651 162.768 305.651ZM174.376 305.715C178.124 305.715 178.124 300.035 174.376 300.035C170.628 300.035 170.628 305.715 174.376 305.715ZM185.984 305.747C189.774 305.747 189.774 300.003 185.984 300.003C182.194 300.003 182.194 305.747 185.984 305.747ZM197.592 305.715C201.34 305.715 201.34 300.035 197.592 300.035C193.844 300.035 193.844 305.715 197.592 305.715ZM209.2 305.683C212.905 305.683 212.905 300.067 209.2 300.067C205.495 300.067 205.495 305.683 209.2 305.683ZM220.808 305.554C224.343 305.554 224.343 300.196 220.808 300.196C217.273 300.196 217.273 305.554 220.808 305.554ZM232.416 305.425C235.781 305.425 235.781 300.325 232.416 300.325C229.052 300.325 229.052 305.425 232.416 305.425ZM244.024 305.263C247.176 305.263 247.176 300.487 244.024 300.487C240.873 300.487 240.873 305.263 244.024 305.263ZM255.632 305.037C258.486 305.037 258.486 300.712 255.632 300.712C252.779 300.712 252.779 305.037 255.632 305.037ZM267.24 304.811C269.795 304.811 269.795 300.939 267.24 300.939C264.685 300.939 264.685 304.811 267.24 304.811ZM278.848 304.553C281.063 304.553 281.063 301.197 278.848 301.197C276.634 301.197 276.634 304.553 278.848 304.553ZM290.456 304.263C292.287 304.263 292.287 301.487 290.456 301.487C288.625 301.487 288.625 304.263 290.456 304.263ZM302.064 303.972C303.512 303.972 303.512 301.778 302.064 301.778C300.616 301.778 300.616 303.972 302.064 303.972ZM313.672 303.65C314.694 303.65 314.694 302.1 313.672 302.1C312.65 302.1 312.65 303.65 313.672 303.65ZM325.28 303.327C325.877 303.327 325.877 302.423 325.28 302.423C324.684 302.423 324.684 303.327 325.28 303.327ZM336.888 303.004C337.059 303.004 337.059 302.746 336.888 302.746C336.718 302.746 336.718 303.004 336.888 303.004ZM46.6875 314.675C46.9005 314.675 46.9005 314.353 46.6875 314.353C46.4747 314.353 46.4747 314.675 46.6875 314.675ZM58.2958 314.966C58.8918 314.966 58.8918 314.062 58.2958 314.062C57.6996 314.062 57.6996 314.966 58.2958 314.966ZM69.9037 315.289C70.9258 315.289 70.9258 313.74 69.9037 313.74C68.8815 313.74 68.8815 315.289 69.9037 315.289ZM81.5118 315.579C82.9171 315.579 82.9171 313.449 81.5118 313.449C80.1064 313.449 80.1064 315.579 81.5118 315.579ZM93.1199 315.837C94.866 315.837 94.866 313.191 93.1199 313.191C91.3737 313.191 91.3737 315.837 93.1199 315.837ZM104.728 316.063C106.772 316.063 106.772 312.965 104.728 312.965C102.684 312.965 102.684 316.063 104.728 316.063ZM116.336 316.289C118.678 316.289 118.678 312.739 116.336 312.739C113.994 312.739 113.994 316.289 116.336 316.289ZM127.944 316.483C130.542 316.483 130.542 312.545 127.944 312.545C125.346 312.545 125.346 316.483 127.944 316.483ZM139.552 316.644C142.363 316.644 142.363 312.384 139.552 312.384C136.741 312.384 136.741 316.644 139.552 316.644ZM151.16 316.773C154.141 316.773 154.141 312.255 151.16 312.255C148.179 312.255 148.179 316.773 151.16 316.773ZM162.768 316.87C165.877 316.87 165.877 312.158 162.768 312.158C159.659 312.158 159.659 316.87 162.768 316.87ZM174.376 316.935C177.57 316.935 177.57 312.093 174.376 312.093C171.182 312.093 171.182 316.935 174.376 316.935ZM185.984 316.967C189.221 316.967 189.221 312.061 185.984 312.061C182.747 312.061 182.747 316.967 185.984 316.967ZM197.592 316.935C200.786 316.935 200.786 312.093 197.592 312.093C194.398 312.093 194.398 316.935 197.592 316.935ZM209.2 316.902C212.352 316.902 212.352 312.126 209.2 312.126C206.049 312.126 206.049 316.902 209.2 316.902ZM220.808 316.806C223.832 316.806 223.832 312.223 220.808 312.223C217.784 312.223 217.784 316.806 220.808 316.806ZM232.416 316.676C235.269 316.676 235.269 312.352 232.416 312.352C229.563 312.352 229.563 316.676 232.416 316.676ZM244.024 316.515C246.665 316.515 246.665 312.513 244.024 312.513C241.384 312.513 241.384 316.515 244.024 316.515ZM255.632 316.322C258.017 316.322 258.017 312.707 255.632 312.707C253.247 312.707 253.247 316.322 255.632 316.322ZM267.24 316.095C269.327 316.095 269.327 312.933 267.24 312.933C265.153 312.933 265.153 316.095 267.24 316.095ZM278.848 315.837C280.594 315.837 280.594 313.191 278.848 313.191C277.102 313.191 277.102 315.837 278.848 315.837ZM290.456 315.579C291.862 315.579 291.862 313.449 290.456 313.449C289.051 313.449 289.051 315.579 290.456 315.579ZM302.064 315.289C303.086 315.289 303.086 313.74 302.064 313.74C301.042 313.74 301.042 315.289 302.064 315.289ZM313.672 314.998C314.311 314.998 314.311 314.03 313.672 314.03C313.034 314.03 313.034 314.998 313.672 314.998ZM325.28 314.708C325.536 314.708 325.536 314.32 325.28 314.32C325.025 314.32 325.025 314.708 325.28 314.708ZM58.2958 326.315C58.5086 326.315 58.5086 325.992 58.2958 325.992C58.0828 325.992 58.0828 326.315 58.2958 326.315ZM69.9037 326.573C70.4573 326.573 70.4573 325.734 69.9037 325.734C69.3501 325.734 69.3501 326.573 69.9037 326.573ZM81.5118 326.863C82.4486 326.863 82.4486 325.443 81.5118 325.443C80.575 325.443 80.575 326.863 81.5118 326.863ZM93.1199 327.121C94.3975 327.121 94.3975 325.185 93.1199 325.185C91.842 325.185 91.842 327.121 93.1199 327.121ZM104.728 327.347C106.304 327.347 106.304 324.959 104.728 324.959C103.152 324.959 103.152 327.347 104.728 327.347ZM116.336 327.541C118.167 327.541 118.167 324.765 116.336 324.765C114.505 324.765 114.505 327.541 116.336 327.541ZM127.944 327.735C130.031 327.735 130.031 324.572 127.944 324.572C125.857 324.572 125.857 327.735 127.944 327.735ZM139.552 327.896C141.852 327.896 141.852 324.41 139.552 324.41C137.252 324.41 137.252 327.896 139.552 327.896ZM151.16 328.025C153.63 328.025 153.63 324.281 151.16 324.281C148.69 324.281 148.69 328.025 151.16 328.025ZM162.768 328.09C165.323 328.09 165.323 324.217 162.768 324.217C160.213 324.217 160.213 328.09 162.768 328.09ZM174.376 328.154C177.016 328.154 177.016 324.152 174.376 324.152C171.736 324.152 171.736 328.154 174.376 328.154ZM185.984 328.186C188.667 328.186 188.667 324.12 185.984 324.12C183.301 324.12 183.301 328.186 185.984 328.186ZM197.592 328.154C200.233 328.154 200.233 324.152 197.592 324.152C194.952 324.152 194.952 328.154 197.592 328.154ZM209.2 328.122C211.798 328.122 211.798 324.184 209.2 324.184C206.602 324.184 206.602 328.122 209.2 328.122ZM220.808 328.025C223.278 328.025 223.278 324.281 220.808 324.281C218.338 324.281 218.338 328.025 220.808 328.025ZM232.416 327.896C234.716 327.896 234.716 324.41 232.416 324.41C230.117 324.41 230.117 327.896 232.416 327.896ZM244.024 327.735C246.111 327.735 246.111 324.572 244.024 324.572C241.937 324.572 241.937 327.735 244.024 327.735ZM255.632 327.573C257.506 327.573 257.506 324.733 255.632 324.733C253.758 324.733 253.758 327.573 255.632 327.573ZM267.24 327.347C268.816 327.347 268.816 324.959 267.24 324.959C265.665 324.959 265.665 327.347 267.24 327.347ZM278.848 327.121C280.126 327.121 280.126 325.185 278.848 325.185C277.571 325.185 277.571 327.121 278.848 327.121ZM290.456 326.895C291.436 326.895 291.436 325.411 290.456 325.411C289.477 325.411 289.477 326.895 290.456 326.895ZM302.064 326.605C302.661 326.605 302.661 325.701 302.064 325.701C301.468 325.701 301.468 326.605 302.064 326.605ZM313.672 326.347C313.928 326.347 313.928 325.96 313.672 325.96C313.417 325.96 313.417 326.347 313.672 326.347ZM69.9037 337.921C70.0741 337.921 70.0741 337.663 69.9037 337.663C69.7335 337.663 69.7335 337.921 69.9037 337.921ZM81.5118 338.147C81.9803 338.147 81.9803 337.437 81.5118 337.437C81.0432 337.437 81.0432 338.147 81.5118 338.147ZM93.1199 338.373C93.8863 338.373 93.8863 337.211 93.1199 337.211C92.3532 337.211 92.3532 338.373 93.1199 338.373ZM104.728 338.599C105.793 338.599 105.793 336.985 104.728 336.985C103.663 336.985 103.663 338.599 104.728 338.599ZM116.336 338.793C117.656 338.793 117.656 336.792 116.336 336.792C115.016 336.792 115.016 338.793 116.336 338.793ZM127.944 338.986C129.519 338.986 129.519 336.598 127.944 336.598C126.368 336.598 126.368 338.986 127.944 338.986ZM139.552 339.116C141.298 339.116 141.298 336.469 139.552 336.469C137.806 336.469 137.806 339.116 139.552 339.116ZM151.16 339.245C153.076 339.245 153.076 336.34 151.16 336.34C149.244 336.34 149.244 339.245 151.16 339.245ZM162.768 339.309C164.77 339.309 164.77 336.275 162.768 336.275C160.766 336.275 160.766 339.309 162.768 339.309ZM174.376 339.374C176.463 339.374 176.463 336.211 174.376 336.211C172.289 336.211 172.289 339.374 174.376 339.374ZM185.984 339.374C188.071 339.374 188.071 336.211 185.984 336.211C183.897 336.211 183.897 339.374 185.984 339.374ZM197.592 339.374C199.679 339.374 199.679 336.211 197.592 336.211C195.505 336.211 195.505 339.374 197.592 339.374ZM209.2 339.309C211.202 339.309 211.202 336.275 209.2 336.275C207.198 336.275 207.198 339.309 209.2 339.309ZM220.808 339.245C222.724 339.245 222.724 336.34 220.808 336.34C218.892 336.34 218.892 339.245 220.808 339.245ZM232.416 339.116C234.162 339.116 234.162 336.469 232.416 336.469C230.67 336.469 230.67 339.116 232.416 339.116ZM244.024 338.986C245.6 338.986 245.6 336.598 244.024 336.598C242.448 336.598 242.448 338.986 244.024 338.986ZM255.632 338.825C256.995 338.825 256.995 336.759 255.632 336.759C254.27 336.759 254.27 338.825 255.632 338.825ZM267.24 338.631C268.348 338.631 268.348 336.953 267.24 336.953C266.133 336.953 266.133 338.631 267.24 338.631ZM278.848 338.405C279.657 338.405 279.657 337.179 278.848 337.179C278.039 337.179 278.039 338.405 278.848 338.405ZM290.456 338.18C290.967 338.18 290.967 337.405 290.456 337.405C289.945 337.405 289.945 338.18 290.456 338.18ZM302.064 337.921C302.235 337.921 302.235 337.663 302.064 337.663C301.894 337.663 301.894 337.921 302.064 337.921ZM81.5118 349.496C81.5968 349.496 81.5968 349.367 81.5118 349.367C81.4267 349.367 81.4267 349.496 81.5118 349.496ZM93.1199 349.657C93.418 349.657 93.418 349.205 93.1199 349.205C92.8217 349.205 92.8217 349.657 93.1199 349.657ZM104.728 349.851C105.281 349.851 105.281 349.012 104.728 349.012C104.174 349.012 104.174 349.851 104.728 349.851ZM116.336 350.045C117.145 350.045 117.145 348.818 116.336 348.818C115.527 348.818 115.527 350.045 116.336 350.045ZM127.944 350.206C128.966 350.206 128.966 348.657 127.944 348.657C126.922 348.657 126.922 350.206 127.944 350.206ZM139.552 350.335C140.744 350.335 140.744 348.528 139.552 348.528C138.359 348.528 138.359 350.335 139.552 350.335ZM151.16 350.432C152.48 350.432 152.48 348.431 151.16 348.431C149.84 348.431 149.84 350.432 151.16 350.432ZM162.768 350.529C164.216 350.529 164.216 348.334 162.768 348.334C161.32 348.334 161.32 350.529 162.768 350.529ZM174.376 350.561C175.866 350.561 175.866 348.302 174.376 348.302C172.885 348.302 172.885 350.561 174.376 350.561ZM185.984 350.593C187.517 350.593 187.517 348.27 185.984 348.27C184.451 348.27 184.451 350.593 185.984 350.593ZM197.592 350.561C199.083 350.561 199.083 348.302 197.592 348.302C196.102 348.302 196.102 350.561 197.592 350.561ZM209.2 350.529C210.648 350.529 210.648 348.334 209.2 348.334C207.752 348.334 207.752 350.529 209.2 350.529ZM220.808 350.464C222.171 350.464 222.171 348.399 220.808 348.399C219.445 348.399 219.445 350.464 220.808 350.464ZM232.416 350.335C233.609 350.335 233.609 348.528 232.416 348.528C231.224 348.528 231.224 350.335 232.416 350.335ZM244.024 350.206C245.046 350.206 245.046 348.657 244.024 348.657C243.002 348.657 243.002 350.206 244.024 350.206ZM255.632 350.045C256.441 350.045 256.441 348.818 255.632 348.818C254.823 348.818 254.823 350.045 255.632 350.045ZM267.24 349.883C267.836 349.883 267.836 348.979 267.24 348.979C266.644 348.979 266.644 349.883 267.24 349.883ZM278.848 349.657C279.146 349.657 279.146 349.205 278.848 349.205C278.55 349.205 278.55 349.657 278.848 349.657ZM290.456 349.496C290.542 349.496 290.542 349.367 290.456 349.367C290.371 349.367 290.371 349.496 290.456 349.496ZM104.728 361.135C104.813 361.135 104.813 361.006 104.728 361.006C104.643 361.006 104.643 361.135 104.728 361.135ZM116.336 361.296C116.634 361.296 116.634 360.845 116.336 360.845C116.038 360.845 116.038 361.296 116.336 361.296ZM127.944 361.426C128.412 361.426 128.412 360.715 127.944 360.715C127.475 360.715 127.475 361.426 127.944 361.426ZM139.552 361.555C140.191 361.555 140.191 360.586 139.552 360.586C138.913 360.586 138.913 361.555 139.552 361.555ZM151.16 361.651C151.927 361.651 151.927 360.49 151.16 360.49C150.393 360.49 150.393 361.651 151.16 361.651ZM162.768 361.716C163.62 361.716 163.62 360.425 162.768 360.425C161.916 360.425 161.916 361.716 162.768 361.716ZM174.376 361.78C175.313 361.78 175.313 360.36 174.376 360.36C173.439 360.36 173.439 361.78 174.376 361.78ZM185.984 361.78C186.921 361.78 186.921 360.36 185.984 360.36C185.047 360.36 185.047 361.78 185.984 361.78ZM197.592 361.78C198.529 361.78 198.529 360.36 197.592 360.36C196.655 360.36 196.655 361.78 197.592 361.78ZM209.2 361.748C210.094 361.748 210.094 360.393 209.2 360.393C208.306 360.393 208.306 361.748 209.2 361.748ZM220.808 361.651C221.575 361.651 221.575 360.49 220.808 360.49C220.041 360.49 220.041 361.651 220.808 361.651ZM232.416 361.555C233.055 361.555 233.055 360.586 232.416 360.586C231.777 360.586 231.777 361.555 232.416 361.555ZM244.024 361.458C244.535 361.458 244.535 360.683 244.024 360.683C243.513 360.683 243.513 361.458 244.024 361.458ZM255.632 361.296C255.93 361.296 255.93 360.845 255.632 360.845C255.334 360.845 255.334 361.296 255.632 361.296ZM267.24 361.167C267.368 361.167 267.368 360.974 267.24 360.974C267.113 360.974 267.113 361.167 267.24 361.167ZM127.944 372.742C127.987 372.742 127.987 372.677 127.944 372.677C127.901 372.677 127.901 372.742 127.944 372.742ZM139.552 372.806C139.68 372.806 139.68 372.613 139.552 372.613C139.424 372.613 139.424 372.806 139.552 372.806ZM151.16 372.871C151.373 372.871 151.373 372.548 151.16 372.548C150.947 372.548 150.947 372.871 151.16 372.871ZM162.768 372.936C163.066 372.936 163.066 372.484 162.768 372.484C162.47 372.484 162.47 372.936 162.768 372.936ZM174.376 372.968C174.717 372.968 174.717 372.451 174.376 372.451C174.035 372.451 174.035 372.968 174.376 372.968ZM185.984 373C186.367 373 186.367 372.419 185.984 372.419C185.601 372.419 185.601 373 185.984 373ZM197.592 372.968C197.933 372.968 197.933 372.451 197.592 372.451C197.251 372.451 197.251 372.968 197.592 372.968ZM209.2 372.936C209.498 372.936 209.498 372.484 209.2 372.484C208.902 372.484 208.902 372.936 209.2 372.936ZM220.808 372.871C221.021 372.871 221.021 372.548 220.808 372.548C220.595 372.548 220.595 372.871 220.808 372.871ZM232.416 372.806C232.544 372.806 232.544 372.613 232.416 372.613C232.288 372.613 232.288 372.806 232.416 372.806ZM244.024 372.742C244.067 372.742 244.067 372.677 244.024 372.677C243.982 372.677 243.982 372.742 244.024 372.742Z" fill="#6FB543"/>
</svg>
