<svg width="1920" height="752" fill="none" xmlns="http://www.w3.org/2000/svg"><mask id="mask0_505_76" style="mask-type:alpha" maskUnits="userSpaceOnUse" x="0" y="0" width="1920" height="752"><path fill="#111827" d="M0 0h1920v752H0z"/></mask><g mask="url(#mask0_505_76)"><path fill="#111827" d="M0 0h1920v752H0z"/><path fill="#111827" d="M0 0h1920v930H0z"/><g opacity=".11" filter="url(#filter0_f_505_76)"><circle cx="355" cy="698" r="266" fill="#E5FFD4"/></g><g filter="url(#filter1_f_505_76)"><circle cx="355" cy="698" r="266" fill="#497D28"/></g><path opacity=".65" d="M515.962 386.285c.053 0 .053.081 0 .081-.054 0-.054-.081 0-.081zm14.603.122c.107 0 .107-.163 0-.163s-.107.163 0 .163zm14.604.081c.214 0 .214-.325 0-.325-.215 0-.215.325 0 .325zm14.604.081c.321 0 .321-.488 0-.488-.322 0-.322.488 0 .488zm14.603.041c.375 0 .375-.569 0-.569s-.375.569 0 .569zm14.604.041c.428 0 .428-.651 0-.651-.429 0-.429.651 0 .651zm14.603 0c.429 0 .429-.651 0-.651-.428 0-.428.651 0 .651zm14.604-.082c.322 0 .322-.488 0-.488-.321 0-.321.488 0 .488zm14.604-.04c.268 0 .268-.407 0-.407s-.268.407 0 .407zm14.603-.082c.161 0 .161-.244 0-.244-.16 0-.16.244 0 .244zm14.604-.081c.054 0 .054-.081 0-.081-.053 0-.053.081 0 .081zm-175.244 14.707c.108 0 .108-.163 0-.163-.107 0-.107.163 0 .163zm14.604.162c.322 0 .322-.488 0-.488-.321 0-.321.488 0 .488zm14.604.163c.535 0 .535-.813 0-.813-.536 0-.536.813 0 .813zm14.603.163c.75 0 .75-1.139 0-1.139s-.75 1.139 0 1.139zm14.604.122c.911 0 .911-1.383 0-1.383s-.911 1.383 0 1.383zm14.604.081c1.017 0 1.017-1.545 0-1.545-1.018 0-1.018 1.545 0 1.545zm14.603.081c1.125 0 1.125-1.708 0-1.708s-1.125 1.708 0 1.708zm14.604 0c1.125 0 1.125-1.708 0-1.708s-1.125 1.708 0 1.708zm14.603 0c1.126 0 1.126-1.708 0-1.708-1.125 0-1.125 1.708 0 1.708zm14.604-.04c1.072 0 1.072-1.627 0-1.627-1.071 0-1.071 1.627 0 1.627zm14.604-.122c.911 0 .911-1.383 0-1.383s-.911 1.383 0 1.383zm14.603-.122c.75 0 .75-1.139 0-1.139-.749 0-.749 1.139 0 1.139zm14.604-.122c.59 0 .59-.895 0-.895-.589 0-.589.895 0 .895zm14.604-.204c.321 0 .321-.488 0-.488-.322 0-.322.488 0 .488zm14.604-.162c.107 0 .107-.163 0-.163-.108 0-.108.163 0 .163zm-233.659 14.625c.053 0 .053-.082 0-.082-.054 0-.054.082 0 .082zm14.604.203c.321 0 .321-.488 0-.488-.322 0-.322.488 0 .488zm14.603.244c.643 0 .643-.976 0-.976s-.643.976 0 .976zm14.604.244c.964 0 .964-1.464 0-1.464-.965 0-.965 1.464 0 1.464zm14.604.203c1.232 0 1.232-1.87 0-1.87-1.233 0-1.233 1.87 0 1.87zm14.603.163c1.447 0 1.447-2.196 0-2.196-1.446 0-1.446 2.196 0 2.196zm14.604.122c1.607 0 1.607-2.44 0-2.44s-1.607 2.44 0 2.44zm14.604.122c1.768 0 1.768-2.684 0-2.684s-1.768 2.684 0 2.684zm14.603.041c1.822 0 1.822-2.766 0-2.766-1.821 0-1.821 2.766 0 2.766zm14.604.041c1.875 0 1.875-2.847 0-2.847s-1.875 2.847 0 2.847zm14.603-.041c1.822 0 1.822-2.766 0-2.766-1.821 0-1.821 2.766 0 2.766zm14.604-.041c1.768 0 1.768-2.684 0-2.684s-1.768 2.684 0 2.684zm14.604-.081c1.661 0 1.661-2.522 0-2.522s-1.661 2.522 0 2.522zm14.603-.163c1.447 0 1.447-2.196 0-2.196-1.446 0-1.446 2.196 0 2.196zm14.604-.163c1.232 0 1.232-1.87 0-1.87s-1.232 1.87 0 1.87zm14.604-.203c.964 0 .964-1.464 0-1.464-.965 0-.965 1.464 0 1.464zm14.604-.203c.696 0 .696-1.058 0-1.058-.697 0-.697 1.058 0 1.058zm14.603-.244c.375 0 .375-.57 0-.57s-.375.57 0 .57zm14.604-.204c.107 0 .107-.162 0-.162s-.107.162 0 .162zm-277.47 14.707c.161 0 .161-.244 0-.244-.16 0-.16.244 0 .244zm14.604.285c.536 0 .536-.814 0-.814s-.536.814 0 .814zm14.604.325c.964 0 .964-1.464 0-1.464-.965 0-.965 1.464 0 1.464zm14.603.244c1.286 0 1.286-1.952 0-1.952-1.285 0-1.285 1.952 0 1.952zm14.604.244c1.607 0 1.607-2.44 0-2.44s-1.607 2.44 0 2.44zm14.604.244c1.928 0 1.928-2.928 0-2.928-1.929 0-1.929 2.928 0 2.928zm14.603.163c2.143 0 2.143-3.254 0-3.254s-2.143 3.254 0 3.254zm14.604.162c2.357 0 2.357-3.578 0-3.578-2.358 0-2.358 3.578 0 3.578zm14.604.082c2.464 0 2.464-3.742 0-3.742-2.465 0-2.465 3.742 0 3.742zm14.603.081c2.572 0 2.572-3.904 0-3.904s-2.572 3.904 0 3.904zm14.604 0c2.572 0 2.572-3.904 0-3.904s-2.572 3.904 0 3.904zm14.603 0c2.572 0 2.572-3.904 0-3.904-2.571 0-2.571 3.904 0 3.904zm14.604-.081c2.465 0 2.465-3.742 0-3.742-2.464 0-2.464 3.742 0 3.742zm14.604-.082c2.357 0 2.357-3.578 0-3.578-2.358 0-2.358 3.578 0 3.578zm14.603-.162c2.143 0 2.143-3.254 0-3.254s-2.143 3.254 0 3.254zm14.604-.163c1.929 0 1.929-2.928 0-2.928s-1.929 2.928 0 2.928zm14.604-.203c1.66 0 1.66-2.522 0-2.522-1.661 0-1.661 2.522 0 2.522zm14.604-.244c1.339 0 1.339-2.034 0-2.034-1.34 0-1.34 2.034 0 2.034zm14.603-.285c.964 0 .964-1.464 0-1.464s-.964 1.464 0 1.464zm14.604-.285c.589 0 .589-.894 0-.894s-.589.894 0 .894zm14.603-.284c.215 0 .215-.326 0-.326-.214 0-.214.326 0 .326zM428.34 445.152c.214 0 .214-.326 0-.326s-.214.326 0 .326zm14.603.366c.697 0 .697-1.058 0-1.058-.696 0-.696 1.058 0 1.058zm14.604.325c1.125 0 1.125-1.708 0-1.708s-1.125 1.708 0 1.708zm14.604.325c1.553 0 1.553-2.358 0-2.358-1.554 0-1.554 2.358 0 2.358zm14.603.285c1.929 0 1.929-2.928 0-2.928s-1.929 2.928 0 2.928zm14.604.285c2.304 0 2.304-3.498 0-3.498s-2.304 3.498 0 3.498zm14.604.203c2.572 0 2.572-3.904 0-3.904s-2.572 3.904 0 3.904zm14.603.203c2.84 0 2.84-4.311 0-4.311-2.839 0-2.839 4.311 0 4.311zm14.604.163c3.054 0 3.054-4.636 0-4.636s-3.054 4.636 0 4.636zm14.604.081c3.161 0 3.161-4.798 0-4.798s-3.161 4.798 0 4.798zm14.603.082c3.268 0 3.268-4.962 0-4.962s-3.268 4.962 0 4.962zm14.604.04c3.322 0 3.322-5.043 0-5.043s-3.322 5.043 0 5.043zm14.603-.04c3.269 0 3.269-4.962 0-4.962-3.268 0-3.268 4.962 0 4.962zm14.604-.041c3.215 0 3.215-4.88 0-4.88-3.214 0-3.214 4.88 0 4.88zm14.604-.122c3.054 0 3.054-4.636 0-4.636s-3.054 4.636 0 4.636zm14.603-.163c2.84 0 2.84-4.311 0-4.311-2.839 0-2.839 4.311 0 4.311zm14.604-.162c2.625 0 2.625-3.986 0-3.986s-2.625 3.986 0 3.986zm14.604-.244c2.304 0 2.304-3.498 0-3.498s-2.304 3.498 0 3.498zm14.604-.244c1.982 0 1.982-3.01 0-3.01-1.983 0-1.983 3.01 0 3.01zm14.603-.326c1.554 0 1.554-2.358 0-2.358s-1.554 2.358 0 2.358zm14.604-.284c1.179 0 1.179-1.79 0-1.79s-1.179 1.79 0 1.79zm14.603-.366c.697 0 .697-1.058 0-1.058-.696 0-.696 1.058 0 1.058zm14.604-.326c.268 0 .268-.406 0-.406s-.268.406 0 .406zm-335.884 14.626c.215 0 .215-.326 0-.326-.214 0-.214.326 0 .326zm14.604.366c.696 0 .696-1.058 0-1.058-.697 0-.697 1.058 0 1.058zm14.603.406c1.233 0 1.233-1.871 0-1.871-1.232 0-1.232 1.871 0 1.871zm14.604.366c1.714 0 1.714-2.603 0-2.603-1.715 0-1.715 2.603 0 2.603zm14.604.326c2.143 0 2.143-3.254 0-3.254s-2.143 3.254 0 3.254zm14.603.284c2.518 0 2.518-3.823 0-3.823s-2.518 3.823 0 3.823zm14.604.285c2.893 0 2.893-4.392 0-4.392s-2.893 4.392 0 4.392zm14.604.244c3.214 0 3.214-4.88 0-4.88-3.215 0-3.215 4.88 0 4.88zm14.603.203c3.483 0 3.483-5.287 0-5.287-3.482 0-3.482 5.287 0 5.287zm14.604.163c3.697 0 3.697-5.612 0-5.612s-3.697 5.612 0 5.612zm14.604.122c3.857 0 3.857-5.856 0-5.856-3.858 0-3.858 5.856 0 5.856zm14.603.081c3.965 0 3.965-6.019 0-6.019-3.964 0-3.964 6.019 0 6.019zm14.604.041c4.018 0 4.018-6.1 0-6.1s-4.018 6.1 0 6.1zm14.603-.041c3.965 0 3.965-6.019 0-6.019-3.964 0-3.964 6.019 0 6.019zm14.604-.04c3.911 0 3.911-5.938 0-5.938s-3.911 5.938 0 5.938zm14.604-.122c3.75 0 3.75-5.694 0-5.694-3.751 0-3.751 5.694 0 5.694zm14.603-.163c3.537 0 3.537-5.368 0-5.368-3.536 0-3.536 5.368 0 5.368zm14.604-.203c3.268 0 3.268-4.962 0-4.962s-3.268 4.962 0 4.962zm14.604-.244c2.947 0 2.947-4.474 0-4.474s-2.947 4.474 0 4.474zm14.604-.285c2.571 0 2.571-3.904 0-3.904-2.572 0-2.572 3.904 0 3.904zm14.603-.285c2.197 0 2.197-3.335 0-3.335-2.196 0-2.196 3.335 0 3.335zm14.604-.366c1.714 0 1.714-2.603 0-2.603-1.715 0-1.715 2.603 0 2.603zm14.603-.325c1.286 0 1.286-1.952 0-1.952s-1.286 1.952 0 1.952zm14.604-.407c.75 0 .75-1.138 0-1.138s-.75 1.138 0 1.138zm14.604-.366c.268 0 .268-.406 0-.406s-.268.406 0 .406zm-365.092 14.585c.161 0 .161-.244 0-.244-.16 0-.16.244 0 .244zm14.604.406c.697 0 .697-1.057 0-1.057s-.697 1.057 0 1.057zm14.604.407c1.232 0 1.232-1.871 0-1.871-1.233 0-1.233 1.871 0 1.871zm14.603.407c1.768 0 1.768-2.684 0-2.684s-1.768 2.684 0 2.684zm14.604.366c2.25 0 2.25-3.416 0-3.416s-2.25 3.416 0 3.416zm14.604.366c2.732 0 2.732-4.148 0-4.148-2.733 0-2.733 4.148 0 4.148zm14.603.325c3.162 0 3.162-4.799 0-4.799-3.161 0-3.161 4.799 0 4.799zm14.604.285c3.536 0 3.536-5.368 0-5.368s-3.536 5.368 0 5.368zm14.604.244c3.857 0 3.857-5.856 0-5.856-3.858 0-3.858 5.856 0 5.856zm14.603.244c4.18 0 4.18-6.344 0-6.344-4.179 0-4.179 6.344 0 6.344zm14.604.163c4.393 0 4.393-6.67 0-6.67s-4.393 6.67 0 6.67zm14.604.121c4.553 0 4.553-6.913 0-6.913-4.554 0-4.554 6.913 0 6.913zm14.603.082c4.662 0 4.662-7.076 0-7.076-4.661 0-4.661 7.076 0 7.076zm14.604.041c4.715 0 4.715-7.158 0-7.158s-4.715 7.158 0 7.158zm14.603-.041c4.662 0 4.662-7.076 0-7.076-4.661 0-4.661 7.076 0 7.076zm14.604-.041c4.608 0 4.608-6.995 0-6.995-4.607 0-4.607 6.995 0 6.995zm14.604-.162c4.393 0 4.393-6.67 0-6.67-4.394 0-4.394 6.67 0 6.67zm14.603-.163c4.179 0 4.179-6.344 0-6.344s-4.179 6.344 0 6.344zm14.604-.204c3.912 0 3.912-5.937 0-5.937-3.911 0-3.911 5.937 0 5.937zm14.604-.284c3.536 0 3.536-5.368 0-5.368s-3.536 5.368 0 5.368zm14.604-.285c3.161 0 3.161-4.799 0-4.799-3.162 0-3.162 4.799 0 4.799zm14.603-.325c2.733 0 2.733-4.148 0-4.148s-2.733 4.148 0 4.148zm14.604-.326c2.303 0 2.303-3.497 0-3.497-2.304 0-2.304 3.497 0 3.497zm14.603-.406c1.768 0 1.768-2.684 0-2.684s-1.768 2.684 0 2.684zm14.604-.366c1.286 0 1.286-1.952 0-1.952s-1.286 1.952 0 1.952zm14.604-.448c.696 0 .696-1.057 0-1.057-.697 0-.697 1.057 0 1.057zm14.603-.366c.215 0 .215-.325 0-.325-.214 0-.214.325 0 .325zm-394.298 14.544c.053 0 .053-.081 0-.081-.054 0-.054.081 0 .081zm14.603.366c.536 0 .536-.813 0-.813-.535 0-.535.813 0 .813zm14.604.448c1.125 0 1.125-1.708 0-1.708s-1.125 1.708 0 1.708zm14.604.447c1.714 0 1.714-2.603 0-2.603-1.715 0-1.715 2.603 0 2.603zm14.603.407c2.251 0 2.251-3.417 0-3.417-2.25 0-2.25 3.417 0 3.417zm14.604.406c2.786 0 2.786-4.229 0-4.229s-2.786 4.229 0 4.229zm14.604.366c3.268 0 3.268-4.961 0-4.961-3.269 0-3.269 4.961 0 4.961zm14.603.326c3.697 0 3.697-5.612 0-5.612s-3.697 5.612 0 5.612zm14.604.325c4.125 0 4.125-6.263 0-6.263-4.126 0-4.126 6.263 0 6.263zm14.604.285c4.5 0 4.5-6.833 0-6.833-4.501 0-4.501 6.833 0 6.833zm14.603.244c4.822 0 4.822-7.321 0-7.321s-4.822 7.321 0 7.321zm14.604.203c5.09 0 5.09-7.727 0-7.727s-5.09 7.727 0 7.727zm14.604.122c5.25 0 5.25-7.971 0-7.971-5.251 0-5.251 7.971 0 7.971zm14.603.081c5.358 0 5.358-8.133 0-8.133s-5.358 8.133 0 8.133zm14.604.041c5.411 0 5.411-8.215 0-8.215s-5.411 8.215 0 8.215zm14.603 0c5.412 0 5.412-8.215 0-8.215-5.411 0-5.411 8.215 0 8.215zm14.604-.081c5.305 0 5.305-8.052 0-8.052-5.304 0-5.304 8.052 0 8.052zm14.604-.163c5.09 0 5.09-7.727 0-7.727s-5.09 7.727 0 7.727zm14.603-.203c4.823 0 4.823-7.321 0-7.321-4.821 0-4.821 7.321 0 7.321zm14.604-.244c4.501 0 4.501-6.833 0-6.833s-4.501 6.833 0 6.833zm14.604-.244c4.179 0 4.179-6.344 0-6.344s-4.179 6.344 0 6.344zm14.604-.326c3.75 0 3.75-5.693 0-5.693-3.751 0-3.751 5.693 0 5.693zm14.603-.366c3.268 0 3.268-4.961 0-4.961s-3.268 4.961 0 4.961zm14.604-.366c2.786 0 2.786-4.229 0-4.229s-2.786 4.229 0 4.229zm14.603-.366c2.304 0 2.304-3.497 0-3.497-2.303 0-2.303 3.497 0 3.497zm14.604-.406c1.768 0 1.768-2.684 0-2.684s-1.768 2.684 0 2.684zm14.604-.448c1.178 0 1.178-1.789 0-1.789-1.179 0-1.179 1.789 0 1.789zm14.603-.447c.59 0 .59-.895 0-.895-.589 0-.589.895 0 .895zm14.604-.366c.107 0 .107-.163 0-.163s-.107.163 0 .163zm-408.902 14.829c.321 0 .321-.488 0-.488-.322 0-.322.488 0 .488zm14.603.488c.965 0 .965-1.465 0-1.465-.964 0-.964 1.465 0 1.465zm14.604.447c1.554 0 1.554-2.359 0-2.359-1.553 0-1.553 2.359 0 2.359zm14.604.447c2.143 0 2.143-3.253 0-3.253s-2.143 3.253 0 3.253zm14.603.448c2.733 0 2.733-4.149 0-4.149-2.732 0-2.732 4.149 0 4.149zm14.604.406c3.268 0 3.268-4.961 0-4.961s-3.268 4.961 0 4.961zm14.604.407c3.804 0 3.804-5.775 0-5.775s-3.804 5.775 0 5.775zm14.603.366c4.286 0 4.286-6.507 0-6.507s-4.286 6.507 0 6.507zm14.604.325c4.715 0 4.715-7.157 0-7.157s-4.715 7.157 0 7.157zm14.604.285c5.089 0 5.089-7.727 0-7.727-5.09 0-5.09 7.727 0 7.727zm14.603.285c5.465 0 5.465-8.297 0-8.297s-5.465 8.297 0 8.297zm14.604.203c5.733 0 5.733-8.703 0-8.703s-5.733 8.703 0 8.703zm14.604.163c5.947 0 5.947-9.029 0-9.029-5.948 0-5.948 9.029 0 9.029zm14.603.122c6.108 0 6.108-9.273 0-9.273s-6.108 9.273 0 9.273zm14.604.04c6.161 0 6.161-9.353 0-9.353-6.162 0-6.162 9.353 0 9.353zm14.603-.04c6.108 0 6.108-9.273 0-9.273-6.107 0-6.107 9.273 0 9.273zm14.604-.122c5.947 0 5.947-9.029 0-9.029s-5.947 9.029 0 9.029zm14.604-.122c5.786 0 5.786-8.785 0-8.785-5.787 0-5.787 8.785 0 8.785zm14.603-.244c5.465 0 5.465-8.297 0-8.297-5.464 0-5.464 8.297 0 8.297zm14.604-.244c5.144 0 5.144-7.809 0-7.809-5.143 0-5.143 7.809 0 7.809zm14.604-.326c4.715 0 4.715-7.157 0-7.157s-4.715 7.157 0 7.157zm14.604-.325c4.286 0 4.286-6.507 0-6.507-4.287 0-4.287 6.507 0 6.507zm14.603-.366c3.804 0 3.804-5.775 0-5.775s-3.804 5.775 0 5.775zm14.604-.366c3.322 0 3.322-5.043 0-5.043s-3.322 5.043 0 5.043zm14.603-.447c2.733 0 2.733-4.149 0-4.149-2.732 0-2.732 4.149 0 4.149zm14.604-.407c2.197 0 2.197-3.335 0-3.335s-2.197 3.335 0 3.335zm14.604-.447c1.607 0 1.607-2.441 0-2.441-1.608 0-1.608 2.441 0 2.441zm14.603-.488c.965 0 .965-1.465 0-1.465-.964 0-.964 1.465 0 1.465zm14.604-.448c.375 0 .375-.569 0-.569s-.375.569 0 .569zM369.925 518.4c.107 0 .107-.163 0-.163s-.107.163 0 .163zm14.604.406c.643 0 .643-.976 0-.976s-.643.976 0 .976zm14.603.488c1.286 0 1.286-1.952 0-1.952-1.285 0-1.285 1.952 0 1.952zm14.604.488c1.929 0 1.929-2.928 0-2.928s-1.929 2.928 0 2.928zm14.604.448c2.518 0 2.518-3.823 0-3.823s-2.518 3.823 0 3.823zm14.603.488c3.161 0 3.161-4.799 0-4.799s-3.161 4.799 0 4.799zm14.604.407c3.697 0 3.697-5.613 0-5.613s-3.697 5.613 0 5.613zm14.604.447c4.286 0 4.286-6.507 0-6.507s-4.286 6.507 0 6.507zm14.603.366c4.769 0 4.769-7.239 0-7.239-4.768 0-4.768 7.239 0 7.239zm14.604.366c5.251 0 5.251-7.971 0-7.971s-5.251 7.971 0 7.971zm14.604.325c5.679 0 5.679-8.621 0-8.621s-5.679 8.621 0 8.621zm14.603.326c6.108 0 6.108-9.273 0-9.273-6.107 0-6.107 9.273 0 9.273zm14.604.244c6.429 0 6.429-9.761 0-9.761s-6.429 9.761 0 9.761zm14.604.162c6.643 0 6.643-10.085 0-10.085-6.644 0-6.644 10.085 0 10.085zm14.603.122c6.805 0 6.805-10.329 0-10.329-6.804 0-6.804 10.329 0 10.329zm14.604.041c6.858 0 6.858-10.411 0-10.411s-6.858 10.411 0 10.411zm14.603-.041c6.805 0 6.805-10.329 0-10.329-6.804 0-6.804 10.329 0 10.329zm14.604-.122c6.644 0 6.644-10.085 0-10.085-6.643 0-6.643 10.085 0 10.085zm14.604-.162c6.429 0 6.429-9.761 0-9.761s-6.429 9.761 0 9.761zm14.603-.244c6.108 0 6.108-9.273 0-9.273s-6.108 9.273 0 9.273zm14.604-.285c5.733 0 5.733-8.703 0-8.703s-5.733 8.703 0 8.703zm14.604-.325c5.304 0 5.304-8.053 0-8.053s-5.304 8.053 0 8.053zm14.604-.366c4.821 0 4.821-7.321 0-7.321-4.822 0-4.822 7.321 0 7.321zm14.603-.407c4.286 0 4.286-6.507 0-6.507s-4.286 6.507 0 6.507zm14.604-.407c3.75 0 3.75-5.693 0-5.693-3.751 0-3.751 5.693 0 5.693zm14.603-.406c3.215 0 3.215-4.881 0-4.881-3.214 0-3.214 4.881 0 4.881zm14.604-.488c2.572 0 2.572-3.905 0-3.905s-2.572 3.905 0 3.905zm14.604-.448c1.982 0 1.982-3.009 0-3.009s-1.982 3.009 0 3.009zm14.603-.488c1.34 0 1.34-2.033 0-2.033-1.339 0-1.339 2.033 0 2.033zm14.604-.488c.697 0 .697-1.057 0-1.057-.696 0-.696 1.057 0 1.057zm14.603-.447c.108 0 .108-.163 0-.163-.107 0-.107.163 0 .163zm-438.109 14.828c.322 0 .322-.488 0-.488-.321 0-.321.488 0 .488zm14.604.488c.964 0 .964-1.464 0-1.464s-.964 1.464 0 1.464zm14.603.488c1.608 0 1.608-2.44 0-2.44-1.607 0-1.607 2.44 0 2.44zm14.604.529c2.304 0 2.304-3.497 0-3.497s-2.304 3.497 0 3.497zm14.604.447c2.893 0 2.893-4.392 0-4.392s-2.893 4.392 0 4.392zm14.603.488c3.536 0 3.536-5.368 0-5.368s-3.536 5.368 0 5.368zm14.604.448c4.126 0 4.126-6.263 0-6.263-4.125 0-4.125 6.263 0 6.263zm14.604.447c4.714 0 4.714-7.157 0-7.157-4.715 0-4.715 7.157 0 7.157zm14.603.407c5.251 0 5.251-7.971 0-7.971-5.25 0-5.25 7.971 0 7.971zm14.604.406c5.786 0 5.786-8.784 0-8.784s-5.786 8.784 0 8.784zm14.604.366c6.268 0 6.268-9.516 0-9.516-6.269 0-6.269 9.516 0 9.516zm14.603.326c6.697 0 6.697-10.167 0-10.167s-6.697 10.167 0 10.167zm14.604.285c7.072 0 7.072-10.737 0-10.737s-7.072 10.737 0 10.737zm14.604.203c7.34 0 7.34-11.143 0-11.143-7.341 0-7.341 11.143 0 11.143zm14.603.122c7.501 0 7.501-11.387 0-11.387s-7.501 11.387 0 11.387zm14.604.041c7.555 0 7.555-11.469 0-11.469-7.554 0-7.554 11.469 0 11.469zm14.603-.041c7.501 0 7.501-11.387 0-11.387-7.5 0-7.5 11.387 0 11.387zm14.604-.122c7.34 0 7.34-11.143 0-11.143s-7.34 11.143 0 11.143zm14.604-.203c7.072 0 7.072-10.737 0-10.737s-7.072 10.737 0 10.737zm14.603-.245c6.751 0 6.751-10.248 0-10.248-6.75 0-6.75 10.248 0 10.248zm14.604-.325c6.322 0 6.322-9.597 0-9.597s-6.322 9.597 0 9.597zm14.604-.366c5.84 0 5.84-8.865 0-8.865s-5.84 8.865 0 8.865zm14.604-.407c5.304 0 5.304-8.052 0-8.052-5.305 0-5.305 8.052 0 8.052zm14.603-.406c4.769 0 4.769-7.239 0-7.239-4.768 0-4.768 7.239 0 7.239zm14.604-.448c4.179 0 4.179-6.344 0-6.344s-4.179 6.344 0 6.344zm14.603-.447c3.59 0 3.59-5.449 0-5.449-3.589 0-3.589 5.449 0 5.449zm14.604-.488c2.947 0 2.947-4.473 0-4.473s-2.947 4.473 0 4.473zm14.604-.488c2.303 0 2.303-3.497 0-3.497-2.304 0-2.304 3.497 0 3.497zm14.603-.488c1.661 0 1.661-2.521 0-2.521s-1.661 2.521 0 2.521zm14.604-.488c1.018 0 1.018-1.545 0-1.545s-1.018 1.545 0 1.545zm14.603-.488c.376 0 .376-.569 0-.569-.374 0-.374.569 0 .569zm-452.712 14.422c.053 0 .053-.081 0-.081-.054 0-.054.081 0 .081zm14.603.366c.536 0 .536-.814 0-.814-.535 0-.535.814 0 .814zm14.604.529c1.232 0 1.232-1.871 0-1.871-1.233 0-1.233 1.871 0 1.871zm14.603.528c1.929 0 1.929-2.928 0-2.928-1.928 0-1.928 2.928 0 2.928zm14.604.488c2.572 0 2.572-3.904 0-3.904s-2.572 3.904 0 3.904zm14.604.488c3.215 0 3.215-4.88 0-4.88s-3.215 4.88 0 4.88zm14.603.488c3.858 0 3.858-5.856 0-5.856-3.857 0-3.857 5.856 0 5.856zm14.604.488c4.501 0 4.501-6.832 0-6.832s-4.501 6.832 0 6.832zm14.604.448c5.089 0 5.089-7.727 0-7.727-5.09 0-5.09 7.727 0 7.727zm14.603.447c5.679 0 5.679-8.622 0-8.622s-5.679 8.622 0 8.622zm14.604.447c6.269 0 6.269-9.516 0-9.516s-6.269 9.516 0 9.516zm14.604.407c6.804 0 6.804-10.33 0-10.33-6.805 0-6.805 10.33 0 10.33zm14.603.366c7.287 0 7.287-11.062 0-11.062-7.286 0-7.286 11.062 0 11.062zm14.604.325c7.715 0 7.715-11.712 0-11.712s-7.715 11.712 0 11.712zm14.604.244c8.036 0 8.036-12.2 0-12.2-8.037 0-8.037 12.2 0 12.2zm14.603.163c8.251 0 8.251-12.526 0-12.526s-8.251 12.526 0 12.526zm14.604.041c8.304 0 8.304-12.607 0-12.607-8.305 0-8.305 12.607 0 12.607zm14.603-.041c8.251 0 8.251-12.526 0-12.526s-8.251 12.526 0 12.526zm14.604-.163c8.037 0 8.037-12.2 0-12.2-8.036 0-8.036 12.2 0 12.2zm14.604-.244c7.715 0 7.715-11.712 0-11.712s-7.715 11.712 0 11.712zm14.603-.284c7.341 0 7.341-11.143 0-11.143-7.339 0-7.339 11.143 0 11.143zm14.604-.366c6.858 0 6.858-10.411 0-10.411s-6.858 10.411 0 10.411zm14.604-.407c6.322 0 6.322-9.598 0-9.598s-6.322 9.598 0 9.598zm14.604-.447c5.732 0 5.732-8.703 0-8.703-5.733 0-5.733 8.703 0 8.703zm14.603-.448c5.144 0 5.144-7.808 0-7.808-5.143 0-5.143 7.808 0 7.808zm14.604-.447c4.554 0 4.554-6.914 0-6.914s-4.554 6.914 0 6.914zm14.603-.488c3.912 0 3.912-5.938 0-5.938-3.911 0-3.911 5.938 0 5.938zm14.604-.488c3.268 0 3.268-4.962 0-4.962s-3.268 4.962 0 4.962zm14.604-.488c2.625 0 2.625-3.986 0-3.986-2.626 0-2.626 3.986 0 3.986zm14.603-.488c1.983 0 1.983-3.009 0-3.009-1.982 0-1.982 3.009 0 3.009zm14.604-.529c1.286 0 1.286-1.952 0-1.952s-1.286 1.952 0 1.952zm14.603-.529c.59 0 .59-.894 0-.894-.589 0-.589.894 0 .894zm14.604-.406c.054 0 .054-.081 0-.081-.053 0-.053.081 0 .081zm-467.316 14.706c.107 0 .107-.162 0-.162-.108 0-.108.162 0 .162zm14.603.488c.75 0 .75-1.138 0-1.138s-.75 1.138 0 1.138zm14.604.529c1.446 0 1.446-2.196 0-2.196-1.447 0-1.447 2.196 0 2.196zm14.603.529c2.144 0 2.144-3.254 0-3.254-2.143 0-2.143 3.254 0 3.254zm14.604.528c2.84 0 2.84-4.31 0-4.31s-2.84 4.31 0 4.31zm14.604.488c3.482 0 3.482-5.286 0-5.286-3.483 0-3.483 5.286 0 5.286zm14.603.529c4.179 0 4.179-6.344 0-6.344s-4.179 6.344 0 6.344zm14.604.488c4.822 0 4.822-7.32 0-7.32s-4.822 7.32 0 7.32zm14.604.488c5.465 0 5.465-8.296 0-8.296s-5.465 8.296 0 8.296zm14.603.488c6.108 0 6.108-9.272 0-9.272-6.107 0-6.107 9.272 0 9.272zm14.604.448c6.697 0 6.697-10.167 0-10.167s-6.697 10.167 0 10.167zm14.604.447c7.286 0 7.286-11.062 0-11.062-7.287 0-7.287 11.062 0 11.062zm14.603.407c7.823 0 7.823-11.876 0-11.876-7.822 0-7.822 11.876 0 11.876zm14.604.366c8.304 0 8.304-12.608 0-12.608-8.305 0-8.305 12.608 0 12.608zm14.604.284c8.679 0 8.679-13.176 0-13.176-8.68 0-8.68 13.176 0 13.176zm14.603.204c8.948 0 8.948-13.584 0-13.584-8.947 0-8.947 13.584 0 13.584zm14.604.081c9.055 0 9.055-13.746 0-13.746s-9.055 13.746 0 13.746zm14.603-.081c8.948 0 8.948-13.584 0-13.584-8.947 0-8.947 13.584 0 13.584zm14.604-.204c8.68 0 8.68-13.176 0-13.176-8.679 0-8.679 13.176 0 13.176zm14.604-.284c8.304 0 8.304-12.608 0-12.608-8.305 0-8.305 12.608 0 12.608zm14.603-.326c7.876 0 7.876-11.956 0-11.956-7.875 0-7.875 11.956 0 11.956zm14.604-.406c7.34 0 7.34-11.143 0-11.143s-7.34 11.143 0 11.143zm14.604-.448c6.751 0 6.751-10.248 0-10.248s-6.751 10.248 0 10.248zm14.604-.447c6.161 0 6.161-9.354 0-9.354-6.162 0-6.162 9.354 0 9.354zm14.603-.488c5.518 0 5.518-8.378 0-8.378s-5.518 8.378 0 8.378zm14.604-.488c4.875 0 4.875-7.402 0-7.402-4.876 0-4.876 7.402 0 7.402zm14.603-.488c4.233 0 4.233-6.426 0-6.426-4.232 0-4.232 6.426 0 6.426zM749.62 565c3.536 0 3.536-5.368 0-5.368s-3.536 5.368 0 5.368zm14.604-.488c2.893 0 2.893-4.392 0-4.392-2.894 0-2.894 4.392 0 4.392zm14.603-.528c2.197 0 2.197-3.335 0-3.335-2.196 0-2.196 3.335 0 3.335zm14.604-.529c1.5 0 1.5-2.278 0-2.278s-1.5 2.278 0 2.278zm14.603-.529c.804 0 .804-1.22 0-1.22-.803 0-.803 1.22 0 1.22zm14.604-.488c.161 0 .161-.244 0-.244s-.161.244 0 .244zm-467.316 14.707c.214 0 .214-.326 0-.326-.215 0-.215.326 0 .326zm14.603.528c.911 0 .911-1.382 0-1.382s-.911 1.382 0 1.382zm14.604.529c1.607 0 1.607-2.44 0-2.44-1.608 0-1.608 2.44 0 2.44zm14.603.569c2.358 0 2.358-3.578 0-3.578-2.357 0-2.357 3.578 0 3.578zm14.604.529c3.054 0 3.054-4.636 0-4.636s-3.054 4.636 0 4.636zm14.604.488c3.697 0 3.697-5.612 0-5.612s-3.697 5.612 0 5.612zm14.603.529c4.394 0 4.394-6.67 0-6.67-4.393 0-4.393 6.67 0 6.67zm14.604.528c5.09 0 5.09-7.726 0-7.726s-5.09 7.726 0 7.726zm14.604.488c5.733 0 5.733-8.702 0-8.702s-5.733 8.702 0 8.702zm14.603.529c6.43 0 6.43-9.76 0-9.76-6.429 0-6.429 9.76 0 9.76zm14.604.488c7.072 0 7.072-10.736 0-10.736s-7.072 10.736 0 10.736zm14.604.488c7.715 0 7.715-11.712 0-11.712-7.716 0-7.716 11.712 0 11.712zm14.603.448c8.305 0 8.305-12.608 0-12.608-8.304 0-8.304 12.608 0 12.608zm14.604.406c8.84 0 8.84-13.42 0-13.42s-8.84 13.42 0 13.42zm14.604.366c9.322 0 9.322-14.152 0-14.152-9.323 0-9.323 14.152 0 14.152zm14.603.204c9.591 0 9.591-14.56 0-14.56-9.59 0-9.59 14.56 0 14.56zm14.604.122c9.751 0 9.751-14.804 0-14.804s-9.751 14.804 0 14.804zm14.603-.082c9.644 0 9.644-14.64 0-14.64-9.643 0-9.643 14.64 0 14.64zm14.604-.244c9.323 0 9.323-14.152 0-14.152-9.322 0-9.322 14.152 0 14.152zm14.604-.325c8.894 0 8.894-13.502 0-13.502s-8.894 13.502 0 13.502zm14.603-.407c8.359 0 8.359-12.688 0-12.688-8.358 0-8.358 12.688 0 12.688zm14.604-.488c7.715 0 7.715-11.712 0-11.712s-7.715 11.712 0 11.712zm14.604-.447c7.126 0 7.126-10.818 0-10.818s-7.126 10.818 0 10.818zm14.604-.488c6.482 0 6.482-9.842 0-9.842-6.483 0-6.483 9.842 0 9.842zm14.603-.529c5.786 0 5.786-8.784 0-8.784s-5.786 8.784 0 8.784zm14.604-.488c5.143 0 5.143-7.808 0-7.808-5.144 0-5.144 7.808 0 7.808zm14.603-.529c4.447 0 4.447-6.751 0-6.751-4.446 0-4.446 6.751 0 6.751zm14.604-.528c3.75 0 3.75-5.694 0-5.694-3.751 0-3.751 5.694 0 5.694zm14.604-.488c3.107 0 3.107-4.718 0-4.718-3.108 0-3.108 4.718 0 4.718zm14.603-.529c2.411 0 2.411-3.66 0-3.66s-2.411 3.66 0 3.66zm14.604-.569c1.661 0 1.661-2.522 0-2.522s-1.661 2.522 0 2.522zm14.603-.529c.965 0 .965-1.464 0-1.464-.964 0-.964 1.464 0 1.464zm14.604-.529c.268 0 .268-.406 0-.406s-.268.406 0 .406zm-467.316 14.707c.321 0 .321-.488 0-.488-.322 0-.322.488 0 .488zm14.603.529c1.018 0 1.018-1.546 0-1.546s-1.018 1.546 0 1.546zm14.604.569c1.768 0 1.768-2.684 0-2.684s-1.768 2.684 0 2.684zm14.603.529c2.465 0 2.465-3.742 0-3.742-2.464 0-2.464 3.742 0 3.742zm14.604.528c3.161 0 3.161-4.799 0-4.799s-3.161 4.799 0 4.799zm14.604.529c3.857 0 3.857-5.856 0-5.856-3.858 0-3.858 5.856 0 5.856zm14.603.529c4.555 0 4.555-6.914 0-6.914-4.554 0-4.554 6.914 0 6.914zm14.604.528c5.251 0 5.251-7.971 0-7.971s-5.251 7.971 0 7.971zm14.604.529c5.947 0 5.947-9.028 0-9.028s-5.947 9.028 0 9.028zm14.603.529c6.644 0 6.644-10.086 0-10.086-6.643 0-6.643 10.086 0 10.086zm14.604.528c7.34 0 7.34-11.143 0-11.143s-7.34 11.143 0 11.143zm14.604.529c8.036 0 8.036-12.2 0-12.2-8.037 0-8.037 12.2 0 12.2zm14.603.488c8.68 0 8.68-13.176 0-13.176-8.679 0-8.679 13.176 0 13.176zm14.604.488c9.322 0 9.322-14.152 0-14.152-9.323 0-9.323 14.152 0 14.152zm14.604.407c9.858 0 9.858-14.966 0-14.966-9.859 0-9.859 14.966 0 14.966zm14.603.325c10.287 0 10.287-15.616 0-15.616s-10.287 15.616 0 15.616zm14.604.122c10.447 0 10.447-15.86 0-15.86-10.448 0-10.448 15.86 0 15.86zm14.603-.122c10.288 0 10.288-15.616 0-15.616-10.286 0-10.286 15.616 0 15.616zm14.604-.284c9.912 0 9.912-15.048 0-15.048s-9.912 15.048 0 15.048zm14.604-.448c9.322 0 9.322-14.152 0-14.152-9.323 0-9.323 14.152 0 14.152zm14.603-.447c8.734 0 8.734-13.258 0-13.258-8.733 0-8.733 13.258 0 13.258zm14.604-.488c8.09 0 8.09-12.282 0-12.282s-8.09 12.282 0 12.282zm14.604-.529c7.393 0 7.393-11.224 0-11.224-7.394 0-7.394 11.224 0 11.224zm14.604-.529c6.697 0 6.697-10.167 0-10.167-6.698 0-6.698 10.167 0 10.167zm14.603-.528c6.001 0 6.001-9.11 0-9.11s-6.001 9.11 0 9.11zm14.604-.529c5.304 0 5.304-8.052 0-8.052s-5.304 8.052 0 8.052zm14.603-.529c4.608 0 4.608-6.994 0-6.994-4.607 0-4.607 6.994 0 6.994zm14.604-.528c3.911 0 3.911-5.938 0-5.938s-3.911 5.938 0 5.938zm14.604-.529c3.214 0 3.214-4.88 0-4.88-3.215 0-3.215 4.88 0 4.88zm14.603-.529c2.518 0 2.518-3.822 0-3.822s-2.518 3.822 0 3.822zm14.604-.528c1.822 0 1.822-2.766 0-2.766s-1.822 2.766 0 2.766zm14.603-.57c1.072 0 1.072-1.627 0-1.627-1.071 0-1.071 1.627 0 1.627zm14.604-.528c.376 0 .376-.57 0-.57-.375 0-.375.57 0 .57zm-467.316 14.666c.375 0 .375-.57 0-.57-.376 0-.376.57 0 .57zm14.603.569c1.125 0 1.125-1.708 0-1.708s-1.125 1.708 0 1.708zm14.604.528c1.821 0 1.821-2.765 0-2.765-1.822 0-1.822 2.765 0 2.765zm14.603.57c2.572 0 2.572-3.904 0-3.904-2.571 0-2.571 3.904 0 3.904zm14.604.529c3.268 0 3.268-4.962 0-4.962s-3.268 4.962 0 4.962zm14.604.528c3.964 0 3.964-6.019 0-6.019-3.965 0-3.965 6.019 0 6.019zm14.603.529c4.662 0 4.662-7.076 0-7.076-4.661 0-4.661 7.076 0 7.076zm14.604.529c5.358 0 5.358-8.134 0-8.134s-5.358 8.134 0 8.134zm14.604.569c6.108 0 6.108-9.272 0-9.272s-6.108 9.272 0 9.272zm14.603.529c6.805 0 6.805-10.33 0-10.33-6.804 0-6.804 10.33 0 10.33zm14.604.528c7.501 0 7.501-11.387 0-11.387s-7.501 11.387 0 11.387zm14.604.57c8.251 0 8.251-12.526 0-12.526s-8.251 12.526 0 12.526zm14.603.528c8.948 0 8.948-13.583 0-13.583-8.947 0-8.947 13.583 0 13.583zm14.604.488c9.59 0 9.59-14.559 0-14.559s-9.59 14.559 0 14.559zm14.604.529c10.286 0 10.286-15.616 0-15.616-10.287 0-10.287 15.616 0 15.616zm14.603.447c10.876 0 10.876-16.511 0-16.511s-10.876 16.511 0 16.511zm14.604.204c11.144 0 11.144-16.918 0-16.918s-11.144 16.918 0 16.918zm14.603-.163c10.93 0 10.93-16.592 0-16.592-10.929 0-10.929 16.592 0 16.592zm14.604-.447c10.341 0 10.341-15.698 0-15.698-10.34 0-10.34 15.698 0 15.698zm14.604-.529c9.644 0 9.644-14.64 0-14.64s-9.644 14.64 0 14.64zm14.603-.488c9.001 0 9.001-13.664 0-13.664-9 0-9 13.664 0 13.664zm14.604-.529c8.305 0 8.305-12.607 0-12.607-8.304 0-8.304 12.607 0 12.607zm14.604-.569c7.554 0 7.554-11.468 0-11.468-7.555 0-7.555 11.468 0 11.468zm14.604-.529c6.857 0 6.857-10.411 0-10.411-6.858 0-6.858 10.411 0 10.411zm14.603-.528c6.162 0 6.162-9.354 0-9.354-6.161 0-6.161 9.354 0 9.354zm14.604-.57c5.411 0 5.411-8.215 0-8.215-5.412 0-5.412 8.215 0 8.215zm14.603-.528c4.715 0 4.715-7.158 0-7.158s-4.715 7.158 0 7.158zm14.604-.529c4.018 0 4.018-6.1 0-6.1s-4.018 6.1 0 6.1zm14.604-.529c3.322 0 3.322-5.043 0-5.043s-3.322 5.043 0 5.043zm14.603-.528c2.625 0 2.625-3.986 0-3.986s-2.625 3.986 0 3.986zm14.604-.57c1.875 0 1.875-2.847 0-2.847s-1.875 2.847 0 2.847zm14.603-.529c1.179 0 1.179-1.789 0-1.789-1.178 0-1.178 1.789 0 1.789zm14.604-.569c.429 0 .429-.651 0-.651-.428 0-.428.651 0 .651zm-467.316 14.666c.428 0 .428-.651 0-.651-.429 0-.429.651 0 .651zm14.603.529c1.125 0 1.125-1.708 0-1.708s-1.125 1.708 0 1.708zm14.604.569c1.875 0 1.875-2.847 0-2.847s-1.875 2.847 0 2.847zm14.603.529c2.572 0 2.572-3.904 0-3.904-2.571 0-2.571 3.904 0 3.904zm14.604.569c3.322 0 3.322-5.043 0-5.043s-3.322 5.043 0 5.043zm14.604.529c4.018 0 4.018-6.1 0-6.1-4.019 0-4.019 6.1 0 6.1zm14.603.528c4.715 0 4.715-7.157 0-7.157-4.714 0-4.714 7.157 0 7.157zm14.604.529c5.411 0 5.411-8.215 0-8.215s-5.411 8.215 0 8.215zm14.604.57c6.161 0 6.161-9.354 0-9.354-6.162 0-6.162 9.354 0 9.354zm14.603.528c6.858 0 6.858-10.411 0-10.411s-6.858 10.411 0 10.411zm14.604.529c7.554 0 7.554-11.468 0-11.468s-7.554 11.468 0 11.468zm14.604.569c8.304 0 8.304-12.607 0-12.607-8.305 0-8.305 12.607 0 12.607zm14.603.57c9.055 0 9.055-13.746 0-13.746-9.054 0-9.054 13.746 0 13.746zm14.604.528c9.751 0 9.751-14.803 0-14.803s-9.751 14.803 0 14.803zm14.604.529c10.447 0 10.447-15.861 0-15.861-10.448 0-10.448 15.861 0 15.861zm14.603.529c11.144 0 11.144-16.918 0-16.918s-11.144 16.918 0 16.918zm14.604.406c11.68 0 11.68-17.731 0-17.731s-11.68 17.731 0 17.731zm14.603-.366c11.198 0 11.198-16.999 0-16.999-11.197 0-11.197 16.999 0 16.999zm14.604-.528c10.501 0 10.501-15.942 0-15.942s-10.501 15.942 0 15.942zm14.604-.529c9.805 0 9.805-14.885 0-14.885s-9.805 14.885 0 14.885zm14.603-.569c9.055 0 9.055-13.746 0-13.746-9.054 0-9.054 13.746 0 13.746zm14.604-.529c8.358 0 8.358-12.689 0-12.689s-8.358 12.689 0 12.689zm14.604-.569c7.608 0 7.608-11.55 0-11.55s-7.608 11.55 0 11.55zm14.604-.529c6.911 0 6.911-10.492 0-10.492-6.912 0-6.912 10.492 0 10.492zm14.603-.529c6.215 0 6.215-9.435 0-9.435s-6.215 9.435 0 9.435zm14.604-.569c5.465 0 5.465-8.296 0-8.296s-5.465 8.296 0 8.296zm14.603-.529c4.769 0 4.769-7.239 0-7.239-4.768 0-4.768 7.239 0 7.239zm14.604-.529c4.072 0 4.072-6.181 0-6.181s-4.072 6.181 0 6.181zm14.604-.528c3.375 0 3.375-5.124 0-5.124-3.376 0-3.376 5.124 0 5.124zm14.603-.57c2.625 0 2.625-3.985 0-3.985s-2.625 3.985 0 3.985zm14.604-.528c1.929 0 1.929-2.928 0-2.928s-1.929 2.928 0 2.928zm14.603-.57c1.179 0 1.179-1.789 0-1.789-1.178 0-1.178 1.789 0 1.789zm14.604-.528c.483 0 .483-.732 0-.732-.482 0-.482.732 0 .732zm-467.316 14.625c.428 0 .428-.651 0-.651-.429 0-.429.651 0 .651zm14.603.529c1.125 0 1.125-1.708 0-1.708s-1.125 1.708 0 1.708zm14.604.528c1.821 0 1.821-2.765 0-2.765-1.822 0-1.822 2.765 0 2.765zm14.603.57c2.572 0 2.572-3.904 0-3.904-2.571 0-2.571 3.904 0 3.904zm14.604.528c3.268 0 3.268-4.961 0-4.961s-3.268 4.961 0 4.961zm14.604.529c3.964 0 3.964-6.019 0-6.019-3.965 0-3.965 6.019 0 6.019zm14.603.529c4.662 0 4.662-7.077 0-7.077-4.661 0-4.661 7.077 0 7.077zm14.604.569c5.411 0 5.411-8.215 0-8.215s-5.411 8.215 0 8.215zm14.604.529c6.108 0 6.108-9.273 0-9.273s-6.108 9.273 0 9.273zm14.603.528c6.805 0 6.805-10.329 0-10.329-6.804 0-6.804 10.329 0 10.329zm14.604.529c7.501 0 7.501-11.387 0-11.387s-7.501 11.387 0 11.387zm14.604.57c8.251 0 8.251-12.526 0-12.526s-8.251 12.526 0 12.526zm14.603.528c8.948 0 8.948-13.583 0-13.583-8.947 0-8.947 13.583 0 13.583zm14.604.529c9.644 0 9.644-14.641 0-14.641s-9.644 14.641 0 14.641zm14.604.488c10.286 0 10.286-15.617 0-15.617-10.287 0-10.287 15.617 0 15.617zm14.603.488c10.93 0 10.93-16.593 0-16.593s-10.93 16.593 0 16.593zm14.604.203c11.198 0 11.198-16.999 0-16.999s-11.198 16.999 0 16.999zm14.603-.203c10.93 0 10.93-16.593 0-16.593-10.929 0-10.929 16.593 0 16.593zm14.604-.447c10.341 0 10.341-15.698 0-15.698-10.34 0-10.34 15.698 0 15.698zm14.604-.489c9.698 0 9.698-14.721 0-14.721s-9.698 14.721 0 14.721zm14.603-.528c9.001 0 9.001-13.665 0-13.665-9 0-9 13.665 0 13.665zm14.604-.529c8.305 0 8.305-12.607 0-12.607-8.304 0-8.304 12.607 0 12.607zm14.604-.529c7.608 0 7.608-11.549 0-11.549s-7.608 11.549 0 11.549zm14.604-.569c6.857 0 6.857-10.411 0-10.411-6.858 0-6.858 10.411 0 10.411zm14.603-.529c6.162 0 6.162-9.353 0-9.353-6.161 0-6.161 9.353 0 9.353zm14.604-.528c5.465 0 5.465-8.297 0-8.297s-5.465 8.297 0 8.297zm14.603-.57c4.715 0 4.715-7.157 0-7.157s-4.715 7.157 0 7.157zm14.604-.528c4.018 0 4.018-6.1 0-6.1s-4.018 6.1 0 6.1zm14.604-.529c3.322 0 3.322-5.043 0-5.043s-3.322 5.043 0 5.043zm14.603-.529c2.625 0 2.625-3.985 0-3.985s-2.625 3.985 0 3.985zm14.604-.569c1.875 0 1.875-2.847 0-2.847s-1.875 2.847 0 2.847zm14.603-.529c1.179 0 1.179-1.789 0-1.789-1.178 0-1.178 1.789 0 1.789zm14.604-.569c.429 0 .429-.651 0-.651-.428 0-.428.651 0 .651zm-467.316 14.584c.321 0 .321-.488 0-.488-.322 0-.322.488 0 .488zm14.603.57c1.072 0 1.072-1.627 0-1.627s-1.072 1.627 0 1.627zm14.604.529c1.768 0 1.768-2.685 0-2.685s-1.768 2.685 0 2.685zm14.603.528c2.465 0 2.465-3.741 0-3.741-2.464 0-2.464 3.741 0 3.741zm14.604.57c3.215 0 3.215-4.881 0-4.881-3.214 0-3.214 4.881 0 4.881zm14.604.528c3.911 0 3.911-5.937 0-5.937-3.912 0-3.912 5.937 0 5.937zm14.603.529c4.608 0 4.608-6.995 0-6.995-4.607 0-4.607 6.995 0 6.995zm14.604.529c5.304 0 5.304-8.053 0-8.053s-5.304 8.053 0 8.053zm14.604.488c5.947 0 5.947-9.029 0-9.029s-5.947 9.029 0 9.029zm14.603.528c6.644 0 6.644-10.085 0-10.085-6.643 0-6.643 10.085 0 10.085zm14.604.529c7.34 0 7.34-11.143 0-11.143s-7.34 11.143 0 11.143zm14.604.529c8.036 0 8.036-12.201 0-12.201-8.037 0-8.037 12.201 0 12.201zm14.603.488c8.68 0 8.68-13.177 0-13.177-8.679 0-8.679 13.177 0 13.177zm14.604.488c9.322 0 9.322-14.153 0-14.153-9.323 0-9.323 14.153 0 14.153zm14.604.447c9.911 0 9.911-15.047 0-15.047-9.912 0-9.912 15.047 0 15.047zm14.603.325c10.341 0 10.341-15.697 0-15.697-10.34 0-10.34 15.697 0 15.697zm14.604.122c10.501 0 10.501-15.942 0-15.942s-10.501 15.942 0 15.942zm14.603-.122c10.341 0 10.341-15.697 0-15.697-10.34 0-10.34 15.697 0 15.697zm14.604-.325c9.912 0 9.912-15.047 0-15.047s-9.912 15.047 0 15.047zm14.604-.407c9.376 0 9.376-14.233 0-14.233s-9.376 14.233 0 14.233zm14.603-.488c8.734 0 8.734-13.257 0-13.257-8.733 0-8.733 13.257 0 13.257zm14.604-.488c8.09 0 8.09-12.281 0-12.281s-8.09 12.281 0 12.281zm14.604-.528c7.393 0 7.393-11.225 0-11.225-7.394 0-7.394 11.225 0 11.225zm14.604-.529c6.697 0 6.697-10.167 0-10.167-6.698 0-6.698 10.167 0 10.167zm14.603-.529c6.001 0 6.001-9.109 0-9.109s-6.001 9.109 0 9.109zm14.604-.528c5.304 0 5.304-8.053 0-8.053s-5.304 8.053 0 8.053zm14.603-.488c4.662 0 4.662-7.077 0-7.077-4.661 0-4.661 7.077 0 7.077zm14.604-.529c3.965 0 3.965-6.019 0-6.019s-3.965 6.019 0 6.019zm14.604-.529c3.268 0 3.268-4.961 0-4.961s-3.268 4.961 0 4.961zm14.603-.569c2.518 0 2.518-3.823 0-3.823s-2.518 3.823 0 3.823zm14.604-.529c1.822 0 1.822-2.765 0-2.765s-1.822 2.765 0 2.765zm14.603-.528c1.126 0 1.126-1.708 0-1.708-1.124 0-1.124 1.708 0 1.708zm14.604-.57c.376 0 .376-.569 0-.569-.375 0-.375.569 0 .569zm-467.316 14.585c.267 0 .267-.407 0-.407-.268 0-.268.407 0 .407zm14.603.488c.911 0 .911-1.383 0-1.383s-.911 1.383 0 1.383zm14.604.569c1.661 0 1.661-2.521 0-2.521s-1.661 2.521 0 2.521zm14.603.529c2.358 0 2.358-3.579 0-3.579-2.357 0-2.357 3.579 0 3.579zm14.604.528c3.054 0 3.054-4.636 0-4.636s-3.054 4.636 0 4.636zm14.604.529c3.75 0 3.75-5.693 0-5.693-3.751 0-3.751 5.693 0 5.693zm14.603.488c4.394 0 4.394-6.669 0-6.669-4.393 0-4.393 6.669 0 6.669zm14.604.529c5.09 0 5.09-7.727 0-7.727s-5.09 7.727 0 7.727zm14.604.528c5.786 0 5.786-8.784 0-8.784-5.787 0-5.787 8.784 0 8.784zm14.603.489c6.43 0 6.43-9.761 0-9.761-6.429 0-6.429 9.761 0 9.761zm14.604.488c7.072 0 7.072-10.737 0-10.737s-7.072 10.737 0 10.737zm14.604.488c7.715 0 7.715-11.713 0-11.713-7.716 0-7.716 11.713 0 11.713zm14.603.447c8.305 0 8.305-12.607 0-12.607-8.304 0-8.304 12.607 0 12.607zm14.604.447c8.894 0 8.894-13.502 0-13.502s-8.894 13.502 0 13.502zm14.604.326c9.322 0 9.322-14.153 0-14.153-9.323 0-9.323 14.153 0 14.153zm14.603.244c9.644 0 9.644-14.641 0-14.641s-9.644 14.641 0 14.641zm14.604.122c9.804 0 9.804-14.885 0-14.885-9.805 0-9.805 14.885 0 14.885zm14.603-.082c9.698 0 9.698-14.721 0-14.721-9.697 0-9.697 14.721 0 14.721zm14.604-.244c9.376 0 9.376-14.234 0-14.234s-9.376 14.234 0 14.234zm14.604-.325c8.947 0 8.947-13.583 0-13.583-8.948 0-8.948 13.583 0 13.583zm14.603-.447c8.359 0 8.359-12.689 0-12.689-8.358 0-8.358 12.689 0 12.689zm14.604-.448c7.769 0 7.769-11.794 0-11.794-7.768 0-7.768 11.794 0 11.794zm14.604-.488c7.126 0 7.126-10.818 0-10.818s-7.126 10.818 0 10.818zm14.604-.488c6.482 0 6.482-9.841 0-9.841-6.483 0-6.483 9.841 0 9.841zm14.603-.529c5.786 0 5.786-8.784 0-8.784s-5.786 8.784 0 8.784zm14.604-.487c5.143 0 5.143-7.809 0-7.809-5.144 0-5.144 7.809 0 7.809zm14.603-.529c4.447 0 4.447-6.751 0-6.751-4.446 0-4.446 6.751 0 6.751zm14.604-.488c3.804 0 3.804-5.775 0-5.775s-3.804 5.775 0 5.775zm14.604-.529c3.107 0 3.107-4.717 0-4.717-3.108 0-3.108 4.717 0 4.717zm14.603-.529c2.411 0 2.411-3.66 0-3.66s-2.411 3.66 0 3.66zm14.604-.528c1.714 0 1.714-2.603 0-2.603s-1.714 2.603 0 2.603zm14.603-.57c.965 0 .965-1.464 0-1.464-.964 0-.964 1.464 0 1.464zm14.604-.528c.268 0 .268-.407 0-.407s-.268.407 0 .407zm-467.316 14.584c.16 0 .16-.244 0-.244-.161 0-.161.244 0 .244zm14.603.448c.75 0 .75-1.139 0-1.139s-.75 1.139 0 1.139zm14.604.528c1.446 0 1.446-2.196 0-2.196-1.447 0-1.447 2.196 0 2.196zm14.603.529c2.144 0 2.144-3.253 0-3.253-2.143 0-2.143 3.253 0 3.253zm14.604.529c2.84 0 2.84-4.311 0-4.311s-2.84 4.311 0 4.311zm14.604.528c3.536 0 3.536-5.368 0-5.368s-3.536 5.368 0 5.368zm14.603.488c4.179 0 4.179-6.344 0-6.344s-4.179 6.344 0 6.344zm14.604.488c4.822 0 4.822-7.32 0-7.32s-4.822 7.32 0 7.32zm14.604.488c5.465 0 5.465-8.296 0-8.296s-5.465 8.296 0 8.296zm14.603.488c6.108 0 6.108-9.272 0-9.272-6.107 0-6.107 9.272 0 9.272zm14.604.489c6.751 0 6.751-10.249 0-10.249s-6.751 10.249 0 10.249zm14.604.447c7.34 0 7.34-11.143 0-11.143s-7.34 11.143 0 11.143zm14.603.407c7.876 0 7.876-11.957 0-11.957-7.875 0-7.875 11.957 0 11.957zm14.604.366c8.358 0 8.358-12.689 0-12.689s-8.358 12.689 0 12.689zm14.604.284c8.733 0 8.733-13.258 0-13.258-8.734 0-8.734 13.258 0 13.258zm14.603.204c9.001 0 9.001-13.665 0-13.665s-9.001 13.665 0 13.665zm14.604.04c9.055 0 9.055-13.746 0-13.746s-9.055 13.746 0 13.746zm14.603-.04c9.002 0 9.002-13.665 0-13.665-9.001 0-9.001 13.665 0 13.665zm14.604-.204c8.733 0 8.733-13.258 0-13.258s-8.733 13.258 0 13.258zm14.604-.284c8.358 0 8.358-12.689 0-12.689s-8.358 12.689 0 12.689zm14.603-.366c7.876 0 7.876-11.957 0-11.957-7.875 0-7.875 11.957 0 11.957zm14.604-.407c7.34 0 7.34-11.143 0-11.143s-7.34 11.143 0 11.143zm14.604-.447c6.751 0 6.751-10.249 0-10.249s-6.751 10.249 0 10.249zm14.604-.448c6.161 0 6.161-9.354 0-9.354-6.162 0-6.162 9.354 0 9.354zm14.603-.488c5.518 0 5.518-8.378 0-8.378s-5.518 8.378 0 8.378zm14.604-.488c4.875 0 4.875-7.402 0-7.402-4.876 0-4.876 7.402 0 7.402zm14.603-.488c4.233 0 4.233-6.426 0-6.426-4.232 0-4.232 6.426 0 6.426zm14.604-.488c3.59 0 3.59-5.449 0-5.449s-3.59 5.449 0 5.449zm14.604-.529c2.893 0 2.893-4.392 0-4.392-2.894 0-2.894 4.392 0 4.392zm14.603-.528c2.197 0 2.197-3.335 0-3.335-2.196 0-2.196 3.335 0 3.335zm14.604-.529c1.5 0 1.5-2.277 0-2.277s-1.5 2.277 0 2.277zm14.603-.529c.804 0 .804-1.22 0-1.22-.803 0-.803 1.22 0 1.22zm14.604-.488c.161 0 .161-.244 0-.244s-.161.244 0 .244zM355.322 694.35c.053 0 .053-.081 0-.081-.054 0-.054.081 0 .081zm14.603.407c.589 0 .589-.895 0-.895s-.589.895 0 .895zm14.604.488c1.232 0 1.232-1.871 0-1.871-1.233 0-1.233 1.871 0 1.871zm14.603.528c1.929 0 1.929-2.928 0-2.928-1.928 0-1.928 2.928 0 2.928zm14.604.529c2.625 0 2.625-3.986 0-3.986s-2.625 3.986 0 3.986zm14.604.488c3.268 0 3.268-4.962 0-4.962s-3.268 4.962 0 4.962zm14.603.488c3.911 0 3.911-5.938 0-5.938s-3.911 5.938 0 5.938zm14.604.447c4.501 0 4.501-6.832 0-6.832s-4.501 6.832 0 6.832zm14.604.488c5.143 0 5.143-7.808 0-7.808-5.144 0-5.144 7.808 0 7.808zm14.603.448c5.733 0 5.733-8.703 0-8.703s-5.733 8.703 0 8.703zm14.604.447c6.322 0 6.322-9.598 0-9.598s-6.322 9.598 0 9.598zm14.604.407c6.858 0 6.858-10.411 0-10.411s-6.858 10.411 0 10.411zm14.603.366c7.341 0 7.341-11.143 0-11.143-7.34 0-7.34 11.143 0 11.143zm14.604.284c7.715 0 7.715-11.712 0-11.712s-7.715 11.712 0 11.712zm14.604.285c8.09 0 8.09-12.282 0-12.282s-8.09 12.282 0 12.282zm14.603.163c8.305 0 8.305-12.607 0-12.607-8.304 0-8.304 12.607 0 12.607zm14.604.04c8.358 0 8.358-12.688 0-12.688s-8.358 12.688 0 12.688zm14.603-.04c8.305 0 8.305-12.607 0-12.607-8.304 0-8.304 12.607 0 12.607zm14.604-.163c8.09 0 8.09-12.282 0-12.282s-8.09 12.282 0 12.282zm14.604-.244c7.768 0 7.768-11.794 0-11.794-7.769 0-7.769 11.794 0 11.794zm14.603-.325c7.341 0 7.341-11.143 0-11.143-7.339 0-7.339 11.143 0 11.143zm14.604-.366c6.858 0 6.858-10.411 0-10.411s-6.858 10.411 0 10.411zm14.604-.407c6.322 0 6.322-9.598 0-9.598s-6.322 9.598 0 9.598zm14.604-.407c5.786 0 5.786-8.784 0-8.784-5.787 0-5.787 8.784 0 8.784zm14.603-.447c5.197 0 5.197-7.89 0-7.89s-5.197 7.89 0 7.89zm14.604-.488c4.554 0 4.554-6.914 0-6.914s-4.554 6.914 0 6.914zm14.603-.447c3.965 0 3.965-6.019 0-6.019-3.964 0-3.964 6.019 0 6.019zm14.604-.488c3.322 0 3.322-5.043 0-5.043s-3.322 5.043 0 5.043zm14.604-.529c2.625 0 2.625-3.986 0-3.986-2.626 0-2.626 3.986 0 3.986zm14.603-.488c1.983 0 1.983-3.01 0-3.01-1.982 0-1.982 3.01 0 3.01zm14.604-.529c1.286 0 1.286-1.952 0-1.952s-1.286 1.952 0 1.952zm14.603-.488c.644 0 .644-.976 0-.976-.642 0-.642.976 0 .976zm14.604-.447c.054 0 .054-.081 0-.081-.053 0-.053.081 0 .081zm-452.713 14.869c.322 0 .322-.488 0-.488-.321 0-.321.488 0 .488zm14.604.488c.964 0 .964-1.464 0-1.464s-.964 1.464 0 1.464zm14.603.529c1.661 0 1.661-2.522 0-2.522s-1.661 2.522 0 2.522zm14.604.488c2.304 0 2.304-3.498 0-3.498s-2.304 3.498 0 3.498zm14.604.488c2.947 0 2.947-4.474 0-4.474s-2.947 4.474 0 4.474zm14.603.447c3.536 0 3.536-5.368 0-5.368s-3.536 5.368 0 5.368zm14.604.488c4.179 0 4.179-6.344 0-6.344s-4.179 6.344 0 6.344zm14.604.407c4.714 0 4.714-7.158 0-7.158-4.715 0-4.715 7.158 0 7.158zm14.603.447c5.305 0 5.305-8.052 0-8.052-5.304 0-5.304 8.052 0 8.052zm14.604.407c5.84 0 5.84-8.866 0-8.866s-5.84 8.866 0 8.866zm14.604.366c6.322 0 6.322-9.598 0-9.598-6.323 0-6.323 9.598 0 9.598zm14.603.325c6.751 0 6.751-10.248 0-10.248s-6.751 10.248 0 10.248zm14.604.285c7.126 0 7.126-10.818 0-10.818s-7.126 10.818 0 10.818zm14.604.203c7.393 0 7.393-11.224 0-11.224-7.394 0-7.394 11.224 0 11.224zm14.603.122c7.554 0 7.554-11.468 0-11.468s-7.554 11.468 0 11.468zm14.604.041c7.608 0 7.608-11.55 0-11.55s-7.608 11.55 0 11.55zm14.603 0c7.609 0 7.609-11.55 0-11.55-7.607 0-7.607 11.55 0 11.55zm14.604-.163c7.394 0 7.394-11.224 0-11.224s-7.394 11.224 0 11.224zm14.604-.203c7.126 0 7.126-10.818 0-10.818s-7.126 10.818 0 10.818zm14.603-.285c6.751 0 6.751-10.248 0-10.248-6.75 0-6.75 10.248 0 10.248zm14.604-.325c6.322 0 6.322-9.598 0-9.598s-6.322 9.598 0 9.598zm14.604-.366c5.84 0 5.84-8.866 0-8.866s-5.84 8.866 0 8.866zm14.604-.366c5.357 0 5.357-8.134 0-8.134-5.358 0-5.358 8.134 0 8.134zm14.603-.447c4.769 0 4.769-7.239 0-7.239-4.768 0-4.768 7.239 0 7.239zm14.604-.407c4.232 0 4.232-6.426 0-6.426-4.233 0-4.233 6.426 0 6.426zm14.603-.488c3.59 0 3.59-5.45 0-5.45-3.589 0-3.589 5.45 0 5.45zm14.604-.448c3 0 3-4.554 0-4.554s-3 4.554 0 4.554zm14.604-.488c2.357 0 2.357-3.578 0-3.578-2.358 0-2.358 3.578 0 3.578zm14.603-.487c1.715 0 1.715-2.603 0-2.603-1.714 0-1.714 2.603 0 2.603zm14.604-.529c1.018 0 1.018-1.546 0-1.546s-1.018 1.546 0 1.546zm14.603-.488c.376 0 .376-.57 0-.57-.374 0-.374.57 0 .57zm-438.109 14.462c.107 0 .107-.162 0-.162s-.107.162 0 .162zm14.604.448c.697 0 .697-1.058 0-1.058s-.697 1.058 0 1.058zm14.603.488c1.34 0 1.34-2.034 0-2.034-1.339 0-1.339 2.034 0 2.034zm14.604.488c1.983 0 1.983-3.01 0-3.01-1.982 0-1.982 3.01 0 3.01zm14.604.447c2.571 0 2.571-3.904 0-3.904-2.572 0-2.572 3.904 0 3.904zm14.603.447c3.161 0 3.161-4.798 0-4.798s-3.161 4.798 0 4.798zm14.604.448c3.75 0 3.75-5.694 0-5.694s-3.75 5.694 0 5.694zm14.604.406c4.286 0 4.286-6.507 0-6.507s-4.286 6.507 0 6.507zm14.603.407c4.823 0 4.823-7.32 0-7.32-4.822 0-4.822 7.32 0 7.32zm14.604.366c5.304 0 5.304-8.052 0-8.052s-5.304 8.052 0 8.052zm14.604.325c5.733 0 5.733-8.703 0-8.703s-5.733 8.703 0 8.703zm14.603.326c6.162 0 6.162-9.354 0-9.354-6.161 0-6.161 9.354 0 9.354zm14.604.244c6.483 0 6.483-9.842 0-9.842s-6.483 9.842 0 9.842zm14.604.163c6.697 0 6.697-10.168 0-10.168s-6.697 10.168 0 10.168zm14.603.121c6.858 0 6.858-10.411 0-10.411s-6.858 10.411 0 10.411zm14.604.041c6.911 0 6.911-10.492 0-10.492-6.912 0-6.912 10.492 0 10.492zm14.603-.041c6.858 0 6.858-10.411 0-10.411s-6.858 10.411 0 10.411zm14.604-.121c6.698 0 6.698-10.168 0-10.168-6.697 0-6.697 10.168 0 10.168zm14.604-.163c6.483 0 6.483-9.842 0-9.842s-6.483 9.842 0 9.842zm14.603-.244c6.162 0 6.162-9.354 0-9.354-6.161 0-6.161 9.354 0 9.354zm14.604-.285c5.787 0 5.787-8.784 0-8.784-5.786 0-5.786 8.784 0 8.784zm14.604-.325c5.358 0 5.358-8.134 0-8.134s-5.358 8.134 0 8.134zm14.604-.366c4.875 0 4.875-7.402 0-7.402-4.876 0-4.876 7.402 0 7.402zm14.603-.407c4.34 0 4.34-6.588 0-6.588s-4.34 6.588 0 6.588zm14.604-.407c3.804 0 3.804-5.774 0-5.774s-3.804 5.774 0 5.774zm14.603-.447c3.215 0 3.215-4.88 0-4.88-3.214 0-3.214 4.88 0 4.88zm14.604-.447c2.625 0 2.625-3.986 0-3.986s-2.625 3.986 0 3.986zm14.604-.488c1.982 0 1.982-3.01 0-3.01s-1.982 3.01 0 3.01zm14.603-.448c1.393 0 1.393-2.114 0-2.114s-1.393 2.114 0 2.114zm14.604-.488c.75 0 .75-1.138 0-1.138s-.75 1.138 0 1.138zm14.603-.447c.161 0 .161-.244 0-.244-.16 0-.16.244 0 .244zm-423.505 14.829c.375 0 .375-.57 0-.57s-.375.57 0 .57zm14.603.447c.965 0 .965-1.464 0-1.464-.964 0-.964 1.464 0 1.464zm14.604.447c1.554 0 1.554-2.358 0-2.358-1.553 0-1.553 2.358 0 2.358zm14.604.488c2.196 0 2.196-3.334 0-3.334-2.197 0-2.197 3.334 0 3.334zm14.603.407c2.733 0 2.733-4.148 0-4.148-2.732 0-2.732 4.148 0 4.148zm14.604.407c3.268 0 3.268-4.962 0-4.962s-3.268 4.962 0 4.962zm14.604.406c3.804 0 3.804-5.775 0-5.775s-3.804 5.775 0 5.775zm14.603.366c4.286 0 4.286-6.507 0-6.507s-4.286 6.507 0 6.507zm14.604.366c4.768 0 4.768-7.239 0-7.239s-4.768 7.239 0 7.239zm14.604.285c5.143 0 5.143-7.808 0-7.808-5.144 0-5.144 7.808 0 7.808zm14.603.285c5.519 0 5.519-8.378 0-8.378-5.518 0-5.518 8.378 0 8.378zm14.604.203c5.786 0 5.786-8.784 0-8.784s-5.786 8.784 0 8.784zm14.604.163c6 0 6-9.11 0-9.11-6.001 0-6.001 9.11 0 9.11zm14.603.122c6.162 0 6.162-9.354 0-9.354-6.161 0-6.161 9.354 0 9.354zm14.604.04c6.215 0 6.215-9.435 0-9.435s-6.215 9.435 0 9.435zm14.603-.04c6.162 0 6.162-9.354 0-9.354-6.161 0-6.161 9.354 0 9.354zm14.604-.122c6.001 0 6.001-9.11 0-9.11s-6.001 9.11 0 9.11zm14.604-.163c5.786 0 5.786-8.784 0-8.784-5.787 0-5.787 8.784 0 8.784zm14.603-.203c5.519 0 5.519-8.378 0-8.378-5.518 0-5.518 8.378 0 8.378zm14.604-.244c5.197 0 5.197-7.89 0-7.89s-5.197 7.89 0 7.89zm14.604-.326c4.768 0 4.768-7.239 0-7.239-4.769 0-4.769 7.239 0 7.239zm14.604-.325c4.339 0 4.339-6.588 0-6.588-4.34 0-4.34 6.588 0 6.588zm14.603-.366c3.858 0 3.858-5.856 0-5.856-3.857 0-3.857 5.856 0 5.856zm14.604-.407c3.322 0 3.322-5.042 0-5.042s-3.322 5.042 0 5.042zm14.603-.406c2.786 0 2.786-4.23 0-4.23s-2.786 4.23 0 4.23zm14.604-.448c2.197 0 2.197-3.334 0-3.334s-2.197 3.334 0 3.334zm14.604-.447c1.607 0 1.607-2.44 0-2.44-1.608 0-1.608 2.44 0 2.44zm14.603-.447c1.018 0 1.018-1.546 0-1.546s-1.018 1.546 0 1.546zm14.604-.488c.375 0 .375-.57 0-.57s-.375.57 0 .57zm-408.902 14.462c.107 0 .107-.163 0-.163s-.107.163 0 .163zm14.603.366c.59 0 .59-.895 0-.895-.589 0-.589.895 0 .895zm14.604.448c1.179 0 1.179-1.79 0-1.79s-1.179 1.79 0 1.79zm14.604.406c1.714 0 1.714-2.603 0-2.603-1.715 0-1.715 2.603 0 2.603zm14.603.448c2.304 0 2.304-3.498 0-3.498-2.303 0-2.303 3.498 0 3.498zm14.604.366c2.786 0 2.786-4.23 0-4.23s-2.786 4.23 0 4.23zm14.604.406c3.321 0 3.321-5.043 0-5.043-3.322 0-3.322 5.043 0 5.043zm14.603.326c3.751 0 3.751-5.694 0-5.694-3.75 0-3.75 5.694 0 5.694zm14.604.325c4.179 0 4.179-6.344 0-6.344s-4.179 6.344 0 6.344zm14.604.285c4.554 0 4.554-6.914 0-6.914s-4.554 6.914 0 6.914zm14.603.244c4.876 0 4.876-7.402 0-7.402-4.875 0-4.875 7.402 0 7.402zm14.604.203c5.144 0 5.144-7.808 0-7.808s-5.144 7.808 0 7.808zm14.604.122c5.304 0 5.304-8.052 0-8.052s-5.304 8.052 0 8.052zm14.603.081c5.411 0 5.411-8.215 0-8.215s-5.411 8.215 0 8.215zm14.604.041c5.465 0 5.465-8.296 0-8.296s-5.465 8.296 0 8.296zm14.603 0c5.466 0 5.466-8.296 0-8.296-5.464 0-5.464 8.296 0 8.296zm14.604-.122c5.305 0 5.305-8.052 0-8.052-5.304 0-5.304 8.052 0 8.052zm14.604-.122c5.143 0 5.143-7.808 0-7.808-5.144 0-5.144 7.808 0 7.808zm14.603-.203c4.876 0 4.876-7.402 0-7.402-4.875 0-4.875 7.402 0 7.402zm14.604-.244c4.554 0 4.554-6.914 0-6.914s-4.554 6.914 0 6.914zm14.604-.245c4.232 0 4.232-6.425 0-6.425-4.233 0-4.233 6.425 0 6.425zm14.604-.325c3.804 0 3.804-5.775 0-5.775-3.805 0-3.805 5.775 0 5.775zm14.603-.366c3.322 0 3.322-5.043 0-5.043s-3.322 5.043 0 5.043zm14.604-.366c2.839 0 2.839-4.311 0-4.311-2.84 0-2.84 4.311 0 4.311zm14.603-.406c2.304 0 2.304-3.498 0-3.498-2.303 0-2.303 3.498 0 3.498zm14.604-.407c1.768 0 1.768-2.684 0-2.684s-1.768 2.684 0 2.684zm14.604-.407c1.232 0 1.232-1.871 0-1.871-1.233 0-1.233 1.871 0 1.871zm14.603-.447c.643 0 .643-.976 0-.976s-.643.976 0 .976zm14.604-.407c.107 0 .107-.163 0-.163s-.107.163 0 .163zm-394.299 14.747c.215 0 .215-.325 0-.325-.214 0-.214.325 0 .325zm14.604.366c.697 0 .697-1.057 0-1.057s-.697 1.057 0 1.057zm14.604.448c1.286 0 1.286-1.952 0-1.952s-1.286 1.952 0 1.952zm14.603.366c1.768 0 1.768-2.684 0-2.684s-1.768 2.684 0 2.684zm14.604.406c2.304 0 2.304-3.497 0-3.497s-2.304 3.497 0 3.497zm14.604.326c2.732 0 2.732-4.148 0-4.148-2.733 0-2.733 4.148 0 4.148zm14.603.366c3.215 0 3.215-4.88 0-4.88-3.214 0-3.214 4.88 0 4.88zm14.604.284c3.59 0 3.59-5.449 0-5.449s-3.59 5.449 0 5.449zm14.604.244c3.911 0 3.911-5.937 0-5.937s-3.911 5.937 0 5.937zm14.603.244c4.233 0 4.233-6.425 0-6.425-4.232 0-4.232 6.425 0 6.425zm14.604.163c4.447 0 4.447-6.751 0-6.751s-4.447 6.751 0 6.751zm14.604.122c4.607 0 4.607-6.995 0-6.995-4.608 0-4.608 6.995 0 6.995zm14.603.081c4.715 0 4.715-7.157 0-7.157s-4.715 7.157 0 7.157zm14.604.041c4.768 0 4.768-7.239 0-7.239-4.769 0-4.769 7.239 0 7.239zm14.603-.041c4.715 0 4.715-7.157 0-7.157s-4.715 7.157 0 7.157zm14.604-.04c4.661 0 4.661-7.076 0-7.076s-4.661 7.076 0 7.076zm14.604-.163c4.447 0 4.447-6.751 0-6.751s-4.447 6.751 0 6.751zm14.603-.163c4.233 0 4.233-6.425 0-6.425-4.232 0-4.232 6.425 0 6.425zm14.604-.203c3.965 0 3.965-6.019 0-6.019s-3.965 6.019 0 6.019zm14.604-.285c3.59 0 3.59-5.449 0-5.449s-3.59 5.449 0 5.449zm14.604-.284c3.214 0 3.214-4.88 0-4.88-3.215 0-3.215 4.88 0 4.88zm14.603-.326c2.786 0 2.786-4.229 0-4.229s-2.786 4.229 0 4.229zm14.604-.366c2.303 0 2.303-3.497 0-3.497-2.304 0-2.304 3.497 0 3.497zm14.603-.366c1.822 0 1.822-2.765 0-2.765-1.821 0-1.821 2.765 0 2.765zm14.604-.406c1.286 0 1.286-1.952 0-1.952s-1.286 1.952 0 1.952zm14.604-.407c.75 0 .75-1.139 0-1.139-.751 0-.751 1.139 0 1.139zm14.603-.407c.215 0 .215-.325 0-.325-.214 0-.214.325 0 .325zm-365.091 14.707c.268 0 .268-.407 0-.407s-.268.407 0 .407zm14.604.366c.75 0 .75-1.139 0-1.139s-.75 1.139 0 1.139zm14.603.407c1.286 0 1.286-1.952 0-1.952s-1.286 1.952 0 1.952zm14.604.366c1.768 0 1.768-2.684 0-2.684s-1.768 2.684 0 2.684zm14.604.325c2.197 0 2.197-3.335 0-3.335s-2.197 3.335 0 3.335zm14.603.285c2.572 0 2.572-3.905 0-3.905-2.571 0-2.571 3.905 0 3.905zm14.604.284c2.947 0 2.947-4.473 0-4.473s-2.947 4.473 0 4.473zm14.604.244c3.268 0 3.268-4.961 0-4.961-3.269 0-3.269 4.961 0 4.961zm14.603.204c3.536 0 3.536-5.369 0-5.369s-3.536 5.369 0 5.369zm14.604.162c3.75 0 3.75-5.693 0-5.693-3.751 0-3.751 5.693 0 5.693zm14.604.122c3.911 0 3.911-5.937 0-5.937-3.912 0-3.912 5.937 0 5.937zm14.603.082c4.018 0 4.018-6.101 0-6.101s-4.018 6.101 0 6.101zm14.604.04c4.072 0 4.072-6.181 0-6.181s-4.072 6.181 0 6.181zm14.603-.04c4.019 0 4.019-6.101 0-6.101-4.018 0-4.018 6.101 0 6.101zm14.604-.041c3.965 0 3.965-6.019 0-6.019s-3.965 6.019 0 6.019zm14.604-.122c3.804 0 3.804-5.775 0-5.775s-3.804 5.775 0 5.775zm14.603-.163c3.59 0 3.59-5.449 0-5.449-3.589 0-3.589 5.449 0 5.449zm14.604-.203c3.322 0 3.322-5.043 0-5.043s-3.322 5.043 0 5.043zm14.604-.244c3 0 3-4.555 0-4.555s-3 4.555 0 4.555zm14.604-.285c2.625 0 2.625-3.985 0-3.985-2.626 0-2.626 3.985 0 3.985zm14.603-.325c2.197 0 2.197-3.335 0-3.335-2.196 0-2.196 3.335 0 3.335zm14.604-.325c1.768 0 1.768-2.684 0-2.684s-1.768 2.684 0 2.684zm14.603-.366c1.286 0 1.286-1.952 0-1.952s-1.286 1.952 0 1.952zm14.604-.366c.804 0 .804-1.221 0-1.221s-.804 1.221 0 1.221zm14.604-.366c.321 0 .321-.489 0-.489-.322 0-.322.489 0 .489zM428.34 797.174c.268 0 .268-.407 0-.407s-.268.407 0 .407zm14.603.325c.697 0 .697-1.057 0-1.057-.696 0-.696 1.057 0 1.057zm14.604.366c1.179 0 1.179-1.789 0-1.789s-1.179 1.789 0 1.789zm14.604.326c1.607 0 1.607-2.44 0-2.44-1.608 0-1.608 2.44 0 2.44zm14.603.284c1.983 0 1.983-3.009 0-3.009-1.982 0-1.982 3.009 0 3.009zm14.604.244c2.304 0 2.304-3.497 0-3.497s-2.304 3.497 0 3.497zm14.604.244c2.625 0 2.625-3.985 0-3.985-2.626 0-2.626 3.985 0 3.985zm14.603.204c2.893 0 2.893-4.393 0-4.393s-2.893 4.393 0 4.393zm14.604.162c3.107 0 3.107-4.717 0-4.717-3.108 0-3.108 4.717 0 4.717zm14.604.082c3.214 0 3.214-4.881 0-4.881-3.215 0-3.215 4.881 0 4.881zm14.603.081c3.322 0 3.322-5.043 0-5.043-3.321 0-3.321 5.043 0 5.043zm14.604.041c3.375 0 3.375-5.125 0-5.125-3.376 0-3.376 5.125 0 5.125zm14.603-.041c3.322 0 3.322-5.043 0-5.043-3.321 0-3.321 5.043 0 5.043zm14.604-.041c3.268 0 3.268-4.961 0-4.961s-3.268 4.961 0 4.961zm14.604-.122c3.107 0 3.107-4.717 0-4.717-3.108 0-3.108 4.717 0 4.717zm14.603-.162c2.894 0 2.894-4.393 0-4.393-2.893 0-2.893 4.393 0 4.393zm14.604-.204c2.625 0 2.625-3.985 0-3.985s-2.625 3.985 0 3.985zm14.604-.203c2.357 0 2.357-3.579 0-3.579-2.358 0-2.358 3.579 0 3.579zm14.604-.285c1.982 0 1.982-3.009 0-3.009-1.983 0-1.983 3.009 0 3.009zm14.603-.284c1.607 0 1.607-2.44 0-2.44s-1.607 2.44 0 2.44zm14.604-.285c1.232 0 1.232-1.871 0-1.871-1.233 0-1.233 1.871 0 1.871zm14.603-.366c.751 0 .751-1.139 0-1.139-.75 0-.75 1.139 0 1.139zm14.604-.326c.322 0 .322-.488 0-.488s-.322.488 0 .488zm-306.677 14.585c.215 0 .215-.325 0-.325-.214 0-.214.325 0 .325zm14.604.285c.59 0 .59-.895 0-.895-.589 0-.589.895 0 .895zm14.604.284c.964 0 .964-1.464 0-1.464-.965 0-.965 1.464 0 1.464zm14.603.285c1.34 0 1.34-2.033 0-2.033-1.339 0-1.339 2.033 0 2.033zm14.604.244c1.661 0 1.661-2.521 0-2.521s-1.661 2.521 0 2.521zm14.604.244c1.982 0 1.982-3.009 0-3.009-1.983 0-1.983 3.009 0 3.009zm14.603.163c2.197 0 2.197-3.335 0-3.335-2.196 0-2.196 3.335 0 3.335zm14.604.162c2.411 0 2.411-3.66 0-3.66s-2.411 3.66 0 3.66zm14.604.082c2.518 0 2.518-3.823 0-3.823-2.519 0-2.519 3.823 0 3.823zm14.603.081c2.626 0 2.626-3.985 0-3.985-2.625 0-2.625 3.985 0 3.985zm14.604 0c2.625 0 2.625-3.985 0-3.985s-2.625 3.985 0 3.985zm14.603 0c2.626 0 2.626-3.985 0-3.985-2.625 0-2.625 3.985 0 3.985zm14.604-.081c2.518 0 2.518-3.823 0-3.823s-2.518 3.823 0 3.823zm14.604-.082c2.411 0 2.411-3.66 0-3.66s-2.411 3.66 0 3.66zm14.603-.162c2.197 0 2.197-3.335 0-3.335-2.196 0-2.196 3.335 0 3.335zm14.604-.163c1.982 0 1.982-3.009 0-3.009s-1.982 3.009 0 3.009zm14.604-.203c1.714 0 1.714-2.603 0-2.603-1.715 0-1.715 2.603 0 2.603zm14.604-.244c1.392 0 1.392-2.115 0-2.115-1.394 0-1.394 2.115 0 2.115zm14.603-.285c1.018 0 1.018-1.545 0-1.545s-1.018 1.545 0 1.545zm14.604-.285c.642 0 .642-.976 0-.976-.643 0-.643.976 0 .976zm14.603-.325c.215 0 .215-.325 0-.325-.214 0-.214.325 0 .325zm-277.469 14.585c.107 0 .107-.163 0-.163s-.107.163 0 .163zm14.604.203c.375 0 .375-.569 0-.569s-.375.569 0 .569zm14.603.244c.697 0 .697-1.057 0-1.057-.696 0-.696 1.057 0 1.057zm14.604.244c1.018 0 1.018-1.545 0-1.545s-1.018 1.545 0 1.545zm14.604.203c1.285 0 1.285-1.952 0-1.952-1.286 0-1.286 1.952 0 1.952zm14.603.163c1.5 0 1.5-2.277 0-2.277s-1.5 2.277 0 2.277zm14.604.122c1.661 0 1.661-2.521 0-2.521s-1.661 2.521 0 2.521zm14.604.122c1.821 0 1.821-2.765 0-2.765-1.822 0-1.822 2.765 0 2.765zm14.603.041c1.875 0 1.875-2.847 0-2.847s-1.875 2.847 0 2.847zm14.604.04c1.929 0 1.929-2.928 0-2.928s-1.929 2.928 0 2.928zm14.603-.04c1.876 0 1.876-2.847 0-2.847-1.875 0-1.875 2.847 0 2.847zm14.604-.041c1.822 0 1.822-2.765 0-2.765-1.821 0-1.821 2.765 0 2.765zm14.604-.081c1.714 0 1.714-2.603 0-2.603s-1.714 2.603 0 2.603zm14.603-.163c1.501 0 1.501-2.277 0-2.277-1.5 0-1.5 2.277 0 2.277zm14.604-.163c1.286 0 1.286-1.952 0-1.952s-1.286 1.952 0 1.952zm14.604-.203c1.018 0 1.018-1.545 0-1.545s-1.018 1.545 0 1.545zm14.604-.203c.749 0 .749-1.139 0-1.139-.751 0-.751 1.139 0 1.139zm14.603-.285c.375 0 .375-.569 0-.569s-.375.569 0 .569zm14.604-.203c.107 0 .107-.163 0-.163s-.107.163 0 .163zM486.754 841.05c.108 0 .108-.163 0-.163-.107 0-.107.163 0 .163zm14.604.203c.375 0 .375-.569 0-.569s-.375.569 0 .569zm14.604.163c.589 0 .589-.895 0-.895-.59 0-.59.895 0 .895zm14.603.162c.804 0 .804-1.22 0-1.22-.803 0-.803 1.22 0 1.22zm14.604.122c.964 0 .964-1.464 0-1.464-.965 0-.965 1.464 0 1.464zm14.604.082c1.071 0 1.071-1.627 0-1.627-1.072 0-1.072 1.627 0 1.627zm14.603.081c1.179 0 1.179-1.79 0-1.79-1.178 0-1.178 1.79 0 1.79zm14.604 0c1.179 0 1.179-1.79 0-1.79s-1.179 1.79 0 1.79zm14.603 0c1.179 0 1.179-1.79 0-1.79-1.178 0-1.178 1.79 0 1.79zm14.604-.041c1.125 0 1.125-1.708 0-1.708s-1.125 1.708 0 1.708zm14.604-.122c.964 0 .964-1.464 0-1.464-.965 0-.965 1.464 0 1.464zm14.603-.122c.804 0 .804-1.22 0-1.22-.803 0-.803 1.22 0 1.22zm14.604-.122c.643 0 .643-.976 0-.976s-.643.976 0 .976zm14.604-.203c.375 0 .375-.569 0-.569s-.375.569 0 .569zm14.604-.163c.16 0 .16-.244 0-.244-.161 0-.161.244 0 .244zm-175.244 14.585c.053 0 .053-.082 0-.082-.054 0-.054.082 0 .082zm14.603.081c.161 0 .161-.244 0-.244-.16 0-.16.244 0 .244zm14.604.081c.268 0 .268-.406 0-.406s-.268.406 0 .406zm14.604.082c.375 0 .375-.57 0-.57-.376 0-.376.57 0 .57zm14.603.04c.429 0 .429-.65 0-.65-.428 0-.428.65 0 .65zm14.604.041c.482 0 .482-.732 0-.732s-.482.732 0 .732zm14.603-.041c.429 0 .429-.65 0-.65-.428 0-.428.65 0 .65zm14.604-.04c.375 0 .375-.57 0-.57s-.375.57 0 .57zm14.604-.082c.268 0 .268-.406 0-.406s-.268.406 0 .406zm14.603-.081c.161 0 .161-.244 0-.244-.16 0-.16.244 0 .244zm14.604-.081c.054 0 .054-.082 0-.082-.053 0-.053.082 0 .082z" fill="#4D822C" fill-opacity=".55"/></g><defs><filter id="filter0_f_505_76" x="-385" y="-42" width="1480" height="1480" filterUnits="userSpaceOnUse" color-interpolation-filters="sRGB"><feFlood flood-opacity="0" result="BackgroundImageFix"/><feBlend mode="normal" in="SourceGraphic" in2="BackgroundImageFix" result="shape"/><feGaussianBlur stdDeviation="237" result="effect1_foregroundBlur_505_76"/></filter><filter id="filter1_f_505_76" x="-410" y="-67" width="1530" height="1530" filterUnits="userSpaceOnUse" color-interpolation-filters="sRGB"><feFlood flood-opacity="0" result="BackgroundImageFix"/><feBlend mode="normal" in="SourceGraphic" in2="BackgroundImageFix" result="shape"/><feGaussianBlur stdDeviation="249.5" result="effect1_foregroundBlur_505_76"/></filter></defs></svg>