<svg id="Layer_1" xmlns="http://www.w3.org/2000/svg" version="1.1" viewBox="0 0 233.5 124.4"><path d="M0 71.8C50.5 39.5 80.8 16.9 102.7 3.5 69.2 23.8 34.2 43.5 0 61.7v10.1z" fill="#fff"/><path d="M27.4 124.4c20.7-15.6 42-32.2 62.1-48.7-7.4 5.6-34.4 24.8-69.9 48.7h7.8zm86.1 0h32.8c15.9-13.4 31.5-27.1 46.5-41.2-12.8 1.2-26.1 1.7-38.9 2.1 52.4-50.6 58.8-62.1 69.6-72.8 10.7-14.7 26-24.9-33.1 21.1-5 4.1-9.5 7.4-14.5 11.6-1.2.8-1.7 2.1-2.9 2.9-3.3 2.5-6.6 4.6-9.9 7.4-4.1 4.1-8.3 6.6-12.8 10.3-.4.4-.8 1.2-1.2 1.7-3.3 2.5-6.6 5-9.9 7.4-1.2.8-1.7 2.1-2.9 2.9-4.6 3.3-8.7 6.6-12.8 10.3-2.2 2.1-2.5.5-2.5 2.1-2.1 0-7.9 7.3-18.6 14.5 0 0 7.3.4 34 .4 0 0-11 9.8-22.5 19.3z" fill="#6fb543"/></svg>