<svg xmlns="http://www.w3.org/2000/svg" width="1441" height="526" fill="none"><mask id="mask0_86_4118" style="mask-type:alpha" maskUnits="userSpaceOnUse" x="0" y="0" width="1441" height="526"><path d="M0 0h1441v526H0V0z" fill="#65A23F"/></mask><g mask="url(#mask0_86_4118)"><path d="M0 0h1441v526H0V0z" fill="#65A23F"/><path opacity=".7" d="M348.262 105.244c.046 0 .046.07 0 .07s-.046-.07 0-.07zm12.544.105c.092 0 .092-.14 0-.14s-.092.14 0 .14zm12.544.069c.184 0 .184-.278 0-.278s-.184.278 0 .278zm12.544.07c.276 0 .276-.418 0-.418s-.276.418 0 .418zm12.545.035c.322 0 .322-.488 0-.488-.323 0-.323.488 0 .488zm12.544.035c.368 0 .368-.558 0-.558s-.368.558 0 .558zm12.544 0c.368 0 .368-.558 0-.558s-.368.558 0 .558zm12.544-.07c.276 0 .276-.418 0-.418s-.276.418 0 .418zm12.544-.035c.23 0 .23-.348 0-.348s-.23.348 0 .348zm12.544-.069c.139 0 .139-.21 0-.21-.138 0-.138.21 0 .21zm12.544-.07c.047 0 .047-.07 0-.07-.045 0-.045.07 0 .07zm-150.53 12.61c.093 0 .093-.14 0-.14-.091 0-.091.14 0 .14zm12.545.139c.276 0 .276-.418 0-.418s-.276.418 0 .418zm12.544.14c.46 0 .46-.697 0-.697s-.46.697 0 .697zm12.544.139c.644 0 .644-.976 0-.976s-.644.976 0 .976zm12.544.105c.783 0 .783-1.186 0-1.186-.782 0-.782 1.186 0 1.186zm12.544.07c.875 0 .875-1.325 0-1.325-.874 0-.874 1.325 0 1.325zm12.545.069c.966 0 .966-1.464 0-1.464-.967 0-.967 1.464 0 1.464zm12.544 0c.966 0 .966-1.464 0-1.464-.967 0-.967 1.464 0 1.464zm12.544 0c.966 0 .966-1.464 0-1.464-.967 0-.967 1.464 0 1.464zm12.544-.034c.92 0 .92-1.395 0-1.395s-.92 1.395 0 1.395zm12.544-.105c.783 0 .783-1.186 0-1.186-.782 0-.782 1.186 0 1.186zm12.544-.105c.645 0 .645-.976 0-.976-.644 0-.644.976 0 .976zm12.544-.104c.507 0 .507-.767 0-.767-.506 0-.506.767 0 .767zm12.545-.175c.276 0 .276-.418 0-.418s-.276.418 0 .418zm12.544-.139c.092 0 .092-.14 0-.14s-.092.14 0 .14zm-200.707 12.54c.046 0 .046-.069 0-.069s-.046.069 0 .069zm12.545.175c.276 0 .276-.419 0-.419-.277 0-.277.419 0 .419zm12.543.209c.553 0 .553-.837 0-.837-.552 0-.552.837 0 .837zm12.545.209c.828 0 .828-1.255 0-1.255-.829 0-.829 1.255 0 1.255zm12.544.174c1.058 0 1.058-1.604 0-1.604-1.059 0-1.059 1.604 0 1.604zm12.544.14c1.243 0 1.243-1.883 0-1.883-1.242 0-1.242 1.883 0 1.883zm12.544.105c1.381 0 1.381-2.093 0-2.093s-1.381 2.093 0 2.093zm12.544.104c1.519 0 1.519-2.301 0-2.301-1.518 0-1.518 2.301 0 2.301zm12.545.035c1.564 0 1.564-2.371 0-2.371-1.565 0-1.565 2.371 0 2.371zm12.544.035c1.61 0 1.61-2.441 0-2.441-1.611 0-1.611 2.441 0 2.441zm12.544-.035c1.565 0 1.565-2.371 0-2.371s-1.565 2.371 0 2.371zm12.544-.035c1.519 0 1.519-2.301 0-2.301s-1.519 2.301 0 2.301zm12.544-.07c1.427 0 1.427-2.162 0-2.162-1.426 0-1.426 2.162 0 2.162zm12.544-.139c1.243 0 1.243-1.883 0-1.883-1.242 0-1.242 1.883 0 1.883zm12.544-.14c1.059 0 1.059-1.604 0-1.604-1.058 0-1.058 1.604 0 1.604zm12.545-.174c.828 0 .828-1.255 0-1.255-.829 0-.829 1.255 0 1.255zm12.544-.174c.598 0 .598-.907 0-.907-.599 0-.599.907 0 .907zm12.544-.209c.322 0 .322-.489 0-.489s-.322.489 0 .489zm12.544-.175c.092 0 .092-.139 0-.139s-.092.139 0 .139zm-238.339 12.61c.138 0 .138-.209 0-.209s-.138.209 0 .209zm12.544.244c.461 0 .461-.697 0-.697-.46 0-.46.697 0 .697zm12.545.279c.828 0 .828-1.255 0-1.255-.829 0-.829 1.255 0 1.255zm12.543.209c1.105 0 1.105-1.673 0-1.673-1.104 0-1.104 1.673 0 1.673zm12.545.21c1.38 0 1.38-2.092 0-2.092-1.381 0-1.381 2.092 0 2.092zm12.544.209c1.657 0 1.657-2.511 0-2.511s-1.657 2.511 0 2.511zm12.544.139c1.841 0 1.841-2.789 0-2.789s-1.841 2.789 0 2.789zm12.544.14c2.025 0 2.025-3.069 0-3.069s-2.025 3.069 0 3.069zm12.544.07c2.117 0 2.117-3.208 0-3.208s-2.117 3.208 0 3.208zm12.545.069c2.208 0 2.208-3.347 0-3.347-2.21 0-2.21 3.347 0 3.347zm12.544 0c2.209 0 2.209-3.347 0-3.347s-2.209 3.347 0 3.347zm12.544 0c2.209 0 2.209-3.347 0-3.347s-2.209 3.347 0 3.347zm12.544-.069c2.117 0 2.117-3.208 0-3.208s-2.117 3.208 0 3.208zm12.544-.07c2.025 0 2.025-3.069 0-3.069s-2.025 3.069 0 3.069zm12.544-.14c1.841 0 1.841-2.789 0-2.789s-1.841 2.789 0 2.789zm12.544-.139c1.657 0 1.657-2.511 0-2.511-1.656 0-1.656 2.511 0 2.511zm12.545-.174c1.426 0 1.426-2.162 0-2.162-1.427 0-1.427 2.162 0 2.162zm12.544-.21c1.15 0 1.15-1.743 0-1.743-1.151 0-1.151 1.743 0 1.743zm12.544-.244c.828 0 .828-1.255 0-1.255s-.828 1.255 0 1.255zm12.544-.244c.506 0 .506-.767 0-.767s-.506.767 0 .767zm12.544-.244c.184 0 .184-.279 0-.279s-.184.279 0 .279zm-263.427 12.575c.184 0 .184-.279 0-.279s-.184.279 0 .279zm12.544.314c.598 0 .598-.906 0-.906s-.598.906 0 .906zm12.544.279c.967 0 .967-1.464 0-1.464-.966 0-.966 1.464 0 1.464zm12.545.279c1.334 0 1.334-2.022 0-2.022-1.335 0-1.335 2.022 0 2.022zm12.543.244c1.657 0 1.657-2.51 0-2.51-1.656 0-1.656 2.51 0 2.51zm12.545.244c1.979 0 1.979-2.999 0-2.999s-1.979 2.999 0 2.999zm12.544.175c2.209 0 2.209-3.348 0-3.348s-2.209 3.348 0 3.348zm12.544.174c2.439 0 2.439-3.696 0-3.696s-2.439 3.696 0 3.696zm12.544.139c2.623 0 2.623-3.975 0-3.975s-2.623 3.975 0 3.975zm12.544.07c2.716 0 2.716-4.114 0-4.114-2.715 0-2.715 4.114 0 4.114zm12.545.07c2.807 0 2.807-4.254 0-4.254-2.808 0-2.808 4.254 0 4.254zm12.544.035c2.853 0 2.853-4.324 0-4.324-2.854 0-2.854 4.324 0 4.324zm12.544-.035c2.807 0 2.807-4.254 0-4.254-2.808 0-2.808 4.254 0 4.254zm12.544-.035c2.761 0 2.761-4.184 0-4.184s-2.761 4.184 0 4.184zm12.544-.105c2.624 0 2.624-3.975 0-3.975-2.623 0-2.623 3.975 0 3.975zm12.544-.139c2.44 0 2.44-3.696 0-3.696-2.439 0-2.439 3.696 0 3.696zm12.544-.139c2.255 0 2.255-3.418 0-3.418s-2.255 3.418 0 3.418zm12.545-.21c1.979 0 1.979-2.999 0-2.999s-1.979 2.999 0 2.999zm12.544-.209c1.703 0 1.703-2.58 0-2.58s-1.703 2.58 0 2.58zm12.544-.279c1.335 0 1.335-2.022 0-2.022s-1.335 2.022 0 2.022zm12.544-.244c1.013 0 1.013-1.534 0-1.534-1.012 0-1.012 1.534 0 1.534zm12.544-.314c.599 0 .599-.906 0-.906-.598 0-.598.906 0 .906zm12.545-.279c.23 0 .23-.349 0-.349-.231 0-.231.349 0 .349zm-288.516 12.541c.184 0 .184-.279 0-.279s-.184.279 0 .279zm12.544.313c.598 0 .598-.906 0-.906s-.598.906 0 .906zm12.544.349c1.059 0 1.059-1.604 0-1.604-1.058 0-1.058 1.604 0 1.604zm12.544.314c1.473 0 1.473-2.232 0-2.232s-1.473 2.232 0 2.232zm12.545.279c1.84 0 1.84-2.79 0-2.79-1.841 0-1.841 2.79 0 2.79zm12.543.244c2.164 0 2.164-3.278 0-3.278-2.162 0-2.162 3.278 0 3.278zm12.545.244c2.485 0 2.485-3.766 0-3.766-2.486 0-2.486 3.766 0 3.766zm12.544.209c2.761 0 2.761-4.184 0-4.184s-2.761 4.184 0 4.184zm12.544.175c2.991 0 2.991-4.534 0-4.534s-2.991 4.534 0 4.534zm12.544.139c3.176 0 3.176-4.812 0-4.812-3.175 0-3.175 4.812 0 4.812zm12.544.105c3.314 0 3.314-5.022 0-5.022-3.313 0-3.313 5.022 0 5.022zm12.545.07c3.405 0 3.405-5.161 0-5.161-3.406 0-3.406 5.161 0 5.161zm12.544.034c3.451 0 3.451-5.23 0-5.23-3.452 0-3.452 5.23 0 5.23zm12.544-.034c3.405 0 3.405-5.161 0-5.161-3.406 0-3.406 5.161 0 5.161zm12.544-.035c3.36 0 3.36-5.091 0-5.091s-3.36 5.091 0 5.091zm12.544-.105c3.222 0 3.222-4.882 0-4.882-3.221 0-3.221 4.882 0 4.882zm12.544-.139c3.038 0 3.038-4.603 0-4.603-3.037 0-3.037 4.603 0 4.603zm12.544-.175c2.808 0 2.808-4.254 0-4.254-2.807 0-2.807 4.254 0 4.254zm12.545-.209c2.531 0 2.531-3.836 0-3.836-2.532 0-2.532 3.836 0 3.836zm12.544-.244c2.209 0 2.209-3.348 0-3.348s-2.209 3.348 0 3.348zm12.544-.244c1.887 0 1.887-2.86 0-2.86s-1.887 2.86 0 2.86zm12.544-.314c1.473 0 1.473-2.232 0-2.232-1.472 0-1.472 2.232 0 2.232zm12.544-.279c1.105 0 1.105-1.674 0-1.674-1.104 0-1.104 1.674 0 1.674zm12.545-.349c.644 0 .644-.976 0-.976-.645 0-.645.976 0 .976zm12.544-.314c.23 0 .23-.348 0-.348s-.23.348 0 .348zm-313.604 12.506c.138 0 .138-.209 0-.209s-.138.209 0 .209zm12.544.349c.598 0 .598-.907 0-.907-.599 0-.599.907 0 .907zm12.544.348c1.058 0 1.058-1.604 0-1.604-1.059 0-1.059 1.604 0 1.604zm12.544.349c1.519 0 1.519-2.301 0-2.301s-1.519 2.301 0 2.301zm12.544.314c1.933 0 1.933-2.929 0-2.929-1.932 0-1.932 2.929 0 2.929zm12.545.314c2.346 0 2.346-3.557 0-3.557-2.348 0-2.348 3.557 0 3.557zm12.543.279c2.716 0 2.716-4.115 0-4.115-2.715 0-2.715 4.115 0 4.115zm12.545.244c3.037 0 3.037-4.603 0-4.603-3.038 0-3.038 4.603 0 4.603zm12.544.209c3.313 0 3.313-5.021 0-5.021s-3.313 5.021 0 5.021zm12.544.209c3.59 0 3.59-5.44 0-5.44s-3.59 5.44 0 5.44zm12.544.14c3.774 0 3.774-5.719 0-5.719s-3.774 5.719 0 5.719zm12.544.104c3.912 0 3.912-5.928 0-5.928-3.911 0-3.911 5.928 0 5.928zm12.545.07c4.004 0 4.004-6.067 0-6.067s-4.004 6.067 0 6.067zm12.544.035c4.05 0 4.05-6.137 0-6.137s-4.05 6.137 0 6.137zm12.544-.035c4.004 0 4.004-6.067 0-6.067s-4.004 6.067 0 6.067zm12.544-.035c3.958 0 3.958-5.998 0-5.998s-3.958 5.998 0 5.998zm12.544-.139c3.774 0 3.774-5.719 0-5.719s-3.774 5.719 0 5.719zm12.544-.14c3.59 0 3.59-5.44 0-5.44-3.589 0-3.589 5.44 0 5.44zm12.544-.174c3.36 0 3.36-5.091 0-5.091-3.359 0-3.359 5.091 0 5.091zm12.545-.244c3.037 0 3.037-4.603 0-4.603-3.038 0-3.038 4.603 0 4.603zm12.544-.244c2.715 0 2.715-4.115 0-4.115-2.716 0-2.716 4.115 0 4.115zm12.544-.279c2.347 0 2.347-3.557 0-3.557s-2.347 3.557 0 3.557zm12.544-.279c1.979 0 1.979-2.999 0-2.999s-1.979 2.999 0 2.999zm12.544-.349c1.519 0 1.519-2.301 0-2.301-1.518 0-1.518 2.301 0 2.301zm12.545-.314c1.104 0 1.104-1.674 0-1.674-1.105 0-1.105 1.674 0 1.674zm12.544-.383c.598 0 .598-.907 0-.907-.599 0-.599.907 0 .907zm12.544-.314c.184 0 .184-.279 0-.279s-.184.279 0 .279zm-338.692 12.47c.046 0 .046-.069 0-.069s-.046.069 0 .069zm12.544.314c.46 0 .46-.697 0-.697-.461 0-.461.697 0 .697zm12.544.384c.966 0 .966-1.465 0-1.465-.967 0-.967 1.465 0 1.465zm12.544.383c1.473 0 1.473-2.231 0-2.231s-1.473 2.231 0 2.231zm12.544.349c1.933 0 1.933-2.929 0-2.929s-1.933 2.929 0 2.929zm12.544.349c2.394 0 2.394-3.627 0-3.627-2.393 0-2.393 3.627 0 3.627zm12.545.314c2.807 0 2.807-4.255 0-4.255-2.808 0-2.808 4.255 0 4.255zm12.543.279c3.176 0 3.176-4.812 0-4.812-3.175 0-3.175 4.812 0 4.812zm12.545.279c3.543 0 3.543-5.371 0-5.371-3.544 0-3.544 5.371 0 5.371zm12.544.244c3.866 0 3.866-5.859 0-5.859s-3.866 5.859 0 5.859zm12.544.209c4.142 0 4.142-6.277 0-6.277s-4.142 6.277 0 6.277zm12.544.174c4.372 0 4.372-6.625 0-6.625s-4.372 6.625 0 6.625zm12.544.105c4.511 0 4.511-6.835 0-6.835-4.51 0-4.51 6.835 0 6.835zm12.545.07c4.602 0 4.602-6.975 0-6.975-4.603 0-4.603 6.975 0 6.975zm12.544.035c4.648 0 4.648-7.044 0-7.044s-4.648 7.044 0 7.044zm12.544 0c4.648 0 4.648-7.044 0-7.044s-4.648 7.044 0 7.044zm12.544-.07c4.556 0 4.556-6.905 0-6.905s-4.556 6.905 0 6.905zm12.544-.14c4.372 0 4.372-6.625 0-6.625s-4.372 6.625 0 6.625zm12.544-.174c4.142 0 4.142-6.277 0-6.277-4.141 0-4.141 6.277 0 6.277zm12.544-.209c3.866 0 3.866-5.859 0-5.859-3.865 0-3.865 5.859 0 5.859zm12.545-.209c3.589 0 3.589-5.44 0-5.44-3.59 0-3.59 5.44 0 5.44zm12.544-.28c3.221 0 3.221-4.881 0-4.881-3.222 0-3.222 4.881 0 4.881zm12.544-.313c2.807 0 2.807-4.255 0-4.255s-2.807 4.255 0 4.255zm12.544-.314c2.393 0 2.393-3.627 0-3.627s-2.393 3.627 0 3.627zm12.544-.314c1.979 0 1.979-2.999 0-2.999s-1.979 2.999 0 2.999zm12.545-.349c1.518 0 1.518-2.301 0-2.301-1.519 0-1.519 2.301 0 2.301zm12.544-.383c1.012 0 1.012-1.535 0-1.535-1.013 0-1.013 1.535 0 1.535zm12.544-.384c.506 0 .506-.767 0-.767-.507 0-.507.767 0 .767zm12.544-.314c.092 0 .092-.139 0-.139s-.092.139 0 .139zM235.365 206.09c.275 0 .275-.418 0-.418-.277 0-.277.418 0 .418zm12.544.418c.828 0 .828-1.255 0-1.255-.829 0-.829 1.255 0 1.255zm12.544.384c1.334 0 1.334-2.022 0-2.022-1.335 0-1.335 2.022 0 2.022zm12.544.384c1.841 0 1.841-2.79 0-2.79s-1.841 2.79 0 2.79zm12.544.383c2.347 0 2.347-3.557 0-3.557s-2.347 3.557 0 3.557zm12.544.349c2.808 0 2.808-4.254 0-4.254-2.807 0-2.807 4.254 0 4.254zm12.545.349c3.267 0 3.267-4.952 0-4.952-3.268 0-3.268 4.952 0 4.952zm12.543.313c3.682 0 3.682-5.579 0-5.579-3.681 0-3.681 5.579 0 5.579zm12.545.279c4.05 0 4.05-6.137 0-6.137s-4.05 6.137 0 6.137zm12.544.245c4.372 0 4.372-6.626 0-6.626s-4.372 6.626 0 6.626zm12.544.244c4.694 0 4.694-7.114 0-7.114s-4.694 7.114 0 7.114zm12.544.174c4.924 0 4.924-7.462 0-7.462s-4.924 7.462 0 7.462zm12.544.139c5.109 0 5.109-7.741 0-7.741-5.108 0-5.108 7.741 0 7.741zm12.545.105c5.246 0 5.246-7.95 0-7.95-5.247 0-5.247 7.95 0 7.95zm12.544.035c5.292 0 5.292-8.02 0-8.02-5.293 0-5.293 8.02 0 8.02zm12.544-.035c5.246 0 5.246-7.95 0-7.95-5.247 0-5.247 7.95 0 7.95zm12.544-.105c5.109 0 5.109-7.741 0-7.741-5.108 0-5.108 7.741 0 7.741zm12.544-.104c4.97 0 4.97-7.532 0-7.532s-4.97 7.532 0 7.532zm12.544-.209c4.695 0 4.695-7.114 0-7.114-4.694 0-4.694 7.114 0 7.114zm12.544-.21c4.419 0 4.419-6.695 0-6.695-4.418 0-4.418 6.695 0 6.695zm12.545-.279c4.05 0 4.05-6.137 0-6.137s-4.05 6.137 0 6.137zm12.544-.279c3.682 0 3.682-5.579 0-5.579s-3.682 5.579 0 5.579zm12.544-.313c3.267 0 3.267-4.952 0-4.952s-3.267 4.952 0 4.952zm12.544-.314c2.854 0 2.854-4.324 0-4.324-2.853 0-2.853 4.324 0 4.324zm12.544-.384c2.348 0 2.348-3.557 0-3.557-2.347 0-2.347 3.557 0 3.557zm12.545-.349c1.887 0 1.887-2.859 0-2.859s-1.887 2.859 0 2.859zm12.544-.383c1.38 0 1.38-2.092 0-2.092-1.381 0-1.381 2.092 0 2.092zm12.544-.419c.828 0 .828-1.255 0-1.255s-.828 1.255 0 1.255zm12.544-.383c.322 0 .322-.488 0-.488s-.322.488 0 .488zM222.82 218.526c.092 0 .092-.14 0-.14s-.092.14 0 .14zm12.545.348c.552 0 .552-.836 0-.836-.553 0-.553.836 0 .836zm12.544.419c1.104 0 1.104-1.674 0-1.674-1.105 0-1.105 1.674 0 1.674zm12.544.418c1.657 0 1.657-2.51 0-2.51s-1.657 2.51 0 2.51zm12.544.384c2.163 0 2.163-3.278 0-3.278s-2.163 3.278 0 3.278zm12.544.418c2.715 0 2.715-4.114 0-4.114s-2.715 4.114 0 4.114zm12.544.349c3.176 0 3.176-4.812 0-4.812-3.175 0-3.175 4.812 0 4.812zm12.545.384c3.681 0 3.681-5.58 0-5.58-3.682 0-3.682 5.58 0 5.58zm12.543.314c4.097 0 4.097-6.207 0-6.207-4.095 0-4.095 6.207 0 6.207zm12.545.313c4.51 0 4.51-6.834 0-6.834-4.511 0-4.511 6.834 0 6.834zm12.544.279c4.878 0 4.878-7.392 0-7.392s-4.878 7.392 0 7.392zm12.544.279c5.246 0 5.246-7.95 0-7.95s-5.246 7.95 0 7.95zm12.544.209c5.523 0 5.523-8.369 0-8.369-5.522 0-5.522 8.369 0 8.369zm12.544.14c5.707 0 5.707-8.648 0-8.648-5.706 0-5.706 8.648 0 8.648zm12.545.105c5.844 0 5.844-8.858 0-8.858-5.845 0-5.845 8.858 0 8.858zm12.544.034c5.89 0 5.89-8.926 0-8.926-5.891 0-5.891 8.926 0 8.926zm12.544-.034c5.845 0 5.845-8.858 0-8.858s-5.845 8.858 0 8.858zm12.544-.105c5.707 0 5.707-8.648 0-8.648s-5.707 8.648 0 8.648zm12.544-.14c5.523 0 5.523-8.369 0-8.369-5.522 0-5.522 8.369 0 8.369zm12.544-.209c5.247 0 5.247-7.95 0-7.95-5.246 0-5.246 7.95 0 7.95zm12.544-.244c4.925 0 4.925-7.462 0-7.462-4.924 0-4.924 7.462 0 7.462zm12.545-.279c4.556 0 4.556-6.904 0-6.904s-4.556 6.904 0 6.904zm12.544-.314c4.142 0 4.142-6.276 0-6.276s-4.142 6.276 0 6.276zm12.544-.348c3.682 0 3.682-5.58 0-5.58s-3.682 5.58 0 5.58zm12.544-.349c3.222 0 3.222-4.882 0-4.882-3.221 0-3.221 4.882 0 4.882zm12.544-.349c2.762 0 2.762-4.184 0-4.184-2.761 0-2.761 4.184 0 4.184zm12.545-.418c2.208 0 2.208-3.348 0-3.348-2.21 0-2.21 3.348 0 3.348zm12.544-.384c1.702 0 1.702-2.58 0-2.58-1.703 0-1.703 2.58 0 2.58zm12.544-.418c1.15 0 1.15-1.744 0-1.744-1.151 0-1.151 1.744 0 1.744zm12.544-.419c.598 0 .598-.906 0-.906s-.598.906 0 .906zm12.544-.383c.092 0 .092-.14 0-.14s-.092.14 0 .14zM222.82 231.24c.277 0 .277-.418 0-.418-.276 0-.276.418 0 .418zm12.545.419c.828 0 .828-1.255 0-1.255-.829 0-.829 1.255 0 1.255zm12.544.418c1.38 0 1.38-2.092 0-2.092-1.381 0-1.381 2.092 0 2.092zm12.544.454c1.979 0 1.979-2.999 0-2.999s-1.979 2.999 0 2.999zm12.544.383c2.485 0 2.485-3.766 0-3.766s-2.485 3.766 0 3.766zm12.544.419c3.037 0 3.037-4.603 0-4.603s-3.037 4.603 0 4.603zm12.544.383c3.544 0 3.544-5.37 0-5.37-3.543 0-3.543 5.37 0 5.37zm12.545.384c4.049 0 4.049-6.137 0-6.137-4.05 0-4.05 6.137 0 6.137zm12.543.349c4.511 0 4.511-6.835 0-6.835-4.509 0-4.509 6.835 0 6.835zm12.545.348c4.97 0 4.97-7.532 0-7.532s-4.97 7.532 0 7.532zm12.544.314c5.385 0 5.385-8.16 0-8.16s-5.385 8.16 0 8.16zm12.544.279c5.753 0 5.753-8.718 0-8.718s-5.753 8.718 0 8.718zm12.544.244c6.075 0 6.075-9.206 0-9.206s-6.075 9.206 0 9.206zm12.544.175c6.305 0 6.305-9.555 0-9.555s-6.305 9.555 0 9.555zm12.545.104c6.443 0 6.443-9.764 0-9.764-6.444 0-6.444 9.764 0 9.764zm12.544.035c6.489 0 6.489-9.833 0-9.833s-6.489 9.833 0 9.833zm12.544-.035c6.443 0 6.443-9.764 0-9.764s-6.443 9.764 0 9.764zm12.544-.104c6.305 0 6.305-9.555 0-9.555s-6.305 9.555 0 9.555zm12.544-.175c6.075 0 6.075-9.206 0-9.206s-6.075 9.206 0 9.206zm12.544-.209c5.799 0 5.799-8.788 0-8.788-5.798 0-5.798 8.788 0 8.788zm12.544-.279c5.431 0 5.431-8.229 0-8.229-5.43 0-5.43 8.229 0 8.229zm12.545-.314c5.016 0 5.016-7.602 0-7.602-5.017 0-5.017 7.602 0 7.602zm12.544-.349c4.556 0 4.556-6.904 0-6.904s-4.556 6.904 0 6.904zm12.544-.348c4.096 0 4.096-6.207 0-6.207s-4.096 6.207 0 6.207zm12.544-.384c3.59 0 3.59-5.44 0-5.44-3.589 0-3.589 5.44 0 5.44zm12.544-.383c3.084 0 3.084-4.673 0-4.673-3.083 0-3.083 4.673 0 4.673zm12.545-.419c2.531 0 2.531-3.836 0-3.836-2.532 0-2.532 3.836 0 3.836zm12.544-.418c1.978 0 1.978-2.999 0-2.999-1.979 0-1.979 2.999 0 2.999zm12.544-.419c1.427 0 1.427-2.162 0-2.162s-1.427 2.162 0 2.162zm12.544-.418c.874 0 .874-1.325 0-1.325s-.874 1.325 0 1.325zm12.544-.419c.322 0 .322-.488 0-.488s-.322.488 0 .488zm-388.869 12.366c.046 0 .046-.069 0-.069s-.046.069 0 .069zm12.544.314c.461 0 .461-.697 0-.697-.46 0-.46.697 0 .697zm12.545.454c1.058 0 1.058-1.605 0-1.605-1.059 0-1.059 1.605 0 1.605zm12.544.453c1.656 0 1.656-2.511 0-2.511-1.657 0-1.657 2.511 0 2.511zm12.544.418c2.209 0 2.209-3.347 0-3.347s-2.209 3.347 0 3.347zm12.544.419c2.761 0 2.761-4.185 0-4.185s-2.761 4.185 0 4.185zm12.544.418c3.314 0 3.314-5.021 0-5.021-3.313 0-3.313 5.021 0 5.021zm12.544.419c3.866 0 3.866-5.859 0-5.859s-3.866 5.859 0 5.859zm12.545.383c4.371 0 4.371-6.625 0-6.625-4.373 0-4.373 6.625 0 6.625zm12.543.384c4.879 0 4.879-7.393 0-7.393-4.878 0-4.878 7.393 0 7.393zm12.545.383c5.384 0 5.384-8.159 0-8.159-5.385 0-5.385 8.159 0 8.159zm12.544.349c5.845 0 5.845-8.857 0-8.857s-5.845 8.857 0 8.857zm12.544.314c6.259 0 6.259-9.485 0-9.485s-6.259 9.485 0 9.485zm12.544.279c6.627 0 6.627-10.043 0-10.043s-6.627 10.043 0 10.043zm12.544.209c6.904 0 6.904-10.461 0-10.461-6.903 0-6.903 10.461 0 10.461zm12.545.14c7.087 0 7.087-10.741 0-10.741-7.088 0-7.088 10.741 0 10.741zm12.544.034c7.133 0 7.133-10.81 0-10.81-7.134 0-7.134 10.81 0 10.81zm12.544-.034c7.087 0 7.087-10.741 0-10.741-7.088 0-7.088 10.741 0 10.741zm12.544-.14c6.903 0 6.903-10.461 0-10.461s-6.903 10.461 0 10.461zm12.544-.209c6.627 0 6.627-10.043 0-10.043s-6.627 10.043 0 10.043zm12.544-.244c6.306 0 6.306-9.555 0-9.555-6.304 0-6.304 9.555 0 9.555zm12.544-.314c5.891 0 5.891-8.927 0-8.927-5.89 0-5.89 8.927 0 8.927zm12.545-.349c5.43 0 5.43-8.229 0-8.229-5.431 0-5.431 8.229 0 8.229zm12.544-.383c4.924 0 4.924-7.463 0-7.463s-4.924 7.463 0 7.463zm12.544-.384c4.418 0 4.418-6.695 0-6.695s-4.418 6.695 0 6.695zm12.544-.383c3.912 0 3.912-5.928 0-5.928s-3.912 5.928 0 5.928zm12.544-.419c3.36 0 3.36-5.091 0-5.091-3.359 0-3.359 5.091 0 5.091zm12.545-.418c2.807 0 2.807-4.255 0-4.255-2.808 0-2.808 4.255 0 4.255zm12.544-.419c2.255 0 2.255-3.417 0-3.417s-2.255 3.417 0 3.417zm12.544-.418c1.703 0 1.703-2.581 0-2.581s-1.703 2.581 0 2.581zm12.544-.454c1.105 0 1.105-1.673 0-1.673s-1.105 1.673 0 1.673zm12.544-.453c.506 0 .506-.767 0-.767s-.506.767 0 .767zm12.544-.349c.046 0 .046-.069 0-.069s-.046.069 0 .069zm-401.413 12.61c.092 0 .092-.139 0-.139s-.092.139 0 .139zm12.544.419c.645 0 .645-.977 0-.977-.644 0-.644.977 0 .977zm12.545.453c1.242 0 1.242-1.883 0-1.883-1.243 0-1.243 1.883 0 1.883zm12.544.454c1.841 0 1.841-2.79 0-2.79s-1.841 2.79 0 2.79zm12.544.453c2.439 0 2.439-3.696 0-3.696-2.44 0-2.44 3.696 0 3.696zm12.544.418c2.991 0 2.991-4.533 0-4.533s-2.991 4.533 0 4.533zm12.544.454c3.59 0 3.59-5.44 0-5.44-3.589 0-3.589 5.44 0 5.44zm12.544.418c4.142 0 4.142-6.277 0-6.277s-4.142 6.277 0 6.277zm12.545.419c4.694 0 4.694-7.114 0-7.114-4.695 0-4.695 7.114 0 7.114zm12.543.418c5.247 0 5.247-7.951 0-7.951-5.246 0-5.246 7.951 0 7.951zm12.545.384c5.753 0 5.753-8.718 0-8.718s-5.753 8.718 0 8.718zm12.544.383c6.259 0 6.259-9.485 0-9.485s-6.259 9.485 0 9.485zm12.544.349c6.719 0 6.719-10.183 0-10.183s-6.719 10.183 0 10.183zm12.544.314c7.134 0 7.134-10.81 0-10.81-7.133 0-7.133 10.81 0 10.81zm12.544.244c7.456 0 7.456-11.298 0-11.298-7.455 0-7.455 11.298 0 11.298zm12.545.174c7.685 0 7.685-11.647 0-11.647-7.686 0-7.686 11.647 0 11.647zm12.544.07c7.777 0 7.777-11.787 0-11.787-7.778 0-7.778 11.787 0 11.787zm12.544-.07c7.685 0 7.685-11.647 0-11.647-7.686 0-7.686 11.647 0 11.647zm12.544-.174c7.455 0 7.455-11.298 0-11.298s-7.455 11.298 0 11.298zm12.544-.244c7.133 0 7.133-10.81 0-10.81s-7.133 10.81 0 10.81zm12.544-.279c6.765 0 6.765-10.252 0-10.252s-6.765 10.252 0 10.252zm12.544-.349c6.305 0 6.305-9.555 0-9.555s-6.305 9.555 0 9.555zm12.545-.384c5.798 0 5.798-8.787 0-8.787-5.799 0-5.799 8.787 0 8.787zm12.544-.383c5.292 0 5.292-8.02 0-8.02-5.293 0-5.293 8.02 0 8.02zm12.544-.419c4.74 0 4.74-7.183 0-7.183s-4.74 7.183 0 7.183zm12.544-.418c4.188 0 4.188-6.347 0-6.347s-4.188 6.347 0 6.347zm12.544-.418c3.636 0 3.636-5.51 0-5.51s-3.636 5.51 0 5.51zm12.545-.454c3.037 0 3.037-4.603 0-4.603-3.038 0-3.038 4.603 0 4.603zm12.544-.418c2.485 0 2.485-3.766 0-3.766-2.486 0-2.486 3.766 0 3.766zm12.544-.454c1.887 0 1.887-2.859 0-2.859s-1.887 2.859 0 2.859zm12.544-.453c1.289 0 1.289-1.953 0-1.953s-1.289 1.953 0 1.953zm12.544-.453c.69 0 .69-1.046 0-1.046s-.69 1.046 0 1.046zm12.544-.419c.138 0 .138-.209 0-.209s-.138.209 0 .209zm-401.413 12.61c.184 0 .184-.279 0-.279s-.184.279 0 .279zm12.544.454c.783 0 .783-1.186 0-1.186-.782 0-.782 1.186 0 1.186zm12.545.453c1.38 0 1.38-2.092 0-2.092-1.381 0-1.381 2.092 0 2.092zm12.544.488c2.025 0 2.025-3.068 0-3.068s-2.025 3.068 0 3.068zm12.544.453c2.623 0 2.623-3.975 0-3.975s-2.623 3.975 0 3.975zm12.544.419c3.176 0 3.176-4.812 0-4.812s-3.176 4.812 0 4.812zm12.544.453c3.774 0 3.774-5.718 0-5.718s-3.774 5.718 0 5.718zm12.544.454c4.372 0 4.372-6.626 0-6.626s-4.372 6.626 0 6.626zm12.545.418c4.924 0 4.924-7.462 0-7.462-4.925 0-4.925 7.462 0 7.462zm12.543.453c5.523 0 5.523-8.369 0-8.369-5.522 0-5.522 8.369 0 8.369zm12.545.419c6.075 0 6.075-9.206 0-9.206s-6.075 9.206 0 9.206zm12.544.418c6.627 0 6.627-10.042 0-10.042s-6.627 10.042 0 10.042zm12.544.384c7.133 0 7.133-10.81 0-10.81s-7.133 10.81 0 10.81zm12.544.349c7.594 0 7.594-11.508 0-11.508-7.593 0-7.593 11.508 0 11.508zm12.544.313c8.008 0 8.008-12.135 0-12.135-8.007 0-8.007 12.135 0 12.135zm12.545.175c8.237 0 8.237-12.484 0-12.484-8.238 0-8.238 12.484 0 12.484zm12.544.104c8.376 0 8.376-12.693 0-12.693s-8.376 12.693 0 12.693zm12.544-.069c8.284 0 8.284-12.554 0-12.554s-8.284 12.554 0 12.554zm12.544-.21c8.008 0 8.008-12.135 0-12.135s-8.008 12.135 0 12.135zm12.544-.279c7.64 0 7.64-11.577 0-11.577-7.639 0-7.639 11.577 0 11.577zm12.544-.348c7.18 0 7.18-10.88 0-10.88-7.179 0-7.179 10.88 0 10.88zm12.544-.419c6.628 0 6.628-10.042 0-10.042-6.627 0-6.627 10.042 0 10.042zm12.545-.383c6.121 0 6.121-9.276 0-9.276s-6.121 9.276 0 9.276zm12.544-.419c5.568 0 5.568-8.438 0-8.438-5.569 0-5.569 8.438 0 8.438zm12.544-.453c4.97 0 4.97-7.532 0-7.532s-4.97 7.532 0 7.532zm12.544-.419c4.418 0 4.418-6.695 0-6.695s-4.418 6.695 0 6.695zm12.544-.453c3.82 0 3.82-5.788 0-5.788-3.819 0-3.819 5.788 0 5.788zm12.545-.453c3.221 0 3.221-4.882 0-4.882-3.222 0-3.222 4.882 0 4.882zm12.544-.419c2.669 0 2.669-4.045 0-4.045-2.67 0-2.67 4.045 0 4.045zm12.544-.453c2.071 0 2.071-3.138 0-3.138s-2.071 3.138 0 3.138zm12.544-.488c1.426 0 1.426-2.162 0-2.162-1.427 0-1.427 2.162 0 2.162zm12.544-.453c.828 0 .828-1.256 0-1.256s-.828 1.256 0 1.256zm12.544-.454c.23 0 .23-.348 0-.348s-.23.348 0 .348zm-401.413 12.61c.276 0 .276-.418 0-.418s-.276.418 0 .418zm12.544.454c.875 0 .875-1.325 0-1.325-.874 0-.874 1.325 0 1.325zm12.545.488c1.518 0 1.518-2.302 0-2.302-1.519 0-1.519 2.302 0 2.302zm12.544.453c2.117 0 2.117-3.208 0-3.208s-2.117 3.208 0 3.208zm12.544.454c2.715 0 2.715-4.115 0-4.115-2.716 0-2.716 4.115 0 4.115zm12.544.453c3.314 0 3.314-5.021 0-5.021s-3.314 5.021 0 5.021zm12.544.453c3.912 0 3.912-5.928 0-5.928s-3.912 5.928 0 5.928zm12.544.454c4.511 0 4.511-6.835 0-6.835-4.51 0-4.51 6.835 0 6.835zm12.545.453c5.108 0 5.108-7.741 0-7.741-5.109 0-5.109 7.741 0 7.741zm12.543.453c5.707 0 5.707-8.648 0-8.648-5.706 0-5.706 8.648 0 8.648zm12.545.453c6.305 0 6.305-9.554 0-9.554s-6.305 9.554 0 9.554zm12.544.454c6.903 0 6.903-10.461 0-10.461s-6.903 10.461 0 10.461zm12.544.418c7.456 0 7.456-11.298 0-11.298-7.455 0-7.455 11.298 0 11.298zm12.544.419c8.008 0 8.008-12.135 0-12.135s-8.008 12.135 0 12.135zm12.544.348c8.468 0 8.468-12.832 0-12.832s-8.468 12.832 0 12.832zm12.545.279c8.836 0 8.836-13.39 0-13.39-8.837 0-8.837 13.39 0 13.39zm12.544.105c8.974 0 8.974-13.6 0-13.6-8.975 0-8.975 13.6 0 13.6zm12.544-.105c8.836 0 8.836-13.39 0-13.39s-8.836 13.39 0 13.39zm12.544-.244c8.514 0 8.514-12.902 0-12.902s-8.514 12.902 0 12.902zm12.544-.383c8.008 0 8.008-12.135 0-12.135s-8.008 12.135 0 12.135zm12.544-.384c7.502 0 7.502-11.368 0-11.368-7.501 0-7.501 11.368 0 11.368zm12.544-.418c6.95 0 6.95-10.531 0-10.531-6.949 0-6.949 10.531 0 10.531zm12.545-.454c6.351 0 6.351-9.624 0-9.624s-6.351 9.624 0 9.624zm12.544-.453c5.752 0 5.752-8.718 0-8.718-5.753 0-5.753 8.718 0 8.718zm12.544-.453c5.154 0 5.154-7.811 0-7.811s-5.154 7.811 0 7.811zm12.544-.454c4.556 0 4.556-6.904 0-6.904s-4.556 6.904 0 6.904zm12.544-.453c3.958 0 3.958-5.998 0-5.998-3.957 0-3.957 5.998 0 5.998zm12.545-.453c3.359 0 3.359-5.091 0-5.091-3.36 0-3.36 5.091 0 5.091zm12.544-.454c2.761 0 2.761-4.184 0-4.184-2.762 0-2.762 4.184 0 4.184zm12.544-.453c2.163 0 2.163-3.278 0-3.278s-2.163 3.278 0 3.278zm12.544-.453c1.565 0 1.565-2.372 0-2.372s-1.565 2.372 0 2.372zm12.544-.488c.92 0 .92-1.395 0-1.395s-.92 1.395 0 1.395zm12.544-.454c.323 0 .323-.488 0-.488-.322 0-.322.488 0 .488zm-401.413 12.576c.322 0 .322-.489 0-.489s-.322.489 0 .489zm12.544.488c.967 0 .967-1.465 0-1.465-.966 0-.966 1.465 0 1.465zm12.545.453c1.564 0 1.564-2.371 0-2.371-1.565 0-1.565 2.371 0 2.371zm12.544.488c2.209 0 2.209-3.348 0-3.348-2.21 0-2.21 3.348 0 3.348zm12.544.453c2.807 0 2.807-4.254 0-4.254-2.808 0-2.808 4.254 0 4.254zm12.544.454c3.405 0 3.405-5.161 0-5.161-3.406 0-3.406 5.161 0 5.161zm12.544.453c4.004 0 4.004-6.067 0-6.067s-4.004 6.067 0 6.067zm12.544.453c4.602 0 4.602-6.974 0-6.974s-4.602 6.974 0 6.974zm12.545.489c5.246 0 5.246-7.951 0-7.951-5.247 0-5.247 7.951 0 7.951zm12.543.453c5.845 0 5.845-8.857 0-8.857-5.844 0-5.844 8.857 0 8.857zm12.545.453c6.443 0 6.443-9.764 0-9.764s-6.443 9.764 0 9.764zm12.544.489c7.087 0 7.087-10.741 0-10.741s-7.087 10.741 0 10.741zm12.544.453c7.686 0 7.686-11.647 0-11.647s-7.686 11.647 0 11.647zm12.544.418c8.238 0 8.238-12.483 0-12.483s-8.238 12.483 0 12.483zm12.544.454c8.836 0 8.836-13.391 0-13.391s-8.836 13.391 0 13.391zm12.545.383c9.342 0 9.342-14.157 0-14.157-9.343 0-9.343 14.157 0 14.157zm12.544.174c9.572 0 9.572-14.506 0-14.506-9.573 0-9.573 14.506 0 14.506zm12.544-.139c9.388 0 9.388-14.227 0-14.227-9.389 0-9.389 14.227 0 14.227zm12.544-.384c8.882 0 8.882-13.46 0-13.46s-8.882 13.46 0 13.46zm12.544-.453c8.284 0 8.284-12.553 0-12.553s-8.284 12.553 0 12.553zm12.544-.418c7.732 0 7.732-11.717 0-11.717-7.731 0-7.731 11.717 0 11.717zm12.544-.454c7.134 0 7.134-10.81 0-10.81-7.133 0-7.133 10.81 0 10.81zm12.545-.488c6.489 0 6.489-9.833 0-9.833s-6.489 9.833 0 9.833zm12.544-.453c5.891 0 5.891-8.927 0-8.927s-5.891 8.927 0 8.927zm12.544-.453c5.293 0 5.293-8.021 0-8.021-5.292 0-5.292 8.021 0 8.021zm12.544-.489c4.648 0 4.648-7.044 0-7.044s-4.648 7.044 0 7.044zm12.544-.453c4.05 0 4.05-6.137 0-6.137s-4.05 6.137 0 6.137zm12.545-.453c3.451 0 3.451-5.231 0-5.231-3.452 0-3.452 5.231 0 5.231zm12.544-.454c2.853 0 2.853-4.324 0-4.324-2.854 0-2.854 4.324 0 4.324zm12.544-.453c2.255 0 2.255-3.417 0-3.417s-2.255 3.417 0 3.417zm12.544-.488c1.611 0 1.611-2.441 0-2.441s-1.611 2.441 0 2.441zm12.544-.453c1.013 0 1.013-1.535 0-1.535-1.012 0-1.012 1.535 0 1.535zm12.544-.489c.368 0 .368-.558 0-.558s-.368.558 0 .558zm-401.413 12.575c.368 0 .368-.557 0-.557s-.368.557 0 .557zm12.544.454c.967 0 .967-1.465 0-1.465-.966 0-.966 1.465 0 1.465zm12.545.488c1.61 0 1.61-2.441 0-2.441-1.611 0-1.611 2.441 0 2.441zm12.544.453c2.209 0 2.209-3.347 0-3.347-2.21 0-2.21 3.347 0 3.347zm12.544.489c2.853 0 2.853-4.324 0-4.324-2.854 0-2.854 4.324 0 4.324zm12.544.453c3.452 0 3.452-5.231 0-5.231s-3.452 5.231 0 5.231zm12.544.453c4.05 0 4.05-6.137 0-6.137s-4.05 6.137 0 6.137zm12.544.454c4.649 0 4.649-7.044 0-7.044-4.648 0-4.648 7.044 0 7.044zm12.545.488c5.292 0 5.292-8.021 0-8.021-5.293 0-5.293 8.021 0 8.021zm12.543.453c5.891 0 5.891-8.927 0-8.927-5.89 0-5.89 8.927 0 8.927zm12.545.453c6.489 0 6.489-9.833 0-9.833s-6.489 9.833 0 9.833zm12.544.488c7.133 0 7.133-10.809 0-10.809-7.134 0-7.134 10.809 0 10.809zm12.544.489c7.778 0 7.778-11.787 0-11.787s-7.778 11.787 0 11.787zm12.544.453c8.376 0 8.376-12.693 0-12.693s-8.376 12.693 0 12.693zm12.544.453c8.975 0 8.975-13.599 0-13.599-8.974 0-8.974 13.599 0 13.599zm12.545.454c9.572 0 9.572-14.507 0-14.507-9.573 0-9.573 14.507 0 14.507zm12.544.348c10.032 0 10.032-15.203 0-15.203-10.033 0-10.033 15.203 0 15.203zm12.544-.313c9.619 0 9.619-14.576 0-14.576s-9.619 14.576 0 14.576zm12.544-.454c9.02 0 9.02-13.669 0-13.669s-9.02 13.669 0 13.669zm12.544-.453c8.422 0 8.422-12.763 0-12.763s-8.422 12.763 0 12.763zm12.544-.488c7.778 0 7.778-11.787 0-11.787-7.777 0-7.777 11.787 0 11.787zm12.544-.454c7.18 0 7.18-10.879 0-10.879-7.179 0-7.179 10.879 0 10.879zm12.545-.488c6.535 0 6.535-9.903 0-9.903s-6.535 9.903 0 9.903zm12.544-.453c5.937 0 5.937-8.997 0-8.997s-5.937 8.997 0 8.997zm12.544-.453c5.339 0 5.339-8.09 0-8.09s-5.339 8.09 0 8.09zm12.544-.489c4.694 0 4.694-7.113 0-7.113s-4.694 7.113 0 7.113zm12.544-.453c4.096 0 4.096-6.207 0-6.207-4.095 0-4.095 6.207 0 6.207zm12.545-.453c3.497 0 3.497-5.301 0-5.301-3.498 0-3.498 5.301 0 5.301zm12.544-.454c2.899 0 2.899-4.393 0-4.393-2.9 0-2.9 4.393 0 4.393zm12.544-.488c2.255 0 2.255-3.417 0-3.417s-2.255 3.417 0 3.417zm12.544-.453c1.657 0 1.657-2.511 0-2.511s-1.657 2.511 0 2.511zm12.544-.488c1.013 0 1.013-1.535 0-1.535-1.012 0-1.012 1.535 0 1.535zm12.544-.454c.415 0 .415-.627 0-.627-.414 0-.414.627 0 .627zm-401.413 12.541c.368 0 .368-.558 0-.558s-.368.558 0 .558zm12.544.453c.967 0 .967-1.465 0-1.465-.966 0-.966 1.465 0 1.465zm12.545.453c1.564 0 1.564-2.371 0-2.371-1.565 0-1.565 2.371 0 2.371zm12.544.489c2.209 0 2.209-3.348 0-3.348-2.21 0-2.21 3.348 0 3.348zm12.544.453c2.807 0 2.807-4.254 0-4.254-2.808 0-2.808 4.254 0 4.254zm12.544.453c3.405 0 3.405-5.161 0-5.161-3.406 0-3.406 5.161 0 5.161zm12.544.454c4.004 0 4.004-6.068 0-6.068s-4.004 6.068 0 6.068zm12.544.488c4.649 0 4.649-7.044 0-7.044-4.648 0-4.648 7.044 0 7.044zm12.545.453c5.246 0 5.246-7.95 0-7.95-5.247 0-5.247 7.95 0 7.95zm12.543.453c5.845 0 5.845-8.857 0-8.857-5.844 0-5.844 8.857 0 8.857zm12.545.454c6.443 0 6.443-9.764 0-9.764s-6.443 9.764 0 9.764zm12.544.488c7.087 0 7.087-10.74 0-10.74s-7.087 10.74 0 10.74zm12.544.453c7.686 0 7.686-11.647 0-11.647s-7.686 11.647 0 11.647zm12.544.454c8.284 0 8.284-12.554 0-12.554s-8.284 12.554 0 12.554zm12.544.418c8.836 0 8.836-13.39 0-13.39s-8.836 13.39 0 13.39zm12.545.418c9.388 0 9.388-14.227 0-14.227-9.389 0-9.389 14.227 0 14.227zm12.544.175c9.618 0 9.618-14.576 0-14.576-9.619 0-9.619 14.576 0 14.576zm12.544-.175c9.388 0 9.388-14.227 0-14.227-9.389 0-9.389 14.227 0 14.227zm12.544-.383c8.882 0 8.882-13.46 0-13.46s-8.882 13.46 0 13.46zm12.544-.419c8.33 0 8.33-12.623 0-12.623s-8.33 12.623 0 12.623zm12.544-.453c7.732 0 7.732-11.716 0-11.716-7.731 0-7.731 11.716 0 11.716zm12.544-.453c7.134 0 7.134-10.81 0-10.81-7.133 0-7.133 10.81 0 10.81zm12.545-.454c6.535 0 6.535-9.903 0-9.903s-6.535 9.903 0 9.903zm12.544-.488c5.891 0 5.891-8.927 0-8.927s-5.891 8.927 0 8.927zm12.544-.453c5.293 0 5.293-8.02 0-8.02-5.292 0-5.292 8.02 0 8.02zm12.544-.453c4.694 0 4.694-7.114 0-7.114s-4.694 7.114 0 7.114zm12.544-.489c4.05 0 4.05-6.137 0-6.137s-4.05 6.137 0 6.137zm12.545-.453c3.451 0 3.451-5.23 0-5.23-3.452 0-3.452 5.23 0 5.23zm12.544-.453c2.853 0 2.853-4.324 0-4.324-2.854 0-2.854 4.324 0 4.324zm12.544-.453c2.255 0 2.255-3.418 0-3.418s-2.255 3.418 0 3.418zm12.544-.489c1.611 0 1.611-2.441 0-2.441s-1.611 2.441 0 2.441zm12.544-.453c1.013 0 1.013-1.534 0-1.534-1.012 0-1.012 1.534 0 1.534zm12.544-.488c.368 0 .368-.558 0-.558s-.368.558 0 .558zm-401.413 12.505c.276 0 .276-.418 0-.418s-.276.418 0 .418zm12.544.489c.921 0 .921-1.395 0-1.395-.92 0-.92 1.395 0 1.395zm12.545.453c1.518 0 1.518-2.302 0-2.302-1.519 0-1.519 2.302 0 2.302zm12.544.453c2.117 0 2.117-3.208 0-3.208s-2.117 3.208 0 3.208zm12.544.488c2.761 0 2.761-4.184 0-4.184s-2.761 4.184 0 4.184zm12.544.454c3.36 0 3.36-5.092 0-5.092s-3.36 5.092 0 5.092zm12.544.453c3.958 0 3.958-5.998 0-5.998s-3.958 5.998 0 5.998zm12.544.453c4.556 0 4.556-6.904 0-6.904s-4.556 6.904 0 6.904zm12.545.419c5.108 0 5.108-7.742 0-7.742-5.109 0-5.109 7.742 0 7.742zm12.543.453c5.707 0 5.707-8.648 0-8.648-5.706 0-5.706 8.648 0 8.648zm12.545.453c6.305 0 6.305-9.554 0-9.554s-6.305 9.554 0 9.554zm12.544.454c6.903 0 6.903-10.462 0-10.462s-6.903 10.462 0 10.462zm12.544.418c7.456 0 7.456-11.298 0-11.298-7.455 0-7.455 11.298 0 11.298zm12.544.419c8.008 0 8.008-12.135 0-12.135s-8.008 12.135 0 12.135zm12.544.383c8.514 0 8.514-12.902 0-12.902-8.513 0-8.513 12.902 0 12.902zm12.545.279c8.882 0 8.882-13.46 0-13.46-8.883 0-8.883 13.46 0 13.46zm12.544.105c9.02 0 9.02-13.67 0-13.67-9.021 0-9.021 13.67 0 13.67zm12.544-.105c8.882 0 8.882-13.46 0-13.46s-8.882 13.46 0 13.46zm12.544-.279c8.514 0 8.514-12.902 0-12.902s-8.514 12.902 0 12.902zm12.544-.349c8.054 0 8.054-12.204 0-12.204s-8.054 12.204 0 12.204zm12.544-.418c7.502 0 7.502-11.368 0-11.368-7.501 0-7.501 11.368 0 11.368zm12.544-.418c6.95 0 6.95-10.531 0-10.531-6.949 0-6.949 10.531 0 10.531zm12.545-.454c6.351 0 6.351-9.624 0-9.624s-6.351 9.624 0 9.624zm12.544-.453c5.752 0 5.752-8.718 0-8.718-5.753 0-5.753 8.718 0 8.718zm12.544-.453c5.154 0 5.154-7.811 0-7.811s-5.154 7.811 0 7.811zm12.544-.454c4.556 0 4.556-6.904 0-6.904s-4.556 6.904 0 6.904zm12.544-.418c4.004 0 4.004-6.068 0-6.068s-4.004 6.068 0 6.068zm12.545-.454c3.405 0 3.405-5.16 0-5.16-3.406 0-3.406 5.16 0 5.16zm12.544-.453c2.807 0 2.807-4.254 0-4.254-2.808 0-2.808 4.254 0 4.254zm12.544-.488c2.163 0 2.163-3.278 0-3.278s-2.163 3.278 0 3.278zm12.544-.453c1.565 0 1.565-2.372 0-2.372s-1.565 2.372 0 2.372zm12.544-.454c.967 0 .967-1.464 0-1.464-.966 0-.966 1.464 0 1.464zm12.544-.488c.323 0 .323-.488 0-.488-.322 0-.322.488 0 .488zm-401.413 12.506c.23 0 .23-.349 0-.349s-.23.349 0 .349zm12.544.418c.783 0 .783-1.186 0-1.186-.782 0-.782 1.186 0 1.186zm12.545.488c1.426 0 1.426-2.162 0-2.162-1.427 0-1.427 2.162 0 2.162zm12.544.454c2.025 0 2.025-3.069 0-3.069s-2.025 3.069 0 3.069zm12.544.453c2.623 0 2.623-3.975 0-3.975s-2.623 3.975 0 3.975zm12.544.453c3.221 0 3.221-4.882 0-4.882-3.222 0-3.222 4.882 0 4.882zm12.544.419c3.774 0 3.774-5.719 0-5.719s-3.774 5.719 0 5.719zm12.544.453c4.372 0 4.372-6.625 0-6.625s-4.372 6.625 0 6.625zm12.545.453c4.97 0 4.97-7.532 0-7.532-4.971 0-4.971 7.532 0 7.532zm12.543.419c5.523 0 5.523-8.369 0-8.369-5.522 0-5.522 8.369 0 8.369zm12.545.418c6.075 0 6.075-9.206 0-9.206s-6.075 9.206 0 9.206zm12.544.419c6.627 0 6.627-10.043 0-10.043s-6.627 10.043 0 10.043zm12.544.383c7.133 0 7.133-10.81 0-10.81s-7.133 10.81 0 10.81zm12.544.384c7.64 0 7.64-11.577 0-11.577-7.639 0-7.639 11.577 0 11.577zm12.544.279c8.008 0 8.008-12.135 0-12.135-8.007 0-8.007 12.135 0 12.135zm12.545.209c8.284 0 8.284-12.553 0-12.553s-8.284 12.553 0 12.553zm12.544.105c8.421 0 8.421-12.763 0-12.763-8.422 0-8.422 12.763 0 12.763zm12.544-.07c8.33 0 8.33-12.623 0-12.623s-8.33 12.623 0 12.623zm12.544-.209c8.054 0 8.054-12.205 0-12.205s-8.054 12.205 0 12.205zm12.544-.279c7.686 0 7.686-11.647 0-11.647-7.685 0-7.685 11.647 0 11.647zm12.544-.384c7.18 0 7.18-10.88 0-10.88-7.179 0-7.179 10.88 0 10.88zm12.544-.383c6.674 0 6.674-10.113 0-10.113-6.673 0-6.673 10.113 0 10.113zm12.545-.419c6.121 0 6.121-9.276 0-9.276s-6.121 9.276 0 9.276zm12.544-.418c5.568 0 5.568-8.439 0-8.439-5.569 0-5.569 8.439 0 8.439zm12.544-.454c4.97 0 4.97-7.532 0-7.532s-4.97 7.532 0 7.532zm12.544-.418c4.418 0 4.418-6.695 0-6.695s-4.418 6.695 0 6.695zm12.544-.453c3.82 0 3.82-5.789 0-5.789-3.819 0-3.819 5.789 0 5.789zm12.545-.419c3.267 0 3.267-4.952 0-4.952-3.268 0-3.268 4.952 0 4.952zm12.544-.453c2.669 0 2.669-4.045 0-4.045-2.67 0-2.67 4.045 0 4.045zm12.544-.454c2.071 0 2.071-3.138 0-3.138s-2.071 3.138 0 3.138zm12.544-.453c1.473 0 1.473-2.232 0-2.232s-1.473 2.232 0 2.232zm12.544-.488c.828 0 .828-1.255 0-1.255s-.828 1.255 0 1.255zm12.544-.453c.23 0 .23-.349 0-.349s-.23.349 0 .349zm-401.413 12.505c.138 0 .138-.209 0-.209s-.138.209 0 .209zm12.544.384c.645 0 .645-.977 0-.977-.644 0-.644.977 0 .977zm12.545.453c1.242 0 1.242-1.883 0-1.883-1.243 0-1.243 1.883 0 1.883zm12.544.453c1.841 0 1.841-2.789 0-2.789s-1.841 2.789 0 2.789zm12.544.454c2.439 0 2.439-3.697 0-3.697-2.44 0-2.44 3.697 0 3.697zm12.544.453c3.037 0 3.037-4.603 0-4.603-3.038 0-3.038 4.603 0 4.603zm12.544.418c3.59 0 3.59-5.439 0-5.439-3.589 0-3.589 5.439 0 5.439zm12.544.419c4.142 0 4.142-6.277 0-6.277s-4.142 6.277 0 6.277zm12.545.418c4.694 0 4.694-7.113 0-7.113-4.695 0-4.695 7.113 0 7.113zm12.543.419c5.247 0 5.247-7.951 0-7.951-5.246 0-5.246 7.951 0 7.951zm12.545.418c5.798 0 5.798-8.787 0-8.787-5.799 0-5.799 8.787 0 8.787zm12.544.384c6.305 0 6.305-9.555 0-9.555s-6.305 9.555 0 9.555zm12.544.349c6.765 0 6.765-10.252 0-10.252s-6.765 10.252 0 10.252zm12.544.313c7.179 0 7.179-10.879 0-10.879s-7.179 10.879 0 10.879zm12.544.244c7.502 0 7.502-11.367 0-11.367-7.501 0-7.501 11.367 0 11.367zm12.545.175c7.731 0 7.731-11.717 0-11.717-7.732 0-7.732 11.717 0 11.717zm12.544.035c7.777 0 7.777-11.787 0-11.787-7.778 0-7.778 11.787 0 11.787zm12.544-.035c7.732 0 7.732-11.717 0-11.717s-7.732 11.717 0 11.717zm12.544-.175c7.502 0 7.502-11.367 0-11.367-7.501 0-7.501 11.367 0 11.367zm12.544-.244c7.18 0 7.18-10.879 0-10.879-7.179 0-7.179 10.879 0 10.879zm12.544-.313c6.765 0 6.765-10.252 0-10.252s-6.765 10.252 0 10.252zm12.544-.349c6.305 0 6.305-9.555 0-9.555s-6.305 9.555 0 9.555zm12.545-.384c5.798 0 5.798-8.787 0-8.787-5.799 0-5.799 8.787 0 8.787zm12.544-.383c5.292 0 5.292-8.021 0-8.021-5.293 0-5.293 8.021 0 8.021zm12.544-.419c4.74 0 4.74-7.183 0-7.183s-4.74 7.183 0 7.183zm12.544-.418c4.188 0 4.188-6.347 0-6.347s-4.188 6.347 0 6.347zm12.544-.419c3.636 0 3.636-5.509 0-5.509s-3.636 5.509 0 5.509zm12.545-.418c3.083 0 3.083-4.673 0-4.673-3.084 0-3.084 4.673 0 4.673zm12.544-.454c2.485 0 2.485-3.766 0-3.766-2.486 0-2.486 3.766 0 3.766zm12.544-.453c1.887 0 1.887-2.859 0-2.859s-1.887 2.859 0 2.859zm12.544-.453c1.289 0 1.289-1.953 0-1.953s-1.289 1.953 0 1.953zm12.544-.453c.69 0 .69-1.047 0-1.047s-.69 1.047 0 1.047zm12.544-.419c.138 0 .138-.209 0-.209s-.138.209 0 .209zm-401.413 12.506c.046 0 .046-.07 0-.07s-.046.07 0 .07zm12.544.348c.506 0 .506-.767 0-.767s-.506.767 0 .767zm12.545.419c1.058 0 1.058-1.604 0-1.604-1.059 0-1.059 1.604 0 1.604zm12.544.453c1.656 0 1.656-2.511 0-2.511-1.657 0-1.657 2.511 0 2.511zm12.544.453c2.255 0 2.255-3.417 0-3.417s-2.255 3.417 0 3.417zm12.544.419c2.807 0 2.807-4.254 0-4.254s-2.807 4.254 0 4.254zm12.544.418c3.36 0 3.36-5.091 0-5.091-3.359 0-3.359 5.091 0 5.091zm12.544.384c3.866 0 3.866-5.858 0-5.858s-3.866 5.858 0 5.858zm12.545.418c4.418 0 4.418-6.695 0-6.695-4.419 0-4.419 6.695 0 6.695zm12.543.384c4.925 0 4.925-7.462 0-7.462-4.924 0-4.924 7.462 0 7.462zm12.545.384c5.43 0 5.43-8.23 0-8.23-5.431 0-5.431 8.23 0 8.23zm12.544.348c5.891 0 5.891-8.927 0-8.927s-5.891 8.927 0 8.927zm12.544.314c6.305 0 6.305-9.555 0-9.555s-6.305 9.555 0 9.555zm12.544.244c6.627 0 6.627-10.043 0-10.043s-6.627 10.043 0 10.043zm12.544.244c6.95 0 6.95-10.531 0-10.531-6.949 0-6.949 10.531 0 10.531zm12.545.14c7.133 0 7.133-10.81 0-10.81-7.134 0-7.134 10.81 0 10.81zm12.544.035c7.179 0 7.179-10.88 0-10.88-7.18 0-7.18 10.88 0 10.88zm12.544-.035c7.133 0 7.133-10.81 0-10.81-7.134 0-7.134 10.81 0 10.81zm12.544-.14c6.949 0 6.949-10.531 0-10.531s-6.949 10.531 0 10.531zm12.544-.209c6.673 0 6.673-10.113 0-10.113s-6.673 10.113 0 10.113zm12.544-.279c6.306 0 6.306-9.555 0-9.555-6.304 0-6.304 9.555 0 9.555zm12.544-.314c5.891 0 5.891-8.927 0-8.927-5.89 0-5.89 8.927 0 8.927zm12.545-.348c5.43 0 5.43-8.23 0-8.23-5.431 0-5.431 8.23 0 8.23zm12.544-.349c4.97 0 4.97-7.532 0-7.532-4.971 0-4.971 7.532 0 7.532zm12.544-.384c4.464 0 4.464-6.765 0-6.765s-4.464 6.765 0 6.765zm12.544-.418c3.912 0 3.912-5.928 0-5.928s-3.912 5.928 0 5.928zm12.544-.384c3.406 0 3.406-5.161 0-5.161-3.405 0-3.405 5.161 0 5.161zm12.545-.418c2.853 0 2.853-4.324 0-4.324-2.854 0-2.854 4.324 0 4.324zm12.544-.454c2.255 0 2.255-3.417 0-3.417s-2.255 3.417 0 3.417zm12.544-.418c1.703 0 1.703-2.581 0-2.581s-1.703 2.581 0 2.581zm12.544-.453c1.105 0 1.105-1.674 0-1.674s-1.105 1.674 0 1.674zm12.544-.419c.552 0 .552-.837 0-.837s-.552.837 0 .837zm12.544-.383c.046 0 .046-.07 0-.07s-.046.07 0 .07zM222.82 382.143c.277 0 .277-.418 0-.418-.276 0-.276.418 0 .418zm12.545.419c.828 0 .828-1.256 0-1.256-.829 0-.829 1.256 0 1.256zm12.544.453c1.426 0 1.426-2.162 0-2.162-1.427 0-1.427 2.162 0 2.162zm12.544.418c1.979 0 1.979-2.998 0-2.998s-1.979 2.998 0 2.998zm12.544.419c2.531 0 2.531-3.836 0-3.836s-2.531 3.836 0 3.836zm12.544.383c3.037 0 3.037-4.603 0-4.603s-3.037 4.603 0 4.603zm12.544.419c3.59 0 3.59-5.44 0-5.44s-3.59 5.44 0 5.44zm12.545.349c4.049 0 4.049-6.138 0-6.138-4.05 0-4.05 6.138 0 6.138zm12.543.383c4.557 0 4.557-6.904 0-6.904-4.556 0-4.556 6.904 0 6.904zm12.545.349c5.016 0 5.016-7.602 0-7.602-5.017 0-5.017 7.602 0 7.602zm12.544.314c5.43 0 5.43-8.23 0-8.23-5.431 0-5.431 8.23 0 8.23zm12.544.279c5.799 0 5.799-8.788 0-8.788s-5.799 8.788 0 8.788zm12.544.244c6.121 0 6.121-9.276 0-9.276s-6.121 9.276 0 9.276zm12.544.174c6.351 0 6.351-9.624 0-9.624-6.35 0-6.35 9.624 0 9.624zm12.545.105c6.488 0 6.488-9.834 0-9.834-6.49 0-6.49 9.834 0 9.834zm12.544.035c6.535 0 6.535-9.904 0-9.904s-6.535 9.904 0 9.904zm12.544 0c6.535 0 6.535-9.904 0-9.904s-6.535 9.904 0 9.904zm12.544-.14c6.351 0 6.351-9.624 0-9.624s-6.351 9.624 0 9.624zm12.544-.174c6.121 0 6.121-9.276 0-9.276s-6.121 9.276 0 9.276zm12.544-.244c5.799 0 5.799-8.788 0-8.788-5.798 0-5.798 8.788 0 8.788zm12.544-.279c5.431 0 5.431-8.23 0-8.23-5.43 0-5.43 8.23 0 8.23zm12.545-.314c5.016 0 5.016-7.602 0-7.602-5.017 0-5.017 7.602 0 7.602zm12.544-.314c4.602 0 4.602-6.974 0-6.974s-4.602 6.974 0 6.974zm12.544-.383c4.096 0 4.096-6.208 0-6.208s-4.096 6.208 0 6.208zm12.544-.349c3.636 0 3.636-5.51 0-5.51s-3.636 5.51 0 5.51zm12.544-.419c3.084 0 3.084-4.672 0-4.672-3.083 0-3.083 4.672 0 4.672zm12.545-.383c2.577 0 2.577-3.906 0-3.906-2.578 0-2.578 3.906 0 3.906zm12.544-.419c2.025 0 2.025-3.068 0-3.068s-2.025 3.068 0 3.068zm12.544-.418c1.473 0 1.473-2.232 0-2.232s-1.473 2.232 0 2.232zm12.544-.454c.874 0 .874-1.325 0-1.325s-.874 1.325 0 1.325zm12.544-.418c.322 0 .322-.488 0-.488s-.322.488 0 .488zM222.82 394.579c.092 0 .092-.14 0-.14s-.092.14 0 .14zm12.545.384c.598 0 .598-.907 0-.907-.599 0-.599.907 0 .907zm12.544.418c1.15 0 1.15-1.744 0-1.744-1.151 0-1.151 1.744 0 1.744zm12.544.418c1.703 0 1.703-2.58 0-2.58s-1.703 2.58 0 2.58zm12.544.384c2.209 0 2.209-3.348 0-3.348s-2.209 3.348 0 3.348zm12.544.384c2.715 0 2.715-4.115 0-4.115s-2.715 4.115 0 4.115zm12.544.383c3.222 0 3.222-4.882 0-4.882-3.221 0-3.221 4.882 0 4.882zm12.545.349c3.681 0 3.681-5.58 0-5.58-3.682 0-3.682 5.58 0 5.58zm12.543.348c4.143 0 4.143-6.276 0-6.276-4.141 0-4.141 6.276 0 6.276zm12.545.314c4.556 0 4.556-6.904 0-6.904s-4.556 6.904 0 6.904zm12.544.279c4.924 0 4.924-7.462 0-7.462s-4.924 7.462 0 7.462zm12.544.279c5.293 0 5.293-8.02 0-8.02-5.292 0-5.292 8.02 0 8.02zm12.544.21c5.569 0 5.569-8.439 0-8.439-5.568 0-5.568 8.439 0 8.439zm12.544.139c5.753 0 5.753-8.718 0-8.718-5.752 0-5.752 8.718 0 8.718zm12.545.105c5.89 0 5.89-8.927 0-8.927-5.891 0-5.891 8.927 0 8.927zm12.544.034c5.937 0 5.937-8.996 0-8.996s-5.937 8.996 0 8.996zm12.544-.034c5.891 0 5.891-8.927 0-8.927s-5.891 8.927 0 8.927zm12.544-.105c5.753 0 5.753-8.718 0-8.718s-5.753 8.718 0 8.718zm12.544-.139c5.569 0 5.569-8.439 0-8.439-5.568 0-5.568 8.439 0 8.439zm12.544-.21c5.293 0 5.293-8.02 0-8.02-5.292 0-5.292 8.02 0 8.02zm12.544-.244c4.971 0 4.971-7.532 0-7.532-4.97 0-4.97 7.532 0 7.532zm12.545-.279c4.602 0 4.602-6.974 0-6.974s-4.602 6.974 0 6.974zm12.544-.314c4.188 0 4.188-6.346 0-6.346s-4.188 6.346 0 6.346zm12.544-.348c3.728 0 3.728-5.649 0-5.649s-3.728 5.649 0 5.649zm12.544-.349c3.268 0 3.268-4.952 0-4.952s-3.268 4.952 0 4.952zm12.544-.384c2.762 0 2.762-4.184 0-4.184-2.761 0-2.761 4.184 0 4.184zm12.545-.383c2.255 0 2.255-3.417 0-3.417-2.256 0-2.256 3.417 0 3.417zm12.544-.419c1.702 0 1.702-2.58 0-2.58-1.703 0-1.703 2.58 0 2.58zm12.544-.383c1.196 0 1.196-1.813 0-1.813-1.197 0-1.197 1.813 0 1.813zm12.544-.419c.644 0 .644-.976 0-.976s-.644.976 0 .976zm12.544-.383c.138 0 .138-.209 0-.209s-.138.209 0 .209zm-363.78 12.715c.322 0 .322-.489 0-.489-.323 0-.323.489 0 .489zm12.544.383c.828 0 .828-1.255 0-1.255-.829 0-.829 1.255 0 1.255zm12.544.384c1.334 0 1.334-2.023 0-2.023-1.335 0-1.335 2.023 0 2.023zm12.544.418c1.887 0 1.887-2.859 0-2.859s-1.887 2.859 0 2.859zm12.544.349c2.347 0 2.347-3.557 0-3.557s-2.347 3.557 0 3.557zm12.544.348c2.808 0 2.808-4.254 0-4.254-2.807 0-2.807 4.254 0 4.254zm12.545.349c3.267 0 3.267-4.951 0-4.951-3.268 0-3.268 4.951 0 4.951zm12.543.314c3.682 0 3.682-5.579 0-5.579-3.681 0-3.681 5.579 0 5.579zm12.545.314c4.096 0 4.096-6.207 0-6.207s-4.096 6.207 0 6.207zm12.544.244c4.418 0 4.418-6.695 0-6.695s-4.418 6.695 0 6.695zm12.544.244c4.74 0 4.74-7.183 0-7.183s-4.74 7.183 0 7.183zm12.544.174c4.971 0 4.971-7.532 0-7.532-4.97 0-4.97 7.532 0 7.532zm12.544.14c5.155 0 5.155-7.811 0-7.811-5.154 0-5.154 7.811 0 7.811zm12.545.105c5.292 0 5.292-8.021 0-8.021-5.293 0-5.293 8.021 0 8.021zm12.544.034c5.338 0 5.338-8.09 0-8.09-5.339 0-5.339 8.09 0 8.09zm12.544-.034c5.292 0 5.292-8.021 0-8.021-5.293 0-5.293 8.021 0 8.021zm12.544-.105c5.155 0 5.155-7.811 0-7.811s-5.155 7.811 0 7.811zm12.544-.14c4.97 0 4.97-7.532 0-7.532s-4.97 7.532 0 7.532zm12.544-.174c4.741 0 4.741-7.183 0-7.183-4.74 0-4.74 7.183 0 7.183zm12.544-.209c4.465 0 4.465-6.765 0-6.765-4.464 0-4.464 6.765 0 6.765zm12.545-.279c4.096 0 4.096-6.207 0-6.207s-4.096 6.207 0 6.207zm12.544-.279c3.727 0 3.727-5.649 0-5.649-3.728 0-3.728 5.649 0 5.649zm12.544-.314c3.314 0 3.314-5.021 0-5.021s-3.314 5.021 0 5.021zm12.544-.349c2.854 0 2.854-4.324 0-4.324-2.853 0-2.853 4.324 0 4.324zm12.544-.348c2.393 0 2.393-3.627 0-3.627s-2.393 3.627 0 3.627zm12.545-.384c1.887 0 1.887-2.859 0-2.859s-1.887 2.859 0 2.859zm12.544-.383c1.38 0 1.38-2.093 0-2.093-1.381 0-1.381 2.093 0 2.093zm12.544-.384c.874 0 .874-1.325 0-1.325-.875 0-.875 1.325 0 1.325zm12.544-.418c.322 0 .322-.489 0-.489s-.322.489 0 .489zm-351.236 12.4c.091 0 .091-.139 0-.139-.093 0-.093.139 0 .139zm12.544.314c.506 0 .506-.767 0-.767-.507 0-.507.767 0 .767zm12.544.384c1.012 0 1.012-1.535 0-1.535-1.013 0-1.013 1.535 0 1.535zm12.544.348c1.473 0 1.473-2.231 0-2.231s-1.473 2.231 0 2.231zm12.544.384c1.979 0 1.979-2.999 0-2.999s-1.979 2.999 0 2.999zm12.544.314c2.394 0 2.394-3.627 0-3.627-2.393 0-2.393 3.627 0 3.627zm12.545.349c2.853 0 2.853-4.324 0-4.324-2.854 0-2.854 4.324 0 4.324zm12.543.279c3.222 0 3.222-4.882 0-4.882-3.221 0-3.221 4.882 0 4.882zm12.545.279c3.59 0 3.59-5.44 0-5.44s-3.59 5.44 0 5.44zm12.544.244c3.912 0 3.912-5.928 0-5.928s-3.912 5.928 0 5.928zm12.544.209c4.188 0 4.188-6.347 0-6.347s-4.188 6.347 0 6.347zm12.544.174c4.418 0 4.418-6.695 0-6.695s-4.418 6.695 0 6.695zm12.544.105c4.556 0 4.556-6.905 0-6.905s-4.556 6.905 0 6.905zm12.545.07c4.648 0 4.648-7.044 0-7.044-4.649 0-4.649 7.044 0 7.044zm12.544.034c4.694 0 4.694-7.113 0-7.113-4.695 0-4.695 7.113 0 7.113zm12.544 0c4.694 0 4.694-7.113 0-7.113s-4.694 7.113 0 7.113zm12.544-.104c4.556 0 4.556-6.905 0-6.905s-4.556 6.905 0 6.905zm12.544-.105c4.418 0 4.418-6.695 0-6.695s-4.418 6.695 0 6.695zm12.544-.174c4.188 0 4.188-6.347 0-6.347s-4.188 6.347 0 6.347zm12.544-.209c3.912 0 3.912-5.928 0-5.928-3.911 0-3.911 5.928 0 5.928zm12.545-.21c3.635 0 3.635-5.509 0-5.509-3.636 0-3.636 5.509 0 5.509zm12.544-.279c3.268 0 3.268-4.951 0-4.951s-3.268 4.951 0 4.951zm12.544-.313c2.853 0 2.853-4.324 0-4.324s-2.853 4.324 0 4.324zm12.544-.314c2.439 0 2.439-3.697 0-3.697s-2.439 3.697 0 3.697zm12.544-.349c1.979 0 1.979-2.999 0-2.999s-1.979 2.999 0 2.999zm12.545-.349c1.518 0 1.518-2.301 0-2.301-1.519 0-1.519 2.301 0 2.301zm12.544-.348c1.058 0 1.058-1.604 0-1.604-1.059 0-1.059 1.604 0 1.604zm12.544-.384c.552 0 .552-.837 0-.837-.553 0-.553.837 0 .837zm12.544-.349c.092 0 .092-.139 0-.139s-.092.139 0 .139zm-338.692 12.645c.184 0 .184-.279 0-.279-.185 0-.185.279 0 .279zm12.544.314c.598 0 .598-.906 0-.906-.599 0-.599.906 0 .906zm12.544.384c1.104 0 1.104-1.674 0-1.674s-1.104 1.674 0 1.674zm12.544.314c1.519 0 1.519-2.302 0-2.302s-1.519 2.302 0 2.302zm12.544.348c1.979 0 1.979-2.999 0-2.999s-1.979 2.999 0 2.999zm12.545.279c2.346 0 2.346-3.557 0-3.557-2.348 0-2.348 3.557 0 3.557zm12.543.314c2.762 0 2.762-4.184 0-4.184-2.761 0-2.761 4.184 0 4.184zm12.545.244c3.083 0 3.083-4.673 0-4.673-3.084 0-3.084 4.673 0 4.673zm12.544.209c3.36 0 3.36-5.091 0-5.091s-3.36 5.091 0 5.091zm12.544.21c3.636 0 3.636-5.51 0-5.51s-3.636 5.51 0 5.51zm12.544.139c3.82 0 3.82-5.788 0-5.788s-3.82 5.788 0 5.788zm12.544.105c3.958 0 3.958-5.998 0-5.998-3.957 0-3.957 5.998 0 5.998zm12.545.069c4.049 0 4.049-6.137 0-6.137-4.05 0-4.05 6.137 0 6.137zm12.544.035c4.096 0 4.096-6.207 0-6.207s-4.096 6.207 0 6.207zm12.544-.035c4.05 0 4.05-6.137 0-6.137s-4.05 6.137 0 6.137zm12.544-.034c4.004 0 4.004-6.068 0-6.068s-4.004 6.068 0 6.068zm12.544-.14c3.82 0 3.82-5.788 0-5.788-3.819 0-3.819 5.788 0 5.788zm12.544-.139c3.636 0 3.636-5.51 0-5.51-3.635 0-3.635 5.51 0 5.51zm12.544-.175c3.406 0 3.406-5.161 0-5.161-3.405 0-3.405 5.161 0 5.161zm12.545-.244c3.083 0 3.083-4.673 0-4.673-3.084 0-3.084 4.673 0 4.673zm12.544-.244c2.761 0 2.761-4.184 0-4.184-2.762 0-2.762 4.184 0 4.184zm12.544-.279c2.393 0 2.393-3.626 0-3.626s-2.393 3.626 0 3.626zm12.544-.314c1.979 0 1.979-2.999 0-2.999s-1.979 2.999 0 2.999zm12.544-.314c1.565 0 1.565-2.371 0-2.371-1.564 0-1.564 2.371 0 2.371zm12.545-.348c1.104 0 1.104-1.674 0-1.674-1.105 0-1.105 1.674 0 1.674zm12.544-.349c.644 0 .644-.976 0-.976-.645 0-.645.976 0 .976zm12.544-.349c.184 0 .184-.279 0-.279s-.184.279 0 .279zm-313.604 12.61c.23 0 .23-.348 0-.348s-.23.348 0 .348zm12.544.314c.644 0 .644-.976 0-.976s-.644.976 0 .976zm12.544.349c1.105 0 1.105-1.674 0-1.674s-1.105 1.674 0 1.674zm12.544.314c1.519 0 1.519-2.302 0-2.302-1.518 0-1.518 2.302 0 2.302zm12.545.279c1.887 0 1.887-2.86 0-2.86s-1.887 2.86 0 2.86zm12.543.244c2.21 0 2.21-3.348 0-3.348-2.208 0-2.208 3.348 0 3.348zm12.545.244c2.531 0 2.531-3.836 0-3.836s-2.531 3.836 0 3.836zm12.544.209c2.807 0 2.807-4.254 0-4.254s-2.807 4.254 0 4.254zm12.544.175c3.038 0 3.038-4.603 0-4.603-3.037 0-3.037 4.603 0 4.603zm12.544.139c3.222 0 3.222-4.882 0-4.882-3.221 0-3.221 4.882 0 4.882zm12.544.105c3.36 0 3.36-5.092 0-5.092-3.359 0-3.359 5.092 0 5.092zm12.545.069c3.451 0 3.451-5.23 0-5.23-3.452 0-3.452 5.23 0 5.23zm12.544.035c3.497 0 3.497-5.3 0-5.3-3.498 0-3.498 5.3 0 5.3zm12.544-.035c3.452 0 3.452-5.23 0-5.23s-3.452 5.23 0 5.23zm12.544-.035c3.406 0 3.406-5.16 0-5.16s-3.406 5.16 0 5.16zm12.544-.104c3.268 0 3.268-4.952 0-4.952-3.267 0-3.267 4.952 0 4.952zm12.544-.14c3.084 0 3.084-4.672 0-4.672-3.083 0-3.083 4.672 0 4.672zm12.544-.174c2.854 0 2.854-4.324 0-4.324-2.853 0-2.853 4.324 0 4.324zm12.545-.209c2.577 0 2.577-3.906 0-3.906s-2.577 3.906 0 3.906zm12.544-.244c2.255 0 2.255-3.418 0-3.418s-2.255 3.418 0 3.418zm12.544-.279c1.887 0 1.887-2.86 0-2.86s-1.887 2.86 0 2.86zm12.544-.279c1.519 0 1.519-2.302 0-2.302s-1.519 2.302 0 2.302zm12.544-.314c1.105 0 1.105-1.674 0-1.674-1.104 0-1.104 1.674 0 1.674zm12.545-.314c.69 0 .69-1.046 0-1.046-.691 0-.691 1.046 0 1.046zm12.544-.314c.276 0 .276-.418 0-.418-.277 0-.277.418 0 .418zM272.997 457.56c.23 0 .23-.349 0-.349s-.23.349 0 .349zm12.544.279c.598 0 .598-.907 0-.907s-.598.907 0 .907zm12.544.313c1.013 0 1.013-1.534 0-1.534-1.012 0-1.012 1.534 0 1.534zm12.545.279c1.38 0 1.38-2.092 0-2.092-1.381 0-1.381 2.092 0 2.092zm12.543.245c1.704 0 1.704-2.581 0-2.581-1.702 0-1.702 2.581 0 2.581zm12.545.209c1.979 0 1.979-2.999 0-2.999s-1.979 2.999 0 2.999zm12.544.209c2.255 0 2.255-3.417 0-3.417s-2.255 3.417 0 3.417zm12.544.174c2.485 0 2.485-3.766 0-3.766s-2.485 3.766 0 3.766zm12.544.14c2.67 0 2.67-4.045 0-4.045-2.669 0-2.669 4.045 0 4.045zm12.544.07c2.762 0 2.762-4.185 0-4.185-2.761 0-2.761 4.185 0 4.185zm12.545.069c2.853 0 2.853-4.324 0-4.324-2.854 0-2.854 4.324 0 4.324zm12.544.035c2.899 0 2.899-4.394 0-4.394-2.9 0-2.9 4.394 0 4.394zm12.544-.035c2.853 0 2.853-4.324 0-4.324s-2.853 4.324 0 4.324zm12.544-.035c2.807 0 2.807-4.254 0-4.254s-2.807 4.254 0 4.254zm12.544-.104c2.669 0 2.669-4.045 0-4.045s-2.669 4.045 0 4.045zm12.544-.14c2.485 0 2.485-3.766 0-3.766s-2.485 3.766 0 3.766zm12.544-.174c2.255 0 2.255-3.417 0-3.417s-2.255 3.417 0 3.417zm12.545-.174c2.025 0 2.025-3.069 0-3.069s-2.025 3.069 0 3.069zm12.544-.244c1.703 0 1.703-2.581 0-2.581s-1.703 2.581 0 2.581zm12.544-.245c1.381 0 1.381-2.092 0-2.092s-1.381 2.092 0 2.092zm12.544-.244c1.059 0 1.059-1.604 0-1.604-1.058 0-1.058 1.604 0 1.604zm12.544-.313c.645 0 .645-.977 0-.977-.644 0-.644.977 0 .977zm12.545-.279c.276 0 .276-.419 0-.419-.277 0-.277.419 0 .419zM285.541 470.1c.184 0 .184-.279 0-.279s-.184.279 0 .279zm12.544.244c.507 0 .507-.767 0-.767-.506 0-.506.767 0 .767zm12.545.244c.828 0 .828-1.255 0-1.255-.829 0-.829 1.255 0 1.255zm12.543.244c1.151 0 1.151-1.743 0-1.743-1.15 0-1.15 1.743 0 1.743zm12.545.21c1.426 0 1.426-2.163 0-2.163-1.427 0-1.427 2.163 0 2.163zm12.544.209c1.702 0 1.702-2.581 0-2.581-1.703 0-1.703 2.581 0 2.581zm12.544.139c1.887 0 1.887-2.859 0-2.859s-1.887 2.859 0 2.859zm12.544.14c2.071 0 2.071-3.139 0-3.139s-2.071 3.139 0 3.139zm12.544.07c2.163 0 2.163-3.278 0-3.278s-2.163 3.278 0 3.278zm12.545.069c2.255 0 2.255-3.417 0-3.417s-2.255 3.417 0 3.417zm12.544 0c2.255 0 2.255-3.417 0-3.417s-2.255 3.417 0 3.417zm12.544 0c2.255 0 2.255-3.417 0-3.417s-2.255 3.417 0 3.417zm12.544-.069c2.163 0 2.163-3.278 0-3.278s-2.163 3.278 0 3.278zm12.544-.07c2.071 0 2.071-3.139 0-3.139s-2.071 3.139 0 3.139zm12.544-.14c1.887 0 1.887-2.859 0-2.859-1.886 0-1.886 2.859 0 2.859zm12.544-.139c1.703 0 1.703-2.581 0-2.581-1.702 0-1.702 2.581 0 2.581zm12.545-.175c1.472 0 1.472-2.231 0-2.231-1.473 0-1.473 2.231 0 2.231zm12.544-.209c1.196 0 1.196-1.813 0-1.813-1.197 0-1.197 1.813 0 1.813zm12.544-.244c.874 0 .874-1.325 0-1.325s-.874 1.325 0 1.325zm12.544-.244c.552 0 .552-.837 0-.837s-.552.837 0 .837zm12.544-.279c.184 0 .184-.279 0-.279s-.184.279 0 .279zm-238.339 12.505c.092 0 .092-.139 0-.139s-.092.139 0 .139zm12.545.175c.322 0 .322-.488 0-.488-.323 0-.323.488 0 .488zm12.543.209c.599 0 .599-.907 0-.907-.598 0-.598.907 0 .907zm12.545.209c.874 0 .874-1.325 0-1.325-.875 0-.875 1.325 0 1.325zm12.544.175c1.104 0 1.104-1.674 0-1.674-1.105 0-1.105 1.674 0 1.674zm12.544.139c1.289 0 1.289-1.953 0-1.953s-1.289 1.953 0 1.953zm12.544.105c1.427 0 1.427-2.162 0-2.162s-1.427 2.162 0 2.162zm12.544.104c1.565 0 1.565-2.371 0-2.371-1.564 0-1.564 2.371 0 2.371zm12.545.035c1.61 0 1.61-2.441 0-2.441-1.611 0-1.611 2.441 0 2.441zm12.544.035c1.657 0 1.657-2.511 0-2.511s-1.657 2.511 0 2.511zm12.544-.035c1.611 0 1.611-2.441 0-2.441s-1.611 2.441 0 2.441zm12.544-.035c1.565 0 1.565-2.371 0-2.371s-1.565 2.371 0 2.371zm12.544-.069c1.473 0 1.473-2.232 0-2.232-1.472 0-1.472 2.232 0 2.232zm12.544-.14c1.289 0 1.289-1.953 0-1.953-1.288 0-1.288 1.953 0 1.953zm12.544-.139c1.105 0 1.105-1.674 0-1.674-1.104 0-1.104 1.674 0 1.674zm12.545-.175c.874 0 .874-1.325 0-1.325-.875 0-.875 1.325 0 1.325zm12.544-.174c.644 0 .644-.976 0-.976s-.644.976 0 .976zm12.544-.244c.322 0 .322-.488 0-.488s-.322.488 0 .488zm12.544-.175c.092 0 .092-.139 0-.139s-.092.139 0 .139zm-200.707 12.576c.093 0 .093-.14 0-.14-.091 0-.091.14 0 .14zm12.545.174c.322 0 .322-.488 0-.488s-.322.488 0 .488zm12.544.14c.506 0 .506-.768 0-.768s-.506.768 0 .768zm12.544.139c.69 0 .69-1.046 0-1.046s-.69 1.046 0 1.046zm12.544.105c.829 0 .829-1.256 0-1.256-.828 0-.828 1.256 0 1.256zm12.544.069c.921 0 .921-1.394 0-1.394-.92 0-.92 1.394 0 1.394zm12.545.07c1.012 0 1.012-1.534 0-1.534-1.013 0-1.013 1.534 0 1.534zm12.544 0c1.012 0 1.012-1.534 0-1.534-1.013 0-1.013 1.534 0 1.534zm12.544 0c1.012 0 1.012-1.534 0-1.534-1.013 0-1.013 1.534 0 1.534zm12.544-.035c.966 0 .966-1.464 0-1.464s-.966 1.464 0 1.464zm12.544-.104c.828 0 .828-1.256 0-1.256s-.828 1.256 0 1.256zm12.544-.105c.691 0 .691-1.046 0-1.046-.69 0-.69 1.046 0 1.046zm12.544-.105c.553 0 .553-.836 0-.836-.552 0-.552.836 0 .836zm12.545-.174c.322 0 .322-.488 0-.488s-.322.488 0 .488zm12.544-.139c.138 0 .138-.21 0-.21s-.138.21 0 .21zm-150.53 12.505c.046 0 .046-.07 0-.07s-.046.07 0 .07zm12.544.07c.138 0 .138-.209 0-.209s-.138.209 0 .209zm12.544.069c.23 0 .23-.348 0-.348s-.23.348 0 .348zm12.544.07c.323 0 .323-.488 0-.488-.322 0-.322.488 0 .488zm12.545.035c.368 0 .368-.558 0-.558-.369 0-.369.558 0 .558zm12.544.035c.414 0 .414-.628 0-.628-.415 0-.415.628 0 .628zm12.544-.035c.368 0 .368-.558 0-.558s-.368.558 0 .558zm12.544-.035c.322 0 .322-.488 0-.488s-.322.488 0 .488zm12.544-.07c.23 0 .23-.348 0-.348s-.23.348 0 .348zm12.544-.069c.139 0 .139-.209 0-.209-.138 0-.138.209 0 .209zm12.544-.07c.047 0 .047-.07 0-.07-.045 0-.045.07 0 .07z" fill="#6FB543"/><path d="M1387 399l-121 191.954L1285.09 627l82.52-80.884 12.63 44.838 98.38-108.432 24.38-8.206-5.87-33.702L1450.72 399l-53.15 58.319L1387 399z" fill="#6DB242"/></g></svg>