<svg xmlns="http://www.w3.org/2000/svg" viewBox="0 0 595 596"><path d="M231.22 64.3c.06 0 .06.09 0 .09s-.06-.09 0-.09zm15.35.13c.11 0 .11-.17 0-.17s-.11.17 0 .17zm15.35.08c.23 0 .23-.34 0-.34s-.22.34 0 .34zm15.35.09c.34 0 .34-.51 0-.51a.26.26 0 000 .51zm15.36.04c.39 0 .39-.6 0-.6s-.39.6 0 .6zm15.35.04c.45 0 .45-.68 0-.68s-.45.68 0 .68zm15.35 0c.45 0 .45-.68 0-.68s-.45.68 0 .68zm15.35-.08c.34 0 .34-.51 0-.51a.26.26 0 000 .51zm15.36-.05a.22.22 0 000-.43.22.22 0 000 .43zm15.35-.08c.17 0 .17-.26 0-.26s-.17.26 0 .26zm15.35-.09c.06 0 .06-.09 0-.09s-.06.09 0 .09zm-184.23 15.4c.11 0 .11-.17 0-.17s-.11.17 0 .17zm15.35.17a.26.26 0 000-.51c-.34 0-.34.51 0 .51zm15.36.17c.56 0 .56-.85 0-.85s-.56.85 0 .85zm15.35.17c.79 0 .79-1.19 0-1.19s-.79 1.19 0 1.19zm15.35.13c.96 0 .96-1.45 0-1.45s-.96 1.45 0 1.45zm15.35.08c1.07 0 1.07-1.62 0-1.62s-1.07 1.62 0 1.62zm15.36.09c1.18 0 1.18-1.79 0-1.79s-1.18 1.79 0 1.79zm15.35 0c1.18 0 1.18-1.79 0-1.79s-1.18 1.79 0 1.79zm15.35 0c1.18 0 1.18-1.79 0-1.79s-1.18 1.79 0 1.79zm15.35-.05c1.13 0 1.13-1.7 0-1.7s-1.13 1.7 0 1.7zm15.36-.12c.96 0 .96-1.45 0-1.45s-.96 1.45 0 1.45zm15.35-.13c.79 0 .79-1.19 0-1.19s-.79 1.19 0 1.19zm15.35-.13c.62 0 .62-.94 0-.94s-.62.94 0 .94zm15.35-.21a.26.26 0 000-.51c-.34 0-.34.51 0 .51zm15.36-.17c.11 0 .11-.17 0-.17s-.11.17 0 .17zM169.81 95.09a.04.04 0 000-.08.04.04 0 000 .08zm15.35.21a.26.26 0 000-.51c-.34 0-.34.51 0 .51zm15.35.26c.68 0 .68-1.02 0-1.02s-.68 1.02 0 1.02zm15.35.25c1.01 0 1.01-1.53 0-1.53s-1.01 1.53 0 1.53zm15.36.21c1.3 0 1.3-1.96 0-1.96s-1.29 1.96 0 1.96zm15.35.17c1.52 0 1.52-2.3 0-2.3s-1.52 2.3 0 2.3zm15.35.13c1.69 0 1.69-2.55 0-2.55s-1.69 2.55 0 2.55zm15.35.13c1.86 0 1.86-2.81 0-2.81s-1.86 2.81 0 2.81zm15.36.04c1.91 0 1.91-2.9 0-2.9s-1.92 2.9 0 2.9zm15.35.05c1.97 0 1.97-2.98 0-2.98s-1.97 2.98 0 2.98zm15.35-.05c1.92 0 1.92-2.9 0-2.9s-1.91 2.9 0 2.9zm15.35-.04c1.86 0 1.86-2.81 0-2.81s-1.86 2.81 0 2.81zm15.36-.08c1.75 0 1.75-2.64 0-2.64s-1.75 2.64 0 2.64zm15.35-.18c1.52 0 1.52-2.3 0-2.3s-1.52 2.3 0 2.3zm15.35-.17c1.29 0 1.29-1.96 0-1.96s-1.3 1.96 0 1.96zm15.35-.21c1.01 0 1.01-1.53 0-1.53s-1.01 1.53 0 1.53zm15.36-.21c.73 0 .73-1.11 0-1.11s-.73 1.11 0 1.11zm15.35-.26c.39 0 .39-.6 0-.6s-.39.6 0 .6zm15.35-.21c.11 0 .11-.17 0-.17s-.11.17 0 .17zm-291.7 15.4c.17 0 .17-.26 0-.26s-.17.26 0 .26zm15.36.29c.56 0 .56-.85 0-.85s-.56.85 0 .85zm15.35.34c1.01 0 1.01-1.53 0-1.53s-1.01 1.53 0 1.53zm15.35.26c1.35 0 1.35-2.04 0-2.04s-1.35 2.04 0 2.04zm15.35.26c1.69 0 1.69-2.55 0-2.55s-1.69 2.55 0 2.55zm15.36.25c2.03 0 2.03-3.07 0-3.07s-2.03 3.07 0 3.07zm15.35.17c2.25 0 2.25-3.41 0-3.41s-2.25 3.41 0 3.41zm15.35.17c2.48 0 2.48-3.75 0-3.75s-2.48 3.75 0 3.75zm15.35.09c2.59 0 2.59-3.92 0-3.92s-2.59 3.92 0 3.92zm15.36.08c2.7 0 2.7-4.09 0-4.09s-2.7 4.09 0 4.09zm15.35 0c2.7 0 2.7-4.09 0-4.09s-2.7 4.09 0 4.09zm15.35 0c2.7 0 2.7-4.09 0-4.09s-2.7 4.09 0 4.09zm15.35-.08c2.59 0 2.59-3.92 0-3.92s-2.59 3.92 0 3.92zm15.36-.09c2.48 0 2.48-3.75 0-3.75s-2.48 3.75 0 3.75zm15.35-.17c2.25 0 2.25-3.41 0-3.41s-2.25 3.41 0 3.41zm15.35-.17c2.03 0 2.03-3.07 0-3.07s-2.03 3.07 0 3.07zm15.35-.21c1.75 0 1.75-2.64 0-2.64s-1.75 2.64 0 2.64zm15.36-.26c1.41 0 1.41-2.13 0-2.13s-1.41 2.13 0 2.13zm15.35-.3c1.01 0 1.01-1.53 0-1.53s-1.01 1.53 0 1.53zm15.35-.29c.62 0 .62-.94 0-.94s-.62.94 0 .94zm15.36-.3c.23 0 .23-.34 0-.34s-.23.34 0 .34zM139.1 125.92c.23 0 .23-.34 0-.34s-.23.34 0 .34zm15.35.38c.73 0 .73-1.11 0-1.11s-.73 1.11 0 1.11zm15.36.34c1.18 0 1.18-1.79 0-1.79s-1.18 1.79 0 1.79zm15.35.35c1.63 0 1.63-2.47 0-2.47s-1.63 2.47 0 2.47zm15.35.29c2.03 0 2.03-3.06 0-3.06s-2.03 3.06 0 3.06zm15.35.3c2.42 0 2.42-3.66 0-3.66s-2.42 3.66 0 3.66zm15.36.21c2.7 0 2.7-4.09 0-4.09s-2.7 4.09 0 4.09zm15.35.22c2.99 0 2.99-4.51 0-4.51s-2.99 4.51 0 4.51zm15.35.17c3.21 0 3.21-4.85 0-4.85s-3.21 4.85 0 4.85zm15.35.08c3.32 0 3.32-5.02 0-5.02s-3.32 5.02 0 5.02zm15.36.09c3.44 0 3.44-5.19 0-5.19s-3.44 5.19 0 5.19zm15.35.04c3.49 0 3.49-5.28 0-5.28s-3.49 5.28 0 5.28zm15.35-.04c3.44 0 3.44-5.19 0-5.19s-3.43 5.19 0 5.19zm15.35-.05c3.38 0 3.38-5.11 0-5.11s-3.38 5.11 0 5.11zm15.36-.12c3.21 0 3.21-4.85 0-4.85s-3.21 4.85 0 4.85zm15.35-.17c2.99 0 2.99-4.51 0-4.51s-2.99 4.51 0 4.51zm15.35-.17c2.76 0 2.76-4.17 0-4.17s-2.76 4.17 0 4.17zm15.35-.26c2.42 0 2.42-3.66 0-3.66s-2.42 3.66 0 3.66zm15.36-.26c2.08 0 2.08-3.15 0-3.15s-2.08 3.15 0 3.15zm15.35-.33c1.63 0 1.63-2.47 0-2.47s-1.63 2.47 0 2.47zm15.35-.3c1.24 0 1.24-1.87 0-1.87s-1.24 1.87 0 1.87zm15.36-.39c.73 0 .73-1.11 0-1.11s-.73 1.11 0 1.11zm15.35-.34a.22.22 0 000-.43.22.22 0 000 .43zm-353.11 15.31c.22 0 .22-.34 0-.34s-.22.34 0 .34zm15.35.39c.73 0 .73-1.11 0-1.11s-.73 1.11 0 1.11zm15.35.42c1.3 0 1.3-1.96 0-1.96s-1.29 1.96 0 1.96zm15.36.38c1.8 0 1.8-2.72 0-2.72s-1.8 2.72 0 2.72zm15.35.34c2.25 0 2.25-3.4 0-3.4s-2.25 3.4 0 3.4zm15.35.3c2.65 0 2.65-4 0-4s-2.65 4 0 4zm15.35.3c3.04 0 3.04-4.6 0-4.6s-3.04 4.6 0 4.6zm15.36.26c3.38 0 3.38-5.11 0-5.11s-3.38 5.11 0 5.11zm15.35.21c3.66 0 3.66-5.53 0-5.53s-3.66 5.53 0 5.53zm15.35.17c3.89 0 3.89-5.88 0-5.88s-3.89 5.88 0 5.88zm15.35.13c4.06 0 4.06-6.13 0-6.13s-4.06 6.13 0 6.13zm15.36.08c4.17 0 4.17-6.3 0-6.3s-4.17 6.3 0 6.3zm15.35.04c4.22 0 4.22-6.38 0-6.38s-4.22 6.38 0 6.38zm15.35-.04c4.17 0 4.17-6.3 0-6.3s-4.17 6.3 0 6.3zm15.35-.04c4.11 0 4.11-6.22 0-6.22s-4.11 6.22 0 6.22zm15.36-.13c3.94 0 3.94-5.96 0-5.96s-3.94 5.96 0 5.96zm15.35-.17c3.72 0 3.72-5.62 0-5.62s-3.72 5.62 0 5.62zm15.35-.21c3.44 0 3.44-5.19 0-5.19s-3.44 5.19 0 5.19zm15.35-.26c3.1 0 3.1-4.68 0-4.68s-3.1 4.68 0 4.68zm15.36-.29c2.7 0 2.7-4.09 0-4.09s-2.7 4.09 0 4.09zm15.35-.3c2.31 0 2.31-3.49 0-3.49s-2.31 3.49 0 3.49zm15.35-.39c1.8 0 1.8-2.72 0-2.72s-1.8 2.72 0 2.72zm15.36-.34c1.35 0 1.35-2.04 0-2.04s-1.35 2.04 0 2.04zm15.35-.42c.79 0 .79-1.19 0-1.19s-.79 1.19 0 1.19zm15.35-.38a.22.22 0 000-.43.22.22 0 000 .43zM108.4 156.58c.17 0 .17-.26 0-.26s-.17.26 0 .26zm15.35.43c.73 0 .73-1.11 0-1.11s-.73 1.11 0 1.11zm15.35.42c1.29 0 1.29-1.96 0-1.96s-1.3 1.96 0 1.96zm15.35.43c1.86 0 1.86-2.81 0-2.81s-1.86 2.81 0 2.81zm15.36.38c2.37 0 2.37-3.58 0-3.58s-2.37 3.58 0 3.58zm15.35.39c2.87 0 2.87-4.34 0-4.34s-2.87 4.34 0 4.34zm15.35.34c3.32 0 3.32-5.02 0-5.02s-3.32 5.02 0 5.02zm15.35.29c3.72 0 3.72-5.62 0-5.62s-3.72 5.62 0 5.62zm15.36.26c4.05 0 4.05-6.13 0-6.13s-4.06 6.13 0 6.13zm15.35.25c4.39 0 4.39-6.64 0-6.64s-4.39 6.64 0 6.64zm15.35.18c4.62 0 4.62-6.98 0-6.98s-4.62 6.98 0 6.98zm15.35.12c4.79 0 4.79-7.24 0-7.24s-4.79 7.24 0 7.24zm15.36.09c4.9 0 4.9-7.41 0-7.41s-4.9 7.41 0 7.41zm15.35.04c4.96 0 4.96-7.49 0-7.49s-4.96 7.49 0 7.49zm15.35-.04c4.9 0 4.9-7.41 0-7.41s-4.9 7.41 0 7.41zm15.35-.04c4.84 0 4.84-7.32 0-7.32s-4.84 7.32 0 7.32zm15.36-.17c4.62 0 4.62-6.98 0-6.98s-4.62 6.98 0 6.98zm15.35-.18c4.39 0 4.39-6.64 0-6.64s-4.39 6.64 0 6.64zm15.35-.21c4.11 0 4.11-6.22 0-6.22s-4.11 6.22 0 6.22zm15.35-.3c3.72 0 3.72-5.62 0-5.62s-3.72 5.62 0 5.62zm15.36-.29c3.32 0 3.32-5.02 0-5.02s-3.32 5.02 0 5.02zm15.35-.34c2.87 0 2.87-4.34 0-4.34s-2.87 4.34 0 4.34zm15.35-.34c2.42 0 2.42-3.66 0-3.66s-2.42 3.66 0 3.66zm15.36-.43c1.86 0 1.86-2.81 0-2.81s-1.86 2.81 0 2.81zm15.35-.38c1.35 0 1.35-2.04 0-2.04s-1.35 2.04 0 2.04zm15.35-.47c.73 0 .73-1.11 0-1.11s-.73 1.11 0 1.11zm15.35-.39c.23 0 .23-.34 0-.34s-.23.34 0 .34zM93.04 171.85c.06 0 .06-.09 0-.09s-.06.09 0 .09zm15.36.38c.56 0 .56-.85 0-.85s-.56.85 0 .85zm15.35.47c1.18 0 1.18-1.79 0-1.79s-1.18 1.79 0 1.79zm15.35.47c1.8 0 1.8-2.72 0-2.72s-1.8 2.72 0 2.72zm15.35.43c2.37 0 2.37-3.58 0-3.58s-2.37 3.58 0 3.58zm15.36.42c2.93 0 2.93-4.43 0-4.43s-2.93 4.43 0 4.43zm15.35.38c3.44 0 3.44-5.19 0-5.19s-3.43 5.19 0 5.19zm15.35.34c3.89 0 3.89-5.88 0-5.88s-3.89 5.88 0 5.88zm15.35.35c4.34 0 4.34-6.56 0-6.56s-4.34 6.56 0 6.56zm15.36.29c4.73 0 4.73-7.15 0-7.15s-4.73 7.15 0 7.15zm15.35.26c5.07 0 5.07-7.66 0-7.66s-5.07 7.66 0 7.66zm15.35.21c5.35 0 5.35-8.09 0-8.09s-5.35 8.09 0 8.09zm15.35.13c5.52 0 5.52-8.35 0-8.35s-5.52 8.35 0 8.35zm15.36.08c5.63 0 5.63-8.51 0-8.51s-5.63 8.51 0 8.51zm15.35.05c5.69 0 5.69-8.6 0-8.6s-5.69 8.6 0 8.6zm15.35 0c5.69 0 5.69-8.6 0-8.6s-5.69 8.6 0 8.6zm15.35-.09c5.58 0 5.58-8.43 0-8.43s-5.58 8.43 0 8.43zm15.36-.17c5.35 0 5.35-8.09 0-8.09s-5.35 8.09 0 8.09zm15.35-.21c5.07 0 5.07-7.66 0-7.66s-5.07 7.66 0 7.66zm15.35-.26c4.73 0 4.73-7.15 0-7.15s-4.73 7.15 0 7.15zm15.35-.25c4.39 0 4.39-6.64 0-6.64s-4.39 6.64 0 6.64zm15.36-.34c3.94 0 3.94-5.96 0-5.96s-3.94 5.96 0 5.96zm15.35-.39c3.44 0 3.44-5.19 0-5.19s-3.43 5.19 0 5.19zm15.35-.38c2.93 0 2.93-4.43 0-4.43s-2.93 4.43 0 4.43zm15.36-.38c2.42 0 2.42-3.66 0-3.66s-2.42 3.66 0 3.66zm15.35-.43c1.86 0 1.86-2.81 0-2.81s-1.86 2.81 0 2.81zm15.35-.47c1.24 0 1.24-1.87 0-1.87s-1.24 1.87 0 1.87zm15.35-.46c.62 0 .62-.94 0-.94s-.62.94 0 .94zm15.35-.39c.11 0 .11-.17 0-.17s-.11.17 0 .17zM93.04 187.41c.34 0 .34-.51 0-.51s-.34.51 0 .51zm15.36.52c1.01 0 1.01-1.53 0-1.53s-1.01 1.53 0 1.53zm15.35.46c1.63 0 1.63-2.47 0-2.47s-1.63 2.47 0 2.47zm15.35.47c2.25 0 2.25-3.41 0-3.41s-2.25 3.41 0 3.41zm15.35.47c2.87 0 2.87-4.34 0-4.34s-2.87 4.34 0 4.34zm15.36.43c3.43 0 3.43-5.19 0-5.19s-3.44 5.19 0 5.19zm15.35.42c4 0 4-6.05 0-6.05s-4 6.05 0 6.05zm15.35.39c4.51 0 4.51-6.81 0-6.81s-4.51 6.81 0 6.81zm15.35.34c4.96 0 4.96-7.49 0-7.49s-4.96 7.49 0 7.49zm15.36.29c5.35 0 5.35-8.09 0-8.09s-5.35 8.09 0 8.09zm15.35.3c5.74 0 5.74-8.68 0-8.68s-5.75 8.68 0 8.68zm15.35.21c6.03 0 6.03-9.11 0-9.11s-6.03 9.11 0 9.11zm15.35.17c6.25 0 6.25-9.45 0-9.45s-6.25 9.45 0 9.45zm15.36.13c6.42 0 6.42-9.71 0-9.71s-6.42 9.71 0 9.71zm15.35.05c6.48 0 6.48-9.79 0-9.79s-6.48 9.79 0 9.79zm15.35-.05c6.42 0 6.42-9.71 0-9.71s-6.42 9.71 0 9.71zm15.35-.13c6.25 0 6.25-9.45 0-9.45s-6.25 9.45 0 9.45zm15.36-.12c6.08 0 6.08-9.2 0-9.2s-6.08 9.2 0 9.2zm15.35-.26c5.74 0 5.74-8.68 0-8.68s-5.74 8.68 0 8.68zm15.35-.25c5.41 0 5.41-8.17 0-8.17s-5.41 8.17 0 8.17zm15.35-.34c4.96 0 4.96-7.49 0-7.49s-4.96 7.49 0 7.49zm15.36-.34c4.51 0 4.51-6.81 0-6.81s-4.51 6.81 0 6.81zm15.35-.39c4 0 4-6.05 0-6.05s-4 6.05 0 6.05zm15.35-.38c3.49 0 3.49-5.28 0-5.28s-3.49 5.28 0 5.28zm15.36-.47c2.87 0 2.87-4.34 0-4.34s-2.87 4.34 0 4.34zm15.35-.43c2.31 0 2.31-3.49 0-3.49s-2.31 3.49 0 3.49zm15.35-.46c1.69 0 1.69-2.55 0-2.55s-1.69 2.55 0 2.55zm15.35-.51c1.01 0 1.01-1.53 0-1.53s-1.01 1.53 0 1.53zm15.35-.47c.39 0 .39-.6 0-.6s-.39.6 0 .6zM77.69 202.6c.11 0 .11-.17 0-.17s-.11.17 0 .17zm15.35.42c.68 0 .68-1.02 0-1.02s-.68 1.02 0 1.02zm15.36.51c1.35 0 1.35-2.04 0-2.04s-1.35 2.04 0 2.04zm15.35.51c2.03 0 2.03-3.07 0-3.07s-2.03 3.07 0 3.07zm15.35.47c2.65 0 2.65-4 0-4s-2.65 4 0 4zm15.35.51c3.32 0 3.32-5.02 0-5.02s-3.32 5.02 0 5.02zm15.36.43c3.89 0 3.89-5.87 0-5.87s-3.89 5.87 0 5.87zm15.35.47c4.51 0 4.51-6.81 0-6.81s-4.51 6.81 0 6.81zm15.35.38c5.01 0 5.01-7.58 0-7.58s-5.01 7.58 0 7.58zm15.35.38c5.52 0 5.52-8.34 0-8.34s-5.52 8.34 0 8.34zm15.36.34c5.97 0 5.97-9.02 0-9.02s-5.97 9.02 0 9.02zm15.35.35c6.42 0 6.42-9.71 0-9.71s-6.42 9.71 0 9.71zm15.35.25c6.76 0 6.76-10.22 0-10.22s-6.76 10.22 0 10.22zm15.35.17c6.98 0 6.98-10.56 0-10.56s-6.98 10.56 0 10.56zm15.36.13c7.15 0 7.15-10.81 0-10.81s-7.15 10.81 0 10.81zm15.35.04c7.21 0 7.21-10.9 0-10.9s-7.21 10.9 0 10.9zm15.35-.04c7.15 0 7.15-10.81 0-10.81s-7.15 10.81 0 10.81zm15.35-.13c6.98 0 6.98-10.56 0-10.56s-6.98 10.56 0 10.56zm15.36-.17c6.76 0 6.76-10.22 0-10.22s-6.76 10.22 0 10.22zm15.35-.25c6.42 0 6.42-9.71 0-9.71s-6.42 9.71 0 9.71zm15.35-.3c6.03 0 6.03-9.11 0-9.11s-6.03 9.11 0 9.11zm15.35-.34c5.58 0 5.58-8.43 0-8.43s-5.58 8.43 0 8.43zm15.36-.39c5.07 0 5.07-7.66 0-7.66s-5.07 7.66 0 7.66zm15.35-.42c4.51 0 4.51-6.81 0-6.81s-4.51 6.81 0 6.81zm15.35-.43c3.94 0 3.94-5.96 0-5.96s-3.94 5.96 0 5.96zm15.36-.42c3.38 0 3.38-5.11 0-5.11s-3.38 5.11 0 5.11zm15.35-.52c2.7 0 2.7-4.09 0-4.09s-2.7 4.09 0 4.09zm15.35-.46c2.08 0 2.08-3.15 0-3.15s-2.08 3.15 0 3.15zm15.35-.51c1.41 0 1.41-2.13 0-2.13s-1.41 2.13 0 2.13zm15.35-.51c.73 0 .73-1.11 0-1.11s-.73 1.11 0 1.11zm15.36-.47c.11 0 .11-.17 0-.17s-.11.17 0 .17zM77.69 218.12c.34 0 .34-.51 0-.51s-.34.51 0 .51zm15.35.51c1.01 0 1.01-1.53 0-1.53s-1.01 1.53 0 1.53zm15.36.51c1.69 0 1.69-2.55 0-2.55s-1.69 2.55 0 2.55zm15.35.56c2.42 0 2.42-3.66 0-3.66s-2.42 3.66 0 3.66zm15.35.46c3.04 0 3.04-4.6 0-4.6s-3.04 4.6 0 4.6zm15.35.51c3.72 0 3.72-5.62 0-5.62s-3.72 5.62 0 5.62zm15.36.47c4.34 0 4.34-6.55 0-6.55s-4.34 6.55 0 6.55zm15.35.47c4.96 0 4.96-7.49 0-7.49s-4.96 7.49 0 7.49zm15.35.43c5.52 0 5.52-8.34 0-8.34s-5.52 8.34 0 8.34zm15.35.42c6.08 0 6.08-9.2 0-9.2s-6.08 9.2 0 9.2zm15.36.39c6.59 0 6.59-9.96 0-9.96s-6.59 9.96 0 9.96zm15.35.34c7.04 0 7.04-10.64 0-10.64s-7.04 10.64 0 10.64zm15.35.29c7.43 0 7.43-11.24 0-11.24s-7.43 11.24 0 11.24zm15.35.22c7.72 0 7.72-11.67 0-11.67s-7.72 11.67 0 11.67zm15.36.12c7.89 0 7.89-11.92 0-11.92s-7.89 11.92 0 11.92zm15.35.05c7.94 0 7.94-12.01 0-12.01s-7.94 12.01 0 12.01zm15.35-.05c7.89 0 7.89-11.92 0-11.92s-7.88 11.92 0 11.92zm15.35-.12c7.72 0 7.72-11.67 0-11.67s-7.72 11.67 0 11.67zm15.36-.22c7.44 0 7.44-11.24 0-11.24s-7.43 11.24 0 11.24zm15.35-.25c7.1 0 7.1-10.73 0-10.73s-7.1 10.73 0 10.73zm15.35-.34c6.65 0 6.65-10.05 0-10.05s-6.65 10.05 0 10.05zm15.35-.38c6.14 0 6.14-9.28 0-9.28s-6.14 9.28 0 9.28zm15.36-.43c5.58 0 5.58-8.43 0-8.43s-5.58 8.43 0 8.43zm15.35-.43c5.01 0 5.01-7.58 0-7.58s-5.01 7.58 0 7.58zm15.35-.47c4.39 0 4.39-6.64 0-6.64s-4.39 6.64 0 6.64zm15.36-.46c3.77 0 3.77-5.71 0-5.71s-3.77 5.71 0 5.71zm15.35-.51c3.1 0 3.1-4.68 0-4.68s-3.1 4.68 0 4.68zm15.35-.51c2.42 0 2.42-3.66 0-3.66s-2.42 3.66 0 3.66zm15.35-.52c1.75 0 1.75-2.64 0-2.64s-1.75 2.64 0 2.64zm15.35-.51c1.07 0 1.07-1.62 0-1.62s-1.07 1.62 0 1.62zm15.36-.51c.39 0 .39-.6 0-.6s-.39.6 0 .6zm-475.93 15.1c.06 0 .06-.09 0-.09s-.06.09 0 .09zm15.35.38c.56 0 .56-.85 0-.85s-.56.85 0 .85zm15.35.56c1.3 0 1.3-1.96 0-1.96s-1.3 1.96 0 1.96zm15.36.55c2.03 0 2.03-3.06 0-3.06s-2.03 3.06 0 3.06zm15.35.51c2.7 0 2.7-4.09 0-4.09s-2.7 4.09 0 4.09zm15.35.51c3.38 0 3.38-5.11 0-5.11s-3.38 5.11 0 5.11zm15.35.51c4.06 0 4.06-6.13 0-6.13s-4.06 6.13 0 6.13zm15.36.51c4.73 0 4.73-7.15 0-7.15s-4.73 7.15 0 7.15zm15.35.47c5.35 0 5.35-8.09 0-8.09s-5.35 8.09 0 8.09zm15.35.47c5.97 0 5.97-9.03 0-9.03s-5.97 9.03 0 9.03zm15.35.47c6.59 0 6.59-9.96 0-9.96s-6.59 9.96 0 9.96zm15.36.42c7.15 0 7.15-10.81 0-10.81s-7.15 10.81 0 10.81zm15.35.39c7.66 0 7.66-11.58 0-11.58s-7.66 11.58 0 11.58zm15.35.34c8.11 0 8.11-12.26 0-12.26s-8.11 12.26 0 12.26zm15.35.25c8.45 0 8.45-12.77 0-12.77s-8.45 12.77 0 12.77zm15.36.17c8.67 0 8.67-13.11 0-13.11s-8.67 13.11 0 13.11zm15.35.05c8.73 0 8.73-13.2 0-13.2s-8.73 13.2 0 13.2zm15.35-.05c8.68 0 8.68-13.11 0-13.11s-8.67 13.11 0 13.11zm15.35-.17c8.45 0 8.45-12.77 0-12.77s-8.45 12.77 0 12.77zm15.36-.25c8.11 0 8.11-12.26 0-12.26s-8.11 12.26 0 12.26zm15.35-.3c7.72 0 7.72-11.66 0-11.66s-7.72 11.66 0 11.66zm15.35-.38c7.21 0 7.21-10.9 0-10.9s-7.21 10.9 0 10.9zm15.35-.43c6.65 0 6.65-10.05 0-10.05s-6.65 10.05 0 10.05zm15.36-.47c6.03 0 6.03-9.11 0-9.11s-6.03 9.11 0 9.11zm15.35-.47c5.41 0 5.41-8.17 0-8.17s-5.41 8.17 0 8.17zm15.35-.46c4.79 0 4.79-7.24 0-7.24s-4.79 7.24 0 7.24zm15.36-.52c4.11 0 4.11-6.22 0-6.22s-4.11 6.22 0 6.22zm15.35-.51c3.44 0 3.44-5.19 0-5.19s-3.44 5.19 0 5.19zm15.35-.51c2.76 0 2.76-4.17 0-4.17s-2.76 4.17 0 4.17zm15.35-.51c2.08 0 2.08-3.15 0-3.15s-2.08 3.15 0 3.15zm15.35-.55c1.35 0 1.35-2.04 0-2.04s-1.35 2.04 0 2.04zm15.36-.56c.62 0 .62-.94 0-.94s-.62.94 0 .94zm15.35-.42c.06 0 .06-.09 0-.09s-.06.09 0 .09zM62.34 248.65c.11 0 .11-.17 0-.17s-.11.17 0 .17zm15.35.51c.79 0 .79-1.19 0-1.19s-.79 1.19 0 1.19zm15.35.56c1.52 0 1.52-2.3 0-2.3s-1.52 2.3 0 2.3zm15.36.55c2.25 0 2.25-3.41 0-3.41s-2.25 3.41 0 3.41zm15.35.55c2.99 0 2.99-4.51 0-4.51s-2.99 4.51 0 4.51zm15.35.52c3.66 0 3.66-5.53 0-5.53s-3.66 5.53 0 5.53zm15.35.55c4.39 0 4.39-6.64 0-6.64s-4.39 6.64 0 6.64zm15.36.51c5.07 0 5.07-7.66 0-7.66s-5.07 7.66 0 7.66zm15.35.51c5.75 0 5.75-8.68 0-8.68s-5.75 8.68 0 8.68zm15.35.51c6.42 0 6.42-9.71 0-9.71s-6.42 9.71 0 9.71zm15.35.47c7.04 0 7.04-10.64 0-10.64s-7.04 10.64 0 10.64zm15.36.47c7.66 0 7.66-11.58 0-11.58s-7.66 11.58 0 11.58zm15.35.43c8.22 0 8.22-12.43 0-12.43s-8.22 12.43 0 12.43zm15.35.38c8.73 0 8.73-13.2 0-13.2s-8.73 13.2 0 13.2zm15.35.3c9.12 0 9.12-13.79 0-13.79s-9.12 13.79 0 13.79zm15.36.21c9.41 0 9.41-14.22 0-14.22s-9.41 14.22 0 14.22zm15.35.08c9.52 0 9.52-14.39 0-14.39s-9.52 14.39 0 14.39zm15.35-.08c9.41 0 9.41-14.22 0-14.22s-9.41 14.22 0 14.22zm15.35-.21c9.12 0 9.12-13.79 0-13.79s-9.12 13.79 0 13.79zm15.36-.3c8.73 0 8.73-13.2 0-13.2s-8.73 13.2 0 13.2zm15.35-.34c8.28 0 8.28-12.52 0-12.52s-8.28 12.52 0 12.52zm15.35-.43c7.72 0 7.72-11.66 0-11.66s-7.72 11.66 0 11.66zm15.35-.47c7.1 0 7.1-10.73 0-10.73s-7.1 10.73 0 10.73zm15.36-.47c6.48 0 6.48-9.79 0-9.79s-6.48 9.79 0 9.79zm15.35-.51c5.8 0 5.8-8.77 0-8.77s-5.8 8.77 0 8.77zm15.35-.51c5.13 0 5.13-7.75 0-7.75s-5.13 7.75 0 7.75zm15.36-.51c4.45 0 4.45-6.73 0-6.73s-4.45 6.73 0 6.73zm15.35-.55c3.72 0 3.72-5.62 0-5.62s-3.72 5.62 0 5.62zm15.35-.51c3.04 0 3.04-4.6 0-4.6s-3.04 4.6 0 4.6zm15.35-.55c2.31 0 2.31-3.49 0-3.49s-2.31 3.49 0 3.49zm15.35-.56c1.58 0 1.58-2.38 0-2.38s-1.58 2.38 0 2.38zm15.36-.55c.84 0 .84-1.28 0-1.28s-.85 1.28 0 1.28zm15.35-.51c.17 0 .17-.26 0-.26s-.17.26 0 .26zM62.34 264.09c.23 0 .23-.34 0-.34s-.23.34 0 .34zm15.35.55c.96 0 .96-1.45 0-1.45s-.96 1.45 0 1.45zm15.35.56c1.69 0 1.69-2.55 0-2.55s-1.69 2.55 0 2.55zm15.36.6c2.48 0 2.48-3.75 0-3.75s-2.48 3.75 0 3.75zm15.35.55c3.21 0 3.21-4.85 0-4.85s-3.21 4.85 0 4.85zm15.35.51c3.89 0 3.89-5.88 0-5.88s-3.89 5.88 0 5.88zm15.35.55c4.62 0 4.62-6.98 0-6.98s-4.62 6.98 0 6.98zm15.36.56c5.35 0 5.35-8.09 0-8.09s-5.35 8.09 0 8.09zm15.35.51c6.03 0 6.03-9.11 0-9.11s-6.03 9.11 0 9.11zm15.35.55c6.76 0 6.76-10.22 0-10.22s-6.76 10.22 0 10.22zm15.35.51c7.43 0 7.43-11.24 0-11.24s-7.43 11.24 0 11.24zm15.36.51c8.11 0 8.11-12.26 0-12.26s-8.11 12.26 0 12.26zm15.35.47c8.73 0 8.73-13.2 0-13.2s-8.73 13.2 0 13.2zm15.35.43c9.29 0 9.29-14.05 0-14.05s-9.29 14.05 0 14.05zm15.35.38c9.8 0 9.8-14.82 0-14.82s-9.8 14.82 0 14.82zm15.36.21c10.08 0 10.08-15.24 0-15.24s-10.08 15.24 0 15.24zm15.35.13c10.25 0 10.25-15.5 0-15.5s-10.25 15.5 0 15.5zm15.35-.09c10.14 0 10.14-15.33 0-15.33s-10.14 15.33 0 15.33zm15.35-.25c9.8 0 9.8-14.82 0-14.82s-9.8 14.82 0 14.82zm15.36-.34c9.35 0 9.35-14.13 0-14.13s-9.35 14.13 0 14.13zm15.35-.43c8.79 0 8.79-13.28 0-13.28s-8.79 13.28 0 13.28zm15.35-.51c8.11 0 8.11-12.26 0-12.26s-8.11 12.26 0 12.26zm15.35-.47c7.49 0 7.49-11.32 0-11.32s-7.49 11.32 0 11.32zm15.36-.51c6.82 0 6.82-10.3 0-10.3s-6.82 10.3 0 10.3zm15.35-.55c6.08 0 6.08-9.2 0-9.2s-6.08 9.2 0 9.2zm15.35-.51c5.41 0 5.41-8.17 0-8.17s-5.41 8.17 0 8.17zm15.36-.56c4.67 0 4.67-7.07 0-7.07s-4.68 7.07 0 7.07zm15.35-.55c3.94 0 3.94-5.96 0-5.96s-3.94 5.96 0 5.96zm15.35-.51c3.27 0 3.27-4.94 0-4.94s-3.27 4.94 0 4.94zm15.35-.55c2.53 0 2.53-3.83 0-3.83s-2.53 3.83 0 3.83zm15.35-.6c1.75 0 1.75-2.64 0-2.64s-1.75 2.64 0 2.64zm15.36-.55c1.01 0 1.01-1.53 0-1.53s-1.01 1.53 0 1.53zm15.35-.56c.28 0 .28-.42 0-.42s-.28.42 0 .42zm-491.28 15.4c.34 0 .34-.51 0-.51s-.34.51 0 .51zm15.35.55c1.07 0 1.07-1.62 0-1.62s-1.07 1.62 0 1.62zm15.35.6c1.86 0 1.86-2.81 0-2.81s-1.86 2.81 0 2.81zm15.36.55c2.59 0 2.59-3.92 0-3.92s-2.59 3.92 0 3.92zm15.35.56c3.32 0 3.32-5.02 0-5.02s-3.32 5.02 0 5.02zm15.35.55c4.06 0 4.06-6.13 0-6.13s-4.06 6.13 0 6.13zm15.35.55c4.79 0 4.79-7.24 0-7.24s-4.79 7.24 0 7.24zm15.36.56c5.52 0 5.52-8.34 0-8.34s-5.52 8.34 0 8.34zm15.35.55c6.25 0 6.25-9.45 0-9.45s-6.25 9.45 0 9.45zm15.35.55c6.98 0 6.98-10.56 0-10.56s-6.98 10.56 0 10.56zm15.35.56c7.72 0 7.72-11.66 0-11.66s-7.72 11.66 0 11.66zm15.36.55c8.45 0 8.45-12.77 0-12.77s-8.45 12.77 0 12.77zm15.35.51c9.12 0 9.12-13.79 0-13.79s-9.12 13.79 0 13.79zm15.35.51c9.8 0 9.8-14.82 0-14.82s-9.8 14.82 0 14.82zm15.35.43c10.36 0 10.36-15.67 0-15.67s-10.36 15.67 0 15.67zm15.36.34c10.82 0 10.82-16.35 0-16.35s-10.81 16.35 0 16.35zm15.35.13c10.98 0 10.98-16.6 0-16.6s-10.98 16.6 0 16.6zm15.35-.13c10.82 0 10.82-16.35 0-16.35s-10.81 16.35 0 16.35zm15.35-.3c10.42 0 10.42-15.75 0-15.75s-10.42 15.75 0 15.75zm15.36-.47c9.8 0 9.8-14.82 0-14.82s-9.8 14.82 0 14.82zm15.35-.47c9.18 0 9.18-13.88 0-13.88s-9.18 13.88 0 13.88zm15.35-.51c8.51 0 8.51-12.86 0-12.86s-8.51 12.86 0 12.86zm15.35-.55c7.77 0 7.77-11.75 0-11.75s-7.77 11.75 0 11.75zm15.36-.55c7.04 0 7.04-10.64 0-10.64s-7.04 10.64 0 10.64zm15.35-.56c6.31 0 6.31-9.54 0-9.54s-6.31 9.54 0 9.54zm15.35-.55c5.58 0 5.58-8.43 0-8.43s-5.58 8.43 0 8.43zm15.36-.56c4.84 0 4.84-7.32 0-7.32s-4.85 7.32 0 7.32zm15.35-.55c4.11 0 4.11-6.22 0-6.22s-4.11 6.22 0 6.22zm15.35-.55c3.38 0 3.38-5.11 0-5.11s-3.38 5.11 0 5.11zm15.35-.56c2.65 0 2.65-4 0-4s-2.65 4 0 4zm15.35-.55c1.92 0 1.92-2.89 0-2.89s-1.91 2.89 0 2.89zm15.36-.6c1.13 0 1.13-1.7 0-1.7s-1.13 1.7 0 1.7zm15.35-.55c.39 0 .39-.6 0-.6s-.4.6 0 .6zM62.34 294.92c.39 0 .39-.6 0-.6s-.39.6 0 .6zm15.35.6c1.18 0 1.18-1.79 0-1.79s-1.18 1.79 0 1.79zm15.35.55c1.91 0 1.91-2.9 0-2.9s-1.92 2.9 0 2.9zm15.36.6c2.7 0 2.7-4.09 0-4.09s-2.7 4.09 0 4.09zm15.35.55c3.44 0 3.44-5.19 0-5.19s-3.44 5.19 0 5.19zm15.35.56c4.17 0 4.17-6.3 0-6.3s-4.17 6.3 0 6.3zm15.35.55c4.9 0 4.9-7.41 0-7.41s-4.9 7.41 0 7.41zm15.36.55c5.63 0 5.63-8.52 0-8.52s-5.63 8.52 0 8.52zm15.35.6c6.42 0 6.42-9.71 0-9.71s-6.42 9.71 0 9.71zm15.35.55c7.15 0 7.15-10.81 0-10.81s-7.15 10.81 0 10.81zm15.35.56c7.88 0 7.88-11.92 0-11.92s-7.89 11.92 0 11.92zm15.36.59c8.67 0 8.67-13.11 0-13.11s-8.67 13.11 0 13.11zm15.35.56c9.41 0 9.41-14.22 0-14.22s-9.41 14.22 0 14.22zm15.35.51c10.08 0 10.08-15.24 0-15.24s-10.08 15.24 0 15.24zm15.35.55c10.81 0 10.81-16.35 0-16.35s-10.81 16.35 0 16.35zm15.36.47c11.43 0 11.43-17.28 0-17.28s-11.43 17.28 0 17.28zm15.35.21c11.72 0 11.72-17.71 0-17.71s-11.72 17.71 0 17.71zm15.35-.17c11.49 0 11.49-17.37 0-17.37s-11.49 17.37 0 17.37zm15.35-.47c10.87 0 10.87-16.43 0-16.43s-10.87 16.43 0 16.43zm15.36-.55c10.14 0 10.14-15.33 0-15.33s-10.14 15.33 0 15.33zm15.35-.51c9.46 0 9.46-14.3 0-14.3s-9.46 14.3 0 14.3zm15.35-.55c8.73 0 8.73-13.2 0-13.2s-8.73 13.2 0 13.2zm15.35-.6c7.94 0 7.94-12.01 0-12.01s-7.94 12.01 0 12.01zm15.36-.55c7.21 0 7.21-10.9 0-10.9s-7.21 10.9 0 10.9zm15.35-.56c6.48 0 6.48-9.79 0-9.79s-6.48 9.79 0 9.79zm15.35-.59c5.69 0 5.69-8.6 0-8.6s-5.69 8.6 0 8.6zm15.36-.56c4.96 0 4.96-7.49 0-7.49s-4.96 7.49 0 7.49zm15.35-.55c4.22 0 4.22-6.39 0-6.39s-4.22 6.39 0 6.39zm15.35-.55c3.49 0 3.49-5.28 0-5.28s-3.49 5.28 0 5.28zm15.35-.56c2.76 0 2.76-4.17 0-4.17s-2.76 4.17 0 4.17zm15.35-.59c1.97 0 1.97-2.98 0-2.98s-1.97 2.98 0 2.98zm15.36-.56c1.24 0 1.24-1.87 0-1.87s-1.24 1.87 0 1.87zm15.35-.59c.45 0 .45-.68 0-.68s-.45.68 0 .68zM62.34 310.32c.45 0 .45-.68 0-.68s-.45.68 0 .68zm15.35.55c1.18 0 1.18-1.79 0-1.79s-1.18 1.79 0 1.79zm15.35.6c1.97 0 1.97-2.98 0-2.98s-1.97 2.98 0 2.98zm15.36.55c2.7 0 2.7-4.09 0-4.09s-2.7 4.09 0 4.09zm15.35.6c3.49 0 3.49-5.28 0-5.28s-3.49 5.28 0 5.28zm15.35.55c4.22 0 4.22-6.39 0-6.39s-4.22 6.39 0 6.39zm15.35.56c4.96 0 4.96-7.49 0-7.49s-4.96 7.49 0 7.49zm15.36.55c5.69 0 5.69-8.6 0-8.6s-5.69 8.6 0 8.6zm15.35.59c6.48 0 6.48-9.79 0-9.79s-6.48 9.79 0 9.79zm15.35.56c7.21 0 7.21-10.9 0-10.9s-7.21 10.9 0 10.9zm15.35.55c7.94 0 7.94-12 0-12s-7.94 12 0 12zm15.36.6c8.73 0 8.73-13.2 0-13.2s-8.73 13.2 0 13.2zm15.35.59c9.52 0 9.52-14.39 0-14.39s-9.52 14.39 0 14.39zm15.35.56c10.25 0 10.25-15.5 0-15.5s-10.25 15.5 0 15.5zm15.35.55c10.98 0 10.98-16.6 0-16.6s-10.98 16.6 0 16.6zm15.36.55c11.72 0 11.72-17.71 0-17.71s-11.71 17.71 0 17.71zm15.35.43c12.28 0 12.28-18.56 0-18.56s-12.28 18.56 0 18.56zm15.35-.38c11.77 0 11.77-17.8 0-17.8s-11.77 17.8 0 17.8zm15.35-.56c11.04 0 11.04-16.69 0-16.69s-11.04 16.69 0 16.69zm15.36-.55c10.31 0 10.31-15.58 0-15.58s-10.31 15.58 0 15.58zm15.35-.6c9.52 0 9.52-14.39 0-14.39s-9.52 14.39 0 14.39zm15.35-.55c8.79 0 8.79-13.28 0-13.28s-8.79 13.28 0 13.28zm15.35-.6c8 0 8-12.09 0-12.09s-8 12.09 0 12.09zm15.36-.55c7.27 0 7.27-10.98 0-10.98s-7.27 10.98 0 10.98zm15.35-.55c6.53 0 6.53-9.88 0-9.88s-6.53 9.88 0 9.88zm15.35-.6c5.74 0 5.74-8.68 0-8.68s-5.74 8.68 0 8.68zm15.36-.55c5.01 0 5.01-7.58 0-7.58s-5.01 7.58 0 7.58zm15.35-.56c4.28 0 4.28-6.47 0-6.47s-4.28 6.47 0 6.47zm15.35-.55c3.55 0 3.55-5.36 0-5.36s-3.55 5.36 0 5.36zm15.35-.59c2.76 0 2.76-4.17 0-4.17s-2.76 4.17 0 4.17zm15.35-.56c2.03 0 2.03-3.06 0-3.06s-2.03 3.06 0 3.06zm15.36-.59c1.24 0 1.24-1.87 0-1.87s-1.24 1.87 0 1.87zm15.35-.56c.51 0 .51-.77 0-.77s-.51.77 0 .77zM62.34 325.67c.45 0 .45-.68 0-.68s-.45.68 0 .68zm15.35.56c1.18 0 1.18-1.79 0-1.79s-1.18 1.79 0 1.79zm15.35.55c1.91 0 1.91-2.89 0-2.89s-1.92 2.89 0 2.89zm15.36.59c2.7 0 2.7-4.09 0-4.09s-2.7 4.09 0 4.09zm15.35.56c3.44 0 3.44-5.19 0-5.19s-3.44 5.19 0 5.19zm15.35.55c4.17 0 4.17-6.3 0-6.3s-4.17 6.3 0 6.3zm15.35.56c4.9 0 4.9-7.41 0-7.41s-4.9 7.41 0 7.41zm15.36.59c5.69 0 5.69-8.6 0-8.6s-5.69 8.6 0 8.6zm15.35.55c6.42 0 6.42-9.71 0-9.71s-6.42 9.71 0 9.71zm15.35.56c7.15 0 7.15-10.81 0-10.81s-7.15 10.81 0 10.81zm15.35.55c7.88 0 7.88-11.92 0-11.92s-7.89 11.92 0 11.92zm15.36.6c8.67 0 8.67-13.11 0-13.11s-8.67 13.11 0 13.11zm15.35.55c9.41 0 9.41-14.22 0-14.22s-9.41 14.22 0 14.22zm15.35.55c10.14 0 10.14-15.33 0-15.33s-10.14 15.33 0 15.33zm15.35.52c10.81 0 10.81-16.35 0-16.35s-10.81 16.35 0 16.35zm15.36.51c11.49 0 11.49-17.37 0-17.37s-11.49 17.37 0 17.37zm15.35.21c11.77 0 11.77-17.8 0-17.8s-11.77 17.8 0 17.8zm15.35-.21c11.49 0 11.49-17.37 0-17.37s-11.49 17.37 0 17.37zm15.35-.47c10.87 0 10.87-16.43 0-16.43s-10.87 16.43 0 16.43zm15.36-.51c10.2 0 10.2-15.41 0-15.41s-10.19 15.41 0 15.41zm15.35-.56c9.46 0 9.46-14.3 0-14.3s-9.46 14.3 0 14.3zm15.35-.55c8.73 0 8.73-13.2 0-13.2s-8.73 13.2 0 13.2zm15.35-.55c8 0 8-12.09 0-12.09s-8 12.09 0 12.09zm15.36-.6c7.21 0 7.21-10.9 0-10.9s-7.21 10.9 0 10.9zm15.35-.55c6.48 0 6.48-9.79 0-9.79s-6.48 9.79 0 9.79zm15.35-.56c5.74 0 5.74-8.68 0-8.68s-5.74 8.68 0 8.68zm15.36-.59c4.96 0 4.96-7.49 0-7.49s-4.96 7.49 0 7.49zm15.35-.56c4.22 0 4.22-6.39 0-6.39s-4.22 6.39 0 6.39zm15.35-.55c3.49 0 3.49-5.28 0-5.28s-3.49 5.28 0 5.28zm15.35-.55c2.76 0 2.76-4.17 0-4.17s-2.76 4.17 0 4.17zm15.35-.6c1.97 0 1.97-2.98 0-2.98s-1.97 2.98 0 2.98zm15.36-.55c1.24 0 1.24-1.87 0-1.87s-1.24 1.87 0 1.87zm15.35-.6c.45 0 .45-.68 0-.68s-.45.68 0 .68zM62.34 340.94c.34 0 .34-.51 0-.51s-.34.51 0 .51zm15.35.6c1.13 0 1.13-1.7 0-1.7s-1.13 1.7 0 1.7zm15.35.55c1.86 0 1.86-2.81 0-2.81s-1.86 2.81 0 2.81zm15.36.55c2.59 0 2.59-3.92 0-3.92s-2.59 3.92 0 3.92zm15.35.6c3.38 0 3.38-5.11 0-5.11s-3.38 5.11 0 5.11zm15.35.55c4.11 0 4.11-6.21 0-6.21s-4.11 6.21 0 6.21zm15.35.56c4.84 0 4.84-7.32 0-7.32s-4.84 7.32 0 7.32zm15.36.55c5.58 0 5.58-8.43 0-8.43s-5.58 8.43 0 8.43zm15.35.51c6.25 0 6.25-9.45 0-9.45s-6.25 9.45 0 9.45zm15.35.55c6.98 0 6.98-10.56 0-10.56s-6.98 10.56 0 10.56zm15.35.56c7.72 0 7.72-11.66 0-11.66s-7.72 11.66 0 11.66zm15.36.55c8.45 0 8.45-12.77 0-12.77s-8.45 12.77 0 12.77zm15.35.51c9.12 0 9.12-13.79 0-13.79s-9.12 13.79 0 13.79zm15.35.51c9.8 0 9.8-14.82 0-14.82s-9.8 14.82 0 14.82zm15.35.47c10.42 0 10.42-15.75 0-15.75s-10.42 15.75 0 15.75zm15.36.34c10.87 0 10.87-16.43 0-16.43s-10.87 16.43 0 16.43zm15.35.13c11.04 0 11.04-16.69 0-16.69s-11.04 16.69 0 16.69zm15.35-.13c10.87 0 10.87-16.43 0-16.43s-10.87 16.43 0 16.43zm15.35-.34c10.42 0 10.42-15.75 0-15.75s-10.42 15.75 0 15.75zm15.36-.43c9.86 0 9.86-14.9 0-14.9s-9.86 14.9 0 14.9zm15.35-.51c9.18 0 9.18-13.88 0-13.88s-9.18 13.88 0 13.88zm15.35-.51c8.51 0 8.51-12.86 0-12.86s-8.51 12.86 0 12.86zm15.35-.55c7.77 0 7.77-11.75 0-11.75s-7.77 11.75 0 11.75zm15.36-.55c7.04 0 7.04-10.64 0-10.64s-7.04 10.64 0 10.64zm15.35-.56c6.31 0 6.31-9.54 0-9.54s-6.31 9.54 0 9.54zm15.35-.55c5.58 0 5.58-8.43 0-8.43s-5.58 8.43 0 8.43zm15.36-.51c4.9 0 4.9-7.41 0-7.41s-4.9 7.41 0 7.41zm15.35-.56c4.17 0 4.17-6.3 0-6.3s-4.17 6.3 0 6.3zm15.35-.55c3.44 0 3.44-5.19 0-5.19s-3.44 5.19 0 5.19zm15.35-.6c2.65 0 2.65-4 0-4s-2.65 4 0 4zm15.35-.55c1.92 0 1.92-2.9 0-2.9s-1.91 2.9 0 2.9zm15.36-.55c1.18 0 1.18-1.79 0-1.79s-1.18 1.79 0 1.79zm15.35-.6c.39 0 .39-.6 0-.6s-.4.6 0 .6zM62.34 356.25a.22.22 0 000-.43.22.22 0 000 .43zm15.35.51c.96 0 .96-1.45 0-1.45s-.96 1.45 0 1.45zm15.35.6c1.75 0 1.75-2.64 0-2.64s-1.75 2.64 0 2.64zm15.36.55c2.48 0 2.48-3.75 0-3.75s-2.48 3.75 0 3.75zm15.35.55c3.21 0 3.21-4.85 0-4.85s-3.21 4.85 0 4.85zm15.35.56c3.94 0 3.94-5.96 0-5.96s-3.94 5.96 0 5.96zm15.35.51c4.62 0 4.62-6.98 0-6.98s-4.62 6.98 0 6.98zm15.36.55c5.35 0 5.35-8.09 0-8.09s-5.35 8.09 0 8.09zm15.35.55c6.08 0 6.08-9.2 0-9.2s-6.08 9.2 0 9.2zm15.35.51c6.76 0 6.76-10.22 0-10.22s-6.76 10.22 0 10.22zm15.35.51c7.43 0 7.43-11.24 0-11.24s-7.43 11.24 0 11.24zm15.36.52c8.11 0 8.11-12.26 0-12.26s-8.11 12.26 0 12.26zm15.35.47c8.73 0 8.73-13.2 0-13.2s-8.73 13.2 0 13.2zm15.35.46c9.35 0 9.35-14.13 0-14.13s-9.35 14.13 0 14.13zm15.35.34c9.8 0 9.8-14.82 0-14.82s-9.8 14.82 0 14.82zm15.36.26c10.14 0 10.14-15.33 0-15.33s-10.14 15.33 0 15.33zm15.35.13c10.31 0 10.31-15.58 0-15.58s-10.31 15.58 0 15.58zm15.35-.09c10.2 0 10.2-15.41 0-15.41s-10.19 15.41 0 15.41zm15.35-.25c9.86 0 9.86-14.9 0-14.9s-9.86 14.9 0 14.9zm15.36-.35c9.41 0 9.41-14.22 0-14.22s-9.4 14.22 0 14.22zm15.35-.46c8.79 0 8.79-13.28 0-13.28s-8.79 13.28 0 13.28zm15.35-.47c8.17 0 8.17-12.35 0-12.35s-8.17 12.35 0 12.35zm15.35-.51c7.49 0 7.49-11.32 0-11.32s-7.49 11.32 0 11.32zm15.36-.51c6.82 0 6.82-10.3 0-10.3s-6.82 10.3 0 10.3zm15.35-.56c6.08 0 6.08-9.2 0-9.2s-6.08 9.2 0 9.2zm15.35-.51c5.41 0 5.41-8.17 0-8.17s-5.41 8.17 0 8.17zm15.36-.55c4.67 0 4.67-7.07 0-7.07s-4.68 7.07 0 7.07zm15.35-.51c4 0 4-6.05 0-6.05s-4 6.05 0 6.05zm15.35-.55c3.27 0 3.27-4.94 0-4.94s-3.27 4.94 0 4.94zm15.35-.56c2.53 0 2.53-3.83 0-3.83s-2.53 3.83 0 3.83zm15.35-.55c1.8 0 1.8-2.72 0-2.72s-1.8 2.72 0 2.72zm15.36-.6c1.01 0 1.01-1.53 0-1.53s-1.01 1.53 0 1.53zm15.35-.55a.22.22 0 000-.43.22.22 0 000 .43zM62.34 371.52c.17 0 .17-.26 0-.26s-.17.26 0 .26zm15.35.46c.79 0 .79-1.19 0-1.19s-.79 1.19 0 1.19zm15.35.56c1.52 0 1.52-2.3 0-2.3s-1.52 2.3 0 2.3zm15.36.55c2.25 0 2.25-3.41 0-3.41s-2.25 3.41 0 3.41zm15.35.55c2.99 0 2.99-4.51 0-4.51s-2.99 4.51 0 4.51zm15.35.56c3.72 0 3.72-5.62 0-5.62s-3.72 5.62 0 5.62zm15.35.51c4.39 0 4.39-6.64 0-6.64s-4.39 6.64 0 6.64zm15.36.51c5.07 0 5.07-7.66 0-7.66s-5.07 7.66 0 7.66zm15.35.51c5.75 0 5.75-8.68 0-8.68s-5.75 8.68 0 8.68zm15.35.51c6.42 0 6.42-9.71 0-9.71s-6.42 9.71 0 9.71zm15.35.51c7.1 0 7.1-10.73 0-10.73s-7.1 10.73 0 10.73zm15.36.47c7.72 0 7.72-11.66 0-11.66s-7.72 11.66 0 11.66zm15.35.43c8.28 0 8.28-12.52 0-12.52s-8.28 12.52 0 12.52zm15.35.38c8.79 0 8.79-13.28 0-13.28s-8.79 13.28 0 13.28zm15.35.3c9.18 0 9.18-13.88 0-13.88s-9.18 13.88 0 13.88zm15.36.21c9.46 0 9.46-14.3 0-14.3s-9.46 14.3 0 14.3zm15.35.04c9.52 0 9.52-14.39 0-14.39s-9.52 14.39 0 14.39zm15.35-.04c9.46 0 9.46-14.3 0-14.3s-9.46 14.3 0 14.3zm15.35-.21c9.18 0 9.18-13.88 0-13.88s-9.18 13.88 0 13.88zm15.36-.3c8.79 0 8.79-13.28 0-13.28s-8.79 13.28 0 13.28zm15.35-.38c8.28 0 8.28-12.52 0-12.52s-8.28 12.52 0 12.52zm15.35-.43c7.72 0 7.72-11.66 0-11.66s-7.72 11.66 0 11.66zm15.35-.47c7.1 0 7.1-10.73 0-10.73s-7.1 10.73 0 10.73zm15.36-.47c6.48 0 6.48-9.79 0-9.79s-6.48 9.79 0 9.79zm15.35-.51c5.8 0 5.8-8.77 0-8.77s-5.8 8.77 0 8.77zm15.35-.51c5.13 0 5.13-7.75 0-7.75s-5.13 7.75 0 7.75zm15.36-.51c4.45 0 4.45-6.73 0-6.73s-4.45 6.73 0 6.73zm15.35-.51c3.77 0 3.77-5.7 0-5.7s-3.77 5.7 0 5.7zm15.35-.55c3.04 0 3.04-4.6 0-4.6s-3.04 4.6 0 4.6zm15.35-.56c2.31 0 2.31-3.49 0-3.49s-2.31 3.49 0 3.49zm15.35-.55c1.58 0 1.58-2.38 0-2.38s-1.58 2.38 0 2.38zm15.36-.55c.84 0 .84-1.28 0-1.28s-.85 1.28 0 1.28zm15.35-.51c.17 0 .17-.26 0-.26s-.17.26 0 .26zM62.34 386.78a.04.04 0 000-.08.04.04 0 000 .08zm15.35.43c.62 0 .62-.94 0-.94s-.62.94 0 .94zm15.35.51c1.3 0 1.3-1.96 0-1.96s-1.3 1.96 0 1.96zm15.36.55c2.03 0 2.03-3.07 0-3.07s-2.03 3.07 0 3.07zm15.35.56c2.76 0 2.76-4.17 0-4.17s-2.76 4.17 0 4.17zm15.35.51c3.43 0 3.43-5.19 0-5.19s-3.44 5.19 0 5.19zm15.35.51c4.11 0 4.11-6.22 0-6.22s-4.11 6.22 0 6.22zm15.36.47c4.73 0 4.73-7.15 0-7.15s-4.73 7.15 0 7.15zm15.35.51c5.41 0 5.41-8.17 0-8.17s-5.41 8.17 0 8.17zm15.35.47c6.03 0 6.03-9.11 0-9.11s-6.03 9.11 0 9.11zm15.35.46c6.65 0 6.65-10.05 0-10.05s-6.65 10.05 0 10.05zm15.36.43c7.21 0 7.21-10.9 0-10.9s-7.21 10.9 0 10.9zm15.35.38c7.72 0 7.72-11.67 0-11.67s-7.72 11.67 0 11.67zm15.35.3c8.11 0 8.11-12.26 0-12.26s-8.11 12.26 0 12.26zm15.35.3c8.51 0 8.51-12.86 0-12.86s-8.5 12.86 0 12.86zm15.36.17c8.73 0 8.73-13.2 0-13.2s-8.73 13.2 0 13.2zm15.35.04c8.79 0 8.79-13.28 0-13.28s-8.79 13.28 0 13.28zm15.35-.04c8.73 0 8.73-13.2 0-13.2s-8.73 13.2 0 13.2zm15.35-.17c8.51 0 8.51-12.86 0-12.86s-8.51 12.86 0 12.86zm15.36-.26c8.17 0 8.17-12.35 0-12.35s-8.17 12.35 0 12.35zm15.35-.34c7.72 0 7.72-11.67 0-11.67s-7.72 11.67 0 11.67zm15.35-.38c7.21 0 7.21-10.9 0-10.9s-7.21 10.9 0 10.9zm15.35-.43c6.65 0 6.65-10.05 0-10.05s-6.65 10.05 0 10.05zm15.36-.42c6.08 0 6.08-9.2 0-9.2s-6.08 9.2 0 9.2zm15.35-.47c5.46 0 5.46-8.26 0-8.26s-5.46 8.26 0 8.26zm15.35-.51c4.79 0 4.79-7.24 0-7.24s-4.79 7.24 0 7.24zm15.36-.47c4.17 0 4.17-6.3 0-6.3s-4.17 6.3 0 6.3zm15.35-.51c3.49 0 3.49-5.28 0-5.28s-3.49 5.28 0 5.28zm15.35-.55c2.76 0 2.76-4.17 0-4.17s-2.76 4.17 0 4.17zm15.35-.51c2.08 0 2.08-3.15 0-3.15s-2.08 3.15 0 3.15zm15.35-.56c1.35 0 1.35-2.04 0-2.04s-1.35 2.04 0 2.04zm15.36-.51c.68 0 .68-1.02 0-1.02s-.68 1.02 0 1.02zm15.35-.47a.04.04 0 000-.08.04.04 0 000 .08zM77.69 402.35c.34 0 .34-.51 0-.51s-.34.51 0 .51zm15.35.51c1.01 0 1.01-1.53 0-1.53s-1.01 1.53 0 1.53zm15.36.55c1.75 0 1.75-2.64 0-2.64s-1.75 2.64 0 2.64zm15.35.51c2.42 0 2.42-3.66 0-3.66s-2.42 3.66 0 3.66zm15.35.51c3.1 0 3.1-4.68 0-4.68s-3.1 4.68 0 4.68zm15.35.47c3.72 0 3.72-5.62 0-5.62s-3.72 5.62 0 5.62zm15.36.51c4.39 0 4.39-6.64 0-6.64s-4.39 6.64 0 6.64zm15.35.43c4.96 0 4.96-7.49 0-7.49s-4.96 7.49 0 7.49zm15.35.47c5.58 0 5.58-8.43 0-8.43s-5.58 8.43 0 8.43zm15.35.42c6.14 0 6.14-9.28 0-9.28s-6.14 9.28 0 9.28zm15.36.39c6.65 0 6.65-10.05 0-10.05s-6.65 10.05 0 10.05zm15.35.34c7.1 0 7.1-10.73 0-10.73s-7.1 10.73 0 10.73zm15.35.3c7.49 0 7.49-11.32 0-11.32s-7.49 11.32 0 11.32zm15.35.21c7.77 0 7.77-11.75 0-11.75s-7.77 11.75 0 11.75zm15.36.13c7.94 0 7.94-12.01 0-12.01s-7.94 12.01 0 12.01zm15.35.04c8 0 8-12.09 0-12.09s-8 12.09 0 12.09zm15.35 0c8 0 8-12.09 0-12.09s-8 12.09 0 12.09zm15.35-.17c7.77 0 7.77-11.75 0-11.75s-7.77 11.75 0 11.75zm15.36-.21c7.49 0 7.49-11.32 0-11.32s-7.49 11.32 0 11.32zm15.35-.3c7.1 0 7.1-10.73 0-10.73s-7.1 10.73 0 10.73zm15.35-.34c6.65 0 6.65-10.05 0-10.05s-6.65 10.05 0 10.05zm15.35-.39c6.14 0 6.14-9.28 0-9.28s-6.14 9.28 0 9.28zm15.36-.38c5.63 0 5.63-8.51 0-8.51s-5.63 8.51 0 8.51zm15.35-.47c5.01 0 5.01-7.58 0-7.58s-5.01 7.58 0 7.58zm15.35-.42c4.45 0 4.45-6.73 0-6.73s-4.45 6.73 0 6.73zm15.36-.51c3.77 0 3.77-5.7 0-5.7s-3.77 5.7 0 5.7zm15.35-.47c3.15 0 3.15-4.77 0-4.77s-3.15 4.77 0 4.77zm15.35-.51c2.48 0 2.48-3.75 0-3.75s-2.48 3.75 0 3.75zm15.35-.52c1.8 0 1.8-2.72 0-2.72s-1.8 2.72 0 2.72zm15.35-.55c1.07 0 1.07-1.62 0-1.62s-1.07 1.62 0 1.62zm15.36-.51c.39 0 .39-.6 0-.6s-.39.6 0 .6zM77.69 417.53c.11 0 .11-.17 0-.17s-.11.17 0 .17zm15.35.47c.73 0 .73-1.11 0-1.11s-.73 1.11 0 1.11zm15.36.51c1.41 0 1.41-2.13 0-2.13s-1.41 2.13 0 2.13zm15.35.51c2.08 0 2.08-3.15 0-3.15s-2.08 3.15 0 3.15zm15.35.47c2.7 0 2.7-4.09 0-4.09s-2.7 4.09 0 4.09zm15.35.47c3.32 0 3.32-5.02 0-5.02s-3.32 5.02 0 5.02zm15.36.47c3.94 0 3.94-5.96 0-5.96s-3.94 5.96 0 5.96zm15.35.42c4.51 0 4.51-6.81 0-6.81s-4.51 6.81 0 6.81zm15.35.43c5.07 0 5.07-7.66 0-7.66s-5.07 7.66 0 7.66zm15.35.38c5.58 0 5.58-8.43 0-8.43s-5.58 8.43 0 8.43zm15.36.34c6.03 0 6.03-9.11 0-9.11s-6.03 9.11 0 9.11zm15.35.34c6.48 0 6.48-9.79 0-9.79s-6.48 9.79 0 9.79zm15.35.26c6.82 0 6.82-10.3 0-10.3s-6.81 10.3 0 10.3zm15.35.17c7.04 0 7.04-10.64 0-10.64s-7.04 10.64 0 10.64zm15.36.12c7.21 0 7.21-10.9 0-10.9s-7.21 10.9 0 10.9zm15.35.05c7.27 0 7.27-10.98 0-10.98s-7.27 10.98 0 10.98zm15.35-.05c7.21 0 7.21-10.9 0-10.9s-7.21 10.9 0 10.9zm15.35-.12c7.04 0 7.04-10.64 0-10.64s-7.04 10.64 0 10.64zm15.36-.17c6.82 0 6.82-10.3 0-10.3s-6.82 10.3 0 10.3zm15.35-.26c6.48 0 6.48-9.79 0-9.79s-6.48 9.79 0 9.79zm15.35-.3c6.08 0 6.08-9.2 0-9.2s-6.08 9.2 0 9.2zm15.35-.34c5.63 0 5.63-8.51 0-8.51s-5.63 8.51 0 8.51zm15.36-.38c5.13 0 5.13-7.75 0-7.75s-5.13 7.75 0 7.75zm15.35-.43c4.56 0 4.56-6.9 0-6.9s-4.56 6.9 0 6.9zm15.35-.42c4 0 4-6.04 0-6.04s-4 6.04 0 6.04zm15.36-.47c3.38 0 3.38-5.11 0-5.11s-3.38 5.11 0 5.11zm15.35-.47c2.76 0 2.76-4.17 0-4.17s-2.76 4.17 0 4.17zm15.35-.51c2.08 0 2.08-3.15 0-3.15s-2.08 3.15 0 3.15zm15.35-.47c1.46 0 1.46-2.21 0-2.21s-1.46 2.21 0 2.21zm15.35-.51c.79 0 .79-1.19 0-1.19s-.79 1.19 0 1.19zm15.36-.47c.17 0 .17-.26 0-.26s-.17.26 0 .26zM93.04 433.1c.39 0 .39-.6 0-.6s-.39.6 0 .6zm15.36.46c1.01 0 1.01-1.53 0-1.53s-1.01 1.53 0 1.53zm15.35.47c1.63 0 1.63-2.47 0-2.47s-1.63 2.47 0 2.47zm15.35.51c2.31 0 2.31-3.49 0-3.49s-2.31 3.49 0 3.49zm15.35.43c2.87 0 2.87-4.34 0-4.34s-2.87 4.34 0 4.34zm15.36.42c3.43 0 3.43-5.19 0-5.19s-3.44 5.19 0 5.19zm15.35.43c4 0 4-6.05 0-6.05s-4 6.05 0 6.05zm15.35.38c4.51 0 4.51-6.81 0-6.81s-4.51 6.81 0 6.81zm15.35.39c5.01 0 5.01-7.58 0-7.58s-5.01 7.58 0 7.58zm15.36.3c5.41 0 5.41-8.17 0-8.17s-5.41 8.17 0 8.17zm15.35.29c5.8 0 5.8-8.77 0-8.77s-5.8 8.77 0 8.77zm15.35.21c6.08 0 6.08-9.19 0-9.19s-6.08 9.19 0 9.19zm15.35.18c6.31 0 6.31-9.54 0-9.54s-6.31 9.54 0 9.54zm15.36.12c6.48 0 6.48-9.79 0-9.79s-6.48 9.79 0 9.79zm15.35.05c6.53 0 6.53-9.88 0-9.88s-6.53 9.88 0 9.88zm15.35-.05c6.48 0 6.48-9.79 0-9.79s-6.48 9.79 0 9.79zm15.35-.12c6.31 0 6.31-9.54 0-9.54s-6.31 9.54 0 9.54zm15.36-.18c6.08 0 6.08-9.19 0-9.19s-6.08 9.19 0 9.19zm15.35-.21c5.8 0 5.8-8.77 0-8.77s-5.8 8.77 0 8.77zm15.35-.25c5.46 0 5.46-8.26 0-8.26s-5.46 8.26 0 8.26zm15.35-.34c5.01 0 5.01-7.58 0-7.58s-5.01 7.58 0 7.58zm15.36-.34c4.56 0 4.56-6.9 0-6.9s-4.56 6.9 0 6.9zm15.35-.39c4.06 0 4.06-6.13 0-6.13s-4.06 6.13 0 6.13zm15.35-.42c3.49 0 3.49-5.28 0-5.28s-3.49 5.28 0 5.28zm15.36-.43c2.93 0 2.93-4.43 0-4.43s-2.93 4.43 0 4.43zm15.35-.47c2.31 0 2.31-3.49 0-3.49s-2.31 3.49 0 3.49zm15.35-.46c1.69 0 1.69-2.55 0-2.55s-1.69 2.55 0 2.55zm15.35-.47c1.07 0 1.07-1.62 0-1.62s-1.07 1.62 0 1.62zm15.35-.51c.39 0 .39-.6 0-.6s-.39.6 0 .6zM93.04 448.23c.11 0 .11-.17 0-.17s-.11.17 0 .17zm15.36.39c.62 0 .62-.94 0-.94s-.62.94 0 .94zm15.35.47c1.24 0 1.24-1.87 0-1.87s-1.24 1.87 0 1.87zm15.35.42c1.8 0 1.8-2.72 0-2.72s-1.8 2.72 0 2.72zm15.35.47c2.42 0 2.42-3.66 0-3.66s-2.42 3.66 0 3.66zm15.36.38c2.93 0 2.93-4.43 0-4.43s-2.93 4.43 0 4.43zm15.35.43c3.49 0 3.49-5.28 0-5.28s-3.49 5.28 0 5.28zm15.35.34c3.94 0 3.94-5.96 0-5.96s-3.94 5.96 0 5.96zm15.35.34c4.39 0 4.39-6.64 0-6.64s-4.39 6.64 0 6.64zm15.36.3c4.79 0 4.79-7.24 0-7.24s-4.79 7.24 0 7.24zm15.35.25c5.12 0 5.12-7.75 0-7.75s-5.13 7.75 0 7.75zm15.35.22c5.41 0 5.41-8.17 0-8.17s-5.41 8.17 0 8.17zm15.35.12c5.58 0 5.58-8.43 0-8.43s-5.58 8.43 0 8.43zm15.36.09c5.69 0 5.69-8.6 0-8.6s-5.69 8.6 0 8.6zm15.35.04c5.74 0 5.74-8.68 0-8.68s-5.74 8.68 0 8.68zm15.35 0c5.75 0 5.75-8.68 0-8.68s-5.74 8.68 0 8.68zm15.35-.13c5.58 0 5.58-8.43 0-8.43s-5.58 8.43 0 8.43zm15.36-.12c5.41 0 5.41-8.17 0-8.17s-5.41 8.17 0 8.17zm15.35-.22c5.13 0 5.13-7.75 0-7.75s-5.12 7.75 0 7.75zm15.35-.25c4.79 0 4.79-7.24 0-7.24s-4.79 7.24 0 7.24zm15.35-.26c4.45 0 4.45-6.73 0-6.73s-4.45 6.73 0 6.73zm15.36-.34c4 0 4-6.05 0-6.05s-4 6.05 0 6.05zm15.35-.38c3.49 0 3.49-5.28 0-5.28s-3.49 5.28 0 5.28zm15.35-.38c2.98 0 2.98-4.51 0-4.51s-2.99 4.51 0 4.51zm15.36-.43c2.42 0 2.42-3.66 0-3.66s-2.42 3.66 0 3.66zm15.35-.43c1.86 0 1.86-2.81 0-2.81s-1.86 2.81 0 2.81zm15.35-.42c1.3 0 1.3-1.96 0-1.96s-1.3 1.96 0 1.96zm15.35-.47c.68 0 .68-1.02 0-1.02s-.68 1.02 0 1.02zm15.35-.43c.11 0 .11-.17 0-.17s-.11.17 0 .17zM108.4 463.67c.22 0 .22-.34 0-.34s-.23.34 0 .34zm15.35.39c.73 0 .73-1.11 0-1.11s-.73 1.11 0 1.11zm15.35.46c1.35 0 1.35-2.04 0-2.04s-1.35 2.04 0 2.04zm15.35.39c1.86 0 1.86-2.81 0-2.81s-1.86 2.81 0 2.81zm15.36.42c2.42 0 2.42-3.66 0-3.66s-2.42 3.66 0 3.66zm15.35.34c2.87 0 2.87-4.34 0-4.34s-2.87 4.34 0 4.34zm15.35.39c3.38 0 3.38-5.11 0-5.11s-3.38 5.11 0 5.11zm15.35.3c3.77 0 3.77-5.71 0-5.71s-3.77 5.71 0 5.71zm15.36.25c4.11 0 4.11-6.21 0-6.21s-4.11 6.21 0 6.21zm15.35.26c4.45 0 4.45-6.73 0-6.73s-4.45 6.73 0 6.73zm15.35.17c4.68 0 4.68-7.07 0-7.07s-4.67 7.07 0 7.07zm15.35.12c4.84 0 4.84-7.32 0-7.32s-4.84 7.32 0 7.32zm15.36.09c4.96 0 4.96-7.49 0-7.49s-4.96 7.49 0 7.49zm15.35.04c5.01 0 5.01-7.58 0-7.58s-5.01 7.58 0 7.58zm15.35-.04c4.96 0 4.96-7.49 0-7.49s-4.96 7.49 0 7.49zm15.35-.04c4.9 0 4.9-7.41 0-7.41s-4.9 7.41 0 7.41zm15.36-.17c4.67 0 4.67-7.07 0-7.07s-4.67 7.07 0 7.07zm15.35-.17c4.45 0 4.45-6.73 0-6.73s-4.45 6.73 0 6.73zm15.35-.22c4.17 0 4.17-6.3 0-6.3s-4.17 6.3 0 6.3zm15.35-.29c3.77 0 3.77-5.71 0-5.71s-3.77 5.71 0 5.71zm15.36-.3c3.38 0 3.38-5.11 0-5.11s-3.38 5.11 0 5.11zm15.35-.34c2.93 0 2.93-4.43 0-4.43s-2.93 4.43 0 4.43zm15.35-.39c2.42 0 2.42-3.66 0-3.66s-2.42 3.66 0 3.66zm15.36-.38c1.92 0 1.92-2.9 0-2.9s-1.92 2.9 0 2.9zm15.35-.43c1.35 0 1.35-2.04 0-2.04s-1.35 2.04 0 2.04zm15.35-.42c.79 0 .79-1.19 0-1.19s-.79 1.19 0 1.19zm15.35-.43c.23 0 .23-.34 0-.34s-.23.34 0 .34zm-383.81 15.4a.22.22 0 000-.43.22.22 0 000 .43zm15.35.38c.79 0 .79-1.19 0-1.19s-.79 1.19 0 1.19zm15.35.43c1.35 0 1.35-2.04 0-2.04s-1.35 2.04 0 2.04zm15.36.38c1.86 0 1.86-2.81 0-2.81s-1.86 2.81 0 2.81zm15.35.34c2.31 0 2.31-3.49 0-3.49s-2.31 3.49 0 3.49zm15.35.3c2.7 0 2.7-4.09 0-4.09s-2.7 4.09 0 4.09zm15.35.3c3.1 0 3.1-4.68 0-4.68s-3.1 4.68 0 4.68zm15.36.25c3.44 0 3.44-5.19 0-5.19s-3.44 5.19 0 5.19zm15.35.22c3.72 0 3.72-5.62 0-5.62s-3.72 5.62 0 5.62zm15.35.16c3.94 0 3.94-5.96 0-5.96s-3.94 5.96 0 5.96zm15.35.13c4.11 0 4.11-6.21 0-6.21s-4.11 6.21 0 6.21zm15.36.09c4.23 0 4.23-6.39 0-6.39s-4.22 6.39 0 6.39zm15.35.04c4.28 0 4.28-6.47 0-6.47s-4.28 6.47 0 6.47zm15.35-.04c4.23 0 4.23-6.39 0-6.39s-4.22 6.39 0 6.39zm15.35-.04c4.17 0 4.17-6.3 0-6.3s-4.17 6.3 0 6.3zm15.36-.13c4 0 4-6.05 0-6.05s-4 6.05 0 6.05zm15.35-.17c3.77 0 3.77-5.7 0-5.7s-3.77 5.7 0 5.7zm15.35-.22c3.49 0 3.49-5.28 0-5.28s-3.49 5.28 0 5.28zm15.35-.25c3.15 0 3.15-4.77 0-4.77s-3.15 4.77 0 4.77zm15.36-.3c2.76 0 2.76-4.17 0-4.17s-2.76 4.17 0 4.17zm15.35-.34c2.31 0 2.31-3.49 0-3.49s-2.31 3.49 0 3.49zm15.35-.34c1.86 0 1.86-2.81 0-2.81s-1.86 2.81 0 2.81zm15.36-.38c1.35 0 1.35-2.04 0-2.04s-1.35 2.04 0 2.04zm15.35-.39c.85 0 .85-1.28 0-1.28s-.85 1.28 0 1.28zm15.35-.38c.34 0 .34-.51 0-.51s-.34.51 0 .51zM139.1 494.42a.22.22 0 000-.43.22.22 0 000 .43zm15.35.34c.73 0 .73-1.11 0-1.11s-.73 1.11 0 1.11zm15.36.38c1.24 0 1.24-1.87 0-1.87s-1.24 1.87 0 1.87zm15.35.34c1.69 0 1.69-2.55 0-2.55s-1.69 2.55 0 2.55zm15.35.3c2.08 0 2.08-3.15 0-3.15s-2.08 3.15 0 3.15zm15.35.26c2.42 0 2.42-3.66 0-3.66s-2.42 3.66 0 3.66zm15.36.25c2.76 0 2.76-4.17 0-4.17s-2.76 4.17 0 4.17zm15.35.22c3.04 0 3.04-4.6 0-4.6s-3.04 4.6 0 4.6zm15.35.17c3.27 0 3.27-4.94 0-4.94s-3.27 4.94 0 4.94zm15.35.08c3.38 0 3.38-5.11 0-5.11s-3.38 5.11 0 5.11zm15.36.09c3.49 0 3.49-5.28 0-5.28s-3.49 5.28 0 5.28zm15.35.04c3.55 0 3.55-5.36 0-5.36s-3.55 5.36 0 5.36zm15.35-.04c3.49 0 3.49-5.28 0-5.28s-3.49 5.28 0 5.28zm15.35-.05c3.44 0 3.44-5.19 0-5.19s-3.44 5.19 0 5.19zm15.36-.12c3.27 0 3.27-4.94 0-4.94s-3.27 4.94 0 4.94zm15.35-.17c3.04 0 3.04-4.6 0-4.6s-3.04 4.6 0 4.6zm15.35-.22c2.76 0 2.76-4.17 0-4.17s-2.76 4.17 0 4.17zm15.35-.21c2.48 0 2.48-3.75 0-3.75s-2.48 3.75 0 3.75zm15.36-.3c2.08 0 2.08-3.15 0-3.15s-2.08 3.15 0 3.15zm15.35-.3c1.69 0 1.69-2.55 0-2.55s-1.69 2.55 0 2.55zm15.35-.29c1.3 0 1.3-1.96 0-1.96s-1.3 1.96 0 1.96zm15.36-.39c.79 0 .79-1.19 0-1.19s-.79 1.19 0 1.19zm15.35-.34c.34 0 .34-.51 0-.51s-.34.51 0 .51zm-322.41 15.27c.23 0 .23-.34 0-.34s-.23.34 0 .34zm15.36.3c.62 0 .62-.94 0-.94s-.62.94 0 .94zm15.35.3c1.01 0 1.01-1.53 0-1.53s-1.01 1.53 0 1.53zm15.35.29c1.41 0 1.41-2.13 0-2.13s-1.41 2.13 0 2.13zm15.35.26c1.75 0 1.75-2.64 0-2.64s-1.75 2.64 0 2.64zm15.36.26c2.08 0 2.08-3.15 0-3.15s-2.08 3.15 0 3.15zm15.35.16c2.31 0 2.31-3.49 0-3.49s-2.31 3.49 0 3.49zm15.35.18c2.54 0 2.54-3.83 0-3.83s-2.53 3.83 0 3.83zm15.35.08c2.65 0 2.65-4 0-4s-2.65 4 0 4zm15.36.09c2.76 0 2.76-4.17 0-4.17s-2.76 4.17 0 4.17zm15.35 0c2.76 0 2.76-4.17 0-4.17s-2.76 4.17 0 4.17zm15.35 0c2.76 0 2.76-4.17 0-4.17s-2.76 4.17 0 4.17zm15.35-.09c2.65 0 2.65-4 0-4s-2.65 4 0 4zm15.36-.08c2.54 0 2.54-3.83 0-3.83s-2.53 3.83 0 3.83zm15.35-.18c2.31 0 2.31-3.49 0-3.49s-2.31 3.49 0 3.49zm15.35-.16c2.08 0 2.08-3.15 0-3.15s-2.08 3.15 0 3.15zm15.35-.22c1.8 0 1.8-2.73 0-2.73s-1.8 2.73 0 2.73zm15.36-.25c1.46 0 1.46-2.21 0-2.21s-1.46 2.21 0 2.21zm15.35-.3c1.07 0 1.07-1.62 0-1.62s-1.07 1.62 0 1.62zm15.35-.3c.68 0 .68-1.02 0-1.02s-.68 1.02 0 1.02zm15.36-.34c.23 0 .23-.34 0-.34s-.23.34 0 .34zM169.81 525c.11 0 .11-.17 0-.17s-.11.17 0 .17zm15.35.21c.39 0 .39-.6 0-.6s-.39.6 0 .6zm15.35.26c.73 0 .73-1.11 0-1.11s-.73 1.11 0 1.11zm15.35.25c1.07 0 1.07-1.62 0-1.62s-1.07 1.62 0 1.62zm15.36.21c1.35 0 1.35-2.04 0-2.04s-1.35 2.04 0 2.04zm15.35.17c1.58 0 1.58-2.38 0-2.38s-1.58 2.38 0 2.38zm15.35.13c1.75 0 1.75-2.64 0-2.64s-1.75 2.64 0 2.64zm15.35.13c1.92 0 1.92-2.89 0-2.89s-1.91 2.89 0 2.89zm15.36.04c1.97 0 1.97-2.98 0-2.98s-1.97 2.98 0 2.98zm15.35.05c2.03 0 2.03-3.07 0-3.07s-2.03 3.07 0 3.07zm15.35-.05c1.97 0 1.97-2.98 0-2.98s-1.97 2.98 0 2.98zm15.35-.04c1.92 0 1.92-2.89 0-2.89s-1.91 2.89 0 2.89zm15.36-.08c1.8 0 1.8-2.73 0-2.73s-1.8 2.73 0 2.73zm15.35-.18c1.58 0 1.58-2.38 0-2.38s-1.58 2.38 0 2.38zm15.35-.17c1.35 0 1.35-2.04 0-2.04s-1.35 2.04 0 2.04zm15.35-.21c1.07 0 1.07-1.62 0-1.62s-1.07 1.62 0 1.62zm15.36-.21c.79 0 .79-1.19 0-1.19s-.79 1.19 0 1.19zm15.35-.3c.39 0 .39-.6 0-.6s-.39.6 0 .6zm15.35-.21c.11 0 .11-.17 0-.17s-.11.17 0 .17zm-245.64 15.35c.11 0 .11-.17 0-.17s-.11.17 0 .17zm15.35.21c.39 0 .39-.6 0-.6s-.4.6 0 .6zm15.36.17c.62 0 .62-.94 0-.94s-.62.94 0 .94zm15.35.17c.84 0 .84-1.28 0-1.28s-.85 1.28 0 1.28zm15.35.13c1.01 0 1.01-1.53 0-1.53s-1.01 1.53 0 1.53zm15.35.09c1.13 0 1.13-1.7 0-1.7s-1.13 1.7 0 1.7zm15.36.08c1.24 0 1.24-1.87 0-1.87s-1.24 1.87 0 1.87zm15.35 0c1.24 0 1.24-1.87 0-1.87s-1.24 1.87 0 1.87zm15.35 0c1.24 0 1.24-1.87 0-1.87s-1.24 1.87 0 1.87zm15.35-.04c1.18 0 1.18-1.79 0-1.79s-1.18 1.79 0 1.79zm15.36-.13c1.01 0 1.01-1.53 0-1.53s-1.01 1.53 0 1.53zm15.35-.13c.85 0 .85-1.28 0-1.28s-.85 1.28 0 1.28zm15.35-.12c.68 0 .68-1.02 0-1.02s-.68 1.02 0 1.02zm15.35-.22c.4 0 .4-.6 0-.6s-.39.6 0 .6zm15.36-.17c.17 0 .17-.26 0-.26s-.17.26 0 .26zm-184.23 15.27c.06 0 .06-.09 0-.09s-.06.09 0 .09zm15.35.08c.17 0 .17-.26 0-.26s-.17.26 0 .26zm15.35.09a.22.22 0 000-.43.22.22 0 000 .43zm15.35.08c.39 0 .39-.6 0-.6s-.39.6 0 .6zm15.36.05c.45 0 .45-.68 0-.68s-.45.68 0 .68zm15.35.04c.51 0 .51-.77 0-.77s-.51.77 0 .77zm15.35-.04c.45 0 .45-.68 0-.68s-.45.68 0 .68zm15.35-.05c.4 0 .4-.6 0-.6s-.39.6 0 .6zm15.36-.08a.22.22 0 000-.43.22.22 0 000 .43zm15.35-.09c.17 0 .17-.26 0-.26s-.17.26 0 .26zm15.35-.08c.06 0 .06-.09 0-.09s-.06.09 0 .09z" fill="#def4cf"/><path d="M294.63 5.11A292.404 292.404 0 0089.55 91.93 292.403 292.403 0 005.07 297.98h7.33a285.096 285.096 0 0182.35-200.9A285.14 285.14 0 01294.7 12.44l-.07-7.33z" fill="#b3ea90" fill-opacity=".96"/><path d="M589.91 297.77c.03-38.61-7.58-76.84-22.4-112.49a292.46 292.46 0 00-63.94-95.22 292.514 292.514 0 00-95.64-63.31A292.44 292.44 0 00295.3 5.1l.06 7.33a285.066 285.066 0 01203.05 82.83 285.105 285.105 0 0162.33 92.83 284.9 284.9 0 0121.83 109.67h7.33z" fill="#8ad859"/><path d="M295.49 589.93c38.57.26 76.82-7.11 112.53-21.69s68.19-36.08 95.55-63.27a292.13 292.13 0 0063.9-95.13 292.498 292.498 0 0022.44-112.38h-7.33c0 37.61-7.43 74.85-21.87 109.57-14.45 34.72-35.62 66.24-62.3 92.74s-58.34 47.47-93.16 61.68a284.94 284.94 0 01-109.71 21.14l-.05 7.33z" fill="#6fb543"/><path d="M5.07 298.01a292.41 292.41 0 0085.01 205.64 292.42 292.42 0 00205.11 86.28l.06-7.33c-75.14-.59-147-30.82-199.97-84.12A285.11 285.11 0 0112.4 297.99H5.07z" fill="#dae6d3"/><circle cx="297.01" cy="298" r="241.5" fill="none" stroke="#46505f" stroke-dasharray="4 4"/><circle cx="298.5" cy="298.5" r="185.5" fill="#fff"/><g fill="#65a23f"><circle cx="62" cy="351" r="13"/><circle cx="561" cy="425" r="19"/><circle cx="318" cy="58" r="7"/></g></svg>