<svg xmlns="http://www.w3.org/2000/svg" viewBox="0 0 241 223"><path d="M183.7.3zm16.6.2c.1 0 .1-.2 0-.2s-.1.2 0 .2zm16.7.1c.2 0 .2-.4 0-.4s-.2.4 0 .4zm16.7 0c.4 0 .4-.6 0-.6s-.4.6 0 .6zm-83.4 16.6c.1 0 .1-.2 0-.2s-.1.2 0 .2zm16.7.2c.4 0 .4-.6 0-.6s-.4.6 0 .6zm16.7.2c.6 0 .6-.9 0-.9s-.6.9 0 .9zm16.6.1c.9 0 .9-1.3 0-1.3s-.9 1.3 0 1.3zm16.7.2c1 0 1-1.6 0-1.6s-1 1.6 0 1.6zm16.7.1c1.2 0 1.2-1.8 0-1.8s-1.2 1.8 0 1.8zM117 33.9zm16.7.2c.4 0 .4-.6 0-.6s-.4.6 0 .6zm16.6.3c.7 0 .7-1.1 0-1.1s-.7 1.1 0 1.1zm16.7.3c1.1 0 1.1-1.7 0-1.7s-1.1 1.7 0 1.7zm16.7.2c1.4 0 1.4-2.1 0-2.1s-1.4 2.1 0 2.1zm16.6.2c1.7 0 1.7-2.5 0-2.5s-1.7 2.5 0 2.5zm16.7.1c1.8 0 1.8-2.8 0-2.8s-1.8 2.8 0 2.8zm16.7.2c2 0 2-3.1 0-3.1s-2 3.1 0 3.1zM100.3 50.7c.2 0 .2-.3 0-.3s-.2.3 0 .3zm16.7.3c.6 0 .6-.9 0-.9s-.6.9 0 .9zm16.7.4c1.1 0 1.1-1.7 0-1.7s-1.1 1.7 0 1.7zm16.6.3c1.5 0 1.5-2.2 0-2.2s-1.5 2.2 0 2.2zm16.7.2c1.8 0 1.8-2.8 0-2.8s-1.8 2.8 0 2.8zm16.7.3c2.2 0 2.2-3.3 0-3.3s-2.2 3.3 0 3.3zm16.6.2c2.4 0 2.4-3.7 0-3.7s-2.4 3.7 0 3.7zm16.7.2c2.7 0 2.7-4.1 0-4.1s-2.7 4.1 0 4.1zm16.7.1c2.8 0 2.8-4.3 0-4.3s-2.8 4.3 0 4.3zm-150 14.8c.2 0 .2-.4 0-.4s-.2.4 0 .4zm16.6.4c.8 0 .8-1.2 0-1.2s-.8 1.2 0 1.2zm16.7.3c1.3 0 1.3-1.9 0-1.9s-1.3 1.9 0 1.9zm16.7.4c1.8 0 1.8-2.7 0-2.7s-1.8 2.7 0 2.7zm16.6.3c2.2 0 2.2-3.3 0-3.3s-2.2 3.3 0 3.3zm16.7.4c2.6 0 2.6-4 0-4s-2.6 4 0 4zm16.7.2c2.9 0 2.9-4.5 0-4.5s-2.9 4.5 0 4.5zm16.6.2c3.2 0 3.2-4.9 0-4.9s-3.2 4.9 0 4.9zm16.7.2c3.5 0 3.5-5.3 0-5.3s-3.5 5.3 0 5.3zm16.7.1c3.6 0 3.6-5.5 0-5.5s-3.6 5.5 0 5.5zM67 84.2c.2 0 .2-.4 0-.4s-.2.4 0 .4zm16.7.4c.8 0 .8-1.2 0-1.2s-.8 1.2 0 1.2zm16.6.5c1.4 0 1.4-2.1 0-2.1s-1.4 2.1 0 2.1zm16.7.4c2 0 2-3 0-3s-2 3 0 3zm16.7.4c2.4 0 2.4-3.7 0-3.7s-2.4 3.7 0 3.7zm16.6.3c2.9 0 2.9-4.4 0-4.4s-2.9 4.4 0 4.4zm16.7.3c3.3 0 3.3-5 0-5s-3.3 5 0 5zm16.7.3c3.7 0 3.7-5.6 0-5.6s-3.7 5.6 0 5.6zm16.6.2c4 0 4-6 0-6s-4 6 0 6zm16.7.2c4.2 0 4.2-6.4 0-6.4s-4.2 6.4 0 6.4zm16.7.1c4.4 0 4.4-6.7 0-6.7s-4.4 6.7 0 6.7zM50.4 100.9c.2 0 .2-.3 0-.3s-.2.3 0 .3zm16.6.4c.8 0 .8-1.2 0-1.2s-.8 1.2 0 1.2zm16.7.5c1.4 0 1.4-2.1 0-2.1s-1.4 2.1 0 2.1zm16.6.5c2 0 2-3.1 0-3.1s-2 3.1 0 3.1zm16.7.4c2.6 0 2.6-3.9 0-3.9s-2.6 3.9 0 3.9zm16.7.4c3.1 0 3.1-4.7 0-4.7s-3.1 4.7 0 4.7zm16.6.4c3.6 0 3.6-5.5 0-5.5s-3.6 5.5 0 5.5zm16.7.3c4 0 4-6.1 0-6.1s-4 6.1 0 6.1zm16.7.3c4.4 0 4.4-6.7 0-6.7s-4.4 6.7 0 6.7zm16.6.2c4.8 0 4.8-7.2 0-7.2s-4.8 7.2 0 7.2zm16.7.2c5 0 5-7.6 0-7.6s-5 7.6 0 7.6zm16.7.2c5.2 0 5.2-7.9 0-7.9s-5.2 7.9 0 7.9zm-200 12.8zm16.7.4c.6 0 .6-.9 0-.9s-.6.9 0 .9zm16.6.5c1.3 0 1.3-1.9 0-1.9s-1.3 1.9 0 1.9zm16.7.5c2 0 2-3 0-3s-2 3 0 3zm16.6.5c2.6 0 2.6-3.9 0-3.9s-2.6 3.9 0 3.9zm16.7.5c3.2 0 3.2-4.8 0-4.8s-3.2 4.8 0 4.8zm16.7.4c3.7 0 3.7-5.7 0-5.7s-3.7 5.7 0 5.7zm16.6.3c4.2 0 4.2-6.4 0-6.4s-4.2 6.4 0 6.4zm16.7.4c4.7 0 4.7-7.1 0-7.1s-4.7 7.1 0 7.1zm16.7.3c5.1 0 5.1-7.8 0-7.8s-5.1 7.8 0 7.8zm16.6.3c5.5 0 5.5-8.3 0-8.3s-5.5 8.3 0 8.3zm16.7.3c5.8 0 5.8-8.8 0-8.8s-5.8 8.8 0 8.8zm16.7.1c6 0 6-9.1 0-9.1s-6 9.1 0 9.1zm266.6-4.5c.1 0 .1-.2 0-.2s-.1.2 0 .2zm-466.6 17c.4 0 .4-.6 0-.6s-.4.6 0 .6zm16.7.5c1.1 0 1.1-1.7 0-1.7s-1.1 1.7 0 1.7zm16.6.5c1.8 0 1.8-2.7 0-2.7s-1.8 2.7 0 2.7zm16.7.5c2.4 0 2.4-3.7 0-3.7s-2.4 3.7 0 3.7zm16.6.5c3.1 0 3.1-4.7 0-4.7s-3.1 4.7 0 4.7zm16.7.5c3.7 0 3.7-5.7 0-5.7s-3.7 5.7 0 5.7zm16.7.5c4.3 0 4.3-6.6 0-6.6s-4.3 6.6 0 6.6zm16.6.4c4.9 0 4.9-7.4 0-7.4s-4.9 7.4 0 7.4zm16.7.4c5.4 0 5.4-8.2 0-8.2s-5.4 8.2 0 8.2zm16.7.3c5.8 0 5.8-8.8 0-8.8s-5.8 8.8 0 8.8zm16.6.3c6.2 0 6.2-9.5 0-9.5s-6.2 9.5 0 9.5zm16.7.2c6.5 0 6.5-9.9 0-9.9s-6.5 9.9 0 9.9zm16.7.2c6.8 0 6.8-10.3 0-10.3s-6.8 10.3 0 10.3zm266.6-4.8c.4 0 .4-.6 0-.6s-.4.6 0 .6zM17 151c.1 0 .1-.2 0-.2s-.1.2 0 .2zm16.7.5c.7 0 .7-1.1 0-1.1s-.7 1.1 0 1.1zm16.7.5c1.5 0 1.5-2.2 0-2.2s-1.5 2.2 0 2.2zm16.6.6c2.2 0 2.2-3.3 0-3.3s-2.2 3.3 0 3.3zm16.7.5c2.9 0 2.9-4.4 0-4.4s-2.9 4.4 0 4.4zm16.6.5c3.6 0 3.6-5.5 0-5.5s-3.6 5.5 0 5.5zm16.7.5c4.2 0 4.2-6.4 0-6.4s-4.2 6.4 0 6.4zm16.7.5c4.9 0 4.9-7.4 0-7.4s-4.9 7.4 0 7.4zm16.6.4c5.4 0 5.4-8.3 0-8.3s-5.4 8.3 0 8.3zm16.7.4c6 0 6-9.1 0-9.1s-6 9.1 0 9.1zm16.7.4c6.5 0 6.5-9.8 0-9.8s-6.5 9.8 0 9.8zm16.6.4c7 0 7-10.6 0-10.6s-7 10.6 0 10.6zm16.7.3c7.3 0 7.3-11.1 0-11.1s-7.3 11.1 0 11.1zm16.7.1c7.6 0 7.6-11.5 0-11.5s-7.6 11.5 0 11.5zm266.6-5.1c.8 0 .8-1.2 0-1.2s-.8 1.2 0 1.2zm16.6-.5c.1 0 .1-.2 0-.2s-.1.2 0 .2zM17 167.9c.4 0 .4-.6 0-.6s-.4.6 0 .6zm16.7.6c1.1 0 1.1-1.7 0-1.7s-1.1 1.7 0 1.7zm16.7.5c1.8 0 1.8-2.8 0-2.8s-1.8 2.8 0 2.8zm16.6.6c2.6 0 2.6-4 0-4s-2.6 4 0 4zm16.7.5c3.3 0 3.3-5 0-5s-3.3 5 0 5zm16.6.6c4 0 4-6.1 0-6.1s-4 6.1 0 6.1zm16.7.5c4.7 0 4.7-7.1 0-7.1s-4.7 7.1 0 7.1zm16.7.5c5.4 0 5.4-8.2 0-8.2s-5.4 8.2 0 8.2zm16.6.5c6 0 6-9.1 0-9.1s-6 9.1 0 9.1zm16.7.4c6.6 0 6.6-10 0-10s-6.6 10 0 10zm16.7.5c7.2 0 7.2-10.9 0-10.9s-7.2 10.9 0 10.9zm16.6.3c7.6 0 7.6-11.6 0-11.6s-7.6 11.6 0 11.6zm16.7.3c8.1 0 8.1-12.2 0-12.2s-8.1 12.2 0 12.2zm16.7.3c8.4 0 8.4-12.7 0-12.7s-8.4 12.7 0 12.7zm266.6-5.5c1.2 0 1.2-1.8 0-1.8s-1.2 1.8 0 1.8zm16.6-.6c.4 0 .4-.6 0-.6s-.4.6 0 .6zM.4 184.4zm16.6.4c.6 0 .6-.9 0-.9s-.6.9 0 .9zm16.7.6c1.4 0 1.4-2.1 0-2.1s-1.4 2.1 0 2.1zm16.7.6c2.2 0 2.2-3.3 0-3.3s-2.2 3.3 0 3.3zm16.6.6c2.9 0 2.9-4.5 0-4.5s-2.9 4.5 0 4.5zm16.7.5c3.7 0 3.7-5.6 0-5.6s-3.7 5.6 0 5.6zm16.6.6c4.4 0 4.4-6.7 0-6.7s-4.4 6.7 0 6.7zm16.7.5c5.1 0 5.1-7.8 0-7.8s-5.1 7.8 0 7.8zm16.7.6c5.8 0 5.8-8.8 0-8.8s-5.8 8.8 0 8.8zm16.6.5c6.5 0 6.5-9.8 0-9.8s-6.5 9.8 0 9.8zm16.7.5c7.2 0 7.2-10.9 0-10.9s-7.2 10.9 0 10.9zm16.7.4c7.8 0 7.8-11.8 0-11.8s-7.8 11.8 0 11.8zm16.6.5c8.3 0 8.3-12.6 0-12.6s-8.3 12.6 0 12.6zm16.7.3c8.8 0 8.8-13.4 0-13.4s-8.8 13.4 0 13.4zm16.7.3c9.2 0 9.2-13.9 0-13.9s-9.2 13.9 0 13.9zm266.6-5.8c1.5 0 1.5-2.2 0-2.2s-1.5 2.2 0 2.2zm16.6-.6c.7 0 .7-1 0-1s-.7 1 0 1zm16.7-.5zM.4 201.2c.1 0 .1-.2 0-.2s-.1.2 0 .2zm16.6.5c.9 0 .9-1.3 0-1.3s-.9 1.3 0 1.3zm16.7.6c1.7 0 1.7-2.5 0-2.5s-1.7 2.5 0 2.5zm16.7.6c2.4 0 2.4-3.7 0-3.7s-2.4 3.7 0 3.7zm16.6.6c3.2 0 3.2-4.9 0-4.9s-3.2 4.9 0 4.9zm16.7.6c4 0 4-6 0-6s-4 6 0 6zm16.6.6c4.8 0 4.8-7.2 0-7.2s-4.8 7.2 0 7.2zm16.7.5c5.5 0 5.5-8.3 0-8.3s-5.5 8.3 0 8.3zm16.7.6c6.2 0 6.2-9.5 0-9.5s-6.2 9.5 0 9.5zm16.6.6c7 0 7-10.6 0-10.6s-7 10.6 0 10.6zm16.7.5c7.6 0 7.6-11.6 0-11.6s-7.6 11.6 0 11.6zm16.7.5c8.3 0 8.3-12.6 0-12.6s-8.3 12.6 0 12.6zm16.6.4c8.9 0 8.9-13.5 0-13.5s-8.9 13.5 0 13.5zm16.7.5c9.5 0 9.5-14.4 0-14.4s-9.5 14.4 0 14.4zm16.7.3c9.9 0 9.9-15 0-15s-9.9 15 0 15zm266.6-6.2c1.7 0 1.7-2.6 0-2.6s-1.7 2.6 0 2.6zm16.6-.6c.9 0 .9-1.4 0-1.4s-.9 1.4 0 1.4zm16.7-.6c.2 0 .2-.3 0-.3s-.2.3 0 .3zM.4 218c.2 0 .2-.4 0-.4s-.2.4 0 .4zm16.6.6c1 0 1-1.6 0-1.6s-1 1.6 0 1.6zm16.7.6c1.8 0 1.8-2.8 0-2.8s-1.8 2.8 0 2.8zm16.7.6c2.7 0 2.7-4.1 0-4.1s-2.7 4.1 0 4.1zm16.6.6c3.5 0 3.5-5.3 0-5.3s-3.5 5.3 0 5.3zm16.7.6c4.2 0 4.2-6.4 0-6.4s-4.2 6.4 0 6.4zm16.6.6c5 0 5-7.6 0-7.6s-5 7.6 0 7.6zm16.7.6c5.8 0 5.8-8.8 0-8.8s-5.8 8.8 0 8.8zm16.7.6c6.5 0 6.5-9.9 0-9.9s-6.5 9.9 0 9.9zm16.6.6c7.3 0 7.3-11.1 0-11.1s-7.3 11.1 0 11.1zm16.7.5c8.1 0 8.1-12.2 0-12.2s-8.1 12.2 0 12.2zm16.7.6c8.8 0 8.8-13.4 0-13.4s-8.8 13.4 0 13.4zm16.6.5c9.5 0 9.5-14.4 0-14.4s-9.5 14.4 0 14.4zm16.7.5c10.1 0 10.1-15.3 0-15.3s-10.1 15.3 0 15.3zm16.7.4c10.6 0 10.6-16.1 0-16.1s-10.6 16.1 0 16.1zm266.6-6.7c1.9 0 1.9-2.9 0-2.9s-1.9 2.9 0 2.9zm16.6-.6c1.1 0 1.1-1.7 0-1.7s-1.1 1.7 0 1.7zm16.7-.6c.3 0 .3-.5 0-.5s-.3.5 0 .5zm-33.3 18.1c2.1 0 2.1-3.2 0-3.2s-2.1 3.2 0 3.2zm16.6-.6c1.2 0 1.2-1.9 0-1.9s-1.2 1.9 0 1.9zm16.7-.6c.4 0 .4-.6 0-.6s-.4.6 0 .6zm-33.3 18c2.1 0 2.1-3.2 0-3.2s-2.1 3.2 0 3.2zm16.6-.6c1.3 0 1.3-2 0-2s-1.3 2 0 2zm16.7-.7c.5 0 .5-.7 0-.7s-.5.7 0 .7zm-33.3 18c2.2 0 2.2-3.3 0-3.3s-2.2 3.3 0 3.3zm16.6-.6c1.3 0 1.3-2 0-2s-1.3 2 0 2zm16.7-.6a.4.4 0 000-.8c-.6 0-.5.8 0 .8zm-33.3 17.9c2.1 0 2.1-3.2 0-3.2s-2.1 3.2 0 3.2zm16.6-.6c1.3 0 1.3-2 0-2s-1.3 2 0 2zm16.7-.6c.5 0 .5-.7 0-.7s-.5.7 0 .7zM500.3 303c2.1 0 2.1-3.2 0-3.2s-2.1 3.2 0 3.2zm16.6-.6c1.3 0 1.3-1.9 0-1.9s-1.3 1.9 0 1.9zm16.7-.6c.4 0 .4-.6 0-.6s-.4.6 0 .6zm-33.3 17.8c2 0 2-3 0-3s-2 3 0 3zm16.6-.6c1.1 0 1.1-1.7 0-1.7s-1.1 1.7 0 1.7zm16.7-.6c.3 0 .3-.5 0-.5s-.3.5 0 .5zm-33.3 17.8c1.7 0 1.7-2.6 0-2.6s-1.7 2.6 0 2.6zm16.6-.6c.9 0 .9-1.4 0-1.4s-.9 1.4 0 1.4zm16.7-.6c.2 0 .2-.3 0-.3s-.2.3 0 .3zm-33.3 17.7c1.5 0 1.5-2.2 0-2.2s-1.5 2.2 0 2.2zm16.6-.5c.7 0 .7-1.1 0-1.1s-.7 1.1 0 1.1zm16.7-.6zm-33.3 17.6c1.2 0 1.2-1.8 0-1.8s-1.2 1.8 0 1.8zm16.6-.5c.4 0 .4-.6 0-.6s-.4.6 0 .6zm-16.6 17c.9 0 .9-1.3 0-1.3s-.9 1.3 0 1.3zm16.6-.5c.2 0 .2-.3 0-.3s-.2.3 0 .3zm-16.6 16.9c.4 0 .4-.6 0-.6s-.4.6 0 .6zm0 16.5c.1 0 .1-.2 0-.2s-.1.2 0 .2zm-316.6 117zm16.6.1c.2 0 .2-.3 0-.3s-.2.3 0 .3zm16.7.1c.3 0 .3-.5 0-.5s-.3.5 0 .5zm16.7.1c.4 0 .4-.6 0-.6s-.4.6 0 .6z" opacity=".7" fill="#4d822c" style="isolation:isolate"/></svg>