<svg xmlns="http://www.w3.org/2000/svg" viewBox="0 0 183 136"><path d="M1.5 102.5l50.7 29.7c-13.1-8-29.1-19.3-50.7-34v4.3z" fill="#fff"/><path d="M1.5 33.3l37.6 26.6L1.5 30v3.3z" fill="#6fb543"/><path d="M103.3 50.4c12.8.4 26.1.8 38.9 2.1-18.5-17.5-38.1-34.4-58-51H50.8c14.4 10.9 34.7 29 34.8 29l-34 .4c10.7 7.2 16.6 14.5 18.6 14.5 0 1.6.3 0 2.5 2.1 4.1 3.7 8.3 7 12.8 10.3 1.2.8 1.7 2.1 2.9 2.9l9.9 7.4c.4.4.8 1.2 1.2 1.7 4.6 3.7 8.7 6.2 12.8 10.3 3.3 2.9 6.6 5 9.9 7.4 1.2.8 1.7 2.1 2.9 2.9l14.5 11.6c59.1 46 43.9 35.8 33.1 21.1-10.7-10.7-17.1-22.3-69.6-72.8z" fill="#3a6320"/></svg>