<svg width="1530" height="1530" fill="none" xmlns="http://www.w3.org/2000/svg"><path d="M886.331 653.266c.051 0 .051.077 0 .077-.05 0-.05-.077 0-.077zm13.73.115c.101 0 .101-.152 0-.152-.1 0-.1.152 0 .152zm13.73.076c.202 0 .202-.305 0-.305-.201 0-.201.305 0 .305zm13.73.076c.303 0 .303-.457 0-.457-.302 0-.302.457 0 .457zm13.73.038c.353 0 .353-.533 0-.533-.352 0-.352.533 0 .533zm13.73.038c.403 0 .403-.609 0-.609s-.403.609 0 .609zm13.73 0c.403 0 .403-.609 0-.609s-.403.609 0 .609zm13.73-.076c.302 0 .302-.457 0-.457s-.302.457 0 .457zm13.73-.038c.252 0 .252-.381 0-.381s-.252.381 0 .381zm13.729-.076c.15 0 .15-.228 0-.228s-.15.228 0 .228zm13.73-.076c.05 0 .05-.077 0-.077s-.05.077 0 .077zm-164.758 13.768c.101 0 .101-.153 0-.153s-.101.153 0 .153zm13.73.152c.302 0 .302-.457 0-.457-.303 0-.303.457 0 .457zm13.729.152c.504 0 .504-.761 0-.761-.503 0-.503.761 0 .761zm13.73.153c.705 0 .705-1.067 0-1.067s-.705 1.067 0 1.067zm13.73.114c.857 0 .857-1.295 0-1.295-.856 0-.856 1.295 0 1.295zm13.73.076c.957 0 .957-1.447 0-1.447s-.957 1.447 0 1.447zm13.73.076c1.058 0 1.058-1.599 0-1.599-1.057 0-1.057 1.599 0 1.599zm13.73 0c1.058 0 1.058-1.599 0-1.599s-1.058 1.599 0 1.599zm13.73 0c1.058 0 1.058-1.599 0-1.599s-1.058 1.599 0 1.599zm13.73-.038c1.007 0 1.007-1.523 0-1.523s-1.007 1.523 0 1.523zm13.73-.114c.856 0 .856-1.295 0-1.295s-.856 1.295 0 1.295zm13.729-.114c.71 0 .71-1.067 0-1.067-.7 0-.7 1.067 0 1.067zm13.73-.115c.55 0 .55-.837 0-.837s-.55.837 0 .837zm13.73-.19c.3 0 .3-.457 0-.457s-.3.457 0 .457zm13.73-.152c.1 0 .1-.153 0-.153s-.1.153 0 .153zm-219.678 13.691c.05 0 .05-.076 0-.076-.051 0-.051.076 0 .076zm13.729.191c.303 0 .303-.457 0-.457-.302 0-.302.457 0 .457zm13.731.228c.604 0 .604-.914 0-.914-.605 0-.605.914 0 .914zm13.73.229c.906 0 .906-1.371 0-1.371-.907 0-.907 1.371 0 1.371zm13.729.19c1.159 0 1.159-1.751 0-1.751-1.158 0-1.158 1.751 0 1.751zm13.73.152c1.36 0 1.36-2.056 0-2.056s-1.36 2.056 0 2.056zm13.73.114c1.512 0 1.512-2.284 0-2.284-1.511 0-1.511 2.284 0 2.284zm13.73.115c1.663 0 1.663-2.513 0-2.513-1.662 0-1.662 2.513 0 2.513zm13.73.038c1.713 0 1.713-2.589 0-2.589s-1.713 2.589 0 2.589zm13.73.038c1.763 0 1.763-2.665 0-2.665s-1.763 2.665 0 2.665zm13.73-.038c1.713 0 1.713-2.589 0-2.589-1.712 0-1.712 2.589 0 2.589zm13.73-.038c1.662 0 1.662-2.513 0-2.513s-1.662 2.513 0 2.513zm13.73-.076c1.562 0 1.562-2.361 0-2.361s-1.562 2.361 0 2.361zm13.729-.153c1.36 0 1.36-2.056 0-2.056s-1.36 2.056 0 2.056zm13.73-.152c1.16 0 1.16-1.751 0-1.751s-1.16 1.751 0 1.751zm13.73-.19c.91 0 .91-1.371 0-1.371s-.91 1.371 0 1.371zm13.73-.191c.66 0 .66-.99 0-.99-.65 0-.65.99 0 .99zm13.73-.228c.35 0 .35-.533 0-.533s-.35.533 0 .533zm13.73-.191c.1 0 .1-.152 0-.152s-.1.152 0 .152zm-260.868 13.768c.151 0 .151-.228 0-.228s-.151.228 0 .228zm13.73.267c.503 0 .503-.762 0-.762-.504 0-.504.762 0 .762zm13.729.304c.907 0 .907-1.37 0-1.37-.906 0-.906 1.37 0 1.37zm13.731.229c1.209 0 1.209-1.828 0-1.828-1.21 0-1.21 1.828 0 1.828zm13.73.228c1.511 0 1.511-2.284 0-2.284-1.512 0-1.512 2.284 0 2.284zm13.729.229c1.814 0 1.814-2.742 0-2.742-1.813 0-1.813 2.742 0 2.742zm13.73.152c2.015 0 2.015-3.046 0-3.046s-2.015 3.046 0 3.046zm13.73.152c2.217 0 2.217-3.35 0-3.35-2.216 0-2.216 3.35 0 3.35zm13.73.076c2.317 0 2.317-3.502 0-3.502s-2.317 3.502 0 3.502zm13.73.077c2.418 0 2.418-3.655 0-3.655s-2.418 3.655 0 3.655zm13.73 0c2.418 0 2.418-3.655 0-3.655s-2.418 3.655 0 3.655zm13.73 0c2.418 0 2.418-3.655 0-3.655s-2.418 3.655 0 3.655zm13.73-.077c2.317 0 2.317-3.502 0-3.502s-2.317 3.502 0 3.502zm13.73-.076c2.216 0 2.216-3.35 0-3.35s-2.216 3.35 0 3.35zm13.729-.152c2.02 0 2.02-3.046 0-3.046-2.01 0-2.01 3.046 0 3.046zm13.73-.152c1.81 0 1.81-2.742 0-2.742s-1.81 2.742 0 2.742zm13.73-.191c1.56 0 1.56-2.36 0-2.36s-1.56 2.36 0 2.36zm13.73-.228c1.26 0 1.26-1.904 0-1.904s-1.26 1.904 0 1.904zm13.73-.267c.91 0 .91-1.37 0-1.37s-.91 1.37 0 1.37zm13.73-.266c.55 0 .55-.838 0-.838s-.55.838 0 .838zm13.73-.267c.2 0 .2-.304 0-.304s-.2.304 0 .304zm-288.328 13.73c.201 0 .201-.304 0-.304-.202 0-.202.304 0 .304zm13.73.343c.654 0 .654-.99 0-.99-.655 0-.655.99 0 .99zm13.73.304c1.057 0 1.057-1.599 0-1.599-1.058 0-1.058 1.599 0 1.599zm13.729.305c1.462 0 1.462-2.208 0-2.208-1.46 0-1.46 2.208 0 2.208zm13.731.266c1.813 0 1.813-2.741 0-2.741-1.814 0-1.814 2.741 0 2.741zm13.73.267c2.165 0 2.165-3.274 0-3.274-2.167 0-2.167 3.274 0 3.274zm13.729.19c2.418 0 2.418-3.655 0-3.655-2.417 0-2.417 3.655 0 3.655zm13.73.191c2.67 0 2.67-4.036 0-4.036-2.669 0-2.669 4.036 0 4.036zm13.73.152c2.872 0 2.872-4.34 0-4.34-2.871 0-2.871 4.34 0 4.34zm13.73.076c2.972 0 2.972-4.492 0-4.492s-2.972 4.492 0 4.492zm13.73.076c3.073 0 3.073-4.645 0-4.645s-3.073 4.645 0 4.645zm13.73.038c3.123 0 3.123-4.721 0-4.721s-3.123 4.721 0 4.721zm13.73-.038c3.073 0 3.073-4.645 0-4.645-3.072 0-3.072 4.645 0 4.645zm13.73-.038c3.022 0 3.022-4.569 0-4.569s-3.022 4.569 0 4.569zm13.73-.114c2.871 0 2.871-4.34 0-4.34s-2.871 4.34 0 4.34zm13.729-.152c2.67 0 2.67-4.036 0-4.036s-2.67 4.036 0 4.036zm13.73-.153c2.47 0 2.47-3.731 0-3.731s-2.47 3.731 0 3.731zm13.73-.228c2.17 0 2.17-3.274 0-3.274s-2.17 3.274 0 3.274zm13.73-.229c1.86 0 1.86-2.817 0-2.817s-1.86 2.817 0 2.817zm13.73-.304c1.46 0 1.46-2.208 0-2.208s-1.46 2.208 0 2.208zm13.73-.267c1.11 0 1.11-1.675 0-1.675s-1.11 1.675 0 1.675zm13.73-.342c.66 0 .66-.99 0-.99-.65 0-.65.99 0 .99zm13.73-.305c.25 0 .25-.381 0-.381s-.25.381 0 .381zm-315.788 13.692c.201 0 .201-.305 0-.305s-.201.305 0 .305zm13.73.343c.655 0 .655-.991 0-.991s-.655.991 0 .991zm13.73.38c1.158 0 1.158-1.751 0-1.751-1.159 0-1.159 1.751 0 1.751zm13.73.343c1.612 0 1.612-2.437 0-2.437s-1.612 2.437 0 2.437zm13.729.304c2.016 0 2.016-3.045 0-3.045-2.014 0-2.014 3.045 0 3.045zm13.731.267c2.367 0 2.367-3.579 0-3.579-2.368 0-2.368 3.579 0 3.579zm13.73.266c2.72 0 2.72-4.112 0-4.112-2.721 0-2.721 4.112 0 4.112zm13.729.229c3.023 0 3.023-4.569 0-4.569-3.022 0-3.022 4.569 0 4.569zm13.73.19c3.275 0 3.275-4.949 0-4.949-3.274 0-3.274 4.949 0 4.949zm13.73.153c3.476 0 3.476-5.254 0-5.254-3.475 0-3.475 5.254 0 5.254zm13.73.114c3.627 0 3.627-5.483 0-5.483s-3.627 5.483 0 5.483zm13.73.076c3.728 0 3.728-5.635 0-5.635-3.727 0-3.727 5.635 0 5.635zm13.73.038c3.778 0 3.778-5.711 0-5.711s-3.778 5.711 0 5.711zm13.73-.038c3.728 0 3.728-5.635 0-5.635s-3.728 5.635 0 5.635zm13.73-.038c3.677 0 3.677-5.559 0-5.559s-3.677 5.559 0 5.559zm13.73-.114c3.526 0 3.526-5.33 0-5.33s-3.526 5.33 0 5.33zm13.729-.153c3.33 0 3.33-5.025 0-5.025-3.32 0-3.32 5.025 0 5.025zm13.73-.19c3.07 0 3.07-4.645 0-4.645s-3.07 4.645 0 4.645zm13.73-.228c2.77 0 2.77-4.188 0-4.188s-2.77 4.188 0 4.188zm13.73-.267c2.42 0 2.42-3.655 0-3.655s-2.42 3.655 0 3.655zm13.73-.266c2.07 0 2.07-3.122 0-3.122-2.06 0-2.06 3.122 0 3.122zm13.73-.343c1.61 0 1.61-2.437 0-2.437s-1.61 2.437 0 2.437zm13.73-.305c1.21 0 1.21-1.827 0-1.827s-1.21 1.827 0 1.827zm13.73-.38c.71 0 .71-1.066 0-1.066-.7 0-.7 1.066 0 1.066zm13.73-.343c.25 0 .25-.381 0-.381s-.25.381 0 .381zm-343.248 13.654c.151 0 .151-.229 0-.229s-.151.229 0 .229zm13.73.38c.655 0 .655-.99 0-.99s-.655.99 0 .99zm13.73.381c1.158 0 1.158-1.751 0-1.751-1.159 0-1.159 1.751 0 1.751zm13.73.381c1.662 0 1.662-2.513 0-2.513s-1.662 2.513 0 2.513zm13.73.342c2.115 0 2.115-3.198 0-3.198-2.116 0-2.116 3.198 0 3.198zm13.729.343c2.57 0 2.57-3.884 0-3.884-2.568 0-2.568 3.884 0 3.884zm13.731.305c2.972 0 2.972-4.493 0-4.493s-2.972 4.493 0 4.493zm13.73.266c3.324 0 3.324-5.025 0-5.025-3.325 0-3.325 5.025 0 5.025zm13.729.229c3.627 0 3.627-5.483 0-5.483-3.626 0-3.626 5.483 0 5.483zm13.73.228c3.93 0 3.93-5.939 0-5.939-3.929 0-3.929 5.939 0 5.939zm13.73.152c4.131 0 4.131-6.244 0-6.244-4.13 0-4.13 6.244 0 6.244zm13.73.114c4.282 0 4.282-6.472 0-6.472-4.281 0-4.281 6.472 0 6.472zm13.73.077c4.382 0 4.382-6.625 0-6.625s-4.382 6.625 0 6.625zm13.73.038c4.433 0 4.433-6.701 0-6.701s-4.433 6.701 0 6.701zm13.73-.038c4.383 0 4.383-6.625 0-6.625-4.382 0-4.382 6.625 0 6.625zm13.73-.038c4.332 0 4.332-6.549 0-6.549s-4.332 6.549 0 6.549zm13.73-.153c4.129 0 4.129-6.244 0-6.244-4.131 0-4.131 6.244 0 6.244zm13.729-.152c3.93 0 3.93-5.939 0-5.939s-3.93 5.939 0 5.939zm13.73-.19c3.68 0 3.68-5.559 0-5.559s-3.68 5.559 0 5.559zm13.73-.267c3.33 0 3.33-5.025 0-5.025-3.32 0-3.32 5.025 0 5.025zm13.73-.266c2.97 0 2.97-4.493 0-4.493s-2.97 4.493 0 4.493zm13.73-.305c2.57 0 2.57-3.884 0-3.884s-2.57 3.884 0 3.884zm13.73-.305c2.17 0 2.17-3.274 0-3.274s-2.17 3.274 0 3.274zm13.73-.38c1.66 0 1.66-2.513 0-2.513s-1.66 2.513 0 2.513zm13.73-.343c1.21 0 1.21-1.827 0-1.827s-1.21 1.827 0 1.827zm13.73-.419c.66 0 .66-.99 0-.99-.65 0-.65.99 0 .99zm13.73-.343c.2 0 .2-.304 0-.304s-.2.304 0 .304zm-370.708 13.616c.05 0 .05-.076 0-.076s-.05.076 0 .076zm13.73.343c.503 0 .503-.762 0-.762-.504 0-.504.762 0 .762zm13.73.418c1.058 0 1.058-1.598 0-1.598s-1.058 1.598 0 1.598zm13.73.419c1.612 0 1.612-2.436 0-2.436s-1.612 2.436 0 2.436zm13.73.381c2.115 0 2.115-3.198 0-3.198-2.116 0-2.116 3.198 0 3.198zm13.73.381c2.619 0 2.619-3.96 0-3.96-2.62 0-2.62 3.96 0 3.96zm13.729.343c3.073 0 3.073-4.645 0-4.645-3.072 0-3.072 4.645 0 4.645zm13.731.304c3.475 0 3.475-5.254 0-5.254-3.476 0-3.476 5.254 0 5.254zm13.73.305c3.878 0 3.878-5.863 0-5.863-3.879 0-3.879 5.863 0 5.863zm13.729.266c4.232 0 4.232-6.396 0-6.396-4.231 0-4.231 6.396 0 6.396zm13.73.229c4.534 0 4.534-6.854 0-6.854-4.533 0-4.533 6.854 0 6.854zm13.73.19c4.786 0 4.786-7.234 0-7.234-4.785 0-4.785 7.234 0 7.234zm13.73.114c4.937 0 4.937-7.462 0-7.462-4.936 0-4.936 7.462 0 7.462zm13.73.076c5.038 0 5.038-7.614 0-7.614-5.037 0-5.037 7.614 0 7.614zm13.73.038c5.088 0 5.088-7.69 0-7.69-5.087 0-5.087 7.69 0 7.69zm13.73 0c5.088 0 5.088-7.69 0-7.69s-5.088 7.69 0 7.69zm13.73-.076c4.987 0 4.987-7.538 0-7.538s-4.987 7.538 0 7.538zm13.73-.152c4.789 0 4.789-7.234 0-7.234-4.785 0-4.785 7.234 0 7.234zm13.729-.19c4.53 0 4.53-6.854 0-6.854s-4.53 6.854 0 6.854zm13.73-.229c4.23 0 4.23-6.396 0-6.396s-4.23 6.396 0 6.396zm13.73-.228c3.93 0 3.93-5.94 0-5.94s-3.93 5.94 0 5.94zm13.73-.305c3.53 0 3.53-5.33 0-5.33s-3.53 5.33 0 5.33zm13.73-.342c3.07 0 3.07-4.645 0-4.645s-3.07 4.645 0 4.645zm13.73-.343c2.62 0 2.62-3.96 0-3.96s-2.62 3.96 0 3.96zm13.73-.343c2.17 0 2.17-3.274 0-3.274s-2.17 3.274 0 3.274zm13.73-.381c1.66 0 1.66-2.512 0-2.512s-1.66 2.512 0 2.512zm13.73-.418c1.11 0 1.11-1.675 0-1.675s-1.11 1.675 0 1.675zm13.73-.419c.55 0 .55-.838 0-.838s-.55.838 0 .838zm13.73-.343c.1 0 .1-.152 0-.152s-.1.152 0 .152zm-384.438 13.882c.302 0 .302-.457 0-.457s-.302.457 0 .457zm13.73.457c.907 0 .907-1.37 0-1.37s-.907 1.37 0 1.37zm13.73.419c1.461 0 1.461-2.208 0-2.208s-1.461 2.208 0 2.208zm13.73.419c2.015 0 2.015-3.046 0-3.046s-2.015 3.046 0 3.046zm13.73.419c2.569 0 2.569-3.884 0-3.884s-2.569 3.884 0 3.884zm13.73.38c3.072 0 3.072-4.645 0-4.645-3.073 0-3.073 4.645 0 4.645zm13.729.381c3.577 0 3.577-5.406 0-5.406-3.576 0-3.576 5.406 0 5.406zm13.731.342c4.029 0 4.029-6.091 0-6.091-4.03 0-4.03 6.091 0 6.091zm13.73.305c4.432 0 4.432-6.7 0-6.7-4.433 0-4.433 6.7 0 6.7zm13.729.267c4.786 0 4.786-7.234 0-7.234-4.785 0-4.785 7.234 0 7.234zm13.73.266c5.138 0 5.138-7.766 0-7.766s-5.138 7.766 0 7.766zm13.73.191c5.39 0 5.39-8.148 0-8.148s-5.39 8.148 0 8.148zm13.73.152c5.591 0 5.591-8.452 0-8.452s-5.591 8.452 0 8.452zm13.73.114c5.743 0 5.743-8.68 0-8.68-5.742 0-5.742 8.68 0 8.68zm13.73.038c5.793 0 5.793-8.756 0-8.756s-5.793 8.756 0 8.756zm13.73-.038c5.742 0 5.742-8.68 0-8.68s-5.742 8.68 0 8.68zm13.73-.114c5.591 0 5.591-8.452 0-8.452s-5.591 8.452 0 8.452zm13.73-.115c5.439 0 5.439-8.223 0-8.223-5.44 0-5.44 8.223 0 8.223zm13.729-.228c5.14 0 5.14-7.766 0-7.766s-5.14 7.766 0 7.766zm13.73-.228c4.84 0 4.84-7.31 0-7.31-4.83 0-4.83 7.31 0 7.31zm13.73-.305c4.43 0 4.43-6.7 0-6.7s-4.43 6.7 0 6.7zm13.73-.305c4.03 0 4.03-6.091 0-6.091s-4.03 6.091 0 6.091zm13.73-.342c3.58 0 3.58-5.406 0-5.406s-3.58 5.406 0 5.406zm13.73-.343c3.12 0 3.12-4.721 0-4.721s-3.12 4.721 0 4.721zm13.73-.418c2.57 0 2.57-3.884 0-3.884s-2.57 3.884 0 3.884zm13.73-.381c2.07 0 2.07-3.122 0-3.122-2.06 0-2.06 3.122 0 3.122zm13.73-.419c1.51 0 1.51-2.284 0-2.284s-1.51 2.284 0 2.284zm13.73-.457c.91 0 .91-1.37 0-1.37s-.91 1.37 0 1.37zm13.73-.419c.35 0 .35-.533 0-.533s-.35.533 0 .533zm-398.168 13.54c.101 0 .101-.152 0-.152s-.101.152 0 .152zm13.73.381c.604 0 .604-.914 0-.914s-.604.914 0 .914zm13.73.456c1.209 0 1.209-1.827 0-1.827s-1.209 1.827 0 1.827zm13.73.457c1.813 0 1.813-2.741 0-2.741-1.814 0-1.814 2.741 0 2.741zm13.73.419c2.367 0 2.367-3.579 0-3.579-2.368 0-2.368 3.579 0 3.579zm13.73.457c2.972 0 2.972-4.493 0-4.493s-2.972 4.493 0 4.493zm13.73.38c3.476 0 3.476-5.253 0-5.253s-3.476 5.253 0 5.253zm13.729.419c4.03 0 4.03-6.091 0-6.091-4.029 0-4.029 6.091 0 6.091zm13.731.343c4.482 0 4.482-6.777 0-6.777-4.483 0-4.483 6.777 0 6.777zm13.73.343c4.936 0 4.936-7.462 0-7.462-4.937 0-4.937 7.462 0 7.462zm13.729.304c5.34 0 5.34-8.071 0-8.071-5.339 0-5.339 8.071 0 8.071zm13.73.305c5.743 0 5.743-8.681 0-8.681-5.742 0-5.742 8.681 0 8.681zm13.73.228c6.045 0 6.045-9.137 0-9.137-6.044 0-6.044 9.137 0 9.137zm13.73.153c6.247 0 6.247-9.442 0-9.442-6.246 0-6.246 9.442 0 9.442zm13.73.114c6.398 0 6.398-9.67 0-9.67-6.397 0-6.397 9.67 0 9.67zm13.73.038c6.448 0 6.448-9.747 0-9.747-6.447 0-6.447 9.747 0 9.747zm13.73-.038c6.397 0 6.397-9.67 0-9.67s-6.397 9.67 0 9.67zm13.73-.114c6.246 0 6.246-9.442 0-9.442s-6.246 9.442 0 9.442zm13.73-.153c6.049 0 6.049-9.137 0-9.137-6.045 0-6.045 9.137 0 9.137zm13.729-.228c5.74 0 5.74-8.681 0-8.681s-5.74 8.681 0 8.681zm13.73-.267c5.39 0 5.39-8.147 0-8.147s-5.39 8.147 0 8.147zm13.73-.304c4.99 0 4.99-7.538 0-7.538s-4.99 7.538 0 7.538zm13.73-.343c4.53 0 4.53-6.853 0-6.853s-4.53 6.853 0 6.853zm13.73-.381c4.03 0 4.03-6.091 0-6.091s-4.03 6.091 0 6.091zm13.73-.38c3.53 0 3.53-5.331 0-5.331s-3.53 5.331 0 5.331zm13.73-.381c3.02 0 3.02-4.569 0-4.569s-3.02 4.569 0 4.569zm13.73-.457c2.42 0 2.42-3.655 0-3.655s-2.42 3.655 0 3.655zm13.73-.419c1.86 0 1.86-2.817 0-2.817s-1.86 2.817 0 2.817zm13.73-.457c1.26 0 1.26-1.903 0-1.903s-1.26 1.903 0 1.903zm13.73-.456c.66 0 .66-.99 0-.99-.65 0-.65.99 0 .99zm13.73-.419c.1 0 .1-.152 0-.152s-.1.152 0 .152zm-411.898 13.882c.302 0 .302-.457 0-.457s-.302.457 0 .457zm13.73.457c.907 0 .907-1.371 0-1.371s-.907 1.371 0 1.371zm13.73.457c1.511 0 1.511-2.285 0-2.285s-1.511 2.285 0 2.285zm13.73.495c2.166 0 2.166-3.275 0-3.275s-2.166 3.275 0 3.275zm13.73.418c2.72 0 2.72-4.111 0-4.111s-2.72 4.111 0 4.111zm13.73.457c3.324 0 3.324-5.025 0-5.025-3.325 0-3.325 5.025 0 5.025zm13.73.419c3.878 0 3.878-5.863 0-5.863-3.879 0-3.879 5.863 0 5.863zm13.729.419c4.433 0 4.433-6.701 0-6.701-4.432 0-4.432 6.701 0 6.701zm13.731.38c4.936 0 4.936-7.462 0-7.462-4.937 0-4.937 7.462 0 7.462zm13.73.381c5.44 0 5.44-8.224 0-8.224-5.441 0-5.441 8.224 0 8.224zm13.729.343c5.894 0 5.894-8.909 0-8.909-5.893 0-5.893 8.909 0 8.909zm13.73.304c6.297 0 6.297-9.518 0-9.518-6.296 0-6.296 9.518 0 9.518zm13.73.267c6.649 0 6.649-10.051 0-10.051s-6.649 10.051 0 10.051zm13.73.19c6.901 0 6.901-10.431 0-10.431s-6.901 10.431 0 10.431zm13.73.115c7.052 0 7.052-10.661 0-10.661s-7.052 10.661 0 10.661zm13.73.038c7.103 0 7.103-10.737 0-10.737-7.102 0-7.102 10.737 0 10.737zm13.73-.038c7.052 0 7.052-10.661 0-10.661s-7.052 10.661 0 10.661zm13.73-.115c6.901 0 6.901-10.431 0-10.431s-6.901 10.431 0 10.431zm13.73-.19c6.649 0 6.649-10.051 0-10.051s-6.649 10.051 0 10.051zm13.729-.228c6.35 0 6.35-9.595 0-9.595s-6.35 9.595 0 9.595zm13.73-.305c5.94 0 5.94-8.985 0-8.985s-5.94 8.985 0 8.985zm13.73-.343c5.49 0 5.49-8.299 0-8.299s-5.49 8.299 0 8.299zm13.73-.38c4.99 0 4.99-7.539 0-7.539s-4.99 7.539 0 7.539zm13.73-.381c4.48 0 4.48-6.777 0-6.777s-4.48 6.777 0 6.777zm13.73-.419c3.93 0 3.93-5.939 0-5.939s-3.93 5.939 0 5.939zm13.73-.419c3.38 0 3.38-5.102 0-5.102-3.37 0-3.37 5.102 0 5.102zm13.73-.457c2.77 0 2.77-4.188 0-4.188s-2.77 4.188 0 4.188zm13.73-.456c2.17 0 2.17-3.275 0-3.275s-2.17 3.275 0 3.275zm13.73-.458c1.56 0 1.56-2.36 0-2.36s-1.56 2.36 0 2.36zm13.73-.456c.96 0 .96-1.447 0-1.447s-.96 1.447 0 1.447zm13.73-.457c.35 0 .35-.533 0-.533s-.35.533 0 .533zM735.302 804.37c.051 0 .051-.076 0-.076-.05 0-.05.076 0 .076zm13.73.343c.504 0 .504-.762 0-.762s-.504.762 0 .762zm13.73.495c1.158 0 1.158-1.751 0-1.751-1.159 0-1.159 1.751 0 1.751zm13.73.495c1.813 0 1.813-2.742 0-2.742s-1.813 2.742 0 2.742zm13.73.456c2.418 0 2.418-3.654 0-3.654s-2.418 3.654 0 3.654zm13.73.458c3.022 0 3.022-4.569 0-4.569-3.023 0-3.023 4.569 0 4.569zm13.73.456c3.627 0 3.627-5.482 0-5.482s-3.627 5.482 0 5.482zm13.73.457c4.231 0 4.231-6.396 0-6.396-4.232 0-4.232 6.396 0 6.396zm13.729.419c4.786 0 4.786-7.234 0-7.234-4.785 0-4.785 7.234 0 7.234zm13.731.419c5.339 0 5.339-8.071 0-8.071-5.34 0-5.34 8.071 0 8.071zm13.73.418c5.893 0 5.893-8.908 0-8.908-5.894 0-5.894 8.908 0 8.908zm13.729.381c6.398 0 6.398-9.67 0-9.67-6.397 0-6.397 9.67 0 9.67zm13.73.343c6.851 0 6.851-10.356 0-10.356-6.85 0-6.85 10.356 0 10.356zm13.73.305c7.254 0 7.254-10.965 0-10.965-7.253 0-7.253 10.965 0 10.965zm13.73.228c7.556 0 7.556-11.422 0-11.422s-7.556 11.422 0 11.422zm13.73.152c7.758 0 7.758-11.726 0-11.726-7.757 0-7.757 11.726 0 11.726zm13.73.038c7.808 0 7.808-11.802 0-11.802-7.807 0-7.807 11.802 0 11.802zm13.73-.038c7.757 0 7.757-11.726 0-11.726s-7.757 11.726 0 11.726zm13.73-.152c7.556 0 7.556-11.422 0-11.422s-7.556 11.422 0 11.422zm13.73-.228c7.249 0 7.249-10.965 0-10.965-7.254 0-7.254 10.965 0 10.965zm13.729-.267c6.9 0 6.9-10.432 0-10.432s-6.9 10.432 0 10.432zm13.73-.343c6.45 0 6.45-9.746 0-9.746s-6.45 9.746 0 9.746zm13.73-.38c5.94 0 5.94-8.985 0-8.985s-5.94 8.985 0 8.985zm13.73-.419c5.39 0 5.39-8.148 0-8.148s-5.39 8.148 0 8.148zm13.73-.419c4.84 0 4.84-7.31 0-7.31s-4.84 7.31 0 7.31zm13.73-.419c4.28 0 4.28-6.472 0-6.472s-4.28 6.472 0 6.472zm13.73-.457c3.68 0 3.68-5.558 0-5.558s-3.68 5.558 0 5.558zm13.73-.456c3.07 0 3.07-4.645 0-4.645s-3.07 4.645 0 4.645zm13.73-.457c2.47 0 2.47-3.732 0-3.732s-2.47 3.732 0 3.732zm13.73-.457c1.86 0 1.86-2.817 0-2.817s-1.86 2.817 0 2.817zm13.73-.495c1.21 0 1.21-1.828 0-1.828s-1.21 1.828 0 1.828zm13.73-.495c.55 0 .55-.838 0-.838s-.55.838 0 .838zm13.73-.381c.05 0 .05-.076 0-.076s-.05.076 0 .076zm-439.358 13.768c.101 0 .101-.152 0-.152s-.101.152 0 .152zm13.73.457c.705 0 .705-1.066 0-1.066s-.705 1.066 0 1.066zm13.73.495c1.36 0 1.36-2.056 0-2.056s-1.36 2.056 0 2.056zm13.73.495c2.015 0 2.015-3.046 0-3.046s-2.015 3.046 0 3.046zm13.73.495c2.67 0 2.67-4.036 0-4.036s-2.67 4.036 0 4.036zm13.73.456c3.274 0 3.274-4.949 0-4.949s-3.274 4.949 0 4.949zm13.73.496c3.929 0 3.929-5.94 0-5.94s-3.929 5.94 0 5.94zm13.73.456c4.533 0 4.533-6.853 0-6.853-4.534 0-4.534 6.853 0 6.853zm13.729.457c5.139 0 5.139-7.767 0-7.767-5.137 0-5.137 7.767 0 7.767zm13.731.457c5.742 0 5.742-8.68 0-8.68-5.743 0-5.743 8.68 0 8.68zm13.73.419c6.296 0 6.296-9.518 0-9.518-6.297 0-6.297 9.518 0 9.518zm13.729.419c6.851 0 6.851-10.356 0-10.356-6.85 0-6.85 10.356 0 10.356zm13.73.38c7.355 0 7.355-11.117 0-11.117-7.354 0-7.354 11.117 0 11.117zm13.73.343c7.808 0 7.808-11.802 0-11.802-7.807 0-7.807 11.802 0 11.802zm13.73.266c8.161 0 8.161-12.335 0-12.335-8.16 0-8.16 12.335 0 12.335zm13.73.191c8.412 0 8.412-12.716 0-12.716s-8.412 12.716 0 12.716zm13.73.076c8.513 0 8.513-12.868 0-12.868s-8.513 12.868 0 12.868zm13.73-.076c8.412 0 8.412-12.716 0-12.716s-8.412 12.716 0 12.716zm13.73-.191c8.16 0 8.16-12.335 0-12.335s-8.16 12.335 0 12.335zm13.73-.266c7.809 0 7.809-11.802 0-11.802-7.808 0-7.808 11.802 0 11.802zm13.729-.304c7.41 0 7.41-11.194 0-11.194-7.4 0-7.4 11.194 0 11.194zm13.73-.381c6.9 0 6.9-10.432 0-10.432s-6.9 10.432 0 10.432zm13.73-.419c6.35 0 6.35-9.594 0-9.594s-6.35 9.594 0 9.594zm13.73-.419c5.79 0 5.79-8.756 0-8.756s-5.79 8.756 0 8.756zm13.73-.457c5.19 0 5.19-7.842 0-7.842s-5.19 7.842 0 7.842zm13.73-.456c4.58 0 4.58-6.93 0-6.93s-4.58 6.93 0 6.93zm13.73-.458c3.98 0 3.98-6.015 0-6.015s-3.98 6.015 0 6.015zm13.73-.494c3.33 0 3.33-5.026 0-5.026-3.32 0-3.32 5.026 0 5.026zm13.73-.457c2.72 0 2.72-4.112 0-4.112s-2.72 4.112 0 4.112zm13.73-.495c2.07 0 2.07-3.122 0-3.122-2.06 0-2.06 3.122 0 3.122zm13.73-.495c1.41 0 1.41-2.132 0-2.132s-1.41 2.132 0 2.132zm13.73-.495c.76 0 .76-1.142 0-1.142s-.76 1.142 0 1.142zm13.73-.457c.15 0 .15-.228 0-.228s-.15.228 0 .228zm-439.358 13.768c.202 0 .202-.305 0-.305-.201 0-.201.305 0 .305zm13.73.495c.856 0 .856-1.294 0-1.294s-.856 1.294 0 1.294zm13.73.495c1.511 0 1.511-2.284 0-2.284s-1.511 2.284 0 2.284zm13.73.533c2.216 0 2.216-3.35 0-3.35s-2.216 3.35 0 3.35zm13.73.495c2.871 0 2.871-4.341 0-4.341s-2.871 4.341 0 4.341zm13.73.457c3.475 0 3.475-5.254 0-5.254-3.476 0-3.476 5.254 0 5.254zm13.73.494c4.13 0 4.13-6.243 0-6.243-4.131 0-4.131 6.243 0 6.243zm13.73.496c4.785 0 4.785-7.234 0-7.234-4.786 0-4.786 7.234 0 7.234zm13.729.456c5.39 0 5.39-8.147 0-8.147-5.389 0-5.389 8.147 0 8.147zm13.731.495c6.044 0 6.044-9.137 0-9.137-6.045 0-6.045 9.137 0 9.137zm13.73.457c6.649 0 6.649-10.051 0-10.051s-6.649 10.051 0 10.051zm13.729.457c7.254 0 7.254-10.965 0-10.965-7.253 0-7.253 10.965 0 10.965zm13.73.419c7.808 0 7.808-11.802 0-11.802-7.807 0-7.807 11.802 0 11.802zm13.73.38c8.312 0 8.312-12.563 0-12.563-8.311 0-8.311 12.563 0 12.563zm13.73.343c8.765 0 8.765-13.249 0-13.249-8.764 0-8.764 13.249 0 13.249zm13.73.19c9.017 0 9.017-13.629 0-13.629-9.016 0-9.016 13.629 0 13.629zm13.73.115c9.168 0 9.168-13.859 0-13.859s-9.168 13.859 0 13.859zm13.73-.076c9.067 0 9.067-13.706 0-13.706s-9.067 13.706 0 13.706zm13.73-.229c8.765 0 8.765-13.249 0-13.249s-8.765 13.249 0 13.249zm13.73-.304c8.359 0 8.359-12.64 0-12.64-8.362 0-8.362 12.64 0 12.64zm13.729-.381c7.86 0 7.86-11.878 0-11.878s-7.86 11.878 0 11.878zm13.73-.457c7.25 0 7.25-10.965 0-10.965s-7.25 10.965 0 10.965zm13.73-.419c6.7 0 6.7-10.127 0-10.127s-6.7 10.127 0 10.127zm13.73-.457c6.1 0 6.1-9.213 0-9.213-6.09 0-6.09 9.213 0 9.213zm13.73-.494c5.44 0 5.44-8.224 0-8.224s-5.44 8.224 0 8.224zm13.73-.458c4.84 0 4.84-7.309 0-7.309s-4.84 7.309 0 7.309zm13.73-.494c4.18 0 4.18-6.32 0-6.32s-4.18 6.32 0 6.32zm13.73-.495c3.53 0 3.53-5.33 0-5.33s-3.53 5.33 0 5.33zm13.73-.457c2.92 0 2.92-4.416 0-4.416s-2.92 4.416 0 4.416zm13.73-.495c2.27 0 2.27-3.426 0-3.426s-2.27 3.426 0 3.426zm13.73-.533c1.56 0 1.56-2.36 0-2.36s-1.56 2.36 0 2.36zm13.73-.495c.91 0 .91-1.371 0-1.371s-.91 1.371 0 1.371zm13.73-.495c.25 0 .25-.381 0-.381s-.25.381 0 .381zM735.302 845.75c.302 0 .302-.457 0-.457s-.302.457 0 .457zm13.73.495c.957 0 .957-1.447 0-1.447s-.957 1.447 0 1.447zm13.73.533c1.662 0 1.662-2.513 0-2.513s-1.662 2.513 0 2.513zm13.73.495c2.317 0 2.317-3.503 0-3.503s-2.317 3.503 0 3.503zm13.73.495c2.972 0 2.972-4.493 0-4.493s-2.972 4.493 0 4.493zm13.73.495c3.626 0 3.626-5.483 0-5.483-3.627 0-3.627 5.483 0 5.483zm13.73.494c4.281 0 4.281-6.472 0-6.472-4.282 0-4.282 6.472 0 6.472zm13.73.496c4.936 0 4.936-7.463 0-7.463-4.937 0-4.937 7.463 0 7.463zm13.729.495c5.592 0 5.592-8.452 0-8.452-5.591 0-5.591 8.452 0 8.452zm13.731.494c6.246 0 6.246-9.441 0-9.441-6.247 0-6.247 9.441 0 9.441zm13.73.495c6.9 0 6.9-10.432 0-10.432-6.901 0-6.901 10.432 0 10.432zm13.729.495c7.556 0 7.556-11.421 0-11.421-7.555 0-7.555 11.421 0 11.421zm13.73.457c8.16 0 8.16-12.335 0-12.335s-8.16 12.335 0 12.335zm13.73.457c8.765 0 8.765-13.249 0-13.249-8.764 0-8.764 13.249 0 13.249zm13.73.381c9.269 0 9.269-14.011 0-14.011-9.268 0-9.268 14.011 0 14.011zm13.73.304c9.672 0 9.672-14.62 0-14.62-9.671 0-9.671 14.62 0 14.62zm13.73.115c9.823 0 9.823-14.849 0-14.849s-9.823 14.849 0 14.849zm13.73-.115c9.672 0 9.672-14.62 0-14.62-9.671 0-9.671 14.62 0 14.62zm13.73-.266c9.319 0 9.319-14.087 0-14.087s-9.319 14.087 0 14.087zm13.73-.419c8.769 0 8.769-13.249 0-13.249-8.765 0-8.765 13.249 0 13.249zm13.729-.419c8.21 0 8.21-12.411 0-12.411s-8.21 12.411 0 12.411zm13.73-.457c7.61 0 7.61-11.498 0-11.498s-7.61 11.498 0 11.498zm13.73-.495c6.95 0 6.95-10.507 0-10.507s-6.95 10.507 0 10.507zm13.73-.494c6.3 0 6.3-9.518 0-9.518s-6.3 9.518 0 9.518zm13.73-.495c5.64 0 5.64-8.529 0-8.529s-5.64 8.529 0 8.529zm13.73-.496c4.99 0 4.99-7.538 0-7.538s-4.99 7.538 0 7.538zm13.73-.494c4.33 0 4.33-6.549 0-6.549s-4.33 6.549 0 6.549zm13.73-.495c3.68 0 3.68-5.559 0-5.559s-3.68 5.559 0 5.559zm13.73-.495c3.02 0 3.02-4.569 0-4.569s-3.02 4.569 0 4.569zm13.73-.495c2.37 0 2.37-3.579 0-3.579s-2.37 3.579 0 3.579zm13.73-.495c1.71 0 1.71-2.589 0-2.589s-1.71 2.589 0 2.589zm13.73-.533c1.01 0 1.01-1.523 0-1.523s-1.01 1.523 0 1.523zm13.73-.495c.35 0 .35-.533 0-.533s-.35.533 0 .533zm-439.358 13.73c.353 0 .353-.533 0-.533-.352 0-.352.533 0 .533zm13.73.533c1.058 0 1.058-1.599 0-1.599s-1.058 1.599 0 1.599zm13.73.495c1.712 0 1.712-2.589 0-2.589-1.713 0-1.713 2.589 0 2.589zm13.73.533c2.418 0 2.418-3.655 0-3.655s-2.418 3.655 0 3.655zm13.73.494c3.072 0 3.072-4.644 0-4.644-3.073 0-3.073 4.644 0 4.644zm13.73.495c3.727 0 3.727-5.634 0-5.634-3.728 0-3.728 5.634 0 5.634zm13.73.496c4.382 0 4.382-6.625 0-6.625-4.383 0-4.383 6.625 0 6.625zm13.73.495c5.037 0 5.037-7.615 0-7.615-5.038 0-5.038 7.615 0 7.615zm13.729.533c5.743 0 5.743-8.681 0-8.681-5.742 0-5.742 8.681 0 8.681zm13.731.494c6.397 0 6.397-9.67 0-9.67-6.398 0-6.398 9.67 0 9.67zm13.73.495c7.052 0 7.052-10.66 0-10.66-7.053 0-7.053 10.66 0 10.66zm13.729.533c7.758 0 7.758-11.726 0-11.726-7.757 0-7.757 11.726 0 11.726zm13.73.495c8.413 0 8.413-12.716 0-12.716-8.412 0-8.412 12.716 0 12.716zm13.73.457c9.017 0 9.017-13.63 0-13.63-9.016 0-9.016 13.63 0 13.63zm13.73.495c9.672 0 9.672-14.62 0-14.62-9.671 0-9.671 14.62 0 14.62zm13.73.419c10.226 0 10.226-15.458 0-15.458-10.225 0-10.225 15.458 0 15.458zm13.73.19c10.478 0 10.478-15.838 0-15.838-10.477 0-10.477 15.838 0 15.838zm13.73-.152c10.276 0 10.276-15.534 0-15.534s-10.276 15.534 0 15.534zm13.73-.419c9.722 0 9.722-14.696 0-14.696s-9.722 14.696 0 14.696zm13.73-.495c9.069 0 9.069-13.706 0-13.706-9.067 0-9.067 13.706 0 13.706zm13.729-.457c8.46 0 8.46-12.792 0-12.792s-8.46 12.792 0 12.792zm13.73-.495c7.81 0 7.81-11.802 0-11.802s-7.81 11.802 0 11.802zm13.73-.533c7.1 0 7.1-10.736 0-10.736s-7.1 10.736 0 10.736zm13.73-.494c6.45 0 6.45-9.747 0-9.747s-6.45 9.747 0 9.747zm13.73-.495c5.79 0 5.79-8.757 0-8.757s-5.79 8.757 0 8.757zm13.73-.533c5.09 0 5.09-7.691 0-7.691s-5.09 7.691 0 7.691zm13.73-.496c4.43 0 4.43-6.7 0-6.7s-4.43 6.7 0 6.7zm13.73-.494c3.78 0 3.78-5.711 0-5.711s-3.78 5.711 0 5.711zm13.73-.495c3.12 0 3.12-4.721 0-4.721s-3.12 4.721 0 4.721zm13.73-.495c2.47 0 2.47-3.731 0-3.731s-2.47 3.731 0 3.731zm13.73-.533c1.76 0 1.76-2.665 0-2.665s-1.76 2.665 0 2.665zm13.73-.495c1.11 0 1.11-1.675 0-1.675s-1.11 1.675 0 1.675zm13.73-.533c.4 0 .4-.609 0-.609s-.4.609 0 .609zm-439.358 13.729c.403 0 .403-.609 0-.609s-.403.609 0 .609zm13.73.496c1.058 0 1.058-1.599 0-1.599s-1.058 1.599 0 1.599zm13.73.533c1.763 0 1.763-2.665 0-2.665s-1.763 2.665 0 2.665zm13.73.495c2.418 0 2.418-3.656 0-3.656s-2.418 3.656 0 3.656zm13.73.533c3.123 0 3.123-4.722 0-4.722s-3.123 4.722 0 4.722zm13.73.494c3.778 0 3.778-5.711 0-5.711s-3.778 5.711 0 5.711zm13.73.495c4.432 0 4.432-6.7 0-6.7-4.433 0-4.433 6.7 0 6.7zm13.73.495c5.087 0 5.087-7.69 0-7.69-5.088 0-5.088 7.69 0 7.69zm13.729.533c5.793 0 5.793-8.756 0-8.756-5.792 0-5.792 8.756 0 8.756zm13.731.495c6.447 0 6.447-9.746 0-9.746-6.448 0-6.448 9.746 0 9.746zm13.73.495c7.102 0 7.102-10.736 0-10.736-7.103 0-7.103 10.736 0 10.736zm13.729.533c7.808 0 7.808-11.802 0-11.802-7.807 0-7.807 11.802 0 11.802zm13.73.533c8.513 0 8.513-12.868 0-12.868-8.512 0-8.512 12.868 0 12.868zm13.73.495c9.168 0 9.168-13.858 0-13.858-9.167 0-9.167 13.858 0 13.858zm13.73.495c9.823 0 9.823-14.848 0-14.848-9.822 0-9.822 14.848 0 14.848zm13.73.495c10.477 0 10.477-15.838 0-15.838s-10.477 15.838 0 15.838zm13.73.381c10.981 0 10.981-16.6 0-16.6s-10.981 16.6 0 16.6zm13.73-.343c10.528 0 10.528-15.914 0-15.914s-10.528 15.914 0 15.914zm13.73-.495c9.873 0 9.873-14.924 0-14.924s-9.873 14.924 0 14.924zm13.73-.495c9.219 0 9.219-13.934 0-13.934-9.218 0-9.218 13.934 0 13.934zm13.729-.533c8.51 0 8.51-12.868 0-12.868s-8.51 12.868 0 12.868zm13.73-.495c7.86 0 7.86-11.878 0-11.878s-7.86 11.878 0 11.878zm13.73-.533c7.15 0 7.15-10.812 0-10.812s-7.15 10.812 0 10.812zm13.73-.495c6.5 0 6.5-9.822 0-9.822s-6.5 9.822 0 9.822zm13.73-.495c5.84 0 5.84-8.832 0-8.832s-5.84 8.832 0 8.832zm13.73-.533c5.14 0 5.14-7.766 0-7.766s-5.14 7.766 0 7.766zm13.73-.495c4.48 0 4.48-6.777 0-6.777s-4.48 6.777 0 6.777zm13.73-.494c3.83 0 3.83-5.788 0-5.788s-3.83 5.788 0 5.788zm13.73-.495c3.17 0 3.17-4.797 0-4.797s-3.17 4.797 0 4.797zm13.73-.533c2.47 0 2.47-3.731 0-3.731s-2.47 3.731 0 3.731zm13.73-.496c1.81 0 1.81-2.741 0-2.741s-1.81 2.741 0 2.741zm13.73-.533c1.11 0 1.11-1.675 0-1.675s-1.11 1.675 0 1.675zm13.73-.494c.45 0 .45-.686 0-.686s-.45.686 0 .686zm-439.358 13.691c.403 0 .403-.609 0-.609s-.403.609 0 .609zm13.73.495c1.058 0 1.058-1.599 0-1.599s-1.058 1.599 0 1.599zm13.73.495c1.712 0 1.712-2.589 0-2.589-1.713 0-1.713 2.589 0 2.589zm13.73.533c2.418 0 2.418-3.655 0-3.655s-2.418 3.655 0 3.655zm13.73.495c3.072 0 3.072-4.645 0-4.645-3.073 0-3.073 4.645 0 4.645zm13.73.495c3.727 0 3.727-5.635 0-5.635-3.728 0-3.728 5.635 0 5.635zm13.73.495c4.382 0 4.382-6.624 0-6.624-4.383 0-4.383 6.624 0 6.624zm13.73.533c5.087 0 5.087-7.69 0-7.69-5.088 0-5.088 7.69 0 7.69zm13.729.495c5.743 0 5.743-8.681 0-8.681-5.742 0-5.742 8.681 0 8.681zm13.731.495c6.397 0 6.397-9.671 0-9.671-6.398 0-6.398 9.671 0 9.671zm13.73.495c7.052 0 7.052-10.66 0-10.66-7.053 0-7.053 10.66 0 10.66zm13.729.533c7.758 0 7.758-11.726 0-11.726-7.757 0-7.757 11.726 0 11.726zm13.73.495c8.413 0 8.413-12.716 0-12.716-8.412 0-8.412 12.716 0 12.716zm13.73.495c9.067 0 9.067-13.706 0-13.706s-9.067 13.706 0 13.706zm13.73.456c9.672 0 9.672-14.619 0-14.619-9.671 0-9.671 14.619 0 14.619zm13.73.458c10.276 0 10.276-15.534 0-15.534s-10.276 15.534 0 15.534zm13.73.19c10.528 0 10.528-15.914 0-15.914s-10.528 15.914 0 15.914zm13.73-.19c10.276 0 10.276-15.534 0-15.534s-10.276 15.534 0 15.534zm13.73-.419c9.722 0 9.722-14.696 0-14.696s-9.722 14.696 0 14.696zm13.73-.457c9.119 0 9.119-13.782 0-13.782-9.117 0-9.117 13.782 0 13.782zm13.729-.495c8.46 0 8.46-12.792 0-12.792s-8.46 12.792 0 12.792zm13.73-.495c7.81 0 7.81-11.803 0-11.803s-7.81 11.803 0 11.803zm13.73-.495c7.15 0 7.15-10.813 0-10.813s-7.15 10.813 0 10.813zm13.73-.533c6.45 0 6.45-9.747 0-9.747s-6.45 9.747 0 9.747zm13.73-.495c5.79 0 5.79-8.756 0-8.756s-5.79 8.756 0 8.756zm13.73-.495c5.14 0 5.14-7.767 0-7.767s-5.14 7.767 0 7.767zm13.73-.533c4.43 0 4.43-6.701 0-6.701s-4.43 6.701 0 6.701zm13.73-.495c3.78 0 3.78-5.711 0-5.711s-3.78 5.711 0 5.711zm13.73-.495c3.12 0 3.12-4.721 0-4.721s-3.12 4.721 0 4.721zm13.73-.495c2.47 0 2.47-3.731 0-3.731s-2.47 3.731 0 3.731zm13.73-.533c1.76 0 1.76-2.665 0-2.665s-1.76 2.665 0 2.665zm13.73-.495c1.11 0 1.11-1.675 0-1.675s-1.11 1.675 0 1.675zm13.73-.533c.4 0 .4-.609 0-.609s-.4.609 0 .609zm-439.358 13.654c.302 0 .302-.457 0-.457s-.302.457 0 .457zm13.73.533c1.007 0 1.007-1.523 0-1.523s-1.007 1.523 0 1.523zm13.73.495c1.662 0 1.662-2.513 0-2.513s-1.662 2.513 0 2.513zm13.73.495c2.317 0 2.317-3.503 0-3.503s-2.317 3.503 0 3.503zm13.73.533c3.022 0 3.022-4.569 0-4.569s-3.022 4.569 0 4.569zm13.73.495c3.677 0 3.677-5.559 0-5.559s-3.677 5.559 0 5.559zm13.73.495c4.332 0 4.332-6.549 0-6.549s-4.332 6.549 0 6.549zm13.73.495c4.986 0 4.986-7.539 0-7.539-4.987 0-4.987 7.539 0 7.539zm13.729.457c5.592 0 5.592-8.453 0-8.453-5.591 0-5.591 8.453 0 8.453zm13.731.495c6.246 0 6.246-9.443 0-9.443-6.247 0-6.247 9.443 0 9.443zm13.73.494c6.9 0 6.9-10.431 0-10.431-6.901 0-6.901 10.431 0 10.431zm13.729.495c7.556 0 7.556-11.421 0-11.421-7.555 0-7.555 11.421 0 11.421zm13.73.457c8.16 0 8.16-12.335 0-12.335s-8.16 12.335 0 12.335zm13.73.457c8.765 0 8.765-13.249 0-13.249-8.764 0-8.764 13.249 0 13.249zm13.73.419c9.319 0 9.319-14.087 0-14.087s-9.319 14.087 0 14.087zm13.73.305c9.722 0 9.722-14.697 0-14.697s-9.722 14.697 0 14.697zm13.73.114c9.873 0 9.873-14.925 0-14.925s-9.873 14.925 0 14.925zm13.73-.114c9.722 0 9.722-14.697 0-14.697s-9.722 14.697 0 14.697zm13.73-.305c9.319 0 9.319-14.087 0-14.087s-9.319 14.087 0 14.087zm13.73-.381c8.819 0 8.819-13.325 0-13.325-8.815 0-8.815 13.325 0 13.325zm13.729-.457c8.21 0 8.21-12.411 0-12.411s-8.21 12.411 0 12.411zm13.73-.457c7.61 0 7.61-11.497 0-11.497s-7.61 11.497 0 11.497zm13.73-.494c6.95 0 6.95-10.509 0-10.509s-6.95 10.509 0 10.509zm13.73-.496c6.3 0 6.3-9.518 0-9.518s-6.3 9.518 0 9.518zm13.73-.495c5.64 0 5.64-8.527 0-8.527s-5.64 8.527 0 8.527zm13.73-.494c4.99 0 4.99-7.539 0-7.539s-4.99 7.539 0 7.539zm13.73-.457c4.38 0 4.38-6.625 0-6.625s-4.38 6.625 0 6.625zm13.73-.495c3.73 0 3.73-5.635 0-5.635s-3.73 5.635 0 5.635zm13.73-.495c3.07 0 3.07-4.645 0-4.645s-3.07 4.645 0 4.645zm13.73-.533c2.37 0 2.37-3.579 0-3.579s-2.37 3.579 0 3.579zm13.73-.495c1.71 0 1.71-2.589 0-2.589s-1.71 2.589 0 2.589zm13.73-.495c1.06 0 1.06-1.599 0-1.599s-1.06 1.599 0 1.599zm13.73-.533c.35 0 .35-.533 0-.533s-.35.533 0 .533zm-439.358 13.654c.252 0 .252-.381 0-.381s-.252.381 0 .381zm13.73.456c.856 0 .856-1.294 0-1.294s-.856 1.294 0 1.294zm13.73.533c1.561 0 1.561-2.36 0-2.36s-1.561 2.36 0 2.36zm13.73.496c2.216 0 2.216-3.351 0-3.351s-2.216 3.351 0 3.351zm13.73.494c2.871 0 2.871-4.34 0-4.34s-2.871 4.34 0 4.34zm13.73.495c3.526 0 3.526-5.33 0-5.33s-3.526 5.33 0 5.33zm13.73.457c4.13 0 4.13-6.244 0-6.244-4.131 0-4.131 6.244 0 6.244zm13.73.495c4.785 0 4.785-7.233 0-7.233-4.786 0-4.786 7.233 0 7.233zm13.729.495c5.441 0 5.441-8.224 0-8.224-5.44 0-5.44 8.224 0 8.224zm13.731.457c6.044 0 6.044-9.137 0-9.137-6.045 0-6.045 9.137 0 9.137zm13.73.457c6.649 0 6.649-10.051 0-10.051s-6.649 10.051 0 10.051zm13.729.457c7.254 0 7.254-10.965 0-10.965-7.253 0-7.253 10.965 0 10.965zm13.73.419c7.808 0 7.808-11.803 0-11.803-7.807 0-7.807 11.803 0 11.803zm13.73.418c8.362 0 8.362-12.64 0-12.64-8.361 0-8.361 12.64 0 12.64zm13.73.305c8.765 0 8.765-13.249 0-13.249-8.764 0-8.764 13.249 0 13.249zm13.73.228c9.067 0 9.067-13.706 0-13.706s-9.067 13.706 0 13.706zm13.73.115c9.218 0 9.218-13.935 0-13.935s-9.218 13.935 0 13.935zm13.73-.077c9.118 0 9.118-13.782 0-13.782-9.117 0-9.117 13.782 0 13.782zm13.73-.228c8.815 0 8.815-13.325 0-13.325s-8.815 13.325 0 13.325zm13.73-.305c8.409 0 8.409-12.716 0-12.716-8.412 0-8.412 12.716 0 12.716zm13.729-.419c7.86 0 7.86-11.878 0-11.878s-7.86 11.878 0 11.878zm13.73-.418c7.3 0 7.3-11.041 0-11.041s-7.3 11.041 0 11.041zm13.73-.457c6.7 0 6.7-10.127 0-10.127s-6.7 10.127 0 10.127zm13.73-.457c6.1 0 6.1-9.214 0-9.214-6.09 0-6.09 9.214 0 9.214zm13.73-.495c5.44 0 5.44-8.224 0-8.224s-5.44 8.224 0 8.224zm13.73-.457c4.84 0 4.84-7.31 0-7.31s-4.84 7.31 0 7.31zm13.73-.495c4.18 0 4.18-6.32 0-6.32s-4.18 6.32 0 6.32zm13.73-.457c3.58 0 3.58-5.406 0-5.406s-3.58 5.406 0 5.406zm13.73-.494c2.92 0 2.92-4.417 0-4.417s-2.92 4.417 0 4.417zm13.73-.496c2.27 0 2.27-3.426 0-3.426s-2.27 3.426 0 3.426zm13.73-.495c1.61 0 1.61-2.436 0-2.436s-1.61 2.436 0 2.436zm13.73-.533c.91 0 .91-1.37 0-1.37s-.91 1.37 0 1.37zm13.73-.494c.25 0 .25-.381 0-.381s-.25.381 0 .381zm-439.358 13.653c.151 0 .151-.228 0-.228s-.151.228 0 .228zm13.73.419c.705 0 .705-1.066 0-1.066s-.705 1.066 0 1.066zm13.73.495c1.36 0 1.36-2.056 0-2.056s-1.36 2.056 0 2.056zm13.73.495c2.015 0 2.015-3.046 0-3.046s-2.015 3.046 0 3.046zm13.73.495c2.67 0 2.67-4.036 0-4.036s-2.67 4.036 0 4.036zm13.73.495c3.324 0 3.324-5.026 0-5.026-3.325 0-3.325 5.026 0 5.026zm13.73.457c3.929 0 3.929-5.939 0-5.939s-3.929 5.939 0 5.939zm13.73.456c4.533 0 4.533-6.853 0-6.853-4.534 0-4.534 6.853 0 6.853zm13.729.457c5.139 0 5.139-7.766 0-7.766-5.137 0-5.137 7.766 0 7.766zm13.731.457c5.742 0 5.742-8.68 0-8.68-5.743 0-5.743 8.68 0 8.68zm13.73.457c6.346 0 6.346-9.594 0-9.594-6.347 0-6.347 9.594 0 9.594zm13.729.419c6.901 0 6.901-10.432 0-10.432-6.9 0-6.9 10.432 0 10.432zm13.73.381c7.405 0 7.405-11.194 0-11.194-7.404 0-7.404 11.194 0 11.194zm13.73.342c7.858 0 7.858-11.878 0-11.878s-7.858 11.878 0 11.878zm13.73.267c8.211 0 8.211-12.412 0-12.412s-8.211 12.412 0 12.412zm13.73.19c8.463 0 8.463-12.792 0-12.792-8.462 0-8.462 12.792 0 12.792zm13.73.038c8.513 0 8.513-12.868 0-12.868s-8.513 12.868 0 12.868zm13.73-.038c8.463 0 8.463-12.792 0-12.792-8.462 0-8.462 12.792 0 12.792zm13.73-.19c8.211 0 8.211-12.412 0-12.412s-8.211 12.412 0 12.412zm13.73-.267c7.859 0 7.859-11.878 0-11.878-7.858 0-7.858 11.878 0 11.878zm13.729-.342c7.41 0 7.41-11.194 0-11.194-7.4 0-7.4 11.194 0 11.194zm13.73-.381c6.9 0 6.9-10.432 0-10.432s-6.9 10.432 0 10.432zm13.73-.419c6.35 0 6.35-9.594 0-9.594s-6.35 9.594 0 9.594zm13.73-.419c5.79 0 5.79-8.756 0-8.756s-5.79 8.756 0 8.756zm13.73-.456c5.19 0 5.19-7.843 0-7.843s-5.19 7.843 0 7.843zm13.73-.457c4.58 0 4.58-6.93 0-6.93s-4.58 6.93 0 6.93zm13.73-.457c3.98 0 3.98-6.016 0-6.016s-3.98 6.016 0 6.016zm13.73-.457c3.38 0 3.38-5.102 0-5.102-3.37 0-3.37 5.102 0 5.102zm13.73-.495c2.72 0 2.72-4.112 0-4.112s-2.72 4.112 0 4.112zm13.73-.495c2.07 0 2.07-3.122 0-3.122-2.06 0-2.06 3.122 0 3.122zm13.73-.495c1.41 0 1.41-2.132 0-2.132s-1.41 2.132 0 2.132zm13.73-.495c.76 0 .76-1.142 0-1.142s-.76 1.142 0 1.142zm13.73-.457c.15 0 .15-.228 0-.228s-.15.228 0 .228zm-439.358 13.654c.051 0 .051-.076 0-.076-.05 0-.05.076 0 .076zm13.73.38c.554 0 .554-.837 0-.837s-.554.837 0 .837zm13.73.457c1.158 0 1.158-1.751 0-1.751-1.159 0-1.159 1.751 0 1.751zm13.73.496c1.813 0 1.813-2.742 0-2.742s-1.813 2.742 0 2.742zm13.73.494c2.468 0 2.468-3.731 0-3.731s-2.468 3.731 0 3.731zm13.73.457c3.072 0 3.072-4.644 0-4.644-3.073 0-3.073 4.644 0 4.644zm13.73.457c3.677 0 3.677-5.559 0-5.559-3.678 0-3.678 5.559 0 5.559zm13.73.419c4.231 0 4.231-6.396 0-6.396-4.232 0-4.232 6.396 0 6.396zm13.729.457c4.836 0 4.836-7.31 0-7.31-4.835 0-4.835 7.31 0 7.31zm13.731.418c5.389 0 5.389-8.147 0-8.147-5.39 0-5.39 8.147 0 8.147zm13.73.419c5.943 0 5.943-8.985 0-8.985-5.944 0-5.944 8.985 0 8.985zm13.729.381c6.448 0 6.448-9.747 0-9.747-6.447 0-6.447 9.747 0 9.747zm13.73.343c6.901 0 6.901-10.432 0-10.432s-6.901 10.432 0 10.432zm13.73.266c7.254 0 7.254-10.964 0-10.964-7.253 0-7.253 10.964 0 10.964zm13.73.267c7.606 0 7.606-11.498 0-11.498s-7.606 11.498 0 11.498zm13.73.152c7.808 0 7.808-11.802 0-11.802s-7.808 11.802 0 11.802zm13.73.038c7.858 0 7.858-11.879 0-11.879s-7.858 11.879 0 11.879zm13.73-.038c7.808 0 7.808-11.802 0-11.802s-7.808 11.802 0 11.802zm13.73-.152c7.606 0 7.606-11.498 0-11.498s-7.606 11.498 0 11.498zm13.73-.229c7.299 0 7.299-11.041 0-11.041-7.304 0-7.304 11.041 0 11.041zm13.729-.304c6.9 0 6.9-10.432 0-10.432s-6.9 10.432 0 10.432zm13.73-.343c6.45 0 6.45-9.747 0-9.747s-6.45 9.747 0 9.747zm13.73-.381c5.94 0 5.94-8.985 0-8.985s-5.94 8.985 0 8.985zm13.73-.381c5.44 0 5.44-8.223 0-8.223s-5.44 8.223 0 8.223zm13.73-.418c4.89 0 4.89-7.386 0-7.386s-4.89 7.386 0 7.386zm13.73-.457c4.28 0 4.28-6.472 0-6.472s-4.28 6.472 0 6.472zm13.73-.419c3.73 0 3.73-5.635 0-5.635s-3.73 5.635 0 5.635zm13.73-.457c3.12 0 3.12-4.721 0-4.721s-3.12 4.721 0 4.721zm13.73-.495c2.47 0 2.47-3.731 0-3.731s-2.47 3.731 0 3.731zm13.73-.457c1.86 0 1.86-2.817 0-2.817s-1.86 2.817 0 2.817zm13.73-.495c1.21 0 1.21-1.827 0-1.827s-1.21 1.827 0 1.827zm13.73-.456c.6 0 .6-.914 0-.914s-.6.914 0 .914zm13.73-.419c.05 0 .05-.076 0-.076s-.05.076 0 .076zm-425.628 13.92c.302 0 .302-.457 0-.457s-.302.457 0 .457zm13.73.457c.907 0 .907-1.371 0-1.371s-.907 1.371 0 1.371zm13.73.495c1.562 0 1.562-2.361 0-2.361s-1.562 2.361 0 2.361zm13.73.457c2.166 0 2.166-3.275 0-3.275s-2.166 3.275 0 3.275zm13.73.456c2.77 0 2.77-4.187 0-4.187-2.771 0-2.771 4.187 0 4.187zm13.73.419c3.324 0 3.324-5.025 0-5.025-3.325 0-3.325 5.025 0 5.025zm13.73.457c3.929 0 3.929-5.939 0-5.939s-3.929 5.939 0 5.939zm13.729.381c4.433 0 4.433-6.701 0-6.701-4.432 0-4.432 6.701 0 6.701zm13.731.419c4.986 0 4.986-7.538 0-7.538-4.987 0-4.987 7.538 0 7.538zm13.73.381c5.49 0 5.49-8.3 0-8.3-5.491 0-5.491 8.3 0 8.3zm13.729.342c5.944 0 5.944-8.985 0-8.985-5.943 0-5.943 8.985 0 8.985zm13.73.305c6.347 0 6.347-9.595 0-9.595s-6.347 9.595 0 9.595zm13.73.266c6.7 0 6.7-10.127 0-10.127-6.699 0-6.699 10.127 0 10.127zm13.73.19c6.952 0 6.952-10.507 0-10.507-6.951 0-6.951 10.507 0 10.507zm13.73.115c7.103 0 7.103-10.736 0-10.736-7.102 0-7.102 10.736 0 10.736zm13.73.038c7.153 0 7.153-10.813 0-10.813s-7.153 10.813 0 10.813zm13.73 0c7.153 0 7.153-10.813 0-10.813s-7.153 10.813 0 10.813zm13.73-.153c6.951 0 6.951-10.507 0-10.507s-6.951 10.507 0 10.507zm13.73-.19c6.699 0 6.699-10.127 0-10.127-6.7 0-6.7 10.127 0 10.127zm13.729-.266c6.35 0 6.35-9.595 0-9.595s-6.35 9.595 0 9.595zm13.73-.305c5.94 0 5.94-8.985 0-8.985s-5.94 8.985 0 8.985zm13.73-.342c5.49 0 5.49-8.3 0-8.3s-5.49 8.3 0 8.3zm13.73-.343c5.04 0 5.04-7.615 0-7.615s-5.04 7.615 0 7.615zm13.73-.419c4.48 0 4.48-6.777 0-6.777s-4.48 6.777 0 6.777zm13.73-.381c3.98 0 3.98-6.015 0-6.015s-3.98 6.015 0 6.015zm13.73-.456c3.38 0 3.38-5.102 0-5.102-3.37 0-3.37 5.102 0 5.102zm13.73-.419c2.82 0 2.82-4.265 0-4.265s-2.82 4.265 0 4.265zm13.73-.457c2.22 0 2.22-3.35 0-3.35s-2.22 3.35 0 3.35zm13.73-.457c1.61 0 1.61-2.437 0-2.437s-1.61 2.437 0 2.437zm13.73-.495c.96 0 .96-1.447 0-1.447s-.96 1.447 0 1.447zm13.73-.457c.35 0 .35-.533 0-.533s-.35.533 0 .533zm-411.898 13.539c.101 0 .101-.152 0-.152s-.101.152 0 .152zm13.73.419c.655 0 .655-.989 0-.989s-.655.989 0 .989zm13.73.457c1.259 0 1.259-1.904 0-1.904s-1.259 1.904 0 1.904zm13.73.457c1.864 0 1.864-2.817 0-2.817s-1.864 2.817 0 2.817zm13.73.419c2.418 0 2.418-3.655 0-3.655s-2.418 3.655 0 3.655zm13.73.419c2.972 0 2.972-4.493 0-4.493s-2.972 4.493 0 4.493zm13.73.419c3.526 0 3.526-5.331 0-5.331s-3.526 5.331 0 5.331zm13.729.38c4.03 0 4.03-6.092 0-6.092-4.029 0-4.029 6.092 0 6.092zm13.731.381c4.533 0 4.533-6.853 0-6.853-4.534 0-4.534 6.853 0 6.853zm13.73.342c4.986 0 4.986-7.538 0-7.538-4.987 0-4.987 7.538 0 7.538zm13.729.305c5.39 0 5.39-8.147 0-8.147-5.389 0-5.389 8.147 0 8.147zm13.73.305c5.793 0 5.793-8.757 0-8.757s-5.793 8.757 0 8.757zm13.73.228c6.095 0 6.095-9.213 0-9.213s-6.095 9.213 0 9.213zm13.73.152c6.297 0 6.297-9.518 0-9.518-6.296 0-6.296 9.518 0 9.518zm13.73.114c6.448 0 6.448-9.746 0-9.746-6.447 0-6.447 9.746 0 9.746zm13.73.039c6.498 0 6.498-9.823 0-9.823s-6.498 9.823 0 9.823zm13.73-.039c6.448 0 6.448-9.746 0-9.746s-6.448 9.746 0 9.746zm13.73-.114c6.296 0 6.296-9.518 0-9.518s-6.296 9.518 0 9.518zm13.73-.152c6.099 0 6.099-9.213 0-9.213-6.095 0-6.095 9.213 0 9.213zm13.729-.228c5.79 0 5.79-8.757 0-8.757s-5.79 8.757 0 8.757zm13.73-.267c5.44 0 5.44-8.224 0-8.224s-5.44 8.224 0 8.224zm13.73-.305c5.04 0 5.04-7.614 0-7.614s-5.04 7.614 0 7.614zm13.73-.342c4.58 0 4.58-6.929 0-6.929s-4.58 6.929 0 6.929zm13.73-.381c4.08 0 4.08-6.168 0-6.168s-4.08 6.168 0 6.168zm13.73-.38c3.58 0 3.58-5.407 0-5.407s-3.58 5.407 0 5.407zm13.73-.419c3.02 0 3.02-4.569 0-4.569s-3.02 4.569 0 4.569zm13.73-.419c2.47 0 2.47-3.731 0-3.731s-2.47 3.731 0 3.731zm13.73-.457c1.86 0 1.86-2.817 0-2.817s-1.86 2.817 0 2.817zm13.73-.419c1.31 0 1.31-1.98 0-1.98s-1.31 1.98 0 1.98zm13.73-.457c.71 0 .71-1.066 0-1.066-.7 0-.7 1.066 0 1.066zm13.73-.419c.15 0 .15-.228 0-.228s-.15.228 0 .228zm-398.168 13.883c.353 0 .353-.533 0-.533s-.353.533 0 .533zm13.73.419c.907 0 .907-1.371 0-1.371s-.907 1.371 0 1.371zm13.73.418c1.461 0 1.461-2.208 0-2.208s-1.461 2.208 0 2.208zm13.73.457c2.065 0 2.065-3.122 0-3.122-2.066 0-2.066 3.122 0 3.122zm13.73.381c2.569 0 2.569-3.883 0-3.883s-2.569 3.883 0 3.883zm13.73.38c3.072 0 3.072-4.644 0-4.644-3.073 0-3.073 4.644 0 4.644zm13.729.381c3.577 0 3.577-5.406 0-5.406-3.576 0-3.576 5.406 0 5.406zm13.731.343c4.029 0 4.029-6.092 0-6.092-4.03 0-4.03 6.092 0 6.092zm13.73.342c4.483 0 4.483-6.776 0-6.776-4.484 0-4.484 6.776 0 6.776zm13.729.267c4.836 0 4.836-7.31 0-7.31-4.835 0-4.835 7.31 0 7.31zm13.73.266c5.189 0 5.189-7.842 0-7.842-5.188 0-5.188 7.842 0 7.842zm13.73.191c5.44 0 5.44-8.224 0-8.224s-5.44 8.224 0 8.224zm13.73.152c5.642 0 5.642-8.528 0-8.528-5.641 0-5.641 8.528 0 8.528zm13.73.115c5.793 0 5.793-8.757 0-8.757s-5.793 8.757 0 8.757zm13.73.038c5.843 0 5.843-8.833 0-8.833s-5.843 8.833 0 8.833zm13.73-.038c5.793 0 5.793-8.757 0-8.757s-5.793 8.757 0 8.757zm13.73-.115c5.642 0 5.642-8.528 0-8.528s-5.642 8.528 0 8.528zm13.73-.152c5.439 0 5.439-8.224 0-8.224-5.44 0-5.44 8.224 0 8.224zm13.729-.191c5.19 0 5.19-7.842 0-7.842s-5.19 7.842 0 7.842zm13.73-.228c4.89 0 4.89-7.386 0-7.386s-4.89 7.386 0 7.386zm13.73-.305c4.48 0 4.48-6.776 0-6.776s-4.48 6.776 0 6.776zm13.73-.304c4.08 0 4.08-6.168 0-6.168s-4.08 6.168 0 6.168zm13.73-.343c3.63 0 3.63-5.482 0-5.482s-3.63 5.482 0 5.482zm13.73-.381c3.12 0 3.12-4.72 0-4.72s-3.12 4.72 0 4.72zm13.73-.38c2.62 0 2.62-3.96 0-3.96s-2.62 3.96 0 3.96zm13.73-.419c2.07 0 2.07-3.122 0-3.122-2.06 0-2.06 3.122 0 3.122zm13.73-.419c1.51 0 1.51-2.284 0-2.284s-1.51 2.284 0 2.284zm13.73-.419c.96 0 .96-1.446 0-1.446s-.96 1.446 0 1.446zm13.73-.456c.35 0 .35-.533 0-.533s-.35.533 0 .533zm-384.438 13.539c.101 0 .101-.152 0-.152s-.101.152 0 .152zm13.73.343c.554 0 .554-.838 0-.838s-.554.838 0 .838zm13.73.418c1.108 0 1.108-1.675 0-1.675s-1.108 1.675 0 1.675zm13.73.381c1.612 0 1.612-2.437 0-2.437s-1.612 2.437 0 2.437zm13.73.419c2.166 0 2.166-3.274 0-3.274s-2.166 3.274 0 3.274zm13.73.343c2.619 0 2.619-3.96 0-3.96-2.62 0-2.62 3.96 0 3.96zm13.729.38c3.124 0 3.124-4.72 0-4.72-3.122 0-3.122 4.72 0 4.72zm13.731.305c3.526 0 3.526-5.33 0-5.33s-3.526 5.33 0 5.33zm13.73.304c3.928 0 3.928-5.939 0-5.939-3.93 0-3.93 5.939 0 5.939zm13.729.267c4.282 0 4.282-6.472 0-6.472-4.281 0-4.281 6.472 0 6.472zm13.73.225c4.584 0 4.584-6.926 0-6.926s-4.584 6.926 0 6.926zm13.73.19c4.836 0 4.836-7.306 0-7.306-4.835 0-4.835 7.306 0 7.306zm13.73.12c4.987 0 4.987-7.54 0-7.54-4.986 0-4.986 7.54 0 7.54zm13.73.07c5.088 0 5.088-7.686 0-7.686-5.087 0-5.087 7.686 0 7.686zm13.73.04c5.138 0 5.138-7.765 0-7.765s-5.138 7.765 0 7.765zm13.73 0c5.138 0 5.138-7.765 0-7.765s-5.138 7.765 0 7.765zm13.73-.11c4.987 0 4.987-7.54 0-7.54s-4.987 7.54 0 7.54zm13.73-.12c4.839 0 4.839-7.306 0-7.306-4.836 0-4.836 7.306 0 7.306zm13.729-.19c4.58 0 4.58-6.926 0-6.926s-4.58 6.926 0 6.926zm13.73-.225c4.28 0 4.28-6.472 0-6.472s-4.28 6.472 0 6.472zm13.73-.229c3.98 0 3.98-6.015 0-6.015s-3.98 6.015 0 6.015zm13.73-.304c3.58 0 3.58-5.406 0-5.406s-3.58 5.406 0 5.406zm13.73-.343c3.12 0 3.12-4.72 0-4.72s-3.12 4.72 0 4.72zm13.73-.342c2.67 0 2.67-4.036 0-4.036s-2.67 4.036 0 4.036zm13.73-.381c2.17 0 2.17-3.274 0-3.274s-2.17 3.274 0 3.274zm13.73-.381c1.66 0 1.66-2.513 0-2.513s-1.66 2.513 0 2.513zm13.73-.381c1.16 0 1.16-1.751 0-1.751s-1.16 1.751 0 1.751zm13.73-.418c.6 0 .6-.914 0-.914s-.6.914 0 .914zm13.73-.381c.1 0 .1-.152 0-.152s-.1.152 0 .152zm-370.708 13.805c.201 0 .201-.3 0-.3-.202 0-.202.3 0 .3zm13.73.34c.655 0 .655-.99 0-.99s-.655.99 0 .99zm13.73.42c1.209 0 1.209-1.82 0-1.82s-1.209 1.82 0 1.82zm13.73.34c1.662 0 1.662-2.51 0-2.51s-1.662 2.51 0 2.51zm13.73.39c2.165 0 2.165-3.28 0-3.28-2.166 0-2.166 3.28 0 3.28zm13.729.3c2.57 0 2.57-3.88 0-3.88-2.568 0-2.568 3.88 0 3.88zm13.731.34c3.022 0 3.022-4.57 0-4.57-3.023 0-3.023 4.57 0 4.57zm13.73.27c3.374 0 3.374-5.1 0-5.1-3.376 0-3.376 5.1 0 5.1zm13.729.23c3.678 0 3.678-5.56 0-5.56-3.677 0-3.677 5.56 0 5.56zm13.73.23c3.98 0 3.98-6.02 0-6.02-3.979 0-3.979 6.02 0 6.02zm13.73.15c4.181 0 4.181-6.32 0-6.32-4.18 0-4.18 6.32 0 6.32zm13.73.11c4.332 0 4.332-6.55 0-6.55s-4.332 6.55 0 6.55zm13.73.08c4.433 0 4.433-6.7 0-6.7-4.432 0-4.432 6.7 0 6.7zm13.73.04c4.483 0 4.483-6.78 0-6.78s-4.483 6.78 0 6.78zm13.73-.04c4.433 0 4.433-6.7 0-6.7s-4.433 6.7 0 6.7zm13.73-.04c4.382 0 4.382-6.62 0-6.62s-4.382 6.62 0 6.62zm13.73-.15c4.179 0 4.179-6.32 0-6.32-4.181 0-4.181 6.32 0 6.32zm13.729-.15c3.98 0 3.98-6.02 0-6.02s-3.98 6.02 0 6.02zm13.73-.19c3.73 0 3.73-5.64 0-5.64s-3.73 5.64 0 5.64zm13.73-.27c3.38 0 3.38-5.1 0-5.1-3.37 0-3.37 5.1 0 5.1zm13.73-.27c3.02 0 3.02-4.57 0-4.57s-3.02 4.57 0 4.57zm13.73-.3c2.62 0 2.62-3.96 0-3.96s-2.62 3.96 0 3.96zm13.73-.34c2.17 0 2.17-3.28 0-3.28s-2.17 3.28 0 3.28zm13.73-.35c1.71 0 1.71-2.59 0-2.59s-1.71 2.59 0 2.59zm13.73-.38c1.21 0 1.21-1.82 0-1.82s-1.21 1.82 0 1.82zm13.73-.38c.71 0 .71-1.06 0-1.06-.7 0-.7 1.06 0 1.06zm13.73-.38c.2 0 .2-.3 0-.3s-.2.3 0 .3zm-343.248 13.77c.252 0 .252-.38 0-.38s-.252.38 0 .38zm13.73.34c.705 0 .705-1.06 0-1.06s-.705 1.06 0 1.06zm13.73.38c1.209 0 1.209-1.83 0-1.83s-1.209 1.83 0 1.83zm13.73.34c1.662 0 1.662-2.51 0-2.51-1.663 0-1.663 2.51 0 2.51zm13.729.31c2.066 0 2.066-3.12 0-3.12-2.065 0-2.065 3.12 0 3.12zm13.731.27c2.417 0 2.417-3.66 0-3.66-2.418 0-2.418 3.66 0 3.66zm13.73.26c2.77 0 2.77-4.19 0-4.19-2.771 0-2.771 4.19 0 4.19zm13.729.23c3.073 0 3.073-4.64 0-4.64-3.072 0-3.072 4.64 0 4.64zm13.73.19c3.325 0 3.325-5.02 0-5.02-3.324 0-3.324 5.02 0 5.02zm13.73.15c3.526 0 3.526-5.33 0-5.33s-3.526 5.33 0 5.33zm13.73.12c3.677 0 3.677-5.56 0-5.56s-3.677 5.56 0 5.56zm13.73.07c3.778 0 3.778-5.71 0-5.71s-3.778 5.71 0 5.71zm13.73.04c3.829 0 3.829-5.79 0-5.79-3.828 0-3.828 5.79 0 5.79zm13.73-.04c3.778 0 3.778-5.71 0-5.71s-3.778 5.71 0 5.71zm13.73-.03c3.728 0 3.728-5.64 0-5.64-3.727 0-3.727 5.64 0 5.64zm13.73-.12c3.576 0 3.576-5.4 0-5.4s-3.576 5.4 0 5.4zm13.729-.15c3.38 0 3.38-5.1 0-5.1-3.37 0-3.37 5.1 0 5.1zm13.73-.19c3.12 0 3.12-4.72 0-4.72s-3.12 4.72 0 4.72zm13.73-.23c2.82 0 2.82-4.26 0-4.26s-2.82 4.26 0 4.26zm13.73-.27c2.47 0 2.47-3.73 0-3.73s-2.47 3.73 0 3.73zm13.73-.3c2.07 0 2.07-3.12 0-3.12-2.06 0-2.06 3.12 0 3.12zm13.73-.31c1.66 0 1.66-2.51 0-2.51s-1.66 2.51 0 2.51zm13.73-.34c1.21 0 1.21-1.83 0-1.83s-1.21 1.83 0 1.83zm13.73-.34c.76 0 .76-1.14 0-1.14s-.76 1.14 0 1.14zm13.73-.34c.3 0 .3-.46 0-.46s-.3.46 0 .46zm-315.788 13.69c.252 0 .252-.38 0-.38s-.252.38 0 .38zm13.73.3c.654 0 .654-.99 0-.99-.655 0-.655.99 0 .99zm13.73.35c1.108 0 1.108-1.68 0-1.68s-1.108 1.68 0 1.68zm13.729.3c1.512 0 1.512-2.28 0-2.28-1.511 0-1.511 2.28 0 2.28zm13.731.27c1.863 0 1.863-2.82 0-2.82-1.864 0-1.864 2.82 0 2.82zm13.73.23c2.165 0 2.165-3.28 0-3.28-2.167 0-2.167 3.28 0 3.28zm13.729.22c2.469 0 2.469-3.73 0-3.73-2.468 0-2.468 3.73 0 3.73zm13.73.19c2.721 0 2.721-4.11 0-4.11-2.72 0-2.72 4.11 0 4.11zm13.73.16c2.922 0 2.922-4.42 0-4.42-2.921 0-2.921 4.42 0 4.42zm13.73.07c3.022 0 3.022-4.57 0-4.57s-3.022 4.57 0 4.57zm13.73.08c3.123 0 3.123-4.72 0-4.72s-3.123 4.72 0 4.72zm13.73.04c3.173 0 3.173-4.8 0-4.8-3.174 0-3.174 4.8 0 4.8zm13.73-.04c3.123 0 3.123-4.72 0-4.72s-3.123 4.72 0 4.72zm13.73-.04c3.073 0 3.073-4.64 0-4.64s-3.073 4.64 0 4.64zm13.73-.11c2.922 0 2.922-4.42 0-4.42s-2.922 4.42 0 4.42zm13.729-.16c2.72 0 2.72-4.11 0-4.11s-2.72 4.11 0 4.11zm13.73-.19c2.47 0 2.47-3.73 0-3.73s-2.47 3.73 0 3.73zm13.73-.19c2.22 0 2.22-3.35 0-3.35s-2.22 3.35 0 3.35zm13.73-.26c1.86 0 1.86-2.82 0-2.82s-1.86 2.82 0 2.82zm13.73-.27c1.51 0 1.51-2.28 0-2.28s-1.51 2.28 0 2.28zm13.73-.27c1.16 0 1.16-1.75 0-1.75s-1.16 1.75 0 1.75zm13.73-.34c.71 0 .71-1.06 0-1.06-.7 0-.7 1.06 0 1.06zm13.73-.3c.3 0 .3-.46 0-.46s-.3.46 0 .46zm-288.328 13.65c.201 0 .201-.3 0-.3-.202 0-.202.3 0 .3zm13.73.27c.554 0 .554-.84 0-.84-.555 0-.555.84 0 .84zm13.729.26c.907 0 .907-1.37 0-1.37-.906 0-.906 1.37 0 1.37zm13.731.27c1.259 0 1.259-1.9 0-1.9-1.26 0-1.26 1.9 0 1.9zm13.73.23c1.561 0 1.561-2.36 0-2.36-1.562 0-1.562 2.36 0 2.36zm13.729.23c1.864 0 1.864-2.82 0-2.82-1.863 0-1.863 2.82 0 2.82zm13.73.15c2.066 0 2.066-3.12 0-3.12-2.065 0-2.065 3.12 0 3.12zm13.73.15c2.267 0 2.267-3.43 0-3.43-2.266 0-2.266 3.43 0 3.43zm13.73.08c2.368 0 2.368-3.58 0-3.58-2.367 0-2.367 3.58 0 3.58zm13.73.07c2.468 0 2.468-3.73 0-3.73s-2.468 3.73 0 3.73zm13.73 0c2.468 0 2.468-3.73 0-3.73s-2.468 3.73 0 3.73zm13.73 0c2.469 0 2.469-3.73 0-3.73-2.468 0-2.468 3.73 0 3.73zm13.73-.07c2.368 0 2.368-3.58 0-3.58-2.367 0-2.367 3.58 0 3.58zm13.73-.08c2.267 0 2.267-3.43 0-3.43s-2.267 3.43 0 3.43zm13.729-.15c2.07 0 2.07-3.12 0-3.12-2.06 0-2.06 3.12 0 3.12zm13.73-.15c1.86 0 1.86-2.82 0-2.82s-1.86 2.82 0 2.82zm13.73-.19c1.61 0 1.61-2.44 0-2.44s-1.61 2.44 0 2.44zm13.73-.23c1.31 0 1.31-1.98 0-1.98s-1.31 1.98 0 1.98zm13.73-.27c.96 0 .96-1.45 0-1.45s-.96 1.45 0 1.45zm13.73-.27c.6 0 .6-.91 0-.91s-.6.91 0 .91zm13.73-.3c.2 0 .2-.3 0-.3s-.2.3 0 .3zm-260.868 13.65c.1 0 .1-.15 0-.15-.101 0-.101.15 0 .15zm13.729.19c.353 0 .353-.53 0-.53-.352 0-.352.53 0 .53zm13.731.23c.654 0 .654-.99 0-.99-.655 0-.655.99 0 .99zm13.73.23c.957 0 .957-1.45 0-1.45s-.957 1.45 0 1.45zm13.729.19c1.209 0 1.209-1.83 0-1.83-1.208 0-1.208 1.83 0 1.83zm13.73.15c1.411 0 1.411-2.13 0-2.13-1.41 0-1.41 2.13 0 2.13zm13.73.12c1.562 0 1.562-2.36 0-2.36-1.561 0-1.561 2.36 0 2.36zm13.73.11c1.713 0 1.713-2.59 0-2.59-1.712 0-1.712 2.59 0 2.59zm13.73.04c1.763 0 1.763-2.66 0-2.66s-1.763 2.66 0 2.66zm13.73.04c1.813 0 1.813-2.74 0-2.74s-1.813 2.74 0 2.74zm13.73-.04c1.763 0 1.763-2.66 0-2.66s-1.763 2.66 0 2.66zm13.73-.04c1.713 0 1.713-2.59 0-2.59s-1.713 2.59 0 2.59zm13.73-.07c1.612 0 1.612-2.44 0-2.44s-1.612 2.44 0 2.44zm13.729-.16c1.41 0 1.41-2.13 0-2.13s-1.41 2.13 0 2.13zm13.73-.15c1.21 0 1.21-1.83 0-1.83s-1.21 1.83 0 1.83zm13.73-.19c.96 0 .96-1.45 0-1.45s-.96 1.45 0 1.45zm13.73-.19c.71 0 .71-1.07 0-1.07-.7 0-.7 1.07 0 1.07zm13.73-.27c.35 0 .35-.53 0-.53s-.35.53 0 .53zm13.73-.19c.1 0 .1-.15 0-.15s-.1.15 0 .15zM858.872 1079c.101 0 .101-.15 0-.15s-.101.15 0 .15zm13.73.19c.352 0 .352-.53 0-.53-.353 0-.353.53 0 .53zm13.729.16c.555 0 .555-.84 0-.84-.554 0-.554.84 0 .84zm13.73.15c.756 0 .756-1.14 0-1.14-.755 0-.755 1.14 0 1.14zm13.73.11c.907 0 .907-1.37 0-1.37-.906 0-.906 1.37 0 1.37zm13.73.08c1.008 0 1.008-1.52 0-1.52-1.007 0-1.007 1.52 0 1.52zm13.73.08c1.108 0 1.108-1.68 0-1.68s-1.108 1.68 0 1.68zm13.73 0c1.108 0 1.108-1.68 0-1.68s-1.108 1.68 0 1.68zm13.73 0c1.108 0 1.108-1.68 0-1.68s-1.108 1.68 0 1.68zm13.73-.04c1.058 0 1.058-1.6 0-1.6s-1.058 1.6 0 1.6zm13.73-.12c.907 0 .907-1.37 0-1.37s-.907 1.37 0 1.37zm13.729-.11c.76 0 .76-1.14 0-1.14-.75 0-.75 1.14 0 1.14zm13.73-.12c.61 0 .61-.91 0-.91-.6 0-.6.91 0 .91zm13.73-.19c.35 0 .35-.53 0-.53s-.35.53 0 .53zm13.73-.15c.15 0 .15-.23 0-.23s-.15.23 0 .23zm-164.759 13.66c.051 0 .051-.08 0-.08-.05 0-.05.08 0 .08zm13.73.07c.152 0 .152-.23 0-.23-.151 0-.151.23 0 .23zm13.73.08c.252 0 .252-.38 0-.38s-.252.38 0 .38zm13.73.07c.353 0 .353-.53 0-.53-.352 0-.352.53 0 .53zm13.73.04c.403 0 .403-.61 0-.61s-.403.61 0 .61zm13.73.04c.453 0 .453-.69 0-.69s-.453.69 0 .69zm13.73-.04c.403 0 .403-.61 0-.61s-.403.61 0 .61zm13.73-.04c.353 0 .353-.53 0-.53s-.353.53 0 .53zm13.73-.07c.252 0 .252-.38 0-.38s-.252.38 0 .38zm13.729-.08c.15 0 .15-.23 0-.23s-.15.23 0 .23zm13.73-.07c.05 0 .05-.08 0-.08s-.05.08 0 .08z" fill="#DEF4CF"/><g opacity=".7" filter="url(#filter0_f_2012_4)"><circle cx="765" cy="765" r="266" fill="#CCFAAF"/></g><defs><filter id="filter0_f_2012_4" x="0" y="0" width="1530" height="1530" filterUnits="userSpaceOnUse" color-interpolation-filters="sRGB"><feFlood flood-opacity="0" result="BackgroundImageFix"/><feBlend mode="normal" in="SourceGraphic" in2="BackgroundImageFix" result="shape"/><feGaussianBlur stdDeviation="249.5" result="effect1_foregroundBlur_2012_4"/></filter></defs></svg>