<svg width="372" height="373" fill="none" xmlns="http://www.w3.org/2000/svg"><path opacity=".7" d="M127.944.226c.043 0 .043.064 0 .064s-.043-.064 0-.064zm11.608.097c.085 0 .085-.13 0-.13s-.085.13 0 .13zm11.608.064c.17 0 .17-.258 0-.258-.171 0-.171.258 0 .258zm11.608.065c.255 0 .255-.387 0-.387-.256 0-.256.387 0 .387zm11.608.032c.298 0 .298-.452 0-.452s-.298.452 0 .452zm11.608.032c.341 0 .341-.516 0-.516s-.341.516 0 .516zm11.608 0c.341 0 .341-.516 0-.516s-.341.516 0 .516zM209.2.452c.256 0 .256-.387 0-.387-.255 0-.255.387 0 .387zM220.808.42c.213 0 .213-.323 0-.323s-.213.323 0 .323zm11.608-.065c.128 0 .128-.194 0-.194s-.128.194 0 .194zM244.024.29c.043 0 .043-.064 0-.064-.042 0-.042.064 0 .064zM104.728 11.962c.085 0 .085-.13 0-.13s-.085.13 0 .13zm11.608.129c.256 0 .256-.387 0-.387s-.256.387 0 .387zm11.608.129c.426 0 .426-.645 0-.645s-.426.645 0 .645zm11.608.13c.596 0 .596-.905 0-.905s-.596.904 0 .904zm11.608.096c.724 0 .724-1.097 0-1.097s-.724 1.097 0 1.097zm11.608.065c.809 0 .809-1.227 0-1.227s-.809 1.226 0 1.226zm11.608.064c.894 0 .894-1.355 0-1.355s-.894 1.355 0 1.355zm11.608 0c.895 0 .895-1.355 0-1.355-.894 0-.894 1.355 0 1.355zm11.608 0c.894 0 .894-1.355 0-1.355s-.894 1.355 0 1.355zm11.608-.032c.852 0 .852-1.291 0-1.291s-.852 1.29 0 1.29zm11.608-.097c.724 0 .724-1.097 0-1.097s-.724 1.097 0 1.097zm11.608-.097c.596 0 .596-.904 0-.904s-.596.904 0 .904zm11.608-.097c.469 0 .469-.71 0-.71-.468 0-.468.71 0 .71zm11.608-.161c.256 0 .256-.387 0-.387-.255 0-.255.387 0 .387zm11.608-.13c.085 0 .085-.128 0-.128s-.085.129 0 .129zM81.512 23.57c.042 0 .042-.065 0-.065-.043 0-.043.065 0 .065zm11.608.161c.255 0 .255-.387 0-.387-.256 0-.256.387 0 .387zm11.608.194c.511 0 .511-.775 0-.775s-.511.775 0 .775zm11.608.193c.766 0 .766-1.162 0-1.162-.767 0-.767 1.162 0 1.162zm11.608.162c.979 0 .979-1.485 0-1.485-.98 0-.98 1.485 0 1.485zm11.608.129c1.15 0 1.15-1.743 0-1.743s-1.15 1.743 0 1.743zm11.608.097c1.277 0 1.277-1.937 0-1.937-1.278 0-1.278 1.937 0 1.937zm11.608.097c1.405 0 1.405-2.13 0-2.13s-1.405 2.13 0 2.13zm11.608.032c1.448 0 1.448-2.195 0-2.195s-1.448 2.195 0 2.195zm11.608.032c1.491 0 1.491-2.26 0-2.26s-1.491 2.26 0 2.26zm11.608-.032c1.448 0 1.448-2.195 0-2.195s-1.448 2.195 0 2.195zm11.608-.032c1.405 0 1.405-2.13 0-2.13s-1.405 2.13 0 2.13zm11.608-.065c1.32 0 1.32-2.001 0-2.001s-1.32 2 0 2zm11.608-.13c1.15 0 1.15-1.742 0-1.742s-1.15 1.743 0 1.743zm11.608-.128c.98 0 .98-1.485 0-1.485-.979 0-.979 1.485 0 1.485zm11.608-.162c.767 0 .767-1.162 0-1.162-.766 0-.766 1.162 0 1.162zm11.608-.161c.554 0 .554-.84 0-.84s-.554.84 0 .84zm11.608-.194c.298 0 .298-.452 0-.452s-.298.452 0 .452zm11.608-.161c.086 0 .086-.13 0-.13-.085 0-.085.13 0 .13zM69.904 35.272c.127 0 .127-.193 0-.193-.128 0-.128.193 0 .193zm11.608.226c.426 0 .426-.645 0-.645s-.426.645 0 .645zm11.608.259c.766 0 .766-1.162 0-1.162-.767 0-.767 1.162 0 1.162zm11.608.193c1.022 0 1.022-1.55 0-1.55s-1.022 1.55 0 1.55zm11.608.194c1.277 0 1.277-1.937 0-1.937-1.278 0-1.278 1.937 0 1.937zm11.608.193c1.533 0 1.533-2.323 0-2.323s-1.533 2.323 0 2.323zm11.608.13c1.703 0 1.703-2.582 0-2.582-1.704 0-1.704 2.582 0 2.582zm11.608.129c1.874 0 1.874-2.84 0-2.84s-1.874 2.84 0 2.84zm11.608.064c1.959 0 1.959-2.97 0-2.97s-1.959 2.97 0 2.97zm11.608.065c2.044 0 2.044-3.099 0-3.099s-2.044 3.099 0 3.099zm11.608 0c2.044 0 2.044-3.099 0-3.099s-2.044 3.099 0 3.099zm11.608 0c2.044 0 2.044-3.099 0-3.099s-2.044 3.099 0 3.099zm11.608-.065c1.959 0 1.959-2.97 0-2.97s-1.959 2.97 0 2.97zm11.608-.064c1.874 0 1.874-2.84 0-2.84s-1.874 2.84 0 2.84zm11.608-.13c1.703 0 1.703-2.581 0-2.581s-1.703 2.582 0 2.582zm11.608-.129c1.533 0 1.533-2.323 0-2.323s-1.533 2.323 0 2.323zm11.608-.161c1.32 0 1.32-2.001 0-2.001s-1.32 2.001 0 2.001zm11.608-.194c1.065 0 1.065-1.613 0-1.613s-1.065 1.613 0 1.613zm11.608-.225c.767 0 .767-1.162 0-1.162-.766 0-.766 1.162 0 1.162zm11.608-.226c.469 0 .469-.71 0-.71-.468 0-.468.71 0 .71zm11.608-.226c.171 0 .171-.259 0-.259-.17 0-.17.259 0 .259zM58.296 46.944c.17 0 .17-.258 0-.258s-.17.258 0 .258zm11.608.29c.553 0 .553-.839 0-.839-.554 0-.554.84 0 .84zm11.608.258c.894 0 .894-1.355 0-1.355-.895 0-.895 1.355 0 1.355zm11.608.259c1.235 0 1.235-1.872 0-1.872s-1.235 1.872 0 1.872zm11.608.226c1.533 0 1.533-2.324 0-2.324s-1.533 2.324 0 2.324zm11.608.225c1.831 0 1.831-2.775 0-2.775s-1.831 2.775 0 2.775zm11.608.162c2.044 0 2.044-3.099 0-3.099s-2.044 3.099 0 3.099zm11.608.161c2.257 0 2.257-3.421 0-3.421s-2.257 3.421 0 3.421zm11.608.13c2.427 0 2.427-3.68 0-3.68-2.428 0-2.428 3.68 0 3.68zm11.608.064c2.513 0 2.513-3.809 0-3.809s-2.513 3.809 0 3.809zm11.608.064c2.598 0 2.598-3.937 0-3.937s-2.598 3.937 0 3.937zm11.608.033c2.64 0 2.64-4.003 0-4.003s-2.64 4.003 0 4.003zm11.608-.033c2.598 0 2.598-3.937 0-3.937s-2.598 3.937 0 3.937zm11.608-.032c2.555 0 2.555-3.873 0-3.873s-2.555 3.873 0 3.873zm11.608-.097c2.428 0 2.428-3.68 0-3.68-2.427 0-2.427 3.68 0 3.68zm11.608-.129c2.257 0 2.257-3.421 0-3.421s-2.257 3.421 0 3.421zm11.608-.129c2.087 0 2.087-3.163 0-3.163s-2.087 3.163 0 3.163zm11.608-.194c1.831 0 1.831-2.775 0-2.775s-1.831 2.775 0 2.775zm11.608-.193c1.576 0 1.576-2.389 0-2.389-1.575 0-1.575 2.389 0 2.389zm11.608-.258c1.235 0 1.235-1.872 0-1.872s-1.235 1.872 0 1.872zm11.608-.226c.937 0 .937-1.42 0-1.42s-.937 1.42 0 1.42zm11.608-.29c.554 0 .554-.84 0-.84-.553 0-.553.84 0 .84zm11.608-.259c.213 0 .213-.323 0-.323s-.213.323 0 .323zM46.687 58.583c.171 0 .171-.258 0-.258-.17 0-.17.258 0 .258zm11.609.29c.553 0 .553-.839 0-.839-.554 0-.554.84 0 .84zm11.608.323c.98 0 .98-1.485 0-1.485s-.98 1.485 0 1.485zm11.608.29c1.362 0 1.362-2.065 0-2.065-1.363 0-1.363 2.066 0 2.066zm11.608.259c1.703 0 1.703-2.582 0-2.582-1.704 0-1.704 2.582 0 2.582zm11.608.226c2.001 0 2.001-3.034 0-3.034-2.002 0-2.002 3.034 0 3.034zm11.608.226c2.3 0 2.3-3.486 0-3.486s-2.3 3.486 0 3.486zm11.608.193c2.555 0 2.555-3.873 0-3.873s-2.555 3.873 0 3.873zm11.608.162c2.768 0 2.768-4.196 0-4.196s-2.768 4.196 0 4.196zm11.608.129c2.939 0 2.939-4.454 0-4.454s-2.939 4.454 0 4.454zm11.608.097c3.066 0 3.066-4.648 0-4.648s-3.066 4.648 0 4.648zm11.608.064c3.151 0 3.151-4.777 0-4.777s-3.151 4.777 0 4.777zm11.608.032c3.194 0 3.194-4.84 0-4.84s-3.194 4.84 0 4.84zm11.608-.032c3.151 0 3.151-4.777 0-4.777-3.152 0-3.152 4.777 0 4.777zm11.608-.032c3.109 0 3.109-4.712 0-4.712s-3.109 4.712 0 4.712zm11.608-.097c2.981 0 2.981-4.519 0-4.519s-2.981 4.519 0 4.519zm11.608-.13c2.811 0 2.811-4.26 0-4.26s-2.811 4.26 0 4.26zm11.608-.16c2.598 0 2.598-3.938 0-3.938s-2.598 3.937 0 3.937zm11.608-.194c2.343 0 2.343-3.55 0-3.55-2.342 0-2.342 3.55 0 3.55zm11.608-.226c2.044 0 2.044-3.099 0-3.099s-2.044 3.099 0 3.099zm11.608-.226c1.746 0 1.746-2.647 0-2.647s-1.746 2.647 0 2.647zm11.608-.29c1.363 0 1.363-2.066 0-2.066-1.362 0-1.362 2.066 0 2.066zm11.608-.259c1.022 0 1.022-1.549 0-1.549s-1.022 1.55 0 1.55zm11.608-.322c.597 0 .597-.904 0-.904-.596 0-.596.904 0 .904zm11.608-.29c.213 0 .213-.324 0-.324s-.213.323 0 .323zM35.08 70.19c.127 0 .127-.194 0-.194-.128 0-.128.194 0 .194zm11.608.322c.553 0 .553-.839 0-.839-.554 0-.554.84 0 .84zm11.608.323c.98 0 .98-1.484 0-1.484s-.98 1.484 0 1.484zm11.608.323c1.405 0 1.405-2.13 0-2.13-1.406 0-1.406 2.13 0 2.13zm11.608.29c1.788 0 1.788-2.71 0-2.71-1.789 0-1.789 2.71 0 2.71zm11.608.29c2.172 0 2.172-3.291 0-3.291s-2.172 3.292 0 3.292zm11.608.26c2.513 0 2.513-3.81 0-3.81s-2.513 3.81 0 3.81zm11.608.225c2.81 0 2.81-4.26 0-4.26-2.811 0-2.811 4.26 0 4.26zm11.608.194c3.066 0 3.066-4.648 0-4.648s-3.066 4.648 0 4.648zm11.608.193c3.322 0 3.322-5.035 0-5.035s-3.322 5.035 0 5.035zm11.608.13c3.492 0 3.492-5.294 0-5.294s-3.492 5.293 0 5.293zm11.608.096c3.62 0 3.62-5.487 0-5.487s-3.62 5.487 0 5.487zm11.608.065c3.705 0 3.705-5.616 0-5.616s-3.705 5.616 0 5.616zm11.608.032c3.748 0 3.748-5.68 0-5.68s-3.748 5.68 0 5.68zm11.608-.032c3.705 0 3.705-5.616 0-5.616s-3.705 5.616 0 5.616zm11.608-.032c3.663 0 3.663-5.552 0-5.552-3.662 0-3.662 5.552 0 5.552zm11.608-.13c3.492 0 3.492-5.293 0-5.293s-3.492 5.293 0 5.293zm11.608-.129c3.322 0 3.322-5.035 0-5.035s-3.322 5.035 0 5.035zm11.608-.161c3.109 0 3.109-4.712 0-4.712s-3.109 4.712 0 4.712zm11.608-.226c2.811 0 2.811-4.26 0-4.26-2.81 0-2.81 4.26 0 4.26zm11.608-.226c2.513 0 2.513-3.808 0-3.808s-2.513 3.808 0 3.808zm11.608-.258c2.172 0 2.172-3.292 0-3.292s-2.172 3.292 0 3.292zm11.608-.258c1.831 0 1.831-2.776 0-2.776s-1.831 2.776 0 2.776zm11.608-.323c1.406 0 1.406-2.13 0-2.13-1.405 0-1.405 2.13 0 2.13zm11.608-.29c1.022 0 1.022-1.55 0-1.55s-1.022 1.55 0 1.55zm11.608-.356c.554 0 .554-.839 0-.839-.553 0-.553.84 0 .84zm11.608-.29c.171 0 .171-.258 0-.258-.17 0-.17.258 0 .258zM23.472 81.764c.042 0 .042-.064 0-.064-.043 0-.043.064 0 .064zm11.608.29c.425 0 .425-.645 0-.645-.426 0-.426.646 0 .646zm11.608.356c.894 0 .894-1.356 0-1.356-.895 0-.895 1.356 0 1.356zm11.608.355c1.362 0 1.362-2.066 0-2.066-1.363 0-1.363 2.066 0 2.066zm11.608.323c1.788 0 1.788-2.712 0-2.712-1.79 0-1.79 2.712 0 2.712zm11.608.322c2.215 0 2.215-3.356 0-3.356s-2.215 3.356 0 3.356zm11.608.29c2.598 0 2.598-3.937 0-3.937s-2.598 3.938 0 3.938zm11.608.259c2.938 0 2.938-4.454 0-4.454-2.939 0-2.939 4.454 0 4.454zm11.608.258c3.279 0 3.279-4.97 0-4.97s-3.279 4.97 0 4.97zm11.608.226c3.577 0 3.577-5.422 0-5.422s-3.577 5.422 0 5.422zm11.608.194c3.833 0 3.833-5.81 0-5.81s-3.833 5.81 0 5.81zm11.608.161c4.046 0 4.046-6.132 0-6.132s-4.046 6.132 0 6.132zm11.608.097c4.174 0 4.174-6.326 0-6.326-4.173 0-4.173 6.326 0 6.326zm11.608.064c4.259 0 4.259-6.455 0-6.455s-4.259 6.455 0 6.455zm11.608.033c4.302 0 4.302-6.52 0-6.52-4.301 0-4.301 6.52 0 6.52zm11.608 0c4.301 0 4.301-6.52 0-6.52s-4.301 6.52 0 6.52zm11.608-.065c4.216 0 4.216-6.39 0-6.39s-4.216 6.39 0 6.39zm11.608-.129c4.046 0 4.046-6.132 0-6.132s-4.046 6.132 0 6.132zm11.608-.161c3.833 0 3.833-5.81 0-5.81s-3.833 5.81 0 5.81zm11.608-.194c3.577 0 3.577-5.422 0-5.422s-3.577 5.422 0 5.422zm11.608-.194c3.322 0 3.322-5.034 0-5.034-3.321 0-3.321 5.034 0 5.034zm11.608-.258c2.981 0 2.981-4.518 0-4.518s-2.981 4.518 0 4.518zm11.608-.29c2.598 0 2.598-3.938 0-3.938s-2.598 3.938 0 3.938zm11.608-.29c2.215 0 2.215-3.357 0-3.357-2.214 0-2.214 3.356 0 3.356zm11.608-.291c1.832 0 1.832-2.776 0-2.776-1.831 0-1.831 2.776 0 2.776zm11.608-.323c1.406 0 1.406-2.13 0-2.13-1.405 0-1.405 2.13 0 2.13zm11.608-.355c.937 0 .937-1.42 0-1.42s-.937 1.42 0 1.42zm11.608-.355c.469 0 .469-.71 0-.71-.468 0-.468.71 0 .71zm11.608-.29c.086 0 .086-.13 0-.13-.085 0-.085.13 0 .13zM23.472 93.564c.255 0 .255-.388 0-.388-.256 0-.256.388 0 .388zm11.608.387c.766 0 .766-1.162 0-1.162-.767 0-.767 1.162 0 1.162zm11.608.355c1.235 0 1.235-1.872 0-1.872s-1.235 1.872 0 1.872zm11.608.355c1.703 0 1.703-2.582 0-2.582-1.704 0-1.704 2.582 0 2.582zm11.608.355c2.172 0 2.172-3.292 0-3.292s-2.172 3.292 0 3.292zm11.608.323c2.598 0 2.598-3.938 0-3.938s-2.598 3.938 0 3.938zm11.608.322c3.023 0 3.023-4.583 0-4.583-3.024 0-3.024 4.584 0 4.584zm11.608.291c3.407 0 3.407-5.164 0-5.164s-3.407 5.164 0 5.164zm11.608.258c3.748 0 3.748-5.68 0-5.68s-3.748 5.68 0 5.68zm11.608.226c4.046 0 4.046-6.132 0-6.132s-4.046 6.132 0 6.132zm11.608.226c4.344 0 4.344-6.584 0-6.584s-4.344 6.584 0 6.584zm11.608.162c4.557 0 4.557-6.907 0-6.907s-4.557 6.906 0 6.906zm11.608.129c4.727 0 4.727-7.165 0-7.165s-4.727 7.165 0 7.165zm11.608.096c4.855 0 4.855-7.358 0-7.358s-4.855 7.358 0 7.358zm11.608.033c4.898 0 4.898-7.424 0-7.424s-4.898 7.424 0 7.424zm11.608-.033c4.855 0 4.855-7.358 0-7.358s-4.855 7.358 0 7.358zm11.608-.096c4.727 0 4.727-7.165 0-7.165s-4.727 7.165 0 7.165zm11.608-.097c4.599 0 4.599-6.972 0-6.972s-4.599 6.972 0 6.972zm11.608-.194c4.344 0 4.344-6.584 0-6.584s-4.344 6.584 0 6.584zm11.608-.194c4.089 0 4.089-6.196 0-6.196-4.088 0-4.088 6.196 0 6.196zm11.608-.258c3.748 0 3.748-5.68 0-5.68s-3.748 5.68 0 5.68zm11.608-.258c3.407 0 3.407-5.164 0-5.164s-3.407 5.164 0 5.164zm11.608-.29c3.024 0 3.024-4.584 0-4.584-3.023 0-3.023 4.584 0 4.584zm11.608-.29c2.641 0 2.641-4.003 0-4.003-2.64 0-2.64 4.002 0 4.002zm11.608-.356c2.172 0 2.172-3.292 0-3.292s-2.172 3.292 0 3.292zm11.608-.323c1.747 0 1.747-2.646 0-2.646-1.746 0-1.746 2.646 0 2.646zm11.608-.355c1.278 0 1.278-1.936 0-1.936-1.277 0-1.277 1.936 0 1.936zm11.608-.387c.767 0 .767-1.162 0-1.162-.766 0-.766 1.162 0 1.162zm11.608-.355c.299 0 .299-.452 0-.452-.298 0-.298.452 0 .452zM11.863 105.075c.086 0 .086-.129 0-.129-.085 0-.085.129 0 .129zm11.609.322c.51 0 .51-.774 0-.774-.511 0-.511.774 0 .774zm11.608.388c1.022 0 1.022-1.549 0-1.549-1.023 0-1.023 1.549 0 1.549zm11.608.387c1.533 0 1.533-2.324 0-2.324-1.534 0-1.534 2.324 0 2.324zm11.608.355c2.001 0 2.001-3.034 0-3.034-2.002 0-2.002 3.034 0 3.034zm11.608.387c2.512 0 2.512-3.808 0-3.808-2.513 0-2.513 3.808 0 3.808zm11.608.323c2.938 0 2.938-4.454 0-4.454-2.939 0-2.939 4.454 0 4.454zm11.608.355c3.407 0 3.407-5.164 0-5.164s-3.407 5.164 0 5.164zm11.608.291c3.79 0 3.79-5.745 0-5.745s-3.79 5.745 0 5.745zm11.608.29c4.173 0 4.173-6.326 0-6.326-4.174 0-4.174 6.326 0 6.326zm11.608.258c4.514 0 4.514-6.842 0-6.842s-4.514 6.842 0 6.842zm11.608.258c4.855 0 4.855-7.358 0-7.358s-4.855 7.358 0 7.358zm11.608.194c5.111 0 5.111-7.746 0-7.746s-5.111 7.746 0 7.746zm11.608.129c5.281 0 5.281-8.004 0-8.004s-5.281 8.004 0 8.004zm11.608.097c5.409 0 5.409-8.198 0-8.198s-5.409 8.198 0 8.198zm11.608.032c5.451 0 5.451-8.262 0-8.262s-5.451 8.262 0 8.262zm11.608-.032c5.409 0 5.409-8.198 0-8.198s-5.409 8.198 0 8.198zm11.608-.097c5.281 0 5.281-8.004 0-8.004s-5.281 8.004 0 8.004zm11.608-.129c5.111 0 5.111-7.746 0-7.746-5.11 0-5.11 7.746 0 7.746zm11.608-.194c4.855 0 4.855-7.358 0-7.358s-4.855 7.358 0 7.358zm11.608-.225c4.557 0 4.557-6.907 0-6.907s-4.557 6.907 0 6.907zm11.608-.259c4.216 0 4.216-6.39 0-6.39s-4.216 6.39 0 6.39zm11.608-.29c3.833 0 3.833-5.81 0-5.81s-3.833 5.81 0 5.81zm11.608-.323c3.407 0 3.407-5.164 0-5.164s-3.407 5.164 0 5.164zm11.608-.323c2.981 0 2.981-4.518 0-4.518s-2.981 4.518 0 4.518zm11.608-.322c2.556 0 2.556-3.873 0-3.873-2.555 0-2.555 3.873 0 3.873zm11.608-.388c2.044 0 2.044-3.098 0-3.098s-2.044 3.098 0 3.098zm11.608-.355c1.576 0 1.576-2.388 0-2.388-1.575 0-1.575 2.388 0 2.388zm11.608-.387c1.065 0 1.065-1.614 0-1.614-1.064 0-1.064 1.614 0 1.614zm11.608-.387c.554 0 .554-.839 0-.839-.553 0-.553.839 0 .839zm11.608-.355c.086 0 .086-.129 0-.129-.085 0-.085.129 0 .129zm-348.24 11.768c.255 0 .255-.387 0-.387-.256 0-.256.387 0 .387zm11.608.387c.766 0 .766-1.162 0-1.162-.767 0-.767 1.162 0 1.162zm11.608.387c1.277 0 1.277-1.936 0-1.936-1.278 0-1.278 1.936 0 1.936zm11.608.42c1.831 0 1.831-2.776 0-2.776-1.832 0-1.832 2.776 0 2.776zm11.608.355c2.3 0 2.3-3.486 0-3.486s-2.3 3.486 0 3.486zm11.608.387c2.81 0 2.81-4.26 0-4.26-2.811 0-2.811 4.26 0 4.26zm11.608.355c3.279 0 3.279-4.97 0-4.97-3.28 0-3.28 4.97 0 4.97zm11.608.355c3.747 0 3.747-5.68 0-5.68-3.748 0-3.748 5.68 0 5.68zm11.608.323c4.173 0 4.173-6.326 0-6.326-4.174 0-4.174 6.326 0 6.326zm11.608.323c4.599 0 4.599-6.971 0-6.971s-4.599 6.971 0 6.971zm11.608.29c4.983 0 4.983-7.552 0-7.552s-4.983 7.552 0 7.552zm11.608.259c5.323 0 5.323-8.069 0-8.069-5.324 0-5.324 8.069 0 8.069zm11.608.226c5.621 0 5.621-8.521 0-8.521-5.622 0-5.622 8.521 0 8.521zm11.608.161c5.834 0 5.834-8.843 0-8.843-5.835 0-5.835 8.843 0 8.843zm11.608.097c5.962 0 5.962-9.037 0-9.037s-5.962 9.037 0 9.037zm11.608.032c6.005 0 6.005-9.101 0-9.101s-6.005 9.101 0 9.101zm11.608-.032c5.962 0 5.962-9.037 0-9.037s-5.962 9.037 0 9.037zm11.608-.097c5.835 0 5.835-8.843 0-8.843-5.834 0-5.834 8.843 0 8.843zm11.608-.161c5.622 0 5.622-8.521 0-8.521-5.621 0-5.621 8.521 0 8.521zm11.608-.194c5.366 0 5.366-8.133 0-8.133s-5.366 8.133 0 8.133zm11.608-.258c5.025 0 5.025-7.617 0-7.617s-5.025 7.617 0 7.617zm11.608-.291c4.642 0 4.642-7.036 0-7.036s-4.642 7.036 0 7.036zm11.608-.323c4.216 0 4.216-6.39 0-6.39s-4.216 6.39 0 6.39zm11.608-.322c3.791 0 3.791-5.745 0-5.745-3.79 0-3.79 5.745 0 5.745zm11.608-.355c3.322 0 3.322-5.035 0-5.035-3.321 0-3.321 5.035 0 5.035zm11.608-.355c2.854 0 2.854-4.325 0-4.325-2.853 0-2.853 4.325 0 4.325zm11.608-.388c2.343 0 2.343-3.55 0-3.55-2.342 0-2.342 3.55 0 3.55zm11.608-.387c1.831 0 1.831-2.776 0-2.776s-1.831 2.776 0 2.776zm11.608-.387c1.321 0 1.321-2.001 0-2.001-1.32 0-1.32 2.001 0 2.001zm11.608-.387c.81 0 .81-1.227 0-1.227-.809 0-.809 1.227 0 1.227zm11.608-.388c.298 0 .298-.452 0-.452s-.298.452 0 .452zM.256 128.321c.042 0 .042-.065 0-.065-.043 0-.043.065 0 .065zm11.607.29c.427 0 .427-.645 0-.645-.425 0-.425.645 0 .645zm11.609.42c.979 0 .979-1.485 0-1.485-.98 0-.98 1.485 0 1.485zm11.608.419c1.533 0 1.533-2.324 0-2.324s-1.533 2.324 0 2.324zm11.608.387c2.044 0 2.044-3.098 0-3.098-2.045 0-2.045 3.098 0 3.098zm11.608.388c2.555 0 2.555-3.873 0-3.873s-2.555 3.873 0 3.873zm11.608.387c3.066 0 3.066-4.647 0-4.647s-3.066 4.647 0 4.647zm11.608.387c3.577 0 3.577-5.422 0-5.422-3.578 0-3.578 5.422 0 5.422zm11.608.355c4.045 0 4.045-6.132 0-6.132-4.046 0-4.046 6.132 0 6.132zm11.608.356c4.514 0 4.514-6.843 0-6.843s-4.514 6.843 0 6.843zm11.608.355c4.983 0 4.983-7.553 0-7.553s-4.983 7.553 0 7.553zm11.608.322c5.408 0 5.408-8.198 0-8.198-5.409 0-5.409 8.198 0 8.198zm11.608.291c5.792 0 5.792-8.779 0-8.779s-5.792 8.779 0 8.779zm11.608.258c6.132 0 6.132-9.295 0-9.295-6.133 0-6.133 9.295 0 9.295zm11.608.194c6.388 0 6.388-9.683 0-9.683s-6.388 9.683 0 9.683zm11.608.129c6.559 0 6.559-9.941 0-9.941-6.558 0-6.558 9.941 0 9.941zm11.608.032c6.601 0 6.601-10.005 0-10.005s-6.601 10.005 0 10.005zm11.608-.032c6.558 0 6.558-9.941 0-9.941-6.559 0-6.559 9.941 0 9.941zm11.608-.129c6.388 0 6.388-9.683 0-9.683s-6.388 9.683 0 9.683zm11.608-.194c6.133 0 6.133-9.295 0-9.295-6.132 0-6.132 9.295 0 9.295zm11.608-.226c5.835 0 5.835-8.843 0-8.843-5.834 0-5.834 8.843 0 8.843zm11.608-.291c5.451 0 5.451-8.262 0-8.262s-5.451 8.262 0 8.262zm11.608-.322c5.025 0 5.025-7.617 0-7.617s-5.025 7.617 0 7.617zm11.608-.355c4.557 0 4.557-6.907 0-6.907s-4.557 6.907 0 6.907zm11.608-.355c4.089 0 4.089-6.197 0-6.197-4.088 0-4.088 6.197 0 6.197zm11.608-.355c3.62 0 3.62-5.487 0-5.487s-3.62 5.487 0 5.487zm11.608-.388c3.109 0 3.109-4.712 0-4.712-3.108 0-3.108 4.712 0 4.712zm11.608-.387c2.598 0 2.598-3.937 0-3.937-2.597 0-2.597 3.937 0 3.937zm11.608-.387c2.087 0 2.087-3.163 0-3.163-2.086 0-2.086 3.163 0 3.163zm11.608-.387c1.576 0 1.576-2.389 0-2.389-1.575 0-1.575 2.389 0 2.389zm11.608-.42c1.023 0 1.023-1.549 0-1.549-1.022 0-1.022 1.549 0 1.549zm11.608-.42c.469 0 .469-.71 0-.71-.468 0-.468.71 0 .71zm11.608-.322c.043 0 .043-.065 0-.065-.042 0-.042.065 0 .065zM.256 139.992c.085 0 .085-.129 0-.129-.086 0-.086.129 0 .129zm11.607.387c.597 0 .597-.903 0-.903-.596 0-.596.903 0 .903zm11.609.42c1.15 0 1.15-1.743 0-1.743s-1.15 1.743 0 1.743zm11.608.42c1.703 0 1.703-2.582 0-2.582-1.704 0-1.704 2.582 0 2.582zm11.608.419c2.257 0 2.257-3.421 0-3.421-2.258 0-2.258 3.421 0 3.421zm11.608.387c2.768 0 2.768-4.195 0-4.195s-2.768 4.195 0 4.195zm11.608.42c3.322 0 3.322-5.035 0-5.035s-3.322 5.035 0 5.035zm11.608.387c3.833 0 3.833-5.809 0-5.809s-3.833 5.809 0 5.809zm11.608.388c4.344 0 4.344-6.585 0-6.585s-4.344 6.585 0 6.585zm11.608.387c4.855 0 4.855-7.359 0-7.359s-4.855 7.359 0 7.359zm11.608.355c5.323 0 5.323-8.069 0-8.069-5.324 0-5.324 8.069 0 8.069zm11.608.355c5.792 0 5.792-8.779 0-8.779s-5.792 8.779 0 8.779zm11.608.323c6.218 0 6.218-9.425 0-9.425s-6.218 9.425 0 9.425zm11.608.29c6.601 0 6.601-10.005 0-10.005s-6.601 10.005 0 10.005zm11.608.226c6.899 0 6.899-10.457 0-10.457s-6.899 10.457 0 10.457zm11.608.161c7.112 0 7.112-10.779 0-10.779s-7.112 10.779 0 10.779zm11.608.065c7.197 0 7.197-10.909 0-10.909s-7.197 10.909 0 10.909zm11.608-.065c7.112 0 7.112-10.779 0-10.779s-7.112 10.779 0 10.779zm11.608-.161c6.899 0 6.899-10.457 0-10.457s-6.899 10.457 0 10.457zm11.608-.226c6.601 0 6.601-10.005 0-10.005s-6.601 10.005 0 10.005zm11.608-.258c6.26 0 6.26-9.489 0-9.489s-6.26 9.489 0 9.489zm11.608-.323c5.835 0 5.835-8.843 0-8.843-5.834 0-5.834 8.843 0 8.843zm11.608-.355c5.366 0 5.366-8.133 0-8.133s-5.366 8.133 0 8.133zm11.608-.355c4.898 0 4.898-7.423 0-7.423-4.897 0-4.897 7.423 0 7.423zm11.608-.387c4.387 0 4.387-6.649 0-6.649-4.386 0-4.386 6.649 0 6.649zm11.608-.387c3.876 0 3.876-5.875 0-5.875-3.875 0-3.875 5.875 0 5.875zm11.608-.388c3.365 0 3.365-5.099 0-5.099-3.364 0-3.364 5.099 0 5.099zm11.608-.419c2.811 0 2.811-4.261 0-4.261-2.81 0-2.81 4.261 0 4.261zm11.608-.388c2.3 0 2.3-3.485 0-3.485s-2.3 3.485 0 3.485zm11.608-.419c1.747 0 1.747-2.647 0-2.647-1.746 0-1.746 2.647 0 2.647zm11.608-.42c1.193 0 1.193-1.807 0-1.807-1.192 0-1.192 1.807 0 1.807zm11.608-.419c.639 0 .639-.969 0-.969-.638 0-.638.969 0 .969zm11.608-.388c.128 0 .128-.193 0-.193-.127 0-.127.193 0 .193zM.256 151.696c.17 0 .17-.258 0-.258s-.17.258 0 .258zm11.607.419c.725 0 .725-1.097 0-1.097-.723 0-.723 1.097 0 1.097zm11.609.42c1.277 0 1.277-1.937 0-1.937-1.278 0-1.278 1.937 0 1.937zm11.608.452c1.873 0 1.873-2.841 0-2.841-1.874 0-1.874 2.841 0 2.841zm11.608.419c2.427 0 2.427-3.679 0-3.679-2.428 0-2.428 3.679 0 3.679zm11.608.388c2.938 0 2.938-4.454 0-4.454-2.939 0-2.939 4.454 0 4.454zm11.608.419c3.492 0 3.492-5.293 0-5.293s-3.492 5.293 0 5.293zm11.608.42c4.045 0 4.045-6.133 0-6.133-4.046 0-4.046 6.133 0 6.133zm11.608.387c4.557 0 4.557-6.907 0-6.907s-4.557 6.907 0 6.907zm11.608.42c5.11 0 5.11-7.746 0-7.746s-5.11 7.746 0 7.746zm11.608.387c5.621 0 5.621-8.521 0-8.521-5.622 0-5.622 8.521 0 8.521zm11.608.387c6.132 0 6.132-9.295 0-9.295-6.133 0-6.133 9.295 0 9.295zm11.608.355c6.601 0 6.601-10.005 0-10.005s-6.601 10.005 0 10.005zm11.608.323c7.027 0 7.027-10.651 0-10.651s-7.027 10.651 0 10.651zm11.608.29c7.41 0 7.41-11.231 0-11.231s-7.41 11.231 0 11.231zm11.608.162c7.623 0 7.623-11.555 0-11.555s-7.623 11.555 0 11.555zm11.608.097c7.751 0 7.751-11.748 0-11.748s-7.751 11.748 0 11.748zm11.608-.065c7.666 0 7.666-11.619 0-11.619s-7.666 11.619 0 11.619zm11.608-.194c7.41 0 7.41-11.231 0-11.231s-7.41 11.231 0 11.231zm11.608-.258c7.07 0 7.07-10.715 0-10.715-7.069 0-7.069 10.715 0 10.715zm11.608-.322c6.644 0 6.644-10.07 0-10.07s-6.644 10.07 0 10.07zm11.608-.388c6.133 0 6.133-9.295 0-9.295s-6.133 9.295 0 9.295zm11.608-.355c5.664 0 5.664-8.585 0-8.585s-5.664 8.585 0 8.585zm11.608-.387c5.153 0 5.153-7.811 0-7.811s-5.153 7.811 0 7.811zm11.608-.42c4.6 0 4.6-6.971 0-6.971-4.599 0-4.599 6.971 0 6.971zm11.608-.387c4.089 0 4.089-6.197 0-6.197-4.088 0-4.088 6.197 0 6.197zm11.608-.42c3.535 0 3.535-5.357 0-5.357-3.534 0-3.534 5.357 0 5.357zm11.608-.419c2.981 0 2.981-4.519 0-4.519s-2.981 4.519 0 4.519zm11.608-.387c2.47 0 2.47-3.744 0-3.744s-2.47 3.744 0 3.744zm11.608-.42c1.917 0 1.917-2.905 0-2.905-1.916 0-1.916 2.905 0 2.905zm11.608-.452c1.32 0 1.32-2.001 0-2.001s-1.32 2.001 0 2.001zm11.608-.42c.767 0 .767-1.161 0-1.161-.766 0-.766 1.161 0 1.161zm11.608-.419c.213 0 .213-.323 0-.323-.212 0-.212.323 0 .323zM.256 163.399c.255 0 .255-.387 0-.387-.256 0-.256.387 0 .387zm11.607.42c.81 0 .81-1.227 0-1.227-.809 0-.809 1.227 0 1.227zm11.609.452c1.405 0 1.405-2.13 0-2.13-1.406 0-1.406 2.13 0 2.13zm11.608.419c1.959 0 1.959-2.969 0-2.969-1.96 0-1.96 2.969 0 2.969zm11.608.42c2.512 0 2.512-3.809 0-3.809-2.513 0-2.513 3.809 0 3.809zm11.608.419c3.066 0 3.066-4.647 0-4.647-3.067 0-3.067 4.647 0 4.647zm11.608.42c3.62 0 3.62-5.487 0-5.487s-3.62 5.487 0 5.487zm11.608.42c4.173 0 4.173-6.326 0-6.326-4.174 0-4.174 6.326 0 6.326zm11.608.419c4.727 0 4.727-7.165 0-7.165s-4.727 7.165 0 7.165zm11.608.42c5.281 0 5.281-8.004 0-8.004-5.28 0-5.28 8.004 0 8.004zm11.608.419c5.834 0 5.834-8.843 0-8.843-5.835 0-5.835 8.843 0 8.843zm11.608.42c6.388 0 6.388-9.682 0-9.682s-6.388 9.682 0 9.682zm11.608.387c6.899 0 6.899-10.457 0-10.457s-6.899 10.457 0 10.457zm11.608.388c7.41 0 7.41-11.232 0-11.232s-7.41 11.232 0 11.232zm11.608.322c7.836 0 7.836-11.877 0-11.877s-7.836 11.877 0 11.877zm11.608.258c8.177 0 8.177-12.393 0-12.393s-8.177 12.393 0 12.393zm11.608.097c8.304 0 8.304-12.587 0-12.587s-8.304 12.587 0 12.587zm11.608-.097c8.177 0 8.177-12.393 0-12.393s-8.177 12.393 0 12.393zm11.608-.225c7.879 0 7.879-11.942 0-11.942s-7.879 11.942 0 11.942zm11.608-.355c7.41 0 7.41-11.232 0-11.232s-7.41 11.232 0 11.232zm11.608-.356c6.942 0 6.942-10.521 0-10.521s-6.942 10.521 0 10.521zm11.608-.387c6.431 0 6.431-9.747 0-9.747s-6.431 9.747 0 9.747zm11.608-.419c5.877 0 5.877-8.908 0-8.908s-5.877 8.908 0 8.908zm11.608-.42c5.324 0 5.324-8.069 0-8.069-5.323 0-5.323 8.069 0 8.069zm11.608-.42c4.77 0 4.77-7.229 0-7.229s-4.77 7.229 0 7.229zm11.608-.419c4.216 0 4.216-6.391 0-6.391s-4.216 6.391 0 6.391zm11.608-.42c3.663 0 3.663-5.551 0-5.551-3.662 0-3.662 5.551 0 5.551zm11.608-.419c3.109 0 3.109-4.712 0-4.712s-3.109 4.712 0 4.712zm11.608-.42c2.556 0 2.556-3.873 0-3.873-2.555 0-2.555 3.873 0 3.873zm11.608-.419c2.002 0 2.002-3.034 0-3.034-2.001 0-2.001 3.034 0 3.034zm11.608-.42c1.448 0 1.448-2.195 0-2.195s-1.448 2.195 0 2.195zm11.608-.452c.852 0 .852-1.291 0-1.291-.851 0-.851 1.291 0 1.291zm11.608-.419c.299 0 .299-.452 0-.452-.298 0-.298.452 0 .452zM.256 175.071c.298 0 .298-.452 0-.452-.299 0-.299.452 0 .452zm11.607.452c.895 0 .895-1.356 0-1.356-.894 0-.894 1.356 0 1.356zm11.609.419c1.448 0 1.448-2.195 0-2.195-1.449 0-1.449 2.195 0 2.195zm11.608.452c2.044 0 2.044-3.098 0-3.098-2.045 0-2.045 3.098 0 3.098zm11.608.42c2.597 0 2.597-3.938 0-3.938-2.598 0-2.598 3.938 0 3.938zm11.608.419c3.151 0 3.151-4.777 0-4.777-3.152 0-3.152 4.777 0 4.777zm11.608.42c3.705 0 3.705-5.616 0-5.616s-3.705 5.616 0 5.616zm11.608.419c4.258 0 4.258-6.455 0-6.455-4.259 0-4.259 6.455 0 6.455zm11.608.452c4.855 0 4.855-7.359 0-7.359s-4.855 7.359 0 7.359zm11.608.42c5.408 0 5.408-8.198 0-8.198-5.409 0-5.409 8.198 0 8.198zm11.608.419c5.962 0 5.962-9.037 0-9.037s-5.962 9.037 0 9.037zm11.608.452c6.558 0 6.558-9.941 0-9.941-6.559 0-6.559 9.941 0 9.941zm11.608.42c7.112 0 7.112-10.78 0-10.78s-7.112 10.78 0 10.78zm11.608.387c7.623 0 7.623-11.554 0-11.554s-7.623 11.554 0 11.554zm11.608.42c8.177 0 8.177-12.394 0-12.394s-8.177 12.394 0 12.394zm11.608.355c8.645 0 8.645-13.104 0-13.104s-8.645 13.104 0 13.104zm11.608.161c8.858 0 8.858-13.426 0-13.426s-8.858 13.426 0 13.426zm11.608-.129c8.688 0 8.688-13.168 0-13.168s-8.688 13.168 0 13.168zm11.608-.355c8.219 0 8.219-12.458 0-12.458s-8.219 12.458 0 12.458zm11.608-.42c7.666 0 7.666-11.619 0-11.619s-7.666 11.619 0 11.619zm11.608-.387c7.155 0 7.155-10.844 0-10.844-7.154 0-7.154 10.844 0 10.844zm11.608-.42c6.601 0 6.601-10.005 0-10.005s-6.601 10.005 0 10.005zm11.608-.451c6.005 0 6.005-9.102 0-9.102s-6.005 9.102 0 9.102zm11.608-.42c5.451 0 5.451-8.262 0-8.262s-5.451 8.262 0 8.262zm11.608-.42c4.898 0 4.898-7.423 0-7.423-4.897 0-4.897 7.423 0 7.423zm11.608-.451c4.302 0 4.302-6.52 0-6.52-4.301 0-4.301 6.52 0 6.52zm11.608-.42c3.748 0 3.748-5.68 0-5.68-3.747 0-3.747 5.68 0 5.68zm11.608-.42c3.194 0 3.194-4.841 0-4.841s-3.194 4.841 0 4.841zm11.608-.419c2.641 0 2.641-4.002 0-4.002-2.64 0-2.64 4.002 0 4.002zm11.608-.42c2.087 0 2.087-3.163 0-3.163-2.086 0-2.086 3.163 0 3.163zm11.608-.452c1.491 0 1.491-2.259 0-2.259-1.49 0-1.49 2.259 0 2.259zm11.608-.419c.937 0 .937-1.42 0-1.42s-.937 1.42 0 1.42zm11.608-.452c.341 0 .341-.516 0-.516-.34 0-.34.516 0 .516zM.256 186.742c.34 0 .34-.516 0-.516-.341 0-.341.516 0 .516zm11.607.42c.895 0 .895-1.356 0-1.356-.894 0-.894 1.356 0 1.356zm11.609.451c1.49 0 1.49-2.259 0-2.259s-1.49 2.259 0 2.259zm11.608.42c2.044 0 2.044-3.098 0-3.098-2.045 0-2.045 3.098 0 3.098zm11.608.452c2.64 0 2.64-4.002 0-4.002s-2.64 4.002 0 4.002zm11.608.42c3.194 0 3.194-4.842 0-4.842s-3.194 4.842 0 4.842zm11.608.419c3.747 0 3.747-5.68 0-5.68-3.748 0-3.748 5.68 0 5.68zm11.608.42c4.301 0 4.301-6.52 0-6.52-4.302 0-4.302 6.52 0 6.52zm11.608.451c4.897 0 4.897-7.423 0-7.423-4.898 0-4.898 7.423 0 7.423zm11.608.42c5.451 0 5.451-8.262 0-8.262s-5.451 8.262 0 8.262zm11.608.42c6.005 0 6.005-9.102 0-9.102s-6.005 9.102 0 9.102zm11.608.451c6.601 0 6.601-10.005 0-10.005s-6.601 10.005 0 10.005zm11.608.452c7.197 0 7.197-10.909 0-10.909s-7.197 10.909 0 10.909zm11.608.42c7.751 0 7.751-11.748 0-11.748s-7.751 11.748 0 11.748zm11.608.42c8.305 0 8.305-12.588 0-12.588s-8.305 12.588 0 12.588zm11.608.419c8.858 0 8.858-13.426 0-13.426s-8.858 13.426 0 13.426zm11.608.323c9.284 0 9.284-14.072 0-14.072s-9.284 14.072 0 14.072zm11.608-.291c8.901 0 8.901-13.491 0-13.491s-8.901 13.491 0 13.491zm11.608-.419c8.347 0 8.347-12.652 0-12.652s-8.347 12.652 0 12.652zm11.608-.42c7.794 0 7.794-11.812 0-11.812s-7.794 11.812 0 11.812zm11.608-.452c7.197 0 7.197-10.909 0-10.909s-7.197 10.909 0 10.909zm11.608-.419c6.644 0 6.644-10.07 0-10.07-6.643 0-6.643 10.07 0 10.07zm11.608-.452c6.047 0 6.047-9.166 0-9.166s-6.047 9.166 0 9.166zm11.608-.42c5.494 0 5.494-8.327 0-8.327s-5.494 8.327 0 8.327zm11.608-.419c4.94 0 4.94-7.488 0-7.488s-4.94 7.488 0 7.488zm11.608-.452c4.344 0 4.344-6.584 0-6.584s-4.344 6.584 0 6.584zm11.608-.42c3.791 0 3.791-5.745 0-5.745-3.79 0-3.79 5.745 0 5.745zm11.608-.419c3.237 0 3.237-4.906 0-4.906-3.236 0-3.236 4.906 0 4.906zm11.608-.42c2.684 0 2.684-4.066 0-4.066-2.683 0-2.683 4.066 0 4.066zm11.608-.452c2.087 0 2.087-3.163 0-3.163-2.086 0-2.086 3.163 0 3.163zm11.608-.419c1.534 0 1.534-2.324 0-2.324-1.533 0-1.533 2.324 0 2.324zm11.608-.452c.937 0 .937-1.42 0-1.42s-.937 1.42 0 1.42zm11.608-.42c.384 0 .384-.581 0-.581-.383 0-.383.581 0 .581zM.256 198.381c.34 0 .34-.516 0-.516-.341 0-.341.516 0 .516zm11.607.42c.895 0 .895-1.356 0-1.356-.894 0-.894 1.356 0 1.356zm11.609.419c1.448 0 1.448-2.194 0-2.194-1.449 0-1.449 2.194 0 2.194zm11.608.452c2.044 0 2.044-3.098 0-3.098-2.045 0-2.045 3.098 0 3.098zm11.608.42c2.597 0 2.597-3.938 0-3.938-2.598 0-2.598 3.938 0 3.938zm11.608.419c3.151 0 3.151-4.776 0-4.776-3.152 0-3.152 4.776 0 4.776zm11.608.42c3.705 0 3.705-5.616 0-5.616s-3.705 5.616 0 5.616zm11.608.452c4.301 0 4.301-6.52 0-6.52-4.302 0-4.302 6.52 0 6.52zm11.608.419c4.855 0 4.855-7.358 0-7.358s-4.855 7.358 0 7.358zm11.608.42c5.408 0 5.408-8.198 0-8.198-5.409 0-5.409 8.198 0 8.198zm11.608.419c5.962 0 5.962-9.037 0-9.037s-5.962 9.037 0 9.037zm11.608.452c6.558 0 6.558-9.94 0-9.94-6.559 0-6.559 9.94 0 9.94zm11.608.42c7.112 0 7.112-10.78 0-10.78s-7.112 10.78 0 10.78zm11.608.419c7.666 0 7.666-11.618 0-11.618s-7.666 11.618 0 11.618zm11.608.388c8.177 0 8.177-12.394 0-12.394s-8.177 12.394 0 12.394zm11.608.387c8.688 0 8.688-13.168 0-13.168s-8.688 13.168 0 13.168zm11.608.161c8.901 0 8.901-13.49 0-13.49s-8.901 13.49 0 13.49zm11.608-.161c8.688 0 8.688-13.168 0-13.168s-8.688 13.168 0 13.168zm11.608-.355c8.219 0 8.219-12.458 0-12.458s-8.219 12.458 0 12.458zm11.608-.387c7.709 0 7.709-11.684 0-11.684-7.708 0-7.708 11.684 0 11.684zm11.608-.42c7.155 0 7.155-10.844 0-10.844-7.154 0-7.154 10.844 0 10.844zm11.608-.419c6.601 0 6.601-10.006 0-10.006s-6.601 10.006 0 10.006zm11.608-.42c6.047 0 6.047-9.166 0-9.166s-6.047 9.166 0 9.166zm11.608-.452c5.451 0 5.451-8.262 0-8.262s-5.451 8.262 0 8.262zm11.608-.419c4.898 0 4.898-7.424 0-7.424-4.897 0-4.897 7.424 0 7.424zm11.608-.42c4.344 0 4.344-6.584 0-6.584s-4.344 6.584 0 6.584zm11.608-.452c3.748 0 3.748-5.68 0-5.68-3.747 0-3.747 5.68 0 5.68zm11.608-.419c3.194 0 3.194-4.842 0-4.842s-3.194 4.842 0 4.842zm11.608-.42c2.641 0 2.641-4.002 0-4.002-2.64 0-2.64 4.002 0 4.002zm11.608-.42c2.087 0 2.087-3.162 0-3.162-2.086 0-2.086 3.162 0 3.162zm11.608-.451c1.491 0 1.491-2.26 0-2.26-1.49 0-1.49 2.26 0 2.26zm11.608-.42c.937 0 .937-1.42 0-1.42s-.937 1.42 0 1.42zm11.608-.452c.341 0 .341-.516 0-.516-.34 0-.34.516 0 .516zM.256 209.956c.255 0 .255-.388 0-.388-.256 0-.256.388 0 .388zm11.607.452c.852 0 .852-1.291 0-1.291-.851 0-.851 1.291 0 1.291zm11.609.419c1.405 0 1.405-2.13 0-2.13-1.406 0-1.406 2.13 0 2.13zm11.608.42c1.959 0 1.959-2.97 0-2.97-1.96 0-1.96 2.97 0 2.97zm11.608.452c2.555 0 2.555-3.873 0-3.873-2.556 0-2.556 3.873 0 3.873zm11.608.419c3.109 0 3.109-4.712 0-4.712-3.11 0-3.11 4.712 0 4.712zm11.608.42c3.662 0 3.662-5.552 0-5.552-3.663 0-3.663 5.552 0 5.552zm11.608.419c4.216 0 4.216-6.39 0-6.39s-4.216 6.39 0 6.39zm11.608.388c4.727 0 4.727-7.165 0-7.165s-4.727 7.165 0 7.165zm11.608.419c5.281 0 5.281-8.004 0-8.004-5.28 0-5.28 8.004 0 8.004zm11.608.42c5.834 0 5.834-8.844 0-8.844-5.835 0-5.835 8.844 0 8.844zm11.608.419c6.388 0 6.388-9.682 0-9.682s-6.388 9.682 0 9.682zm11.608.388c6.899 0 6.899-10.457 0-10.457s-6.899 10.457 0 10.457zm11.608.387c7.41 0 7.41-11.232 0-11.232s-7.41 11.232 0 11.232zm11.608.355c7.878 0 7.878-11.942 0-11.942-7.879 0-7.879 11.942 0 11.942zm11.608.258c8.219 0 8.219-12.458 0-12.458-8.22 0-8.22 12.458 0 12.458zm11.608.097c8.347 0 8.347-12.652 0-12.652s-8.347 12.652 0 12.652zm11.608-.097c8.219 0 8.219-12.458 0-12.458s-8.219 12.458 0 12.458zm11.608-.258c7.879 0 7.879-11.942 0-11.942s-7.879 11.942 0 11.942zm11.608-.323c7.453 0 7.453-11.296 0-11.296s-7.453 11.296 0 11.296zm11.608-.387c6.942 0 6.942-10.522 0-10.522s-6.942 10.522 0 10.522zm11.608-.387c6.431 0 6.431-9.747 0-9.747s-6.431 9.747 0 9.747zm11.608-.42c5.877 0 5.877-8.908 0-8.908s-5.877 8.908 0 8.908zm11.608-.42c5.324 0 5.324-8.068 0-8.068-5.323 0-5.323 8.068 0 8.068zm11.608-.419c4.77 0 4.77-7.23 0-7.23s-4.77 7.23 0 7.23zm11.608-.42c4.216 0 4.216-6.39 0-6.39s-4.216 6.39 0 6.39zm11.608-.387c3.705 0 3.705-5.616 0-5.616s-3.705 5.616 0 5.616zm11.608-.42c3.152 0 3.152-4.776 0-4.776-3.151 0-3.151 4.776 0 4.776zm11.608-.419c2.598 0 2.598-3.938 0-3.938-2.597 0-2.597 3.938 0 3.938zm11.608-.452c2.002 0 2.002-3.034 0-3.034-2.001 0-2.001 3.034 0 3.034zm11.608-.42c1.448 0 1.448-2.194 0-2.194s-1.448 2.194 0 2.194zm11.608-.419c.895 0 .895-1.356 0-1.356-.894 0-.894 1.356 0 1.356zm11.608-.452c.299 0 .299-.452 0-.452-.298 0-.298.452 0 .452zM.256 221.563c.212 0 .212-.323 0-.323-.213 0-.213.323 0 .323zm11.607.387c.725 0 .725-1.097 0-1.097-.723 0-.723 1.097 0 1.097zm11.609.452c1.32 0 1.32-2.001 0-2.001s-1.32 2.001 0 2.001zm11.608.419c1.873 0 1.873-2.84 0-2.84-1.874 0-1.874 2.84 0 2.84zm11.608.42c2.427 0 2.427-3.679 0-3.679-2.428 0-2.428 3.679 0 3.679zm11.608.419c2.98 0 2.98-4.518 0-4.518-2.981 0-2.981 4.518 0 4.518zm11.608.388c3.492 0 3.492-5.293 0-5.293s-3.492 5.293 0 5.293zm11.608.419c4.045 0 4.045-6.132 0-6.132-4.046 0-4.046 6.132 0 6.132zm11.608.42c4.6 0 4.6-6.972 0-6.972s-4.6 6.972 0 6.972zm11.608.387c5.11 0 5.11-7.746 0-7.746s-5.11 7.746 0 7.746zm11.608.388c5.621 0 5.621-8.521 0-8.521-5.622 0-5.622 8.521 0 8.521zm11.608.387c6.132 0 6.132-9.295 0-9.295-6.133 0-6.133 9.295 0 9.295zm11.608.355c6.601 0 6.601-10.005 0-10.005s-6.601 10.005 0 10.005zm11.608.355c7.07 0 7.07-10.715 0-10.715s-7.07 10.715 0 10.715zm11.608.258c7.41 0 7.41-11.232 0-11.232s-7.41 11.232 0 11.232zm11.608.194c7.666 0 7.666-11.619 0-11.619s-7.666 11.619 0 11.619zm11.608.096c7.793 0 7.793-11.812 0-11.812-7.794 0-7.794 11.812 0 11.812zm11.608-.064c7.708 0 7.708-11.683 0-11.683s-7.708 11.683 0 11.683zm11.608-.194c7.453 0 7.453-11.296 0-11.296s-7.453 11.296 0 11.296zm11.608-.258c7.112 0 7.112-10.78 0-10.78s-7.112 10.78 0 10.78zm11.608-.355c6.644 0 6.644-10.07 0-10.07s-6.644 10.07 0 10.07zm11.608-.355c6.175 0 6.175-9.36 0-9.36s-6.175 9.36 0 9.36zm11.608-.387c5.664 0 5.664-8.585 0-8.585s-5.664 8.585 0 8.585zm11.608-.388c5.153 0 5.153-7.81 0-7.81s-5.153 7.81 0 7.81zm11.608-.419c4.6 0 4.6-6.972 0-6.972-4.599 0-4.599 6.972 0 6.972zm11.608-.387c4.089 0 4.089-6.197 0-6.197-4.088 0-4.088 6.197 0 6.197zm11.608-.42c3.535 0 3.535-5.358 0-5.358-3.534 0-3.534 5.358 0 5.358zm11.608-.387c3.024 0 3.024-4.583 0-4.583-3.023 0-3.023 4.583 0 4.583zm11.608-.42c2.47 0 2.47-3.744 0-3.744s-2.47 3.744 0 3.744zm11.608-.419c1.917 0 1.917-2.905 0-2.905-1.916 0-1.916 2.905 0 2.905zm11.608-.42c1.363 0 1.363-2.066 0-2.066-1.362 0-1.362 2.066 0 2.066zm11.608-.452c.767 0 .767-1.162 0-1.162-.766 0-.766 1.162 0 1.162zm11.608-.419c.213 0 .213-.323 0-.323-.212 0-.212.323 0 .323zM.256 233.137c.127 0 .127-.193 0-.193-.128 0-.128.193 0 .193zm11.607.355c.597 0 .597-.903 0-.903-.596 0-.596.903 0 .903zm11.609.42c1.15 0 1.15-1.743 0-1.743s-1.15 1.743 0 1.743zm11.608.419c1.703 0 1.703-2.582 0-2.582-1.704 0-1.704 2.582 0 2.582zm11.608.42c2.257 0 2.257-3.421 0-3.421-2.258 0-2.258 3.421 0 3.421zm11.608.42c2.81 0 2.81-4.261 0-4.261-2.811 0-2.811 4.261 0 4.261zm11.608.387c3.322 0 3.322-5.035 0-5.035s-3.322 5.035 0 5.035zm11.608.387c3.833 0 3.833-5.809 0-5.809s-3.833 5.809 0 5.809zm11.608.387c4.344 0 4.344-6.584 0-6.584s-4.344 6.584 0 6.584zm11.608.388c4.855 0 4.855-7.359 0-7.359s-4.855 7.359 0 7.359zm11.608.387c5.366 0 5.366-8.133 0-8.133s-5.366 8.133 0 8.133zm11.608.355c5.834 0 5.834-8.843 0-8.843-5.835 0-5.835 8.843 0 8.843zm11.608.323c6.26 0 6.26-9.489 0-9.489s-6.26 9.489 0 9.489zm11.608.29c6.643 0 6.643-10.07 0-10.07-6.644 0-6.644 10.07 0 10.07zm11.608.226c6.942 0 6.942-10.521 0-10.521s-6.942 10.521 0 10.521zm11.608.161c7.155 0 7.155-10.844 0-10.844s-7.155 10.844 0 10.844zm11.608.033c7.197 0 7.197-10.909 0-10.909s-7.197 10.909 0 10.909zm11.608-.033c7.155 0 7.155-10.844 0-10.844s-7.155 10.844 0 10.844zm11.608-.161c6.942 0 6.942-10.521 0-10.521s-6.942 10.521 0 10.521zm11.608-.226c6.644 0 6.644-10.07 0-10.07s-6.644 10.07 0 10.07zm11.608-.29c6.26 0 6.26-9.489 0-9.489s-6.26 9.489 0 9.489zm11.608-.323c5.835 0 5.835-8.843 0-8.843-5.834 0-5.834 8.843 0 8.843zm11.608-.355c5.366 0 5.366-8.133 0-8.133s-5.366 8.133 0 8.133zm11.608-.355c4.898 0 4.898-7.423 0-7.423-4.897 0-4.897 7.423 0 7.423zm11.608-.387c4.387 0 4.387-6.649 0-6.649-4.386 0-4.386 6.649 0 6.649zm11.608-.388c3.876 0 3.876-5.874 0-5.874-3.875 0-3.875 5.874 0 5.874zm11.608-.387c3.365 0 3.365-5.099 0-5.099-3.364 0-3.364 5.099 0 5.099zm11.608-.387c2.854 0 2.854-4.325 0-4.325-2.853 0-2.853 4.325 0 4.325zm11.608-.42c2.3 0 2.3-3.486 0-3.486s-2.3 3.486 0 3.486zm11.608-.419c1.747 0 1.747-2.647 0-2.647-1.746 0-1.746 2.647 0 2.647zm11.608-.42c1.193 0 1.193-1.807 0-1.807-1.192 0-1.192 1.807 0 1.807zm11.608-.42c.639 0 .639-.968 0-.968-.638 0-.638.968 0 .968zm11.608-.387c.128 0 .128-.193 0-.193-.127 0-.127.193 0 .193zM.256 244.712c.042 0 .042-.065 0-.065-.043 0-.043.065 0 .065zm11.607.322c.469 0 .469-.71 0-.71-.468 0-.468.71 0 .71zm11.609.388c.979 0 .979-1.485 0-1.485-.98 0-.98 1.485 0 1.485zm11.608.419c1.533 0 1.533-2.323 0-2.323s-1.533 2.323 0 2.323zm11.608.42c2.086 0 2.086-3.163 0-3.163-2.087 0-2.087 3.163 0 3.163zm11.608.387c2.598 0 2.598-3.937 0-3.937s-2.598 3.937 0 3.937zm11.608.387c3.109 0 3.109-4.712 0-4.712-3.11 0-3.11 4.712 0 4.712zm11.608.356c3.577 0 3.577-5.423 0-5.423-3.578 0-3.578 5.423 0 5.423zm11.608.387c4.088 0 4.088-6.197 0-6.197-4.089 0-4.089 6.197 0 6.197zm11.608.355c4.557 0 4.557-6.907 0-6.907s-4.557 6.907 0 6.907zm11.608.355c5.025 0 5.025-7.617 0-7.617-5.026 0-5.026 7.617 0 7.617zm11.608.323c5.451 0 5.451-8.263 0-8.263s-5.451 8.263 0 8.263zm11.608.29c5.834 0 5.834-8.843 0-8.843s-5.834 8.843 0 8.843zm11.608.226c6.132 0 6.132-9.295 0-9.295-6.133 0-6.133 9.295 0 9.295zm11.608.226c6.431 0 6.431-9.747 0-9.747s-6.431 9.747 0 9.747zm11.608.129c6.601 0 6.601-10.005 0-10.005s-6.601 10.005 0 10.005zm11.608.032c6.643 0 6.643-10.069 0-10.069-6.644 0-6.644 10.069 0 10.069zm11.608-.032c6.601 0 6.601-10.005 0-10.005s-6.601 10.005 0 10.005zm11.608-.129c6.431 0 6.431-9.747 0-9.747s-6.431 9.747 0 9.747zm11.608-.194c6.175 0 6.175-9.359 0-9.359s-6.175 9.359 0 9.359zm11.608-.258c5.835 0 5.835-8.843 0-8.843-5.834 0-5.834 8.843 0 8.843zm11.608-.29c5.451 0 5.451-8.263 0-8.263s-5.451 8.263 0 8.263zm11.608-.323c5.025 0 5.025-7.617 0-7.617s-5.025 7.617 0 7.617zm11.608-.323c4.6 0 4.6-6.971 0-6.971-4.599 0-4.599 6.971 0 6.971zm11.608-.355c4.131 0 4.131-6.261 0-6.261s-4.131 6.261 0 6.261zm11.608-.387c3.62 0 3.62-5.487 0-5.487s-3.62 5.487 0 5.487zm11.608-.355c3.152 0 3.152-4.777 0-4.777-3.151 0-3.151 4.777 0 4.777zm11.608-.388c2.641 0 2.641-4.002 0-4.002-2.64 0-2.64 4.002 0 4.002zm11.608-.419c2.087 0 2.087-3.163 0-3.163-2.086 0-2.086 3.163 0 3.163zm11.608-.387c1.576 0 1.576-2.389 0-2.389-1.575 0-1.575 2.389 0 2.389zm11.608-.42c1.023 0 1.023-1.549 0-1.549-1.022 0-1.022 1.549 0 1.549zm11.608-.387c.512 0 .512-.775 0-.775-.511 0-.511.775 0 .775zm11.608-.355c.043 0 .043-.065 0-.065-.042 0-.042.065 0 .065zm-359.849 11.8c.256 0 .256-.387 0-.387-.255 0-.255.387 0 .387zm11.609.388c.766 0 .766-1.162 0-1.162-.767 0-.767 1.162 0 1.162zm11.608.419c1.32 0 1.32-2.001 0-2.001s-1.32 2.001 0 2.001zm11.608.387c1.831 0 1.831-2.775 0-2.775-1.832 0-1.832 2.775 0 2.775zm11.608.388c2.342 0 2.342-3.551 0-3.551-2.343 0-2.343 3.551 0 3.551zm11.608.355c2.81 0 2.81-4.261 0-4.261-2.811 0-2.811 4.261 0 4.261zm11.608.387c3.322 0 3.322-5.035 0-5.035s-3.322 5.035 0 5.035zm11.608.323c3.747 0 3.747-5.681 0-5.681-3.748 0-3.748 5.681 0 5.681zm11.608.355c4.216 0 4.216-6.391 0-6.391s-4.216 6.391 0 6.391zm11.608.322c4.642 0 4.642-7.035 0-7.035s-4.642 7.035 0 7.035zm11.608.291c5.025 0 5.025-7.617 0-7.617s-5.025 7.617 0 7.617zm11.608.258c5.366 0 5.366-8.133 0-8.133s-5.366 8.133 0 8.133zm11.608.226c5.664 0 5.664-8.585 0-8.585s-5.664 8.585 0 8.585zm11.608.161c5.877 0 5.877-8.907 0-8.907s-5.877 8.907 0 8.907zm11.608.097c6.005 0 6.005-9.101 0-9.101s-6.005 9.101 0 9.101zm11.608.033c6.047 0 6.047-9.166 0-9.166s-6.047 9.166 0 9.166zm11.608 0c6.048 0 6.048-9.166 0-9.166-6.047 0-6.047 9.166 0 9.166zm11.608-.13c5.877 0 5.877-8.907 0-8.907s-5.877 8.907 0 8.907zm11.608-.161c5.664 0 5.664-8.585 0-8.585s-5.664 8.585 0 8.585zm11.608-.226c5.366 0 5.366-8.133 0-8.133s-5.366 8.133 0 8.133zm11.608-.258c5.025 0 5.025-7.617 0-7.617s-5.025 7.617 0 7.617zm11.608-.291c4.642 0 4.642-7.035 0-7.035s-4.642 7.035 0 7.035zm11.608-.29c4.259 0 4.259-6.455 0-6.455-4.258 0-4.258 6.455 0 6.455zm11.608-.355c3.791 0 3.791-5.745 0-5.745-3.79 0-3.79 5.745 0 5.745zm11.608-.323c3.365 0 3.365-5.099 0-5.099-3.364 0-3.364 5.099 0 5.099zm11.608-.387c2.854 0 2.854-4.325 0-4.325-2.853 0-2.853 4.325 0 4.325zm11.608-.355c2.385 0 2.385-3.615 0-3.615s-2.385 3.615 0 3.615zm11.608-.387c1.874 0 1.874-2.841 0-2.841-1.873 0-1.873 2.841 0 2.841zm11.608-.388c1.363 0 1.363-2.065 0-2.065-1.362 0-1.362 2.065 0 2.065zm11.608-.419c.81 0 .81-1.227 0-1.227-.809 0-.809 1.227 0 1.227zm11.608-.388c.298 0 .298-.451 0-.451s-.298.451 0 .451zm-348.24 11.478c.085 0 .085-.129 0-.129-.086 0-.086.129 0 .129zm11.608.355c.553 0 .553-.839 0-.839-.554 0-.554.839 0 .839zm11.608.387c1.064 0 1.064-1.613 0-1.613-1.065 0-1.065 1.613 0 1.613zm11.608.388c1.575 0 1.575-2.389 0-2.389-1.576 0-1.576 2.389 0 2.389zm11.608.355c2.044 0 2.044-3.099 0-3.099s-2.044 3.099 0 3.099zm11.608.355c2.512 0 2.512-3.809 0-3.809-2.513 0-2.513 3.809 0 3.809zm11.608.355c2.98 0 2.98-4.519 0-4.519-2.981 0-2.981 4.519 0 4.519zm11.608.323c3.407 0 3.407-5.164 0-5.164s-3.407 5.164 0 5.164zm11.608.322c3.833 0 3.833-5.809 0-5.809s-3.833 5.809 0 5.809zm11.608.291c4.216 0 4.216-6.391 0-6.391s-4.216 6.391 0 6.391zm11.608.258c4.557 0 4.557-6.907 0-6.907s-4.557 6.907 0 6.907zm11.608.258c4.897 0 4.897-7.423 0-7.423-4.898 0-4.898 7.423 0 7.423zm11.608.194c5.153 0 5.153-7.811 0-7.811s-5.153 7.811 0 7.811zm11.608.129c5.323 0 5.323-8.069 0-8.069s-5.323 8.069 0 8.069zm11.608.097c5.451 0 5.451-8.263 0-8.263s-5.451 8.263 0 8.263zm11.608.032c5.494 0 5.494-8.327 0-8.327s-5.494 8.327 0 8.327zm11.608-.032c5.451 0 5.451-8.263 0-8.263s-5.451 8.263 0 8.263zm11.608-.097c5.324 0 5.324-8.069 0-8.069-5.323 0-5.323 8.069 0 8.069zm11.608-.129c5.153 0 5.153-7.811 0-7.811s-5.153 7.811 0 7.811zm11.608-.194c4.898 0 4.898-7.423 0-7.423-4.897 0-4.897 7.423 0 7.423zm11.608-.226c4.6 0 4.6-6.971 0-6.971-4.599 0-4.599 6.971 0 6.971zm11.608-.258c4.259 0 4.259-6.455 0-6.455s-4.259 6.455 0 6.455zm11.608-.29c3.876 0 3.876-5.874 0-5.874-3.875 0-3.875 5.874 0 5.874zm11.608-.323c3.45 0 3.45-5.229 0-5.229-3.449 0-3.449 5.229 0 5.229zm11.608-.323c3.024 0 3.024-4.583 0-4.583s-3.024 4.583 0 4.583zm11.608-.355c2.556 0 2.556-3.873 0-3.873-2.555 0-2.555 3.873 0 3.873zm11.608-.355c2.087 0 2.087-3.163 0-3.163s-2.087 3.163 0 3.163zm11.608-.387c1.576 0 1.576-2.389 0-2.389-1.575 0-1.575 2.389 0 2.389zm11.608-.355c1.108 0 1.108-1.679 0-1.679-1.107 0-1.107 1.679 0 1.679zm11.608-.388c.597 0 .597-.903 0-.903-.596 0-.596.903 0 .903zm11.608-.354c.128 0 .128-.194 0-.194-.127 0-.127.194 0 .194zM23.472 279.823c.298 0 .298-.452 0-.452-.299 0-.299.452 0 .452zm11.608.355c.766 0 .766-1.162 0-1.162-.767 0-.767 1.162 0 1.162zm11.608.355c1.235 0 1.235-1.872 0-1.872s-1.235 1.872 0 1.872zm11.608.387c1.746 0 1.746-2.647 0-2.647s-1.746 2.647 0 2.647zm11.608.323c2.172 0 2.172-3.292 0-3.292s-2.172 3.292 0 3.292zm11.608.322c2.598 0 2.598-3.937 0-3.937s-2.598 3.937 0 3.937zm11.608.323c3.023 0 3.023-4.583 0-4.583-3.024 0-3.024 4.583 0 4.583zm11.608.291c3.407 0 3.407-5.164 0-5.164s-3.407 5.164 0 5.164zm11.608.29c3.79 0 3.79-5.745 0-5.745s-3.79 5.745 0 5.745zm11.608.226c4.088 0 4.088-6.197 0-6.197-4.089 0-4.089 6.197 0 6.197zm11.608.226c4.386 0 4.386-6.649 0-6.649s-4.386 6.649 0 6.649zm11.608.161c4.599 0 4.599-6.971 0-6.971s-4.599 6.971 0 6.971zm11.608.13c4.77 0 4.77-7.23 0-7.23s-4.77 7.23 0 7.23zm11.608.096c4.897 0 4.897-7.423 0-7.423s-4.897 7.423 0 7.423zm11.608.033c4.94 0 4.94-7.488 0-7.488s-4.94 7.488 0 7.488zm11.608-.033c4.898 0 4.898-7.423 0-7.423s-4.898 7.423 0 7.423zm11.608-.096c4.77 0 4.77-7.23 0-7.23s-4.77 7.23 0 7.23zm11.608-.13c4.599 0 4.599-6.971 0-6.971s-4.599 6.971 0 6.971zm11.608-.161c4.387 0 4.387-6.649 0-6.649-4.386 0-4.386 6.649 0 6.649zm11.608-.194c4.131 0 4.131-6.261 0-6.261s-4.131 6.261 0 6.261zm11.608-.258c3.79 0 3.79-5.745 0-5.745s-3.79 5.745 0 5.745zm11.608-.258c3.45 0 3.45-5.229 0-5.229-3.449 0-3.449 5.229 0 5.229zm11.608-.29c3.067 0 3.067-4.648 0-4.648-3.066 0-3.066 4.648 0 4.648zm11.608-.323c2.641 0 2.641-4.002 0-4.002-2.64 0-2.64 4.002 0 4.002zm11.608-.323c2.215 0 2.215-3.357 0-3.357-2.214 0-2.214 3.357 0 3.357zm11.608-.355c1.747 0 1.747-2.647 0-2.647-1.746 0-1.746 2.647 0 2.647zm11.608-.355c1.278 0 1.278-1.936 0-1.936-1.277 0-1.277 1.936 0 1.936zm11.608-.355c.809 0 .809-1.227 0-1.227s-.809 1.227 0 1.227zm11.608-.387c.299 0 .299-.452 0-.452-.298 0-.298.452 0 .452zM23.472 291.3c.085 0 .085-.129 0-.129s-.085.129 0 .129zm11.608.291c.468 0 .468-.71 0-.71-.469 0-.469.71 0 .71zm11.608.355c.936 0 .936-1.42 0-1.42-.937 0-.937 1.42 0 1.42zm11.608.323c1.362 0 1.362-2.066 0-2.066-1.363 0-1.363 2.066 0 2.066zm11.608.355c1.83 0 1.83-2.776 0-2.776-1.832 0-1.832 2.776 0 2.776zm11.608.29c2.215 0 2.215-3.356 0-3.356s-2.215 3.356 0 3.356zm11.608.323c2.64 0 2.64-4.002 0-4.002s-2.64 4.002 0 4.002zm11.608.258c2.981 0 2.981-4.518 0-4.518s-2.981 4.518 0 4.518zm11.608.258c3.322 0 3.322-5.035 0-5.035s-3.322 5.035 0 5.035zm11.608.226c3.62 0 3.62-5.487 0-5.487s-3.62 5.487 0 5.487zm11.608.194c3.875 0 3.875-5.874 0-5.874-3.876 0-3.876 5.874 0 5.874zm11.608.161c4.088 0 4.088-6.197 0-6.197s-4.088 6.197 0 6.197zm11.608.097c4.216 0 4.216-6.39 0-6.39s-4.216 6.39 0 6.39zm11.608.065c4.301 0 4.301-6.52 0-6.52s-4.301 6.52 0 6.52zm11.608.032c4.344 0 4.344-6.584 0-6.584s-4.344 6.584 0 6.584zm11.608 0c4.344 0 4.344-6.584 0-6.584s-4.344 6.584 0 6.584zm11.608-.097c4.216 0 4.216-6.39 0-6.39s-4.216 6.39 0 6.39zm11.608-.097c4.088 0 4.088-6.197 0-6.197s-4.088 6.197 0 6.197zm11.608-.161c3.876 0 3.876-5.874 0-5.874-3.875 0-3.875 5.874 0 5.874zm11.608-.194c3.62 0 3.62-5.487 0-5.487s-3.62 5.487 0 5.487zm11.608-.194c3.365 0 3.365-5.099 0-5.099-3.364 0-3.364 5.099 0 5.099zm11.608-.258c3.024 0 3.024-4.583 0-4.583-3.023 0-3.023 4.583 0 4.583zm11.608-.29c2.641 0 2.641-4.002 0-4.002-2.64 0-2.64 4.002 0 4.002zm11.608-.291c2.257 0 2.257-3.421 0-3.421s-2.257 3.421 0 3.421zm11.608-.322c1.832 0 1.832-2.776 0-2.776-1.831 0-1.831 2.776 0 2.776zm11.608-.323c1.406 0 1.406-2.13 0-2.13-1.405 0-1.405 2.13 0 2.13zm11.608-.323c.98 0 .98-1.485 0-1.485-.979 0-.979 1.485 0 1.485zm11.608-.355c.512 0 .512-.774 0-.774-.511 0-.511.774 0 .774zm11.608-.323c.086 0 .086-.129 0-.129-.085 0-.085.129 0 .129zM35.08 303.004c.17 0 .17-.258 0-.258s-.17.258 0 .258zm11.608.29c.553 0 .553-.839 0-.839-.554 0-.554.839 0 .839zm11.608.356c1.022 0 1.022-1.55 0-1.55s-1.022 1.55 0 1.55zm11.608.29c1.405 0 1.405-2.13 0-2.13-1.406 0-1.406 2.13 0 2.13zm11.608.323c1.831 0 1.831-2.776 0-2.776-1.832 0-1.832 2.776 0 2.776zm11.608.258c2.172 0 2.172-3.292 0-3.292s-2.172 3.292 0 3.292zm11.608.29c2.555 0 2.555-3.872 0-3.872-2.556 0-2.556 3.872 0 3.872zm11.608.226c2.853 0 2.853-4.325 0-4.325-2.854 0-2.854 4.325 0 4.325zm11.608.194c3.109 0 3.109-4.712 0-4.712s-3.109 4.712 0 4.712zm11.608.194c3.364 0 3.364-5.1 0-5.1-3.365 0-3.365 5.1 0 5.1zm11.608.129c3.535 0 3.535-5.358 0-5.358s-3.535 5.358 0 5.358zm11.608.097c3.662 0 3.662-5.552 0-5.552-3.663 0-3.663 5.552 0 5.552zm11.608.064c3.748 0 3.748-5.68 0-5.68s-3.748 5.68 0 5.68zm11.608.032c3.79 0 3.79-5.744 0-5.744s-3.79 5.744 0 5.744zm11.608-.032c3.748 0 3.748-5.68 0-5.68s-3.748 5.68 0 5.68zm11.608-.032c3.705 0 3.705-5.616 0-5.616s-3.705 5.616 0 5.616zm11.608-.129c3.535 0 3.535-5.358 0-5.358s-3.535 5.358 0 5.358zm11.608-.129c3.365 0 3.365-5.1 0-5.1-3.364 0-3.364 5.1 0 5.1zm11.608-.162c3.152 0 3.152-4.776 0-4.776-3.151 0-3.151 4.776 0 4.776zm11.608-.226c2.854 0 2.854-4.325 0-4.325-2.853 0-2.853 4.325 0 4.325zm11.608-.226c2.555 0 2.555-3.872 0-3.872s-2.555 3.872 0 3.872zm11.608-.258c2.215 0 2.215-3.356 0-3.356-2.214 0-2.214 3.356 0 3.356zm11.608-.29c1.831 0 1.831-2.776 0-2.776s-1.831 2.776 0 2.776zm11.608-.291c1.448 0 1.448-2.194 0-2.194s-1.448 2.194 0 2.194zm11.608-.322c1.022 0 1.022-1.55 0-1.55s-1.022 1.55 0 1.55zm11.608-.323c.597 0 .597-.904 0-.904-.596 0-.596.904 0 .904zm11.608-.323c.171 0 .171-.258 0-.258-.17 0-.17.258 0 .258zm-290.2 11.671c.212 0 .212-.322 0-.322-.213 0-.213.322 0 .322zm11.608.291c.596 0 .596-.904 0-.904s-.596.904 0 .904zm11.608.323c1.022 0 1.022-1.549 0-1.549s-1.022 1.549 0 1.549zm11.608.29c1.405 0 1.405-2.13 0-2.13-1.406 0-1.406 2.13 0 2.13zm11.608.258c1.746 0 1.746-2.646 0-2.646s-1.746 2.646 0 2.646zm11.608.226c2.044 0 2.044-3.098 0-3.098s-2.044 3.098 0 3.098zm11.608.226c2.342 0 2.342-3.55 0-3.55s-2.342 3.55 0 3.55zm11.608.194c2.598 0 2.598-3.938 0-3.938s-2.598 3.938 0 3.938zm11.608.161c2.811 0 2.811-4.26 0-4.26s-2.811 4.26 0 4.26zm11.608.129c2.981 0 2.981-4.518 0-4.518s-2.981 4.518 0 4.518zm11.608.097c3.109 0 3.109-4.712 0-4.712s-3.109 4.712 0 4.712zm11.608.065c3.194 0 3.194-4.842 0-4.842s-3.194 4.842 0 4.842zm11.608.032c3.237 0 3.237-4.906 0-4.906s-3.237 4.906 0 4.906zm11.608-.032c3.194 0 3.194-4.842 0-4.842s-3.194 4.842 0 4.842zm11.608-.033c3.152 0 3.152-4.776 0-4.776-3.151 0-3.151 4.776 0 4.776zm11.608-.096c3.024 0 3.024-4.583 0-4.583s-3.024 4.583 0 4.583zm11.608-.13c2.853 0 2.853-4.324 0-4.324s-2.853 4.324 0 4.324zm11.608-.161c2.641 0 2.641-4.002 0-4.002-2.64 0-2.64 4.002 0 4.002zm11.608-.193c2.385 0 2.385-3.615 0-3.615s-2.385 3.615 0 3.615zm11.608-.227c2.087 0 2.087-3.162 0-3.162s-2.087 3.162 0 3.162zm11.608-.258c1.746 0 1.746-2.646 0-2.646s-1.746 2.646 0 2.646zm11.608-.258c1.406 0 1.406-2.13 0-2.13-1.405 0-1.405 2.13 0 2.13zm11.608-.29c1.022 0 1.022-1.549 0-1.549s-1.022 1.549 0 1.549zm11.608-.291c.639 0 .639-.968 0-.968-.638 0-.638.968 0 .968zm11.608-.29c.256 0 .256-.388 0-.388-.255 0-.255.388 0 .388zM58.296 326.315c.213 0 .213-.323 0-.323s-.213.323 0 .323zm11.608.258c.553 0 .553-.839 0-.839-.554 0-.554.839 0 .839zm11.608.29c.937 0 .937-1.42 0-1.42s-.937 1.42 0 1.42zm11.608.258c1.277 0 1.277-1.936 0-1.936-1.278 0-1.278 1.936 0 1.936zm11.608.226c1.576 0 1.576-2.388 0-2.388s-1.576 2.388 0 2.388zm11.608.194c1.831 0 1.831-2.776 0-2.776s-1.831 2.776 0 2.776zm11.608.194c2.087 0 2.087-3.163 0-3.163s-2.087 3.163 0 3.163zm11.608.161c2.3 0 2.3-3.486 0-3.486s-2.3 3.486 0 3.486zm11.608.129c2.47 0 2.47-3.744 0-3.744s-2.47 3.744 0 3.744zm11.608.065c2.555 0 2.555-3.873 0-3.873s-2.555 3.873 0 3.873zm11.608.064c2.64 0 2.64-4.002 0-4.002s-2.64 4.002 0 4.002zm11.608.032c2.683 0 2.683-4.066 0-4.066s-2.683 4.066 0 4.066zm11.608-.032c2.641 0 2.641-4.002 0-4.002-2.64 0-2.64 4.002 0 4.002zm11.608-.032c2.598 0 2.598-3.938 0-3.938s-2.598 3.938 0 3.938zm11.608-.097c2.47 0 2.47-3.744 0-3.744s-2.47 3.744 0 3.744zm11.608-.129c2.3 0 2.3-3.486 0-3.486-2.299 0-2.299 3.486 0 3.486zm11.608-.161c2.087 0 2.087-3.163 0-3.163s-2.087 3.163 0 3.163zm11.608-.162c1.874 0 1.874-2.84 0-2.84s-1.874 2.84 0 2.84zm11.608-.226c1.576 0 1.576-2.388 0-2.388-1.575 0-1.575 2.388 0 2.388zm11.608-.226c1.278 0 1.278-1.936 0-1.936-1.277 0-1.277 1.936 0 1.936zm11.608-.226c.98 0 .98-1.484 0-1.484-.979 0-.979 1.484 0 1.484zm11.608-.29c.597 0 .597-.904 0-.904-.596 0-.596.904 0 .904zm11.608-.258c.256 0 .256-.387 0-.387-.255 0-.255.387 0 .387zM69.904 337.921c.17 0 .17-.258 0-.258s-.17.258 0 .258zm11.608.226c.468 0 .468-.71 0-.71-.469 0-.469.71 0 .71zm11.608.226c.766 0 .766-1.162 0-1.162-.767 0-.767 1.162 0 1.162zm11.608.226c1.065 0 1.065-1.614 0-1.614s-1.065 1.614 0 1.614zm11.608.194c1.32 0 1.32-2.001 0-2.001s-1.32 2.001 0 2.001zm11.608.193c1.575 0 1.575-2.388 0-2.388-1.576 0-1.576 2.388 0 2.388zm11.608.13c1.746 0 1.746-2.647 0-2.647s-1.746 2.647 0 2.647zm11.608.129c1.916 0 1.916-2.905 0-2.905s-1.916 2.905 0 2.905zm11.608.064c2.002 0 2.002-3.034 0-3.034s-2.002 3.034 0 3.034zm11.608.065c2.087 0 2.087-3.163 0-3.163s-2.087 3.163 0 3.163zm11.608 0c2.087 0 2.087-3.163 0-3.163s-2.087 3.163 0 3.163zm11.608 0c2.087 0 2.087-3.163 0-3.163s-2.087 3.163 0 3.163zm11.608-.065c2.002 0 2.002-3.034 0-3.034s-2.002 3.034 0 3.034zm11.608-.064c1.916 0 1.916-2.905 0-2.905s-1.916 2.905 0 2.905zm11.608-.129c1.746 0 1.746-2.647 0-2.647s-1.746 2.647 0 2.647zm11.608-.13c1.576 0 1.576-2.388 0-2.388s-1.576 2.388 0 2.388zm11.608-.161c1.363 0 1.363-2.066 0-2.066-1.362 0-1.362 2.066 0 2.066zm11.608-.194c1.108 0 1.108-1.678 0-1.678-1.107 0-1.107 1.678 0 1.678zm11.608-.226c.809 0 .809-1.226 0-1.226s-.809 1.226 0 1.226zm11.608-.225c.511 0 .511-.775 0-.775s-.511.775 0 .775zm11.608-.259c.171 0 .171-.258 0-.258-.17 0-.17.258 0 .258zM81.512 349.496c.085 0 .085-.129 0-.129s-.085.129 0 .129zm11.608.161c.298 0 .298-.452 0-.452s-.298.452 0 .452zm11.608.194c.553 0 .553-.839 0-.839-.554 0-.554.839 0 .839zm11.608.194c.809 0 .809-1.227 0-1.227s-.809 1.227 0 1.227zm11.608.161c1.022 0 1.022-1.549 0-1.549s-1.022 1.549 0 1.549zm11.608.129c1.192 0 1.192-1.807 0-1.807-1.193 0-1.193 1.807 0 1.807zm11.608.097c1.32 0 1.32-2.001 0-2.001s-1.32 2.001 0 2.001zm11.608.097c1.448 0 1.448-2.195 0-2.195s-1.448 2.195 0 2.195zm11.608.032c1.49 0 1.49-2.259 0-2.259-1.491 0-1.491 2.259 0 2.259zm11.608.032c1.533 0 1.533-2.323 0-2.323s-1.533 2.323 0 2.323zm11.608-.032c1.491 0 1.491-2.259 0-2.259-1.49 0-1.49 2.259 0 2.259zm11.608-.032c1.448 0 1.448-2.195 0-2.195s-1.448 2.195 0 2.195zm11.608-.065c1.363 0 1.363-2.065 0-2.065s-1.363 2.065 0 2.065zm11.608-.129c1.193 0 1.193-1.807 0-1.807-1.192 0-1.192 1.807 0 1.807zm11.608-.129c1.022 0 1.022-1.549 0-1.549s-1.022 1.549 0 1.549zm11.608-.161c.809 0 .809-1.227 0-1.227s-.809 1.227 0 1.227zm11.608-.162c.596 0 .596-.904 0-.904s-.596.904 0 .904zm11.608-.226c.298 0 .298-.452 0-.452s-.298.452 0 .452zm11.608-.161c.086 0 .086-.129 0-.129-.085 0-.085.129 0 .129zm-185.728 11.639c.085 0 .085-.129 0-.129s-.085.129 0 .129zm11.608.161c.298 0 .298-.451 0-.451s-.298.451 0 .451zm11.608.13c.468 0 .468-.711 0-.711-.469 0-.469.711 0 .711zm11.608.129c.639 0 .639-.969 0-.969s-.639.969 0 .969zm11.608.096c.767 0 .767-1.161 0-1.161s-.767 1.161 0 1.161zm11.608.065c.852 0 .852-1.291 0-1.291s-.852 1.291 0 1.291zm11.608.064c.937 0 .937-1.42 0-1.42s-.937 1.42 0 1.42zm11.608 0c.937 0 .937-1.42 0-1.42s-.937 1.42 0 1.42zm11.608 0c.937 0 .937-1.42 0-1.42s-.937 1.42 0 1.42zm11.608-.032c.894 0 .894-1.355 0-1.355s-.894 1.355 0 1.355zm11.608-.097c.767 0 .767-1.161 0-1.161s-.767 1.161 0 1.161zm11.608-.096c.639 0 .639-.969 0-.969s-.639.969 0 .969zm11.608-.097c.511 0 .511-.775 0-.775s-.511.775 0 .775zm11.608-.162c.298 0 .298-.451 0-.451s-.298.451 0 .451zm11.608-.129c.128 0 .128-.193 0-.193-.127 0-.127.193 0 .193zm-139.296 11.575c.043 0 .043-.065 0-.065s-.043.065 0 .065zm11.608.064c.128 0 .128-.193 0-.193s-.128.193 0 .193zm11.608.065c.213 0 .213-.323 0-.323s-.213.323 0 .323zm11.608.065c.298 0 .298-.452 0-.452s-.298.452 0 .452zm11.608.032c.341 0 .341-.517 0-.517s-.341.517 0 .517zm11.608.032c.383 0 .383-.581 0-.581s-.383.581 0 .581zm11.608-.032c.341 0 .341-.517 0-.517s-.341.517 0 .517zm11.608-.032c.298 0 .298-.452 0-.452s-.298.452 0 .452zm11.608-.065c.213 0 .213-.323 0-.323s-.213.323 0 .323zm11.608-.065c.128 0 .128-.193 0-.193s-.128.193 0 .193zm11.608-.064c.043 0 .043-.065 0-.065-.042 0-.042.065 0 .065z" fill="#6FB543"/></svg>