<svg xmlns="http://www.w3.org/2000/svg" width="703" height="589" fill="none"><path d="M337.343 32.337c.064 0 .064.096 0 .096s-.064-.096 0-.096zm17.361.145c.127 0 .127-.193 0-.193s-.128.193 0 .193zm17.36.096c.255 0 .255-.385 0-.385s-.255.385 0 .385zm17.36.096c.383 0 .383-.578 0-.578s-.381.578 0 .578zm17.361.048c.446 0 .446-.674 0-.674s-.446.674 0 .674zm17.361.048c.509 0 .509-.77 0-.77s-.51.77 0 .77zm17.36 0c.51 0 .51-.77 0-.77s-.51.77 0 .77zm17.361-.096c.381 0 .381-.578 0-.578s-.383.578 0 .578zm17.36-.048c.318 0 .318-.481 0-.481s-.318.481 0 .481zm17.36-.096c.191 0 .191-.288 0-.288s-.191.288 0 .288zm17.361-.096c.064 0 .064-.096 0-.096s-.064.096 0 .096zM302.622 49.842c.128 0 .128-.192 0-.192s-.127.192 0 .192zm17.361.193c.382 0 .382-.578 0-.578s-.382.578 0 .578zm17.36.193c.637 0 .637-.963 0-.963s-.636.963 0 .963zm17.361.193c.891 0 .891-1.348 0-1.348s-.892 1.348 0 1.348zm17.36.144c1.083 0 1.083-1.637 0-1.637s-1.083 1.637 0 1.637zm17.36.096c1.211 0 1.211-1.829 0-1.829s-1.21 1.829 0 1.829zm17.361.096c1.338 0 1.338-2.022 0-2.022s-1.337 2.022 0 2.022zm17.361 0c1.337 0 1.337-2.022 0-2.022s-1.338 2.022 0 2.022zm17.36 0c1.337 0 1.337-2.022 0-2.022s-1.337 2.022 0 2.022zm17.361-.048c1.273 0 1.273-1.925 0-1.925s-1.274 1.925 0 1.925zm17.36-.144c1.083 0 1.083-1.637 0-1.637s-1.083 1.637 0 1.637zm17.36-.144c.892 0 .892-1.348 0-1.348s-.892 1.348 0 1.348zm17.361-.145c.701 0 .701-1.059 0-1.059s-.701 1.059 0 1.059zm17.36-.241c.382 0 .382-.578 0-.578s-.382.578 0 .578zm17.361-.193c.127 0 .127-.192 0-.192s-.127.192 0 .192zM267.901 67.154c.064 0 .064-.096 0-.096s-.063.096 0 .096zm17.361.241c.382 0 .382-.578 0-.578s-.382.578 0 .578zm17.36.289c.764 0 .764-1.155 0-1.155s-.764 1.155 0 1.155zm17.361.289c1.146 0 1.146-1.733 0-1.733s-1.147 1.733 0 1.733zm17.36.241c1.465 0 1.465-2.214 0-2.214s-1.465 2.214 0 2.214zm17.361.193c1.719 0 1.719-2.6 0-2.6s-1.72 2.6 0 2.6zm17.36.144c1.911 0 1.911-2.888 0-2.888s-1.911 2.888 0 2.888zm17.36.144c2.102 0 2.102-3.177 0-3.177s-2.102 3.177 0 3.177zm17.361.048c2.165 0 2.165-3.274 0-3.274s-2.166 3.274 0 3.274zm17.361.048c2.229 0 2.229-3.37 0-3.37s-2.23 3.37 0 3.37zm17.36-.048c2.166 0 2.166-3.274 0-3.274s-2.165 3.274 0 3.274zm17.361-.048c2.101 0 2.101-3.177 0-3.177s-2.102 3.177 0 3.177zm17.36-.096c1.974 0 1.974-2.985 0-2.985s-1.975 2.985 0 2.985zm17.36-.193c1.72 0 1.72-2.6 0-2.6s-1.719 2.6 0 2.6zm17.361-.193c1.465 0 1.465-2.214 0-2.214s-1.465 2.214 0 2.214zm17.36-.241c1.147 0 1.147-1.733 0-1.733s-1.146 1.733 0 1.733zm17.361-.241c.828 0 .828-1.252 0-1.252s-.828 1.252 0 1.252zm17.36-.289c.446 0 .446-.674 0-.674s-.446.674 0 .674zm17.361-.241c.127 0 .127-.193 0-.193s-.128.193 0 .193zm-329.849 17.41c.191 0 .191-.289 0-.289s-.191.289 0 .289zm17.36.337c.637 0 .637-.963 0-.963s-.637.963 0 .963zm17.361.385c1.146 0 1.146-1.733 0-1.733s-1.147 1.733 0 1.733zm17.36.289c1.529 0 1.529-2.311 0-2.311s-1.529 2.311 0 2.311zm17.361.289c1.91 0 1.91-2.888 0-2.888s-1.911 2.888 0 2.888zm17.36.289c2.293 0 2.293-3.466 0-3.466s-2.293 3.466 0 3.466zm17.361.193c2.547 0 2.547-3.851 0-3.851s-2.548 3.851 0 3.851zm17.36.193c2.802 0 2.802-4.236 0-4.236s-2.802 4.236 0 4.236zm17.36.096c2.93 0 2.93-4.429 0-4.429s-2.929 4.429 0 4.429zm17.361.096c3.057 0 3.057-4.622 0-4.622s-3.057 4.622 0 4.622zm17.361 0c3.057 0 3.057-4.622 0-4.622s-3.058 4.622 0 4.622zm17.36 0c3.057 0 3.057-4.622 0-4.622s-3.057 4.622 0 4.622zm17.361-.096c2.929 0 2.929-4.429 0-4.429s-2.93 4.429 0 4.429zm17.36-.096c2.802 0 2.802-4.236 0-4.236s-2.802 4.236 0 4.236zm17.36-.193c2.548 0 2.548-3.851 0-3.851s-2.547 3.851 0 3.851zm17.361-.193c2.293 0 2.293-3.466 0-3.466s-2.293 3.466 0 3.466zm17.36-.241c1.975 0 1.975-2.985 0-2.985s-1.974 2.985 0 2.985zm17.361-.289c1.592 0 1.592-2.407 0-2.407s-1.593 2.407 0 2.407zm17.36-.337c1.147 0 1.147-1.733 0-1.733s-1.146 1.733 0 1.733zm17.361-.337c.7 0 .7-1.059 0-1.059s-.701 1.059 0 1.059zm17.36-.337c.255 0 .255-.385 0-.385s-.255.385 0 .385zM233.181 102.02c.254 0 .254-.385 0-.385s-.255.385 0 .385zm17.36.433c.828 0 .828-1.252 0-1.252s-.828 1.252 0 1.252zm17.36.385c1.338 0 1.338-2.022 0-2.022s-1.337 2.022 0 2.022zm17.361.385c1.847 0 1.847-2.792 0-2.792s-1.847 2.792 0 2.792zm17.36.337c2.293 0 2.293-3.466 0-3.466s-2.293 3.466 0 3.466zm17.361.337c2.738 0 2.738-4.14 0-4.14s-2.739 4.14 0 4.14zm17.36.241c3.058 0 3.058-4.621 0-4.621s-3.057 4.621 0 4.621zm17.361.24c3.375 0 3.375-5.103 0-5.103s-3.376 5.103 0 5.103zm17.36.193c3.631 0 3.631-5.488 0-5.488s-3.63 5.488 0 5.488zm17.36.096c3.758 0 3.758-5.68 0-5.68s-3.757 5.68 0 5.68zm17.361.097c3.885 0 3.885-5.873 0-5.873s-3.885 5.873 0 5.873zm17.361.048c3.948 0 3.948-5.97 0-5.97s-3.949 5.97 0 5.97zm17.36-.048c3.885 0 3.885-5.873 0-5.873s-3.885 5.873 0 5.873zm17.361-.049c3.821 0 3.821-5.776 0-5.776s-3.822 5.776 0 5.776zm17.36-.144c3.631 0 3.631-5.488 0-5.488s-3.631 5.488 0 5.488zm17.36-.193c3.376 0 3.376-5.103 0-5.103s-3.375 5.103 0 5.103zm17.361-.192c3.121 0 3.121-4.718 0-4.718s-3.121 4.718 0 4.718zm17.36-.289c2.739 0 2.739-4.14 0-4.14s-2.738 4.14 0 4.14zm17.361-.289c2.356 0 2.356-3.562 0-3.562s-2.357 3.562 0 3.562zm17.36-.385c1.847 0 1.847-2.792 0-2.792s-1.847 2.792 0 2.792zm17.361-.337c1.401 0 1.401-2.118 0-2.118s-1.401 2.118 0 2.118zm17.36-.433c.828 0 .828-1.252 0-1.252s-.828 1.252 0 1.252zm17.36-.385c.319 0 .319-.482 0-.482s-.318.482 0 .482zM215.82 119.38c.255 0 .255-.385 0-.385s-.255.385 0 .385zm17.361.434c.827 0 .827-1.252 0-1.252s-.829 1.252 0 1.252zm17.36.481c1.465 0 1.465-2.215 0-2.215s-1.465 2.215 0 2.215zm17.36.433c2.039 0 2.039-3.081 0-3.081s-2.038 3.081 0 3.081zm17.361.385c2.548 0 2.548-3.851 0-3.851s-2.548 3.851 0 3.851zm17.36.337c2.994 0 2.994-4.525 0-4.525s-2.993 4.525 0 4.525zm17.361.337c3.439 0 3.439-5.199 0-5.199s-3.44 5.199 0 5.199zm17.36.289c3.822 0 3.822-5.777 0-5.777s-3.821 5.777 0 5.777zm17.361.241c4.14 0 4.14-6.258 0-6.258s-4.14 6.258 0 6.258zm17.36.192c4.395 0 4.395-6.643 0-6.643s-4.395 6.643 0 6.643zm17.36.145c4.586 0 4.586-6.932 0-6.932s-4.585 6.932 0 6.932zm17.361.096c4.713 0 4.713-7.125 0-7.125s-4.713 7.125 0 7.125zm17.361.048c4.777 0 4.777-7.221 0-7.221s-4.777 7.221 0 7.221zm17.36-.048c4.713 0 4.713-7.125 0-7.125s-4.713 7.125 0 7.125zm17.361-.048c4.649 0 4.649-7.029 0-7.029s-4.65 7.029 0 7.029zm17.36-.145c4.458 0 4.458-6.739 0-6.739s-4.458 6.739 0 6.739zm17.36-.192c4.204 0 4.204-6.355 0-6.355s-4.203 6.355 0 6.355zm17.361-.241c3.885 0 3.885-5.873 0-5.873s-3.885 5.873 0 5.873zm17.36-.289c3.503 0 3.503-5.295 0-5.295s-3.503 5.295 0 5.295zm17.361-.337c3.057 0 3.057-4.621 0-4.621s-3.057 4.621 0 4.621zm17.36-.337c2.612 0 2.612-3.947 0-3.947s-2.611 3.947 0 3.947zm17.361-.433c2.038 0 2.038-3.081 0-3.081s-2.038 3.081 0 3.081zm17.36-.385c1.529 0 1.529-2.311 0-2.311s-1.529 2.311 0 2.311zm17.36-.481c.892 0 .892-1.348 0-1.348s-.891 1.348 0 1.348zm17.361-.434c.318 0 .318-.481 0-.481s-.319.481 0 .481zM198.46 136.693c.191 0 .191-.289 0-.289s-.192.289 0 .289zm17.36.481c.828 0 .828-1.252 0-1.252s-.828 1.252 0 1.252zm17.361.481c1.464 0 1.464-2.214 0-2.214s-1.466 2.214 0 2.214zm17.36.482c2.102 0 2.102-3.178 0-3.178s-2.102 3.178 0 3.178zm17.36.433c2.675 0 2.675-4.044 0-4.044s-2.674 4.044 0 4.044zm17.361.433c3.248 0 3.248-4.91 0-4.91s-3.248 4.91 0 4.91zm17.36.385c3.758 0 3.758-5.68 0-5.68s-3.757 5.68 0 5.68zm17.361.337c4.203 0 4.203-6.354 0-6.354s-4.204 6.354 0 6.354zm17.36.289c4.586 0 4.586-6.932 0-6.932s-4.585 6.932 0 6.932zm17.361.289c4.968 0 4.968-7.51 0-7.51s-4.969 7.51 0 7.51zm17.36.193c5.223 0 5.223-7.895 0-7.895s-5.223 7.895 0 7.895zm17.36.144c5.415 0 5.415-8.184 0-8.184s-5.413 8.184 0 8.184zm17.361.096c5.541 0 5.541-8.376 0-8.376s-5.541 8.376 0 8.376zm17.361.049c5.604 0 5.604-8.473 0-8.473s-5.605 8.473 0 8.473zm17.36-.049c5.541 0 5.541-8.376 0-8.376s-5.541 8.376 0 8.376zm17.361-.048c5.477 0 5.477-8.28 0-8.28s-5.478 8.28 0 8.28zm17.36-.192c5.223 0 5.223-7.895 0-7.895s-5.223 7.895 0 7.895zm17.36-.193c4.968 0 4.968-7.51 0-7.51s-4.967 7.51 0 7.51zm17.361-.241c4.65 0 4.65-7.028 0-7.028s-4.65 7.028 0 7.028zm17.36-.337c4.204 0 4.204-6.354 0-6.354s-4.203 6.354 0 6.354zm17.361-.337c3.757 0 3.757-5.68 0-5.68s-3.758 5.68 0 5.68zm17.36-.385c3.249 0 3.249-4.91 0-4.91s-3.248 4.91 0 4.91zm17.361-.385c2.739 0 2.739-4.14 0-4.14s-2.739 4.14 0 4.14zm17.36-.481c2.102 0 2.102-3.178 0-3.178s-2.102 3.178 0 3.178zm17.36-.434c1.529 0 1.529-2.31 0-2.31s-1.528 2.31 0 2.31zm17.361-.529c.828 0 .828-1.252 0-1.252s-.828 1.252 0 1.252zm17.361-.434c.254 0 .254-.384 0-.384s-.255.384 0 .384zm-468.733 17.217c.064 0 .064-.097 0-.097s-.064.097 0 .097zm17.361.433c.636 0 .636-.963 0-.963s-.638.963 0 .963zm17.36.529c1.337 0 1.337-2.021 0-2.021s-1.337 2.021 0 2.021zm17.361.53c2.037 0 2.037-3.081 0-3.081s-2.039 3.081 0 3.081zm17.36.481c2.675 0 2.675-4.043 0-4.043s-2.675 4.043 0 4.043zm17.36.482c3.313 0 3.313-5.007 0-5.007s-3.312 5.007 0 5.007zm17.361.433c3.885 0 3.885-5.873 0-5.873s-3.885 5.873 0 5.873zm17.36.385c4.395 0 4.395-6.643 0-6.643s-4.394 6.643 0 6.643zm17.361.386c4.904 0 4.904-7.414 0-7.414s-4.904 7.414 0 7.414zm17.36.336c5.351 0 5.351-8.087 0-8.087s-5.35 8.087 0 8.087zm17.361.289c5.732 0 5.732-8.665 0-8.665s-5.732 8.665 0 8.665zm17.36.241c6.051 0 6.051-9.147 0-9.147s-6.051 9.147 0 9.147zm17.36.144c6.242 0 6.242-9.435 0-9.435s-6.241 9.435 0 9.435zm17.361.096c6.369 0 6.369-9.627 0-9.627s-6.369 9.627 0 9.627zm17.361.049c6.432 0 6.432-9.724 0-9.724s-6.433 9.724 0 9.724zm17.36 0c6.433 0 6.433-9.724 0-9.724s-6.433 9.724 0 9.724zm17.361-.097c6.305 0 6.305-9.532 0-9.532s-6.306 9.532 0 9.532zm17.36-.192c6.051 0 6.051-9.147 0-9.147s-6.051 9.147 0 9.147zm17.36-.241c5.733 0 5.733-8.665 0-8.665s-5.732 8.665 0 8.665zm17.361-.289c5.35 0 5.35-8.087 0-8.087s-5.35 8.087 0 8.087zm17.36-.289c4.968 0 4.968-7.51 0-7.51s-4.968 7.51 0 7.51zm17.361-.384c4.458 0 4.458-6.74 0-6.74s-4.459 6.74 0 6.74zm17.36-.434c3.885 0 3.885-5.873 0-5.873s-3.885 5.873 0 5.873zm17.361-.433c3.312 0 3.312-5.007 0-5.007s-3.312 5.007 0 5.007zm17.36-.433c2.739 0 2.739-4.14 0-4.14s-2.739 4.14 0 4.14zm17.36-.482c2.102 0 2.102-3.177 0-3.177s-2.101 3.177 0 3.177zm17.361-.529c1.401 0 1.401-2.118 0-2.118s-1.401 2.118 0 2.118zm17.361-.53c.7 0 .7-1.059 0-1.059s-.701 1.059 0 1.059zm17.36-.433c.127 0 .127-.193 0-.193s-.127.193 0 .193zm-486.093 17.553c.382 0 .382-.578 0-.578s-.382.578 0 .578zm17.361.578c1.146 0 1.146-1.734 0-1.734s-1.147 1.734 0 1.734zm17.36.529c1.847 0 1.847-2.792 0-2.792s-1.847 2.792 0 2.792zm17.361.53c2.547 0 2.547-3.852 0-3.852s-2.548 3.852 0 3.852zm17.36.529c3.248 0 3.248-4.91 0-4.91s-3.248 4.91 0 4.91zm17.36.481c3.885 0 3.885-5.873 0-5.873s-3.885 5.873 0 5.873zm17.361.482c4.522 0 4.522-6.836 0-6.836s-4.522 6.836 0 6.836zm17.36.433c5.096 0 5.096-7.702 0-7.702s-5.095 7.702 0 7.702zm17.361.385c5.604 0 5.604-8.472 0-8.472s-5.605 8.472 0 8.472zm17.36.337c6.051 0 6.051-9.146 0-9.146s-6.051 9.146 0 9.146zm17.361.337c6.496 0 6.496-9.82 0-9.82s-6.497 9.82 0 9.82zm17.36.241c6.815 0 6.815-10.302 0-10.302s-6.815 10.302 0 10.302zm17.36.193c7.07 0 7.07-10.687 0-10.687s-7.069 10.687 0 10.687zm17.361.144c7.261 0 7.261-10.976 0-10.976s-7.261 10.976 0 10.976zm17.361.048c7.324 0 7.324-11.072 0-11.072s-7.325 11.072 0 11.072zm17.36-.048c7.261 0 7.261-10.976 0-10.976s-7.261 10.976 0 10.976zm17.361-.144c7.069 0 7.069-10.687 0-10.687s-7.07 10.687 0 10.687zm17.36-.145c6.879 0 6.879-10.398 0-10.398s-6.879 10.398 0 10.398zm17.36-.289c6.497 0 6.497-9.82 0-9.82s-6.496 9.82 0 9.82zm17.361-.289c6.114 0 6.114-9.243 0-9.243s-6.115 9.243 0 9.243zm17.36-.385c5.605 0 5.605-8.472 0-8.472s-5.604 8.472 0 8.472zm17.361-.385c5.095 0 5.095-7.702 0-7.702s-5.096 7.702 0 7.702zm17.36-.433c4.522 0 4.522-6.836 0-6.836s-4.522 6.836 0 6.836zm17.361-.434c3.949 0 3.949-5.969 0-5.969s-3.949 5.969 0 5.969zm17.36-.529c3.248 0 3.248-4.91 0-4.91s-3.248 4.91 0 4.91zm17.36-.481c2.612 0 2.612-3.948 0-3.948s-2.611 3.948 0 3.948zm17.361-.53c1.911 0 1.911-2.888 0-2.888s-1.911 2.888 0 2.888zm17.361-.577c1.146 0 1.146-1.734 0-1.734s-1.147 1.734 0 1.734zm17.36-.53c.446 0 .446-.674 0-.674s-.446.674 0 .674zm-503.454 17.12c.128 0 .128-.193 0-.193s-.127.193 0 .193zm17.361.481c.764 0 .764-1.155 0-1.155s-.764 1.155 0 1.155zm17.361.578c1.528 0 1.528-2.311 0-2.311s-1.529 2.311 0 2.311zm17.36.577c2.293 0 2.293-3.466 0-3.466s-2.293 3.466 0 3.466zm17.361.53c2.993 0 2.993-4.525 0-4.525s-2.994 4.525 0 4.525zm17.36.578c3.758 0 3.758-5.681 0-5.681s-3.758 5.681 0 5.681zm17.36.481c4.395 0 4.395-6.643 0-6.643s-4.395 6.643 0 6.643zm17.361.53c5.095 0 5.095-7.703 0-7.703s-5.095 7.703 0 7.703zm17.36.433c5.669 0 5.669-8.569 0-8.569s-5.668 8.569 0 8.569zm17.361.433c6.241 0 6.241-9.435 0-9.435s-6.242 9.435 0 9.435zm17.36.385c6.752 0 6.752-10.205 0-10.205s-6.751 10.205 0 10.205zm17.361.386c7.26 0 7.26-10.977 0-10.977s-7.261 10.977 0 10.977zm17.36.288c7.643 0 7.643-11.554 0-11.554s-7.643 11.554 0 11.554zm17.36.193c7.899 0 7.899-11.939 0-11.939s-7.897 11.939 0 11.939zm17.361.144c8.089 0 8.089-12.227 0-12.227s-8.088 12.227 0 12.227zm17.361.048c8.152 0 8.152-12.324 0-12.324s-8.153 12.324 0 12.324zm17.36-.048c8.089 0 8.089-12.227 0-12.227s-8.089 12.227 0 12.227zm17.361-.144c7.897 0 7.897-11.939 0-11.939s-7.898 11.939 0 11.939zm17.36-.193c7.643 0 7.643-11.554 0-11.554s-7.643 11.554 0 11.554zm17.36-.288c7.261 0 7.261-10.977 0-10.977s-7.26 10.977 0 10.977zm17.361-.337c6.815 0 6.815-10.303 0-10.303s-6.815 10.303 0 10.303zm17.36-.386c6.306 0 6.306-9.531 0-9.531s-6.305 9.531 0 9.531zm17.361-.433c5.732 0 5.732-8.665 0-8.665s-5.733 8.665 0 8.665zm17.36-.481c5.096 0 5.096-7.703 0-7.703s-5.095 7.703 0 7.703zm17.361-.482c4.458 0 4.458-6.739 0-6.739s-4.459 6.739 0 6.739zm17.36-.481c3.822 0 3.822-5.777 0-5.777s-3.821 5.777 0 5.777zm17.36-.578c3.058 0 3.058-4.621 0-4.621s-3.057 4.621 0 4.621zm17.361-.53c2.357 0 2.357-3.562 0-3.562s-2.356 3.562 0 3.562zm17.361-.577c1.592 0 1.592-2.407 0-2.407s-1.593 2.407 0 2.407zm17.36-.578c.828 0 .828-1.251 0-1.251s-.828 1.251 0 1.251zm17.361-.529c.127 0 .127-.193 0-.193s-.128.193 0 .193zm-520.815 17.553c.383 0 .383-.578 0-.578s-.382.578 0 .578zm17.361.578c1.147 0 1.147-1.734 0-1.734s-1.146 1.734 0 1.734zm17.361.577c1.91 0 1.91-2.888 0-2.888s-1.911 2.888 0 2.888zm17.36.626c2.738 0 2.738-4.14 0-4.14s-2.739 4.14 0 4.14zm17.361.529c3.439 0 3.439-5.199 0-5.199s-3.44 5.199 0 5.199zm17.36.578c4.203 0 4.203-6.354 0-6.354s-4.204 6.354 0 6.354zm17.36.53c4.905 0 4.905-7.414 0-7.414s-4.904 7.414 0 7.414zm17.361.529c5.605 0 5.605-8.472 0-8.472s-5.605 8.472 0 8.472zm17.36.481c6.242 0 6.242-9.435 0-9.435s-6.241 9.435 0 9.435zm17.361.482c6.879 0 6.879-10.398 0-10.398s-6.879 10.398 0 10.398zm17.36.433c7.452 0 7.452-11.265 0-11.265s-7.452 11.265 0 11.265zm17.361.385c7.961 0 7.961-12.035 0-12.035s-7.962 12.035 0 12.035zm17.36.337c8.407 0 8.407-12.709 0-12.709s-8.407 12.709 0 12.709zm17.36.241c8.726 0 8.726-13.19 0-13.19s-8.725 13.19 0 13.19zm17.361.145c8.917 0 8.917-13.48 0-13.48s-8.917 13.48 0 13.48zm17.361.048c8.98 0 8.98-13.576 0-13.576s-8.981 13.576 0 13.576zm17.36-.048c8.917 0 8.917-13.48 0-13.48s-8.917 13.48 0 13.48zm17.361-.145c8.725 0 8.725-13.19 0-13.19s-8.726 13.19 0 13.19zm17.36-.241c8.407 0 8.407-12.709 0-12.709s-8.407 12.709 0 12.709zm17.36-.288c8.026 0 8.026-12.132 0-12.132s-8.025 12.132 0 12.132zm17.361-.386c7.515 0 7.515-11.361 0-11.361s-7.516 11.361 0 11.361zm17.36-.433c6.943 0 6.943-10.494 0-10.494s-6.942 10.494 0 10.494zm17.361-.481c6.305 0 6.305-9.532 0-9.532s-6.305 9.532 0 9.532zm17.36-.481c5.669 0 5.669-8.57 0-8.57s-5.668 8.57 0 8.57zm17.361-.53c4.968 0 4.968-7.51 0-7.51s-4.968 7.51 0 7.51zm17.36-.53c4.268 0 4.268-6.451 0-6.451s-4.267 6.451 0 6.451zm17.36-.577c3.504 0 3.504-5.296 0-5.296s-3.503 5.296 0 5.296zm17.361-.578c2.739 0 2.739-4.14 0-4.14s-2.739 4.14 0 4.14zm17.361-.578c1.974 0 1.974-2.984 0-2.984s-1.975 2.984 0 2.984zm17.36-.578c1.21 0 1.21-1.829 0-1.829s-1.21 1.829 0 1.829zm17.361-.577c.445 0 .445-.674 0-.674s-.446.674 0 .674zm-538.175 17.071c.064 0 .064-.096 0-.096s-.063.096 0 .096zm17.36.434c.637 0 .637-.963 0-.963s-.636.963 0 .963zm17.361.626c1.465 0 1.465-2.215 0-2.215s-1.465 2.215 0 2.215zm17.361.625c2.292 0 2.292-3.466 0-3.466s-2.293 3.466 0 3.466zm17.36.578c3.057 0 3.057-4.621 0-4.621s-3.057 4.621 0 4.621zm17.361.578c3.821 0 3.821-5.777 0-5.777s-3.822 5.777 0 5.777zm17.36.578c4.586 0 4.586-6.933 0-6.933s-4.586 6.933 0 6.933zm17.36.577c5.35 0 5.35-8.088 0-8.088s-5.35 8.088 0 8.088zm17.361.53c6.051 0 6.051-9.147 0-9.147s-6.051 9.147 0 9.147zm17.36.529c6.751 0 6.751-10.205 0-10.205s-6.751 10.205 0 10.205zm17.361.53c7.451 0 7.451-11.265 0-11.265s-7.452 11.265 0 11.265zm17.36.481c8.089 0 8.089-12.227 0-12.227s-8.089 12.227 0 12.227zm17.361.433c8.662 0 8.662-13.094 0-13.094s-8.663 13.094 0 13.094zm17.36.386c9.172 0 9.172-13.865 0-13.865s-9.172 13.865 0 13.865zm17.36.288c9.555 0 9.555-14.442 0-14.442s-9.553 14.442 0 14.442zm17.361.193c9.809 0 9.809-14.827 0-14.827s-9.809 14.827 0 14.827zm17.361.048c9.872 0 9.872-14.923 0-14.923s-9.873 14.923 0 14.923zm17.36-.048c9.809 0 9.809-14.827 0-14.827s-9.808 14.827 0 14.827zm17.361-.193c9.553 0 9.553-14.442 0-14.442s-9.554 14.442 0 14.442zm17.36-.288c9.172 0 9.172-13.865 0-13.865s-9.172 13.865 0 13.865zm17.36-.337c8.726 0 8.726-13.191 0-13.191s-8.725 13.191 0 13.191zm17.361-.434c8.152 0 8.152-12.324 0-12.324s-8.153 12.324 0 12.324zm17.36-.481c7.516 0 7.516-11.361 0-11.361s-7.516 11.361 0 11.361zm17.361-.53c6.815 0 6.815-10.302 0-10.302s-6.815 10.302 0 10.302zm17.36-.529c6.115 0 6.115-9.243 0-9.243s-6.114 9.243 0 9.243zm17.361-.53c5.413 0 5.413-8.184 0-8.184s-5.414 8.184 0 8.184zm17.36-.578c4.65 0 4.65-7.028 0-7.028s-4.649 7.028 0 7.028zm17.36-.577c3.886 0 3.886-5.873 0-5.873s-3.884 5.873 0 5.873zm17.361-.578c3.121 0 3.121-4.718 0-4.718s-3.121 4.718 0 4.718zm17.361-.577c2.356 0 2.356-3.563 0-3.563s-2.357 3.563 0 3.563zm17.36-.626c1.529 0 1.529-2.311 0-2.311s-1.528 2.311 0 2.311zm17.361-.626c.7 0 .7-1.059 0-1.059s-.701 1.059 0 1.059zm17.36-.482c.064 0 .064-.096 0-.096s-.063.096 0 .096zm-555.535 17.409c.128 0 .128-.192 0-.192s-.127.192 0 .192zm17.36.578c.892 0 .892-1.348 0-1.348s-.891 1.348 0 1.348zm17.361.626c1.72 0 1.72-2.6 0-2.6s-1.72 2.6 0 2.6zm17.361.626c2.547 0 2.547-3.852 0-3.852s-2.548 3.852 0 3.852zm17.36.625c3.376 0 3.376-5.103 0-5.103s-3.376 5.103 0 5.103zm17.361.578c4.14 0 4.14-6.258 0-6.258s-4.14 6.258 0 6.258zm17.36.626c4.968 0 4.968-7.51 0-7.51s-4.968 7.51 0 7.51zm17.36.577c5.733 0 5.733-8.665 0-8.665s-5.732 8.665 0 8.665zm17.361.578c6.497 0 6.497-9.821 0-9.821s-6.497 9.821 0 9.821zm17.36.578c7.261 0 7.261-10.976 0-10.976s-7.261 10.976 0 10.976zm17.361.529c7.961 0 7.961-12.035 0-12.035s-7.962 12.035 0 12.035zm17.36.53c8.662 0 8.662-13.094 0-13.094s-8.662 13.094 0 13.094zm17.361.481c9.299 0 9.299-14.057 0-14.057s-9.299 14.057 0 14.057zm17.36.433c9.872 0 9.872-14.923 0-14.923s-9.872 14.923 0 14.923zm17.36.337c10.319 0 10.319-15.597 0-15.597s-10.317 15.597 0 15.597zm17.361.241c10.637 0 10.637-16.079 0-16.079s-10.636 16.079 0 16.079zm17.361.096c10.764 0 10.764-16.271 0-16.271s-10.764 16.271 0 16.271zm17.36-.096c10.636 0 10.636-16.079 0-16.079s-10.637 16.079 0 16.079zm17.361-.241c10.317 0 10.317-15.597 0-15.597s-10.319 15.597 0 15.597zm17.36-.337c9.872 0 9.872-14.923 0-14.923s-9.872 14.923 0 14.923zm17.36-.385c9.363 0 9.363-14.153 0-14.153s-9.362 14.153 0 14.153zm17.361-.481c8.725 0 8.725-13.19 0-13.19s-8.726 13.19 0 13.19zm17.36-.529c8.026 0 8.026-12.132 0-12.132s-8.025 12.132 0 12.132zm17.361-.53c7.324 0 7.324-11.072 0-11.072s-7.325 11.072 0 11.072zm17.36-.578c6.561 0 6.561-9.916 0-9.916s-6.56 9.916 0 9.916zm17.361-.577c5.796 0 5.796-8.762 0-8.762s-5.796 8.762 0 8.762zm17.36-.578c5.032 0 5.032-7.606 0-7.606s-5.032 7.606 0 7.606zm17.36-.626c4.205 0 4.205-6.354 0-6.354s-4.203 6.354 0 6.354zm17.361-.577c3.44 0 3.44-5.2 0-5.2s-3.439 5.2 0 5.2zm17.361-.626c2.611 0 2.611-3.948 0-3.948s-2.612 3.948 0 3.948zm17.36-.626c1.783 0 1.783-2.696 0-2.696s-1.783 2.696 0 2.696zm17.361-.626c.955 0 .955-1.444 0-1.444s-.956 1.444 0 1.444zm17.36-.578c.191 0 .191-.289 0-.289s-.191.289 0 .289zm-555.535 17.409c.255 0 .255-.385 0-.385s-.255.385 0 .385zm17.36.626c1.083 0 1.083-1.637 0-1.637s-1.082 1.637 0 1.637zm17.361.626c1.911 0 1.911-2.889 0-2.889s-1.911 2.889 0 2.889zm17.361.673c2.802 0 2.802-4.236 0-4.236s-2.803 4.236 0 4.236zm17.36.626c3.63 0 3.63-5.488 0-5.488s-3.63 5.488 0 5.488zm17.361.578c4.394 0 4.394-6.643 0-6.643s-4.395 6.643 0 6.643zm17.36.626c5.223 0 5.223-7.895 0-7.895s-5.223 7.895 0 7.895zm17.36.626c6.051 0 6.051-9.147 0-9.147s-6.05 9.147 0 9.147zm17.361.577c6.815 0 6.815-10.302 0-10.302s-6.815 10.302 0 10.302zm17.36.626c7.643 0 7.643-11.554 0-11.554s-7.643 11.554 0 11.554zm17.361.578c8.407 0 8.407-12.709 0-12.709s-8.407 12.709 0 12.709zm17.36.577c9.172 0 9.172-13.864 0-13.864s-9.171 13.864 0 13.864zm17.361.53c9.872 0 9.872-14.923 0-14.923s-9.873 14.923 0 14.923zm17.36.481c10.51 0 10.51-15.886 0-15.886s-10.509 15.886 0 15.886zm17.36.434c11.083 0 11.083-16.753 0-16.753s-11.082 16.753 0 16.753zm17.361.24c11.401 0 11.401-17.234 0-17.234s-11.401 17.234 0 17.234zm17.361.145c11.591 0 11.591-17.523 0-17.523s-11.592 17.523 0 17.523zm17.36-.096c11.465 0 11.465-17.331 0-17.331s-11.464 17.331 0 17.331zm17.361-.289c11.082 0 11.082-16.753 0-16.753s-11.083 16.753 0 16.753zm17.36-.385c10.573 0 10.573-15.983 0-15.983s-10.573 15.983 0 15.983zm17.36-.482c9.936 0 9.936-15.019 0-15.019s-9.936 15.019 0 15.019zm17.361-.578c9.171 0 9.171-13.864 0-13.864s-9.172 13.864 0 13.864zm17.36-.529c8.471 0 8.471-12.805 0-12.805s-8.471 12.805 0 12.805zm17.361-.578c7.707 0 7.707-11.65 0-11.65s-7.707 11.65 0 11.65zm17.36-.625c6.879 0 6.879-10.399 0-10.399s-6.878 10.399 0 10.399zm17.361-.578c6.114 0 6.114-9.243 0-9.243s-6.115 9.243 0 9.243zm17.36-.626c5.287 0 5.287-7.991 0-7.991s-5.286 7.991 0 7.991zm17.36-.626c4.459 0 4.459-6.739 0-6.739s-4.458 6.739 0 6.739zm17.361-.578c3.694 0 3.694-5.584 0-5.584s-3.694 5.584 0 5.584zm17.361-.626c2.865 0 2.865-4.332 0-4.332s-2.866 4.332 0 4.332zm17.36-.674c1.975 0 1.975-2.984 0-2.984s-1.974 2.984 0 2.984zm17.361-.625c1.146 0 1.146-1.733 0-1.733s-1.147 1.733 0 1.733zm17.36-.626c.318 0 .318-.481 0-.481s-.319.481 0 .481zm-555.535 17.409c.382 0 .382-.578 0-.578s-.382.578 0 .578zm17.36.626c1.211 0 1.211-1.83 0-1.83s-1.21 1.83 0 1.83zm17.361.673c2.102 0 2.102-3.177 0-3.177s-2.102 3.177 0 3.177zm17.361.626c2.929 0 2.929-4.429 0-4.429s-2.931 4.429 0 4.429zm17.36.626c3.758 0 3.758-5.681 0-5.681s-3.758 5.681 0 5.681zm17.361.626c4.585 0 4.585-6.933 0-6.933s-4.586 6.933 0 6.933zm17.36.626c5.413 0 5.413-8.184 0-8.184s-5.414 8.184 0 8.184zm17.36.626c6.242 0 6.242-9.436 0-9.436s-6.241 9.436 0 9.436zm17.361.625c7.069 0 7.069-10.687 0-10.687s-7.07 10.687 0 10.687zm17.36.626c7.898 0 7.898-11.939 0-11.939s-7.897 11.939 0 11.939zm17.361.626c8.725 0 8.725-13.191 0-13.191s-8.726 13.191 0 13.191zm17.36.626c9.554 0 9.554-14.442 0-14.442s-9.554 14.442 0 14.442zm17.361.578c10.318 0 10.318-15.598 0-15.598s-10.318 15.598 0 15.598zm17.36.577c11.082 0 11.082-16.753 0-16.753s-11.082 16.753 0 16.753zm17.36.481c11.72 0 11.72-17.715 0-17.715s-11.719 17.715 0 17.715zm17.361.386c12.229 0 12.229-18.486 0-18.486s-12.229 18.486 0 18.486zm17.361.144c12.419 0 12.419-18.775 0-18.775s-12.421 18.775 0 18.775zm17.36-.144c12.229 0 12.229-18.486 0-18.486s-12.229 18.486 0 18.486zm17.361-.337c11.783 0 11.783-17.812 0-17.812s-11.783 17.812 0 17.812zm17.36-.53c11.082 0 11.082-16.753 0-16.753s-11.082 16.753 0 16.753zm17.36-.529c10.382 0 10.382-15.694 0-15.694s-10.382 15.694 0 15.694zm17.361-.578c9.617 0 9.617-14.538 0-14.538s-9.617 14.538 0 14.538zm17.36-.626c8.79 0 8.79-13.287 0-13.287s-8.789 13.287 0 13.287zm17.361-.626c7.962 0 7.962-12.035 0-12.035s-7.962 12.035 0 12.035zm17.36-.626c7.133 0 7.133-10.783 0-10.783s-7.133 10.783 0 10.783zm17.361-.626c6.305 0 6.305-9.531 0-9.531s-6.306 9.531 0 9.531zm17.36-.625c5.478 0 5.478-8.28 0-8.28s-5.478 8.28 0 8.28zm17.36-.626c4.65 0 4.65-7.028 0-7.028s-4.649 7.028 0 7.028zm17.361-.626c3.822 0 3.822-5.776 0-5.776s-3.822 5.776 0 5.776zm17.361-.626c2.993 0 2.993-4.525 0-4.525s-2.994 4.525 0 4.525zm17.36-.626c2.166 0 2.166-3.273 0-3.273s-2.166 3.273 0 3.273zm17.361-.674c1.273 0 1.273-1.925 0-1.925s-1.274 1.925 0 1.925zm17.36-.626c.446 0 .446-.673 0-.673s-.446.673 0 .673zm-555.535 17.361c.446 0 .446-.674 0-.674s-.446.674 0 .674zm17.36.674c1.338 0 1.338-2.022 0-2.022s-1.337 2.022 0 2.022zm17.361.626c2.165 0 2.165-3.274 0-3.274s-2.166 3.274 0 3.274zm17.361.674c3.057 0 3.057-4.622 0-4.622s-3.058 4.622 0 4.622zm17.36.626c3.885 0 3.885-5.873 0-5.873s-3.885 5.873 0 5.873zm17.361.626c4.712 0 4.712-7.125 0-7.125s-4.714 7.125 0 7.125zm17.36.625c5.541 0 5.541-8.376 0-8.376s-5.541 8.376 0 8.376zm17.36.626c6.37 0 6.37-9.628 0-9.628s-6.369 9.628 0 9.628zm17.361.674c7.261 0 7.261-10.976 0-10.976s-7.261 10.976 0 10.976zm17.36.626c8.089 0 8.089-12.228 0-12.228s-8.088 12.228 0 12.228zm17.361.626c8.917 0 8.917-13.479 0-13.479s-8.917 13.479 0 13.479zm17.36.674c9.809 0 9.809-14.827 0-14.827s-9.808 14.827 0 14.827zm17.361.625c10.636 0 10.636-16.078 0-16.078s-10.637 16.078 0 16.078zm17.36.578c11.401 0 11.401-17.234 0-17.234s-11.401 17.234 0 17.234zm17.36.626c12.229 0 12.229-18.486 0-18.486s-12.228 18.486 0 18.486zm17.361.53c12.93 0 12.93-19.545 0-19.545s-12.929 19.545 0 19.545zm17.361.24c13.247 0 13.247-20.026 0-20.026s-13.248 20.026 0 20.026zm17.36-.192c12.993 0 12.993-19.641 0-19.641s-12.993 19.641 0 19.641zm17.361-.53c12.292 0 12.292-18.582 0-18.582s-12.293 18.582 0 18.582zm17.36-.626c11.465 0 11.465-17.33 0-17.33s-11.465 17.33 0 17.33zm17.36-.577c10.701 0 10.701-16.175 0-16.175s-10.7 16.175 0 16.175zm17.361-.626c9.872 0 9.872-14.924 0-14.924s-9.872 14.924 0 14.924zm17.36-.674c8.981 0 8.981-13.576 0-13.576s-8.98 13.576 0 13.576zm17.361-.626c8.152 0 8.152-12.324 0-12.324s-8.153 12.324 0 12.324zm17.36-.626c7.325 0 7.325-11.072 0-11.072s-7.324 11.072 0 11.072zm17.361-.674c6.433 0 6.433-9.724 0-9.724s-6.433 9.724 0 9.724zm17.36-.626c5.605 0 5.605-8.472 0-8.472s-5.605 8.472 0 8.472zm17.36-.625c4.777 0 4.777-7.221 0-7.221s-4.776 7.221 0 7.221zm17.361-.626c3.949 0 3.949-5.97 0-5.97s-3.949 5.97 0 5.97zm17.361-.626c3.12 0 3.12-4.718 0-4.718s-3.121 4.718 0 4.718zm17.36-.674c2.229 0 2.229-3.37 0-3.37s-2.229 3.37 0 3.37zm17.361-.626c1.401 0 1.401-2.118 0-2.118s-1.402 2.118 0 2.118zm17.36-.673c.509 0 .509-.771 0-.771s-.509.771 0 .771zm-555.535 17.36c.509 0 .509-.771 0-.771s-.509.771 0 .771zm17.36.626c1.338 0 1.338-2.022 0-2.022s-1.337 2.022 0 2.022zm17.361.674c2.229 0 2.229-3.37 0-3.37s-2.229 3.37 0 3.37zm17.361.626c3.057 0 3.057-4.622 0-4.622s-3.058 4.622 0 4.622zm17.36.674c3.949 0 3.949-5.97 0-5.97s-3.949 5.97 0 5.97zm17.361.625c4.776 0 4.776-7.221 0-7.221s-4.777 7.221 0 7.221zm17.36.626c5.604 0 5.604-8.473 0-8.473s-5.605 8.473 0 8.473zm17.36.626c6.433 0 6.433-9.725 0-9.725s-6.433 9.725 0 9.725zm17.361.674c7.324 0 7.324-11.072 0-11.072s-7.325 11.072 0 11.072zm17.36.626c8.153 0 8.153-12.324 0-12.324s-8.152 12.324 0 12.324zm17.361.626c8.98 0 8.98-13.576 0-13.576s-8.981 13.576 0 13.576zm17.36.673c9.872 0 9.872-14.923 0-14.923s-9.872 14.923 0 14.923zm17.361.674c10.763 0 10.763-16.271 0-16.271s-10.764 16.271 0 16.271zm17.36.626c11.592 0 11.592-17.523 0-17.523s-11.592 17.523 0 17.523zm17.36.626c12.42 0 12.42-18.775 0-18.775s-12.419 18.775 0 18.775zm17.361.626c13.248 0 13.248-20.026 0-20.026s-13.248 20.026 0 20.026zm17.361.481c13.884 0 13.884-20.989 0-20.989s-13.885 20.989 0 20.989zm17.36-.433c13.312 0 13.312-20.123 0-20.123s-13.311 20.123 0 20.123zm17.361-.626c12.483 0 12.483-18.871 0-18.871s-12.484 18.871 0 18.871zm17.36-.626c11.655 0 11.655-17.619 0-17.619s-11.656 17.619 0 17.619zm17.36-.674c10.764 0 10.764-16.271 0-16.271s-10.763 16.271 0 16.271zm17.361-.626c9.936 0 9.936-15.019 0-15.019s-9.936 15.019 0 15.019zm17.36-.674c9.044 0 9.044-13.671 0-13.671s-9.044 13.671 0 13.671zm17.361-.625c8.216 0 8.216-12.42 0-12.42s-8.216 12.42 0 12.42zm17.36-.626c7.388 0 7.388-11.168 0-11.168s-7.388 11.168 0 11.168zm17.361-.674c6.496 0 6.496-9.82 0-9.82s-6.497 9.82 0 9.82zm17.36-.626c5.669 0 5.669-8.569 0-8.569s-5.668 8.569 0 8.569zm17.36-.626c4.841 0 4.841-7.317 0-7.317s-4.84 7.317 0 7.317zm17.361-.626c4.013 0 4.013-6.065 0-6.065s-4.013 6.065 0 6.065zm17.361-.673c3.12 0 3.12-4.718 0-4.718s-3.121 4.718 0 4.718zm17.36-.626c2.293 0 2.293-3.466 0-3.466s-2.293 3.466 0 3.466zm17.361-.674c1.401 0 1.401-2.119 0-2.119s-1.402 2.119 0 2.119zm17.36-.626c.573 0 .573-.867 0-.867s-.574.867 0 .867zm-555.535 17.312c.509 0 .509-.77 0-.77s-.509.77 0 .77zm17.36.626c1.338 0 1.338-2.022 0-2.022s-1.337 2.022 0 2.022zm17.361.626c2.165 0 2.165-3.273 0-3.273s-2.166 3.273 0 3.273zm17.361.674c3.057 0 3.057-4.621 0-4.621s-3.058 4.621 0 4.621zm17.36.626c3.885 0 3.885-5.873 0-5.873s-3.885 5.873 0 5.873zm17.361.625c4.712 0 4.712-7.124 0-7.124s-4.714 7.124 0 7.124zm17.36.626c5.541 0 5.541-8.376 0-8.376s-5.541 8.376 0 8.376zm17.36.674c6.433 0 6.433-9.724 0-9.724s-6.433 9.724 0 9.724zm17.361.626c7.261 0 7.261-10.976 0-10.976s-7.261 10.976 0 10.976zm17.36.626c8.089 0 8.089-12.228 0-12.228s-8.088 12.228 0 12.228zm17.361.626c8.917 0 8.917-13.479 0-13.479s-8.917 13.479 0 13.479zm17.36.674c9.809 0 9.809-14.827 0-14.827s-9.808 14.827 0 14.827zm17.361.626c10.636 0 10.636-16.079 0-16.079s-10.637 16.079 0 16.079zm17.36.625c11.465 0 11.465-17.33 0-17.33s-11.464 17.33 0 17.33zm17.36.578c12.229 0 12.229-18.486 0-18.486s-12.228 18.486 0 18.486zm17.361.578c12.993 0 12.993-19.641 0-19.641s-12.993 19.641 0 19.641zm17.361.24c13.311 0 13.311-20.122 0-20.122s-13.312 20.122 0 20.122zm17.36-.24c12.993 0 12.993-19.641 0-19.641s-12.993 19.641 0 19.641zm17.361-.53c12.292 0 12.292-18.582 0-18.582s-12.293 18.582 0 18.582zm17.36-.577c11.528 0 11.528-17.427 0-17.427s-11.528 17.427 0 17.427zm17.36-.626c10.701 0 10.701-16.175 0-16.175s-10.7 16.175 0 16.175zm17.361-.626c9.872 0 9.872-14.924 0-14.924s-9.872 14.924 0 14.924zm17.36-.626c9.044 0 9.044-13.672 0-13.672s-9.044 13.672 0 13.672zm17.361-.674c8.152 0 8.152-12.324 0-12.324s-8.153 12.324 0 12.324zm17.36-.626c7.325 0 7.325-11.072 0-11.072s-7.324 11.072 0 11.072zm17.361-.625c6.496 0 6.496-9.821 0-9.821s-6.497 9.821 0 9.821zm17.36-.674c5.605 0 5.605-8.473 0-8.473s-5.605 8.473 0 8.473zm17.36-.626c4.777 0 4.777-7.221 0-7.221s-4.776 7.221 0 7.221zm17.361-.626c3.949 0 3.949-5.969 0-5.969s-3.949 5.969 0 5.969zm17.361-.626c3.12 0 3.12-4.718 0-4.718s-3.121 4.718 0 4.718zm17.36-.674c2.229 0 2.229-3.37 0-3.37s-2.229 3.37 0 3.37zm17.361-.626c1.401 0 1.401-2.118 0-2.118s-1.402 2.118 0 2.118zm17.36-.674c.509 0 .509-.77 0-.77s-.509.77 0 .77zm-555.535 17.265c.382 0 .382-.578 0-.578s-.382.578 0 .578zm17.36.674c1.274 0 1.274-1.926 0-1.926s-1.273 1.926 0 1.926zm17.361.625c2.102 0 2.102-3.177 0-3.177s-2.102 3.177 0 3.177zm17.361.626c2.929 0 2.929-4.429 0-4.429s-2.931 4.429 0 4.429zm17.36.674c3.821 0 3.821-5.777 0-5.777s-3.821 5.777 0 5.777zm17.361.626c4.649 0 4.649-7.029 0-7.029s-4.65 7.029 0 7.029zm17.36.626c5.477 0 5.477-8.28 0-8.28s-5.478 8.28 0 8.28zm17.36.626c6.306 0 6.306-9.532 0-9.532s-6.305 9.532 0 9.532zm17.361.577c7.069 0 7.069-10.687 0-10.687s-7.07 10.687 0 10.687zm17.36.626c7.898 0 7.898-11.939 0-11.939s-7.897 11.939 0 11.939zm17.361.626c8.725 0 8.725-13.19 0-13.19s-8.726 13.19 0 13.19zm17.36.626c9.554 0 9.554-14.442 0-14.442s-9.554 14.442 0 14.442zm17.361.577c10.318 0 10.318-15.597 0-15.597s-10.318 15.597 0 15.597zm17.36.578c11.082 0 11.082-16.753 0-16.753s-11.082 16.753 0 16.753zm17.36.53c11.783 0 11.783-17.812 0-17.812s-11.783 17.812 0 17.812zm17.361.385c12.293 0 12.293-18.583 0-18.583s-12.292 18.583 0 18.583zm17.361.144c12.483 0 12.483-18.871 0-18.871s-12.484 18.871 0 18.871zm17.36-.144c12.293 0 12.293-18.583 0-18.583s-12.293 18.583 0 18.583zm17.361-.385c11.783 0 11.783-17.812 0-17.812s-11.783 17.812 0 17.812zm17.36-.482c11.146 0 11.146-16.849 0-16.849s-11.146 16.849 0 16.849zm17.36-.578c10.382 0 10.382-15.693 0-15.693s-10.382 15.693 0 15.693zm17.361-.577c9.617 0 9.617-14.538 0-14.538s-9.617 14.538 0 14.538zm17.36-.626c8.79 0 8.79-13.287 0-13.287s-8.789 13.287 0 13.287zm17.361-.626c7.962 0 7.962-12.035 0-12.035s-7.962 12.035 0 12.035zm17.36-.626c7.133 0 7.133-10.783 0-10.783s-7.133 10.783 0 10.783zm17.361-.625c6.305 0 6.305-9.532 0-9.532s-6.306 9.532 0 9.532zm17.36-.578c5.541 0 5.541-8.377 0-8.377s-5.541 8.377 0 8.377zm17.36-.626c4.714 0 4.714-7.125 0-7.125s-4.712 7.125 0 7.125zm17.361-.626c3.885 0 3.885-5.873 0-5.873s-3.885 5.873 0 5.873zm17.361-.674c2.993 0 2.993-4.525 0-4.525s-2.994 4.525 0 4.525zm17.36-.626c2.166 0 2.166-3.273 0-3.273s-2.166 3.273 0 3.273zm17.361-.626c1.337 0 1.337-2.021 0-2.021s-1.338 2.021 0 2.021zm17.36-.673c.446 0 .446-.674 0-.674s-.446.674 0 .674zm-555.535 17.264c.319 0 .319-.482 0-.482s-.318.482 0 .482zm17.36.577c1.083 0 1.083-1.636 0-1.636s-1.082 1.636 0 1.636zm17.361.674c1.974 0 1.974-2.984 0-2.984s-1.974 2.984 0 2.984zm17.361.626c2.802 0 2.802-4.236 0-4.236s-2.803 4.236 0 4.236zm17.36.626c3.63 0 3.63-5.488 0-5.488s-3.63 5.488 0 5.488zm17.361.626c4.458 0 4.458-6.74 0-6.74s-4.459 6.74 0 6.74zm17.36.578c5.223 0 5.223-7.896 0-7.896s-5.223 7.896 0 7.896zm17.36.625c6.051 0 6.051-9.146 0-9.146s-6.05 9.146 0 9.146zm17.361.626c6.878 0 6.878-10.398 0-10.398s-6.879 10.398 0 10.398zm17.36.578c7.643 0 7.643-11.554 0-11.554s-7.643 11.554 0 11.554zm17.361.578c8.407 0 8.407-12.709 0-12.709s-8.407 12.709 0 12.709zm17.36.577c9.172 0 9.172-13.864 0-13.864s-9.171 13.864 0 13.864zm17.361.53c9.872 0 9.872-14.923 0-14.923s-9.873 14.923 0 14.923zm17.36.529c10.573 0 10.573-15.982 0-15.982s-10.573 15.982 0 15.982zm17.36.385c11.083 0 11.083-16.752 0-16.752s-11.082 16.752 0 16.752zm17.361.289c11.464 0 11.464-17.33 0-17.33s-11.465 17.33 0 17.33zm17.361.145c11.655 0 11.655-17.619 0-17.619s-11.656 17.619 0 17.619zm17.36-.097c11.528 0 11.528-17.426 0-17.426s-11.528 17.426 0 17.426zm17.361-.289c11.146 0 11.146-16.848 0-16.848s-11.147 16.848 0 16.848zm17.36-.384c10.636 0 10.636-16.08 0-16.08s-10.636 16.08 0 16.08zm17.36-.53c9.936 0 9.936-15.02 0-15.02s-9.936 15.02 0 15.02zm17.361-.53c9.235 0 9.235-13.96 0-13.96s-9.235 13.96 0 13.96zm17.36-.577c8.471 0 8.471-12.806 0-12.806s-8.471 12.806 0 12.806zm17.361-.578c7.707 0 7.707-11.65 0-11.65s-7.707 11.65 0 11.65zm17.36-.626c6.879 0 6.879-10.398 0-10.398s-6.878 10.398 0 10.398zm17.361-.578c6.114 0 6.114-9.242 0-9.242s-6.115 9.242 0 9.242zm17.36-.626c5.287 0 5.287-7.99 0-7.99s-5.286 7.99 0 7.99zm17.36-.577c4.523 0 4.523-6.836 0-6.836s-4.521 6.836 0 6.836zm17.361-.626c3.694 0 3.694-5.584 0-5.584s-3.694 5.584 0 5.584zm17.361-.626c2.865 0 2.865-4.332 0-4.332s-2.866 4.332 0 4.332zm17.36-.626c2.038 0 2.038-3.08 0-3.08s-2.038 3.08 0 3.08zm17.361-.674c1.146 0 1.146-1.732 0-1.732s-1.147 1.732 0 1.732zm17.36-.625c.318 0 .318-.482 0-.482s-.319.482 0 .482zm-555.535 17.264c.191 0 .191-.289 0-.289s-.191.289 0 .289zm17.36.529c.892 0 .892-1.348 0-1.348s-.891 1.348 0 1.348zm17.361.626c1.72 0 1.72-2.599 0-2.599s-1.72 2.599 0 2.599zm17.361.626c2.547 0 2.547-3.851 0-3.851s-2.548 3.851 0 3.851zm17.36.626c3.376 0 3.376-5.103 0-5.103s-3.376 5.103 0 5.103zm17.361.626c4.203 0 4.203-6.355 0-6.355s-4.204 6.355 0 6.355zm17.36.577c4.968 0 4.968-7.509 0-7.509s-4.968 7.509 0 7.509zm17.36.578c5.733 0 5.733-8.665 0-8.665s-5.732 8.665 0 8.665zm17.361.578c6.497 0 6.497-9.821 0-9.821s-6.497 9.821 0 9.821zm17.36.577c7.261 0 7.261-10.975 0-10.975s-7.261 10.975 0 10.975zm17.361.578c8.025 0 8.025-12.131 0-12.131s-8.026 12.131 0 12.131zm17.36.529c8.726 0 8.726-13.19 0-13.19s-8.725 13.19 0 13.19zm17.361.482c9.362 0 9.362-14.153 0-14.153s-9.363 14.153 0 14.153zm17.36.433c9.936 0 9.936-15.019 0-15.019s-9.936 15.019 0 15.019zm17.36.337c10.382 0 10.382-15.693 0-15.693s-10.381 15.693 0 15.693zm17.361.241c10.7 0 10.7-16.175 0-16.175s-10.7 16.175 0 16.175zm17.361.048c10.764 0 10.764-16.271 0-16.271s-10.764 16.271 0 16.271zm17.36-.048c10.7 0 10.7-16.175 0-16.175s-10.7 16.175 0 16.175zm17.361-.241c10.381 0 10.381-15.693 0-15.693s-10.382 15.693 0 15.693zm17.36-.337c9.936 0 9.936-15.019 0-15.019s-9.936 15.019 0 15.019zm17.36-.433c9.363 0 9.363-14.153 0-14.153s-9.362 14.153 0 14.153zm17.361-.482c8.725 0 8.725-13.19 0-13.19s-8.726 13.19 0 13.19zm17.36-.529c8.026 0 8.026-12.131 0-12.131s-8.025 12.131 0 12.131zm17.361-.529c7.324 0 7.324-11.072 0-11.072s-7.325 11.072 0 11.072zm17.36-.578c6.561 0 6.561-9.917 0-9.917s-6.56 9.917 0 9.917zm17.361-.578c5.796 0 5.796-8.761 0-8.761s-5.796 8.761 0 8.761zm17.36-.578c5.032 0 5.032-7.606 0-7.606s-5.032 7.606 0 7.606zm17.36-.577c4.268 0 4.268-6.451 0-6.451s-4.267 6.451 0 6.451zm17.361-.626c3.44 0 3.44-5.199 0-5.199s-3.439 5.199 0 5.199zm17.361-.626c2.611 0 2.611-3.947 0-3.947s-2.612 3.947 0 3.947zm17.36-.626c1.783 0 1.783-2.695 0-2.695s-1.783 2.695 0 2.695zm17.361-.625c.955 0 .955-1.444 0-1.444s-.956 1.444 0 1.444zm17.36-.578c.191 0 .191-.289 0-.289s-.191.289 0 .289zm-555.535 17.264c.064 0 .064-.096 0-.096s-.063.096 0 .096zm17.36.481c.701 0 .701-1.059 0-1.059s-.7 1.059 0 1.059zm17.361.578c1.465 0 1.465-2.214 0-2.214s-1.465 2.214 0 2.214zm17.361.626c2.292 0 2.292-3.466 0-3.466s-2.293 3.466 0 3.466zm17.36.626c3.121 0 3.121-4.718 0-4.718s-3.121 4.718 0 4.718zm17.361.577c3.885 0 3.885-5.872 0-5.872s-3.886 5.872 0 5.872zm17.36.578c4.649 0 4.649-7.028 0-7.028s-4.65 7.028 0 7.028zm17.36.53c5.35 0 5.35-8.088 0-8.088s-5.35 8.088 0 8.088zm17.361.578c6.114 0 6.114-9.244 0-9.244s-6.115 9.244 0 9.244zm17.36.529c6.815 0 6.815-10.302 0-10.302s-6.815 10.302 0 10.302zm17.361.53c7.515 0 7.515-11.361 0-11.361s-7.516 11.361 0 11.361zm17.36.481c8.153 0 8.153-12.324 0-12.324s-8.152 12.324 0 12.324zm17.361.433c8.726 0 8.726-13.19 0-13.19s-8.726 13.19 0 13.19zm17.36.337c9.172 0 9.172-13.864 0-13.864s-9.172 13.864 0 13.864zm17.36.337c9.618 0 9.618-14.538 0-14.538s-9.617 14.538 0 14.538zm17.361.193c9.872 0 9.872-14.924 0-14.924s-9.872 14.924 0 14.924zm17.361.048c9.935 0 9.935-15.02 0-15.02s-9.936 15.02 0 15.02zm17.36-.048c9.872 0 9.872-14.924 0-14.924s-9.872 14.924 0 14.924zm17.361-.193c9.617 0 9.617-14.538 0-14.538s-9.618 14.538 0 14.538zm17.36-.289c9.235 0 9.235-13.96 0-13.96s-9.235 13.96 0 13.96zm17.36-.385c8.726 0 8.726-13.19 0-13.19s-8.725 13.19 0 13.19zm17.361-.433c8.152 0 8.152-12.324 0-12.324s-8.153 12.324 0 12.324zm17.36-.481c7.516 0 7.516-11.361 0-11.361s-7.516 11.361 0 11.361zm17.361-.482c6.879 0 6.879-10.398 0-10.398s-6.879 10.398 0 10.398zm17.36-.529c6.178 0 6.178-9.34 0-9.34s-6.178 9.34 0 9.34zm17.361-.578c5.413 0 5.413-8.184 0-8.184s-5.414 8.184 0 8.184zm17.36-.53c4.713 0 4.713-7.124 0-7.124s-4.713 7.124 0 7.124zm17.36-.577c3.949 0 3.949-5.97 0-5.97s-3.948 5.97 0 5.97zm17.361-.626c3.121 0 3.121-4.718 0-4.718s-3.121 4.718 0 4.718zm17.361-.578c2.356 0 2.356-3.562 0-3.562s-2.357 3.562 0 3.562zm17.36-.626c1.529 0 1.529-2.31 0-2.31s-1.528 2.31 0 2.31zm17.361-.577c.764 0 .764-1.156 0-1.156s-.765 1.156 0 1.156zm17.36-.53c.064 0 .064-.096 0-.096s-.063.096 0 .096zm-538.175 17.601c.383 0 .383-.577 0-.577s-.382.577 0 .577zm17.361.578c1.147 0 1.147-1.733 0-1.733s-1.146 1.733 0 1.733zm17.361.626c1.974 0 1.974-2.985 0-2.985s-1.975 2.985 0 2.985zm17.36.577c2.738 0 2.738-4.14 0-4.14s-2.739 4.14 0 4.14zm17.361.578c3.503 0 3.503-5.295 0-5.295s-3.504 5.295 0 5.295zm17.36.53c4.203 0 4.203-6.355 0-6.355s-4.204 6.355 0 6.355zm17.36.577c4.968 0 4.968-7.509 0-7.509s-4.967 7.509 0 7.509zm17.361.482c5.605 0 5.605-8.473 0-8.473s-5.605 8.473 0 8.473zm17.36.53c6.306 0 6.306-9.532 0-9.532s-6.305 9.532 0 9.532zm17.361.481c6.942 0 6.942-10.495 0-10.495s-6.943 10.495 0 10.495zm17.36.433c7.516 0 7.516-11.361 0-11.361s-7.515 11.361 0 11.361zm17.361.385c8.025 0 8.025-12.131 0-12.131s-8.026 12.131 0 12.131zm17.36.337c8.471 0 8.471-12.805 0-12.805s-8.471 12.805 0 12.805zm17.36.241c8.79 0 8.79-13.287 0-13.287s-8.789 13.287 0 13.287zm17.361.144c8.981 0 8.981-13.575 0-13.575s-8.98 13.575 0 13.575zm17.361.048c9.044 0 9.044-13.671 0-13.671s-9.045 13.671 0 13.671zm17.36 0c9.044 0 9.044-13.671 0-13.671s-9.044 13.671 0 13.671zm17.361-.192c8.789 0 8.789-13.287 0-13.287s-8.79 13.287 0 13.287zm17.36-.241c8.471 0 8.471-12.805 0-12.805s-8.471 12.805 0 12.805zm17.36-.337c8.026 0 8.026-12.131 0-12.131s-8.025 12.131 0 12.131zm17.361-.385c7.515 0 7.515-11.361 0-11.361s-7.516 11.361 0 11.361zm17.36-.433c6.943 0 6.943-10.495 0-10.495s-6.942 10.495 0 10.495zm17.361-.433c6.369 0 6.369-9.629 0-9.629s-6.369 9.629 0 9.629zm17.36-.53c5.669 0 5.669-8.569 0-8.569s-5.668 8.569 0 8.569zm17.361-.481c5.032 0 5.032-7.607 0-7.607s-5.032 7.607 0 7.607zm17.36-.578c4.268 0 4.268-6.451 0-6.451s-4.267 6.451 0 6.451zm17.36-.53c3.567 0 3.567-5.392 0-5.392s-3.566 5.392 0 5.392zm17.361-.577c2.803 0 2.803-4.236 0-4.236s-2.802 4.236 0 4.236zm17.361-.578c2.038 0 2.038-3.081 0-3.081s-2.039 3.081 0 3.081zm17.36-.626c1.21 0 1.21-1.829 0-1.829s-1.21 1.829 0 1.829zm17.361-.577c.445 0 .445-.674 0-.674s-.446.674 0 .674zm-520.815 17.119c.128 0 .128-.192 0-.192s-.127.192 0 .192zm17.361.53c.828 0 .828-1.252 0-1.252s-.828 1.252 0 1.252zm17.361.577c1.592 0 1.592-2.407 0-2.407s-1.593 2.407 0 2.407zm17.36.578c2.357 0 2.357-3.562 0-3.562s-2.357 3.562 0 3.562zm17.361.53c3.057 0 3.057-4.622 0-4.622s-3.058 4.622 0 4.622zm17.36.529c3.758 0 3.758-5.68 0-5.68s-3.758 5.68 0 5.68zm17.36.53c4.459 0 4.459-6.74 0-6.74s-4.458 6.74 0 6.74zm17.361.481c5.095 0 5.095-7.703 0-7.703s-5.095 7.703 0 7.703zm17.36.482c5.733 0 5.733-8.666 0-8.666s-5.732 8.666 0 8.666zm17.361.433c6.305 0 6.305-9.532 0-9.532s-6.306 9.532 0 9.532zm17.36.385c6.815 0 6.815-10.302 0-10.302s-6.815 10.302 0 10.302zm17.361.385c7.324 0 7.324-11.072 0-11.072s-7.325 11.072 0 11.072zm17.36.289c7.707 0 7.707-11.65 0-11.65s-7.707 11.65 0 11.65zm17.36.192c7.962 0 7.962-12.035 0-12.035s-7.961 12.035 0 12.035zm17.361.145c8.153 0 8.153-12.324 0-12.324s-8.153 12.324 0 12.324zm17.361.048c8.216 0 8.216-12.42 0-12.42s-8.217 12.42 0 12.42zm17.36-.048c8.153 0 8.153-12.324 0-12.324s-8.153 12.324 0 12.324zm17.361-.145c7.961 0 7.961-12.035 0-12.035s-7.962 12.035 0 12.035zm17.36-.192c7.706 0 7.706-11.65 0-11.65s-7.707 11.65 0 11.65zm17.36-.289c7.325 0 7.325-11.072 0-11.072s-7.324 11.072 0 11.072zm17.361-.337c6.878 0 6.878-10.398 0-10.398s-6.879 10.398 0 10.398zm17.36-.385c6.369 0 6.369-9.628 0-9.628s-6.369 9.628 0 9.628zm17.361-.434c5.796 0 5.796-8.761 0-8.761s-5.796 8.761 0 8.761zm17.36-.481c5.159 0 5.159-7.798 0-7.798s-5.159 7.798 0 7.798zm17.361-.481c4.522 0 4.522-6.836 0-6.836s-4.522 6.836 0 6.836zm17.36-.53c3.822 0 3.822-5.777 0-5.777s-3.821 5.777 0 5.777zm17.36-.529c3.122 0 3.122-4.718 0-4.718s-3.12 4.718 0 4.718zm17.361-.578c2.357 0 2.357-3.562 0-3.562s-2.356 3.562 0 3.562zm17.361-.53c1.656 0 1.656-2.503 0-2.503s-1.657 2.503 0 2.503zm17.36-.577c.892 0 .892-1.348 0-1.348s-.892 1.348 0 1.348zm17.361-.53c.19 0 .19-.288 0-.288s-.192.288 0 .288zm-503.454 17.553c.446 0 .446-.673 0-.673s-.446.673 0 .673zm17.361.53c1.146 0 1.146-1.733 0-1.733s-1.147 1.733 0 1.733zm17.36.529c1.847 0 1.847-2.792 0-2.792s-1.847 2.792 0 2.792zm17.361.578c2.611 0 2.611-3.947 0-3.947s-2.612 3.947 0 3.947zm17.36.482c3.248 0 3.248-4.911 0-4.911s-3.248 4.911 0 4.911zm17.36.481c3.885 0 3.885-5.873 0-5.873s-3.885 5.873 0 5.873zm17.361.481c4.522 0 4.522-6.836 0-6.836s-4.522 6.836 0 6.836zm17.36.433c5.096 0 5.096-7.702 0-7.702s-5.095 7.702 0 7.702zm17.361.434c5.669 0 5.669-8.569 0-8.569s-5.669 8.569 0 8.569zm17.36.337c6.115 0 6.115-9.243 0-9.243s-6.114 9.243 0 9.243zm17.361.337c6.56 0 6.56-9.917 0-9.917s-6.561 9.917 0 9.917zm17.36.24c6.879 0 6.879-10.398 0-10.398s-6.879 10.398 0 10.398zm17.36.193c7.134 0 7.134-10.783 0-10.783s-7.133 10.783 0 10.783zm17.361.145c7.324 0 7.324-11.073 0-11.073s-7.325 11.073 0 11.073zm17.361.048c7.388 0 7.388-11.169 0-11.169s-7.389 11.169 0 11.169zm17.36-.048c7.324 0 7.324-11.073 0-11.073s-7.324 11.073 0 11.073zm17.361-.145c7.133 0 7.133-10.783 0-10.783s-7.134 10.783 0 10.783zm17.36-.193c6.879 0 6.879-10.398 0-10.398s-6.879 10.398 0 10.398zm17.36-.24c6.561 0 6.561-9.917 0-9.917s-6.56 9.917 0 9.917zm17.361-.289c6.178 0 6.178-9.339 0-9.339s-6.178 9.339 0 9.339zm17.36-.385c5.669 0 5.669-8.569 0-8.569s-5.668 8.569 0 8.569zm17.361-.385c5.159 0 5.159-7.799 0-7.799s-5.159 7.799 0 7.799zm17.36-.433c4.586 0 4.586-6.933 0-6.933s-4.585 6.933 0 6.933zm17.361-.482c3.949 0 3.949-5.969 0-5.969s-3.949 5.969 0 5.969zm17.36-.481c3.312 0 3.312-5.007 0-5.007s-3.312 5.007 0 5.007zm17.36-.53c2.612 0 2.612-3.947 0-3.947s-2.611 3.947 0 3.947zm17.361-.529c1.911 0 1.911-2.889 0-2.889s-1.911 2.889 0 2.889zm17.361-.53c1.21 0 1.21-1.829 0-1.829s-1.21 1.829 0 1.829zm17.36-.578c.446 0 .446-.673 0-.673s-.446.673 0 .673zm-486.093 17.12c.127 0 .127-.192 0-.192s-.128.192 0 .192zm17.361.433c.7 0 .7-1.059 0-1.059s-.701 1.059 0 1.059zm17.36.53c1.401 0 1.401-2.118 0-2.118s-1.401 2.118 0 2.118zm17.361.481c2.037 0 2.037-3.081 0-3.081s-2.039 3.081 0 3.081zm17.36.53c2.739 0 2.739-4.14 0-4.14s-2.739 4.14 0 4.14zm17.36.433c3.313 0 3.313-5.006 0-5.006s-3.312 5.006 0 5.006zm17.361.481c3.949 0 3.949-5.969 0-5.969s-3.949 5.969 0 5.969zm17.36.386c4.459 0 4.459-6.74 0-6.74s-4.458 6.74 0 6.74zm17.361.385c4.968 0 4.968-7.51 0-7.51s-4.968 7.51 0 7.51zm17.36.337c5.414 0 5.414-8.184 0-8.184s-5.414 8.184 0 8.184zm17.361.289c5.796 0 5.796-8.762 0-8.762s-5.796 8.762 0 8.762zm17.36.24c6.115 0 6.115-9.243 0-9.243s-6.114 9.243 0 9.243zm17.36.145c6.306 0 6.306-9.532 0-9.532s-6.305 9.532 0 9.532zm17.361.096c6.433 0 6.433-9.724 0-9.724s-6.433 9.724 0 9.724zm17.361.048c6.496 0 6.496-9.821 0-9.821s-6.497 9.821 0 9.821zm17.36 0c6.496 0 6.496-9.821 0-9.821s-6.497 9.821 0 9.821zm17.361-.144c6.305 0 6.305-9.532 0-9.532s-6.306 9.532 0 9.532zm17.36-.145c6.114 0 6.114-9.243 0-9.243s-6.115 9.243 0 9.243zm17.36-.24c5.796 0 5.796-8.762 0-8.762s-5.796 8.762 0 8.762zm17.361-.289c5.414 0 5.414-8.184 0-8.184s-5.414 8.184 0 8.184zm17.36-.289c5.032 0 5.032-7.606 0-7.606s-5.031 7.606 0 7.606zm17.361-.385c4.522 0 4.522-6.836 0-6.836s-4.522 6.836 0 6.836zm17.36-.434c3.949 0 3.949-5.969 0-5.969s-3.949 5.969 0 5.969zm17.361-.433c3.375 0 3.375-5.102 0-5.102s-3.376 5.102 0 5.102zm17.36-.481c2.739 0 2.739-4.14 0-4.14s-2.739 4.14 0 4.14zm17.36-.481c2.102 0 2.102-3.178 0-3.178s-2.101 3.178 0 3.178zm17.361-.482c1.465 0 1.465-2.215 0-2.215s-1.465 2.215 0 2.215zm17.361-.529c.764 0 .764-1.156 0-1.156s-.765 1.156 0 1.156zm17.36-.482c.127 0 .127-.192 0-.192s-.127.192 0 .192zM198.46 483.95c.254 0 .254-.385 0-.385s-.255.385 0 .385zm17.36.433c.828 0 .828-1.252 0-1.252s-.828 1.252 0 1.252zm17.361.53c1.528 0 1.528-2.311 0-2.311s-1.529 2.311 0 2.311zm17.36.433c2.102 0 2.102-3.177 0-3.177s-2.102 3.177 0 3.177zm17.36.482c2.739 0 2.739-4.141 0-4.141s-2.738 4.141 0 4.141zm17.361.384c3.248 0 3.248-4.91 0-4.91s-3.248 4.91 0 4.91zm17.36.434c3.822 0 3.822-5.777 0-5.777s-3.821 5.777 0 5.777zm17.361.337c4.267 0 4.267-6.451 0-6.451s-4.268 6.451 0 6.451zm17.36.289c4.65 0 4.65-7.029 0-7.029s-4.65 7.029 0 7.029zm17.361.288c5.032 0 5.032-7.606 0-7.606s-5.032 7.606 0 7.606zm17.36.193c5.287 0 5.287-7.991 0-7.991s-5.286 7.991 0 7.991zm17.36.144c5.478 0 5.478-8.28 0-8.28s-5.477 8.28 0 8.28zm17.361.097c5.605 0 5.605-8.473 0-8.473s-5.605 8.473 0 8.473zm17.361.048c5.668 0 5.668-8.569 0-8.569s-5.669 8.569 0 8.569zm17.36-.048c5.605 0 5.605-8.473 0-8.473s-5.605 8.473 0 8.473zm17.361-.048c5.541 0 5.541-8.377 0-8.377s-5.541 8.377 0 8.377zm17.36-.193c5.286 0 5.286-7.991 0-7.991s-5.286 7.991 0 7.991zm17.36-.193c5.032 0 5.032-7.606 0-7.606s-5.031 7.606 0 7.606zm17.361-.24c4.713 0 4.713-7.125 0-7.125s-4.713 7.125 0 7.125zm17.36-.337c4.267 0 4.267-6.451 0-6.451s-4.267 6.451 0 6.451zm17.361-.337c3.821 0 3.821-5.777 0-5.777s-3.821 5.777 0 5.777zm17.36-.385c3.312 0 3.312-5.007 0-5.007s-3.312 5.007 0 5.007zm17.361-.433c2.739 0 2.739-4.141 0-4.141s-2.739 4.141 0 4.141zm17.36-.434c2.166 0 2.166-3.274 0-3.274s-2.165 3.274 0 3.274zm17.36-.481c1.529 0 1.529-2.311 0-2.311s-1.528 2.311 0 2.311zm17.361-.482c.892 0 .892-1.348 0-1.348s-.891 1.348 0 1.348zm17.361-.481c.254 0 .254-.385 0-.385s-.255.385 0 .385zM215.82 501.359c.318 0 .318-.482 0-.482s-.319.482 0 .482zm17.361.433c.891 0 .891-1.348 0-1.348s-.892 1.348 0 1.348zm17.36.481c1.529 0 1.529-2.311 0-2.311s-1.529 2.311 0 2.311zm17.36.433c2.102 0 2.102-3.177 0-3.177s-2.102 3.177 0 3.177zm17.361.386c2.611 0 2.611-3.948 0-3.948s-2.612 3.948 0 3.948zm17.36.336c3.057 0 3.057-4.621 0-4.621s-3.057 4.621 0 4.621zm17.361.338c3.503 0 3.503-5.296 0-5.296s-3.503 5.296 0 5.296zm17.36.288c3.885 0 3.885-5.873 0-5.873s-3.885 5.873 0 5.873zm17.361.241c4.203 0 4.203-6.355 0-6.355s-4.204 6.355 0 6.355zm17.36.193c4.458 0 4.458-6.74 0-6.74s-4.458 6.74 0 6.74zm17.36.144c4.65 0 4.65-7.028 0-7.028s-4.649 7.028 0 7.028zm17.361.096c4.777 0 4.777-7.221 0-7.221s-4.777 7.221 0 7.221zm17.361.048c4.84 0 4.84-7.317 0-7.317s-4.841 7.317 0 7.317zm17.36-.048c4.777 0 4.777-7.221 0-7.221s-4.777 7.221 0 7.221zm17.361-.048c4.713 0 4.713-7.124 0-7.124s-4.714 7.124 0 7.124zm17.36-.144c4.522 0 4.522-6.836 0-6.836s-4.522 6.836 0 6.836zm17.36-.193c4.268 0 4.268-6.45 0-6.45s-4.267 6.45 0 6.45zm17.361-.241c3.949 0 3.949-5.969 0-5.969s-3.949 5.969 0 5.969zm17.36-.288c3.567 0 3.567-5.392 0-5.392s-3.567 5.392 0 5.392zm17.361-.337c3.121 0 3.121-4.718 0-4.718s-3.121 4.718 0 4.718zm17.36-.385c2.612 0 2.612-3.948 0-3.948s-2.611 3.948 0 3.948zm17.361-.386c2.102 0 2.102-3.177 0-3.177s-2.102 3.177 0 3.177zm17.36-.433c1.529 0 1.529-2.311 0-2.311s-1.529 2.311 0 2.311zm17.36-.433c.956 0 .956-1.444 0-1.444s-.955 1.444 0 1.444zm17.361-.433c.382 0 .382-.578 0-.578s-.382.578 0 .578zm-399.29 17.312c.318 0 .318-.482 0-.482s-.319.482 0 .482zm17.36.385c.828 0 .828-1.251 0-1.251s-.828 1.251 0 1.251zm17.36.433c1.401 0 1.401-2.118 0-2.118s-1.401 2.118 0 2.118zm17.361.385c1.911 0 1.911-2.888 0-2.888s-1.911 2.888 0 2.888zm17.36.337c2.357 0 2.357-3.562 0-3.562s-2.356 3.562 0 3.562zm17.361.289c2.738 0 2.738-4.14 0-4.14s-2.739 4.14 0 4.14zm17.36.289c3.121 0 3.121-4.718 0-4.718s-3.121 4.718 0 4.718zm17.361.241c3.439 0 3.439-5.199 0-5.199s-3.44 5.199 0 5.199zm17.36.192c3.694 0 3.694-5.584 0-5.584s-3.694 5.584 0 5.584zm17.36.097c3.822 0 3.822-5.777 0-5.777s-3.821 5.777 0 5.777zm17.361.096c3.949 0 3.949-5.969 0-5.969s-3.949 5.969 0 5.969zm17.361.048c4.012 0 4.012-6.066 0-6.066s-4.013 6.066 0 6.066zm17.36-.048c3.949 0 3.949-5.969 0-5.969s-3.949 5.969 0 5.969zm17.361-.048c3.884 0 3.884-5.873 0-5.873s-3.886 5.873 0 5.873zm17.36-.145c3.694 0 3.694-5.584 0-5.584s-3.694 5.584 0 5.584zm17.36-.192c3.44 0 3.44-5.199 0-5.199s-3.439 5.199 0 5.199zm17.361-.241c3.121 0 3.121-4.718 0-4.718s-3.121 4.718 0 4.718zm17.36-.24c2.803 0 2.803-4.237 0-4.237s-2.802 4.237 0 4.237zm17.361-.338c2.356 0 2.356-3.562 0-3.562s-2.357 3.562 0 3.562zm17.36-.337c1.911 0 1.911-2.888 0-2.888s-1.911 2.888 0 2.888zm17.361-.337c1.465 0 1.465-2.214 0-2.214s-1.466 2.214 0 2.214zm17.36-.433c.892 0 .892-1.348 0-1.348s-.892 1.348 0 1.348zm17.36-.385c.383 0 .383-.577 0-.577s-.381.577 0 .577zm-364.569 17.264c.255 0 .255-.385 0-.385s-.255.385 0 .385zm17.36.337c.701 0 .701-1.059 0-1.059s-.701 1.059 0 1.059zm17.361.337c1.146 0 1.146-1.733 0-1.733s-1.147 1.733 0 1.733zm17.36.337c1.593 0 1.593-2.407 0-2.407s-1.592 2.407 0 2.407zm17.361.289c1.974 0 1.974-2.984 0-2.984s-1.975 2.984 0 2.984zm17.36.289c2.357 0 2.357-3.562 0-3.562s-2.357 3.562 0 3.562zm17.361.192c2.611 0 2.611-3.947 0-3.947s-2.612 3.947 0 3.947zm17.36.193c2.866 0 2.866-4.332 0-4.332s-2.866 4.332 0 4.332zm17.36.096c2.994 0 2.994-4.525 0-4.525s-2.993 4.525 0 4.525zm17.361.097c3.121 0 3.121-4.718 0-4.718s-3.121 4.718 0 4.718zm17.361 0c3.121 0 3.121-4.718 0-4.718s-3.121 4.718 0 4.718zm17.36 0c3.121 0 3.121-4.718 0-4.718s-3.121 4.718 0 4.718zm17.361-.097c2.993 0 2.993-4.525 0-4.525s-2.994 4.525 0 4.525zm17.36-.096c2.866 0 2.866-4.332 0-4.332s-2.866 4.332 0 4.332zm17.36-.193c2.612 0 2.612-3.947 0-3.947s-2.611 3.947 0 3.947zm17.361-.192c2.356 0 2.356-3.562 0-3.562s-2.357 3.562 0 3.562zm17.36-.241c2.039 0 2.039-3.081 0-3.081s-2.038 3.081 0 3.081zm17.361-.289c1.656 0 1.656-2.503 0-2.503s-1.656 2.503 0 2.503zm17.36-.337c1.21 0 1.21-1.829 0-1.829s-1.21 1.829 0 1.829zm17.361-.337c.764 0 .764-1.155 0-1.155s-.765 1.155 0 1.155zm17.36-.385c.255 0 .255-.385 0-.385s-.255.385 0 .385zm-329.849 17.264c.128 0 .128-.192 0-.192s-.127.192 0 .192zm17.361.241c.446 0 .446-.674 0-.674s-.446.674 0 .674zm17.36.289c.828 0 .828-1.252 0-1.252s-.828 1.252 0 1.252zm17.361.289c1.21 0 1.21-1.83 0-1.83s-1.21 1.83 0 1.83zm17.36.241c1.529 0 1.529-2.311 0-2.311s-1.528 2.311 0 2.311zm17.361.192c1.783 0 1.783-2.695 0-2.695s-1.784 2.695 0 2.695zm17.36.145c1.975 0 1.975-2.985 0-2.985s-1.974 2.985 0 2.985zm17.36.144c2.166 0 2.166-3.274 0-3.274s-2.165 3.274 0 3.274zm17.361.048c2.229 0 2.229-3.37 0-3.37s-2.229 3.37 0 3.37zm17.361.048c2.292 0 2.292-3.466 0-3.466s-2.293 3.466 0 3.466zm17.36-.048c2.229 0 2.229-3.37 0-3.37s-2.229 3.37 0 3.37zm17.361-.048c2.165 0 2.165-3.274 0-3.274s-2.166 3.274 0 3.274zm17.36-.096c2.038 0 2.038-3.081 0-3.081s-2.038 3.081 0 3.081zm17.36-.193c1.784 0 1.784-2.695 0-2.695s-1.783 2.695 0 2.695zm17.361-.192c1.528 0 1.528-2.311 0-2.311s-1.529 2.311 0 2.311zm17.36-.241c1.21 0 1.21-1.83 0-1.83s-1.21 1.83 0 1.83zm17.361-.241c.892 0 .892-1.348 0-1.348s-.892 1.348 0 1.348zm17.36-.337c.446 0 .446-.674 0-.674s-.446.674 0 .674zm17.361-.241c.127 0 .127-.192 0-.192s-.128.192 0 .192zm-277.768 17.361c.128 0 .128-.193 0-.193s-.127.193 0 .193zm17.361.241c.445 0 .445-.674 0-.674s-.446.674 0 .674zm17.36.192c.701 0 .701-1.059 0-1.059s-.7 1.059 0 1.059zm17.361.192c.955 0 .955-1.443 0-1.443s-.955 1.443 0 1.443zm17.36.145c1.147 0 1.147-1.733 0-1.733s-1.146 1.733 0 1.733zm17.36.097c1.274 0 1.274-1.926 0-1.926s-1.273 1.926 0 1.926zm17.361.096c1.401 0 1.401-2.118 0-2.118s-1.401 2.118 0 2.118zm17.361 0c1.401 0 1.401-2.118 0-2.118s-1.402 2.118 0 2.118zm17.36 0c1.401 0 1.401-2.118 0-2.118s-1.401 2.118 0 2.118zm17.361-.049c1.337 0 1.337-2.021 0-2.021s-1.338 2.021 0 2.021zm17.36-.144c1.147 0 1.147-1.733 0-1.733s-1.146 1.733 0 1.733zm17.36-.145c.956 0 .956-1.443 0-1.443s-.955 1.443 0 1.443zm17.361-.144c.764 0 .764-1.155 0-1.155s-.764 1.155 0 1.155zm17.36-.24c.446 0 .446-.674 0-.674s-.446.674 0 .674zm17.361-.193c.191 0 .191-.289 0-.289s-.191.289 0 .289zm-208.326 17.264c.064 0 .064-.096 0-.096s-.064.096 0 .096zm17.361.097c.191 0 .191-.289 0-.289s-.191.289 0 .289zm17.36.096c.319 0 .319-.482 0-.482s-.318.482 0 .482zm17.36.096c.446 0 .446-.674 0-.674s-.445.674 0 .674zm17.361.048c.51 0 .51-.77 0-.77s-.509.77 0 .77zm17.361.049c.573 0 .573-.867 0-.867s-.574.867 0 .867zm17.36-.049c.51 0 .51-.77 0-.77s-.51.77 0 .77zm17.361-.048c.445 0 .445-.674 0-.674s-.446.674 0 .674zm17.36-.096c.318 0 .318-.482 0-.482s-.318.482 0 .482zm17.36-.096c.191 0 .191-.289 0-.289s-.191.289 0 .289zm17.361-.097c.064 0 .064-.096 0-.096s-.064.096 0 .096z" fill="#e8eee3"/><mask id="A" maskUnits="userSpaceOnUse" x="0" y="0" width="603" height="438" mask-type="alpha"><rect width="603" height="438" rx="25" fill="#497d28"/></mask><g mask="url(#A)"><rect width="603" height="438" rx="25" fill="#497d28"/><path d="M567.996 455L447 263.046 466.089 227l82.524 80.884 12.629-44.838 98.383 108.432L684 379.684l-5.874 33.702L631.725 455l-53.156-58.319L567.996 455z" fill="#67a83e"/></g></svg>